<svg width="35" height="45" viewBox="0 0 35 45" fill="none" xmlns="http://www.w3.org/2000/svg">
<path d="M15.0001 0C9.48531 0 5 4.48525 5 10.0001C5 12.1637 6.30709 14.9553 7.15519 16.5303L14.3966 29.9787L14.3964 29.9789C14.5179 30.1983 14.749 30.3347 14.9999 30.3347C15.2508 30.3347 15.4819 30.1983 15.6034 29.9789L22.8448 16.5305C23.6929 14.9555 25 12.1641 25 10.0003C25 4.48556 20.5147 0.000240534 14.9999 0.000240534L15.0001 0ZM15.0001 1.3792C19.7694 1.3792 23.6208 5.23064 23.6208 9.99995C23.6208 11.5428 22.4249 14.4116 21.6381 15.8728L15.0001 28.2005L8.36215 15.8728C7.57539 14.4116 6.37944 11.5428 6.37944 9.99995C6.37944 5.23064 10.2309 1.3792 15.0002 1.3792H15.0001ZM15.0001 4.8275C12.1517 4.8275 9.82762 7.15153 9.82762 9.99995C9.82762 12.8484 12.1517 15.1724 15.0001 15.1724C17.8485 15.1724 20.1725 12.8484 20.1725 9.99995C20.1725 7.15153 17.8485 4.8275 15.0001 4.8275ZM15.0001 6.20669C17.103 6.20669 18.7933 7.89667 18.7933 9.99995C18.7933 12.1029 17.1033 13.7932 15.0001 13.7932C12.8971 13.7932 11.2068 12.1032 11.2068 9.99995C11.2068 7.89698 12.8968 6.20669 15.0001 6.20669Z" fill="#1B1B1B"/>
</svg>
