<svg width="35" height="30" viewBox="0 0 35 30" fill="none" xmlns="http://www.w3.org/2000/svg">
<path fill-rule="evenodd" clip-rule="evenodd" d="M8.19525 4.51128C7.86848 4.18426 7.42468 4 6.9618 4C6.49871 4 6.05492 4.18425 5.72814 4.51128L3.53362 6.7062C2.26512 7.97494 1.73424 9.80502 2.12723 11.5553C2.12781 11.5576 2.1284 11.5605 2.12898 11.5629C2.77941 14.2936 4.46254 18.7111 8.87704 23.1263C13.2916 27.5417 17.7095 29.2249 20.4409 29.8717C20.4426 29.8722 20.445 29.8722 20.4473 29.8728C22.1954 30.2655 24.0242 29.7355 25.2914 28.4679C26.0353 27.7297 26.8816 26.8833 27.4888 26.2759C27.8164 25.9491 28 25.5052 28 25.0421C28 24.5791 27.8158 24.1352 27.4888 23.8084C26.3819 22.7013 24.4242 20.7432 23.3175 19.6361C22.9906 19.3093 22.5468 19.1248 22.0839 19.1248C21.621 19.1248 21.1772 19.3087 20.8502 19.6361L18.7827 21.7037C18.6146 21.8723 18.3609 21.9206 18.1434 21.8275C17.3128 21.3233 15.8089 20.2703 13.7709 18.2318C11.7345 16.1953 10.6824 14.6922 10.1864 13.8627C10.091 13.6434 10.1381 13.3913 10.305 13.2244C10.3062 13.2227 10.3074 13.2215 10.3091 13.2203C10.8727 12.6456 11.7334 11.7846 12.3669 11.1512C12.6942 10.8242 12.8781 10.3803 12.8781 9.91737C12.8781 9.4544 12.6937 9.01048 12.3669 8.68348L8.19525 4.51128ZM7.37288 5.33381L11.5444 9.50585C11.653 9.61473 11.7148 9.76315 11.7148 9.91721C11.7148 10.0713 11.653 10.2197 11.5444 10.3286C10.9085 10.9643 10.0443 11.8281 9.47841 12.4052C8.96019 12.9235 8.82524 13.7193 9.1458 14.3849C9.1532 14.3999 9.16138 14.4145 9.16956 14.4291C9.68364 15.2947 10.7847 16.8902 12.9482 19.0544C15.1102 21.2165 16.7037 22.3172 17.5653 22.8385C17.5808 22.8478 17.5972 22.8564 17.6134 22.8646C18.2817 23.1869 19.0809 23.0513 19.6055 22.526L21.6725 20.4585C21.7813 20.3498 21.9297 20.2881 22.0837 20.2881C22.2378 20.2881 22.3862 20.3498 22.495 20.4585L26.6663 24.6308C26.775 24.7394 26.8367 24.8879 26.8367 25.0419C26.8367 25.1962 26.775 25.3444 26.6663 25.4533C26.0597 26.0594 25.2151 26.9047 24.4706 27.6435C24.4701 27.6441 24.4695 27.6447 24.4689 27.6453C23.4837 28.63 22.0633 29.0426 20.7048 28.7383C18.1026 28.1223 13.9029 26.508 9.69932 22.3037C5.49594 18.0995 3.88201 13.8989 3.26134 11.2967C2.95716 9.93617 3.3702 8.51431 4.35596 7.52839L6.55048 5.33347C6.65934 5.22479 6.80753 5.16304 6.96176 5.16304C7.1158 5.16304 7.26419 5.22479 7.37285 5.33347L7.37288 5.33381Z" fill="#1B1B1B"/>
</svg>
