<svg width="35" height="19" viewBox="0 0 35 19" fill="none" xmlns="http://www.w3.org/2000/svg">
<path d="M4.07148 0C2.65806 0 1.5 1.1409 1.5 2.53337V16.4666C1.5 17.8591 2.65806 19 4.07148 19H25.9285C27.3419 19 28.5 17.8591 28.5 16.4666V2.53337C28.5 1.1409 27.3419 0 25.9285 0H4.07148ZM4.07148 1.26655H25.9285C26.0494 1.26655 26.1599 1.28687 26.27 1.31602L15.8839 11.637C15.3783 12.1404 14.6008 12.1404 14.0961 11.637L3.73978 1.30585C3.84629 1.2789 3.9548 1.26631 4.07117 1.26631L4.07148 1.26655ZM2.8361 2.2166L10.4901 9.84652L2.84586 16.8329C2.81111 16.7161 2.78555 16.5966 2.78555 16.4667V2.53345C2.78555 2.4219 2.80976 2.31919 2.83577 2.2167L2.8361 2.2166ZM27.1641 2.2166C27.1901 2.31887 27.2143 2.42158 27.2143 2.53335V16.4666C27.2143 16.5963 27.189 16.716 27.154 16.8328L19.5098 9.83624L27.1641 2.2166ZM18.5964 10.7371L26.2102 17.6936C26.1187 17.7132 26.0272 17.7331 25.929 17.7331H4.07197C3.97354 17.7331 3.88206 17.7132 3.79081 17.6936L11.3949 10.7468L13.1827 12.528C14.1753 13.5178 15.8057 13.5164 16.7987 12.528L18.5967 10.7368L18.5964 10.7371Z" fill="#1B1B1B"/>
</svg>
