<svg width="975" height="309" viewBox="0 0 975 309" fill="none" xmlns="http://www.w3.org/2000/svg">
<mask id="mask0_497_9561" style="mask-type:alpha" maskUnits="userSpaceOnUse" x="0" y="0" width="980" height="309">
<rect width="980" height="309" fill="#D9D9D9"/>
</mask>
<g mask="url(#mask0_497_9561)">
<path d="M928.988 105.051H928.857L884.357 128.651C884.294 128.702 884.249 128.77 884.226 128.847C884.207 128.884 884.197 128.925 884.197 128.967C884.197 129.009 884.207 129.05 884.226 129.087L976.187 220.351C976.21 220.378 976.238 220.4 976.27 220.416C976.302 220.431 976.337 220.438 976.372 220.438C976.408 220.438 976.443 220.431 976.475 220.416C976.507 220.4 976.535 220.378 976.557 220.351C976.585 220.309 976.599 220.26 976.599 220.209C976.599 220.159 976.585 220.11 976.557 220.068L929.009 105.225C928.974 105.154 928.911 105.099 928.835 105.073L928.988 105.051ZM885.032 129L928.857 105.748L975.795 219.067L885.032 129Z" fill="#394C60" fill-opacity="0.5"/>
<path d="M928.983 105.051C928.92 105.026 928.85 105.026 928.787 105.051C928.744 105.099 928.721 105.161 928.721 105.226C928.721 105.29 928.744 105.352 928.787 105.4L978.643 162.005C978.685 162.019 978.731 162.019 978.774 162.005L1055.26 184.973C1055.3 185.005 1055.35 185.022 1055.41 185.022C1055.46 185.022 1055.52 185.005 1055.56 184.973C1055.58 184.933 1055.59 184.888 1055.59 184.842C1055.59 184.797 1055.58 184.752 1055.56 184.712C1055.54 184.63 1055.48 184.56 1055.41 184.516L928.983 105.095V105.051ZM979.057 161.656L930.507 106.597L1053.67 183.928L979.057 161.656Z" fill="#394C60" fill-opacity="0.5"/>
<path d="M928.985 105.051C928.929 105.033 928.868 105.033 928.811 105.051C928.78 105.1 928.764 105.157 928.764 105.215C928.764 105.272 928.78 105.329 928.811 105.378L976.359 220.199C976.372 220.233 976.393 220.265 976.419 220.291C976.445 220.317 976.477 220.338 976.512 220.351H976.729L1055.61 184.929H1055.71C1055.76 184.881 1055.78 184.82 1055.78 184.755C1055.78 184.691 1055.76 184.629 1055.71 184.581C1055.72 184.545 1055.72 184.508 1055.71 184.472L928.985 105.095V105.051ZM976.686 219.807L929.486 106.009L1054.78 184.603L976.686 219.807Z" fill="#394C60" fill-opacity="0.5"/>
<path d="M456.115 49.7746C456.056 49.7763 456 49.796 455.953 49.8311C455.906 49.8662 455.872 49.9149 455.854 49.9705C455.818 50.0134 455.799 50.0673 455.799 50.1229C455.799 50.1785 455.818 50.2324 455.854 50.2753L570.435 124.297C570.483 124.34 570.545 124.364 570.609 124.364C570.673 124.364 570.735 124.34 570.783 124.297C570.805 124.233 570.805 124.165 570.783 124.101L572.808 60.6383C572.808 60.5669 572.781 60.498 572.733 60.4455C572.684 60.393 572.618 60.3608 572.547 60.3553L455.962 49.8181L456.115 49.7746ZM570.435 123.644L457.225 50.4713L572.46 60.8778L570.435 123.644Z" fill="#394C60" fill-opacity="0.5"/>
<path d="M900.116 78.5559L769.816 95.0366C769.754 95.0497 769.697 95.082 769.654 95.1289C769.611 95.1757 769.584 95.2348 769.576 95.2978C769.574 95.36 769.591 95.4214 769.627 95.4726C769.662 95.5237 769.713 95.5618 769.772 95.5809L884.419 129.108C884.462 129.144 884.516 129.163 884.571 129.163C884.627 129.163 884.681 129.144 884.724 129.108C884.73 129.065 884.73 129.021 884.724 128.978L900.334 78.9042C900.355 78.8639 900.366 78.8191 900.366 78.7736C900.366 78.7281 900.355 78.6833 900.334 78.643C900.308 78.611 900.274 78.5862 900.236 78.571C900.198 78.5557 900.157 78.5505 900.116 78.5559ZM771.144 95.3414L899.724 79.0566L884.31 128.455L771.144 95.3414Z" fill="#394C60" fill-opacity="0.5"/>
<path d="M989.097 54.6513L900.14 78.5995C900.092 78.6105 900.049 78.6347 900.014 78.6694C899.979 78.704 899.955 78.7477 899.944 78.7954C899.923 78.8358 899.912 78.8806 899.912 78.9261C899.912 78.9716 899.923 79.0164 899.944 79.0567L928.725 105.53C928.778 105.581 928.848 105.609 928.921 105.609C928.994 105.609 929.065 105.581 929.117 105.53L989.293 55.1303C989.323 55.0773 989.339 55.0173 989.339 54.9561C989.339 54.895 989.323 54.8349 989.293 54.7819C989.27 54.7483 989.241 54.7194 989.208 54.697C989.174 54.6745 989.136 54.659 989.097 54.6513ZM900.684 78.9696L987.986 55.5004L928.987 104.964L900.684 78.9696Z" fill="#394C60" fill-opacity="0.5"/>
<path d="M900.117 78.5558C900.071 78.5627 900.028 78.5828 899.994 78.6137C899.959 78.6447 899.934 78.6851 899.922 78.73L884.29 128.804C884.265 128.847 884.252 128.895 884.252 128.945C884.252 128.995 884.265 129.044 884.29 129.087C884.334 129.118 884.388 129.136 884.442 129.136C884.497 129.136 884.55 129.118 884.595 129.087L928.986 105.574C929.044 105.548 929.09 105.501 929.117 105.443C929.148 105.399 929.166 105.345 929.166 105.291C929.166 105.236 929.148 105.183 929.117 105.138L900.313 78.6429C900.289 78.6154 900.259 78.5934 900.225 78.5784C900.191 78.5634 900.154 78.5557 900.117 78.5558ZM884.878 128.346L900.117 79.3178L928.311 105.269L884.878 128.346Z" fill="#394C60" fill-opacity="0.5"/>
<path d="M989.096 54.6513C989.04 54.6294 988.978 54.6294 988.922 54.6513L928.725 105.073C928.705 105.137 928.705 105.205 928.725 105.269C928.704 105.333 928.704 105.401 928.725 105.465L978.581 162.07C978.618 162.106 978.664 162.132 978.714 162.145C978.765 162.157 978.817 162.155 978.867 162.139C978.916 162.124 978.96 162.095 978.994 162.055C979.028 162.016 979.051 161.969 979.06 161.917L989.379 54.9779C989.384 54.9239 989.372 54.8697 989.345 54.8229C989.318 54.7761 989.276 54.7389 989.227 54.7166L989.096 54.6513ZM929.291 105.356L988.748 55.5439L978.559 161.199L929.291 105.356Z" fill="#394C60" fill-opacity="0.5"/>
<path d="M457.949 20.6449C457.878 20.6243 457.802 20.6243 457.731 20.6449L437.854 42.0676C437.833 42.104 437.822 42.1453 437.822 42.1874C437.822 42.2294 437.833 42.2707 437.854 42.3071C437.859 42.3506 437.876 42.3918 437.903 42.4264C437.93 42.4609 437.966 42.4874 438.007 42.503L456.077 50.21C456.121 50.2513 456.179 50.2743 456.24 50.2743C456.301 50.2743 456.359 50.2513 456.403 50.21C456.425 50.154 456.425 50.0918 456.403 50.0358L458.232 20.9497C458.236 20.893 458.223 20.8364 458.196 20.7864C458.169 20.7364 458.129 20.6949 458.08 20.6666L457.949 20.6449ZM438.507 42.2418L457.623 21.6681L455.859 49.6222L438.507 42.2418Z" fill="#394C60" fill-opacity="0.5"/>
<path d="M432.17 41.8716C432.105 41.8758 432.045 41.9018 431.997 41.9454C431.95 41.9889 431.918 42.0474 431.909 42.1111C431.894 42.1745 431.905 42.2408 431.937 42.2971C431.969 42.3534 432.021 42.3958 432.083 42.4159L456.031 50.297C456.075 50.3383 456.134 50.3613 456.194 50.3613C456.255 50.3613 456.313 50.3383 456.357 50.297C456.396 50.2473 456.417 50.186 456.417 50.1228C456.417 50.0597 456.396 49.9984 456.357 49.9487L438.331 42.2417L432.453 42.0458L432.17 41.8716ZM450.066 47.7716L434.064 42.4812L437.983 42.6118L450.066 47.7716Z" fill="#394C60" fill-opacity="0.5"/>
<path d="M587.181 11.8493L458.056 20.5578C457.993 20.5655 457.934 20.5927 457.887 20.6356C457.84 20.6786 457.808 20.7351 457.795 20.7972C457.787 20.8629 457.802 20.9294 457.838 20.9851C457.874 21.0408 457.928 21.0822 457.991 21.102L572.725 60.7472C572.763 60.7643 572.805 60.7728 572.846 60.7719C572.888 60.771 572.93 60.7608 572.967 60.7421C573.005 60.7233 573.037 60.6965 573.063 60.6635C573.089 60.6305 573.107 60.5922 573.117 60.5513L587.464 12.1106C587.495 12.0264 587.495 11.9335 587.464 11.8493C587.421 11.8245 587.372 11.8114 587.322 11.8114C587.273 11.8114 587.224 11.8245 587.181 11.8493ZM459.406 21.102L586.811 12.3936L572.638 60.29L459.406 21.102Z" fill="#394C60" fill-opacity="0.5"/>
<path d="M457.947 20.6449H457.794C457.756 20.667 457.724 20.6987 457.701 20.7368C457.678 20.7749 457.665 20.8181 457.664 20.8625L455.835 49.9923C455.832 50.0266 455.836 50.0612 455.846 50.094C455.857 50.1269 455.874 50.1573 455.896 50.1836C455.918 50.2099 455.945 50.2316 455.976 50.2473C456.007 50.263 456.04 50.2726 456.074 50.2753L572.68 60.8125C572.811 60.8125 572.942 60.8125 572.985 60.5948C572.995 60.5318 572.983 60.4674 572.951 60.4121C572.919 60.3568 572.87 60.3138 572.811 60.29L458.034 20.6666L457.947 20.6449ZM456.401 49.8181L458.186 21.298L570.525 60.1158L456.401 49.8181Z" fill="#394C60" fill-opacity="0.5"/>
<path d="M683.474 2.50941L587.072 11.8492C587.008 11.8259 586.939 11.8259 586.876 11.8492C586.854 11.9201 586.854 11.996 586.876 12.0669L597.413 101.198C597.422 101.24 597.44 101.279 597.467 101.313C597.493 101.347 597.527 101.375 597.565 101.394C597.602 101.415 597.643 101.426 597.685 101.426C597.727 101.426 597.768 101.415 597.805 101.394L683.67 2.92307C683.705 2.88017 683.725 2.82627 683.725 2.77066C683.725 2.71504 683.705 2.66118 683.67 2.61828C683.649 2.58553 683.62 2.55849 683.586 2.53951C683.551 2.52054 683.513 2.5102 683.474 2.50941ZM587.376 12.35L682.821 3.119L597.805 100.61L587.376 12.35Z" fill="#394C60" fill-opacity="0.5"/>
<path d="M587.179 11.8494C587.119 11.8429 587.058 11.8596 587.01 11.896C586.961 11.9323 586.928 11.9857 586.918 12.0454L572.44 60.5078C572.424 60.542 572.416 60.5791 572.416 60.6167C572.416 60.6542 572.424 60.6914 572.44 60.7255L597.302 101.35C597.329 101.408 597.375 101.455 597.433 101.481C597.469 101.502 597.511 101.513 597.553 101.513C597.595 101.513 597.636 101.502 597.672 101.481C597.707 101.468 597.739 101.448 597.765 101.421C597.791 101.395 597.812 101.363 597.825 101.329V101.154L587.288 12.0889C587.288 12.0574 587.281 12.0263 587.269 11.9973C587.257 11.9682 587.24 11.9418 587.218 11.9196C587.195 11.8973 587.169 11.8797 587.14 11.8676C587.111 11.8556 587.08 11.8494 587.048 11.8494H587.179ZM573.006 60.5078L586.961 13.4169L597.172 100.001L573.006 60.5078Z" fill="#394C60" fill-opacity="0.5"/>
<path d="M797.445 -5.3063L683.952 26.6101C683.903 26.625 683.859 26.6533 683.824 26.6916C683.79 26.73 683.766 26.7771 683.757 26.8278C683.736 26.8681 683.725 26.9129 683.725 26.9584C683.725 27.0039 683.736 27.0487 683.757 27.0891L769.644 95.5374H769.796C769.854 95.5357 769.911 95.516 769.958 95.4809C770.004 95.4458 770.039 95.3971 770.057 95.3414L797.685 -5.02331C797.71 -5.06218 797.723 -5.10755 797.723 -5.15393C797.723 -5.2003 797.71 -5.24567 797.685 -5.28455C797.649 -5.30709 797.609 -5.32082 797.568 -5.32461C797.526 -5.3284 797.484 -5.32212 797.445 -5.3063ZM684.519 27.0237L797.053 -4.63141L769.665 94.8625L684.519 27.0237Z" fill="#394C60" fill-opacity="0.5"/>
<path d="M797.444 -5.30637C797.387 -5.30503 797.331 -5.28613 797.284 -5.25219C797.238 -5.21824 797.203 -5.17087 797.184 -5.11642C797.165 -5.06197 797.163 -5.00303 797.178 -4.94749C797.194 -4.89195 797.226 -4.84246 797.27 -4.80564L899.943 79.0348C899.979 79.0558 900.02 79.0669 900.062 79.0669C900.104 79.0669 900.146 79.0558 900.182 79.0348C900.221 79.0159 900.255 78.9884 900.281 78.9544C900.307 78.9205 900.326 78.881 900.335 78.8389L907.715 42.6553C907.725 42.6253 907.729 42.5936 907.727 42.562C907.725 42.5303 907.717 42.4995 907.702 42.4711C907.688 42.4427 907.669 42.4175 907.645 42.3968C907.621 42.3761 907.593 42.3604 907.563 42.3505L797.51 -5.32816L797.444 -5.30637ZM899.943 78.3381L799.121 -4.00012L907.214 42.8077L899.943 78.3381Z" fill="#394C60" fill-opacity="0.5"/>
<path d="M797.445 -5.30624C797.4 -5.29405 797.36 -5.26902 797.329 -5.23422C797.298 -5.19942 797.278 -5.15636 797.271 -5.11031L769.556 95.3415C769.53 95.3758 769.516 95.4179 769.516 95.4612C769.516 95.5045 769.53 95.5467 769.556 95.581C769.594 95.5985 769.635 95.6075 769.676 95.6075C769.718 95.6075 769.758 95.5985 769.796 95.581L900.096 79.0785C900.154 79.0744 900.21 79.0507 900.253 79.0112C900.297 78.9717 900.326 78.9187 900.335 78.8608C900.347 78.8113 900.343 78.7593 900.324 78.7123C900.304 78.6654 900.27 78.6258 900.227 78.5995L797.619 -5.24094C797.57 -5.28171 797.509 -5.30472 797.445 -5.30624ZM770.188 95.0149L797.598 -4.54427L899.443 78.6431L770.188 95.0149Z" fill="#394C60" fill-opacity="0.5"/>
<path d="M952.934 39.6728L907.41 42.3724C907.351 42.3893 907.299 42.425 907.262 42.4741C907.225 42.5232 907.205 42.5831 907.205 42.6446C907.205 42.7061 907.225 42.7659 907.262 42.815C907.299 42.8641 907.351 42.8998 907.41 42.9167L989.008 55.1956C989.079 55.2224 989.156 55.2224 989.226 55.1956C989.245 55.1586 989.255 55.1175 989.255 55.0759C989.255 55.0342 989.245 54.9931 989.226 54.9561C989.217 54.9086 989.196 54.8641 989.165 54.8262C989.135 54.7883 989.096 54.7582 989.052 54.7384L952.999 39.7599L952.934 39.6728ZM910.023 42.7643L952.934 40.2171L986.897 54.3248L910.023 42.7643Z" fill="#394C60" fill-opacity="0.5"/>
<path d="M907.495 42.3724C907.433 42.3716 907.372 42.393 907.324 42.433C907.276 42.4729 907.244 42.5287 907.234 42.5902L899.853 78.7737C899.83 78.8134 899.818 78.8585 899.818 78.9043C899.818 78.9502 899.83 78.9952 899.853 79.0349C899.894 79.0559 899.939 79.0669 899.984 79.0669C900.029 79.0669 900.074 79.0559 900.115 79.0349L989.05 55.0867C989.074 55.0969 989.1 55.1022 989.126 55.1022C989.152 55.1022 989.178 55.0969 989.202 55.0867C989.239 55.0404 989.259 54.9828 989.259 54.9235C989.259 54.8641 989.239 54.8065 989.202 54.7602C989.182 54.7202 989.15 54.6867 989.112 54.6637C989.073 54.6406 989.029 54.6287 988.984 54.6296L907.43 42.3507L907.495 42.3724ZM900.463 78.4689L907.713 42.9603L987.765 54.9997L900.463 78.4689Z" fill="#394C60" fill-opacity="0.5"/>
<path d="M952.932 39.6727C952.876 39.6695 952.82 39.6848 952.773 39.7162C952.726 39.7476 952.69 39.7935 952.671 39.8469C952.648 39.9021 952.646 39.964 952.666 40.0205C952.686 40.0769 952.727 40.1237 952.78 40.1517L1050.75 105.051C1050.79 105.067 1050.83 105.076 1050.87 105.076C1050.91 105.076 1050.95 105.067 1050.99 105.051C1051.06 105.028 1051.12 104.982 1051.16 104.921C1051.17 104.863 1051.17 104.804 1051.16 104.747L1041.21 42.22C1041.2 42.1578 1041.17 42.1013 1041.12 42.0583C1041.08 42.0154 1041.02 41.9882 1040.95 41.9805L952.932 39.6727ZM1050.53 104.246L953.869 40.2388L1040.71 42.5465L1050.53 104.246Z" fill="#394C60" fill-opacity="0.5"/>
<path d="M952.933 39.6727C952.885 39.6675 952.836 39.6773 952.793 39.7006C952.75 39.724 952.715 39.7598 952.694 39.8034C952.651 39.8513 952.627 39.9133 952.627 39.9775C952.627 40.0418 952.651 40.1038 952.694 40.1517L1050.66 105.051C1050.7 105.067 1050.74 105.076 1050.78 105.076C1050.82 105.076 1050.87 105.067 1050.9 105.051C1050.97 105.028 1051.03 104.982 1051.08 104.921C1051.11 104.87 1051.13 104.809 1051.13 104.747C1051.13 104.684 1051.11 104.623 1051.08 104.572L989.182 54.673L953.129 39.6945L952.933 39.6727ZM1046.22 101.416L955.437 41.2838L988.855 55.152L1046.22 101.416Z" fill="#394C60" fill-opacity="0.5"/>
<path d="M140.35 -78.4789C140.33 -78.4885 140.308 -78.4935 140.285 -78.4935C140.263 -78.4935 140.24 -78.4885 140.22 -78.4789C140.168 -78.455 140.126 -78.4134 140.102 -78.3615C140.078 -78.3096 140.074 -78.2508 140.089 -78.1958L165.365 24.5637C165.355 24.5993 165.355 24.637 165.365 24.6725C165.392 24.7085 165.426 24.7378 165.466 24.758C165.506 24.7782 165.549 24.7887 165.594 24.7887C165.639 24.7887 165.682 24.7782 165.722 24.758C165.762 24.7378 165.796 24.7085 165.823 24.6725L202.311 -21.4822C202.335 -21.5064 202.355 -21.5353 202.368 -21.567C202.381 -21.5988 202.388 -21.6328 202.388 -21.6672C202.388 -21.7016 202.381 -21.7356 202.368 -21.7674C202.355 -21.7992 202.335 -21.828 202.311 -21.8523L140.503 -78.4571C140.456 -78.4809 140.402 -78.4886 140.35 -78.4789ZM165.757 23.9759L140.873 -77.4121L201.832 -21.5692L165.757 23.9759Z" fill="#394C60" fill-opacity="0.5"/>
<path d="M202.136 -21.8523C202.102 -21.8667 202.065 -21.8741 202.027 -21.8741C201.99 -21.8741 201.953 -21.8667 201.919 -21.8523L165.408 24.433C165.377 24.4774 165.359 24.5308 165.359 24.5854C165.359 24.6401 165.377 24.6934 165.408 24.7378C165.436 24.7908 165.483 24.8314 165.54 24.8515C165.596 24.8717 165.658 24.8699 165.713 24.8467L292.464 -13.318C292.524 -13.3418 292.573 -13.3848 292.605 -13.4402C292.636 -13.4955 292.648 -13.5598 292.639 -13.6228C292.639 -13.6228 292.639 -13.8405 292.421 -13.8405L202.158 -21.8523H202.136ZM166.388 24.0847L202.267 -21.308L291.093 -13.514L166.388 24.0847Z" fill="#394C60" fill-opacity="0.5"/>
<path d="M395.594 -45.757L323.75 -34.6102C323.697 -34.6063 323.647 -34.5849 323.607 -34.5494C323.568 -34.514 323.542 -34.4665 323.532 -34.4143C323.507 -34.3713 323.494 -34.3225 323.494 -34.2728C323.494 -34.2231 323.507 -34.1743 323.532 -34.1313L437.83 42.5465H437.939C438.01 42.5683 438.086 42.5683 438.157 42.5465C438.197 42.5241 438.232 42.4928 438.258 42.4551C438.284 42.4174 438.302 42.3742 438.309 42.3288C438.319 42.2639 438.319 42.1978 438.309 42.1328L395.921 -45.6482C395.889 -45.7028 395.838 -45.744 395.778 -45.764C395.718 -45.784 395.653 -45.7815 395.594 -45.757ZM324.446 -34.1966L395.594 -45.191L437.46 41.545L324.446 -34.1966Z" fill="#394C60" fill-opacity="0.5"/>
<path d="M507.367 -49.0662L395.594 -45.757C395.541 -45.7556 395.49 -45.7382 395.447 -45.7071C395.404 -45.676 395.372 -45.6327 395.354 -45.5828C395.329 -45.5398 395.316 -45.491 395.316 -45.4413C395.316 -45.3916 395.329 -45.3429 395.354 -45.2998L457.62 21.102C457.654 21.1164 457.691 21.1238 457.728 21.1238C457.766 21.1238 457.803 21.1164 457.837 21.102C457.879 21.0998 457.92 21.089 457.958 21.0703C457.995 21.0515 458.028 21.0253 458.055 20.9932L507.475 -48.6743C507.503 -48.7165 507.517 -48.7656 507.517 -48.8158C507.517 -48.866 507.503 -48.9152 507.475 -48.9574C507.449 -49.0024 507.412 -49.0398 507.367 -49.0662ZM396.334 -45.2345L506.888 -48.5002L457.968 20.4924L396.334 -45.2345Z" fill="#394C60" fill-opacity="0.5"/>
<path d="M395.593 -45.757H395.441C395.402 -45.7073 395.381 -45.646 395.381 -45.5829C395.381 -45.5197 395.402 -45.4584 395.441 -45.4087L437.829 42.4159C437.848 42.4545 437.876 42.4883 437.909 42.5147C437.943 42.5411 437.983 42.5594 438.025 42.5683C438.061 42.5893 438.103 42.6003 438.145 42.6003C438.187 42.6003 438.228 42.5893 438.265 42.5683L458.163 21.1455C458.191 21.1033 458.205 21.0542 458.205 21.004C458.205 20.9538 458.191 20.9047 458.163 20.8625V20.7536L395.898 -45.6264C395.889 -45.6565 395.873 -45.6843 395.852 -45.7077C395.831 -45.7311 395.805 -45.7497 395.776 -45.7622C395.747 -45.7746 395.715 -45.7805 395.684 -45.7797C395.652 -45.7788 395.621 -45.7711 395.593 -45.757ZM438.047 41.8716L396.682 -43.9936L457.641 20.9278L438.047 41.8716Z" fill="#394C60" fill-opacity="0.5"/>
<path d="M583.389 -52.3972L507.365 -49.0662C507.31 -49.0603 507.258 -49.0387 507.216 -49.0039C507.173 -48.9691 507.142 -48.9227 507.125 -48.8703C507.093 -48.8259 507.076 -48.7726 507.076 -48.7179C507.076 -48.6632 507.093 -48.6099 507.125 -48.5655L586.807 12.3935C586.843 12.4206 586.885 12.4394 586.929 12.4486C586.973 12.4578 587.018 12.4572 587.062 12.4468C587.105 12.4364 587.146 12.4165 587.181 12.3884C587.216 12.3604 587.245 12.325 587.265 12.2847C587.276 12.2648 587.282 12.2423 587.282 12.2194C587.282 12.1965 587.276 12.1739 587.265 12.154L583.607 -52.0489C583.617 -52.0861 583.619 -52.1249 583.613 -52.1628C583.607 -52.2008 583.593 -52.2373 583.573 -52.2698C583.553 -52.3024 583.526 -52.3305 583.494 -52.3524C583.463 -52.3743 583.427 -52.3896 583.389 -52.3972ZM508.127 -48.5437L583.128 -51.8312L586.764 11.5445L508.127 -48.5437Z" fill="#394C60" fill-opacity="0.5"/>
<path d="M507.367 -49.0663C507.34 -49.0816 507.31 -49.0896 507.28 -49.0896C507.249 -49.0896 507.219 -49.0816 507.193 -49.0663L457.751 20.6012C457.723 20.6434 457.709 20.6925 457.709 20.7427C457.709 20.7929 457.723 20.8421 457.751 20.8843C457.778 20.9277 457.817 20.9629 457.863 20.9859C457.909 21.0089 457.961 21.0189 458.012 21.0149L587.136 12.3064C587.19 12.2981 587.241 12.2756 587.283 12.2411C587.325 12.2067 587.357 12.1616 587.376 12.1105C587.402 12.0642 587.417 12.0116 587.417 11.9581C587.417 11.9046 587.402 11.852 587.376 11.8057L507.65 -49.1533C507.6 -49.1727 507.545 -49.1746 507.493 -49.1588C507.442 -49.143 507.398 -49.1104 507.367 -49.0663ZM458.491 20.6012L507.41 -48.3478L586.331 11.9363L458.491 20.6012Z" fill="#394C60" fill-opacity="0.5"/>
<path d="M651.968 -58.3407L583.389 -52.3972C583.333 -52.387 583.28 -52.3612 583.238 -52.3227C583.196 -52.2842 583.165 -52.2345 583.149 -52.1794C583.136 -52.1213 583.142 -52.0606 583.165 -52.0059C583.189 -51.9512 583.229 -51.9053 583.28 -51.8746L683.427 3.01025H683.558C683.651 2.99879 683.737 2.95208 683.797 2.87963C683.818 2.83548 683.829 2.78711 683.829 2.73812C683.829 2.68912 683.818 2.64075 683.797 2.5966L652.294 -58.2318C652.262 -58.2864 652.212 -58.3276 652.152 -58.3476C652.092 -58.3677 652.026 -58.3652 651.968 -58.3407ZM584.303 -51.8093L651.794 -57.6658L682.796 2.22649L584.303 -51.8093Z" fill="#394C60" fill-opacity="0.5"/>
<path d="M583.393 -52.3971H583.24C583.204 -52.369 583.175 -52.3325 583.156 -52.2908C583.137 -52.2491 583.129 -52.2034 583.131 -52.1576L586.789 12.0888C586.807 12.1625 586.845 12.2301 586.898 12.2848C586.927 12.302 586.961 12.311 586.996 12.311C587.03 12.311 587.064 12.302 587.094 12.2848L683.496 2.94498C683.53 2.94498 683.564 2.93824 683.596 2.92511C683.628 2.91198 683.657 2.89273 683.681 2.86847C683.705 2.84421 683.724 2.81539 683.737 2.78369C683.751 2.752 683.757 2.71804 683.757 2.68373C683.753 2.62906 683.734 2.57645 683.704 2.53079C683.673 2.48513 683.632 2.4479 683.583 2.42249L583.436 -52.4407L583.393 -52.3971ZM587.333 11.8058L583.697 -51.6351L682.56 2.59663L587.333 11.8058Z" fill="#394C60" fill-opacity="0.5"/>
<path d="M766.139 -88.9943L651.971 -58.3189C651.933 -58.3143 651.897 -58.2998 651.867 -58.2769C651.836 -58.2539 651.812 -58.2234 651.797 -58.1882C651.782 -58.1541 651.773 -58.1169 651.773 -58.0794C651.773 -58.0418 651.782 -58.0047 651.797 -57.9705L683.757 26.9367C683.779 26.9883 683.815 27.0324 683.861 27.0634C683.908 27.0944 683.963 27.1109 684.018 27.1109C684.061 27.1118 684.103 27.1023 684.141 27.0834C684.179 27.0644 684.211 27.0365 684.236 27.002L766.444 -88.6242C766.475 -88.673 766.491 -88.7297 766.491 -88.7875C766.491 -88.8453 766.475 -88.9019 766.444 -88.9508C766.404 -88.9894 766.353 -89.0144 766.298 -89.0222C766.244 -89.03 766.188 -89.0203 766.139 -88.9943ZM652.32 -57.8834L765.529 -88.363L683.997 26.3271L652.32 -57.8834Z" fill="#394C60" fill-opacity="0.5"/>
<path d="M651.969 -58.3408C651.908 -58.3086 651.86 -58.2566 651.832 -58.1933C651.804 -58.13 651.799 -58.0592 651.817 -57.9924L683.777 26.9148C683.798 26.9664 683.835 27.0105 683.881 27.0415C683.928 27.0725 683.982 27.089 684.038 27.089C684.101 27.1144 684.171 27.1144 684.234 27.089C684.251 27.0592 684.26 27.0254 684.26 26.991C684.26 26.9566 684.251 26.9228 684.234 26.893L683.799 2.77067C683.808 2.72764 683.808 2.68308 683.799 2.64005L652.296 -58.1884C652.265 -58.2452 652.216 -58.2906 652.158 -58.318C652.099 -58.3454 652.033 -58.3534 651.969 -58.3408ZM683.625 25.3473L653.842 -53.8559L683.211 2.74891L683.625 25.3473Z" fill="#394C60" fill-opacity="0.5"/>
<path d="M766.137 -88.9943C766.094 -88.9952 766.052 -88.9857 766.015 -88.9668C765.977 -88.9478 765.944 -88.9199 765.919 -88.8854L683.711 26.7408C683.68 26.7896 683.664 26.8463 683.664 26.9041C683.664 26.9619 683.68 27.0185 683.711 27.0674C683.753 27.0974 683.802 27.1136 683.853 27.1136C683.904 27.1136 683.953 27.0974 683.995 27.0674L797.465 -4.8055C797.49 -4.79532 797.515 -4.79008 797.542 -4.79008C797.568 -4.79008 797.594 -4.79532 797.618 -4.8055C797.655 -4.85184 797.675 -4.90942 797.675 -4.96878C797.675 -5.02813 797.655 -5.08572 797.618 -5.13205L766.354 -88.7766C766.332 -88.8191 766.301 -88.8565 766.264 -88.8864C766.226 -88.9164 766.183 -88.9383 766.137 -88.9507V-88.9943ZM684.604 26.3925L766.05 -88.1887L797.074 -5.24091L684.604 26.3925Z" fill="#394C60" fill-opacity="0.5"/>
<path d="M866.917 -53.4422L839.486 -45.6917C839.444 -45.6766 839.407 -45.6521 839.376 -45.62C839.346 -45.5879 839.323 -45.5491 839.311 -45.5068C839.298 -45.4645 839.295 -45.4198 839.303 -45.3763C839.311 -45.3328 839.329 -45.2917 839.355 -45.2562L907.215 42.7643C907.249 42.825 907.303 42.8714 907.368 42.8949H907.586C907.659 42.8505 907.713 42.7808 907.738 42.699C907.759 42.6279 907.759 42.5524 907.738 42.4812L867.157 -53.3115C867.133 -53.3533 867.098 -53.3876 867.055 -53.4106C867.013 -53.4337 866.965 -53.4446 866.917 -53.4422ZM839.943 -45.278L866.765 -52.8544L906.432 40.7613L839.943 -45.278Z" fill="#394C60" fill-opacity="0.5"/>
<path d="M839.485 -45.7134C839.422 -45.7367 839.353 -45.7367 839.289 -45.7134L797.249 -5.30622C797.219 -5.22927 797.219 -5.14368 797.249 -5.06674C797.259 -5.02163 797.279 -4.97976 797.31 -4.94535C797.341 -4.91095 797.38 -4.88523 797.424 -4.87081L907.476 42.8079H907.716C907.789 42.7635 907.843 42.6937 907.868 42.6119C907.883 42.5774 907.89 42.5404 907.89 42.5031C907.89 42.4657 907.883 42.4287 907.868 42.3942L839.725 -45.6045C839.66 -45.6194 839.593 -45.6194 839.529 -45.6045L839.485 -45.7134ZM797.924 -5.11029L839.442 -45.0167L906.649 42.0677L797.924 -5.11029Z" fill="#394C60" fill-opacity="0.5"/>
<path d="M977.058 -62.6078L866.939 -53.4422C866.887 -53.4408 866.835 -53.4234 866.793 -53.3923C866.75 -53.3612 866.718 -53.3178 866.7 -53.268C866.68 -53.2234 866.67 -53.1752 866.67 -53.1265C866.67 -53.0777 866.68 -53.0295 866.7 -52.985L952.935 40.1082C952.976 40.1292 953.02 40.1401 953.066 40.1401C953.111 40.1401 953.156 40.1292 953.197 40.1082C953.244 40.0972 953.288 40.073 953.323 40.0384C953.357 40.0037 953.381 39.96 953.392 39.9122L977.341 -62.4119C977.362 -62.4483 977.373 -62.4896 977.373 -62.5316C977.373 -62.5736 977.362 -62.6149 977.341 -62.6513C977.294 -62.6724 977.243 -62.6795 977.193 -62.6718C977.142 -62.664 977.095 -62.6418 977.058 -62.6078ZM867.484 -52.9414L976.688 -62.02L952.935 39.368L867.484 -52.9414Z" fill="#394C60" fill-opacity="0.5"/>
<path d="M866.916 -53.4422C866.867 -53.4606 866.813 -53.4606 866.764 -53.4422C866.709 -53.4102 866.668 -53.3595 866.648 -53.2994C866.628 -53.2393 866.631 -53.174 866.655 -53.1156L907.258 42.6771C907.282 42.7271 907.319 42.7698 907.365 42.8005C907.411 42.8311 907.464 42.8487 907.52 42.8513L953.043 40.1517C953.097 40.1434 953.147 40.1208 953.189 40.0864C953.231 40.0519 953.264 40.0068 953.282 39.9558C953.302 39.9112 953.312 39.863 953.312 39.8142C953.312 39.7655 953.302 39.7173 953.282 39.6727L867.112 -53.3551C867.089 -53.3839 867.059 -53.4067 867.025 -53.4218C866.991 -53.4369 866.954 -53.4439 866.916 -53.4422ZM907.672 42.3506L867.765 -51.8529L952.433 39.6945L907.672 42.3506Z" fill="#394C60" fill-opacity="0.5"/>
<path d="M977.056 -62.6078C976.999 -62.6087 976.944 -62.5895 976.9 -62.5536C976.856 -62.5178 976.827 -62.4675 976.816 -62.4118L952.868 39.9123C952.852 39.9501 952.844 39.9909 952.844 40.032C952.844 40.0732 952.852 40.1139 952.868 40.1518C952.925 40.213 953.003 40.2517 953.086 40.2606L1041.08 42.5901C1041.14 42.595 1041.19 42.5829 1041.24 42.5556C1041.29 42.5283 1041.32 42.4871 1041.35 42.4377C1041.37 42.3947 1041.38 42.3459 1041.38 42.2962C1041.38 42.2465 1041.37 42.1978 1041.35 42.1547L977.383 -62.3465C977.38 -62.3858 977.369 -62.4241 977.351 -62.459C977.333 -62.4939 977.308 -62.5246 977.277 -62.5492C977.246 -62.5738 977.211 -62.5917 977.173 -62.6018C977.135 -62.6119 977.095 -62.6139 977.056 -62.6078ZM953.369 39.7163L977.165 -61.5845L1040.54 42.0459L953.369 39.7163Z" fill="#394C60" fill-opacity="0.5"/>
<path d="M976.468 217.238C978.079 217.238 979.385 218.544 979.385 220.155C979.385 221.766 978.079 223.072 976.468 223.072C974.857 223.072 973.551 221.766 973.551 220.155C973.551 218.544 974.857 217.238 976.468 217.238Z" fill="#394C60" fill-opacity="0.5"/>
<path d="M978.755 220.155C978.699 219.584 978.433 219.055 978.009 218.67C977.584 218.285 977.031 218.071 976.458 218.071C975.885 218.071 975.332 218.285 974.907 218.67C974.483 219.055 974.217 219.584 974.161 220.155C974.13 220.475 974.166 220.799 974.267 221.104C974.369 221.41 974.533 221.691 974.749 221.93C974.965 222.168 975.229 222.359 975.524 222.489C975.818 222.619 976.136 222.687 976.458 222.687C976.78 222.687 977.098 222.619 977.393 222.489C977.687 222.359 977.951 222.168 978.167 221.93C978.384 221.691 978.548 221.41 978.649 221.104C978.75 220.799 978.786 220.475 978.755 220.155Z" fill="#394C60" fill-opacity="0.5"/>
<path d="M574.988 124.079C574.988 123.218 574.732 122.376 574.254 121.66C573.775 120.944 573.095 120.386 572.3 120.056C571.504 119.727 570.629 119.641 569.784 119.809C568.939 119.977 568.164 120.391 567.555 121C566.946 121.609 566.531 122.385 566.363 123.23C566.195 124.074 566.281 124.95 566.611 125.746C566.94 126.541 567.498 127.221 568.214 127.7C568.93 128.178 569.772 128.433 570.633 128.433C571.788 128.433 572.896 127.975 573.712 127.158C574.529 126.342 574.988 125.234 574.988 124.079Z" fill="#394C60" fill-opacity="0.5"/>
<path d="M572.309 124.079C572.309 123.756 572.213 123.441 572.033 123.172C571.854 122.904 571.599 122.694 571.301 122.571C571.002 122.447 570.674 122.415 570.357 122.478C570.04 122.541 569.75 122.696 569.521 122.925C569.293 123.153 569.137 123.444 569.074 123.761C569.011 124.077 569.044 124.406 569.167 124.704C569.291 125.002 569.5 125.257 569.769 125.437C570.037 125.616 570.353 125.712 570.676 125.712C571.109 125.712 571.524 125.54 571.83 125.234C572.137 124.928 572.309 124.512 572.309 124.079Z" fill="#394C60" fill-opacity="0.5"/>
<path d="M572.634 124.079C572.634 123.692 572.519 123.313 572.303 122.991C572.088 122.668 571.782 122.417 571.424 122.269C571.066 122.121 570.672 122.082 570.292 122.158C569.912 122.233 569.563 122.42 569.289 122.694C569.015 122.968 568.828 123.317 568.752 123.697C568.677 124.077 568.716 124.471 568.864 124.829C569.012 125.187 569.263 125.493 569.586 125.708C569.908 125.924 570.287 126.039 570.674 126.039C570.932 126.042 571.188 125.993 571.428 125.895C571.667 125.798 571.884 125.654 572.066 125.471C572.249 125.289 572.393 125.072 572.49 124.833C572.588 124.593 572.637 124.337 572.634 124.079Z" fill="#394C60" fill-opacity="0.5"/>
<path d="M888.167 128.891C888.167 128.163 887.951 127.452 887.547 126.847C887.143 126.242 886.568 125.77 885.896 125.492C885.224 125.213 884.484 125.14 883.77 125.282C883.056 125.424 882.401 125.775 881.886 126.289C881.372 126.804 881.021 127.459 880.879 128.173C880.737 128.887 880.81 129.626 881.089 130.299C881.367 130.971 881.839 131.546 882.444 131.95C883.049 132.354 883.76 132.57 884.488 132.57C885.464 132.57 886.4 132.182 887.09 131.492C887.78 130.802 888.167 129.867 888.167 128.891Z" fill="#394C60" fill-opacity="0.5"/>
<path d="M979.993 220.155C979.993 219.458 979.786 218.776 979.399 218.196C979.011 217.616 978.461 217.164 977.816 216.897C977.172 216.63 976.462 216.56 975.778 216.696C975.094 216.832 974.466 217.168 973.972 217.661C973.479 218.154 973.143 218.783 973.007 219.467C972.871 220.151 972.941 220.86 973.208 221.505C973.475 222.149 973.927 222.7 974.507 223.088C975.087 223.475 975.769 223.682 976.466 223.682C977.4 223.676 978.294 223.303 978.954 222.643C979.614 221.983 979.988 221.089 979.993 220.155Z" fill="#394C60" fill-opacity="0.5"/>
<path d="M931.621 105.334C931.621 104.796 931.461 104.27 931.162 103.822C930.863 103.375 930.438 103.026 929.941 102.82C929.443 102.614 928.896 102.56 928.368 102.665C927.84 102.77 927.355 103.03 926.975 103.41C926.594 103.791 926.335 104.276 926.23 104.803C926.125 105.331 926.179 105.879 926.385 106.376C926.591 106.873 926.94 107.298 927.387 107.597C927.835 107.896 928.361 108.056 928.899 108.056C929.621 108.056 930.313 107.769 930.823 107.259C931.334 106.748 931.621 106.056 931.621 105.334Z" fill="#394C60" fill-opacity="0.5"/>
<path d="M887.184 128.891C887.184 128.357 887.026 127.835 886.729 127.391C886.433 126.947 886.011 126.601 885.518 126.397C885.025 126.192 884.482 126.139 883.958 126.243C883.434 126.347 882.953 126.604 882.576 126.982C882.198 127.359 881.941 127.84 881.837 128.364C881.733 128.888 881.786 129.431 881.991 129.924C882.195 130.417 882.541 130.839 882.985 131.135C883.429 131.432 883.951 131.59 884.485 131.59C885.201 131.59 885.887 131.306 886.394 130.8C886.9 130.293 887.184 129.607 887.184 128.891Z" fill="#394C60" fill-opacity="0.5"/>
<path d="M978.451 220.177C978.455 219.779 978.341 219.389 978.123 219.056C977.904 218.723 977.592 218.463 977.225 218.309C976.858 218.155 976.453 218.113 976.063 218.19C975.672 218.266 975.313 218.457 975.032 218.739C974.751 219.02 974.559 219.379 974.483 219.77C974.406 220.16 974.448 220.565 974.602 220.932C974.756 221.298 975.016 221.611 975.349 221.83C975.682 222.048 976.072 222.162 976.47 222.158C976.994 222.152 977.494 221.942 977.865 221.571C978.235 221.201 978.445 220.7 978.451 220.177Z" fill="#394C60" fill-opacity="0.5"/>
<path d="M983.412 220.155C983.412 218.794 983.008 217.463 982.251 216.331C981.494 215.199 980.418 214.317 979.16 213.797C977.901 213.277 976.517 213.142 975.182 213.409C973.847 213.676 972.621 214.334 971.66 215.298C970.698 216.263 970.045 217.49 969.782 218.826C969.519 220.162 969.658 221.546 970.182 222.803C970.706 224.06 971.591 225.133 972.726 225.886C973.86 226.639 975.192 227.039 976.554 227.035C977.456 227.035 978.35 226.857 979.183 226.511C980.017 226.165 980.774 225.658 981.411 225.018C982.048 224.379 982.553 223.621 982.896 222.786C983.239 221.952 983.415 221.058 983.412 220.155Z" fill="#394C60" fill-opacity="0.5"/>
<path d="M884.507 121.967C888.331 121.967 891.43 125.067 891.43 128.891C891.43 132.714 888.331 135.814 884.507 135.814C880.684 135.814 877.584 132.714 877.584 128.891C877.584 125.067 880.684 121.967 884.507 121.967Z" fill="#394C60" fill-opacity="0.5"/>
<path d="M978.429 220.177C978.433 219.783 978.32 219.397 978.104 219.068C977.888 218.739 977.579 218.482 977.216 218.329C976.853 218.176 976.453 218.135 976.067 218.211C975.68 218.287 975.325 218.476 975.047 218.754C974.769 219.033 974.58 219.388 974.504 219.774C974.428 220.16 974.469 220.56 974.622 220.923C974.774 221.286 975.032 221.595 975.361 221.811C975.69 222.027 976.076 222.141 976.47 222.136C976.989 222.136 977.488 221.93 977.855 221.562C978.223 221.195 978.429 220.696 978.429 220.177Z" fill="#394C60" fill-opacity="0.5"/>
<path d="M931.163 105.334C931.163 104.904 931.035 104.483 930.796 104.125C930.557 103.767 930.217 103.488 929.819 103.323C929.421 103.158 928.983 103.115 928.561 103.199C928.139 103.283 927.751 103.49 927.446 103.795C927.142 104.099 926.934 104.487 926.85 104.91C926.766 105.332 926.81 105.77 926.974 106.168C927.139 106.565 927.418 106.905 927.776 107.145C928.134 107.384 928.555 107.511 928.986 107.511C929.563 107.511 930.117 107.282 930.525 106.874C930.933 106.466 931.163 105.912 931.163 105.334Z" fill="#394C60" fill-opacity="0.5"/>
<path d="M976.47 218.283C977.504 218.283 978.342 219.121 978.342 220.155C978.342 221.189 977.504 222.027 976.47 222.027C975.436 222.027 974.598 221.189 974.598 220.155C974.598 219.121 975.436 218.283 976.47 218.283Z" fill="#394C60" fill-opacity="0.3"/>
<path d="M930.573 105.334C930.573 105.003 930.475 104.679 930.291 104.403C930.107 104.127 929.845 103.912 929.539 103.786C929.232 103.659 928.895 103.626 928.57 103.69C928.245 103.755 927.946 103.915 927.712 104.149C927.477 104.383 927.318 104.682 927.253 105.007C927.188 105.332 927.221 105.67 927.348 105.976C927.475 106.282 927.69 106.544 927.966 106.728C928.241 106.912 928.565 107.011 928.897 107.011C929.342 107.011 929.768 106.834 930.082 106.52C930.397 106.205 930.573 105.779 930.573 105.334Z" fill="#394C60" fill-opacity="0.3"/>
<path d="M97.6333 100.479C99.2084 100.479 100.485 101.756 100.485 103.331C100.485 104.907 99.2084 106.183 97.6333 106.183C96.0581 106.183 94.7812 104.907 94.7812 103.331C94.7812 101.756 96.0581 100.479 97.6333 100.479Z" fill="#394C60" fill-opacity="0.5"/>
<path d="M459.167 50.0575C459.171 49.4486 458.994 48.8521 458.658 48.344C458.323 47.8358 457.844 47.439 457.282 47.204C456.72 46.9689 456.101 46.9063 455.504 47.0241C454.906 47.1418 454.357 47.4346 453.926 47.8652C453.496 48.2958 453.203 48.8448 453.085 49.4423C452.968 50.0398 453.03 50.6588 453.265 51.2206C453.5 51.7824 453.897 52.2616 454.405 52.5972C454.913 52.9329 455.51 53.1098 456.119 53.1055C456.927 53.1055 457.702 52.7844 458.274 52.2128C458.846 51.6412 459.167 50.8659 459.167 50.0575Z" fill="#394C60" fill-opacity="0.5"/>
<path d="M570.7 122.686C571.47 122.686 572.093 123.31 572.093 124.079C572.093 124.849 571.47 125.473 570.7 125.473C569.93 125.473 569.307 124.849 569.307 124.079C569.307 123.31 569.93 122.686 570.7 122.686Z" fill="#394C60" fill-opacity="0.3"/>
<path d="M572.721 58.9184C573.635 58.9184 574.376 59.6592 574.376 60.573C574.376 61.4868 573.635 62.2275 572.721 62.2275C571.807 62.2275 571.066 61.4868 571.066 60.573C571.066 59.6592 571.807 58.9184 572.721 58.9184Z" fill="#394C60" fill-opacity="0.3"/>
<path d="M457.753 50.0575C457.753 49.7293 457.655 49.4086 457.472 49.1361C457.289 48.8635 457.03 48.6515 456.726 48.5269C456.422 48.4023 456.089 48.3708 455.767 48.4365C455.446 48.5021 455.151 48.6619 454.92 48.8954C454.69 49.129 454.534 49.4259 454.473 49.7483C454.411 50.0707 454.447 50.404 454.576 50.7059C454.704 51.0079 454.92 51.2648 455.195 51.4439C455.47 51.6231 455.792 51.7165 456.12 51.7121C456.555 51.7064 456.97 51.5296 457.276 51.2199C457.581 50.9102 457.753 50.4926 457.753 50.0575Z" fill="#394C60" fill-opacity="0.5"/>
<path d="M578.688 124.079C578.688 122.495 578.218 120.946 577.337 119.628C576.457 118.311 575.206 117.284 573.742 116.677C572.278 116.071 570.667 115.912 569.113 116.222C567.559 116.531 566.131 117.294 565.011 118.414C563.89 119.535 563.127 120.962 562.818 122.516C562.509 124.071 562.668 125.681 563.274 127.145C563.88 128.609 564.907 129.861 566.225 130.741C567.542 131.621 569.091 132.091 570.676 132.091C571.729 132.094 572.772 131.889 573.745 131.487C574.719 131.086 575.603 130.496 576.347 129.751C577.092 129.006 577.682 128.122 578.084 127.149C578.485 126.175 578.69 125.132 578.688 124.079Z" fill="#394C60" fill-opacity="0.5"/>
<path d="M573.745 124.079C573.749 123.471 573.573 122.876 573.238 122.368C572.903 121.86 572.426 121.463 571.865 121.228C571.304 120.992 570.687 120.928 570.09 121.044C569.493 121.16 568.944 121.451 568.512 121.879C568.081 122.308 567.786 122.854 567.666 123.451C567.546 124.047 567.605 124.665 567.837 125.227C568.069 125.789 568.462 126.27 568.967 126.608C569.473 126.947 570.067 127.127 570.675 127.127C571.485 127.127 572.263 126.807 572.838 126.236C573.413 125.665 573.739 124.89 573.745 124.079Z" fill="#394C60" fill-opacity="0.5"/>
<path d="M457.967 50.0576C457.971 49.6855 457.865 49.3206 457.661 49.0094C457.457 48.6981 457.164 48.4548 456.821 48.3104C456.478 48.166 456.1 48.1271 455.735 48.1986C455.37 48.2702 455.034 48.4489 454.771 48.7121C454.508 48.9752 454.329 49.3108 454.258 49.676C454.186 50.0413 454.225 50.4195 454.369 50.7625C454.514 51.1055 454.757 51.3977 455.068 51.6017C455.38 51.8058 455.744 51.9125 456.117 51.9082C456.607 51.9082 457.078 51.7132 457.425 51.3662C457.772 51.0191 457.967 50.5484 457.967 50.0576Z" fill="#394C60" fill-opacity="0.5"/>
<path d="M573.639 124.079C573.639 123.494 573.465 122.921 573.14 122.434C572.814 121.947 572.352 121.568 571.811 121.344C571.27 121.12 570.674 121.061 570.1 121.175C569.526 121.289 568.998 121.571 568.584 121.986C568.17 122.4 567.888 122.927 567.774 123.502C567.659 124.076 567.718 124.671 567.942 125.212C568.166 125.753 568.546 126.216 569.033 126.541C569.52 126.866 570.092 127.04 570.678 127.04C571.463 127.04 572.216 126.728 572.771 126.173C573.327 125.618 573.639 124.864 573.639 124.079Z" fill="#394C60" fill-opacity="0.5"/>
<path d="M597.607 96.2123C600.385 96.2123 602.636 98.4639 602.636 101.241C602.636 104.019 600.385 106.271 597.607 106.271C594.83 106.271 592.578 104.019 592.578 101.241C592.578 98.4639 594.83 96.2123 597.607 96.2123Z" fill="#394C60" fill-opacity="0.5"/>
<path d="M572.725 56.4147C575.021 56.4147 576.883 58.2764 576.883 60.573C576.883 62.8695 575.021 64.7312 572.725 64.7312C570.428 64.7312 568.566 62.8695 568.566 60.573C568.566 58.2764 570.428 56.4147 572.725 56.4147Z" fill="#394C60" fill-opacity="0.5"/>
<path d="M570.698 123.165C571.203 123.165 571.612 123.574 571.612 124.079C571.612 124.584 571.203 124.994 570.698 124.994C570.193 124.994 569.783 124.584 569.783 124.079C569.783 123.574 570.193 123.165 570.698 123.165Z" fill="#394C60" fill-opacity="0.5"/>
<path d="M577.558 60.5078C577.562 59.5466 577.281 58.6058 576.75 57.8046C576.219 57.0033 575.462 56.3777 574.576 56.0069C573.689 55.6361 572.712 55.5368 571.769 55.7217C570.826 55.9065 569.959 56.3672 569.277 57.0453C568.596 57.7234 568.132 58.5884 567.943 59.5308C567.753 60.4731 567.848 61.4505 568.215 62.3388C568.582 63.2272 569.204 63.9868 570.003 64.5212C570.802 65.0556 571.741 65.3409 572.703 65.3409C573.986 65.341 575.218 64.8324 576.128 63.9267C577.038 63.0209 577.552 61.7916 577.558 60.5078Z" fill="#394C60" fill-opacity="0.5"/>
<path d="M597.61 92.9248C602.203 92.9248 605.926 96.6483 605.926 101.241C605.926 105.835 602.203 109.558 597.61 109.558C593.016 109.558 589.293 105.835 589.293 101.241C589.293 96.6483 593.016 92.9248 597.61 92.9248Z" fill="#394C60" fill-opacity="0.5"/>
<path d="M601.115 101.241C601.046 100.357 600.645 99.5308 599.993 98.9284C599.341 98.326 598.487 97.9914 597.599 97.9914C596.712 97.9914 595.857 98.326 595.205 98.9284C594.553 99.5308 594.153 100.357 594.083 101.241C594.045 101.726 594.108 102.214 594.267 102.674C594.426 103.133 594.679 103.555 595.009 103.912C595.339 104.27 595.74 104.555 596.186 104.75C596.631 104.945 597.113 105.045 597.599 105.045C598.086 105.045 598.567 104.945 599.013 104.75C599.458 104.555 599.859 104.27 600.189 103.912C600.519 103.555 600.772 103.133 600.931 102.674C601.091 102.214 601.153 101.726 601.115 101.241Z" fill="#394C60" fill-opacity="0.5"/>
<path d="M774.171 95.3415C774.171 94.4803 773.916 93.6384 773.438 92.9224C772.959 92.2063 772.279 91.6482 771.483 91.3187C770.688 90.9891 769.812 90.9029 768.968 91.0709C768.123 91.2389 767.347 91.6536 766.738 92.2626C766.129 92.8715 765.715 93.6474 765.547 94.492C765.379 95.3366 765.465 96.2121 765.794 97.0077C766.124 97.8034 766.682 98.4834 767.398 98.9618C768.114 99.4403 768.956 99.6957 769.817 99.6957C770.972 99.6957 772.079 99.2369 772.896 98.4204C773.713 97.6038 774.171 96.4963 774.171 95.3415Z" fill="#394C60" fill-opacity="0.5"/>
<path d="M890.625 128.891C890.625 127.676 890.265 126.489 889.59 125.48C888.915 124.47 887.956 123.683 886.835 123.219C885.713 122.754 884.478 122.632 883.287 122.869C882.096 123.106 881.003 123.691 880.144 124.549C879.285 125.408 878.701 126.502 878.464 127.693C878.227 128.884 878.348 130.118 878.813 131.24C879.278 132.362 880.065 133.321 881.074 133.995C882.084 134.67 883.271 135.03 884.485 135.03C886.113 135.03 887.675 134.383 888.826 133.232C889.978 132.081 890.625 130.519 890.625 128.891Z" fill="#394C60" fill-opacity="0.3"/>
<path d="M900.118 73.7664C902.919 73.7664 905.19 76.0375 905.19 78.839C905.19 81.6406 902.919 83.9117 900.118 83.9117C897.316 83.9117 895.045 81.6406 895.045 78.839C895.045 76.0375 897.316 73.7664 900.118 73.7664Z" fill="#394C60" fill-opacity="0.5"/>
<path d="M771.711 95.3414C771.715 94.9607 771.606 94.5873 771.397 94.2689C771.188 93.9505 770.889 93.7016 770.538 93.5539C770.187 93.4062 769.8 93.3664 769.426 93.4397C769.053 93.5129 768.709 93.6958 768.44 93.965C768.171 94.2343 767.988 94.5776 767.915 94.9513C767.841 95.325 767.881 95.712 768.029 96.0629C768.177 96.4139 768.426 96.7128 768.744 96.9217C769.062 97.1305 769.436 97.2398 769.816 97.2355C770.319 97.2355 770.801 97.0359 771.156 96.6807C771.511 96.3255 771.711 95.8437 771.711 95.3414Z" fill="#394C60" fill-opacity="0.5"/>
<path d="M887.206 128.891C887.206 128.352 887.047 127.826 886.748 127.379C886.449 126.931 886.024 126.582 885.527 126.376C885.029 126.17 884.482 126.117 883.954 126.222C883.426 126.327 882.941 126.586 882.561 126.966C882.18 127.347 881.921 127.832 881.816 128.36C881.711 128.888 881.765 129.435 881.971 129.932C882.177 130.429 882.526 130.854 882.973 131.153C883.421 131.452 883.947 131.612 884.485 131.612C885.207 131.612 885.899 131.325 886.409 130.815C886.92 130.305 887.206 129.612 887.206 128.891Z" fill="#394C60" fill-opacity="0.5"/>
<path d="M888.34 128.891C888.34 128.129 888.114 127.384 887.69 126.75C887.267 126.116 886.665 125.622 885.961 125.331C885.257 125.039 884.482 124.963 883.735 125.111C882.987 125.26 882.3 125.627 881.761 126.166C881.223 126.705 880.856 127.391 880.707 128.139C880.558 128.886 880.635 129.661 880.926 130.365C881.218 131.07 881.712 131.671 882.345 132.095C882.979 132.518 883.724 132.744 884.486 132.744C884.993 132.747 885.496 132.649 885.964 132.457C886.433 132.264 886.859 131.98 887.218 131.622C887.576 131.264 887.86 130.838 888.052 130.369C888.245 129.9 888.343 129.398 888.34 128.891Z" fill="#394C60" fill-opacity="0.5"/>
<path d="M773.475 95.3414C773.475 94.618 773.261 93.9108 772.859 93.3093C772.457 92.7079 771.886 92.2391 771.217 91.9622C770.549 91.6854 769.814 91.613 769.104 91.7541C768.395 91.8952 767.743 92.2436 767.231 92.7551C766.72 93.2666 766.372 93.9183 766.23 94.6278C766.089 95.3373 766.162 96.0727 766.439 96.7411C766.715 97.4094 767.184 97.9806 767.786 98.3825C768.387 98.7844 769.094 98.9989 769.818 98.9989C770.298 98.9989 770.774 98.9043 771.217 98.7205C771.661 98.5367 772.064 98.2673 772.404 97.9277C772.744 97.588 773.013 97.1848 773.197 96.7411C773.381 96.2973 773.475 95.8217 773.475 95.3414Z" fill="#394C60" fill-opacity="0.5"/>
<path d="M884.509 126.452C885.855 126.452 886.947 127.544 886.947 128.891C886.947 130.237 885.855 131.329 884.509 131.329C883.162 131.329 882.07 130.237 882.07 128.891C882.07 127.544 883.162 126.452 884.509 126.452Z" fill="#394C60" fill-opacity="0.5"/>
<path d="M930.381 105.334C930.385 105.041 930.302 104.752 930.142 104.506C929.982 104.26 929.752 104.067 929.482 103.951C929.212 103.836 928.914 103.803 928.625 103.858C928.336 103.913 928.071 104.052 927.861 104.258C927.652 104.464 927.509 104.728 927.45 105.016C927.391 105.303 927.419 105.602 927.531 105.874C927.642 106.146 927.832 106.378 928.076 106.542C928.319 106.706 928.606 106.793 928.9 106.793C929.094 106.796 929.286 106.76 929.465 106.688C929.645 106.616 929.808 106.509 929.946 106.373C930.084 106.238 930.193 106.076 930.268 105.898C930.342 105.719 930.381 105.528 930.381 105.334Z" fill="#394C60" fill-opacity="0.5"/>
<path d="M900.119 77.5109C900.852 77.5109 901.447 78.1055 901.447 78.8389C901.447 79.5724 900.852 80.167 900.119 80.167C899.386 80.167 898.791 79.5724 898.791 78.8389C898.791 78.1055 899.386 77.5109 900.119 77.5109Z" fill="#394C60" fill-opacity="0.5"/>
<path d="M930.683 105.334C930.71 105.085 930.685 104.832 930.608 104.593C930.532 104.354 930.406 104.134 930.238 103.947C930.071 103.76 929.866 103.61 929.637 103.508C929.408 103.405 929.159 103.352 928.908 103.352C928.657 103.352 928.409 103.405 928.18 103.508C927.951 103.61 927.746 103.76 927.578 103.947C927.411 104.134 927.285 104.354 927.208 104.593C927.132 104.832 927.106 105.085 927.134 105.334C927.182 105.771 927.39 106.175 927.718 106.468C928.045 106.761 928.469 106.923 928.908 106.923C929.348 106.923 929.772 106.761 930.099 106.468C930.426 106.175 930.634 105.771 930.683 105.334Z" fill="#394C60" fill-opacity="0.5"/>
<path d="M931.38 105.334C931.384 104.843 931.242 104.361 930.972 103.95C930.702 103.539 930.316 103.217 929.863 103.026C929.41 102.835 928.91 102.782 928.427 102.876C927.944 102.969 927.5 103.204 927.151 103.55C926.801 103.896 926.563 104.338 926.465 104.82C926.368 105.302 926.416 105.802 926.603 106.257C926.79 106.712 927.108 107.101 927.517 107.375C927.925 107.648 928.406 107.794 928.898 107.794C929.223 107.797 929.545 107.736 929.846 107.613C930.147 107.491 930.421 107.31 930.652 107.082C930.882 106.853 931.065 106.581 931.19 106.281C931.315 105.981 931.38 105.659 931.38 105.334Z" fill="#394C60" fill-opacity="0.5"/>
<path d="M887.621 128.891C887.621 128.275 887.438 127.673 887.096 127.161C886.754 126.649 886.268 126.25 885.699 126.014C885.13 125.779 884.504 125.717 883.9 125.837C883.297 125.957 882.742 126.254 882.306 126.689C881.871 127.125 881.574 127.679 881.454 128.283C881.334 128.887 881.396 129.513 881.631 130.082C881.867 130.651 882.266 131.137 882.778 131.479C883.29 131.821 883.892 132.004 884.508 132.004C885.334 132.004 886.125 131.676 886.709 131.092C887.293 130.508 887.621 129.716 887.621 128.891Z" fill="#394C60" fill-opacity="0.5"/>
<path d="M908.847 78.8389C908.847 77.1166 908.336 75.4329 907.379 74.0008C906.422 72.5687 905.062 71.4525 903.471 70.7934C901.879 70.1343 900.128 69.9618 898.439 70.2978C896.75 70.6338 895.198 71.4632 893.98 72.6811C892.762 73.899 891.933 75.4507 891.597 77.14C891.261 78.8293 891.433 80.5802 892.093 82.1715C892.752 83.7628 893.868 85.1228 895.3 86.0797C896.732 87.0366 898.416 87.5474 900.138 87.5474C902.448 87.5474 904.663 86.6299 906.296 84.9967C907.929 83.3636 908.847 81.1485 908.847 78.8389Z" fill="#394C60" fill-opacity="0.5"/>
<path d="M928.923 101.829C930.859 101.829 932.428 103.399 932.428 105.334C932.428 107.27 930.859 108.839 928.923 108.839C926.987 108.839 925.418 107.27 925.418 105.334C925.418 103.399 926.987 101.829 928.923 101.829Z" fill="#394C60" fill-opacity="0.5"/>
<path d="M983.042 161.852C983.042 160.991 982.787 160.149 982.309 159.433C981.83 158.717 981.15 158.159 980.354 157.829C979.559 157.5 978.683 157.414 977.839 157.582C976.994 157.75 976.218 158.164 975.609 158.773C975 159.382 974.586 160.158 974.418 161.003C974.25 161.847 974.336 162.723 974.665 163.518C974.995 164.314 975.553 164.994 976.269 165.472C976.985 165.951 977.827 166.206 978.688 166.206C979.843 166.206 980.95 165.748 981.767 164.931C982.584 164.114 983.042 163.007 983.042 161.852Z" fill="#394C60" fill-opacity="0.5"/>
<path d="M986.376 161.852C986.381 160.344 985.938 158.869 985.103 157.613C984.268 156.357 983.08 155.377 981.688 154.797C980.296 154.217 978.763 154.063 977.283 154.354C975.804 154.646 974.444 155.37 973.376 156.434C972.308 157.499 971.581 158.857 971.285 160.336C970.989 161.814 971.139 163.348 971.715 164.741C972.291 166.135 973.267 167.326 974.521 168.164C975.774 169.003 977.249 169.45 978.757 169.45C980.774 169.45 982.709 168.65 984.137 167.226C985.565 165.802 986.371 163.869 986.376 161.852Z" fill="#394C60" fill-opacity="0.3"/>
<path d="M932.013 105.334C932.022 104.713 931.844 104.104 931.503 103.584C931.163 103.065 930.674 102.659 930.101 102.42C929.528 102.18 928.896 102.117 928.287 102.24C927.678 102.362 927.119 102.664 926.683 103.106C926.247 103.549 925.953 104.112 925.84 104.722C925.726 105.333 925.798 105.964 926.045 106.534C926.293 107.103 926.706 107.586 927.23 107.919C927.754 108.253 928.366 108.421 928.987 108.404C929.79 108.382 930.553 108.05 931.117 107.478C931.681 106.906 932.002 106.138 932.013 105.334Z" fill="#394C60" fill-opacity="0.5"/>
<path d="M167.846 24.5855C167.846 24.1549 167.719 23.7339 167.479 23.3759C167.24 23.0179 166.9 22.7389 166.502 22.5741C166.105 22.4093 165.667 22.3662 165.245 22.4502C164.822 22.5342 164.434 22.7415 164.13 23.046C163.825 23.3505 163.618 23.7384 163.534 24.1607C163.45 24.5831 163.493 25.0208 163.658 25.4186C163.823 25.8164 164.102 26.1564 164.46 26.3957C164.818 26.6349 165.239 26.7626 165.669 26.7626C166.247 26.7626 166.8 26.5332 167.209 26.1249C167.617 25.7166 167.846 25.1629 167.846 24.5855Z" fill="#394C60" fill-opacity="0.5"/>
<path d="M102.774 103.353C102.774 101.989 102.233 100.679 101.27 99.7124C100.308 98.7454 99.0007 98.1993 97.6361 98.1935C96.9595 98.1935 96.2896 98.3272 95.6648 98.5867C95.04 98.8463 94.4726 99.2267 93.9952 99.7061C93.5179 100.186 93.1399 100.754 92.8829 101.38C92.626 102.006 92.4952 102.677 92.4981 103.353C92.5209 104.701 93.0723 105.985 94.0334 106.93C94.9945 107.875 96.2883 108.404 97.6361 108.404C98.9838 108.404 100.278 107.875 101.239 106.93C102.2 105.985 102.751 104.701 102.774 103.353Z" fill="#394C60" fill-opacity="0.5"/>
<path d="M165.645 23.8017C166.078 23.8017 166.429 24.1527 166.429 24.5855C166.429 25.0184 166.078 25.3693 165.645 25.3693C165.212 25.3693 164.861 25.0184 164.861 24.5855C164.861 24.1527 165.212 23.8017 165.645 23.8017Z" fill="#394C60" fill-opacity="0.3"/>
<path d="M172.592 24.5853C172.592 23.2075 172.183 21.8605 171.418 20.7148C170.652 19.5691 169.564 18.6762 168.291 18.1489C167.018 17.6216 165.617 17.4836 164.266 17.7525C162.914 18.0213 161.673 18.6848 160.699 19.6591C159.724 20.6334 159.061 21.8748 158.792 23.2262C158.523 24.5776 158.661 25.9784 159.189 27.2514C159.716 28.5244 160.609 29.6125 161.754 30.378C162.9 31.1435 164.247 31.5521 165.625 31.5521C166.541 31.555 167.448 31.3767 168.294 31.0276C169.141 30.6786 169.91 30.1655 170.558 29.518C171.205 28.8705 171.718 28.1014 172.067 27.2548C172.416 26.4083 172.595 25.501 172.592 24.5853Z" fill="#394C60" fill-opacity="0.5"/>
<path d="M439.573 42.3507C439.573 42.0493 439.484 41.7546 439.317 41.504C439.149 41.2534 438.911 41.058 438.633 40.9427C438.354 40.8274 438.048 40.7972 437.752 40.856C437.456 40.9148 437.185 41.0599 436.972 41.273C436.759 41.4862 436.613 41.7577 436.555 42.0533C436.496 42.349 436.526 42.6554 436.641 42.9338C436.757 43.2123 436.952 43.4504 437.203 43.6178C437.453 43.7853 437.748 43.8746 438.049 43.8746C438.454 43.8746 438.841 43.7141 439.127 43.4283C439.413 43.1425 439.573 42.7548 439.573 42.3507Z" fill="#394C60" fill-opacity="0.5"/>
<path d="M460.188 50.0576C460.192 49.2463 459.955 48.452 459.507 47.7755C459.059 47.0991 458.42 46.5712 457.671 46.2587C456.922 45.9462 456.098 45.8633 455.302 46.0206C454.506 46.1778 453.774 46.5681 453.201 47.1418C452.627 47.7155 452.237 48.4468 452.08 49.2427C451.922 50.0387 452.005 50.8635 452.318 51.6123C452.63 52.361 453.158 53.0001 453.835 53.4481C454.511 53.8962 455.305 54.1332 456.117 54.1288C457.196 54.1288 458.232 53.6999 458.995 52.9364C459.759 52.1729 460.188 51.1374 460.188 50.0576Z" fill="#394C60" fill-opacity="0.5"/>
<path d="M457.949 17.9669C459.584 17.9669 460.91 19.2925 460.91 20.9278C460.91 22.563 459.584 23.8887 457.949 23.8887C456.314 23.8887 454.988 22.563 454.988 20.9278C454.988 19.2925 456.314 17.9669 457.949 17.9669Z" fill="#394C60" fill-opacity="0.5"/>
<path d="M458.858 50.0575C458.858 49.5097 458.695 48.9743 458.39 48.5191C458.086 48.064 457.653 47.7096 457.146 47.501C456.64 47.2924 456.082 47.2389 455.546 47.3474C455.009 47.4559 454.516 47.7214 454.13 48.1102C453.744 48.4991 453.483 48.9938 453.379 49.5315C453.274 50.0693 453.332 50.6259 453.545 51.1308C453.758 51.6356 454.115 52.0659 454.573 52.3671C455.03 52.6683 455.567 52.8267 456.115 52.8224C456.477 52.8224 456.835 52.7508 457.17 52.6115C457.504 52.4723 457.807 52.2683 458.062 52.0113C458.317 51.7543 458.519 51.4493 458.655 51.114C458.792 50.7786 458.861 50.4196 458.858 50.0575Z" fill="#394C60" fill-opacity="0.3"/>
<path d="M456.119 48.4465C457.009 48.4465 457.73 49.1678 457.73 50.0575C457.73 50.9473 457.009 51.6686 456.119 51.6686C455.229 51.6686 454.508 50.9473 454.508 50.0575C454.508 49.1678 455.229 48.4465 456.119 48.4465Z" fill="#394C60" fill-opacity="0.5"/>
<path d="M441.878 42.3508C441.883 41.592 441.661 40.8491 441.243 40.2161C440.825 39.5831 440.228 39.0886 439.528 38.7952C438.828 38.5019 438.057 38.4229 437.312 38.5683C436.568 38.7136 435.883 39.0768 435.345 39.6118C434.807 40.1468 434.44 40.8295 434.29 41.5734C434.14 42.3173 434.215 43.0888 434.504 43.7903C434.794 44.4917 435.285 45.0914 435.915 45.5134C436.546 45.9354 437.288 46.1607 438.047 46.1607C438.549 46.1636 439.046 46.0671 439.511 45.8769C439.976 45.6868 440.399 45.4066 440.755 45.0525C441.111 44.6984 441.393 44.2775 441.586 43.8138C441.779 43.3501 441.878 42.8529 441.878 42.3508Z" fill="#394C60" fill-opacity="0.3"/>
<path d="M456.119 47.1184C457.742 47.1184 459.058 48.4343 459.058 50.0575C459.058 51.6807 457.742 52.9966 456.119 52.9966C454.496 52.9966 453.18 51.6807 453.18 50.0575C453.18 48.4343 454.496 47.1184 456.119 47.1184Z" fill="#394C60" fill-opacity="0.3"/>
<path d="M575.05 60.5076C575.054 60.0417 574.92 59.585 574.664 59.1954C574.409 58.8059 574.043 58.5012 573.614 58.3199C573.185 58.1386 572.711 58.0889 572.254 58.1772C571.796 58.2654 571.375 58.4876 571.044 58.8155C570.713 59.1435 570.487 59.5624 570.394 60.0191C570.302 60.4758 570.347 60.9496 570.525 61.3806C570.702 61.8115 571.003 62.18 571.39 62.4393C571.777 62.6987 572.233 62.8371 572.699 62.8372C573.319 62.8372 573.913 62.5924 574.354 62.1562C574.794 61.7199 575.044 61.1275 575.05 60.5076Z" fill="#394C60" fill-opacity="0.5"/>
<path d="M587.812 12.1106C587.812 11.9642 587.769 11.8211 587.688 11.6994C587.606 11.5776 587.491 11.4828 587.356 11.4268C587.22 11.3707 587.071 11.3561 586.928 11.3846C586.784 11.4132 586.652 11.4837 586.549 11.5872C586.445 11.6907 586.375 11.8226 586.346 11.9662C586.318 12.1098 586.332 12.2586 586.388 12.3939C586.444 12.5291 586.539 12.6448 586.661 12.7261C586.783 12.8074 586.926 12.8508 587.072 12.8508C587.269 12.8508 587.457 12.7729 587.596 12.634C587.734 12.4952 587.812 12.3069 587.812 12.1106Z" fill="#394C60" fill-opacity="0.3"/>
<path d="M460.91 20.9278C460.914 20.3576 460.748 19.799 460.434 19.3231C460.12 18.8472 459.672 18.4755 459.146 18.2553C458.62 18.0351 458.04 17.9763 457.481 18.0865C456.921 18.1967 456.407 18.4708 456.004 18.8741C455.601 19.2773 455.326 19.7913 455.216 20.3508C455.106 20.9103 455.165 21.4899 455.385 22.0159C455.605 22.5419 455.977 22.9905 456.453 23.3046C456.929 23.6187 457.487 23.7841 458.058 23.7798C458.812 23.7741 459.534 23.4718 460.068 22.9382C460.602 22.4046 460.904 21.6825 460.91 20.9278Z" fill="#394C60" fill-opacity="0.5"/>
<path d="M578.469 60.5077C578.469 59.3623 578.129 58.2427 577.493 57.2903C576.857 56.338 575.952 55.5957 574.894 55.1574C573.836 54.7191 572.671 54.6044 571.548 54.8279C570.425 55.0513 569.393 55.6029 568.583 56.4128C567.773 57.2227 567.221 58.2546 566.998 59.3779C566.775 60.5013 566.889 61.6657 567.328 62.7239C567.766 63.7821 568.508 64.6865 569.46 65.3229C570.413 65.9592 571.532 66.2988 572.678 66.2988C574.214 66.2988 575.687 65.6887 576.773 64.6026C577.859 63.5166 578.469 62.0436 578.469 60.5077Z" fill="#394C60" fill-opacity="0.5"/>
<path d="M575.596 60.5077C575.6 59.9341 575.434 59.3722 575.118 58.8931C574.803 58.4141 574.352 58.0396 573.823 57.8171C573.295 57.5946 572.712 57.5341 572.149 57.6434C571.586 57.7526 571.068 58.0267 570.661 58.4308C570.253 58.8348 569.975 59.3507 569.862 59.913C569.748 60.4753 569.804 61.0586 570.023 61.5889C570.241 62.1193 570.613 62.5728 571.089 62.8919C571.566 63.2111 572.127 63.3815 572.7 63.3815C573.079 63.3844 573.455 63.3122 573.807 63.169C574.158 63.0259 574.477 62.8147 574.746 62.5475C575.015 62.2804 575.229 61.9626 575.375 61.6125C575.521 61.2624 575.596 60.8869 575.596 60.5077Z" fill="#394C60" fill-opacity="0.5"/>
<path d="M458.382 50.0575C458.382 49.6269 458.254 49.206 458.015 48.848C457.775 48.4899 457.435 48.2109 457.038 48.0461C456.64 47.8814 456.202 47.8382 455.78 47.9222C455.357 48.0062 454.969 48.2136 454.665 48.5181C454.361 48.8225 454.153 49.2105 454.069 49.6328C453.985 50.0551 454.028 50.4929 454.193 50.8907C454.358 51.2885 454.637 51.6285 454.995 51.8677C455.353 52.1069 455.774 52.2346 456.204 52.2346C456.782 52.2346 457.336 52.0052 457.744 51.597C458.152 51.1887 458.382 50.6349 458.382 50.0575Z" fill="#394C60" fill-opacity="0.5"/>
<path d="M457.945 17.3574C459.917 17.3574 461.516 18.9559 461.516 20.9278C461.516 22.8997 459.917 24.4983 457.945 24.4983C455.974 24.4983 454.375 22.8997 454.375 20.9278C454.375 18.9559 455.974 17.3574 457.945 17.3574Z" fill="#394C60" fill-opacity="0.5"/>
<path d="M574.116 60.5077C574.121 60.2183 574.039 59.9342 573.881 59.6914C573.724 59.4487 573.497 59.2584 573.231 59.1446C572.965 59.0309 572.671 58.9989 572.387 59.0527C572.102 59.1065 571.84 59.2437 571.634 59.4468C571.428 59.6499 571.287 59.9097 571.229 60.1932C571.171 60.4768 571.198 60.7712 571.308 61.039C571.418 61.3068 571.605 61.5359 571.845 61.6972C572.085 61.8584 572.368 61.9445 572.658 61.9446C573.041 61.9446 573.409 61.7939 573.682 61.5251C573.954 61.2562 574.111 60.8908 574.116 60.5077Z" fill="#394C60" fill-opacity="0.5"/>
<path d="M597.608 100.719C597.897 100.719 598.131 100.953 598.131 101.241C598.131 101.53 597.897 101.764 597.608 101.764C597.32 101.764 597.086 101.53 597.086 101.241C597.086 100.953 597.32 100.719 597.608 100.719Z" fill="#394C60" fill-opacity="0.5"/>
<path d="M691.679 2.77081C691.679 1.1604 691.202 -0.413856 690.307 -1.75286C689.412 -3.09187 688.141 -4.13549 686.653 -4.75177C685.165 -5.36805 683.528 -5.5293 681.948 -5.21512C680.369 -4.90095 678.918 -4.12546 677.779 -2.98672C676.641 -1.84799 675.865 -0.397141 675.551 1.18233C675.237 2.7618 675.398 4.39896 676.014 5.88678C676.631 7.37461 677.674 8.64626 679.013 9.54095C680.352 10.4357 681.927 10.9132 683.537 10.9132C685.695 10.9075 687.762 10.0477 689.288 8.522C690.814 6.99625 691.674 4.92854 691.679 2.77081Z" fill="#394C60" fill-opacity="0.5"/>
<path d="M587.069 8.95379C588.812 8.95379 590.226 10.3672 590.226 12.1106C590.226 13.8541 588.812 15.2675 587.069 15.2675C585.325 15.2675 583.912 13.8541 583.912 12.1106C583.912 10.3672 585.325 8.95379 587.069 8.95379Z" fill="#394C60" fill-opacity="0.5"/>
<path d="M599.286 101.241C599.239 100.827 599.041 100.444 598.729 100.167C598.418 99.8887 598.016 99.7352 597.599 99.7352C597.181 99.7352 596.779 99.8887 596.468 100.167C596.156 100.444 595.958 100.827 595.911 101.241C595.884 101.479 595.908 101.72 595.98 101.948C596.053 102.176 596.172 102.386 596.332 102.564C596.491 102.743 596.686 102.885 596.905 102.983C597.123 103.081 597.359 103.131 597.599 103.131C597.838 103.131 598.074 103.081 598.293 102.983C598.511 102.885 598.706 102.743 598.865 102.564C599.025 102.386 599.144 102.176 599.217 101.948C599.289 101.72 599.313 101.479 599.286 101.241Z" fill="#394C60" fill-opacity="0.5"/>
<path d="M600.828 101.241C600.828 100.375 600.484 99.5447 599.872 98.9322C599.259 98.3198 598.429 97.9758 597.563 97.9758C596.696 97.9758 595.866 98.3198 595.253 98.9322C594.641 99.5447 594.297 100.375 594.297 101.241C594.297 102.108 594.641 102.938 595.253 103.551C595.866 104.163 596.696 104.507 597.563 104.507C598.429 104.507 599.259 104.163 599.872 103.551C600.484 102.938 600.828 102.108 600.828 101.241Z" fill="#394C60" fill-opacity="0.5"/>
<path d="M575.534 60.5076C575.534 59.9479 575.368 59.4007 575.057 58.9352C574.746 58.4698 574.304 58.107 573.786 57.8928C573.269 57.6786 572.7 57.6226 572.151 57.7318C571.602 57.841 571.098 58.1106 570.702 58.5064C570.306 58.9022 570.037 59.4065 569.927 59.9555C569.818 60.5045 569.874 61.0736 570.088 61.5907C570.303 62.1079 570.665 62.5499 571.131 62.8609C571.596 63.1719 572.144 63.3379 572.703 63.3379C573.452 63.3322 574.169 63.0322 574.698 62.5026C575.228 61.9731 575.528 61.2565 575.534 60.5076Z" fill="#394C60" fill-opacity="0.5"/>
<path d="M587.069 11.1745C587.586 11.1745 588.005 11.5936 588.005 12.1106C588.005 12.6276 587.586 13.0468 587.069 13.0468C586.552 13.0468 586.133 12.6276 586.133 12.1106C586.133 11.5936 586.552 11.1745 587.069 11.1745Z" fill="#394C60" fill-opacity="0.5"/>
<path d="M597.608 99.0861C598.799 99.0861 599.764 100.051 599.764 101.241C599.764 102.432 598.799 103.397 597.608 103.397C596.418 103.397 595.453 102.432 595.453 101.241C595.453 100.051 596.418 99.0861 597.608 99.0861Z" fill="#394C60" fill-opacity="0.3"/>
<path d="M684.473 26.8931C684.473 26.7487 684.416 26.6103 684.314 26.5082C684.212 26.4062 684.073 26.3488 683.929 26.3488C683.785 26.3488 683.646 26.4062 683.544 26.5082C683.442 26.6103 683.385 26.7487 683.385 26.8931C683.385 27.0375 683.442 27.1759 683.544 27.278C683.646 27.38 683.785 27.4374 683.929 27.4374C684.073 27.4374 684.212 27.38 684.314 27.278C684.416 27.1759 684.473 27.0375 684.473 26.8931Z" fill="#394C60" fill-opacity="0.5"/>
<path d="M685.324 2.77078C685.324 2.40478 685.216 2.04701 685.012 1.74269C684.809 1.43837 684.52 1.20118 684.182 1.06111C683.844 0.921049 683.472 0.884402 683.113 0.955805C682.754 1.02721 682.424 1.20344 682.165 1.46224C681.906 1.72105 681.73 2.05081 681.659 2.40978C681.587 2.76875 681.624 3.14082 681.764 3.47897C681.904 3.81711 682.141 4.10613 682.445 4.30947C682.75 4.51281 683.108 4.62134 683.474 4.62134C683.964 4.62134 684.435 4.42636 684.782 4.07932C685.129 3.73228 685.324 3.26158 685.324 2.77078Z" fill="#394C60" fill-opacity="0.5"/>
<path d="M597.606 98.0628C599.362 98.0628 600.785 99.4859 600.785 101.241C600.785 102.997 599.362 104.42 597.606 104.42C595.851 104.42 594.428 102.997 594.428 101.241C594.428 99.4859 595.851 98.0628 597.606 98.0628Z" fill="#394C60" fill-opacity="0.5"/>
<path d="M686.369 2.77074C686.369 2.19805 686.199 1.63823 685.881 1.16206C685.563 0.685888 685.111 0.314754 684.582 0.0955963C684.053 -0.123561 683.47 -0.180901 682.909 -0.0691748C682.347 0.0425506 681.831 0.318338 681.426 0.723289C681.021 1.12824 680.745 1.64418 680.634 2.20587C680.522 2.76755 680.579 3.34973 680.799 3.87883C681.018 4.40792 681.389 4.86016 681.865 5.17833C682.341 5.4965 682.901 5.6663 683.474 5.6663C683.855 5.6692 684.233 5.59629 684.585 5.4518C684.938 5.30731 685.258 5.09413 685.528 4.82467C685.797 4.55521 686.01 4.23486 686.155 3.88225C686.299 3.52964 686.372 3.1518 686.369 2.77074Z" fill="#394C60" fill-opacity="0.5"/>
<path d="M772.736 95.3414C772.74 94.7583 772.571 94.187 772.249 93.7004C771.928 93.2137 771.469 92.8337 770.931 92.6085C770.393 92.3834 769.801 92.3233 769.228 92.436C768.656 92.5487 768.131 92.8291 767.718 93.2415C767.306 93.6538 767.026 94.1795 766.913 94.7516C766.8 95.3238 766.86 95.9165 767.085 96.4545C767.31 96.9924 767.691 97.4512 768.177 97.7725C768.664 98.0938 769.235 98.263 769.818 98.2587C770.59 98.253 771.329 97.9438 771.875 97.3979C772.421 96.8521 772.73 96.1134 772.736 95.3414Z" fill="#394C60" fill-opacity="0.3"/>
<path d="M687.328 26.8932C687.323 26.2224 687.121 25.5679 686.745 25.0123C686.369 24.4566 685.837 24.0247 685.216 23.771C684.595 23.5173 683.913 23.4531 683.256 23.5866C682.598 23.7201 681.995 24.0453 681.522 24.5211C681.049 24.997 680.728 25.6021 680.599 26.2604C680.47 26.9186 680.538 27.6003 680.796 28.2196C681.053 28.839 681.489 29.3681 682.047 29.7404C682.605 30.1126 683.261 30.3113 683.931 30.3113C684.379 30.3113 684.823 30.2227 685.236 30.0507C685.65 29.8786 686.025 29.6265 686.341 29.3088C686.656 28.9911 686.906 28.6142 687.075 28.1996C687.245 27.785 687.331 27.341 687.328 26.8932Z" fill="#394C60" fill-opacity="0.5"/>
<path d="M769.817 91.8798C771.729 91.8798 773.279 93.4297 773.279 95.3415C773.279 97.2533 771.729 98.8031 769.817 98.8031C767.905 98.8031 766.355 97.2533 766.355 95.3415C766.355 93.4297 767.905 91.8798 769.817 91.8798Z" fill="#394C60" fill-opacity="0.5"/>
<path d="M775.957 95.3414C775.957 94.1219 775.595 92.9298 774.917 91.9162C774.239 90.9025 773.276 90.1128 772.149 89.6471C771.022 89.1815 769.782 89.0607 768.586 89.3002C767.39 89.5397 766.292 90.1287 765.432 90.9926C764.571 91.8564 763.986 92.9563 763.75 94.1528C763.515 95.3494 763.64 96.5889 764.11 97.7143C764.58 98.8398 765.373 99.8005 766.389 100.475C767.405 101.149 768.598 101.507 769.818 101.503C771.448 101.497 773.01 100.845 774.16 99.6904C775.311 98.5356 775.957 96.9717 775.957 95.3414Z" fill="#394C60" fill-opacity="0.5"/>
<path d="M687.328 26.8932C687.324 26.2181 687.12 25.5594 686.742 25.0002C686.363 24.4409 685.828 24.0062 685.203 23.7509C684.578 23.4955 683.892 23.4309 683.23 23.5653C682.569 23.6996 681.962 24.0268 681.486 24.5057C681.01 24.9846 680.686 25.5936 680.556 26.2561C680.426 26.9185 680.495 27.6047 680.754 28.228C681.014 28.8513 681.452 29.3838 682.013 29.7584C682.575 30.1331 683.235 30.333 683.91 30.333C684.361 30.333 684.807 30.2439 685.223 30.0708C685.639 29.8976 686.017 29.6439 686.335 29.3242C686.653 29.0045 686.904 28.6251 687.074 28.2079C687.245 27.7907 687.331 27.3439 687.328 26.8932Z" fill="#394C60" fill-opacity="0.5"/>
<path d="M774.627 95.3414C774.632 94.3836 774.351 93.4461 773.822 92.648C773.292 91.8499 772.538 91.227 771.654 90.8585C770.77 90.49 769.796 90.3925 768.857 90.5783C767.917 90.7641 767.054 91.2248 766.377 91.9021C765.699 92.5793 765.239 93.4425 765.053 94.3821C764.867 95.3216 764.965 96.2952 765.333 97.1793C765.702 98.0633 766.324 98.8179 767.123 99.3473C767.921 99.8767 768.858 100.157 769.816 100.153C771.092 100.153 772.316 99.6458 773.218 98.7435C774.12 97.8412 774.627 96.6174 774.627 95.3414Z" fill="#394C60" fill-opacity="0.3"/>
<path d="M904.102 78.839C904.102 78.0458 903.866 77.2705 903.425 76.6112C902.984 75.952 902.357 75.4386 901.624 75.1361C900.89 74.8335 900.084 74.7555 899.306 74.9118C898.529 75.0681 897.815 75.4518 897.255 76.0142C896.696 76.5767 896.316 77.2925 896.164 78.071C896.012 78.8495 896.095 79.6556 896.401 80.3872C896.708 81.1187 897.224 81.7429 897.886 82.1804C898.548 82.618 899.324 82.8492 900.117 82.8449C900.643 82.8449 901.162 82.7412 901.647 82.5396C902.132 82.338 902.572 82.0426 902.942 81.6703C903.313 81.298 903.606 80.8563 903.805 80.3704C904.004 79.8845 904.105 79.3641 904.102 78.839Z" fill="#394C60" fill-opacity="0.5"/>
<path d="M907.521 41.371C908.218 41.371 908.783 41.9363 908.783 42.6337C908.783 43.3311 908.218 43.8965 907.521 43.8965C906.823 43.8965 906.258 43.3311 906.258 42.6337C906.258 41.9363 906.823 41.371 907.521 41.371Z" fill="#394C60" fill-opacity="0.5"/>
<path d="M900.119 73.4832C903.077 73.4832 905.475 75.881 905.475 78.8389C905.475 81.7968 903.077 84.1946 900.119 84.1946C897.161 84.1946 894.764 81.7968 894.764 78.8389C894.764 75.881 897.161 73.4832 900.119 73.4832Z" fill="#394C60" fill-opacity="0.5"/>
<path d="M903.579 78.8389C903.579 78.1543 903.376 77.485 902.996 76.9158C902.616 76.3465 902.075 75.9028 901.443 75.6408C900.81 75.3788 900.114 75.3103 899.443 75.4439C898.771 75.5774 898.154 75.9071 897.67 76.3912C897.186 76.8753 896.856 77.4921 896.723 78.1636C896.589 78.8351 896.658 79.5311 896.92 80.1637C897.182 80.7962 897.625 81.3368 898.195 81.7172C898.764 82.0975 899.433 82.3005 900.118 82.3005C901.036 82.3005 901.916 81.9358 902.566 81.2867C903.215 80.6375 903.579 79.757 903.579 78.8389Z" fill="#394C60" fill-opacity="0.5"/>
<path d="M769.817 92.2935C771.501 92.2935 772.865 93.6581 772.865 95.3415C772.865 97.0248 771.501 98.3894 769.817 98.3894C768.134 98.3894 766.77 97.0248 766.77 95.3415C766.77 93.6581 768.134 92.2935 769.817 92.2935Z" fill="#394C60" fill-opacity="0.3"/>
<path d="M902.859 78.8391C902.859 78.2999 902.699 77.7729 902.399 77.3249C902.099 76.8769 901.672 76.5281 901.174 76.3228C900.675 76.1175 900.127 76.0649 899.598 76.1717C899.07 76.2785 898.585 76.5398 898.205 76.9226C897.826 77.3054 897.568 77.7923 897.466 78.3216C897.363 78.851 897.42 79.3988 897.63 79.8957C897.839 80.3925 898.191 80.8161 898.641 81.1125C899.092 81.4088 899.62 81.5648 900.159 81.5605C900.516 81.5605 900.868 81.4899 901.197 81.3529C901.526 81.2159 901.825 81.0151 902.076 80.7621C902.327 80.5091 902.525 80.2089 902.66 79.8789C902.794 79.5488 902.862 79.1954 902.859 78.8391Z" fill="#394C60" fill-opacity="0.5"/>
<path d="M956.811 39.9339C956.811 39.1847 956.589 38.4523 956.172 37.8293C955.756 37.2063 955.164 36.7208 954.472 36.4341C953.78 36.1473 953.018 36.0723 952.283 36.2185C951.549 36.3647 950.874 36.7255 950.344 37.2553C949.814 37.7851 949.453 38.46 949.307 39.1949C949.161 39.9297 949.236 40.6914 949.523 41.3836C949.809 42.0758 950.295 42.6674 950.918 43.0836C951.541 43.4999 952.273 43.722 953.023 43.722C954.027 43.722 954.991 43.3229 955.701 42.6125C956.412 41.9021 956.811 40.9386 956.811 39.9339Z" fill="#394C60" fill-opacity="0.5"/>
<path d="M909.193 42.6336C909.193 42.2978 909.094 41.9695 908.907 41.6902C908.72 41.4109 908.455 41.1933 908.145 41.0647C907.835 40.9362 907.493 40.9026 907.164 40.9681C906.834 41.0336 906.532 41.1954 906.294 41.4328C906.057 41.6703 905.895 41.9729 905.83 42.3023C905.764 42.6317 905.798 42.9732 905.926 43.2835C906.055 43.5938 906.272 43.859 906.552 44.0456C906.831 44.2322 907.159 44.3318 907.495 44.3318C907.945 44.3318 908.377 44.1528 908.696 43.8344C909.014 43.5159 909.193 43.084 909.193 42.6336Z" fill="#394C60" fill-opacity="0.5"/>
<path d="M903.624 78.839C903.628 78.1396 903.425 77.4548 903.039 76.8714C902.653 76.2881 902.102 75.8327 901.457 75.5631C900.812 75.2934 900.101 75.2217 899.414 75.3571C898.728 75.4925 898.098 75.8288 897.603 76.3234C897.109 76.818 896.772 77.4484 896.637 78.1346C896.502 78.8208 896.573 79.5317 896.843 80.177C897.113 80.8224 897.568 81.373 898.151 81.7589C898.735 82.1447 899.42 82.3485 900.119 82.3442C901.047 82.3385 901.935 81.9673 902.591 81.3112C903.247 80.6551 903.618 79.7669 903.624 78.839Z" fill="#394C60" fill-opacity="0.5"/>
<path d="M907.517 39.9994C908.972 39.9994 910.151 41.1788 910.151 42.6337C910.151 44.0886 908.972 45.2681 907.517 45.2681C906.062 45.2681 904.883 44.0886 904.883 42.6337C904.883 41.1788 906.062 39.9994 907.517 39.9994Z" fill="#394C60" fill-opacity="0.5"/>
<path d="M961.032 39.9341C961.032 38.3443 960.56 36.7902 959.676 35.4686C958.793 34.1471 957.537 33.1174 956.068 32.51C954.598 31.9026 952.982 31.7448 951.423 32.0566C949.864 32.3683 948.433 33.1356 947.31 34.2613C946.187 35.387 945.424 36.8204 945.117 38.3802C944.809 39.94 944.971 41.5559 945.583 43.0235C946.194 44.491 947.227 45.7442 948.551 46.6243C949.875 47.5044 951.43 47.9719 953.02 47.9676C955.147 47.9619 957.185 47.1129 958.687 45.607C960.189 44.101 961.032 42.0609 961.032 39.9341Z" fill="#394C60" fill-opacity="0.5"/>
<path d="M959.247 39.934C959.251 38.6963 958.888 37.4853 958.203 36.4544C957.518 35.4236 956.542 34.6193 955.399 34.1437C954.257 33.6681 952.999 33.5425 951.785 33.7829C950.571 34.0233 949.455 34.6188 948.58 35.494C947.705 36.3691 947.109 37.4845 946.869 38.6986C946.629 39.9126 946.754 41.1708 947.23 42.3134C947.705 43.456 948.51 44.4316 949.54 45.1165C950.571 45.8014 951.782 46.1648 953.02 46.1605C954.671 46.1605 956.255 45.5045 957.423 44.3368C958.591 43.1691 959.247 41.5853 959.247 39.934Z" fill="#394C60" fill-opacity="0.5"/>
<path d="M169.045 24.5854C169.041 23.9103 168.837 23.2516 168.458 22.6924C168.08 22.1332 167.545 21.6985 166.92 21.4431C166.295 21.1877 165.608 21.1231 164.947 21.2575C164.285 21.3918 163.678 21.7191 163.202 22.1979C162.727 22.6768 162.403 23.2859 162.273 23.9483C162.143 24.6108 162.212 25.2969 162.471 25.9202C162.731 26.5435 163.169 27.0761 163.73 27.4507C164.292 27.8253 164.952 28.0253 165.627 28.0253C166.078 28.0253 166.524 27.9362 166.94 27.763C167.356 27.5899 167.734 27.3361 168.052 27.0164C168.369 26.6967 168.621 26.3174 168.791 25.9001C168.962 25.4829 169.048 25.0361 169.045 24.5854Z" fill="#394C60" fill-opacity="0.3"/>
<path d="M170.285 24.5854C170.285 23.664 170.012 22.7632 169.5 21.997C168.988 21.2309 168.26 20.6337 167.409 20.2811C166.557 19.9285 165.621 19.8362 164.717 20.016C163.813 20.1957 162.983 20.6394 162.331 21.291C161.68 21.9426 161.236 22.7728 161.056 23.6765C160.877 24.5803 160.969 25.517 161.321 26.3684C161.674 27.2197 162.271 27.9473 163.037 28.4593C163.804 28.9712 164.704 29.2445 165.626 29.2445C166.238 29.2473 166.846 29.1288 167.412 28.8957C167.979 28.6626 168.493 28.3195 168.927 27.8863C169.36 27.4531 169.703 26.9383 169.936 26.3718C170.169 25.8052 170.288 25.1981 170.285 24.5854Z" fill="#394C60" fill-opacity="0.5"/>
<path d="M165.649 21.9076C167.127 21.9076 168.326 23.1066 168.326 24.5855C168.326 26.0644 167.127 27.2633 165.649 27.2633C164.17 27.2633 162.971 26.0644 162.971 24.5855C162.971 23.1066 164.17 21.9076 165.649 21.9076Z" fill="#394C60" fill-opacity="0.5"/>
<path d="M438.07 38.8019C440.018 38.8019 441.597 40.3809 441.597 42.3288C441.597 44.2767 440.018 45.8557 438.07 45.8557C436.122 45.8557 434.543 44.2767 434.543 42.3288C434.543 40.3809 436.122 38.8019 438.07 38.8019Z" fill="#394C60" fill-opacity="0.5"/>
<path d="M441.75 42.3506C441.754 41.6177 441.541 40.9 441.137 40.2885C440.733 39.677 440.156 39.1992 439.48 38.9157C438.804 38.6323 438.059 38.5559 437.34 38.6962C436.621 38.8366 435.959 39.1873 435.439 39.704C434.92 40.2208 434.565 40.8802 434.42 41.5987C434.276 42.3172 434.348 43.0625 434.627 43.7401C434.907 44.4176 435.381 44.997 435.99 45.4046C436.599 45.8123 437.316 46.0299 438.049 46.0299C439.027 46.0299 439.965 45.643 440.658 44.9536C441.352 44.2642 441.744 43.3284 441.75 42.3506Z" fill="#394C60" fill-opacity="0.5"/>
<path d="M457.946 16.9873C460.123 16.9873 461.887 18.7515 461.887 20.9278C461.887 23.1042 460.123 24.8684 457.946 24.8684C455.77 24.8684 454.006 23.1042 454.006 20.9278C454.006 18.7515 455.77 16.9873 457.946 16.9873Z" fill="#394C60" fill-opacity="0.5"/>
<path d="M457.948 18.5112C459.282 18.5112 460.364 19.5931 460.364 20.9277C460.364 22.2624 459.282 23.3444 457.948 23.3444C456.613 23.3444 455.531 22.2624 455.531 20.9277C455.531 19.5931 456.613 18.5112 457.948 18.5112Z" fill="#394C60" fill-opacity="0.5"/>
<path d="M463.258 20.928C463.262 19.8712 462.952 18.8369 462.368 17.9564C461.783 17.0759 460.951 16.3889 459.975 15.9825C458.999 15.5761 457.925 15.4686 456.889 15.6737C455.852 15.8789 454.899 16.3873 454.152 17.1346C453.405 17.8818 452.896 18.8343 452.691 19.871C452.486 20.9077 452.594 21.9819 453 22.9574C453.406 23.933 454.093 24.7658 454.974 25.3502C455.854 25.9347 456.889 26.2444 457.945 26.2401C459.353 26.2343 460.7 25.6728 461.695 24.6779C462.69 23.6829 463.252 22.3351 463.258 20.928Z" fill="#394C60" fill-opacity="0.5"/>
<path d="M439.443 42.3505C439.443 41.981 439.296 41.6266 439.035 41.3652C438.773 41.1039 438.419 40.9571 438.049 40.9571C437.684 40.9629 437.335 41.1122 437.078 41.3729C436.822 41.6335 436.678 41.9847 436.678 42.3505C436.678 42.7143 436.822 43.0631 437.079 43.3203C437.337 43.5776 437.686 43.722 438.049 43.722C438.415 43.7221 438.766 43.5783 439.027 43.3217C439.288 43.0651 439.437 42.7162 439.443 42.3505Z" fill="#394C60" fill-opacity="0.5"/>
<path d="M459.099 20.928C459.103 20.6937 459.038 20.4634 458.91 20.2668C458.783 20.0701 458.599 19.9161 458.384 19.8244C458.168 19.7327 457.93 19.7076 457.7 19.7523C457.47 19.7969 457.258 19.9094 457.092 20.0751C456.927 20.2408 456.814 20.4522 456.77 20.6823C456.725 20.9124 456.75 21.1505 456.842 21.3662C456.933 21.5819 457.087 21.7653 457.284 21.8928C457.481 22.0203 457.711 22.0861 457.945 22.0818C458.251 22.0818 458.545 21.9602 458.761 21.7439C458.978 21.5275 459.099 21.234 459.099 20.928Z" fill="#394C60" fill-opacity="0.3"/>
<path d="M593.447 12.1105C593.447 10.8443 593.07 9.60674 592.364 8.5555C591.658 7.50427 590.656 6.68689 589.484 6.20745C588.312 5.728 587.024 5.6082 585.783 5.86329C584.543 6.11837 583.407 6.7368 582.519 7.63983C581.632 8.54286 581.033 9.68962 580.799 10.9341C580.565 12.1786 580.707 13.4645 581.207 14.628C581.706 15.7915 582.541 16.7801 583.604 17.4677C584.667 18.1554 585.911 18.511 587.177 18.4894C588.85 18.4609 590.445 17.7762 591.618 16.583C592.79 15.3898 593.448 13.7836 593.447 12.1105Z" fill="#394C60" fill-opacity="0.5"/>
<path d="M587.07 7.12487C589.823 7.12487 592.055 9.35701 592.055 12.1105C592.055 14.8639 589.823 17.0961 587.07 17.0961C584.316 17.0961 582.084 14.8639 582.084 12.1105C582.084 9.35701 584.316 7.12487 587.07 7.12487Z" fill="#394C60" fill-opacity="0.5"/>
<path d="M587.072 3.94646C591.581 3.94646 595.237 7.60168 595.237 12.1106C595.237 16.6196 591.581 20.2748 587.072 20.2748C582.563 20.2748 578.908 16.6196 578.908 12.1106C578.908 7.60168 582.563 3.94646 587.072 3.94646Z" fill="#394C60" fill-opacity="0.5"/>
<path d="M457.945 17.3792C459.905 17.3792 461.494 18.968 461.494 20.9279C461.494 22.8878 459.905 24.4766 457.945 24.4766C455.985 24.4766 454.396 22.8878 454.396 20.9279C454.396 18.968 455.985 17.3792 457.945 17.3792Z" fill="#394C60" fill-opacity="0.5"/>
<path d="M589.358 12.1106C589.358 11.6498 589.222 11.1994 588.966 10.8164C588.71 10.4333 588.346 10.1347 587.92 9.95838C587.495 9.78207 587.026 9.73595 586.574 9.82583C586.122 9.91572 585.707 10.1376 585.382 10.4634C585.056 10.7891 584.834 11.2042 584.744 11.6561C584.654 12.108 584.7 12.5764 584.877 13.002C585.053 13.4277 585.351 13.7915 585.735 14.0475C586.118 14.3034 586.568 14.4401 587.029 14.4401C587.647 14.4401 588.239 14.1947 588.676 13.7578C589.113 13.3209 589.358 12.7284 589.358 12.1106Z" fill="#394C60" fill-opacity="0.5"/>
<path d="M685.149 2.77079C685.149 2.44354 685.052 2.12366 684.87 1.85156C684.688 1.57946 684.43 1.36737 684.128 1.24214C683.825 1.1169 683.493 1.08415 683.172 1.14799C682.851 1.21184 682.556 1.36941 682.324 1.60081C682.093 1.83221 681.935 2.12703 681.872 2.44799C681.808 2.76895 681.841 3.10166 681.966 3.404C682.091 3.70634 682.303 3.96476 682.575 4.14657C682.847 4.32838 683.167 4.42542 683.494 4.42542C683.933 4.42542 684.354 4.25107 684.664 3.94077C684.975 3.63047 685.149 3.20962 685.149 2.77079Z" fill="#394C60" fill-opacity="0.5"/>
<path d="M683.473 -0.538351C685.301 -0.538351 686.782 0.943207 686.782 2.77083C686.782 4.59845 685.301 6.08008 683.473 6.08008C681.646 6.08008 680.164 4.59845 680.164 2.77083C680.164 0.943207 681.646 -0.538351 683.473 -0.538351Z" fill="#394C60" fill-opacity="0.5"/>
<path d="M685.499 2.7708C685.499 2.37035 685.38 1.9789 685.157 1.64594C684.935 1.31298 684.619 1.05346 684.249 0.900216C683.879 0.746971 683.472 0.706885 683.079 0.785009C682.686 0.863133 682.325 1.05596 682.042 1.33912C681.759 1.62228 681.566 1.98306 681.488 2.37582C681.41 2.76857 681.45 3.17566 681.603 3.54563C681.757 3.9156 682.016 4.23182 682.349 4.4543C682.682 4.67677 683.073 4.79553 683.474 4.79553C684.011 4.79553 684.526 4.5822 684.906 4.20249C685.285 3.82278 685.499 3.30779 685.499 2.7708Z" fill="#394C60" fill-opacity="0.5"/>
<path d="M591.078 12.1106C591.078 11.3183 590.843 10.5438 590.403 9.88504C589.963 9.22628 589.337 8.71283 588.605 8.40964C587.873 8.10644 587.068 8.02711 586.291 8.18168C585.514 8.33625 584.8 8.71774 584.24 9.27798C583.679 9.83821 583.298 10.552 583.143 11.3291C582.989 12.1061 583.068 12.9116 583.371 13.6436C583.675 14.3755 584.188 15.0012 584.847 15.4414C585.506 15.8815 586.28 16.1165 587.072 16.1165C588.133 16.1107 589.149 15.6869 589.899 14.9368C590.649 14.1868 591.072 13.1712 591.078 12.1106Z" fill="#394C60" fill-opacity="0.3"/>
<path d="M686.347 2.77073C686.347 2.20235 686.179 1.64673 685.863 1.17414C685.547 0.701552 685.098 0.333229 684.573 0.115719C684.048 -0.10179 683.47 -0.158709 682.913 -0.047823C682.355 0.0630627 681.843 0.336756 681.441 0.738662C681.039 1.14057 680.766 1.65265 680.655 2.21011C680.544 2.76757 680.601 3.34537 680.818 3.87048C681.036 4.3956 681.404 4.84444 681.877 5.16022C682.349 5.47599 682.905 5.64453 683.473 5.64453C684.236 5.64453 684.967 5.34174 685.505 4.8028C686.044 4.26386 686.347 3.53291 686.347 2.77073Z" fill="#394C60" fill-opacity="0.5"/>
<path d="M687.805 26.8932C687.805 26.1267 687.578 25.3775 687.152 24.7402C686.726 24.1029 686.121 23.6062 685.413 23.3129C684.705 23.0196 683.926 22.9429 683.174 23.0924C682.422 23.2419 681.732 23.611 681.19 24.153C680.648 24.6949 680.279 25.3854 680.129 26.1372C679.98 26.8889 680.056 27.6681 680.35 28.3762C680.643 29.0843 681.14 29.6895 681.777 30.1153C682.414 30.5411 683.163 30.7684 683.93 30.7684C684.958 30.7684 685.943 30.3602 686.67 29.6334C687.397 28.9067 687.805 27.921 687.805 26.8932Z" fill="#394C60" fill-opacity="0.5"/>
<path d="M683.928 20.3183C687.56 20.3183 690.503 23.262 690.503 26.8932C690.503 30.5244 687.56 33.468 683.928 33.468C680.297 33.468 677.354 30.5244 677.354 26.8932C677.354 23.262 680.297 20.3183 683.928 20.3183Z" fill="#394C60" fill-opacity="0.5"/>
<path d="M685.52 26.8931C685.516 26.5797 685.419 26.2746 685.242 26.0161C685.065 25.7577 684.815 25.5574 684.524 25.4404C684.233 25.3234 683.915 25.2951 683.608 25.3588C683.301 25.4226 683.02 25.5756 682.8 25.7987C682.58 26.0219 682.43 26.3051 682.371 26.6127C682.311 26.9204 682.344 27.2388 682.465 27.528C682.586 27.8171 682.789 28.064 683.05 28.2377C683.311 28.4114 683.618 28.5041 683.931 28.5042C684.141 28.5042 684.35 28.4623 684.544 28.3811C684.738 28.2999 684.915 28.1809 685.063 28.031C685.21 27.8811 685.327 27.7033 685.406 27.508C685.484 27.3126 685.523 27.1036 685.52 26.8931Z" fill="#394C60" fill-opacity="0.5"/>
<path d="M691.334 2.77076C691.334 1.21633 690.873 -0.303181 690.009 -1.59565C689.146 -2.88811 687.918 -3.89548 686.482 -4.49034C685.046 -5.0852 683.466 -5.24084 681.941 -4.93758C680.417 -4.63433 679.016 -3.8858 677.917 -2.78665C676.818 -1.6875 676.07 -0.287075 675.766 1.23749C675.463 2.76206 675.619 4.3423 676.213 5.77841C676.808 7.21452 677.816 8.44198 679.108 9.30558C680.401 10.1692 681.92 10.6301 683.475 10.6301C684.507 10.6301 685.529 10.4268 686.482 10.0319C687.436 9.6369 688.302 9.05799 689.032 8.32818C689.762 7.59837 690.341 6.73195 690.736 5.77841C691.131 4.82486 691.334 3.80287 691.334 2.77076Z" fill="#394C60" fill-opacity="0.5"/>
<path d="M683.929 21.755C686.767 21.755 689.067 24.0554 689.067 26.8931C689.067 29.7307 686.767 32.031 683.929 32.031C681.091 32.031 678.791 29.7307 678.791 26.8931C678.791 24.0554 681.091 21.755 683.929 21.755Z" fill="#394C60" fill-opacity="0.5"/>
<path d="M806.153 -5.02325C806.153 -6.74562 805.642 -8.42929 804.686 -9.86139C803.729 -11.2935 802.369 -12.4097 800.777 -13.0688C799.186 -13.7279 797.435 -13.9004 795.746 -13.5644C794.057 -13.2283 792.505 -12.3989 791.287 -11.181C790.069 -9.96313 789.24 -8.41143 788.904 -6.72216C788.568 -5.03289 788.74 -3.28191 789.399 -1.69065C790.058 -0.0993943 791.175 1.26066 792.607 2.21755C794.039 3.17445 795.722 3.68518 797.445 3.68518C799.754 3.68518 801.969 2.76769 803.603 1.13455C805.236 -0.498602 806.153 -2.71363 806.153 -5.02325Z" fill="#394C60" fill-opacity="0.5"/>
<path d="M685.823 26.8931C685.819 26.5194 685.704 26.1554 685.493 25.8468C685.283 25.5382 684.985 25.2988 684.639 25.1588C684.293 25.0188 683.912 24.9844 683.546 25.0599C683.18 25.1354 682.845 25.3175 682.582 25.5832C682.32 25.849 682.141 26.1865 682.07 26.5533C681.999 26.9201 682.037 27.2998 682.181 27.6446C682.325 27.9895 682.568 28.284 682.879 28.4912C683.19 28.6984 683.555 28.8089 683.929 28.809C684.18 28.809 684.428 28.7593 684.659 28.6627C684.89 28.5662 685.1 28.4247 685.276 28.2465C685.452 28.0683 685.591 27.857 685.685 27.6246C685.779 27.3923 685.826 27.1437 685.823 26.8931Z" fill="#394C60" fill-opacity="0.5"/>
<path d="M910.108 42.6336C910.108 42.1169 909.955 41.6118 909.668 41.1821C909.381 40.7525 908.973 40.4177 908.495 40.2199C908.018 40.0222 907.492 39.9704 906.986 40.0712C906.479 40.172 906.013 40.4209 905.648 40.7862C905.283 41.1516 905.034 41.6171 904.933 42.1239C904.832 42.6307 904.884 43.156 905.082 43.6334C905.279 44.1107 905.614 44.5188 906.044 44.8058C906.474 45.0929 906.979 45.2461 907.495 45.2461C907.839 45.249 908.18 45.1834 908.499 45.0531C908.817 44.9229 909.106 44.7306 909.349 44.4874C909.592 44.2442 909.785 43.9551 909.915 43.6368C910.045 43.3185 910.111 42.9775 910.108 42.6336Z" fill="#394C60" fill-opacity="0.5"/>
<path d="M911.045 42.6336C911.045 41.9317 910.837 41.2456 910.447 40.662C910.057 40.0784 909.502 39.6236 908.854 39.355C908.206 39.0864 907.492 39.0161 906.804 39.1531C906.115 39.29 905.483 39.628 904.987 40.1243C904.49 40.6206 904.152 41.2529 904.015 41.9412C903.879 42.6296 903.949 43.3432 904.217 43.9916C904.486 44.64 904.941 45.1943 905.524 45.5842C906.108 45.9741 906.794 46.1823 907.496 46.1823C908.437 46.1823 909.34 45.8084 910.005 45.1429C910.671 44.4774 911.045 43.5747 911.045 42.6336Z" fill="#394C60" fill-opacity="0.5"/>
<path d="M913.614 42.6336C913.614 41.4237 913.255 40.2409 912.583 39.2349C911.911 38.2288 910.956 37.4447 909.838 36.9816C908.72 36.5186 907.49 36.3975 906.303 36.6335C905.116 36.8696 904.026 37.4522 903.171 38.3078C902.315 39.1634 901.733 40.2534 901.496 41.4401C901.26 42.6269 901.382 43.8569 901.845 44.9748C902.308 46.0926 903.092 47.0481 904.098 47.7203C905.104 48.3925 906.287 48.7513 907.497 48.7513C909.119 48.7513 910.675 48.1068 911.822 46.9595C912.97 45.8122 913.614 44.2561 913.614 42.6336Z" fill="#394C60" fill-opacity="0.5"/>
<path d="M803.301 -5.0233C803.301 -6.18159 802.957 -7.31385 802.314 -8.27694C801.67 -9.24002 800.756 -9.99065 799.685 -10.4339C798.615 -10.8772 797.438 -10.9931 796.302 -10.7672C795.166 -10.5412 794.122 -9.98344 793.303 -9.16441C792.484 -8.34537 791.926 -7.30184 791.7 -6.1658C791.474 -5.02977 791.59 -3.85226 792.034 -2.78214C792.477 -1.71202 793.228 -0.79735 794.191 -0.153838C795.154 0.489674 796.286 0.83313 797.444 0.83313C798.998 0.83313 800.487 0.216138 801.585 -0.882154C802.684 -1.98045 803.301 -3.47008 803.301 -5.0233Z" fill="#394C60" fill-opacity="0.5"/>
<path d="M907.518 38.1705C909.983 38.1705 911.981 40.1687 911.981 42.6336C911.981 45.0985 909.983 47.0967 907.518 47.0967C905.053 47.0967 903.055 45.0985 903.055 42.6336C903.055 40.1687 905.053 38.1705 907.518 38.1705Z" fill="#394C60" fill-opacity="0.5"/>
<path d="M959.465 39.9339C959.465 38.6421 959.082 37.3793 958.364 36.3053C957.647 35.2312 956.627 34.3941 955.433 33.8997C954.24 33.4054 952.926 33.276 951.659 33.5281C950.393 33.7801 949.229 34.4021 948.315 35.3155C947.402 36.229 946.78 37.3927 946.528 38.6597C946.276 39.9266 946.405 41.2398 946.9 42.4333C947.394 43.6267 948.231 44.6468 949.305 45.3645C950.379 46.0821 951.642 46.4652 952.934 46.4652C954.666 46.4652 956.327 45.7771 957.552 44.5522C958.777 43.3274 959.465 41.6661 959.465 39.9339Z" fill="#394C60" fill-opacity="0.5"/>
<path d="M956.133 39.9339C956.129 39.3177 955.943 38.7163 955.599 38.2051C955.254 37.694 954.767 37.2956 954.198 37.0598C953.628 36.8241 953.002 36.7614 952.397 36.8796C951.792 36.9978 951.236 37.2916 950.797 37.7244C950.358 38.1573 950.057 38.7098 949.93 39.313C949.804 39.9162 949.858 40.5433 950.086 41.1159C950.314 41.6885 950.705 42.1812 951.212 42.5325C951.718 42.8837 952.317 43.0779 952.933 43.0907C953.352 43.0995 953.768 43.0241 954.158 42.8691C954.547 42.7141 954.901 42.4826 955.2 42.1883C955.498 41.894 955.735 41.5429 955.895 41.1557C956.055 40.7685 956.136 40.353 956.133 39.9339Z" fill="#394C60" fill-opacity="0.5"/>
<path d="M960.38 39.9339C960.38 38.4733 959.947 37.0455 959.135 35.8313C958.323 34.6172 957.169 33.6712 955.819 33.1132C954.469 32.5553 952.984 32.4104 951.552 32.6969C950.119 32.9835 948.804 33.6886 947.773 34.7229C946.742 35.7573 946.041 37.0743 945.758 38.5074C945.476 39.9405 945.625 41.4252 946.187 42.7734C946.749 44.1216 947.699 45.2727 948.915 46.0811C950.132 46.8894 951.561 47.3186 953.021 47.3143C953.99 47.3143 954.948 47.1232 955.842 46.7521C956.737 46.3809 957.549 45.8369 958.232 45.1513C958.916 44.4657 959.458 43.6519 959.826 42.7566C960.195 41.8613 960.383 40.9021 960.38 39.9339Z" fill="#394C60" fill-opacity="0.5"/>
<path d="M907.52 36.2547C911.043 36.2547 913.899 39.1106 913.899 42.6336C913.899 46.1566 911.043 49.0126 907.52 49.0126C903.997 49.0126 901.141 46.1566 901.141 42.6336C901.141 39.1106 903.997 36.2547 907.52 36.2547Z" fill="#394C60" fill-opacity="0.3"/>
<path d="M954.938 39.9341C954.942 39.5491 954.831 39.1715 954.62 38.8495C954.409 38.5276 954.107 38.2758 953.752 38.1265C953.397 37.9772 953.005 37.937 952.627 38.011C952.25 38.0851 951.902 38.2701 951.63 38.5424C951.358 38.8147 951.173 39.1619 951.099 39.5398C951.025 39.9177 951.065 40.3091 951.214 40.664C951.364 41.0189 951.615 41.3213 951.937 41.5325C952.259 41.7438 952.637 41.8543 953.022 41.85C953.274 41.8529 953.525 41.8053 953.758 41.7101C953.992 41.6148 954.205 41.4739 954.383 41.2954C954.562 41.1169 954.702 40.9045 954.798 40.6707C954.893 40.437 954.941 40.1865 954.938 39.9341Z" fill="#394C60" fill-opacity="0.5"/>
<path d="M956.811 39.9339C956.811 39.1847 956.589 38.4523 956.172 37.8293C955.756 37.2063 955.164 36.7208 954.472 36.4341C953.78 36.1473 953.018 36.0723 952.283 36.2185C951.549 36.3647 950.874 36.7255 950.344 37.2553C949.814 37.7851 949.453 38.46 949.307 39.1949C949.161 39.9297 949.236 40.6914 949.523 41.3836C949.809 42.0758 950.295 42.6674 950.918 43.0836C951.541 43.4999 952.273 43.722 953.023 43.722C954.027 43.722 954.991 43.3229 955.701 42.6125C956.412 41.9021 956.811 40.9386 956.811 39.9339Z" fill="#394C60" fill-opacity="0.5"/>
</g>
</svg>
