<svg width="50" height="50" viewBox="0 0 50 50" fill="none" xmlns="http://www.w3.org/2000/svg">
<path d="M0 19.1154L3.26374 21.6563L1.13701 25.1853C-0.400603 27.8908 2.23867 30.5199 3.91177 31.4434C5.58488 32.3668 8.12988 32.4491 10.5276 32.4197L13.4732 27.4674L16.7311 29.2319L11.2228 18.886L0.0294579 19.1213L0 19.1154Z" fill="url(#paint0_radial_517_16133)"/>
<path d="M1.13086 30.9728L8.12373 43.8772C9.53173 45.6711 12.1828 46.0946 14.934 46.0299H22.3098V33.8196L8.31814 33.7196C6.9891 33.8463 5.64872 33.6642 4.40186 33.1877C3.155 32.7112 2.03547 31.9531 1.13086 30.9728Z" fill="url(#paint1_radial_517_16133)"/>
<path d="M40.143 8.69309L37.7099 4.22302C37.258 3.30244 36.5635 2.52208 35.7011 1.96564C34.8386 1.40921 33.8407 1.09771 32.8143 1.06458L23.9068 1.12927L23.082 2.05858L29.4799 14.1513L29.6861 14.5218L30.7583 16.551L37.7276 16.6098L43.6542 6.85213L40.143 8.69309Z" fill="url(#paint2_radial_517_16133)"/>
<path d="M31.5062 30.0847L26.0156 39.9718L31.5062 49.9706L31.6417 45.9652H36.6552C37.6803 45.9967 38.6948 45.7497 39.5903 45.2503C40.4858 44.751 41.2285 44.0182 41.7393 43.1302L48.1784 31.1022C46.0576 33.2431 43.324 33.796 40.1781 33.796H31.683L31.4827 30.0612L31.5062 30.0847Z" fill="url(#paint3_radial_517_16133)"/>
<path d="M44.172 10.4811C43.483 11.0571 42.9395 11.7869 42.5854 12.6115C42.2313 13.4361 42.0765 14.3323 42.1336 15.2276C43.0061 15.4397 43.9162 15.444 44.7906 15.2401C45.665 15.0363 46.4791 14.63 47.1672 14.0541C47.8552 13.4781 48.398 12.7487 48.7517 11.9248C49.1054 11.1008 49.26 10.2053 49.2031 9.31068C48.3312 9.10046 47.4221 9.09681 46.5485 9.30004C45.6749 9.50328 44.8611 9.90776 44.172 10.4811Z" fill="url(#paint4_radial_517_16133)"/>
<path style="mix-blend-mode:multiply" opacity="0.5" d="M14.9338 46.0299H22.3096V40.2894H16.3772C8.17069 39.5365 4.20591 35.884 2.42676 33.3902L8.12356 43.8948C9.53157 45.6711 12.1826 46.0946 14.9338 46.0299Z" fill="url(#paint5_radial_517_16133)"/>
<path d="M34.0508 22.7385L44.4665 16.3804L49.1794 25.5852C50.3105 30.6082 44.1189 32.455 39.1644 32.155L34.0508 22.7385Z" fill="url(#paint6_radial_517_16133)"/>
<path style="mix-blend-mode:multiply" opacity="0.28" d="M49.1803 25.5852L49.1509 25.5323C40.9031 26.7086 34.0693 22.7502 34.0693 22.7502L39.1476 32.1609C44.1021 32.4432 50.2938 30.5964 49.1803 25.5852Z" fill="url(#paint7_radial_517_16133)"/>
<path style="mix-blend-mode:multiply" opacity="0.5" d="M42.1104 15.2276C42.9828 15.4397 43.8929 15.444 44.7673 15.2401C45.6417 15.0362 46.4558 14.63 47.1439 14.054C47.8319 13.4781 48.3747 12.7487 48.7284 11.9248C49.0821 11.1008 49.2367 10.2053 49.1798 9.31067C47.1206 11.6122 44.7396 13.605 42.1104 15.2276Z" fill="url(#paint8_radial_517_16133)"/>
<path d="M45.2563 5.11703C45.0158 5.63141 44.9006 6.19528 44.9201 6.7626C44.9395 7.32991 45.0931 7.8846 45.3682 8.38135C45.9266 8.2699 46.4508 8.02862 46.8983 7.67707C47.3459 7.32553 47.7041 6.87362 47.9439 6.35801C48.1838 5.8424 48.2986 5.2776 48.2789 4.70943C48.2592 4.14126 48.1057 3.58571 47.8308 3.08786C47.272 3.20009 46.7477 3.44234 46.3004 3.79492C45.853 4.14751 45.4953 4.60048 45.2563 5.11703Z" fill="url(#paint9_radial_517_16133)"/>
<path style="mix-blend-mode:multiply" opacity="0.5" d="M45.3682 8.38135C45.9265 8.2699 46.4508 8.02862 46.8983 7.67707C47.3458 7.32553 47.704 6.87362 47.9439 6.35801C48.1837 5.8424 48.2985 5.2776 48.2788 4.70943C48.2592 4.14126 48.1056 3.58571 47.8307 3.08786C47.2693 4.9615 46.4399 6.74439 45.3682 8.38135Z" fill="url(#paint10_radial_517_16133)"/>
<path d="M5.93843 13.9042C6.3845 14.2568 6.74081 14.7097 6.97832 15.2259C7.21584 15.742 7.32784 16.3069 7.30519 16.8745C6.7555 17.0239 6.17827 17.0417 5.62036 16.9266C5.06246 16.8115 4.5396 16.5667 4.09424 16.212C3.64888 15.8574 3.29358 15.4028 3.05716 14.8853C2.82075 14.3679 2.7099 13.802 2.73361 13.2337C3.2831 13.0874 3.85931 13.0718 4.41593 13.1883C4.97254 13.3048 5.49401 13.55 5.93843 13.9042Z" fill="url(#paint11_radial_517_16133)"/>
<path style="mix-blend-mode:multiply" opacity="0.5" d="M7.30519 16.8745C6.7555 17.0239 6.17827 17.0417 5.62036 16.9266C5.06246 16.8115 4.5396 16.5667 4.09424 16.212C3.64888 15.8574 3.29358 15.4028 3.05716 14.8853C2.82075 14.3679 2.7099 13.802 2.73361 13.2337C4.0736 14.6611 5.61342 15.8874 7.30519 16.8745Z" fill="url(#paint12_radial_517_16133)"/>
<path d="M7.3877 12.228L20.2482 30.3906C20.2482 30.3906 22.7814 32.9608 28.8317 29.0731C28.8317 29.0731 33.7273 25.8793 32.3665 22.4503L22.3514 3.87015C22.3514 3.87015 21.7623 7.16975 16.1892 10.4458C14.2569 11.5928 9.98572 12.9161 7.3877 12.228Z" fill="#011601"/>
<path d="M9.42006 4.60535L9.21387 4.79945L10.3921 6.56395C10.3921 6.56395 11.482 7.20505 13.6323 5.92873C13.6323 5.92873 15.4821 4.8465 15.5823 3.45843C15.579 3.43699 15.579 3.41518 15.5823 3.39373L14.4217 1.47043L9.42006 4.60535Z" fill="#011601"/>
<path d="M17.0431 3.51723L15.7588 0.729326L21.2671 0L17.0431 3.51723Z" fill="#011601"/>
<path d="M21.0966 1.42925C20.8215 0.991768 20.4063 0.660097 19.9184 0.48819C19.4412 0.894024 17.9095 2.20563 17.7386 2.30562L17.3498 2.54677C17.4857 2.63421 17.6004 2.75074 17.6856 2.88791C18.3395 3.97602 16.8903 6.04636 14.4454 7.51677C13.5463 8.07314 12.5638 8.48219 11.5352 8.72839L12.4247 11.034C13.5874 10.6336 14.7034 10.1091 15.7533 9.46949C19.8771 6.98155 22.2748 3.38196 21.0966 1.42925Z" fill="#011601"/>
<path d="M14.1746 1.541L13.3793 1.39984C12.7268 1.69723 12.0915 2.03105 11.4765 2.39972C7.35261 4.89355 4.94311 8.49312 6.12135 10.4458C6.31813 10.7637 6.5942 11.0252 6.92255 11.2046L7.06395 10.8281C7.06395 10.7752 8.7724 9.25774 9.42043 8.6931C9.17771 8.60496 8.97072 8.43963 8.83131 8.22256C8.17739 7.13445 9.62663 5.06412 12.0715 3.58782C12.7144 3.20444 13.3955 2.88904 14.1039 2.64675L14.1746 1.541Z" fill="#011601"/>
<path d="M9.59714 8.06375L10.7577 11.1457L5.53809 11.4869L9.59714 8.06375Z" fill="#011601"/>
<path d="M17.7095 18.8919C19.138 18.4909 20.4983 17.8782 21.7449 17.0745C22.3219 16.7069 22.8453 16.2616 23.3002 15.7511C24.3187 14.655 25.0388 13.3164 25.3916 11.8633C25.3916 11.7986 23.2177 7.74615 23.2177 7.74615C21.9554 9.95413 20.1473 11.8022 17.966 13.114C15.7846 14.4258 13.303 15.1576 10.7578 15.2394L11.6886 16.5628L13.291 18.8096L13.3558 18.8448L13.5267 18.9213C13.9814 19.0754 14.4552 19.1664 14.9347 19.1919C15.8698 19.2453 16.8074 19.1439 17.7095 18.8919ZM21.5211 24.5089C22.8281 24.108 24.0673 23.5132 25.1972 22.7444C25.4482 22.5802 25.6865 22.3974 25.91 22.1974C26.1861 21.958 26.444 21.6985 26.6818 21.421C27.2234 20.8123 27.6576 20.1162 27.9661 19.3624C28.1757 18.846 28.3048 18.3005 28.349 17.745C28.361 17.5491 28.361 17.3527 28.349 17.1568L26.2046 13.2337C26.0461 13.8936 25.7984 14.5287 25.4682 15.1218C25.0033 15.9447 24.4062 16.6858 23.7008 17.3156C23.3193 17.6696 22.9051 17.9866 22.4637 18.2626C21.097 19.1428 19.6056 19.813 18.0394 20.2506C16.9968 20.5375 15.9143 20.6527 14.8345 20.5917H14.5282L17.2264 24.3795L17.3795 24.4442L17.5386 24.5148C17.995 24.6978 18.4789 24.8032 18.9702 24.8265C19.8324 24.8667 20.6951 24.7593 21.5211 24.5089ZM31.5361 23.0679L29.4919 19.2919C29.4755 19.3341 29.4617 19.3773 29.4506 19.4213C29.301 19.9024 29.1036 20.3673 28.8615 20.8093C28.4078 21.6187 27.836 22.3561 27.1649 22.9973C26.8033 23.3498 26.4087 23.6669 25.9866 23.9443C24.7373 24.7877 23.3666 25.4362 21.9217 25.8676C20.9485 26.1499 19.9353 26.2691 18.923 26.2205L18.546 26.1734L21.1087 29.7612C21.1087 29.7612 23.6596 31.0905 28.3784 27.9261C28.3902 27.9379 31.8189 25.7205 31.542 23.0679H31.5361Z" fill="#8BC53F"/>
<path d="M14.4749 1.51747C14.8991 2.22327 14.0567 3.51135 12.5839 4.3936C11.1111 5.27585 9.57935 5.42289 9.15518 4.72297C8.73101 4.02305 9.57935 2.72909 11.0463 1.84684C12.5132 0.96459 14.0508 0.81755 14.4749 1.51747Z" fill="#8BC53F"/>
<path d="M13.7152 1.97625C14.0216 2.47619 13.4148 3.39961 12.3661 4.02895C11.3175 4.65829 10.2217 4.76416 9.9154 4.26422C9.60906 3.76427 10.2159 2.84085 11.2645 2.21151C12.3131 1.58217 13.4148 1.47043 13.7152 1.97625Z" fill="#B0E55C"/>
<path d="M10.2334 5.46407L10.7518 6.30515C11.3547 6.37849 11.9661 6.28489 12.5192 6.03459L11.9713 5.06412C11.4282 5.3224 10.835 5.45891 10.2334 5.46407Z" fill="white"/>
<path d="M17.5916 18.9213L14.7049 14.5453C13.4233 14.9379 12.0971 15.1672 10.7578 15.2276L11.6886 16.551L13.291 18.7978L13.3558 18.8331L13.5267 18.9095C13.9814 19.0636 14.4552 19.1546 14.9347 19.1801C15.8284 19.2321 16.7248 19.1448 17.5916 18.9213ZM21.3149 24.5618L18.4105 20.1623L18.0688 20.2564C17.0262 20.5434 15.9437 20.6586 14.864 20.5976H14.5577L17.2558 24.3854L17.409 24.4501L17.5681 24.5206C18.0244 24.7037 18.5083 24.8091 18.9996 24.8324C19.7809 24.8662 20.5625 24.7748 21.3149 24.5618ZM22.1338 25.797L21.904 25.8675C20.9309 26.1499 19.9176 26.2691 18.9054 26.2204L18.546 26.1734L21.1087 29.7612C21.1087 29.7612 22.3517 30.4141 24.7141 29.72L22.1338 25.797Z" fill="url(#paint13_radial_517_16133)"/>
<path d="M26.2045 13.2337C26.0461 13.8935 25.7983 14.5287 25.4681 15.1218C25.368 15.2982 25.2678 15.4629 25.1618 15.6276L27.6596 20.0212C27.7706 19.8107 27.8708 19.5947 27.9601 19.3742C28.1697 18.8577 28.2988 18.3122 28.343 17.7567C28.3551 17.5609 28.3551 17.3644 28.343 17.1686L26.2045 13.2337ZM31.5066 23.062L29.4624 19.286C29.446 19.3282 29.4322 19.3714 29.4211 19.4154C29.2715 19.8965 29.0741 20.3614 28.832 20.8034C28.7142 21.0211 28.5846 21.2269 28.455 21.4269L30.8114 25.544C31.3329 24.8271 31.5909 23.9526 31.542 23.0679L31.5066 23.062ZM21.792 9.76356L24.3665 14.2807C24.8216 13.5297 25.1556 12.712 25.3562 11.8574C25.3562 11.7927 23.1823 7.74026 23.1823 7.74026C22.8036 8.46247 22.3494 9.14265 21.8273 9.76944L21.792 9.76356Z" fill="#B0E55C"/>
<path d="M26.3105 23.7031C26.2008 23.7893 26.0867 23.8698 25.9688 23.9443C25.6683 24.1442 25.3796 24.3207 25.0851 24.4912L27.6772 28.3908C27.907 28.2555 28.1426 28.1026 28.39 27.9379C28.39 27.9379 28.5255 27.8497 28.7376 27.6909L26.3105 23.7031ZM22.8582 18.0273C22.7345 18.1155 22.6108 18.192 22.4929 18.2684C22.1159 18.5037 21.7506 18.7213 21.3913 18.9095L24.3015 23.309C24.5902 23.1443 24.8907 22.962 25.197 22.762C25.3276 22.6788 25.4534 22.5885 25.574 22.4915L22.8582 18.0273ZM22.1218 16.8157L19.3058 12.1927C18.7785 12.5883 18.2276 12.9517 17.6562 13.2808L20.6019 17.7273C20.9671 17.5391 21.3442 17.3156 21.7389 17.0745L22.1218 16.8157Z" fill="white"/>
<path d="M20.0895 26.2028C19.6972 26.2285 19.3036 26.2285 18.9113 26.2028L18.546 26.1734L21.1087 29.7612C21.6229 29.9743 22.1787 30.0688 22.7347 30.0376L20.0895 26.2028ZM15.2469 19.2036L12.3838 15.0865C11.8654 15.161 11.3234 15.2139 10.7578 15.2453L11.6886 16.5686L13.291 18.8154L13.3558 18.8507L13.5267 18.9272C13.9814 19.0812 14.4552 19.1723 14.9347 19.1977L15.2469 19.2036ZM19.1292 24.8147L16.1836 20.5858C15.7385 20.6208 15.2914 20.6208 14.8463 20.5858H14.54L17.2382 24.3736L17.3913 24.4383L17.5504 24.5089C18.0068 24.6919 18.4907 24.7973 18.982 24.8206L19.1292 24.8147Z" fill="url(#paint14_radial_517_16133)"/>
<path d="M14.7041 2.64676L15.2284 3.52901C15.2067 3.7829 15.1057 4.02359 14.9397 4.21716L14.3506 3.27021C14.5099 3.08871 14.6302 2.87652 14.7041 2.64676Z" fill="#8BC53F"/>
<defs>
<radialGradient id="paint0_radial_517_16133" cx="0" cy="0" r="1" gradientUnits="userSpaceOnUse" gradientTransform="translate(12.6897 19.086) scale(25.1202 25.0794)">
<stop offset="0.23" stop-color="#8BC53F"/>
<stop offset="0.71" stop-color="#007A45"/>
</radialGradient>
<radialGradient id="paint1_radial_517_16133" cx="0" cy="0" r="1" gradientUnits="userSpaceOnUse" gradientTransform="translate(19.8826 29.4671) scale(21.4912 21.4563)">
<stop offset="0.23" stop-color="#33C53F"/>
<stop offset="0.71" stop-color="#005E1C"/>
</radialGradient>
<radialGradient id="paint2_radial_517_16133" cx="0" cy="0" r="1" gradientUnits="userSpaceOnUse" gradientTransform="translate(37.7629 0.12939) scale(33.091 33.0373)">
<stop offset="0.23" stop-color="#8BC53F"/>
<stop offset="0.71" stop-color="#007A45"/>
</radialGradient>
<radialGradient id="paint3_radial_517_16133" cx="0" cy="0" r="1" gradientUnits="userSpaceOnUse" gradientTransform="translate(28.0717 33.1196) scale(26.9052 26.8615)">
<stop offset="0.23" stop-color="#8BC53F"/>
<stop offset="0.71" stop-color="#007A45"/>
</radialGradient>
<radialGradient id="paint4_radial_517_16133" cx="0" cy="0" r="1" gradientUnits="userSpaceOnUse" gradientTransform="translate(41.1027 4.24657) scale(16.1243 16.0981)">
<stop offset="0.23" stop-color="#8BC53F"/>
<stop offset="0.71" stop-color="#007A45"/>
</radialGradient>
<radialGradient id="paint5_radial_517_16133" cx="0" cy="0" r="1" gradientUnits="userSpaceOnUse" gradientTransform="translate(2.65062 26.3557) scale(62.4881 62.3867)">
<stop offset="0.23" stop-color="#33C53F"/>
<stop offset="0.71" stop-color="#005E1C"/>
</radialGradient>
<radialGradient id="paint6_radial_517_16133" cx="0" cy="0" r="1" gradientUnits="userSpaceOnUse" gradientTransform="translate(45.1793 13.9984) scale(17.4734 17.445)">
<stop offset="0.23" stop-color="#33C53F"/>
<stop offset="0.71" stop-color="#005E1C"/>
</radialGradient>
<radialGradient id="paint7_radial_517_16133" cx="0" cy="0" r="1" gradientUnits="userSpaceOnUse" gradientTransform="translate(45.1802 21.3151) scale(10.887 10.8693)">
<stop offset="0.23" stop-color="#33C53F"/>
<stop offset="0.71" stop-color="#005E1C"/>
</radialGradient>
<radialGradient id="paint8_radial_517_16133" cx="0" cy="0" r="1" gradientUnits="userSpaceOnUse" gradientTransform="translate(41.1147 4.54064) scale(15.8415 15.8158)">
<stop offset="0.23" stop-color="#8BC53F"/>
<stop offset="0.71" stop-color="#007A45"/>
</radialGradient>
<radialGradient id="paint9_radial_517_16133" cx="0" cy="0" r="1" gradientUnits="userSpaceOnUse" gradientTransform="translate(44.3865 5.57304) rotate(-24.7398) scale(7.40798 7.40018)">
<stop offset="0.23" stop-color="#8BC53F"/>
<stop offset="0.71" stop-color="#007A45"/>
</radialGradient>
<radialGradient id="paint10_radial_517_16133" cx="0" cy="0" r="1" gradientUnits="userSpaceOnUse" gradientTransform="translate(42.0825 3.13527) rotate(-24.7398) scale(10.0347 10.0241)">
<stop offset="0.23" stop-color="#8BC53F"/>
<stop offset="0.71" stop-color="#007A45"/>
</radialGradient>
<radialGradient id="paint11_radial_517_16133" cx="0" cy="0" r="1" gradientUnits="userSpaceOnUse" gradientTransform="translate(7.02282 14.0156) rotate(178.284) scale(7.39679 7.38482)">
<stop offset="0.23" stop-color="#8BC53F"/>
<stop offset="0.71" stop-color="#007A45"/>
</radialGradient>
<radialGradient id="paint12_radial_517_16133" cx="0" cy="0" r="1" gradientUnits="userSpaceOnUse" gradientTransform="translate(7.99405 10.8194) rotate(178.284) scale(10.0196 10.0033)">
<stop offset="0.23" stop-color="#8BC53F"/>
<stop offset="0.71" stop-color="#007A45"/>
</radialGradient>
<radialGradient id="paint13_radial_517_16133" cx="0" cy="0" r="1" gradientUnits="userSpaceOnUse" gradientTransform="translate(23.9266 13.7682) rotate(0.339448) scale(28.6961 28.6496)">
<stop offset="0.23" stop-color="#8BC53F"/>
<stop offset="0.71" stop-color="#007A45"/>
</radialGradient>
<radialGradient id="paint14_radial_517_16133" cx="0" cy="0" r="1" gradientUnits="userSpaceOnUse" gradientTransform="translate(27.8892 10.1803) rotate(0.339449) scale(18.3806 18.3508)">
<stop offset="0.23" stop-color="#8BC53F"/>
<stop offset="0.71" stop-color="#007A45"/>
</radialGradient>
</defs>
</svg>
