<svg width="1512" height="413" viewBox="0 0 1512 413" fill="none" xmlns="http://www.w3.org/2000/svg">
<mask id="mask0_437_3" style="mask-type:alpha" maskUnits="userSpaceOnUse" x="0" y="0" width="1512" height="413">
<rect width="1512" height="413" fill="#394C60"/>
</mask>
<g mask="url(#mask0_437_3)">
<path d="M-68.3071 12.8997L70.3964 10.0107C70.4468 10.011 70.4962 9.99679 70.5387 9.9696C70.5812 9.94242 70.615 9.90347 70.636 9.85745C70.6627 9.81087 70.6768 9.75803 70.6768 9.70424C70.6768 9.65045 70.6627 9.59762 70.636 9.55103L-9.04623 -91.1287C-9.09064 -91.1607 -9.14397 -91.178 -9.19865 -91.178C-9.25333 -91.178 -9.30664 -91.1607 -9.35106 -91.1287C-9.38584 -91.1155 -9.4174 -91.095 -9.44367 -91.0686C-9.46996 -91.0422 -9.4903 -91.0104 -9.5034 -90.9755L-68.5031 12.5495C-68.5243 12.5939 -68.5354 12.6426 -68.5354 12.6918C-68.5354 12.7411 -68.5243 12.7897 -68.5031 12.8341C-68.4473 12.8782 -68.3781 12.9014 -68.3071 12.8997ZM69.8304 9.46349L-67.8282 12.3526L-9.26395 -90.5158L69.8304 9.46349Z" fill="white" fill-opacity="0.3"/>
<path d="M70.3981 10.0106H70.507C70.5621 9.98312 70.6067 9.93834 70.6342 9.88306C70.6617 9.82777 70.6705 9.76499 70.6594 9.70421L62.1687 -33.8288C62.187 -33.8782 62.187 -33.9326 62.1687 -33.982L-9.02276 -91.1068C-9.06641 -91.1298 -9.11498 -91.1418 -9.16428 -91.1418C-9.21357 -91.1418 -9.26213 -91.1298 -9.30579 -91.1068C-9.35737 -91.0852 -9.40144 -91.0487 -9.43243 -91.002C-9.46342 -90.9553 -9.48 -90.9003 -9.48 -90.8442C-9.49875 -90.7799 -9.49875 -90.7115 -9.48 -90.6472L70.2022 10.0325C70.2678 10.0512 70.3382 10.0434 70.3981 10.0106ZM61.6897 -33.6318L69.941 8.67552L-7.58592 -89.1808L61.6897 -33.6318Z" fill="white" fill-opacity="0.3"/>
<path d="M87.857 55.9075C87.9206 55.9292 87.9894 55.9292 88.053 55.9075C88.0797 55.8609 88.0938 55.8081 88.0938 55.7543C88.0938 55.7005 88.0797 55.6477 88.053 55.6011L70.6361 9.74805C70.6361 9.74805 70.6361 9.74804 70.6361 9.63861C70.5918 9.59707 70.5334 9.57397 70.4728 9.57397C70.4122 9.57397 70.3539 9.59707 70.3095 9.63861L21.4769 30.9127C21.431 30.9393 21.3928 30.9776 21.366 31.0236C21.3393 31.0697 21.3251 31.122 21.3246 31.1753C21.359 31.1999 21.3993 31.2148 21.4414 31.2187C21.4834 31.2225 21.5257 31.2151 21.564 31.1972L87.7699 55.9075H87.857ZM70.2224 10.0982L87.3998 55.2728L22.3042 31.1972L70.2224 10.0982Z" fill="white" fill-opacity="0.3"/>
<path d="M-15.7294 60.0658C-15.68 60.0825 -15.6264 60.0825 -15.577 60.0658L21.7386 31.197C21.7658 31.1546 21.7803 31.1052 21.7803 31.0547C21.7803 31.0043 21.7658 30.9549 21.7386 30.9125C21.7303 30.8633 21.707 30.8179 21.6719 30.7826C21.6368 30.7473 21.5916 30.7239 21.5427 30.7155L-68.3066 12.3305C-68.3438 12.317 -68.3836 12.3122 -68.4229 12.3164C-68.4622 12.3206 -68.5001 12.3338 -68.5337 12.3549C-68.5672 12.3759 -68.5955 12.4044 -68.6165 12.4381C-68.6375 12.4718 -68.6507 12.5098 -68.6549 12.5494C-68.6802 12.5884 -68.6936 12.6341 -68.6936 12.6807C-68.6936 12.7273 -68.6802 12.7729 -68.6549 12.812L-15.9253 60.0001C-15.8681 60.0414 -15.7998 60.0643 -15.7294 60.0658ZM20.9331 31.197L-15.7294 59.4311L-67.3704 13.0965L20.9331 31.197Z" fill="white" fill-opacity="0.3"/>
<path d="M21.5613 31.197L70.3939 9.92299C70.4467 9.89298 70.4895 9.84779 70.5166 9.79319C70.5438 9.7386 70.5541 9.6771 70.5463 9.61657C70.5322 9.55656 70.4991 9.50277 70.452 9.46329C70.4049 9.42382 70.3463 9.4008 70.285 9.39771L-68.3968 12.2868C-68.4625 12.2865 -68.5258 12.3112 -68.5742 12.3558C-68.6226 12.4004 -68.6526 12.4617 -68.6581 12.5275C-68.6711 12.5942 -68.6581 12.6633 -68.6215 12.7204C-68.585 12.7776 -68.5279 12.8183 -68.4621 12.8339L21.5613 31.197ZM69.0005 9.94488L21.5613 30.7374L-65.8279 12.8558L69.0005 9.94488Z" fill="white" fill-opacity="0.3"/>
<path d="M15.4672 136.692C15.5013 136.708 15.5384 136.716 15.576 136.716C15.6136 136.716 15.6507 136.708 15.6848 136.692C15.7058 136.651 15.7168 136.606 15.7168 136.561C15.7168 136.515 15.7058 136.47 15.6848 136.429L-15.4478 59.65C-15.4654 59.5999 -15.4977 59.5563 -15.5405 59.5251C-15.5832 59.4938 -15.6344 59.4763 -15.6872 59.4749C-15.7382 59.4714 -15.7889 59.4844 -15.832 59.512C-15.8751 59.5396 -15.9083 59.5803 -15.9268 59.6281L-34.6281 133.453C-34.6443 133.491 -34.6526 133.532 -34.6526 133.573C-34.6526 133.614 -34.6443 133.655 -34.6281 133.693L-34.4322 133.803L15.4454 136.648L15.4672 136.692ZM-15.6872 60.6568L15.0317 136.123L-34.0838 133.299L-15.6872 60.6568Z" fill="white" fill-opacity="0.3"/>
<path d="M-26.5929 230.63L97.7636 190.271C97.8134 190.253 97.8568 190.221 97.8879 190.178C97.919 190.135 97.9363 190.083 97.9377 190.03C97.9475 189.973 97.9378 189.913 97.9102 189.862C97.8826 189.81 97.8387 189.769 97.7853 189.746L-34.4087 133.299C-34.4557 133.274 -34.508 133.261 -34.5611 133.261C-34.6142 133.261 -34.6665 133.274 -34.7135 133.299C-34.7292 133.334 -34.7372 133.371 -34.7372 133.409C-34.7372 133.447 -34.7292 133.484 -34.7135 133.518L-26.8541 230.368C-26.855 230.41 -26.8456 230.453 -26.8266 230.491C-26.8077 230.529 -26.7798 230.562 -26.7453 230.587L-26.5929 230.63ZM97.0016 189.965L-26.3316 229.996L-34.1039 134.065L97.0016 189.965Z" fill="white" fill-opacity="0.3"/>
<path d="M97.7623 190.293C97.8116 190.289 97.8592 190.273 97.9009 190.246C97.9427 190.219 97.9772 190.183 98.0018 190.14C98.0446 190.092 98.0684 190.029 98.0684 189.965C98.0684 189.9 98.0446 189.838 98.0018 189.789L15.62 136.254H15.4894L-34.3446 133.409C-34.3849 133.388 -34.4297 133.377 -34.4752 133.377C-34.5207 133.377 -34.5655 133.388 -34.6059 133.409C-34.6275 133.457 -34.6387 133.509 -34.6387 133.562C-34.6387 133.615 -34.6275 133.667 -34.6059 133.715C-34.5615 133.789 -34.4917 133.843 -34.4099 133.868L97.7623 190.271V190.293ZM15.3805 136.692L94.9974 188.52L-32.8642 133.934L15.3805 136.692Z" fill="white" fill-opacity="0.3"/>
<path d="M23.6322 278.672H23.741L102.639 243.04C102.695 243.017 102.741 242.978 102.772 242.927C102.804 242.875 102.818 242.816 102.814 242.756L98.0458 190.008C98.0466 189.963 98.0348 189.919 98.0117 189.88C97.9886 189.841 97.9551 189.81 97.9151 189.79C97.8787 189.768 97.8375 189.757 97.7954 189.757C97.7534 189.757 97.712 189.768 97.6756 189.79L23.5451 278.169C23.5063 278.219 23.4852 278.28 23.4852 278.344C23.4852 278.407 23.5063 278.469 23.5451 278.519C23.5586 278.578 23.5889 278.631 23.6322 278.672ZM102.248 242.603L24.6119 277.622L97.5668 190.687L102.248 242.603Z" fill="white" fill-opacity="0.3"/>
<path d="M23.6309 278.672C23.6813 278.673 23.7307 278.659 23.7732 278.631C23.8157 278.604 23.8494 278.565 23.8704 278.519C23.9075 278.473 23.9277 278.415 23.9277 278.355C23.9277 278.295 23.9075 278.237 23.8704 278.191L-26.3337 230.149C-26.3903 230.107 -26.459 230.083 -26.5297 230.083C-26.6003 230.083 -26.6691 230.107 -26.7256 230.149C-26.7422 230.199 -26.7422 230.253 -26.7256 230.302L-32.6038 264.38C-32.6168 264.453 -32.6013 264.527 -32.5608 264.588C-32.5202 264.65 -32.4576 264.693 -32.3861 264.709L23.6963 278.65L23.6309 278.672ZM-26.4426 230.893L22.6512 277.884L-32.1902 264.227L-26.4426 230.893Z" fill="white" fill-opacity="0.3"/>
<path d="M23.6296 278.672C23.6941 278.687 23.7611 278.687 23.8256 278.672L97.9779 190.183C98.015 190.137 98.0352 190.079 98.0352 190.019C98.0352 189.96 98.015 189.902 97.9779 189.855C97.935 189.82 97.8811 189.8 97.8255 189.8C97.7699 189.8 97.716 189.82 97.6731 189.855L-26.6616 230.193C-26.7117 230.181 -26.7639 230.181 -26.814 230.193C-26.8496 230.244 -26.8687 230.305 -26.8687 230.368C-26.8687 230.43 -26.8496 230.491 -26.814 230.543L23.4554 278.519C23.4708 278.556 23.4945 278.589 23.5247 278.616C23.5549 278.643 23.5909 278.662 23.6296 278.672ZM96.9546 190.555L23.6078 277.994L-26.0738 230.477L96.9546 190.555Z" fill="white" fill-opacity="0.3"/>
<path d="M150.011 358.494H150.142L194.642 334.768C194.705 334.718 194.75 334.649 194.773 334.571C194.792 334.534 194.802 334.493 194.802 334.451C194.802 334.409 194.792 334.368 194.773 334.33L102.812 242.581C102.789 242.553 102.761 242.531 102.729 242.516C102.697 242.501 102.662 242.493 102.627 242.493C102.591 242.493 102.556 242.501 102.524 242.516C102.492 242.531 102.464 242.553 102.442 242.581C102.414 242.623 102.4 242.672 102.4 242.723C102.4 242.773 102.414 242.823 102.442 242.865L149.99 358.319C150.025 358.391 150.088 358.446 150.164 358.472L150.011 358.494ZM193.967 334.418L150.142 357.793L103.204 243.872L193.967 334.418Z" fill="white" fill-opacity="0.3"/>
<path d="M150.015 358.494C150.078 358.519 150.148 358.519 150.211 358.494C150.254 358.446 150.277 358.383 150.277 358.319C150.277 358.254 150.254 358.192 150.211 358.144L100.355 301.238C100.313 301.223 100.267 301.223 100.224 301.238L23.7426 278.147C23.6982 278.115 23.6449 278.098 23.5902 278.098C23.5355 278.098 23.4822 278.115 23.4378 278.147C23.4168 278.188 23.4059 278.233 23.4059 278.278C23.4059 278.324 23.4168 278.369 23.4378 278.41C23.4628 278.492 23.517 278.562 23.5902 278.607L150.015 358.45V358.494ZM99.9414 301.588L148.491 356.94L25.3319 279.198L99.9414 301.588Z" fill="white" fill-opacity="0.3"/>
<path d="M150.013 358.494C150.069 358.512 150.13 358.512 150.187 358.494C150.218 358.445 150.234 358.388 150.234 358.33C150.234 358.271 150.218 358.215 150.187 358.165L102.639 242.734C102.626 242.699 102.605 242.667 102.579 242.641C102.553 242.614 102.521 242.594 102.487 242.581H102.269L23.3921 278.191H23.2833C23.2405 278.239 23.2167 278.301 23.2167 278.366C23.2167 278.43 23.2405 278.493 23.2833 278.541C23.2757 278.577 23.2757 278.614 23.2833 278.65L150.013 358.45V358.494ZM102.312 243.128L149.512 357.531L24.2195 278.519L102.312 243.128Z" fill="white" fill-opacity="0.3"/>
<path d="M-52.8059 326.845L100.245 301.675C100.306 301.665 100.362 301.633 100.402 301.584C100.442 301.536 100.463 301.475 100.463 301.413C100.466 301.35 100.448 301.288 100.413 301.237C100.377 301.186 100.326 301.147 100.267 301.128L-32.3846 264.183C-32.429 264.151 -32.4823 264.134 -32.537 264.134C-32.5917 264.134 -32.645 264.151 -32.6894 264.183C-32.6986 264.219 -32.6986 264.257 -32.6894 264.293L-53.0236 326.429C-53.0554 326.514 -53.0554 326.607 -53.0236 326.692C-53.0026 326.734 -52.9717 326.769 -52.9337 326.796C-52.8958 326.823 -52.8519 326.84 -52.8059 326.845ZM98.9604 301.325L-52.4575 326.232L-32.3193 264.774L98.9604 301.325Z" fill="white" fill-opacity="0.3"/>
<path d="M100.242 301.675C100.3 301.671 100.355 301.65 100.401 301.615C100.447 301.58 100.483 301.533 100.503 301.478C100.523 301.406 100.514 301.328 100.477 301.262C100.441 301.197 100.379 301.148 100.307 301.128L23.7384 278.125L-32.3656 264.161C-32.4045 264.136 -32.4499 264.122 -32.4963 264.122C-32.5426 264.122 -32.5881 264.136 -32.627 264.161C-32.6479 264.202 -32.6588 264.247 -32.6588 264.292C-32.6588 264.338 -32.6479 264.383 -32.627 264.424C-32.5847 264.509 -32.5159 264.578 -32.431 264.621L100.373 301.566L100.242 301.675ZM-13.599 269.414L23.5643 278.65L74.1385 293.84L-13.599 269.414Z" fill="white" fill-opacity="0.3"/>
<path d="M622.882 414.064C622.941 414.063 622.997 414.043 623.044 414.008C623.091 413.972 623.126 413.923 623.143 413.867C623.179 413.824 623.198 413.77 623.198 413.714C623.198 413.658 623.179 413.604 623.143 413.561L508.562 339.145C508.514 339.102 508.452 339.079 508.388 339.079C508.324 339.079 508.262 339.102 508.214 339.145C508.192 339.209 508.192 339.279 508.214 339.342L506.189 403.143C506.189 403.215 506.216 403.284 506.264 403.337C506.313 403.389 506.379 403.422 506.45 403.427L623.035 414.021L622.882 414.064ZM508.562 339.802L621.772 413.364L506.538 402.902L508.562 339.802Z" fill="white" fill-opacity="0.3"/>
<path d="M178.883 385.13L309.183 368.562C309.245 368.549 309.302 368.516 309.345 368.469C309.388 368.422 309.415 368.363 309.423 368.299C309.426 368.237 309.408 368.175 309.372 368.124C309.337 368.072 309.286 368.034 309.227 368.015L194.58 334.309C194.537 334.273 194.483 334.254 194.428 334.254C194.372 334.254 194.318 334.273 194.275 334.309C194.269 334.352 194.269 334.397 194.275 334.44L178.665 384.78C178.644 384.821 178.633 384.866 178.633 384.911C178.633 384.957 178.644 385.002 178.665 385.043C178.691 385.075 178.725 385.1 178.763 385.115C178.801 385.13 178.842 385.136 178.883 385.13ZM307.855 368.255L179.275 384.627L194.689 334.966L307.855 368.255Z" fill="white" fill-opacity="0.3"/>
<path d="M89.9004 409.161L178.857 385.086C178.905 385.075 178.949 385.051 178.983 385.016C179.018 384.981 179.042 384.937 179.053 384.889C179.074 384.848 179.085 384.803 179.085 384.758C179.085 384.712 179.074 384.667 179.053 384.626L150.272 358.012C150.219 357.961 150.149 357.933 150.076 357.933C150.003 357.933 149.932 357.961 149.88 358.012L89.7044 408.68C89.6739 408.733 89.6578 408.794 89.6578 408.855C89.6578 408.917 89.6739 408.977 89.7044 409.03C89.7268 409.064 89.7556 409.093 89.7893 409.116C89.8229 409.138 89.8607 409.154 89.9004 409.161ZM178.313 384.714L91.0107 408.308L150.01 358.581L178.313 384.714Z" fill="white" fill-opacity="0.3"/>
<path d="M178.881 385.13C178.927 385.123 178.97 385.103 179.005 385.072C179.039 385.041 179.064 385 179.077 384.955L194.708 334.615C194.733 334.572 194.746 334.523 194.746 334.473C194.746 334.423 194.733 334.374 194.708 334.331C194.664 334.299 194.61 334.281 194.556 334.281C194.501 334.281 194.448 334.299 194.403 334.331L150.012 357.968C149.954 357.995 149.908 358.041 149.881 358.1C149.85 358.144 149.832 358.198 149.832 358.253C149.832 358.308 149.85 358.362 149.881 358.406L178.685 385.043C178.709 385.07 178.739 385.092 178.773 385.107C178.807 385.123 178.844 385.13 178.881 385.13ZM194.12 335.075L178.881 384.364L150.687 358.275L194.12 335.075Z" fill="white" fill-opacity="0.3"/>
<path d="M89.9019 409.162H90.0107C90.059 409.142 90.1009 409.109 90.1316 409.066C90.1624 409.024 90.1808 408.973 90.1849 408.921L100.504 301.456C100.517 301.399 100.517 301.339 100.504 301.281C100.477 301.226 100.432 301.181 100.378 301.153C100.323 301.126 100.26 301.117 100.2 301.128C100.15 301.114 100.097 301.114 100.047 301.128L27.876 358.428C27.8401 358.452 27.8106 358.485 27.7902 358.523C27.7699 358.561 27.7592 358.604 27.7592 358.647C27.7592 358.69 27.7699 358.733 27.7902 358.771C27.8106 358.809 27.8401 358.842 27.876 358.866L89.7712 409.031C89.7821 409.061 89.7995 409.088 89.822 409.111C89.8446 409.134 89.8719 409.151 89.9019 409.162ZM99.8948 301.916L89.6842 408.286L28.4639 358.647L99.8948 301.916Z" fill="white" fill-opacity="0.3"/>
<path d="M89.9027 409.162C89.9587 409.184 90.0208 409.184 90.0768 409.162L150.274 358.472C150.294 358.408 150.294 358.339 150.274 358.275C150.295 358.211 150.295 358.142 150.274 358.078L100.418 301.172C100.381 301.135 100.335 301.109 100.285 301.097C100.234 301.084 100.182 301.086 100.132 301.102C100.083 301.118 100.039 301.147 100.005 301.186C99.9706 301.226 99.9479 301.274 99.9391 301.325L89.6196 408.833C89.6148 408.888 89.6269 408.942 89.6542 408.989C89.6815 409.036 89.7226 409.074 89.772 409.096L89.9027 409.162ZM149.708 358.187L90.251 408.264L100.44 302.047L149.708 358.187Z" fill="white" fill-opacity="0.3"/>
<path d="M-59.533 398.766H-59.4024L28.0956 358.975C28.1414 358.954 28.1801 358.92 28.2072 358.877C28.2342 358.835 28.2484 358.785 28.248 358.734C28.248 358.678 28.2315 358.623 28.2005 358.577C28.1695 358.53 28.1254 358.493 28.0738 358.472L-52.7622 326.32C-52.8024 326.307 -52.845 326.303 -52.8869 326.308C-52.9289 326.313 -52.969 326.328 -53.0045 326.351C-53.04 326.374 -53.0699 326.405 -53.092 326.441C-53.1141 326.478 -53.1279 326.518 -53.1323 326.561L-59.8378 398.437C-59.8376 398.536 -59.7984 398.63 -59.7289 398.7L-59.533 398.766ZM27.3119 358.756L-59.2065 398.153L-52.5662 327.064L27.3119 358.756Z" fill="white" fill-opacity="0.3"/>
<path d="M28.0932 358.997C28.1423 359.016 28.1964 359.016 28.2456 358.997L100.46 301.653C100.497 301.607 100.518 301.549 100.518 301.489C100.518 301.43 100.497 301.372 100.46 301.325C100.437 301.272 100.396 301.227 100.345 301.2C100.294 301.172 100.235 301.162 100.177 301.172L-52.8517 326.342H-52.9823C-53.0223 326.362 -53.0558 326.394 -53.0789 326.432C-53.102 326.471 -53.1138 326.516 -53.113 326.561C-53.1105 326.6 -53.0995 326.637 -53.0807 326.672C-53.0618 326.706 -53.0357 326.735 -53.0041 326.758H-52.8953L27.8972 358.91L28.0932 358.997ZM99.3064 301.829L28.0279 358.428L-51.785 326.67L99.3064 301.829Z" fill="white" fill-opacity="0.3"/>
<path d="M491.816 452.192L620.941 443.437C621.004 443.429 621.063 443.402 621.11 443.359C621.157 443.315 621.189 443.259 621.202 443.196C621.21 443.13 621.195 443.063 621.159 443.007C621.123 442.951 621.069 442.91 621.006 442.89L506.272 403.034C506.234 403.016 506.193 403.008 506.151 403.009C506.109 403.01 506.068 403.02 506.03 403.039C505.993 403.058 505.96 403.085 505.934 403.118C505.908 403.151 505.89 403.19 505.881 403.231L491.533 451.929C491.502 452.014 491.502 452.107 491.533 452.192C491.576 452.217 491.625 452.23 491.675 452.23C491.725 452.23 491.773 452.217 491.816 452.192ZM619.591 442.89L492.186 451.645L506.359 403.493L619.591 442.89Z" fill="white" fill-opacity="0.3"/>
<path d="M621.051 443.349H621.204C621.242 443.327 621.274 443.295 621.297 443.257C621.32 443.218 621.333 443.175 621.334 443.13L623.163 413.846C623.166 413.811 623.162 413.776 623.152 413.743C623.141 413.71 623.125 413.68 623.102 413.653C623.08 413.627 623.053 413.605 623.022 413.589C622.991 413.573 622.958 413.564 622.924 413.561L506.318 402.968C506.187 402.968 506.056 402.968 506.013 403.187C506.003 403.25 506.015 403.315 506.047 403.37C506.079 403.426 506.128 403.469 506.187 403.493L620.964 443.327L621.051 443.349ZM622.597 414.021L620.812 442.692L508.473 403.668L622.597 414.021Z" fill="white" fill-opacity="0.3"/>
<path d="M395.524 461.581L491.926 452.192C491.99 452.215 492.059 452.215 492.122 452.192C492.144 452.12 492.144 452.044 492.122 451.973L481.585 362.368C481.576 362.326 481.558 362.286 481.532 362.252C481.505 362.218 481.471 362.19 481.433 362.171C481.396 362.15 481.355 362.139 481.313 362.139C481.271 362.139 481.23 362.15 481.193 362.171L395.328 461.165C395.293 461.208 395.273 461.263 395.273 461.319C395.273 461.374 395.293 461.429 395.328 461.472C395.349 461.505 395.378 461.532 395.413 461.551C395.447 461.57 395.485 461.58 395.524 461.581ZM491.622 451.688L396.177 460.968L481.193 362.959L491.622 451.688Z" fill="white" fill-opacity="0.3"/>
<path d="M491.82 452.191C491.88 452.198 491.941 452.181 491.989 452.145C492.038 452.108 492.071 452.054 492.081 451.994L506.559 403.274C506.575 403.24 506.583 403.202 506.583 403.165C506.583 403.127 506.575 403.09 506.559 403.055L481.697 362.214C481.67 362.156 481.624 362.109 481.566 362.083C481.53 362.062 481.488 362.051 481.446 362.051C481.404 362.051 481.363 362.062 481.327 362.083C481.292 362.096 481.26 362.117 481.234 362.143C481.208 362.17 481.187 362.201 481.174 362.236V362.411L491.711 451.951C491.711 451.982 491.718 452.014 491.73 452.043C491.742 452.072 491.759 452.098 491.782 452.121C491.804 452.143 491.83 452.161 491.859 452.173C491.888 452.185 491.919 452.191 491.951 452.191H491.82ZM505.993 403.274L492.038 450.616L481.827 363.571L505.993 403.274Z" fill="white" fill-opacity="0.3"/>
<path d="M281.553 469.438L395.046 437.352C395.095 437.337 395.139 437.309 395.174 437.27C395.208 437.231 395.232 437.184 395.241 437.133C395.262 437.093 395.273 437.048 395.273 437.002C395.273 436.956 395.262 436.911 395.241 436.87L309.355 368.058H309.202C309.144 368.06 309.087 368.08 309.04 368.115C308.994 368.15 308.959 368.199 308.941 368.255L281.313 469.154C281.288 469.193 281.275 469.238 281.275 469.285C281.275 469.332 281.288 469.377 281.313 469.416C281.349 469.439 281.389 469.453 281.43 469.457C281.472 469.46 281.514 469.454 281.553 469.438ZM394.479 436.936L281.945 468.76L309.333 368.737L394.479 436.936Z" fill="white" fill-opacity="0.3"/>
<path d="M281.554 469.438C281.611 469.437 281.667 469.418 281.714 469.384C281.76 469.35 281.795 469.302 281.814 469.247C281.833 469.193 281.835 469.133 281.82 469.077C281.804 469.022 281.772 468.972 281.728 468.935L179.055 384.648C179.019 384.627 178.978 384.616 178.936 384.616C178.894 384.616 178.852 384.627 178.816 384.648C178.777 384.668 178.743 384.695 178.717 384.729C178.691 384.763 178.672 384.803 178.663 384.845L171.283 421.221C171.273 421.252 171.269 421.284 171.271 421.315C171.273 421.347 171.281 421.378 171.296 421.407C171.31 421.435 171.329 421.461 171.353 421.481C171.377 421.502 171.405 421.518 171.435 421.528L281.488 469.46L281.554 469.438ZM179.055 385.349L279.877 468.125L171.784 421.068L179.055 385.349Z" fill="white" fill-opacity="0.3"/>
<path d="M281.553 469.438C281.598 469.426 281.638 469.401 281.669 469.366C281.7 469.331 281.72 469.288 281.727 469.241L309.442 368.255C309.468 368.221 309.482 368.178 309.482 368.135C309.482 368.091 309.468 368.049 309.442 368.015C309.404 367.997 309.363 367.988 309.322 367.988C309.28 367.988 309.24 367.997 309.202 368.015L178.902 384.605C178.844 384.609 178.788 384.633 178.745 384.672C178.701 384.712 178.672 384.765 178.663 384.824C178.651 384.873 178.655 384.926 178.674 384.973C178.694 385.02 178.728 385.06 178.772 385.086L281.379 469.373C281.428 469.414 281.489 469.437 281.553 469.438ZM308.81 368.584L281.4 468.672L179.555 385.043L308.81 368.584Z" fill="white" fill-opacity="0.3"/>
<path d="M126.064 424.22L171.588 421.506C171.647 421.489 171.699 421.453 171.736 421.404C171.773 421.354 171.793 421.294 171.793 421.232C171.793 421.17 171.773 421.11 171.736 421.061C171.699 421.012 171.647 420.976 171.588 420.959L89.9896 408.614C89.9195 408.588 89.842 408.588 89.7719 408.614C89.7528 408.652 89.7429 408.693 89.7429 408.735C89.7429 408.777 89.7528 408.818 89.7719 408.855C89.7815 408.903 89.8024 408.948 89.8327 408.986C89.863 409.024 89.9018 409.054 89.9461 409.074L125.999 424.132L126.064 424.22ZM168.975 421.112L126.064 423.673L92.1014 409.49L168.975 421.112Z" fill="white" fill-opacity="0.3"/>
<path d="M171.502 421.506C171.564 421.507 171.625 421.485 171.673 421.445C171.721 421.405 171.753 421.349 171.763 421.287L179.144 384.911C179.167 384.871 179.179 384.826 179.179 384.78C179.179 384.734 179.167 384.688 179.144 384.648C179.103 384.627 179.059 384.616 179.013 384.616C178.968 384.616 178.923 384.627 178.882 384.648L89.9475 408.724C89.9234 408.714 89.8975 408.708 89.8713 408.708C89.8452 408.708 89.8193 408.714 89.7951 408.724C89.758 408.771 89.7379 408.828 89.7379 408.888C89.7379 408.948 89.758 409.006 89.7951 409.052C89.8155 409.092 89.8468 409.126 89.8853 409.149C89.9238 409.172 89.968 409.184 90.0129 409.184L171.567 421.528L171.502 421.506ZM178.534 385.217L171.284 420.915L91.232 408.811L178.534 385.217Z" fill="white" fill-opacity="0.3"/>
<path d="M126.066 424.22C126.122 424.223 126.178 424.208 126.225 424.176C126.272 424.145 126.308 424.099 126.327 424.045C126.35 423.99 126.352 423.927 126.332 423.871C126.312 423.814 126.271 423.767 126.218 423.739L28.2482 358.494C28.2103 358.478 28.1696 358.469 28.1284 358.469C28.0873 358.469 28.0465 358.478 28.0087 358.494C27.9381 358.518 27.8771 358.564 27.8345 358.625C27.8239 358.683 27.8239 358.742 27.8345 358.8L37.7839 421.659C37.7971 421.722 37.8293 421.779 37.8761 421.822C37.923 421.865 37.9821 421.892 38.0452 421.9L126.066 424.22ZM28.4659 359.304L125.13 423.651L38.2846 421.331L28.4659 359.304Z" fill="white" fill-opacity="0.3"/>
<path d="M126.065 424.22C126.114 424.225 126.162 424.216 126.205 424.192C126.248 424.169 126.283 424.133 126.305 424.089C126.347 424.041 126.371 423.978 126.371 423.914C126.371 423.849 126.347 423.787 126.305 423.739L28.3346 358.494C28.2968 358.478 28.2561 358.469 28.2149 358.469C28.1737 358.469 28.133 358.478 28.0952 358.494C28.0247 358.518 27.9636 358.564 27.921 358.625C27.8855 358.677 27.8664 358.738 27.8664 358.8C27.8664 358.863 27.8855 358.924 27.921 358.975L89.8162 409.14L125.869 424.198L126.065 424.22ZM32.7759 362.149L123.561 422.601L90.1428 408.659L32.7759 362.149Z" fill="white" fill-opacity="0.3"/>
<path d="M9.22028 436.717H9.35097L38.0888 421.856C38.1427 421.84 38.19 421.807 38.2236 421.761C38.2573 421.716 38.2754 421.661 38.2754 421.605C38.2754 421.548 38.2573 421.493 38.2236 421.448C38.19 421.402 38.1427 421.369 38.0888 421.353L-59.424 398.24C-59.4604 398.219 -59.5016 398.208 -59.5437 398.208C-59.5857 398.208 -59.627 398.219 -59.6634 398.24C-59.7034 398.261 -59.7368 398.292 -59.7599 398.331C-59.783 398.37 -59.7949 398.414 -59.794 398.459C-59.7972 398.516 -59.782 398.572 -59.7506 398.62C-59.7192 398.667 -59.6733 398.703 -59.6199 398.722L9.08965 436.674L9.22028 436.717ZM37.1961 421.681L9.22028 436.126L-57.6387 399.225L37.1961 421.681Z" fill="white" fill-opacity="0.3"/>
<path d="M37.9785 421.878C38.0348 421.898 38.0963 421.898 38.1526 421.878C38.1717 421.841 38.1816 421.799 38.1816 421.758C38.1816 421.716 38.1717 421.674 38.1526 421.637L28.2032 358.778C28.1944 358.736 28.1761 358.696 28.1497 358.662C28.1232 358.628 28.0895 358.6 28.0509 358.581C28.0145 358.56 27.9731 358.549 27.9311 358.549C27.889 358.549 27.8477 358.56 27.8113 358.581L-59.6431 398.24C-59.686 398.265 -59.7224 398.3 -59.7489 398.342C-59.7755 398.384 -59.7914 398.431 -59.7955 398.481C-59.7936 398.545 -59.7715 398.607 -59.7324 398.659C-59.6934 398.71 -59.6392 398.747 -59.5778 398.765L37.9132 421.856L37.9785 421.878ZM27.8113 359.128L37.6301 421.243L-58.6852 398.415L27.8113 359.128Z" fill="white" fill-opacity="0.3"/>
<path d="M-129.049 478.544L9.24059 436.718C9.29165 436.699 9.33676 436.666 9.37121 436.624C9.40567 436.582 9.42821 436.531 9.43652 436.477C9.43404 436.421 9.41906 436.366 9.39267 436.317C9.36629 436.268 9.32916 436.225 9.28411 436.192L-121.234 370.182C-121.274 370.16 -121.319 370.149 -121.364 370.149C-121.41 370.149 -121.454 370.16 -121.495 370.182C-121.535 370.202 -121.568 370.233 -121.591 370.272C-121.614 370.311 -121.626 370.355 -121.625 370.4L-129.398 478.259C-129.399 478.302 -129.389 478.344 -129.37 478.382C-129.351 478.42 -129.323 478.453 -129.289 478.478C-129.259 478.51 -129.22 478.533 -129.178 478.544C-129.136 478.556 -129.091 478.556 -129.049 478.544ZM8.50038 436.389L-128.766 477.974L-121.059 370.926L8.50038 436.389Z" fill="white" fill-opacity="0.3"/>
<path d="M9.21942 436.718C9.27037 436.721 9.32111 436.708 9.36419 436.681C9.40727 436.653 9.44048 436.612 9.45893 436.564C9.48984 436.503 9.49575 436.432 9.47541 436.367C9.45507 436.302 9.41012 436.247 9.35011 436.214L-59.403 398.24L-121.189 370.181C-121.221 370.167 -121.255 370.159 -121.289 370.158C-121.324 370.157 -121.358 370.162 -121.391 370.175C-121.423 370.187 -121.453 370.205 -121.478 370.229C-121.503 370.253 -121.523 370.281 -121.538 370.313C-121.552 370.344 -121.56 370.379 -121.561 370.413C-121.562 370.448 -121.557 370.483 -121.545 370.515C-121.532 370.548 -121.514 370.577 -121.49 370.603C-121.467 370.628 -121.439 370.649 -121.407 370.663L9.0888 436.696L9.21942 436.718ZM-109.498 376.069L-59.6425 398.744L-4.14799 429.385L-109.498 376.069Z" fill="white" fill-opacity="0.3"/>
<path d="M70.3752 15.1757C67.3933 15.1757 64.976 12.7455 64.976 9.74776C64.976 6.74999 67.3933 4.31982 70.3752 4.31982C73.3571 4.31982 75.7744 6.74999 75.7744 9.74776C75.7744 12.7455 73.3571 15.1757 70.3752 15.1757Z" fill="white" fill-opacity="0.3"/>
<path d="M70.3749 12.8121C68.6916 12.8121 67.327 11.4403 67.327 9.74799C67.327 8.0557 68.6916 6.68384 70.3749 6.68384C72.0583 6.68384 73.4229 8.0557 73.4229 9.74799C73.4229 11.4403 72.0583 12.8121 70.3749 12.8121Z" fill="white" fill-opacity="0.5"/>
<path d="M65.801 9.72618C65.7967 10.6405 66.0624 11.5355 66.5645 12.2978C67.0666 13.0601 67.7825 13.6555 68.6215 14.0084C69.4605 14.3612 70.3849 14.4558 71.2774 14.2801C72.1699 14.1044 72.9905 13.6663 73.6351 13.0213C74.2797 12.3764 74.7194 11.5535 74.8984 10.6571C75.0774 9.76068 74.9877 8.83101 74.6407 7.98588C74.2937 7.14075 73.7049 6.4182 72.949 5.90978C72.1931 5.40135 71.3041 5.12995 70.3946 5.12993C69.7924 5.12705 69.1956 5.24381 68.6384 5.4735C68.0812 5.70319 67.5746 6.04129 67.1477 6.46838C66.7209 6.89547 66.3822 7.40313 66.151 7.9622C65.9199 8.52128 65.801 9.12075 65.801 9.72618Z" fill="white" fill-opacity="0.3"/>
<path d="M87.8585 58.6215C86.2233 58.6215 84.8976 57.2888 84.8976 55.6448C84.8976 54.0009 86.2233 52.6682 87.8585 52.6682C89.4937 52.6682 90.8193 54.0009 90.8193 55.6448C90.8193 57.2888 89.4937 58.6215 87.8585 58.6215Z" fill="white" fill-opacity="0.3"/>
<path d="M70.3759 11.6959C69.3058 11.6959 68.4382 10.8238 68.4382 9.74798C68.4382 8.67217 69.3058 7.80005 70.3759 7.80005C71.446 7.80005 72.3135 8.67217 72.3135 9.74798C72.3135 10.8238 71.446 11.6959 70.3759 11.6959Z" fill="white" fill-opacity="0.3"/>
<path d="M18.7124 31.022C18.7124 31.5943 18.8815 32.1537 19.1983 32.6293C19.515 33.1049 19.9651 33.4751 20.4915 33.6931C21.0179 33.9112 21.5968 33.9671 22.1549 33.8538C22.7129 33.7406 23.2249 33.4632 23.626 33.057C24.027 32.6507 24.299 32.1339 24.4074 31.5721C24.5158 31.0102 24.4557 30.4286 24.2349 29.9011C24.014 29.3736 23.6423 28.9239 23.1669 28.6091C22.6914 28.2943 22.1337 28.1286 21.5644 28.1329C21.188 28.1329 20.8154 28.2078 20.4679 28.3532C20.1205 28.4987 19.8051 28.7118 19.54 28.9804C19.2749 29.249 19.0652 29.5676 18.9232 29.918C18.7812 30.2684 18.7095 30.6436 18.7124 31.022Z" fill="white" fill-opacity="0.3"/>
<path d="M87.8542 58.9497C86.0386 58.9497 84.5668 57.47 84.5668 55.6448C84.5668 53.8195 86.0386 52.3398 87.8542 52.3398C89.6698 52.3398 91.1416 53.8195 91.1416 55.6448C91.1416 57.47 89.6698 58.9497 87.8542 58.9497Z" fill="white" fill-opacity="0.3"/>
<path d="M70.3718 15.5042C67.2096 15.5042 64.646 12.9271 64.646 9.74796C64.646 6.56887 67.2096 3.9917 70.3718 3.9917C73.5341 3.9917 76.0977 6.56887 76.0977 9.74796C76.0977 12.9271 73.5341 15.5042 70.3718 15.5042Z" fill="white" fill-opacity="0.3"/>
<path d="M70.3731 12.7245C68.7379 12.7245 67.4122 11.3918 67.4122 9.74786C67.4122 8.10392 68.7379 6.77124 70.3731 6.77124C72.0084 6.77124 73.334 8.10392 73.334 9.74786C73.334 11.3918 72.0084 12.7245 70.3731 12.7245Z" fill="white" fill-opacity="0.3"/>
<path d="M87.8557 58.1619C86.473 58.1619 85.3521 57.035 85.3521 55.6449C85.3521 54.2548 86.473 53.1279 87.8557 53.1279C89.2385 53.1279 90.3594 54.2548 90.3594 55.6449C90.3594 57.035 89.2385 58.1619 87.8557 58.1619Z" fill="white" fill-opacity="0.3"/>
<path d="M70.3744 11.9585C69.16 11.9585 68.1755 10.9688 68.1755 9.74792C68.1755 8.52705 69.16 7.53735 70.3744 7.53735C71.5888 7.53735 72.5732 8.52705 72.5732 9.74792C72.5732 10.9688 71.5888 11.9585 70.3744 11.9585Z" fill="white" fill-opacity="0.5"/>
<path d="M21.5607 32.4229C20.7912 32.4229 20.1674 31.7957 20.1674 31.0221C20.1674 30.2485 20.7912 29.6213 21.5607 29.6213C22.3302 29.6213 22.9541 30.2485 22.9541 31.0221C22.9541 31.7957 22.3302 32.4229 21.5607 32.4229Z" fill="white" fill-opacity="0.5"/>
<path d="M70.3731 11.4551C69.4353 11.4551 68.675 10.6908 68.675 9.74795C68.675 8.8051 69.4353 8.04077 70.3731 8.04077C71.311 8.04077 72.0713 8.8051 72.0713 9.74795C72.0713 10.6908 71.311 11.4551 70.3731 11.4551Z" fill="white" fill-opacity="0.3"/>
<path d="M20.2346 31.0221C20.2346 31.3762 20.3745 31.7158 20.6236 31.9662C20.8726 32.2166 21.2104 32.3572 21.5626 32.3572C21.9148 32.3572 22.2526 32.2166 22.5017 31.9662C22.7507 31.7158 22.8906 31.3762 22.8906 31.0221C22.8906 30.668 22.7507 30.3284 22.5017 30.0781C22.2526 29.8277 21.9148 29.687 21.5626 29.687C21.2104 29.687 20.8726 29.8277 20.6236 30.0781C20.3745 30.3284 20.2346 30.668 20.2346 31.0221Z" fill="white" fill-opacity="0.3"/>
<path d="M86.5476 55.6448C86.5476 55.9045 86.6242 56.1584 86.7677 56.3743C86.9113 56.5903 87.1153 56.7586 87.354 56.858C87.5927 56.9574 87.8553 56.9834 88.1087 56.9327C88.3621 56.8821 88.5949 56.757 88.7775 56.5733C88.9602 56.3897 89.0847 56.1557 89.1351 55.901C89.1855 55.6462 89.1596 55.3822 89.0607 55.1422C88.9618 54.9023 88.7944 54.6972 88.5796 54.5529C88.3648 54.4086 88.1123 54.3315 87.8539 54.3315C87.5075 54.3315 87.1752 54.4699 86.9302 54.7162C86.6852 54.9624 86.5476 55.2965 86.5476 55.6448Z" fill="white" fill-opacity="0.3"/>
<path d="M79.954 55.6446C79.954 57.216 80.4174 58.7521 81.2858 60.0586C82.1542 61.3652 83.3885 62.3835 84.8325 62.9848C86.2766 63.5861 87.8656 63.7435 89.3986 63.4369C90.9316 63.1304 92.3398 62.3737 93.445 61.2626C94.5503 60.1514 95.303 58.7358 95.6079 57.1946C95.9128 55.6535 95.7563 54.056 95.1582 52.6043C94.56 51.1525 93.5471 49.9117 92.2474 49.0387C90.9478 48.1657 89.4199 47.6997 87.8569 47.6997C85.7627 47.7055 83.7558 48.5444 82.275 50.0331C80.7941 51.5218 79.9597 53.5393 79.954 55.6446Z" fill="white" fill-opacity="0.3"/>
<path d="M87.8551 57.8334C86.6527 57.8334 85.678 56.8535 85.678 55.6447C85.678 54.436 86.6527 53.4561 87.8551 53.4561C89.0575 53.4561 90.0322 54.436 90.0322 55.6447C90.0322 56.8535 89.0575 57.8334 87.8551 57.8334Z" fill="white" fill-opacity="0.3"/>
<path d="M86.8745 55.6448C86.8745 55.8179 86.9256 55.9872 87.0213 56.1311C87.117 56.2751 87.2529 56.3873 87.4121 56.4536C87.5712 56.5199 87.7463 56.5372 87.9152 56.5034C88.0841 56.4696 88.2393 56.3863 88.3611 56.2638C88.4829 56.1414 88.5659 55.9854 88.5995 55.8156C88.6331 55.6457 88.6158 55.4697 88.5499 55.3097C88.484 55.1498 88.3724 55.013 88.2291 54.9168C88.0859 54.8206 87.9176 54.7693 87.7453 54.7693C87.5144 54.7693 87.2929 54.8615 87.1296 55.0257C86.9662 55.1899 86.8745 55.4126 86.8745 55.6448Z" fill="white" fill-opacity="0.3"/>
<path d="M19.7135 31.022C19.7632 31.4834 19.9808 31.9101 20.3244 32.2201C20.668 32.5301 21.1133 32.7016 21.575 32.7016C22.0366 32.7016 22.482 32.5301 22.8256 32.2201C23.1692 31.9101 23.3867 31.4834 23.4364 31.022C23.4647 30.7592 23.4377 30.4934 23.357 30.2419C23.2764 29.9903 23.144 29.7587 22.9684 29.562C22.7928 29.3653 22.5779 29.208 22.3379 29.1003C22.0978 28.9927 21.8379 28.937 21.575 28.937C21.3121 28.937 21.0521 28.9927 20.8121 29.1003C20.572 29.208 20.3572 29.3653 20.1816 29.562C20.006 29.7587 19.8736 29.9903 19.7929 30.2419C19.7123 30.4934 19.6852 30.7592 19.7135 31.022Z" fill="white" fill-opacity="0.3"/>
<path d="M11.6114 136.429C11.6114 137.195 11.8374 137.944 12.2608 138.581C12.6842 139.219 13.286 139.715 13.9902 140.008C14.6943 140.302 15.4691 140.378 16.2166 140.229C16.9642 140.079 17.6507 139.71 18.1897 139.169C18.7286 138.627 19.0956 137.936 19.2443 137.185C19.393 136.434 19.3167 135.655 19.025 134.947C18.7333 134.239 18.2394 133.634 17.6057 133.208C16.972 132.782 16.227 132.555 15.4649 132.555C14.958 132.552 14.4556 132.651 13.9868 132.844C13.518 133.038 13.092 133.323 12.7336 133.683C12.3752 134.044 12.0915 134.472 11.8988 134.943C11.7062 135.415 11.6085 135.92 11.6114 136.429Z" fill="white" fill-opacity="0.3"/>
<path d="M21.5653 34.9836C19.389 34.9836 17.6247 33.21 17.6247 31.0221C17.6247 28.8342 19.389 27.0605 21.5653 27.0605C23.7416 27.0605 25.5059 28.8342 25.5059 31.0221C25.5059 33.21 23.7416 34.9836 21.5653 34.9836Z" fill="white" fill-opacity="0.3"/>
<path d="M21.5647 32.7949C20.5907 32.7949 19.8012 32.0012 19.8012 31.0221C19.8012 30.043 20.5907 29.2493 21.5647 29.2493C22.5386 29.2493 23.3281 30.043 23.3281 31.0221C23.3281 32.0012 22.5386 32.7949 21.5647 32.7949Z" fill="white" fill-opacity="0.3"/>
<path d="M87.856 62.9113C83.8641 62.9113 80.628 59.658 80.628 55.6449C80.628 51.6317 83.8641 48.3784 87.856 48.3784C91.8479 48.3784 95.084 51.6317 95.084 55.6449C95.084 59.658 91.8479 62.9113 87.856 62.9113Z" fill="white" fill-opacity="0.3"/>
<path d="M20.6046 31.0221C20.6046 31.2775 20.7056 31.5225 20.8852 31.7031C21.0649 31.8837 21.3085 31.9851 21.5626 31.9851C21.8166 31.9851 22.0603 31.8837 22.2399 31.7031C22.4196 31.5225 22.5205 31.2775 22.5205 31.0221C22.5205 30.7667 22.4196 30.5217 22.2399 30.3411C22.0603 30.1605 21.8166 30.0591 21.5626 30.0591C21.3085 30.0591 21.0649 30.1605 20.8852 30.3411C20.7056 30.5217 20.6046 30.7667 20.6046 31.0221Z" fill="white" fill-opacity="0.5"/>
<path d="M10.9153 136.429C10.911 137.335 11.1743 138.222 11.6716 138.977C12.169 139.732 12.8781 140.322 13.7091 140.671C14.5402 141.021 15.4557 141.114 16.3398 140.94C17.2238 140.766 18.0367 140.332 18.6752 139.694C19.3137 139.055 19.7493 138.24 19.9266 137.352C20.1039 136.464 20.0151 135.543 19.6713 134.706C19.3276 133.869 18.7444 133.153 17.9957 132.649C17.247 132.146 16.3664 131.877 15.4655 131.877C14.2625 131.877 13.1085 132.356 12.2558 133.209C11.4031 134.062 10.9211 135.22 10.9153 136.429Z" fill="white" fill-opacity="0.3"/>
<path d="M21.565 33.8891C19.9899 33.8891 18.713 32.6055 18.713 31.022C18.713 29.4385 19.9899 28.1548 21.565 28.1548C23.1401 28.1548 24.417 29.4385 24.417 31.022C24.417 32.6055 23.1401 33.8891 21.565 33.8891Z" fill="white" fill-opacity="0.3"/>
<path d="M12.8554 136.429C12.8554 136.953 13.0099 137.465 13.2994 137.901C13.5888 138.336 14.0002 138.676 14.4816 138.876C14.963 139.076 15.4926 139.129 16.0036 139.027C16.5146 138.925 16.9841 138.672 17.3525 138.302C17.7209 137.932 17.9718 137.46 18.0734 136.946C18.1751 136.432 18.1228 135.9 17.9235 135.416C17.7241 134.932 17.3864 134.518 16.9532 134.227C16.52 133.936 16.0107 133.781 15.4897 133.781C14.791 133.781 14.121 134.06 13.627 134.557C13.133 135.053 12.8554 135.727 12.8554 136.429Z" fill="white" fill-opacity="0.3"/>
<path d="M14.5521 136.429C14.5521 136.673 14.6484 136.907 14.8199 137.079C14.9914 137.252 15.224 137.349 15.4665 137.349C15.709 137.349 15.9416 137.252 16.113 137.079C16.2845 136.907 16.3809 136.673 16.3809 136.429C16.3809 136.185 16.2845 135.952 16.113 135.779C15.9416 135.607 15.709 135.51 15.4665 135.51C15.224 135.51 14.9914 135.607 14.8199 135.779C14.6484 135.952 14.5521 136.185 14.5521 136.429Z" fill="white" fill-opacity="0.5"/>
<path d="M97.7609 190.818C97.316 190.818 96.9554 190.456 96.9554 190.009C96.9554 189.561 97.316 189.199 97.7609 189.199C98.2058 189.199 98.5664 189.561 98.5664 190.009C98.5664 190.456 98.2058 190.818 97.7609 190.818Z" fill="white" fill-opacity="0.3"/>
<path d="M14.5521 136.429C14.5521 136.611 14.6057 136.789 14.7061 136.94C14.8066 137.091 14.9495 137.209 15.1165 137.279C15.2836 137.348 15.4675 137.366 15.6449 137.331C15.8222 137.295 15.9851 137.208 16.113 137.079C16.2409 136.951 16.328 136.787 16.3633 136.609C16.3986 136.43 16.3805 136.245 16.3113 136.077C16.2421 135.909 16.1248 135.766 15.9745 135.665C15.8241 135.564 15.6473 135.51 15.4665 135.51C15.3464 135.51 15.2275 135.534 15.1165 135.58C15.0056 135.626 14.9048 135.694 14.8199 135.779C14.735 135.865 14.6676 135.966 14.6217 136.077C14.5757 136.189 14.5521 136.309 14.5521 136.429Z" fill="white" fill-opacity="0.3"/>
<path d="M11.9187 136.429C11.9187 137.14 12.1286 137.835 12.5219 138.426C12.9152 139.017 13.4741 139.477 14.1278 139.748C14.7815 140.019 15.5005 140.088 16.1937 139.948C16.8869 139.808 17.5231 139.464 18.0215 138.96C18.52 138.455 18.8583 137.814 18.9936 137.116C19.1289 136.418 19.055 135.696 18.7815 135.041C18.5079 134.385 18.0469 133.826 17.4568 133.434C16.8668 133.042 16.1744 132.836 15.4674 132.84C14.9995 132.84 14.5363 132.933 14.1043 133.114C13.6723 133.294 13.2801 133.559 12.9503 133.893C12.6205 134.226 12.3596 134.622 12.1825 135.057C12.0054 135.493 11.9158 135.959 11.9187 136.429Z" fill="white" fill-opacity="0.3"/>
<path d="M12.856 136.429C12.856 136.949 13.0092 137.457 13.2963 137.888C13.5833 138.32 13.9914 138.657 14.4687 138.856C14.9461 139.055 15.4714 139.107 15.9782 139.005C16.485 138.904 16.9505 138.654 17.3158 138.286C17.6812 137.919 17.9301 137.451 18.0309 136.942C18.1317 136.432 18.0799 135.904 17.8822 135.424C17.6844 134.944 17.3496 134.534 16.92 134.245C16.4904 133.957 15.9852 133.803 15.4685 133.803C15.1246 133.8 14.7836 133.866 14.4653 133.997C14.147 134.128 13.8579 134.321 13.6147 134.566C13.3715 134.81 13.1792 135.101 13.0489 135.421C12.9187 135.741 12.8531 136.084 12.856 136.429Z" fill="white" fill-opacity="0.5"/>
<path d="M8.49932 136.429C8.49932 137.828 8.91172 139.194 9.68442 140.357C10.4571 141.519 11.5554 142.426 12.8403 142.961C14.1253 143.496 15.5392 143.636 16.9033 143.363C18.2674 143.09 19.5203 142.417 20.5038 141.428C21.4872 140.44 22.157 139.18 22.4284 137.809C22.6997 136.437 22.5604 135.016 22.0282 133.724C21.4959 132.432 20.5946 131.328 19.4382 130.551C18.2818 129.774 16.9222 129.36 15.5314 129.36C13.6664 129.36 11.8777 130.105 10.559 131.43C9.2402 132.756 8.49932 134.554 8.49932 136.429Z" fill="white" fill-opacity="0.5"/>
<path d="M101.093 242.778C101.097 243.062 101.185 243.34 101.346 243.574C101.506 243.809 101.732 243.991 101.995 244.097C102.258 244.203 102.546 244.228 102.823 244.17C103.101 244.112 103.355 243.972 103.554 243.77C103.752 243.567 103.887 243.309 103.941 243.03C103.994 242.75 103.965 242.461 103.855 242.198C103.746 241.935 103.562 241.711 103.326 241.553C103.09 241.396 102.813 241.311 102.53 241.311C102.147 241.317 101.782 241.474 101.513 241.748C101.244 242.023 101.093 242.393 101.093 242.778Z" fill="white" fill-opacity="0.3"/>
<path d="M18.7323 278.388C18.7323 279.362 19.0196 280.314 19.5579 281.124C20.0961 281.933 20.8611 282.565 21.7562 282.937C22.6513 283.31 23.6362 283.408 24.5864 283.218C25.5367 283.028 26.4095 282.559 27.0946 281.87C27.7796 281.181 28.2462 280.304 28.4352 279.348C28.6242 278.393 28.5272 277.403 28.1564 276.503C27.7856 275.603 27.1578 274.834 26.3523 274.293C25.5467 273.752 24.5997 273.463 23.6308 273.463C22.3317 273.463 21.0857 273.982 20.167 274.906C19.2484 275.829 18.7323 277.082 18.7323 278.388Z" fill="white" fill-opacity="0.3"/>
<path d="M102.529 245.711C100.918 245.711 99.6117 244.398 99.6117 242.778C99.6117 241.158 100.918 239.845 102.529 239.845C104.14 239.845 105.446 241.158 105.446 242.778C105.446 244.398 104.14 245.711 102.529 245.711Z" fill="white" fill-opacity="0.3"/>
<path d="M100.242 242.778C100.298 243.351 100.564 243.884 100.988 244.271C101.413 244.658 101.966 244.873 102.539 244.873C103.112 244.873 103.665 244.658 104.09 244.271C104.514 243.884 104.78 243.351 104.836 242.778C104.867 242.456 104.831 242.131 104.73 241.823C104.628 241.516 104.464 241.233 104.248 240.994C104.032 240.754 103.768 240.563 103.474 240.431C103.179 240.3 102.861 240.233 102.539 240.233C102.217 240.233 101.899 240.3 101.604 240.431C101.31 240.563 101.046 240.754 100.83 240.994C100.613 241.233 100.449 241.516 100.348 241.823C100.247 242.131 100.211 242.456 100.242 242.778Z" fill="white" fill-opacity="0.3"/>
<path d="M19.1024 278.388C19.1024 279.288 19.368 280.168 19.8656 280.917C20.3632 281.666 21.0704 282.249 21.8979 282.594C22.7253 282.938 23.6358 283.028 24.5142 282.853C25.3926 282.677 26.1995 282.243 26.8328 281.607C27.4662 280.97 27.8974 280.159 28.0722 279.276C28.2469 278.393 28.1572 277.477 27.8145 276.646C27.4718 275.814 26.8913 275.103 26.1467 274.602C25.402 274.102 24.5265 273.835 23.6308 273.835C22.4298 273.835 21.278 274.315 20.4288 275.169C19.5795 276.022 19.1024 277.18 19.1024 278.388Z" fill="white" fill-opacity="0.3"/>
<path d="M20.2578 278.388C20.2578 279.059 20.4557 279.714 20.8265 280.272C21.1973 280.83 21.7243 281.265 22.3409 281.522C22.9576 281.779 23.636 281.846 24.2906 281.715C24.9452 281.584 25.5465 281.261 26.0185 280.786C26.4904 280.312 26.8118 279.707 26.942 279.049C27.0722 278.391 27.0054 277.709 26.75 277.089C26.4946 276.469 26.062 275.94 25.5071 275.567C24.9521 275.194 24.2998 274.995 23.6323 274.995C22.7374 274.995 21.879 275.353 21.2461 275.989C20.6133 276.625 20.2578 277.488 20.2578 278.388Z" fill="white" fill-opacity="0.3"/>
<path d="M504.01 339.365C504.01 340.23 504.266 341.077 504.744 341.797C505.223 342.516 505.903 343.078 506.698 343.409C507.494 343.74 508.369 343.827 509.214 343.658C510.059 343.489 510.835 343.072 511.443 342.46C512.052 341.848 512.467 341.068 512.635 340.219C512.803 339.37 512.717 338.489 512.387 337.69C512.058 336.89 511.5 336.206 510.784 335.725C510.068 335.244 509.226 334.987 508.365 334.987C507.21 334.987 506.102 335.448 505.286 336.269C504.469 337.09 504.01 338.204 504.01 339.365Z" fill="white" fill-opacity="0.3"/>
<path d="M506.689 339.365C506.689 339.689 506.785 340.007 506.965 340.277C507.144 340.547 507.399 340.757 507.697 340.881C507.996 341.005 508.324 341.038 508.641 340.975C508.958 340.911 509.249 340.755 509.477 340.525C509.705 340.296 509.861 340.003 509.924 339.685C509.987 339.366 509.954 339.036 509.831 338.736C509.707 338.437 509.498 338.18 509.229 338C508.961 337.819 508.645 337.723 508.322 337.723C507.889 337.723 507.474 337.896 507.168 338.204C506.861 338.512 506.689 338.929 506.689 339.365Z" fill="white" fill-opacity="0.3"/>
<path d="M506.363 339.364C506.363 339.754 506.478 340.135 506.694 340.459C506.909 340.783 507.215 341.035 507.573 341.184C507.931 341.333 508.325 341.372 508.705 341.296C509.085 341.22 509.434 341.033 509.708 340.757C509.982 340.482 510.169 340.131 510.245 339.749C510.32 339.367 510.281 338.971 510.133 338.611C509.985 338.251 509.734 337.943 509.411 337.727C509.089 337.51 508.71 337.395 508.323 337.395C508.065 337.392 507.809 337.441 507.57 337.539C507.331 337.637 507.113 337.782 506.931 337.965C506.748 338.149 506.604 338.367 506.507 338.607C506.409 338.848 506.36 339.105 506.363 339.364Z" fill="white" fill-opacity="0.3"/>
<path d="M190.832 334.528C190.832 335.259 191.048 335.974 191.452 336.583C191.856 337.191 192.431 337.665 193.103 337.945C193.775 338.225 194.515 338.298 195.229 338.155C195.943 338.013 196.598 337.66 197.113 337.143C197.627 336.626 197.978 335.967 198.12 335.249C198.262 334.532 198.189 333.788 197.91 333.112C197.632 332.436 197.16 331.858 196.555 331.452C195.95 331.046 195.239 330.829 194.511 330.829C193.535 330.829 192.599 331.218 191.909 331.912C191.219 332.606 190.832 333.546 190.832 334.528Z" fill="white" fill-opacity="0.3"/>
<path d="M99.0048 242.778C99.0048 243.479 99.2116 244.164 99.5992 244.747C99.9867 245.331 100.538 245.785 101.182 246.053C101.826 246.322 102.536 246.392 103.22 246.255C103.904 246.118 104.532 245.781 105.026 245.285C105.519 244.789 105.855 244.157 105.991 243.469C106.127 242.782 106.057 242.069 105.79 241.421C105.523 240.773 105.071 240.219 104.491 239.829C103.911 239.44 103.229 239.232 102.532 239.232C101.598 239.238 100.704 239.613 100.044 240.277C99.3839 240.94 99.0105 241.839 99.0048 242.778Z" fill="white" fill-opacity="0.3"/>
<path d="M147.377 358.209C147.377 358.75 147.536 359.279 147.835 359.729C148.134 360.179 148.559 360.53 149.057 360.737C149.554 360.944 150.101 360.998 150.629 360.892C151.157 360.787 151.642 360.526 152.022 360.144C152.403 359.761 152.662 359.273 152.767 358.743C152.872 358.212 152.818 357.662 152.612 357.162C152.406 356.662 152.057 356.235 151.61 355.934C151.162 355.634 150.636 355.473 150.098 355.473C149.376 355.473 148.684 355.761 148.174 356.274C147.663 356.788 147.377 357.483 147.377 358.209Z" fill="white" fill-opacity="0.3"/>
<path d="M191.813 334.527C191.813 335.064 191.971 335.589 192.268 336.035C192.564 336.482 192.986 336.829 193.479 337.035C193.972 337.24 194.515 337.294 195.039 337.189C195.563 337.085 196.044 336.826 196.421 336.447C196.799 336.067 197.056 335.583 197.16 335.057C197.264 334.53 197.211 333.985 197.006 333.489C196.802 332.993 196.456 332.569 196.012 332.271C195.568 331.973 195.046 331.813 194.512 331.813C193.796 331.813 193.11 332.099 192.603 332.608C192.097 333.117 191.813 333.808 191.813 334.527Z" fill="white" fill-opacity="0.3"/>
<path d="M100.548 242.756C100.544 243.156 100.658 243.548 100.876 243.883C101.095 244.217 101.407 244.479 101.774 244.634C102.141 244.789 102.546 244.831 102.936 244.754C103.327 244.677 103.686 244.485 103.967 244.202C104.248 243.919 104.44 243.558 104.516 243.165C104.593 242.773 104.551 242.366 104.397 241.997C104.243 241.628 103.983 241.314 103.65 241.094C103.317 240.875 102.927 240.76 102.529 240.764C102.005 240.77 101.505 240.982 101.134 241.354C100.764 241.726 100.554 242.23 100.548 242.756Z" fill="white" fill-opacity="0.3"/>
<path d="M95.5864 242.778C95.5864 244.146 95.9904 245.485 96.7473 246.622C97.5043 247.76 98.58 248.647 99.8383 249.169C101.097 249.692 102.481 249.828 103.816 249.559C105.151 249.291 106.377 248.63 107.338 247.66C108.3 246.691 108.953 245.457 109.216 244.113C109.479 242.77 109.34 241.379 108.816 240.116C108.292 238.852 107.407 237.774 106.272 237.016C105.138 236.259 103.806 235.857 102.444 235.861C101.542 235.861 100.648 236.04 99.8148 236.388C98.9814 236.736 98.2244 237.246 97.5873 237.888C96.9502 238.531 96.4455 239.294 96.1021 240.133C95.7588 240.972 95.5835 241.87 95.5864 242.778Z" fill="white" fill-opacity="0.3"/>
<path d="M194.49 341.487C190.666 341.487 187.567 338.371 187.567 334.527C187.567 330.684 190.666 327.567 194.49 327.567C198.313 327.567 201.413 330.684 201.413 334.527C201.413 338.371 198.313 341.487 194.49 341.487Z" fill="white" fill-opacity="0.3"/>
<path d="M100.57 242.756C100.566 243.152 100.679 243.54 100.895 243.871C101.111 244.201 101.42 244.46 101.783 244.613C102.146 244.767 102.546 244.808 102.932 244.732C103.319 244.656 103.674 244.466 103.952 244.186C104.23 243.906 104.419 243.549 104.495 243.161C104.571 242.772 104.53 242.37 104.377 242.005C104.225 241.641 103.967 241.33 103.638 241.113C103.309 240.895 102.923 240.782 102.529 240.786C102.01 240.786 101.511 240.994 101.144 241.363C100.776 241.732 100.57 242.233 100.57 242.756Z" fill="white" fill-opacity="0.3"/>
<path d="M16.7955 278.388C16.7955 279.747 17.1964 281.076 17.9476 282.206C18.6988 283.336 19.7665 284.217 21.0156 284.737C22.2647 285.257 23.6393 285.393 24.9653 285.128C26.2914 284.863 27.5095 284.208 28.4655 283.247C29.4216 282.286 30.0726 281.061 30.3364 279.728C30.6002 278.395 30.4648 277.013 29.9474 275.758C29.43 274.502 28.5538 273.428 27.4296 272.673C26.3054 271.918 24.9837 271.515 23.6317 271.515C21.8204 271.521 20.0849 272.247 18.8041 273.534C17.5234 274.822 16.8013 276.567 16.7955 278.388Z" fill="white" fill-opacity="0.3"/>
<path d="M97.1521 301.391C97.1163 301.819 97.1693 302.251 97.3078 302.658C97.4463 303.065 97.6674 303.438 97.9569 303.755C98.2465 304.072 98.5983 304.324 98.99 304.497C99.3817 304.67 99.8049 304.759 100.233 304.759C100.661 304.759 101.084 304.67 101.475 304.497C101.867 304.324 102.219 304.072 102.509 303.755C102.798 303.438 103.019 303.065 103.158 302.658C103.296 302.251 103.349 301.819 103.313 301.391C103.248 300.614 102.896 299.891 102.325 299.363C101.755 298.836 101.008 298.543 100.233 298.543C99.4577 298.543 98.7109 298.836 98.1404 299.363C97.5698 299.891 97.2171 300.614 97.1521 301.391Z" fill="white" fill-opacity="0.3"/>
<path d="M147.836 358.209C147.836 358.642 147.964 359.065 148.203 359.425C148.442 359.785 148.782 360.066 149.18 360.231C149.578 360.397 150.016 360.44 150.438 360.356C150.86 360.271 151.248 360.063 151.553 359.757C151.857 359.451 152.065 359.061 152.149 358.636C152.233 358.212 152.19 357.772 152.025 357.372C151.86 356.972 151.581 356.63 151.223 356.389C150.865 356.149 150.444 356.021 150.013 356.021C149.436 356.021 148.882 356.251 148.474 356.662C148.066 357.072 147.836 357.629 147.836 358.209Z" fill="white" fill-opacity="0.3"/>
<path d="M20.4308 278.388C20.4308 279.029 20.6203 279.656 20.9753 280.19C21.3303 280.723 21.8349 281.138 22.4249 281.382C23.0149 281.627 23.6639 281.69 24.2895 281.563C24.9151 281.436 25.4892 281.126 25.939 280.67C26.3887 280.215 26.6939 279.636 26.8157 279.006C26.9376 278.376 26.8707 277.724 26.6234 277.133C26.3762 276.541 25.9599 276.037 25.4271 275.684C24.8944 275.33 24.2693 275.144 23.6311 275.149C23.209 275.149 22.791 275.232 22.4013 275.395C22.0116 275.559 21.6579 275.797 21.3604 276.099C21.0629 276.4 20.8276 276.757 20.6681 277.15C20.5085 277.543 20.4279 277.963 20.4308 278.388Z" fill="white" fill-opacity="0.3"/>
<path d="M18.1426 278.388C18.1426 279.478 18.4644 280.545 19.0673 281.452C19.6701 282.359 20.5269 283.066 21.5294 283.483C22.5319 283.901 23.635 284.01 24.6992 283.797C25.7635 283.584 26.7411 283.059 27.5083 282.288C28.2756 281.516 28.7981 280.533 29.0098 279.464C29.2215 278.394 29.1129 277.285 28.6976 276.277C28.2824 275.269 27.5792 274.408 26.677 273.802C25.7747 273.196 24.7141 272.872 23.629 272.872C22.1739 272.872 20.7784 273.453 19.7495 274.488C18.7206 275.522 18.1426 276.925 18.1426 278.388Z" fill="white" fill-opacity="0.3"/>
<path d="M102.528 244.66C101.494 244.66 100.656 243.817 100.656 242.778C100.656 241.738 101.494 240.896 102.528 240.896C103.562 240.896 104.4 241.738 104.4 242.778C104.4 243.817 103.562 244.66 102.528 244.66Z" fill="white" fill-opacity="0.5"/>
<path d="M148.426 358.209C148.426 358.543 148.524 358.868 148.708 359.146C148.892 359.423 149.154 359.639 149.46 359.766C149.767 359.894 150.104 359.927 150.429 359.862C150.754 359.797 151.053 359.637 151.287 359.401C151.522 359.165 151.681 358.865 151.746 358.538C151.811 358.211 151.778 357.872 151.651 357.564C151.524 357.256 151.309 356.993 151.033 356.808C150.758 356.623 150.434 356.524 150.102 356.524C149.657 356.524 149.231 356.701 148.917 357.018C148.602 357.334 148.426 357.762 148.426 358.209Z" fill="white" fill-opacity="0.5"/>
<path d="M21.8014 278.388C21.8014 278.751 21.9087 279.107 22.1096 279.409C22.3106 279.712 22.5962 279.947 22.9304 280.086C23.2645 280.226 23.6322 280.262 23.987 280.191C24.3417 280.12 24.6676 279.945 24.9234 279.688C25.1791 279.431 25.3533 279.103 25.4239 278.746C25.4944 278.39 25.4582 278.02 25.3197 277.684C25.1813 277.348 24.947 277.061 24.6462 276.859C24.3455 276.657 23.9919 276.549 23.6302 276.549C23.147 276.555 22.685 276.751 22.3433 277.094C22.0016 277.438 21.8071 277.902 21.8014 278.388Z" fill="white" fill-opacity="0.3"/>
<path d="M96.6085 301.391C96.5698 301.893 96.6347 302.398 96.7993 302.874C96.9639 303.35 97.2246 303.786 97.565 304.156C97.9054 304.526 98.3181 304.821 98.7773 305.023C99.2365 305.224 99.7323 305.329 100.233 305.329C100.735 305.329 101.23 305.224 101.689 305.023C102.149 304.821 102.561 304.526 102.902 304.156C103.242 303.786 103.503 303.35 103.668 302.874C103.832 302.398 103.897 301.893 103.858 301.391C103.787 300.473 103.375 299.616 102.703 298.991C102.031 298.366 101.149 298.018 100.233 298.018C99.3178 298.018 98.4359 298.366 97.7639 298.991C97.0919 299.616 96.6793 300.473 96.6085 301.391Z" fill="white" fill-opacity="0.3"/>
<path d="M17.9912 278.388C17.9868 279.51 18.3139 280.608 18.9309 281.543C19.5478 282.478 20.427 283.208 21.4569 283.641C22.4869 284.073 23.6213 284.188 24.7166 283.972C25.8118 283.756 26.8185 283.218 27.6093 282.426C28.4001 281.634 28.9393 280.624 29.1586 279.524C29.3779 278.423 29.2676 277.283 28.8414 276.245C28.4153 275.208 27.6926 274.322 26.7648 273.698C25.8371 273.074 24.7461 272.741 23.6299 272.741C22.1382 272.741 20.7073 273.335 19.6504 274.394C18.5936 275.452 17.9969 276.888 17.9912 278.388Z" fill="white" fill-opacity="0.3"/>
<path d="M97.5652 301.391C97.5652 301.923 97.7222 302.444 98.0165 302.886C98.3107 303.329 98.729 303.674 99.2183 303.878C99.7076 304.082 100.246 304.135 100.765 304.031C101.285 303.927 101.762 303.671 102.137 303.294C102.511 302.918 102.766 302.438 102.869 301.916C102.973 301.394 102.92 300.853 102.717 300.361C102.514 299.869 102.171 299.448 101.731 299.152C101.29 298.857 100.773 298.699 100.243 298.699C99.5329 298.699 98.8517 298.982 98.3495 299.487C97.8473 299.992 97.5652 300.677 97.5652 301.391Z" fill="white" fill-opacity="0.3"/>
<path d="M981.364 363.09C979.789 363.09 978.512 361.806 978.512 360.223C978.512 358.639 979.789 357.355 981.364 357.355C982.939 357.355 984.216 358.639 984.216 360.223C984.216 361.806 982.939 363.09 981.364 363.09Z" fill="white" fill-opacity="0.3"/>
<path d="M619.831 413.78C619.827 414.392 620.004 414.992 620.34 415.503C620.675 416.014 621.154 416.413 621.716 416.649C622.278 416.885 622.897 416.948 623.495 416.83C624.092 416.711 624.641 416.417 625.072 415.984C625.502 415.551 625.795 414.999 625.913 414.399C626.031 413.798 625.968 413.176 625.733 412.611C625.498 412.046 625.101 411.564 624.593 411.227C624.085 410.889 623.488 410.712 622.879 410.716C622.071 410.716 621.296 411.039 620.724 411.613C620.152 412.188 619.831 412.967 619.831 413.78Z" fill="white" fill-opacity="0.3"/>
<path d="M508.298 340.765C507.529 340.765 506.905 340.138 506.905 339.365C506.905 338.591 507.529 337.964 508.298 337.964C509.068 337.964 509.691 338.591 509.691 339.365C509.691 340.138 509.068 340.765 508.298 340.765Z" fill="white" fill-opacity="0.5"/>
<path d="M506.276 404.872C505.362 404.872 504.621 404.127 504.621 403.209C504.621 402.29 505.362 401.545 506.276 401.545C507.19 401.545 507.931 402.29 507.931 403.209C507.931 404.127 507.19 404.872 506.276 404.872Z" fill="white" fill-opacity="0.5"/>
<path d="M621.245 413.78C621.246 414.11 621.343 414.432 621.526 414.706C621.709 414.98 621.968 415.193 622.272 415.319C622.576 415.444 622.909 415.475 623.231 415.409C623.553 415.343 623.847 415.183 624.078 414.948C624.308 414.713 624.464 414.415 624.525 414.091C624.587 413.767 624.551 413.431 624.422 413.128C624.294 412.824 624.078 412.566 623.803 412.386C623.528 412.206 623.206 412.112 622.878 412.116C622.443 412.122 622.028 412.3 621.722 412.611C621.417 412.923 621.245 413.342 621.245 413.78Z" fill="white" fill-opacity="0.3"/>
<path d="M500.309 339.364C500.309 340.957 500.779 342.515 501.66 343.839C502.54 345.164 503.791 346.196 505.255 346.806C506.719 347.415 508.33 347.575 509.884 347.264C511.438 346.953 512.866 346.186 513.986 345.06C515.107 343.933 515.87 342.498 516.179 340.936C516.488 339.373 516.33 337.754 515.723 336.282C515.117 334.81 514.09 333.553 512.772 332.667C511.455 331.782 509.906 331.31 508.321 331.31C507.268 331.307 506.225 331.514 505.252 331.917C504.279 332.321 503.394 332.914 502.65 333.663C501.905 334.411 501.315 335.3 500.913 336.279C500.512 337.257 500.307 338.306 500.309 339.364Z" fill="white" fill-opacity="0.3"/>
<path d="M505.253 339.364C505.249 339.976 505.425 340.575 505.76 341.085C506.095 341.595 506.573 341.994 507.133 342.231C507.694 342.468 508.311 342.532 508.908 342.416C509.505 342.299 510.054 342.007 510.486 341.576C510.917 341.146 511.212 340.596 511.332 339.997C511.452 339.397 511.393 338.776 511.161 338.21C510.929 337.645 510.536 337.162 510.031 336.822C509.525 336.482 508.931 336.3 508.323 336.3C507.513 336.3 506.735 336.622 506.16 337.196C505.585 337.77 505.259 338.55 505.253 339.364Z" fill="white" fill-opacity="0.3"/>
<path d="M621.032 413.78C621.028 414.154 621.134 414.521 621.338 414.834C621.542 415.147 621.835 415.391 622.178 415.537C622.521 415.682 622.899 415.721 623.264 415.649C623.629 415.577 623.965 415.397 624.228 415.133C624.491 414.868 624.67 414.531 624.741 414.164C624.813 413.796 624.774 413.416 624.63 413.071C624.485 412.727 624.242 412.433 623.931 412.228C623.62 412.022 623.255 411.915 622.882 411.92C622.392 411.92 621.921 412.116 621.574 412.464C621.227 412.813 621.032 413.287 621.032 413.78Z" fill="white" fill-opacity="0.3"/>
<path d="M505.36 339.364C505.36 339.953 505.533 340.529 505.859 341.018C506.184 341.508 506.646 341.889 507.187 342.114C507.728 342.34 508.324 342.399 508.898 342.284C509.472 342.169 510 341.885 510.414 341.469C510.828 341.053 511.11 340.522 511.224 339.945C511.339 339.368 511.28 338.769 511.056 338.225C510.832 337.681 510.452 337.216 509.965 336.889C509.478 336.562 508.906 336.388 508.32 336.388C507.535 336.388 506.782 336.701 506.227 337.26C505.671 337.818 505.36 338.575 505.36 339.364Z" fill="white" fill-opacity="0.3"/>
<path d="M481.39 367.38C478.612 367.38 476.361 365.116 476.361 362.324C476.361 359.532 478.612 357.268 481.39 357.268C484.167 357.268 486.419 359.532 486.419 362.324C486.419 365.116 484.167 367.38 481.39 367.38Z" fill="white" fill-opacity="0.3"/>
<path d="M506.272 407.389C503.976 407.389 502.114 405.517 502.114 403.209C502.114 400.9 503.976 399.028 506.272 399.028C508.569 399.028 510.431 400.9 510.431 403.209C510.431 405.517 508.569 407.389 506.272 407.389Z" fill="white" fill-opacity="0.3"/>
<path d="M508.3 340.284C507.795 340.284 507.386 339.872 507.386 339.365C507.386 338.857 507.795 338.445 508.3 338.445C508.805 338.445 509.215 338.857 509.215 339.365C509.215 339.872 508.805 340.284 508.3 340.284Z" fill="white" fill-opacity="0.3"/>
<path d="M501.44 403.274C501.435 404.241 501.716 405.186 502.247 405.992C502.778 406.797 503.535 407.426 504.421 407.799C505.308 408.172 506.285 408.272 507.228 408.086C508.171 407.9 509.039 407.437 509.72 406.755C510.401 406.074 510.865 405.204 511.055 404.257C511.244 403.309 511.149 402.327 510.782 401.434C510.415 400.54 509.793 399.777 508.994 399.24C508.195 398.702 507.256 398.416 506.294 398.416C505.011 398.416 503.779 398.927 502.869 399.837C501.959 400.748 501.445 401.984 501.44 403.274Z" fill="white" fill-opacity="0.3"/>
<path d="M481.39 370.685C476.796 370.685 473.073 366.941 473.073 362.324C473.073 357.706 476.796 353.963 481.39 353.963C485.983 353.963 489.706 357.706 489.706 362.324C489.706 366.941 485.983 370.685 481.39 370.685Z" fill="white" fill-opacity="0.3"/>
<path d="M477.884 362.324C477.953 363.213 478.354 364.044 479.006 364.649C479.658 365.255 480.512 365.591 481.4 365.591C482.287 365.591 483.142 365.255 483.794 364.649C484.446 364.044 484.846 363.213 484.916 362.324C484.954 361.836 484.892 361.346 484.732 360.884C484.573 360.422 484.32 359.998 483.99 359.639C483.66 359.28 483.259 358.993 482.813 358.797C482.368 358.601 481.886 358.5 481.4 358.5C480.913 358.5 480.432 358.601 479.986 358.797C479.541 358.993 479.14 359.28 478.81 359.639C478.48 359.998 478.227 360.422 478.068 360.884C477.908 361.346 477.846 361.836 477.884 362.324Z" fill="white" fill-opacity="0.3"/>
<path d="M304.826 368.255C304.826 369.121 305.081 369.967 305.56 370.687C306.038 371.407 306.718 371.968 307.514 372.299C308.309 372.631 309.185 372.717 310.029 372.549C310.874 372.38 311.65 371.963 312.259 371.351C312.868 370.738 313.282 369.958 313.451 369.109C313.619 368.26 313.532 367.38 313.203 366.58C312.873 365.78 312.315 365.097 311.599 364.616C310.883 364.135 310.041 363.878 309.18 363.878C308.025 363.878 306.918 364.339 306.101 365.16C305.285 365.981 304.826 367.094 304.826 368.255Z" fill="white" fill-opacity="0.3"/>
<path d="M188.373 334.528C188.373 335.748 188.733 336.942 189.408 337.957C190.083 338.972 191.042 339.763 192.163 340.23C193.285 340.697 194.52 340.819 195.711 340.581C196.902 340.343 197.996 339.755 198.854 338.892C199.713 338.029 200.297 336.929 200.534 335.732C200.771 334.534 200.65 333.293 200.185 332.166C199.72 331.038 198.933 330.074 197.924 329.396C196.914 328.717 195.727 328.355 194.513 328.355C192.885 328.355 191.323 329.006 190.172 330.163C189.02 331.321 188.373 332.891 188.373 334.528Z" fill="white" fill-opacity="0.5"/>
<path d="M178.881 389.945C176.08 389.945 173.809 387.662 173.809 384.845C173.809 382.029 176.08 379.746 178.881 379.746C181.683 379.746 183.954 382.029 183.954 384.845C183.954 387.662 181.683 389.945 178.881 389.945Z" fill="white" fill-opacity="0.3"/>
<path d="M307.288 368.255C307.283 368.638 307.392 369.013 307.601 369.334C307.81 369.654 308.109 369.904 308.46 370.052C308.811 370.201 309.198 370.241 309.572 370.167C309.945 370.094 310.289 369.91 310.558 369.639C310.827 369.368 311.01 369.023 311.083 368.648C311.157 368.272 311.117 367.883 310.969 367.53C310.821 367.177 310.573 366.877 310.254 366.667C309.936 366.457 309.562 366.347 309.182 366.351C308.679 366.351 308.198 366.552 307.842 366.909C307.487 367.266 307.288 367.75 307.288 368.255Z" fill="white" fill-opacity="0.3"/>
<path d="M191.791 334.527C191.791 335.068 191.95 335.597 192.249 336.047C192.548 336.497 192.973 336.848 193.471 337.055C193.968 337.262 194.515 337.316 195.043 337.211C195.571 337.105 196.056 336.845 196.436 336.462C196.817 336.079 197.076 335.592 197.181 335.061C197.286 334.53 197.232 333.98 197.026 333.48C196.82 332.98 196.471 332.553 196.024 332.253C195.576 331.952 195.05 331.792 194.512 331.792C193.79 331.792 193.098 332.08 192.588 332.593C192.077 333.106 191.791 333.802 191.791 334.527Z" fill="white" fill-opacity="0.3"/>
<path d="M190.657 334.527C190.657 335.294 190.883 336.043 191.307 336.68C191.73 337.317 192.332 337.813 193.036 338.106C193.74 338.4 194.515 338.476 195.263 338.327C196.01 338.177 196.697 337.808 197.236 337.267C197.775 336.725 198.142 336.035 198.29 335.283C198.439 334.532 198.363 333.753 198.071 333.045C197.779 332.337 197.285 331.732 196.652 331.306C196.018 330.881 195.273 330.653 194.511 330.653C194.004 330.65 193.502 330.749 193.033 330.942C192.564 331.136 192.138 331.421 191.779 331.782C191.421 332.142 191.137 332.57 190.945 333.041C190.752 333.513 190.654 334.018 190.657 334.527Z" fill="white" fill-opacity="0.3"/>
<path d="M305.522 368.255C305.522 368.982 305.736 369.693 306.138 370.298C306.54 370.903 307.111 371.374 307.78 371.652C308.448 371.931 309.183 372.003 309.893 371.861C310.602 371.72 311.254 371.369 311.766 370.855C312.277 370.341 312.626 369.686 312.767 368.972C312.908 368.259 312.835 367.52 312.558 366.848C312.282 366.176 311.813 365.602 311.211 365.198C310.61 364.794 309.903 364.578 309.179 364.578C308.699 364.578 308.223 364.673 307.78 364.858C307.336 365.043 306.933 365.314 306.593 365.655C306.253 365.997 305.984 366.402 305.8 366.848C305.616 367.294 305.522 367.772 305.522 368.255Z" fill="white" fill-opacity="0.3"/>
<path d="M194.489 336.979C193.143 336.979 192.051 335.881 192.051 334.528C192.051 333.174 193.143 332.076 194.489 332.076C195.836 332.076 196.928 333.174 196.928 334.528C196.928 335.881 195.836 336.979 194.489 336.979Z" fill="white" fill-opacity="0.3"/>
<path d="M148.617 358.209C148.613 358.505 148.696 358.794 148.856 359.042C149.016 359.29 149.246 359.484 149.516 359.6C149.786 359.716 150.084 359.748 150.373 359.693C150.662 359.639 150.927 359.499 151.137 359.291C151.346 359.084 151.489 358.819 151.548 358.53C151.607 358.24 151.579 357.94 151.468 357.667C151.356 357.394 151.166 357.16 150.923 356.995C150.679 356.831 150.392 356.743 150.098 356.743C149.904 356.74 149.712 356.776 149.533 356.848C149.353 356.92 149.19 357.028 149.052 357.165C148.915 357.301 148.805 357.464 148.73 357.643C148.656 357.822 148.617 358.015 148.617 358.209Z" fill="white" fill-opacity="0.3"/>
<path d="M89.901 410.497C89.0232 410.497 88.3117 409.782 88.3117 408.899C88.3117 408.017 89.0232 407.302 89.901 407.302C90.7787 407.302 91.4902 408.017 91.4902 408.899C91.4902 409.782 90.7787 410.497 89.901 410.497Z" fill="white" fill-opacity="0.3"/>
<path d="M178.88 386.18C178.147 386.18 177.552 385.583 177.552 384.845C177.552 384.108 178.147 383.51 178.88 383.51C179.613 383.51 180.208 384.108 180.208 384.845C180.208 385.583 179.613 386.18 178.88 386.18Z" fill="white" fill-opacity="0.3"/>
<path d="M148.316 358.209C148.289 358.46 148.314 358.714 148.391 358.954C148.467 359.195 148.593 359.416 148.761 359.604C148.928 359.792 149.133 359.943 149.362 360.046C149.591 360.149 149.84 360.202 150.091 360.202C150.342 360.202 150.59 360.149 150.819 360.046C151.048 359.943 151.253 359.792 151.421 359.604C151.588 359.416 151.714 359.195 151.791 358.954C151.867 358.714 151.893 358.46 151.865 358.209C151.817 357.77 151.609 357.364 151.281 357.07C150.954 356.775 150.53 356.612 150.091 356.612C149.651 356.612 149.227 356.775 148.9 357.07C148.573 357.364 148.365 357.77 148.316 358.209Z" fill="white" fill-opacity="0.3"/>
<path d="M147.618 358.209C147.614 358.704 147.756 359.188 148.026 359.601C148.296 360.014 148.682 360.338 149.135 360.53C149.588 360.722 150.088 360.775 150.571 360.681C151.054 360.587 151.498 360.351 151.847 360.003C152.197 359.655 152.435 359.211 152.533 358.726C152.63 358.241 152.582 357.739 152.395 357.281C152.208 356.824 151.89 356.433 151.481 356.158C151.073 355.883 150.592 355.736 150.1 355.736C149.775 355.733 149.453 355.795 149.152 355.918C148.851 356.041 148.577 356.223 148.347 356.453C148.116 356.682 147.933 356.956 147.808 357.258C147.683 357.559 147.618 357.883 147.618 358.209Z" fill="white" fill-opacity="0.3"/>
<path d="M191.377 334.527C191.377 335.146 191.56 335.751 191.902 336.266C192.244 336.781 192.73 337.182 193.299 337.419C193.868 337.656 194.494 337.718 195.098 337.597C195.702 337.476 196.256 337.178 196.692 336.74C197.127 336.303 197.424 335.745 197.544 335.138C197.664 334.531 197.602 333.901 197.367 333.33C197.131 332.758 196.732 332.269 196.22 331.925C195.708 331.581 195.106 331.397 194.49 331.397C193.665 331.397 192.873 331.727 192.289 332.314C191.705 332.901 191.377 333.697 191.377 334.527Z" fill="white" fill-opacity="0.3"/>
<path d="M170.152 384.846C170.152 386.577 170.662 388.27 171.619 389.709C172.576 391.149 173.936 392.271 175.527 392.934C177.119 393.597 178.87 393.77 180.559 393.432C182.248 393.094 183.8 392.261 185.018 391.036C186.236 389.812 187.065 388.252 187.401 386.554C187.737 384.855 187.565 383.095 186.906 381.495C186.246 379.896 185.13 378.528 183.698 377.566C182.266 376.604 180.582 376.091 178.86 376.091C176.55 376.091 174.335 377.013 172.702 378.655C171.069 380.297 170.152 382.524 170.152 384.846Z" fill="white" fill-opacity="0.3"/>
<path d="M150.076 361.733C148.14 361.733 146.571 360.155 146.571 358.209C146.571 356.263 148.14 354.686 150.076 354.686C152.012 354.686 153.581 356.263 153.581 358.209C153.581 360.155 152.012 361.733 150.076 361.733Z" fill="white" fill-opacity="0.3"/>
<path d="M95.9557 301.391C95.9557 302.257 96.211 303.103 96.6894 303.823C97.1679 304.543 97.8479 305.104 98.6436 305.435C99.4392 305.766 100.315 305.853 101.159 305.684C102.004 305.515 102.78 305.098 103.389 304.486C103.998 303.874 104.412 303.094 104.58 302.245C104.748 301.396 104.662 300.516 104.333 299.716C104.003 298.916 103.445 298.232 102.729 297.751C102.013 297.27 101.171 297.013 100.31 297.013C99.1551 297.013 98.0476 297.475 97.231 298.296C96.4144 299.116 95.9557 300.23 95.9557 301.391Z" fill="white" fill-opacity="0.3"/>
<path d="M28.0055 362.565C25.9013 362.565 24.1955 360.85 24.1955 358.735C24.1955 356.619 25.9013 354.904 28.0055 354.904C30.1097 354.904 31.8154 356.619 31.8154 358.735C31.8154 360.85 30.1097 362.565 28.0055 362.565Z" fill="white" fill-opacity="0.3"/>
<path d="M89.9007 410.519C89.0109 410.519 88.2896 409.794 88.2896 408.899C88.2896 408.005 89.0109 407.28 89.9007 407.28C90.7904 407.28 91.5117 408.005 91.5117 408.899C91.5117 409.794 90.7904 410.519 89.9007 410.519Z" fill="white" fill-opacity="0.3"/>
<path d="M100.222 303.864C98.8638 303.864 97.7623 302.757 97.7623 301.391C97.7623 300.025 98.8638 298.917 100.222 298.917C101.581 298.917 102.683 300.025 102.683 301.391C102.683 302.757 101.581 303.864 100.222 303.864Z" fill="white" fill-opacity="0.3"/>
<path d="M92.6216 301.391C92.6173 302.907 93.0605 304.39 93.8952 305.653C94.7298 306.915 95.9184 307.901 97.3104 308.484C98.7024 309.067 100.235 309.222 101.715 308.929C103.194 308.636 104.554 307.908 105.622 306.837C106.69 305.767 107.418 304.402 107.713 302.915C108.009 301.429 107.859 299.887 107.283 298.486C106.707 297.085 105.731 295.888 104.477 295.045C103.224 294.202 101.75 293.752 100.242 293.752C98.2244 293.752 96.2895 294.556 94.8611 295.988C93.4327 297.42 92.6274 299.363 92.6216 301.391Z" fill="white" fill-opacity="0.5"/>
<path d="M146.985 358.209C146.976 358.834 147.154 359.447 147.495 359.969C147.835 360.491 148.324 360.899 148.897 361.14C149.47 361.38 150.102 361.443 150.711 361.32C151.32 361.197 151.879 360.894 152.315 360.449C152.751 360.004 153.045 359.439 153.158 358.825C153.272 358.211 153.2 357.576 152.953 357.004C152.705 356.431 152.292 355.946 151.768 355.611C151.244 355.276 150.632 355.106 150.011 355.123C149.208 355.146 148.445 355.48 147.881 356.055C147.317 356.63 146.996 357.402 146.985 358.209Z" fill="white" fill-opacity="0.3"/>
<path d="M86.7223 408.899C86.7224 409.536 86.9106 410.159 87.2632 410.689C87.6159 411.218 88.117 411.631 88.703 411.874C89.2891 412.116 89.9337 412.179 90.5551 412.053C91.1765 411.927 91.7467 411.618 92.1934 411.166C92.6401 410.714 92.9432 410.139 93.0642 409.513C93.1852 408.888 93.1187 408.24 92.8732 407.653C92.6276 407.065 92.214 406.564 91.6848 406.213C91.1557 405.862 90.5348 405.677 89.901 405.682C89.4817 405.682 89.0665 405.765 88.6795 405.927C88.2924 406.089 87.941 406.326 87.6456 406.625C87.3501 406.924 87.1165 407.279 86.958 407.669C86.7995 408.06 86.7195 408.478 86.7223 408.899Z" fill="white" fill-opacity="0.3"/>
<path d="M98.5912 301.391C98.5912 301.72 98.6882 302.041 98.87 302.315C99.0518 302.588 99.3102 302.802 99.6126 302.927C99.9149 303.053 100.248 303.086 100.569 303.022C100.89 302.958 101.184 302.8 101.416 302.567C101.647 302.334 101.805 302.038 101.869 301.715C101.932 301.393 101.9 301.058 101.774 300.754C101.649 300.45 101.437 300.19 101.165 300.008C100.893 299.825 100.573 299.727 100.246 299.727C100.029 299.727 99.8133 299.77 99.6126 299.854C99.4118 299.937 99.2294 300.06 99.0758 300.214C98.9221 300.369 98.8003 300.552 98.7171 300.754C98.634 300.956 98.5912 301.172 98.5912 301.391Z" fill="white" fill-opacity="0.3"/>
<path d="M26.0465 358.734C26.0465 359.129 26.1632 359.515 26.3819 359.843C26.6006 360.171 26.9113 360.426 27.2746 360.577C27.6379 360.727 28.0373 360.765 28.4222 360.686C28.8071 360.608 29.16 360.416 29.4362 360.135C29.7124 359.854 29.8994 359.497 29.9733 359.109C30.0473 358.722 30.005 358.321 29.8517 357.957C29.6984 357.593 29.4411 357.284 29.1124 357.068C28.7837 356.852 28.3986 356.738 28.0058 356.743C27.7467 356.743 27.4901 356.794 27.2509 356.895C27.0118 356.995 26.7948 357.142 26.6126 357.327C26.4304 357.513 26.2865 357.732 26.1893 357.974C26.0921 358.215 26.0436 358.474 26.0465 358.734Z" fill="white" fill-opacity="0.3"/>
<path d="M97.4781 301.391C97.4441 301.775 97.49 302.162 97.613 302.528C97.7359 302.893 97.9332 303.229 98.1923 303.513C98.4513 303.798 98.7664 304.025 99.1176 304.181C99.4688 304.336 99.8484 304.417 100.232 304.417C100.616 304.417 100.995 304.336 101.347 304.181C101.698 304.025 102.013 303.798 102.272 303.513C102.531 303.229 102.728 302.893 102.851 302.528C102.974 302.162 103.02 301.775 102.986 301.391C102.925 300.699 102.608 300.055 102.099 299.586C101.589 299.117 100.923 298.857 100.232 298.857C99.5413 298.857 98.8755 299.117 98.3657 299.586C97.856 300.055 97.5393 300.699 97.4781 301.391Z" fill="white" fill-opacity="0.3"/>
<path d="M23.7406 358.734C23.7363 359.567 23.9783 360.383 24.4359 361.077C24.8936 361.771 25.5462 362.313 26.3109 362.634C27.0756 362.955 27.9179 363.04 28.7307 362.879C29.5436 362.717 30.2904 362.316 30.8763 361.727C31.4622 361.138 31.8607 360.388 32.0213 359.57C32.1819 358.753 32.0973 357.907 31.7782 357.138C31.4591 356.369 30.92 355.713 30.2293 355.253C29.5386 354.793 28.7274 354.549 27.8988 354.554C26.796 354.554 25.7383 354.994 24.9585 355.778C24.1786 356.562 23.7406 357.625 23.7406 358.734Z" fill="white" fill-opacity="0.3"/>
<path d="M976.223 360.201C976.223 361.573 976.764 362.889 977.727 363.861C978.69 364.833 979.996 365.382 981.361 365.388C982.038 365.388 982.707 365.254 983.332 364.993C983.957 364.732 984.524 364.349 985.002 363.867C985.479 363.385 985.857 362.813 986.114 362.184C986.371 361.555 986.502 360.881 986.499 360.201C986.476 358.846 985.925 357.555 984.964 356.605C984.003 355.655 982.709 355.123 981.361 355.123C980.013 355.123 978.719 355.655 977.758 356.605C976.797 357.555 976.246 358.846 976.223 360.201Z" fill="white" fill-opacity="0.3"/>
<path d="M618.81 413.78C618.806 414.596 619.043 415.394 619.491 416.074C619.939 416.754 620.578 417.285 621.327 417.599C622.076 417.913 622.9 417.997 623.696 417.838C624.492 417.68 625.224 417.288 625.797 416.711C626.371 416.135 626.761 415.399 626.919 414.599C627.076 413.799 626.993 412.97 626.68 412.217C626.368 411.464 625.84 410.822 625.163 410.371C624.487 409.921 623.693 409.683 622.881 409.687C621.802 409.687 620.766 410.118 620.003 410.886C619.239 411.653 618.81 412.694 618.81 413.78Z" fill="white" fill-opacity="0.3"/>
<path d="M620.139 413.78C620.139 414.33 620.302 414.869 620.607 415.326C620.911 415.784 621.345 416.14 621.851 416.35C622.358 416.56 622.915 416.613 623.452 416.504C623.988 416.395 624.481 416.128 624.867 415.737C625.253 415.346 625.514 414.849 625.618 414.308C625.723 413.768 625.665 413.208 625.452 412.701C625.24 412.193 624.882 411.761 624.424 411.458C623.967 411.155 623.43 410.996 622.882 411C622.52 411 622.162 411.072 621.827 411.212C621.493 411.352 621.19 411.557 620.935 411.816C620.68 412.074 620.478 412.381 620.342 412.718C620.205 413.055 620.136 413.416 620.139 413.78Z" fill="white" fill-opacity="0.5"/>
<path d="M622.88 415.399C621.99 415.399 621.269 414.674 621.269 413.78C621.269 412.885 621.99 412.16 622.88 412.16C623.77 412.16 624.491 412.885 624.491 413.78C624.491 414.674 623.77 415.399 622.88 415.399Z" fill="white" fill-opacity="0.3"/>
<path d="M622.878 416.735C621.255 416.735 619.939 415.412 619.939 413.78C619.939 412.148 621.255 410.825 622.878 410.825C624.502 410.825 625.817 412.148 625.817 413.78C625.817 415.412 624.502 416.735 622.878 416.735Z" fill="white" fill-opacity="0.5"/>
<path d="M503.947 403.275C503.943 403.743 504.077 404.202 504.333 404.594C504.588 404.985 504.954 405.292 505.383 405.474C505.812 405.656 506.286 405.706 506.743 405.617C507.201 405.529 507.622 405.305 507.953 404.976C508.284 404.646 508.51 404.225 508.603 403.766C508.695 403.307 508.65 402.83 508.473 402.397C508.295 401.964 507.994 401.593 507.607 401.333C507.22 401.072 506.764 400.933 506.298 400.933C505.678 400.933 505.084 401.179 504.643 401.617C504.203 402.056 503.953 402.651 503.947 403.275Z" fill="white" fill-opacity="0.3"/>
<path d="M500.528 403.274C500.528 404.426 500.868 405.551 501.504 406.509C502.14 407.466 503.045 408.212 504.103 408.653C505.161 409.093 506.326 409.209 507.449 408.984C508.572 408.759 509.604 408.205 510.414 407.391C511.224 406.577 511.776 405.539 511.999 404.41C512.223 403.281 512.108 402.11 511.67 401.046C511.231 399.982 510.489 399.073 509.537 398.433C508.584 397.794 507.465 397.452 506.319 397.452C504.783 397.452 503.31 398.066 502.224 399.157C501.138 400.249 500.528 401.73 500.528 403.274Z" fill="white" fill-opacity="0.3"/>
<path d="M503.402 403.274C503.398 403.851 503.564 404.416 503.88 404.898C504.195 405.379 504.646 405.756 505.175 405.979C505.703 406.203 506.286 406.264 506.849 406.154C507.412 406.044 507.93 405.769 508.338 405.362C508.745 404.956 509.023 404.438 509.136 403.872C509.25 403.307 509.194 402.721 508.975 402.187C508.757 401.654 508.385 401.198 507.909 400.878C507.432 400.557 506.871 400.385 506.298 400.385C505.919 400.382 505.543 400.455 505.191 400.599C504.84 400.743 504.521 400.955 504.252 401.224C503.983 401.492 503.769 401.812 503.623 402.164C503.477 402.516 503.402 402.893 503.402 403.274Z" fill="white" fill-opacity="0.3"/>
<path d="M620.617 413.78C620.617 414.213 620.745 414.636 620.984 414.996C621.224 415.356 621.564 415.636 621.961 415.802C622.359 415.968 622.797 416.011 623.219 415.927C623.642 415.842 624.03 415.634 624.334 415.328C624.638 415.022 624.846 414.632 624.93 414.207C625.014 413.782 624.971 413.342 624.806 412.942C624.641 412.542 624.362 412.201 624.004 411.96C623.646 411.72 623.225 411.591 622.795 411.591C622.217 411.591 621.663 411.822 621.255 412.232C620.847 412.643 620.617 413.2 620.617 413.78Z" fill="white" fill-opacity="0.3"/>
<path d="M504.882 403.274C504.877 403.565 504.959 403.851 505.117 404.095C505.274 404.339 505.501 404.53 505.767 404.644C506.033 404.759 506.327 404.791 506.611 404.737C506.896 404.683 507.158 404.545 507.364 404.341C507.57 404.137 507.711 403.875 507.769 403.59C507.827 403.305 507.8 403.009 507.69 402.74C507.58 402.471 507.393 402.24 507.153 402.078C506.913 401.916 506.63 401.83 506.34 401.83C505.957 401.83 505.589 401.981 505.317 402.251C505.044 402.522 504.887 402.889 504.882 403.274Z" fill="white" fill-opacity="0.3"/>
<path d="M481.39 362.849C481.101 362.849 480.867 362.614 480.867 362.324C480.867 362.034 481.101 361.799 481.39 361.799C481.678 361.799 481.912 362.034 481.912 362.324C481.912 362.614 481.678 362.849 481.39 362.849Z" fill="white" fill-opacity="0.3"/>
<path d="M479.712 362.324C479.759 362.741 479.957 363.125 480.269 363.405C480.58 363.684 480.982 363.838 481.399 363.838C481.817 363.838 482.219 363.684 482.53 363.405C482.842 363.125 483.04 362.741 483.087 362.324C483.114 362.085 483.09 361.843 483.018 361.614C482.945 361.385 482.826 361.174 482.666 360.994C482.507 360.815 482.312 360.671 482.094 360.573C481.875 360.475 481.639 360.424 481.399 360.424C481.16 360.424 480.924 360.475 480.705 360.573C480.487 360.671 480.292 360.815 480.133 360.994C479.973 361.174 479.854 361.385 479.781 361.614C479.709 361.843 479.685 362.085 479.712 362.324Z" fill="white" fill-opacity="0.3"/>
<path d="M478.17 362.324C478.17 363.195 478.514 364.03 479.126 364.646C479.739 365.261 480.569 365.607 481.436 365.607C482.302 365.607 483.132 365.261 483.745 364.646C484.357 364.03 484.701 363.195 484.701 362.324C484.701 361.453 484.357 360.618 483.745 360.003C483.132 359.387 482.302 359.041 481.436 359.041C480.569 359.041 479.739 359.387 479.126 360.003C478.514 360.618 478.17 361.453 478.17 362.324Z" fill="white" fill-opacity="0.3"/>
<path d="M503.466 403.275C503.466 403.837 503.631 404.387 503.942 404.855C504.253 405.323 504.695 405.688 505.213 405.903C505.73 406.119 506.299 406.175 506.848 406.065C507.397 405.955 507.901 405.684 508.297 405.286C508.693 404.889 508.962 404.382 509.072 403.83C509.181 403.278 509.125 402.706 508.911 402.186C508.696 401.666 508.334 401.221 507.868 400.909C507.403 400.596 506.855 400.429 506.296 400.429C505.547 400.435 504.83 400.737 504.301 401.269C503.771 401.801 503.471 402.522 503.466 403.275Z" fill="white" fill-opacity="0.3"/>
<path d="M481.39 364.491C480.199 364.491 479.234 363.521 479.234 362.324C479.234 361.127 480.199 360.157 481.39 360.157C482.58 360.157 483.545 361.127 483.545 362.324C483.545 363.521 482.58 364.491 481.39 364.491Z" fill="white" fill-opacity="0.5"/>
<path d="M481.391 365.519C479.635 365.519 478.212 364.089 478.212 362.324C478.212 360.559 479.635 359.128 481.391 359.128C483.146 359.128 484.569 360.559 484.569 362.324C484.569 364.089 483.146 365.519 481.391 365.519Z" fill="white" fill-opacity="0.3"/>
<path d="M306.261 368.255C306.257 368.841 306.426 369.416 306.748 369.905C307.069 370.394 307.528 370.776 308.066 371.003C308.604 371.229 309.196 371.289 309.769 371.176C310.341 371.063 310.866 370.781 311.279 370.366C311.691 369.952 311.972 369.423 312.084 368.848C312.197 368.273 312.137 367.677 311.912 367.136C311.687 366.595 311.307 366.134 310.82 365.811C310.333 365.488 309.762 365.318 309.179 365.322C308.407 365.328 307.668 365.639 307.122 366.188C306.576 366.736 306.267 367.479 306.261 368.255Z" fill="white" fill-opacity="0.5"/>
<path d="M309.18 371.735C307.268 371.735 305.718 370.177 305.718 368.255C305.718 366.333 307.268 364.775 309.18 364.775C311.092 364.775 312.642 366.333 312.642 368.255C312.642 370.177 311.092 371.735 309.18 371.735Z" fill="white" fill-opacity="0.3"/>
<path d="M303.041 368.255C303.041 369.481 303.403 370.679 304.081 371.699C304.759 372.718 305.722 373.511 306.849 373.98C307.976 374.448 309.216 374.569 310.412 374.328C311.608 374.088 312.706 373.496 313.566 372.627C314.427 371.759 315.012 370.653 315.248 369.45C315.483 368.247 315.358 367.001 314.888 365.87C314.418 364.738 313.625 363.772 312.609 363.094C311.593 362.416 310.4 362.057 309.18 362.061C307.55 362.067 305.988 362.722 304.838 363.883C303.687 365.044 303.041 366.616 303.041 368.255Z" fill="white" fill-opacity="0.3"/>
<path d="M304.37 368.255C304.365 369.218 304.646 370.16 305.175 370.963C305.705 371.765 306.459 372.391 307.343 372.762C308.227 373.132 309.201 373.23 310.141 373.043C311.08 372.857 311.943 372.393 312.621 371.713C313.298 371.032 313.759 370.164 313.944 369.219C314.13 368.275 314.033 367.296 313.664 366.407C313.296 365.519 312.673 364.76 311.875 364.228C311.076 363.696 310.139 363.414 309.181 363.418C307.905 363.418 306.681 363.928 305.779 364.835C304.877 365.742 304.37 366.972 304.37 368.255Z" fill="white" fill-opacity="0.5"/>
<path d="M174.896 384.846C174.896 385.643 175.132 386.423 175.573 387.085C176.014 387.748 176.641 388.264 177.374 388.568C178.108 388.872 178.914 388.951 179.692 388.794C180.47 388.637 181.183 388.251 181.743 387.685C182.302 387.12 182.682 386.4 182.834 385.618C182.986 384.835 182.903 384.025 182.597 383.289C182.29 382.554 181.774 381.926 181.112 381.486C180.45 381.047 179.674 380.814 178.881 380.818C178.356 380.818 177.836 380.923 177.351 381.125C176.866 381.328 176.426 381.625 176.056 381.999C175.685 382.374 175.392 382.818 175.193 383.306C174.994 383.795 174.894 384.318 174.896 384.846Z" fill="white" fill-opacity="0.3"/>
<path d="M178.879 390.23C175.921 390.23 173.523 387.819 173.523 384.846C173.523 381.872 175.921 379.461 178.879 379.461C181.837 379.461 184.234 381.872 184.234 384.846C184.234 387.819 181.837 390.23 178.879 390.23Z" fill="white" fill-opacity="0.3"/>
<path d="M175.42 384.846C175.42 385.534 175.623 386.207 176.003 386.779C176.383 387.351 176.924 387.797 177.556 388.061C178.189 388.324 178.885 388.393 179.556 388.259C180.228 388.125 180.845 387.793 181.329 387.306C181.813 386.82 182.143 386.2 182.276 385.525C182.41 384.85 182.341 384.15 182.079 383.514C181.817 382.878 181.374 382.335 180.804 381.952C180.235 381.57 179.566 381.366 178.881 381.366C177.963 381.366 177.083 381.732 176.433 382.385C175.784 383.038 175.42 383.923 175.42 384.846Z" fill="white" fill-opacity="0.3"/>
<path d="M309.182 371.319C307.498 371.319 306.134 369.947 306.134 368.255C306.134 366.563 307.498 365.191 309.182 365.191C310.865 365.191 312.229 366.563 312.229 368.255C312.229 369.947 310.865 371.319 309.182 371.319Z" fill="white" fill-opacity="0.5"/>
<path d="M176.138 384.845C176.138 385.387 176.298 385.917 176.598 386.368C176.898 386.818 177.325 387.169 177.823 387.375C178.322 387.581 178.87 387.634 179.399 387.527C179.927 387.42 180.412 387.157 180.792 386.772C181.171 386.387 181.429 385.898 181.531 385.366C181.634 384.833 181.577 384.283 181.368 383.783C181.158 383.284 180.806 382.858 180.356 382.56C179.905 382.262 179.377 382.105 178.838 382.109C178.481 382.109 178.129 382.18 177.8 382.318C177.471 382.456 177.172 382.658 176.921 382.912C176.67 383.166 176.472 383.468 176.337 383.8C176.203 384.132 176.135 384.487 176.138 384.845Z" fill="white" fill-opacity="0.3"/>
<path d="M89.904 410.563C88.9902 410.563 88.2494 409.818 88.2494 408.899C88.2494 407.981 88.9902 407.236 89.904 407.236C90.8178 407.236 91.5586 407.981 91.5586 408.899C91.5586 409.818 90.8178 410.563 89.904 410.563Z" fill="white" fill-opacity="0.3"/>
<path d="M89.9019 409.753C89.433 409.753 89.0528 409.37 89.0528 408.899C89.0528 408.428 89.433 408.045 89.9019 408.045C90.3709 408.045 90.751 408.428 90.751 408.899C90.751 409.37 90.3709 409.753 89.9019 409.753Z" fill="white" fill-opacity="0.3"/>
<path d="M89.9013 414.349C86.9073 414.349 84.4802 411.909 84.4802 408.899C84.4802 405.889 86.9073 403.449 89.9013 403.449C92.8952 403.449 95.3223 405.889 95.3223 408.899C95.3223 411.909 92.8952 414.349 89.9013 414.349Z" fill="white" fill-opacity="0.3"/>
<path d="M175.374 384.845C175.37 385.548 175.573 386.237 175.959 386.823C176.345 387.41 176.896 387.867 177.541 388.139C178.186 388.41 178.897 388.482 179.584 388.346C180.27 388.209 180.9 387.871 181.395 387.374C181.889 386.877 182.226 386.243 182.361 385.553C182.496 384.863 182.425 384.149 182.155 383.5C181.885 382.851 181.43 382.298 180.847 381.91C180.263 381.522 179.579 381.317 178.879 381.321C177.951 381.327 177.063 381.7 176.407 382.36C175.751 383.019 175.38 383.912 175.374 384.845Z" fill="white" fill-opacity="0.3"/>
<path d="M84.2872 408.899C84.2786 410.022 84.6019 411.122 85.2162 412.06C85.8306 412.998 86.7082 413.731 87.7378 414.167C88.7673 414.603 89.9024 414.721 90.9991 414.508C92.0957 414.294 93.1045 413.758 93.8974 412.967C94.6904 412.176 95.2317 411.166 95.4529 410.065C95.674 408.964 95.5649 407.822 95.1395 406.784C94.714 405.745 93.9913 404.857 93.0631 404.232C92.1349 403.608 91.043 403.274 89.9259 403.274C89.1883 403.271 88.4574 403.414 87.7748 403.695C87.0922 403.977 86.4713 404.39 85.9477 404.912C85.4241 405.435 85.008 406.056 84.7231 406.74C84.4382 407.424 84.2901 408.157 84.2872 408.899Z" fill="white" fill-opacity="0.3"/>
<path d="M24.1327 358.734C24.1327 359.51 24.3619 360.268 24.7911 360.913C25.2202 361.558 25.8301 362.06 26.5435 362.356C27.2568 362.652 28.0415 362.728 28.7981 362.575C29.5546 362.422 30.2489 362.047 30.7931 361.497C31.3372 360.947 31.7066 360.246 31.8545 359.485C32.0024 358.724 31.9221 357.935 31.6238 357.22C31.3255 356.504 30.8227 355.894 30.179 355.466C29.5352 355.038 28.7796 354.812 28.008 354.816C26.9782 354.822 25.9926 355.238 25.2664 355.972C24.5403 356.706 24.1327 357.699 24.1327 358.734Z" fill="white" fill-opacity="0.5"/>
<path d="M28.0064 363.09C25.6136 363.09 23.674 361.14 23.674 358.734C23.674 356.329 25.6136 354.379 28.0064 354.379C30.3991 354.379 32.3389 356.329 32.3389 358.734C32.3389 361.14 30.3991 363.09 28.0064 363.09Z" fill="white" fill-opacity="0.5"/>
<path d="M22.2812 358.734C22.2856 359.873 22.6248 360.986 23.2561 361.932C23.8874 362.877 24.7827 363.615 25.8295 364.05C26.8763 364.486 28.028 364.601 29.1396 364.381C30.2513 364.161 31.2734 363.616 32.0776 362.813C32.8818 362.011 33.4322 360.987 33.6595 359.871C33.8868 358.755 33.781 357.597 33.3553 356.541C32.9297 355.486 32.2031 354.58 31.2671 353.938C30.331 353.297 29.2271 352.947 28.0941 352.934C27.3312 352.923 26.5737 353.064 25.8661 353.351C25.1584 353.638 24.5149 354.064 23.9734 354.604C23.4319 355.145 23.0032 355.788 22.7126 356.498C22.422 357.207 22.2753 357.967 22.2812 358.734Z" fill="white" fill-opacity="0.3"/>
<path d="M89.0549 408.899C89.0506 409.078 89.0998 409.255 89.1962 409.406C89.2926 409.557 89.4318 409.675 89.5957 409.746C89.7597 409.816 89.941 409.836 90.1161 409.802C90.2913 409.768 90.4523 409.682 90.5784 409.555C90.7046 409.429 90.79 409.267 90.8237 409.091C90.8575 408.914 90.838 408.732 90.7677 408.567C90.6975 408.403 90.5798 408.263 90.4297 408.166C90.2796 408.069 90.104 408.019 89.9257 408.024C89.6948 408.024 89.4733 408.116 89.31 408.28C89.1466 408.444 89.0549 408.667 89.0549 408.899Z" fill="white" fill-opacity="0.5"/>
<path d="M27.1599 358.735C27.1925 358.94 27.297 359.128 27.4547 359.263C27.6123 359.398 27.8126 359.472 28.0198 359.472C28.227 359.472 28.4274 359.398 28.585 359.263C28.7426 359.128 28.8471 358.94 28.8797 358.735C28.8996 358.61 28.8922 358.482 28.8581 358.36C28.8241 358.238 28.7641 358.125 28.6823 358.029C28.6006 357.932 28.499 357.855 28.3846 357.802C28.2702 357.749 28.1458 357.721 28.0198 357.721C27.8938 357.721 27.7694 357.749 27.655 357.802C27.5406 357.855 27.439 357.932 27.3573 358.029C27.2755 358.125 27.2155 358.238 27.1815 358.36C27.1474 358.482 27.14 358.61 27.1599 358.735Z" fill="white" fill-opacity="0.3"/>
<path d="M26.0685 358.735C26.0685 359.125 26.184 359.507 26.4003 359.831C26.6166 360.156 26.9239 360.408 27.2832 360.556C27.6425 360.705 28.0376 360.743 28.4182 360.665C28.7989 360.587 29.148 360.397 29.4212 360.12C29.6943 359.842 29.8791 359.489 29.9523 359.105C30.0254 358.722 29.9835 358.325 29.8318 357.965C29.6802 357.606 29.4257 357.3 29.1006 357.086C28.7755 356.872 28.3945 356.76 28.0061 356.765C27.7498 356.765 27.4961 356.816 27.2596 356.915C27.0231 357.014 26.8085 357.16 26.6283 357.343C26.4481 357.526 26.3058 357.744 26.2097 357.982C26.1136 358.221 26.0656 358.477 26.0685 358.735Z" fill="white" fill-opacity="0.3"/>
</g>
</svg>
