<svg width="1512" height="413" viewBox="0 0 1512 413" fill="none" xmlns="http://www.w3.org/2000/svg">
<mask id="mask0_190_20253" style="mask-type:alpha" maskUnits="userSpaceOnUse" x="0" y="0" width="1512" height="413">
<rect width="1512" height="413" fill="#394C60"/>
</mask>
<g mask="url(#mask0_190_20253)">
<path d="M-68.3076 12.9L70.396 10.0109C70.4463 10.0113 70.4957 9.99703 70.5382 9.96985C70.5807 9.94267 70.6145 9.90372 70.6355 9.8577C70.6622 9.81111 70.6763 9.75827 70.6763 9.70448C70.6763 9.6507 70.6622 9.59786 70.6355 9.55128L-9.04672 -91.1284C-9.09113 -91.1605 -9.14445 -91.1777 -9.19913 -91.1777C-9.25381 -91.1777 -9.30713 -91.1605 -9.35155 -91.1284C-9.38633 -91.1152 -9.41788 -91.0948 -9.44416 -91.0683C-9.47044 -91.0419 -9.49079 -91.0102 -9.50389 -90.9752L-68.5036 12.5498C-68.5248 12.5942 -68.5358 12.6428 -68.5358 12.692C-68.5358 12.7413 -68.5248 12.7899 -68.5036 12.8343C-68.4478 12.8785 -68.3785 12.9017 -68.3076 12.9ZM69.83 9.46373L-67.8287 12.3528L-9.26444 -90.5156L69.83 9.46373Z" fill="white" fill-opacity="0.3"/>
<path d="M70.3976 10.0109H70.5065C70.5616 9.98337 70.6062 9.93858 70.6337 9.8833C70.6612 9.82802 70.67 9.76524 70.6589 9.70445L62.1682 -33.8286C62.1865 -33.878 62.1865 -33.9324 62.1682 -33.9818L-9.02325 -91.1066C-9.0669 -91.1296 -9.11547 -91.1416 -9.16476 -91.1416C-9.21406 -91.1416 -9.26262 -91.1296 -9.30628 -91.1066C-9.35786 -91.085 -9.40192 -91.0485 -9.43291 -91.0018C-9.46391 -90.955 -9.48048 -90.9001 -9.48048 -90.8439C-9.49924 -90.7796 -9.49924 -90.7113 -9.48048 -90.6469L70.2017 10.0328C70.2674 10.0515 70.3377 10.0436 70.3976 10.0109ZM61.6892 -33.6316L69.9405 8.67577L-7.58641 -89.1805L61.6892 -33.6316Z" fill="white" fill-opacity="0.3"/>
<path d="M87.8565 55.9077C87.9201 55.9294 87.9889 55.9294 88.0525 55.9077C88.0792 55.8612 88.0933 55.8083 88.0933 55.7545C88.0933 55.7008 88.0792 55.6479 88.0525 55.6013L70.6356 9.74829C70.6356 9.74829 70.6356 9.74829 70.6356 9.63885C70.5913 9.59731 70.5329 9.57422 70.4723 9.57422C70.4117 9.57422 70.3534 9.59731 70.309 9.63885L21.4764 30.9129C21.4305 30.9396 21.3923 30.9778 21.3656 31.0239C21.3388 31.07 21.3246 31.1222 21.3241 31.1756C21.3586 31.2001 21.3988 31.2151 21.4409 31.2189C21.483 31.2228 21.5253 31.2153 21.5635 31.1974L87.7694 55.9077H87.8565ZM70.2219 10.0985L87.3993 55.273L22.3038 31.1974L70.2219 10.0985Z" fill="white" fill-opacity="0.3"/>
<path d="M-15.7289 60.0663C-15.6795 60.083 -15.6259 60.083 -15.5765 60.0663L21.7391 31.1975C21.7663 31.1551 21.7808 31.1057 21.7808 31.0552C21.7808 31.0048 21.7663 30.9554 21.7391 30.913C21.7308 30.8638 21.7075 30.8184 21.6724 30.7831C21.6373 30.7478 21.5921 30.7243 21.5432 30.716L-68.3061 12.331C-68.3433 12.3175 -68.3831 12.3127 -68.4224 12.3169C-68.4618 12.3211 -68.4996 12.3343 -68.5332 12.3553C-68.5667 12.3764 -68.595 12.4049 -68.616 12.4386C-68.637 12.4723 -68.6502 12.5103 -68.6544 12.5499C-68.6797 12.5889 -68.6932 12.6346 -68.6932 12.6812C-68.6932 12.7278 -68.6797 12.7734 -68.6544 12.8125L-15.9249 60.0006C-15.8676 60.0419 -15.7993 60.0648 -15.7289 60.0663ZM20.9336 31.1975L-15.7289 59.4316L-67.3699 13.097L20.9336 31.1975Z" fill="white" fill-opacity="0.3"/>
<path d="M21.5613 31.1973L70.3939 9.92323C70.4467 9.89323 70.4895 9.84803 70.5166 9.79344C70.5438 9.73884 70.5541 9.67734 70.5463 9.61681C70.5322 9.5568 70.4991 9.50301 70.452 9.46354C70.4049 9.42406 70.3463 9.40105 70.285 9.39795L-68.3968 12.287C-68.4625 12.2868 -68.5258 12.3114 -68.5742 12.356C-68.6226 12.4007 -68.6526 12.462 -68.6581 12.5278C-68.6711 12.5944 -68.6581 12.6635 -68.6215 12.7207C-68.585 12.7778 -68.5279 12.8185 -68.4621 12.8342L21.5613 31.1973ZM69.0005 9.94512L21.5613 30.7377L-65.8279 12.8561L69.0005 9.94512Z" fill="white" fill-opacity="0.3"/>
<path d="M15.4677 136.692C15.5018 136.708 15.5389 136.716 15.5765 136.716C15.6141 136.716 15.6512 136.708 15.6853 136.692C15.7063 136.652 15.7173 136.607 15.7173 136.561C15.7173 136.515 15.7063 136.47 15.6853 136.429L-15.4473 59.6503C-15.4649 59.6001 -15.4972 59.5566 -15.54 59.5253C-15.5827 59.494 -15.6339 59.4766 -15.6868 59.4752C-15.7377 59.4717 -15.7884 59.4847 -15.8315 59.5123C-15.8746 59.5398 -15.9078 59.5805 -15.9263 59.6284L-34.6276 133.453C-34.6438 133.491 -34.6521 133.532 -34.6521 133.573C-34.6521 133.615 -34.6438 133.656 -34.6276 133.694L-34.4317 133.803L15.4459 136.648L15.4677 136.692ZM-15.6868 60.6571L15.0322 136.123L-34.0833 133.3L-15.6868 60.6571Z" fill="white" fill-opacity="0.3"/>
<path d="M-26.5929 230.631L97.7636 190.271C97.8134 190.254 97.8568 190.221 97.8879 190.178C97.919 190.135 97.9363 190.084 97.9377 190.03C97.9475 189.973 97.9378 189.913 97.9102 189.862C97.8826 189.81 97.8387 189.77 97.7853 189.746L-34.4087 133.3C-34.4557 133.275 -34.508 133.262 -34.5611 133.262C-34.6142 133.262 -34.6665 133.275 -34.7135 133.3C-34.7292 133.334 -34.7372 133.371 -34.7372 133.409C-34.7372 133.447 -34.7292 133.484 -34.7135 133.519L-26.8541 230.368C-26.855 230.411 -26.8456 230.453 -26.8266 230.491C-26.8077 230.529 -26.7798 230.562 -26.7453 230.587L-26.5929 230.631ZM97.0016 189.965L-26.3316 229.996L-34.1039 134.066L97.0016 189.965Z" fill="white" fill-opacity="0.3"/>
<path d="M97.7628 190.293C97.8121 190.289 97.8597 190.273 97.9014 190.246C97.9431 190.22 97.9777 190.183 98.0023 190.14C98.0451 190.092 98.0688 190.029 98.0688 189.965C98.0688 189.9 98.0451 189.838 98.0023 189.79L15.6205 136.254H15.4899L-34.3441 133.409C-34.3845 133.388 -34.4293 133.377 -34.4747 133.377C-34.5202 133.377 -34.565 133.388 -34.6054 133.409C-34.627 133.457 -34.6382 133.509 -34.6382 133.562C-34.6382 133.615 -34.627 133.667 -34.6054 133.715C-34.561 133.789 -34.4912 133.844 -34.4094 133.869L97.7628 190.271V190.293ZM15.381 136.692L94.9979 188.52L-32.8637 133.934L15.381 136.692Z" fill="white" fill-opacity="0.3"/>
<path d="M23.6322 278.673H23.741L102.639 243.041C102.695 243.018 102.741 242.978 102.772 242.927C102.804 242.876 102.818 242.816 102.814 242.756L98.0458 190.009C98.0466 189.964 98.0348 189.919 98.0117 189.881C97.9886 189.842 97.9551 189.811 97.9151 189.79C97.8787 189.769 97.8375 189.758 97.7954 189.758C97.7534 189.758 97.712 189.769 97.6756 189.79L23.5451 278.169C23.5063 278.219 23.4852 278.281 23.4852 278.344C23.4852 278.408 23.5063 278.47 23.5451 278.52C23.5586 278.578 23.5889 278.631 23.6322 278.673ZM102.248 242.603L24.6119 277.622L97.5668 190.687L102.248 242.603Z" fill="white" fill-opacity="0.3"/>
<path d="M23.6314 278.673C23.6818 278.673 23.7312 278.659 23.7737 278.632C23.8162 278.605 23.8499 278.566 23.8709 278.52C23.908 278.473 23.9282 278.415 23.9282 278.356C23.9282 278.296 23.908 278.238 23.8709 278.191L-26.3332 230.15C-26.3898 230.107 -26.4585 230.084 -26.5292 230.084C-26.5998 230.084 -26.6686 230.107 -26.7251 230.15C-26.7417 230.199 -26.7417 230.253 -26.7251 230.303L-32.6033 264.381C-32.6163 264.453 -32.6009 264.528 -32.5603 264.589C-32.5197 264.65 -32.4571 264.693 -32.3856 264.709L23.6967 278.651L23.6314 278.673ZM-26.4421 230.894L22.6517 277.885L-32.1897 264.228L-26.4421 230.894Z" fill="white" fill-opacity="0.3"/>
<path d="M23.6291 278.673C23.6936 278.688 23.7606 278.688 23.8251 278.673L97.9774 190.184C98.0145 190.138 98.0347 190.08 98.0347 190.02C98.0347 189.96 98.0145 189.902 97.9774 189.856C97.9345 189.82 97.8806 189.801 97.825 189.801C97.7694 189.801 97.7155 189.82 97.6726 189.856L-26.6621 230.193C-26.7122 230.181 -26.7644 230.181 -26.8145 230.193C-26.8501 230.245 -26.8692 230.306 -26.8692 230.368C-26.8692 230.431 -26.8501 230.492 -26.8145 230.544L23.4549 278.52C23.4703 278.557 23.494 278.59 23.5242 278.617C23.5544 278.643 23.5904 278.662 23.6291 278.673ZM96.9542 190.556L23.6074 277.994L-26.0743 230.478L96.9542 190.556Z" fill="white" fill-opacity="0.3"/>
<path d="M150.011 358.494H150.142L194.642 334.769C194.704 334.718 194.75 334.649 194.772 334.572C194.791 334.534 194.801 334.493 194.801 334.451C194.801 334.409 194.791 334.368 194.772 334.331L102.811 242.581C102.789 242.554 102.76 242.531 102.728 242.516C102.696 242.501 102.661 242.493 102.626 242.493C102.591 242.493 102.556 242.501 102.524 242.516C102.492 242.531 102.464 242.554 102.441 242.581C102.414 242.624 102.399 242.673 102.399 242.723C102.399 242.774 102.414 242.823 102.441 242.866L149.989 358.319C150.025 358.391 150.087 358.446 150.163 358.472L150.011 358.494ZM193.967 334.418L150.142 357.794L103.203 243.872L193.967 334.418Z" fill="white" fill-opacity="0.3"/>
<path d="M150.014 358.494C150.077 358.519 150.148 358.519 150.21 358.494C150.253 358.446 150.277 358.383 150.277 358.319C150.277 358.254 150.253 358.192 150.21 358.144L100.355 301.238C100.312 301.223 100.266 301.223 100.224 301.238L23.7421 278.147C23.6977 278.115 23.6444 278.098 23.5897 278.098C23.535 278.098 23.4817 278.115 23.4373 278.147C23.4163 278.188 23.4054 278.233 23.4054 278.278C23.4054 278.324 23.4163 278.369 23.4373 278.41C23.4623 278.492 23.5166 278.562 23.5897 278.607L150.014 358.45V358.494ZM99.9409 301.588L148.49 356.94L25.3314 279.198L99.9409 301.588Z" fill="white" fill-opacity="0.3"/>
<path d="M150.013 358.494C150.069 358.512 150.13 358.512 150.187 358.494C150.218 358.445 150.234 358.388 150.234 358.33C150.234 358.272 150.218 358.215 150.187 358.166L102.639 242.734C102.626 242.699 102.605 242.668 102.579 242.641C102.553 242.615 102.521 242.594 102.487 242.581H102.269L23.3921 278.191H23.2833C23.2405 278.239 23.2167 278.301 23.2167 278.366C23.2167 278.431 23.2405 278.493 23.2833 278.541C23.2757 278.577 23.2757 278.615 23.2833 278.651L150.013 358.45V358.494ZM102.312 243.128L149.512 357.531L24.2195 278.519L102.312 243.128Z" fill="white" fill-opacity="0.3"/>
<path d="M-52.8059 326.845L100.245 301.675C100.306 301.665 100.362 301.633 100.402 301.584C100.442 301.536 100.463 301.475 100.463 301.413C100.466 301.35 100.448 301.288 100.413 301.237C100.377 301.186 100.326 301.147 100.267 301.128L-32.3846 264.183C-32.429 264.151 -32.4823 264.134 -32.537 264.134C-32.5917 264.134 -32.645 264.151 -32.6894 264.183C-32.6986 264.219 -32.6986 264.257 -32.6894 264.293L-53.0236 326.429C-53.0554 326.514 -53.0554 326.607 -53.0236 326.692C-53.0026 326.734 -52.9717 326.769 -52.9337 326.796C-52.8958 326.823 -52.8519 326.84 -52.8059 326.845ZM98.9604 301.325L-52.4575 326.232L-32.3193 264.774L98.9604 301.325Z" fill="white" fill-opacity="0.3"/>
<path d="M100.242 301.675C100.3 301.671 100.355 301.65 100.401 301.615C100.447 301.58 100.483 301.533 100.503 301.478C100.523 301.406 100.514 301.328 100.477 301.262C100.441 301.197 100.379 301.148 100.307 301.128L23.7384 278.125L-32.3656 264.161C-32.4045 264.136 -32.4499 264.122 -32.4963 264.122C-32.5426 264.122 -32.5881 264.136 -32.627 264.161C-32.6479 264.202 -32.6588 264.247 -32.6588 264.292C-32.6588 264.338 -32.6479 264.383 -32.627 264.424C-32.5847 264.509 -32.5159 264.578 -32.431 264.621L100.373 301.566L100.242 301.675ZM-13.599 269.414L23.5643 278.65L74.1385 293.84L-13.599 269.414Z" fill="white" fill-opacity="0.3"/>
<path d="M622.883 414.065C622.941 414.063 622.998 414.043 623.044 414.008C623.091 413.973 623.126 413.924 623.144 413.868C623.179 413.825 623.199 413.771 623.199 413.715C623.199 413.659 623.179 413.605 623.144 413.561L508.563 339.146C508.515 339.103 508.453 339.079 508.389 339.079C508.324 339.079 508.262 339.103 508.214 339.146C508.193 339.21 508.193 339.279 508.214 339.343L506.19 403.143C506.189 403.215 506.216 403.284 506.265 403.337C506.313 403.39 506.38 403.422 506.451 403.428L623.035 414.021L622.883 414.065ZM508.563 339.803L621.772 413.364L506.538 402.902L508.563 339.803Z" fill="white" fill-opacity="0.3"/>
<path d="M178.883 385.13L309.183 368.562C309.245 368.549 309.302 368.516 309.345 368.469C309.388 368.422 309.415 368.363 309.423 368.299C309.426 368.237 309.408 368.175 309.372 368.124C309.337 368.072 309.286 368.034 309.227 368.015L194.58 334.309C194.537 334.273 194.483 334.254 194.428 334.254C194.372 334.254 194.318 334.273 194.275 334.309C194.269 334.352 194.269 334.397 194.275 334.44L178.665 384.78C178.644 384.821 178.633 384.866 178.633 384.911C178.633 384.957 178.644 385.002 178.665 385.043C178.691 385.075 178.725 385.1 178.763 385.115C178.801 385.13 178.842 385.136 178.883 385.13ZM307.855 368.255L179.275 384.627L194.689 334.966L307.855 368.255Z" fill="white" fill-opacity="0.3"/>
<path d="M89.9009 409.162L178.858 385.087C178.905 385.076 178.949 385.051 178.984 385.017C179.018 384.982 179.042 384.938 179.053 384.89C179.074 384.849 179.085 384.804 179.085 384.759C179.085 384.713 179.074 384.668 179.053 384.627L150.272 358.013C150.219 357.962 150.149 357.934 150.076 357.934C150.003 357.934 149.933 357.962 149.88 358.013L89.7049 408.681C89.6744 408.734 89.6583 408.795 89.6583 408.856C89.6583 408.918 89.6744 408.978 89.7049 409.031C89.7273 409.065 89.7561 409.094 89.7898 409.117C89.8234 409.139 89.8612 409.155 89.9009 409.162ZM178.313 384.715L91.0112 408.309L150.011 358.582L178.313 384.715Z" fill="white" fill-opacity="0.3"/>
<path d="M178.881 385.13C178.927 385.123 178.97 385.103 179.005 385.072C179.039 385.041 179.064 385 179.077 384.955L194.708 334.615C194.733 334.572 194.746 334.523 194.746 334.473C194.746 334.423 194.733 334.374 194.708 334.331C194.664 334.299 194.61 334.281 194.556 334.281C194.501 334.281 194.448 334.299 194.403 334.331L150.012 357.968C149.954 357.995 149.908 358.041 149.881 358.1C149.85 358.144 149.832 358.198 149.832 358.253C149.832 358.308 149.85 358.362 149.881 358.406L178.685 385.043C178.709 385.07 178.739 385.092 178.773 385.107C178.807 385.123 178.844 385.13 178.881 385.13ZM194.12 335.075L178.881 384.364L150.687 358.275L194.12 335.075Z" fill="white" fill-opacity="0.3"/>
<path d="M89.9019 409.162H90.0107C90.059 409.142 90.1009 409.109 90.1316 409.067C90.1624 409.024 90.1808 408.974 90.1849 408.922L100.504 301.457C100.517 301.399 100.517 301.34 100.504 301.282C100.477 301.227 100.432 301.182 100.378 301.154C100.323 301.126 100.26 301.117 100.2 301.129C100.15 301.115 100.097 301.115 100.047 301.129L27.876 358.429C27.8401 358.452 27.8106 358.485 27.7902 358.523C27.7699 358.561 27.7592 358.604 27.7592 358.647C27.7592 358.691 27.7699 358.733 27.7902 358.772C27.8106 358.81 27.8401 358.842 27.876 358.866L89.7712 409.031C89.7821 409.061 89.7995 409.089 89.822 409.111C89.8446 409.134 89.8719 409.151 89.9019 409.162ZM99.8948 301.917L89.6842 408.287L28.4639 358.647L99.8948 301.917Z" fill="white" fill-opacity="0.3"/>
<path d="M89.9022 409.162C89.9582 409.184 90.0203 409.184 90.0763 409.162L150.273 358.472C150.293 358.408 150.293 358.339 150.273 358.275C150.295 358.211 150.295 358.142 150.273 358.078L100.418 301.172C100.381 301.135 100.335 301.109 100.284 301.097C100.234 301.085 100.181 301.086 100.132 301.102C100.082 301.118 100.038 301.147 100.004 301.187C99.9701 301.226 99.9474 301.274 99.9386 301.325L89.6192 408.834C89.6143 408.888 89.6264 408.942 89.6537 408.989C89.681 409.036 89.7221 409.074 89.7715 409.096L89.9022 409.162ZM149.707 358.187L90.2505 408.265L100.439 302.048L149.707 358.187Z" fill="white" fill-opacity="0.3"/>
<path d="M-59.533 398.766H-59.4024L28.0956 358.975C28.1414 358.954 28.1801 358.92 28.2072 358.877C28.2342 358.835 28.2484 358.785 28.248 358.734C28.248 358.678 28.2315 358.623 28.2005 358.577C28.1695 358.53 28.1254 358.493 28.0738 358.472L-52.7622 326.32C-52.8024 326.307 -52.845 326.303 -52.8869 326.308C-52.9289 326.313 -52.969 326.328 -53.0045 326.351C-53.04 326.374 -53.0699 326.405 -53.092 326.441C-53.1141 326.478 -53.1279 326.518 -53.1323 326.561L-59.8378 398.437C-59.8376 398.536 -59.7984 398.63 -59.7289 398.7L-59.533 398.766ZM27.3119 358.756L-59.2065 398.153L-52.5662 327.064L27.3119 358.756Z" fill="white" fill-opacity="0.3"/>
<path d="M28.0937 358.997C28.1428 359.015 28.1969 359.015 28.2461 358.997L100.461 301.653C100.498 301.607 100.518 301.549 100.518 301.489C100.518 301.429 100.498 301.371 100.461 301.325C100.437 301.271 100.397 301.227 100.345 301.199C100.294 301.172 100.235 301.162 100.178 301.172L-52.8512 326.342H-52.9819C-53.0219 326.362 -53.0553 326.393 -53.0784 326.432C-53.1015 326.471 -53.1133 326.515 -53.1125 326.56C-53.11 326.599 -53.099 326.637 -53.0802 326.671C-53.0614 326.705 -53.0352 326.735 -53.0036 326.757H-52.8948L27.8977 358.909L28.0937 358.997ZM99.3069 301.828L28.0283 358.428L-51.7845 326.67L99.3069 301.828Z" fill="white" fill-opacity="0.3"/>
<path d="M491.816 452.192L620.941 443.437C621.004 443.429 621.063 443.402 621.11 443.359C621.157 443.315 621.189 443.259 621.202 443.196C621.21 443.13 621.195 443.063 621.159 443.007C621.123 442.951 621.069 442.91 621.006 442.89L506.272 403.034C506.234 403.016 506.193 403.008 506.151 403.009C506.109 403.01 506.068 403.02 506.03 403.039C505.993 403.058 505.96 403.085 505.934 403.118C505.908 403.151 505.89 403.19 505.881 403.231L491.533 451.929C491.502 452.014 491.502 452.107 491.533 452.192C491.576 452.217 491.625 452.23 491.675 452.23C491.725 452.23 491.773 452.217 491.816 452.192ZM619.591 442.89L492.186 451.645L506.359 403.493L619.591 442.89Z" fill="white" fill-opacity="0.3"/>
<path d="M621.052 443.349H621.204C621.243 443.327 621.275 443.295 621.298 443.257C621.321 443.218 621.333 443.175 621.335 443.13L623.164 413.846C623.167 413.811 623.163 413.776 623.152 413.743C623.142 413.71 623.125 413.68 623.103 413.653C623.08 413.627 623.053 413.605 623.023 413.589C622.992 413.573 622.958 413.564 622.924 413.561L506.318 402.968C506.188 402.968 506.057 402.968 506.013 403.187C506.004 403.25 506.016 403.315 506.047 403.37C506.079 403.426 506.128 403.469 506.188 403.493L620.965 443.327L621.052 443.349ZM622.598 414.021L620.812 442.692L508.473 403.668L622.598 414.021Z" fill="white" fill-opacity="0.3"/>
<path d="M395.524 461.581L491.926 452.192C491.989 452.215 492.059 452.215 492.122 452.192C492.144 452.12 492.144 452.044 492.122 451.973L481.585 362.368C481.576 362.326 481.557 362.286 481.531 362.252C481.505 362.218 481.471 362.19 481.432 362.171C481.396 362.15 481.355 362.139 481.312 362.139C481.27 362.139 481.229 362.15 481.193 362.171L395.328 461.165C395.292 461.208 395.273 461.263 395.273 461.319C395.273 461.374 395.292 461.429 395.328 461.472C395.349 461.505 395.378 461.532 395.412 461.551C395.446 461.57 395.484 461.58 395.524 461.581ZM491.621 451.688L396.177 460.968L481.193 362.959L491.621 451.688Z" fill="white" fill-opacity="0.3"/>
<path d="M491.82 452.191C491.88 452.198 491.941 452.181 491.989 452.145C492.038 452.108 492.071 452.054 492.081 451.994L506.559 403.274C506.575 403.24 506.583 403.202 506.583 403.165C506.583 403.127 506.575 403.09 506.559 403.055L481.697 362.214C481.67 362.156 481.624 362.109 481.566 362.083C481.53 362.062 481.488 362.051 481.446 362.051C481.404 362.051 481.363 362.062 481.327 362.083C481.292 362.096 481.26 362.117 481.234 362.143C481.208 362.17 481.187 362.201 481.174 362.236V362.411L491.711 451.951C491.711 451.982 491.718 452.014 491.73 452.043C491.742 452.072 491.759 452.098 491.782 452.121C491.804 452.143 491.83 452.161 491.859 452.173C491.888 452.185 491.919 452.191 491.951 452.191H491.82ZM505.993 403.274L492.038 450.616L481.827 363.571L505.993 403.274Z" fill="white" fill-opacity="0.3"/>
<path d="M281.553 469.439L395.046 437.352C395.095 437.337 395.14 437.309 395.174 437.271C395.209 437.232 395.232 437.185 395.242 437.134C395.263 437.093 395.274 437.048 395.274 437.002C395.274 436.957 395.263 436.912 395.242 436.871L309.355 368.059H309.203C309.144 368.06 309.088 368.08 309.041 368.115C308.994 368.151 308.959 368.2 308.941 368.256L281.314 469.154C281.289 469.193 281.275 469.239 281.275 469.285C281.275 469.332 281.289 469.378 281.314 469.417C281.349 469.439 281.389 469.453 281.431 469.457C281.473 469.461 281.515 469.455 281.553 469.439ZM394.48 436.937L281.945 468.76L309.333 368.737L394.48 436.937Z" fill="white" fill-opacity="0.3"/>
<path d="M281.554 469.438C281.612 469.437 281.668 469.418 281.714 469.384C281.761 469.35 281.796 469.302 281.815 469.247C281.834 469.193 281.836 469.133 281.82 469.077C281.805 469.022 281.773 468.972 281.728 468.935L179.056 384.648C179.019 384.627 178.978 384.616 178.936 384.616C178.894 384.616 178.853 384.627 178.816 384.648C178.778 384.668 178.744 384.695 178.718 384.729C178.691 384.763 178.673 384.803 178.664 384.845L171.284 421.221C171.273 421.252 171.269 421.284 171.271 421.315C171.274 421.347 171.282 421.378 171.296 421.407C171.31 421.435 171.33 421.461 171.354 421.481C171.378 421.502 171.406 421.518 171.436 421.528L281.489 469.46L281.554 469.438ZM179.056 385.349L279.878 468.125L171.784 421.068L179.056 385.349Z" fill="white" fill-opacity="0.3"/>
<path d="M281.553 469.439C281.598 469.427 281.638 469.401 281.669 469.366C281.7 469.331 281.72 469.288 281.727 469.242L309.442 368.256C309.468 368.221 309.482 368.179 309.482 368.135C309.482 368.092 309.468 368.049 309.442 368.015C309.404 367.997 309.363 367.988 309.322 367.988C309.28 367.988 309.24 367.997 309.202 368.015L178.902 384.605C178.844 384.609 178.788 384.633 178.745 384.673C178.701 384.713 178.672 384.766 178.663 384.824C178.651 384.874 178.655 384.926 178.674 384.973C178.694 385.021 178.728 385.06 178.772 385.087L281.379 469.373C281.428 469.414 281.489 469.437 281.553 469.439ZM308.81 368.584L281.4 468.673L179.555 385.043L308.81 368.584Z" fill="white" fill-opacity="0.3"/>
<path d="M126.064 424.22L171.588 421.506C171.647 421.489 171.699 421.453 171.736 421.404C171.773 421.355 171.793 421.295 171.793 421.233C171.793 421.171 171.773 421.111 171.736 421.061C171.699 421.012 171.647 420.976 171.588 420.959L89.9896 408.615C89.9195 408.588 89.842 408.588 89.7719 408.615C89.7528 408.652 89.7429 408.693 89.7429 408.735C89.7429 408.777 89.7528 408.818 89.7719 408.856C89.7815 408.903 89.8024 408.948 89.8327 408.986C89.863 409.024 89.9018 409.055 89.9461 409.075L125.999 424.133L126.064 424.22ZM168.975 421.112L126.064 423.673L92.1014 409.49L168.975 421.112Z" fill="white" fill-opacity="0.3"/>
<path d="M171.502 421.506C171.564 421.507 171.625 421.485 171.673 421.445C171.721 421.405 171.753 421.349 171.763 421.287L179.144 384.911C179.167 384.871 179.179 384.826 179.179 384.78C179.179 384.734 179.167 384.688 179.144 384.648C179.103 384.627 179.059 384.616 179.013 384.616C178.968 384.616 178.923 384.627 178.882 384.648L89.9475 408.724C89.9234 408.714 89.8975 408.708 89.8713 408.708C89.8452 408.708 89.8193 408.714 89.7951 408.724C89.758 408.771 89.7379 408.828 89.7379 408.888C89.7379 408.948 89.758 409.006 89.7951 409.052C89.8155 409.092 89.8468 409.126 89.8853 409.149C89.9238 409.172 89.968 409.184 90.0129 409.184L171.567 421.528L171.502 421.506ZM178.534 385.217L171.284 420.915L91.232 408.811L178.534 385.217Z" fill="white" fill-opacity="0.3"/>
<path d="M126.066 424.221C126.122 424.224 126.178 424.209 126.225 424.177C126.272 424.145 126.308 424.099 126.327 424.046C126.35 423.99 126.352 423.928 126.332 423.871C126.312 423.814 126.271 423.767 126.218 423.739L28.2482 358.494C28.2103 358.478 28.1696 358.47 28.1284 358.47C28.0873 358.47 28.0465 358.478 28.0087 358.494C27.9381 358.518 27.8771 358.564 27.8345 358.626C27.8239 358.684 27.8239 358.743 27.8345 358.801L37.7839 421.66C37.7971 421.722 37.8293 421.779 37.8761 421.822C37.923 421.866 37.9821 421.893 38.0452 421.901L126.066 424.221ZM28.4659 359.304L125.13 423.652L38.2846 421.332L28.4659 359.304Z" fill="white" fill-opacity="0.3"/>
<path d="M126.065 424.221C126.114 424.226 126.162 424.216 126.205 424.193C126.248 424.169 126.283 424.133 126.305 424.089C126.347 424.041 126.371 423.979 126.371 423.914C126.371 423.85 126.347 423.787 126.305 423.739L28.3346 358.494C28.2968 358.478 28.2561 358.47 28.2149 358.47C28.1737 358.47 28.133 358.478 28.0952 358.494C28.0247 358.518 27.9636 358.564 27.921 358.626C27.8855 358.677 27.8664 358.738 27.8664 358.801C27.8664 358.863 27.8855 358.924 27.921 358.976L89.8162 409.141L125.869 424.199L126.065 424.221ZM32.7759 362.149L123.561 422.601L90.1428 408.659L32.7759 362.149Z" fill="white" fill-opacity="0.3"/>
<path d="M9.21979 436.717H9.35048L38.0883 421.856C38.1422 421.84 38.1895 421.807 38.2231 421.761C38.2568 421.716 38.2749 421.661 38.2749 421.605C38.2749 421.548 38.2568 421.493 38.2231 421.448C38.1895 421.402 38.1422 421.369 38.0883 421.353L-59.4244 398.24C-59.4609 398.219 -59.5021 398.208 -59.5442 398.208C-59.5862 398.208 -59.6275 398.219 -59.6639 398.24C-59.7039 398.261 -59.7373 398.292 -59.7604 398.331C-59.7835 398.37 -59.7953 398.414 -59.7945 398.459C-59.7977 398.516 -59.7825 398.572 -59.7511 398.62C-59.7197 398.667 -59.6738 398.703 -59.6204 398.722L9.08917 436.674L9.21979 436.717ZM37.1956 421.681L9.21979 436.126L-57.6392 399.225L37.1956 421.681Z" fill="white" fill-opacity="0.3"/>
<path d="M37.978 421.878C38.0343 421.898 38.0958 421.898 38.1521 421.878C38.1712 421.841 38.1812 421.799 38.1812 421.758C38.1812 421.716 38.1712 421.674 38.1521 421.637L28.2027 358.778C28.1939 358.736 28.1756 358.696 28.1492 358.662C28.1228 358.628 28.089 358.6 28.0504 358.581C28.014 358.56 27.9726 358.549 27.9306 358.549C27.8885 358.549 27.8473 358.56 27.8109 358.581L-59.6436 398.24C-59.6865 398.265 -59.7229 398.3 -59.7494 398.342C-59.776 398.384 -59.7919 398.431 -59.796 398.481C-59.7941 398.545 -59.772 398.607 -59.7329 398.659C-59.6938 398.71 -59.6397 398.747 -59.5783 398.765L37.9127 421.856L37.978 421.878ZM27.8109 359.128L37.6296 421.243L-58.6856 398.415L27.8109 359.128Z" fill="white" fill-opacity="0.3"/>
<path d="M-129.049 478.544L9.24059 436.718C9.29165 436.699 9.33676 436.666 9.37121 436.624C9.40567 436.582 9.42821 436.531 9.43652 436.477C9.43404 436.421 9.41906 436.366 9.39267 436.317C9.36629 436.268 9.32916 436.225 9.28411 436.192L-121.234 370.182C-121.274 370.16 -121.319 370.149 -121.364 370.149C-121.41 370.149 -121.454 370.16 -121.495 370.182C-121.535 370.202 -121.568 370.233 -121.591 370.272C-121.614 370.311 -121.626 370.355 -121.625 370.4L-129.398 478.259C-129.399 478.302 -129.389 478.344 -129.37 478.382C-129.351 478.42 -129.323 478.453 -129.289 478.478C-129.259 478.51 -129.22 478.533 -129.178 478.544C-129.136 478.556 -129.091 478.556 -129.049 478.544ZM8.50038 436.389L-128.766 477.974L-121.059 370.926L8.50038 436.389Z" fill="white" fill-opacity="0.3"/>
<path d="M9.21991 436.718C9.27086 436.722 9.3216 436.709 9.36468 436.681C9.40776 436.653 9.44097 436.613 9.45942 436.565C9.49033 436.504 9.49624 436.433 9.4759 436.368C9.45556 436.302 9.41061 436.247 9.35059 436.215L-59.4025 398.241L-121.189 370.182C-121.22 370.168 -121.254 370.16 -121.289 370.158C-121.323 370.157 -121.358 370.163 -121.39 370.175C-121.422 370.187 -121.452 370.206 -121.477 370.229C-121.503 370.253 -121.523 370.282 -121.537 370.313C-121.552 370.345 -121.559 370.379 -121.561 370.414C-121.562 370.448 -121.556 370.483 -121.544 370.516C-121.532 370.548 -121.514 370.578 -121.49 370.603C-121.466 370.629 -121.438 370.649 -121.407 370.663L9.08929 436.696L9.21991 436.718ZM-109.498 376.07L-59.642 398.744L-4.14751 429.386L-109.498 376.07Z" fill="white" fill-opacity="0.3"/>
<path d="M70.3757 15.1762C67.3938 15.1762 64.9765 12.746 64.9765 9.74825C64.9765 6.75048 67.3938 4.32031 70.3757 4.32031C73.3576 4.32031 75.7749 6.75048 75.7749 9.74825C75.7749 12.746 73.3576 15.1762 70.3757 15.1762Z" fill="white" fill-opacity="0.3"/>
<path d="M70.3754 12.8124C68.6921 12.8124 67.3275 11.4405 67.3275 9.74823C67.3275 8.05594 68.6921 6.68408 70.3754 6.68408C72.0587 6.68408 73.4233 8.05594 73.4233 9.74823C73.4233 11.4405 72.0587 12.8124 70.3754 12.8124Z" fill="white" fill-opacity="0.5"/>
<path d="M65.801 9.72618C65.7967 10.6405 66.0624 11.5355 66.5645 12.2978C67.0666 13.0601 67.7825 13.6555 68.6215 14.0084C69.4605 14.3612 70.3849 14.4558 71.2774 14.2801C72.1699 14.1044 72.9905 13.6663 73.6351 13.0213C74.2797 12.3764 74.7194 11.5535 74.8984 10.6571C75.0774 9.76068 74.9877 8.83101 74.6407 7.98588C74.2937 7.14075 73.7049 6.4182 72.949 5.90978C72.1931 5.40135 71.3041 5.12995 70.3946 5.12993C69.7924 5.12705 69.1956 5.24381 68.6384 5.4735C68.0812 5.70319 67.5746 6.04129 67.1477 6.46838C66.7209 6.89547 66.3822 7.40313 66.151 7.9622C65.9199 8.52128 65.801 9.12075 65.801 9.72618Z" fill="white" fill-opacity="0.3"/>
<path d="M87.858 58.6217C86.2228 58.6217 84.8971 57.289 84.8971 55.6451C84.8971 54.0011 86.2228 52.6685 87.858 52.6685C89.4933 52.6685 90.8188 54.0011 90.8188 55.6451C90.8188 57.289 89.4933 58.6217 87.858 58.6217Z" fill="white" fill-opacity="0.3"/>
<path d="M70.3759 11.6962C69.3058 11.6962 68.4382 10.824 68.4382 9.74823C68.4382 8.67241 69.3058 7.80029 70.3759 7.80029C71.446 7.80029 72.3135 8.67241 72.3135 9.74823C72.3135 10.824 71.446 11.6962 70.3759 11.6962Z" fill="white" fill-opacity="0.3"/>
<path d="M18.7119 31.0225C18.7119 31.5948 18.881 32.1542 19.1978 32.6298C19.5145 33.1054 19.9647 33.4756 20.491 33.6936C21.0174 33.9116 21.5963 33.9676 22.1544 33.8543C22.7124 33.741 23.2245 33.4637 23.6255 33.0575C24.0265 32.6512 24.2985 32.1344 24.4069 31.5725C24.5153 31.0107 24.4553 30.4291 24.2344 29.9016C24.0136 29.3741 23.6418 28.9244 23.1664 28.6096C22.6909 28.2948 22.1332 28.129 21.5639 28.1334C21.1875 28.1334 20.8149 28.2083 20.4675 28.3537C20.12 28.4992 19.8046 28.7123 19.5395 28.9809C19.2744 29.2494 19.0648 29.5681 18.9227 29.9185C18.7807 30.2689 18.709 30.6441 18.7119 31.0225Z" fill="white" fill-opacity="0.3"/>
<path d="M87.8547 58.9497C86.0391 58.9497 84.5672 57.47 84.5672 55.6448C84.5672 53.8195 86.0391 52.3398 87.8547 52.3398C89.6703 52.3398 91.1421 53.8195 91.1421 55.6448C91.1421 57.47 89.6703 58.9497 87.8547 58.9497Z" fill="white" fill-opacity="0.3"/>
<path d="M70.3718 15.5047C67.2096 15.5047 64.646 12.9275 64.646 9.74845C64.646 6.56936 67.2096 3.99219 70.3718 3.99219C73.5341 3.99219 76.0977 6.56936 76.0977 9.74845C76.0977 12.9275 73.5341 15.5047 70.3718 15.5047Z" fill="white" fill-opacity="0.3"/>
<path d="M70.3731 12.7247C68.7379 12.7247 67.4122 11.392 67.4122 9.7481C67.4122 8.10416 68.7379 6.77148 70.3731 6.77148C72.0084 6.77148 73.334 8.10416 73.334 9.7481C73.334 11.392 72.0084 12.7247 70.3731 12.7247Z" fill="white" fill-opacity="0.3"/>
<path d="M87.8562 58.1619C86.4735 58.1619 85.3525 57.035 85.3525 55.6449C85.3525 54.2548 86.4735 53.1279 87.8562 53.1279C89.2389 53.1279 90.3599 54.2548 90.3599 55.6449C90.3599 57.035 89.2389 58.1619 87.8562 58.1619Z" fill="white" fill-opacity="0.3"/>
<path d="M70.3739 11.9587C69.1595 11.9587 68.175 10.969 68.175 9.74816C68.175 8.52729 69.1595 7.5376 70.3739 7.5376C71.5883 7.5376 72.5728 8.52729 72.5728 9.74816C72.5728 10.969 71.5883 11.9587 70.3739 11.9587Z" fill="white" fill-opacity="0.5"/>
<path d="M21.5607 32.4231C20.7912 32.4231 20.1674 31.796 20.1674 31.0223C20.1674 30.2487 20.7912 29.6216 21.5607 29.6216C22.3302 29.6216 22.9541 30.2487 22.9541 31.0223C22.9541 31.796 22.3302 32.4231 21.5607 32.4231Z" fill="white" fill-opacity="0.5"/>
<path d="M70.3731 11.4554C69.4353 11.4554 68.675 10.691 68.675 9.74819C68.675 8.80534 69.4353 8.04102 70.3731 8.04102C71.311 8.04102 72.0713 8.80534 72.0713 9.74819C72.0713 10.691 71.311 11.4554 70.3731 11.4554Z" fill="white" fill-opacity="0.3"/>
<path d="M20.2346 31.0221C20.2346 31.3762 20.3745 31.7158 20.6236 31.9662C20.8726 32.2166 21.2104 32.3572 21.5626 32.3572C21.9148 32.3572 22.2526 32.2166 22.5017 31.9662C22.7507 31.7158 22.8906 31.3762 22.8906 31.0221C22.8906 30.668 22.7507 30.3284 22.5017 30.0781C22.2526 29.8277 21.9148 29.687 21.5626 29.687C21.2104 29.687 20.8726 29.8277 20.6236 30.0781C20.3745 30.3284 20.2346 30.668 20.2346 31.0221Z" fill="white" fill-opacity="0.3"/>
<path d="M86.5481 55.6452C86.5481 55.905 86.6247 56.1589 86.7682 56.3748C86.9118 56.5908 87.1158 56.7591 87.3545 56.8585C87.5932 56.9579 87.8558 56.9839 88.1092 56.9332C88.3626 56.8826 88.5953 56.7575 88.778 56.5738C88.9607 56.3902 89.0851 56.1562 89.1355 55.9014C89.186 55.6467 89.1601 55.3827 89.0612 55.1427C88.9623 54.9027 88.7949 54.6976 88.5801 54.5534C88.3653 54.4091 88.1127 54.332 87.8544 54.332C87.5079 54.332 87.1756 54.4704 86.9307 54.7167C86.6857 54.9629 86.5481 55.297 86.5481 55.6452Z" fill="white" fill-opacity="0.3"/>
<path d="M79.954 55.6451C79.954 57.2165 80.4174 58.7526 81.2858 60.0591C82.1542 61.3657 83.3885 62.384 84.8325 62.9853C86.2766 63.5866 87.8656 63.744 89.3986 63.4374C90.9316 63.1309 92.3398 62.3742 93.445 61.2631C94.5503 60.1519 95.303 58.7363 95.6079 57.1951C95.9128 55.6539 95.7563 54.0565 95.1582 52.6047C94.56 51.153 93.5471 49.9122 92.2474 49.0392C90.9478 48.1662 89.4199 47.7002 87.8569 47.7002C85.7627 47.706 83.7558 48.5449 82.275 50.0336C80.7941 51.5223 79.9597 53.5398 79.954 55.6451Z" fill="white" fill-opacity="0.3"/>
<path d="M87.8551 57.8339C86.6527 57.8339 85.678 56.854 85.678 55.6452C85.678 54.4365 86.6527 53.4565 87.8551 53.4565C89.0575 53.4565 90.0322 54.4365 90.0322 55.6452C90.0322 56.854 89.0575 57.8339 87.8551 57.8339Z" fill="white" fill-opacity="0.3"/>
<path d="M86.8745 55.645C86.8745 55.8182 86.9256 55.9874 87.0213 56.1314C87.117 56.2754 87.2529 56.3876 87.4121 56.4538C87.5712 56.5201 87.7463 56.5374 87.9152 56.5037C88.0841 56.4699 88.2393 56.3865 88.3611 56.2641C88.4829 56.1416 88.5659 55.9856 88.5995 55.8158C88.6331 55.646 88.6158 55.4699 88.5499 55.31C88.484 55.15 88.3724 55.0133 88.2291 54.9171C88.0859 54.8209 87.9176 54.7695 87.7453 54.7695C87.5144 54.7695 87.2929 54.8618 87.1296 55.026C86.9662 55.1901 86.8745 55.4128 86.8745 55.645Z" fill="white" fill-opacity="0.3"/>
<path d="M19.714 31.0224C19.7637 31.4839 19.9813 31.9106 20.3249 32.2206C20.6684 32.5306 21.1138 32.702 21.5755 32.702C22.0371 32.702 22.4825 32.5306 22.8261 32.2206C23.1696 31.9106 23.3871 31.4839 23.4369 31.0224C23.4652 30.7597 23.4382 30.4939 23.3575 30.2424C23.2769 29.9908 23.1444 29.7592 22.9689 29.5625C22.7933 29.3658 22.5784 29.2085 22.3383 29.1008C22.0983 28.9932 21.8384 28.9375 21.5755 28.9375C21.3126 28.9375 21.0526 28.9932 20.8125 29.1008C20.5725 29.2085 20.3577 29.3658 20.1821 29.5625C20.0065 29.7592 19.8741 29.9908 19.7934 30.2424C19.7128 30.4939 19.6857 30.7597 19.714 31.0224Z" fill="white" fill-opacity="0.3"/>
<path d="M11.6118 136.43C11.6118 137.196 11.8379 137.945 12.2613 138.582C12.6847 139.219 13.2865 139.716 13.9907 140.009C14.6948 140.302 15.4696 140.379 16.2171 140.229C16.9646 140.08 17.6512 139.711 18.1901 139.169C18.7291 138.627 19.0961 137.937 19.2448 137.185C19.3935 136.434 19.3172 135.655 19.0255 134.947C18.7338 134.239 18.2399 133.634 17.6062 133.209C16.9725 132.783 16.2275 132.556 15.4654 132.556C14.9585 132.553 14.4561 132.651 13.9873 132.845C13.5184 133.038 13.0925 133.324 12.7341 133.684C12.3757 134.044 12.092 134.472 11.8993 134.944C11.7067 135.415 11.609 135.92 11.6118 136.43Z" fill="white" fill-opacity="0.3"/>
<path d="M21.5653 34.9836C19.389 34.9836 17.6247 33.21 17.6247 31.0221C17.6247 28.8342 19.389 27.0605 21.5653 27.0605C23.7416 27.0605 25.5059 28.8342 25.5059 31.0221C25.5059 33.21 23.7416 34.9836 21.5653 34.9836Z" fill="white" fill-opacity="0.3"/>
<path d="M21.5652 32.7952C20.5912 32.7952 19.8017 32.0015 19.8017 31.0223C19.8017 30.0432 20.5912 29.2495 21.5652 29.2495C22.5391 29.2495 23.3286 30.0432 23.3286 31.0223C23.3286 32.0015 22.5391 32.7952 21.5652 32.7952Z" fill="white" fill-opacity="0.3"/>
<path d="M87.856 62.9113C83.8641 62.9113 80.628 59.658 80.628 55.6449C80.628 51.6317 83.8641 48.3784 87.856 48.3784C91.8479 48.3784 95.084 51.6317 95.084 55.6449C95.084 59.658 91.8479 62.9113 87.856 62.9113Z" fill="white" fill-opacity="0.3"/>
<path d="M20.6046 31.0221C20.6046 31.2775 20.7056 31.5225 20.8852 31.7031C21.0649 31.8837 21.3085 31.9851 21.5626 31.9851C21.8166 31.9851 22.0603 31.8837 22.2399 31.7031C22.4196 31.5225 22.5205 31.2775 22.5205 31.0221C22.5205 30.7667 22.4196 30.5217 22.2399 30.3411C22.0603 30.1605 21.8166 30.0591 21.5626 30.0591C21.3085 30.0591 21.0649 30.1605 20.8852 30.3411C20.7056 30.5217 20.6046 30.7667 20.6046 31.0221Z" fill="white" fill-opacity="0.5"/>
<path d="M10.9158 136.429C10.9115 137.335 11.1748 138.222 11.6721 138.977C12.1695 139.732 12.8786 140.322 13.7096 140.671C14.5407 141.021 15.4562 141.114 16.3402 140.94C17.2243 140.766 18.0372 140.332 18.6757 139.694C19.3142 139.055 19.7497 138.24 19.9271 137.352C20.1044 136.464 20.0156 135.543 19.6718 134.706C19.3281 133.869 18.7449 133.153 17.9962 132.649C17.2475 132.146 16.3669 131.877 15.466 131.877C14.263 131.877 13.1089 132.356 12.2562 133.209C11.4035 134.062 10.9216 135.22 10.9158 136.429Z" fill="white" fill-opacity="0.3"/>
<path d="M21.565 33.8896C19.9899 33.8896 18.713 32.606 18.713 31.0225C18.713 29.4389 19.9899 28.1553 21.565 28.1553C23.1401 28.1553 24.417 29.4389 24.417 31.0225C24.417 32.606 23.1401 33.8896 21.565 33.8896Z" fill="white" fill-opacity="0.3"/>
<path d="M12.8554 136.43C12.8554 136.953 13.0099 137.465 13.2994 137.901C13.5888 138.336 14.0002 138.676 14.4816 138.876C14.963 139.077 15.4926 139.129 16.0036 139.027C16.5146 138.925 16.9841 138.673 17.3525 138.302C17.7209 137.932 17.9718 137.46 18.0734 136.946C18.1751 136.433 18.1228 135.9 17.9235 135.416C17.7241 134.932 17.3864 134.519 16.9532 134.228C16.52 133.937 16.0107 133.781 15.4897 133.781C14.791 133.781 14.121 134.06 13.627 134.557C13.133 135.054 12.8554 135.727 12.8554 136.43Z" fill="white" fill-opacity="0.3"/>
<path d="M14.5516 136.429C14.5516 136.673 14.6479 136.907 14.8194 137.08C14.9909 137.252 15.2235 137.349 15.466 137.349C15.7085 137.349 15.9411 137.252 16.1126 137.08C16.284 136.907 16.3804 136.673 16.3804 136.429C16.3804 136.186 16.284 135.952 16.1126 135.779C15.9411 135.607 15.7085 135.51 15.466 135.51C15.2235 135.51 14.9909 135.607 14.8194 135.779C14.6479 135.952 14.5516 136.186 14.5516 136.429Z" fill="white" fill-opacity="0.5"/>
<path d="M97.7609 190.819C97.316 190.819 96.9554 190.456 96.9554 190.009C96.9554 189.562 97.316 189.199 97.7609 189.199C98.2058 189.199 98.5664 189.562 98.5664 190.009C98.5664 190.456 98.2058 190.819 97.7609 190.819Z" fill="white" fill-opacity="0.3"/>
<path d="M14.5516 136.429C14.5516 136.611 14.6052 136.789 14.7056 136.94C14.8061 137.091 14.949 137.209 15.116 137.279C15.2831 137.348 15.467 137.367 15.6444 137.331C15.8218 137.296 15.9846 137.208 16.1125 137.08C16.2404 136.951 16.3275 136.787 16.3628 136.609C16.3981 136.431 16.38 136.246 16.3108 136.078C16.2416 135.91 16.1244 135.766 15.974 135.665C15.8236 135.564 15.6468 135.51 15.466 135.51C15.3459 135.51 15.227 135.534 15.116 135.58C15.0051 135.626 14.9043 135.694 14.8194 135.779C14.7345 135.865 14.6672 135.966 14.6212 136.078C14.5753 136.189 14.5516 136.309 14.5516 136.429Z" fill="white" fill-opacity="0.3"/>
<path d="M11.9187 136.429C11.9187 137.14 12.1286 137.835 12.5219 138.426C12.9152 139.017 13.4741 139.477 14.1278 139.748C14.7815 140.019 15.5005 140.088 16.1937 139.948C16.8869 139.808 17.5231 139.464 18.0215 138.96C18.52 138.455 18.8583 137.814 18.9936 137.116C19.1289 136.418 19.055 135.696 18.7815 135.041C18.5079 134.385 18.0469 133.826 17.4568 133.434C16.8668 133.042 16.1744 132.836 15.4674 132.84C14.9995 132.84 14.5363 132.933 14.1043 133.114C13.6723 133.294 13.2801 133.559 12.9503 133.893C12.6205 134.226 12.3596 134.622 12.1825 135.057C12.0054 135.493 11.9158 135.959 11.9187 136.429Z" fill="white" fill-opacity="0.3"/>
<path d="M12.8565 136.43C12.8565 136.949 13.0097 137.457 13.2968 137.889C13.5838 138.321 13.9919 138.657 14.4692 138.856C14.9466 139.055 15.4719 139.107 15.9787 139.006C16.4855 138.904 16.951 138.654 17.3163 138.287C17.6817 137.92 17.9305 137.452 18.0313 136.942C18.1322 136.433 18.0804 135.905 17.8827 135.425C17.6849 134.945 17.3501 134.535 16.9205 134.246C16.4908 133.957 15.9857 133.803 15.469 133.803C15.1251 133.8 14.7841 133.866 14.4658 133.997C14.1475 134.128 13.8584 134.322 13.6152 134.566C13.372 134.811 13.1797 135.101 13.0494 135.421C12.9191 135.741 12.8536 136.084 12.8565 136.43Z" fill="white" fill-opacity="0.5"/>
<path d="M8.49884 136.429C8.49884 137.828 8.91123 139.194 9.68393 140.357C10.4566 141.519 11.5549 142.426 12.8398 142.961C14.1248 143.496 15.5387 143.636 16.9028 143.363C18.2669 143.09 19.5198 142.417 20.5033 141.428C21.4867 140.44 22.1565 139.18 22.4279 137.809C22.6992 136.437 22.5599 135.016 22.0277 133.724C21.4955 132.432 20.5941 131.328 19.4377 130.551C18.2813 129.774 16.9217 129.36 15.5309 129.36C13.6659 129.36 11.8772 130.105 10.5585 131.43C9.23971 132.756 8.49884 134.554 8.49884 136.429Z" fill="white" fill-opacity="0.5"/>
<path d="M101.093 242.778C101.097 243.063 101.185 243.34 101.346 243.574C101.506 243.809 101.732 243.991 101.995 244.097C102.258 244.203 102.546 244.228 102.823 244.17C103.101 244.112 103.355 243.973 103.554 243.77C103.752 243.567 103.887 243.31 103.941 243.03C103.994 242.75 103.965 242.461 103.855 242.198C103.746 241.936 103.562 241.711 103.326 241.554C103.09 241.396 102.813 241.312 102.53 241.312C102.147 241.317 101.782 241.474 101.513 241.749C101.244 242.023 101.093 242.393 101.093 242.778Z" fill="white" fill-opacity="0.3"/>
<path d="M18.7318 278.387C18.7318 279.361 19.0191 280.314 19.5574 281.123C20.0956 281.933 20.8607 282.564 21.7557 282.937C22.6508 283.31 23.6357 283.407 24.5859 283.217C25.5362 283.027 26.409 282.558 27.0941 281.87C27.7791 281.181 28.2457 280.303 28.4347 279.348C28.6237 278.393 28.5267 277.403 28.1559 276.503C27.7852 275.603 27.1573 274.834 26.3518 274.293C25.5462 273.752 24.5992 273.463 23.6303 273.463C22.3312 273.463 21.0852 273.982 20.1666 274.905C19.2479 275.829 18.7318 277.081 18.7318 278.387Z" fill="white" fill-opacity="0.3"/>
<path d="M102.529 245.711C100.918 245.711 99.6117 244.398 99.6117 242.779C99.6117 241.159 100.918 239.846 102.529 239.846C104.14 239.846 105.446 241.159 105.446 242.779C105.446 244.398 104.14 245.711 102.529 245.711Z" fill="white" fill-opacity="0.3"/>
<path d="M100.242 242.778C100.298 243.351 100.564 243.883 100.988 244.271C101.413 244.658 101.966 244.872 102.539 244.872C103.112 244.872 103.665 244.658 104.09 244.271C104.514 243.883 104.78 243.351 104.836 242.778C104.867 242.455 104.831 242.13 104.73 241.823C104.628 241.516 104.464 241.233 104.248 240.994C104.032 240.754 103.768 240.562 103.474 240.431C103.179 240.3 102.861 240.232 102.539 240.232C102.217 240.232 101.899 240.3 101.604 240.431C101.31 240.562 101.046 240.754 100.83 240.994C100.613 241.233 100.449 241.516 100.348 241.823C100.247 242.13 100.211 242.455 100.242 242.778Z" fill="white" fill-opacity="0.3"/>
<path d="M19.1024 278.388C19.1024 279.289 19.368 280.169 19.8656 280.918C20.3632 281.666 21.0704 282.25 21.8979 282.594C22.7253 282.939 23.6358 283.029 24.5142 282.853C25.3926 282.678 26.1995 282.244 26.8328 281.607C27.4662 280.971 27.8974 280.16 28.0722 279.277C28.2469 278.393 28.1572 277.478 27.8145 276.646C27.4718 275.814 26.8913 275.103 26.1467 274.603C25.402 274.103 24.5265 273.836 23.6308 273.836C22.4298 273.836 21.278 274.316 20.4288 275.169C19.5795 276.023 19.1024 277.181 19.1024 278.388Z" fill="white" fill-opacity="0.3"/>
<path d="M20.2578 278.388C20.2578 279.059 20.4557 279.714 20.8265 280.272C21.1973 280.83 21.7243 281.265 22.3409 281.522C22.9576 281.779 23.636 281.846 24.2906 281.715C24.9452 281.584 25.5465 281.261 26.0185 280.786C26.4904 280.312 26.8118 279.707 26.942 279.049C27.0722 278.391 27.0054 277.709 26.75 277.089C26.4946 276.469 26.062 275.94 25.5071 275.567C24.9521 275.194 24.2998 274.995 23.6323 274.995C22.7374 274.995 21.879 275.353 21.2461 275.989C20.6133 276.625 20.2578 277.488 20.2578 278.388Z" fill="white" fill-opacity="0.3"/>
<path d="M504.01 339.365C504.01 340.23 504.266 341.077 504.744 341.797C505.223 342.516 505.903 343.078 506.698 343.409C507.494 343.74 508.369 343.827 509.214 343.658C510.059 343.489 510.835 343.072 511.443 342.46C512.052 341.848 512.467 341.068 512.635 340.219C512.803 339.37 512.717 338.489 512.387 337.69C512.058 336.89 511.5 336.206 510.784 335.725C510.068 335.244 509.226 334.987 508.365 334.987C507.21 334.987 506.102 335.448 505.286 336.269C504.469 337.09 504.01 338.204 504.01 339.365Z" fill="white" fill-opacity="0.3"/>
<path d="M506.689 339.365C506.689 339.69 506.785 340.007 506.965 340.277C507.144 340.547 507.399 340.757 507.697 340.882C507.996 341.006 508.324 341.038 508.641 340.975C508.958 340.912 509.249 340.755 509.477 340.526C509.705 340.296 509.861 340.004 509.924 339.685C509.987 339.367 509.954 339.037 509.831 338.737C509.707 338.437 509.498 338.181 509.229 338C508.961 337.82 508.645 337.724 508.322 337.724C507.889 337.724 507.474 337.897 507.168 338.204C506.861 338.512 506.689 338.93 506.689 339.365Z" fill="white" fill-opacity="0.3"/>
<path d="M506.363 339.364C506.363 339.754 506.478 340.135 506.694 340.459C506.909 340.783 507.215 341.035 507.573 341.184C507.931 341.333 508.325 341.372 508.705 341.296C509.085 341.22 509.434 341.033 509.708 340.757C509.982 340.482 510.169 340.131 510.245 339.749C510.32 339.367 510.281 338.971 510.133 338.611C509.985 338.251 509.734 337.943 509.411 337.727C509.089 337.51 508.71 337.395 508.323 337.395C508.065 337.392 507.809 337.441 507.57 337.539C507.331 337.637 507.113 337.782 506.931 337.965C506.748 338.149 506.604 338.367 506.507 338.607C506.409 338.848 506.36 339.105 506.363 339.364Z" fill="white" fill-opacity="0.3"/>
<path d="M190.832 334.528C190.832 335.26 191.048 335.975 191.452 336.583C191.856 337.191 192.431 337.665 193.103 337.945C193.775 338.225 194.515 338.299 195.229 338.156C195.943 338.013 196.598 337.661 197.113 337.143C197.627 336.626 197.978 335.967 198.12 335.25C198.262 334.532 198.189 333.788 197.91 333.113C197.632 332.437 197.16 331.859 196.555 331.452C195.95 331.046 195.239 330.829 194.511 330.829C193.535 330.829 192.599 331.219 191.909 331.912C191.219 332.606 190.832 333.547 190.832 334.528Z" fill="white" fill-opacity="0.3"/>
<path d="M99.0048 242.778C99.0048 243.479 99.2116 244.165 99.5992 244.748C99.9867 245.331 100.538 245.786 101.182 246.054C101.826 246.322 102.536 246.392 103.22 246.256C103.904 246.119 104.532 245.781 105.026 245.285C105.519 244.789 105.855 244.158 105.991 243.47C106.127 242.782 106.057 242.069 105.79 241.421C105.523 240.773 105.071 240.22 104.491 239.83C103.911 239.44 103.229 239.232 102.532 239.232C101.598 239.238 100.704 239.614 100.044 240.277C99.3839 240.941 99.0105 241.839 99.0048 242.778Z" fill="white" fill-opacity="0.3"/>
<path d="M147.377 358.209C147.377 358.751 147.537 359.28 147.836 359.729C148.135 360.179 148.56 360.53 149.057 360.737C149.554 360.944 150.101 360.998 150.629 360.893C151.157 360.787 151.642 360.527 152.023 360.144C152.403 359.761 152.663 359.274 152.768 358.743C152.873 358.213 152.819 357.662 152.613 357.163C152.407 356.663 152.058 356.235 151.61 355.935C151.163 355.634 150.637 355.474 150.098 355.474C149.377 355.474 148.684 355.762 148.174 356.275C147.664 356.788 147.377 357.484 147.377 358.209Z" fill="white" fill-opacity="0.3"/>
<path d="M191.813 334.527C191.813 335.064 191.971 335.589 192.268 336.035C192.565 336.482 192.986 336.829 193.48 337.035C193.973 337.24 194.516 337.294 195.039 337.189C195.563 337.085 196.044 336.826 196.422 336.447C196.799 336.067 197.056 335.583 197.161 335.057C197.265 334.53 197.211 333.985 197.007 333.489C196.803 332.993 196.457 332.569 196.013 332.271C195.569 331.973 195.047 331.813 194.513 331.813C193.797 331.813 193.11 332.099 192.604 332.608C192.098 333.117 191.813 333.808 191.813 334.527Z" fill="white" fill-opacity="0.3"/>
<path d="M100.547 242.756C100.543 243.157 100.658 243.549 100.876 243.883C101.094 244.218 101.407 244.479 101.774 244.634C102.141 244.789 102.545 244.831 102.936 244.754C103.326 244.677 103.685 244.485 103.967 244.202C104.248 243.919 104.439 243.558 104.516 243.166C104.592 242.773 104.551 242.366 104.397 241.998C104.242 241.629 103.982 241.315 103.65 241.095C103.317 240.875 102.927 240.76 102.529 240.765C102.005 240.77 101.504 240.982 101.134 241.354C100.764 241.727 100.553 242.23 100.547 242.756Z" fill="white" fill-opacity="0.3"/>
<path d="M95.5864 242.778C95.5864 244.146 95.9904 245.485 96.7473 246.622C97.5043 247.76 98.58 248.647 99.8383 249.169C101.097 249.692 102.481 249.828 103.816 249.559C105.151 249.291 106.377 248.63 107.338 247.66C108.3 246.691 108.953 245.457 109.216 244.113C109.479 242.77 109.34 241.379 108.816 240.116C108.292 238.852 107.407 237.774 106.272 237.016C105.138 236.259 103.806 235.857 102.444 235.861C101.542 235.861 100.648 236.04 99.8148 236.388C98.9814 236.736 98.2244 237.246 97.5873 237.888C96.9502 238.531 96.4455 239.294 96.1021 240.133C95.7588 240.972 95.5835 241.87 95.5864 242.778Z" fill="white" fill-opacity="0.3"/>
<path d="M194.49 341.487C190.667 341.487 187.567 338.371 187.567 334.527C187.567 330.684 190.667 327.567 194.49 327.567C198.314 327.567 201.414 330.684 201.414 334.527C201.414 338.371 198.314 341.487 194.49 341.487Z" fill="white" fill-opacity="0.3"/>
<path d="M100.57 242.756C100.566 243.152 100.679 243.54 100.895 243.871C101.111 244.202 101.42 244.46 101.783 244.614C102.146 244.767 102.546 244.808 102.932 244.732C103.319 244.656 103.674 244.466 103.952 244.186C104.23 243.906 104.419 243.549 104.495 243.161C104.571 242.773 104.53 242.37 104.377 242.006C104.225 241.641 103.967 241.33 103.638 241.113C103.309 240.896 102.923 240.782 102.529 240.786C102.01 240.786 101.511 240.994 101.144 241.363C100.776 241.733 100.57 242.234 100.57 242.756Z" fill="white" fill-opacity="0.3"/>
<path d="M16.7955 278.388C16.7955 279.747 17.1964 281.076 17.9476 282.206C18.6988 283.336 19.7665 284.217 21.0156 284.737C22.2647 285.258 23.6393 285.394 24.9653 285.129C26.2914 284.863 27.5095 284.209 28.4655 283.248C29.4216 282.287 30.0726 281.062 30.3364 279.729C30.6002 278.396 30.4648 277.014 29.9474 275.758C29.43 274.502 28.5538 273.429 27.4296 272.674C26.3054 271.919 24.9837 271.516 23.6317 271.516C21.8204 271.521 20.0849 272.247 18.8041 273.535C17.5234 274.822 16.8013 276.567 16.7955 278.388Z" fill="white" fill-opacity="0.3"/>
<path d="M97.1526 301.391C97.1168 301.82 97.1698 302.251 97.3083 302.658C97.4468 303.065 97.6679 303.439 97.9574 303.755C98.247 304.072 98.5988 304.325 98.9905 304.498C99.3822 304.671 99.8054 304.76 100.233 304.76C100.661 304.76 101.084 304.671 101.476 304.498C101.868 304.325 102.219 304.072 102.509 303.755C102.799 303.439 103.02 303.065 103.158 302.658C103.297 302.251 103.35 301.82 103.314 301.391C103.249 300.615 102.896 299.891 102.326 299.364C101.755 298.837 101.008 298.544 100.233 298.544C99.4582 298.544 98.7114 298.837 98.1409 299.364C97.5703 299.891 97.2176 300.615 97.1526 301.391Z" fill="white" fill-opacity="0.3"/>
<path d="M147.836 358.209C147.836 358.642 147.964 359.065 148.203 359.425C148.442 359.785 148.782 360.066 149.18 360.231C149.578 360.397 150.016 360.44 150.438 360.356C150.86 360.271 151.248 360.063 151.553 359.757C151.857 359.451 152.065 359.061 152.149 358.636C152.233 358.212 152.19 357.772 152.025 357.372C151.86 356.972 151.581 356.63 151.223 356.389C150.865 356.149 150.444 356.021 150.013 356.021C149.436 356.021 148.882 356.251 148.474 356.662C148.066 357.072 147.836 357.629 147.836 358.209Z" fill="white" fill-opacity="0.3"/>
<path d="M20.4308 278.388C20.4308 279.029 20.6203 279.656 20.9753 280.19C21.3303 280.723 21.8349 281.138 22.4249 281.382C23.0149 281.627 23.6639 281.69 24.2895 281.563C24.9151 281.436 25.4892 281.126 25.939 280.67C26.3887 280.215 26.6939 279.636 26.8157 279.006C26.9376 278.376 26.8707 277.724 26.6234 277.133C26.3762 276.541 25.9599 276.037 25.4271 275.684C24.8944 275.33 24.2693 275.144 23.6311 275.149C23.209 275.149 22.791 275.232 22.4013 275.395C22.0116 275.559 21.6579 275.797 21.3604 276.099C21.0629 276.4 20.8276 276.757 20.6681 277.15C20.5085 277.543 20.4279 277.963 20.4308 278.388Z" fill="white" fill-opacity="0.3"/>
<path d="M18.1431 278.388C18.1431 279.478 18.4649 280.545 19.0677 281.452C19.6706 282.359 20.5274 283.066 21.5299 283.483C22.5324 283.901 23.6355 284.01 24.6997 283.797C25.764 283.584 26.7415 283.059 27.5088 282.288C28.2761 281.516 28.7986 280.533 29.0103 279.464C29.222 278.394 29.1133 277.285 28.6981 276.277C28.2829 275.269 27.5797 274.408 26.6775 273.802C25.7752 273.196 24.7145 272.872 23.6295 272.872C22.1744 272.872 20.7789 273.453 19.75 274.488C18.7211 275.522 18.1431 276.925 18.1431 278.388Z" fill="white" fill-opacity="0.3"/>
<path d="M102.528 244.66C101.494 244.66 100.656 243.817 100.656 242.778C100.656 241.738 101.494 240.896 102.528 240.896C103.562 240.896 104.4 241.738 104.4 242.778C104.4 243.817 103.562 244.66 102.528 244.66Z" fill="white" fill-opacity="0.5"/>
<path d="M148.425 358.21C148.425 358.543 148.523 358.869 148.708 359.146C148.892 359.423 149.154 359.639 149.46 359.767C149.766 359.894 150.103 359.928 150.429 359.863C150.754 359.798 151.052 359.637 151.287 359.401C151.521 359.166 151.681 358.865 151.746 358.539C151.81 358.212 151.777 357.873 151.65 357.565C151.523 357.257 151.309 356.994 151.033 356.808C150.757 356.623 150.433 356.524 150.101 356.524C149.657 356.524 149.23 356.702 148.916 357.018C148.602 357.334 148.425 357.763 148.425 358.21Z" fill="white" fill-opacity="0.5"/>
<path d="M21.8014 278.388C21.8014 278.752 21.9087 279.107 22.1096 279.41C22.3106 279.712 22.5962 279.948 22.9304 280.087C23.2645 280.226 23.6322 280.262 23.987 280.191C24.3417 280.121 24.6676 279.945 24.9234 279.688C25.1791 279.431 25.3533 279.104 25.4239 278.747C25.4944 278.39 25.4582 278.021 25.3197 277.685C25.1813 277.349 24.947 277.062 24.6462 276.86C24.3455 276.658 23.9919 276.55 23.6302 276.55C23.147 276.555 22.685 276.751 22.3433 277.095C22.0016 277.438 21.8071 277.902 21.8014 278.388Z" fill="white" fill-opacity="0.3"/>
<path d="M96.608 301.391C96.5693 301.893 96.6342 302.398 96.7988 302.874C96.9634 303.35 97.2241 303.787 97.5645 304.156C97.9049 304.526 98.3176 304.821 98.7768 305.023C99.236 305.225 99.7318 305.329 100.233 305.329C100.734 305.329 101.23 305.225 101.689 305.023C102.148 304.821 102.561 304.526 102.901 304.156C103.242 303.787 103.502 303.35 103.667 302.874C103.832 302.398 103.897 301.893 103.858 301.391C103.787 300.473 103.374 299.616 102.702 298.991C102.03 298.366 101.149 298.019 100.233 298.019C99.3173 298.019 98.4354 298.366 97.7634 298.991C97.0914 299.616 96.6788 300.473 96.608 301.391Z" fill="white" fill-opacity="0.3"/>
<path d="M17.9912 278.388C17.9868 279.51 18.3139 280.608 18.9309 281.543C19.5478 282.478 20.427 283.208 21.4569 283.641C22.4869 284.073 23.6213 284.189 24.7166 283.972C25.8118 283.756 26.8185 283.218 27.6093 282.426C28.4001 281.634 28.9393 280.624 29.1586 279.524C29.3779 278.424 29.2676 277.283 28.8414 276.246C28.4153 275.209 27.6926 274.322 26.7648 273.698C25.8371 273.074 24.7461 272.741 23.6299 272.741C22.1382 272.741 20.7073 273.335 19.6504 274.394C18.5936 275.452 17.9969 276.888 17.9912 278.388Z" fill="white" fill-opacity="0.3"/>
<path d="M97.5647 301.391C97.5647 301.924 97.7217 302.444 98.016 302.887C98.3102 303.33 98.7285 303.675 99.2178 303.878C99.7071 304.082 100.246 304.136 100.765 304.032C101.284 303.928 101.762 303.671 102.136 303.295C102.511 302.918 102.766 302.439 102.869 301.916C102.972 301.394 102.919 300.853 102.717 300.361C102.514 299.869 102.171 299.449 101.73 299.153C101.29 298.857 100.772 298.699 100.243 298.699C99.5324 298.699 98.8512 298.983 98.349 299.488C97.8468 299.993 97.5647 300.677 97.5647 301.391Z" fill="white" fill-opacity="0.3"/>
<path d="M981.364 363.09C979.789 363.09 978.512 361.806 978.512 360.223C978.512 358.639 979.789 357.355 981.364 357.355C982.939 357.355 984.216 358.639 984.216 360.223C984.216 361.806 982.939 363.09 981.364 363.09Z" fill="white" fill-opacity="0.3"/>
<path d="M619.831 413.78C619.827 414.392 620.004 414.992 620.34 415.503C620.675 416.014 621.154 416.413 621.716 416.649C622.278 416.885 622.897 416.948 623.495 416.83C624.092 416.711 624.641 416.417 625.072 415.984C625.502 415.551 625.795 414.999 625.913 414.399C626.031 413.798 625.968 413.176 625.733 412.611C625.498 412.046 625.101 411.564 624.593 411.227C624.085 410.889 623.488 410.712 622.879 410.716C622.071 410.716 621.296 411.039 620.724 411.613C620.152 412.188 619.831 412.967 619.831 413.78Z" fill="white" fill-opacity="0.3"/>
<path d="M508.298 340.765C507.529 340.765 506.905 340.138 506.905 339.365C506.905 338.591 507.529 337.964 508.298 337.964C509.068 337.964 509.691 338.591 509.691 339.365C509.691 340.138 509.068 340.765 508.298 340.765Z" fill="white" fill-opacity="0.5"/>
<path d="M506.276 404.873C505.362 404.873 504.621 404.128 504.621 403.209C504.621 402.291 505.362 401.546 506.276 401.546C507.19 401.546 507.931 402.291 507.931 403.209C507.931 404.128 507.19 404.873 506.276 404.873Z" fill="white" fill-opacity="0.5"/>
<path d="M621.246 413.781C621.246 414.111 621.344 414.433 621.526 414.707C621.709 414.981 621.969 415.194 622.273 415.32C622.576 415.445 622.91 415.476 623.231 415.41C623.553 415.344 623.848 415.184 624.078 414.949C624.309 414.714 624.465 414.416 624.526 414.092C624.587 413.768 624.551 413.432 624.423 413.129C624.294 412.825 624.079 412.567 623.804 412.387C623.529 412.207 623.207 412.113 622.879 412.117C622.444 412.123 622.028 412.301 621.723 412.612C621.417 412.924 621.246 413.343 621.246 413.781Z" fill="white" fill-opacity="0.3"/>
<path d="M500.309 339.365C500.309 340.958 500.779 342.515 501.66 343.84C502.54 345.164 503.791 346.197 505.255 346.806C506.719 347.416 508.33 347.575 509.884 347.265C511.438 346.954 512.866 346.187 513.986 345.06C515.107 343.934 515.87 342.499 516.179 340.936C516.488 339.374 516.33 337.754 515.723 336.283C515.117 334.811 514.09 333.553 512.772 332.668C511.455 331.783 509.906 331.311 508.321 331.311C507.268 331.308 506.225 331.514 505.252 331.918C504.279 332.322 503.394 332.915 502.65 333.663C501.905 334.412 501.315 335.301 500.913 336.279C500.512 337.258 500.307 338.306 500.309 339.365Z" fill="white" fill-opacity="0.3"/>
<path d="M505.253 339.365C505.248 339.976 505.425 340.575 505.759 341.085C506.094 341.596 506.572 341.995 507.133 342.232C507.693 342.469 508.311 342.533 508.908 342.416C509.505 342.3 510.054 342.007 510.485 341.577C510.917 341.146 511.211 340.596 511.331 339.997C511.452 339.398 511.392 338.776 511.161 338.211C510.929 337.646 510.535 337.163 510.03 336.822C509.525 336.482 508.931 336.301 508.322 336.301C507.512 336.301 506.735 336.623 506.159 337.197C505.584 337.771 505.258 338.55 505.253 339.365Z" fill="white" fill-opacity="0.3"/>
<path d="M621.031 413.78C621.027 414.155 621.134 414.521 621.338 414.834C621.542 415.147 621.834 415.392 622.177 415.537C622.52 415.682 622.898 415.721 623.264 415.649C623.629 415.577 623.964 415.398 624.227 415.133C624.491 414.869 624.669 414.531 624.741 414.164C624.812 413.797 624.774 413.417 624.629 413.072C624.485 412.727 624.241 412.433 623.93 412.228C623.619 412.023 623.254 411.916 622.882 411.92C622.391 411.92 621.92 412.116 621.573 412.465C621.226 412.814 621.031 413.287 621.031 413.78Z" fill="white" fill-opacity="0.3"/>
<path d="M505.36 339.365C505.36 339.954 505.534 340.529 505.859 341.019C506.184 341.508 506.647 341.89 507.188 342.115C507.729 342.341 508.324 342.4 508.899 342.285C509.473 342.17 510 341.886 510.415 341.47C510.829 341.054 511.111 340.523 511.225 339.946C511.339 339.369 511.28 338.77 511.056 338.226C510.832 337.682 510.453 337.217 509.966 336.89C509.479 336.563 508.906 336.389 508.321 336.389C507.536 336.389 506.782 336.702 506.227 337.26C505.672 337.819 505.36 338.576 505.36 339.365Z" fill="white" fill-opacity="0.3"/>
<path d="M481.39 367.38C478.612 367.38 476.361 365.117 476.361 362.324C476.361 359.532 478.612 357.269 481.39 357.269C484.167 357.269 486.419 359.532 486.419 362.324C486.419 365.117 484.167 367.38 481.39 367.38Z" fill="white" fill-opacity="0.3"/>
<path d="M506.273 407.389C503.976 407.389 502.115 405.517 502.115 403.209C502.115 400.9 503.976 399.028 506.273 399.028C508.569 399.028 510.431 400.9 510.431 403.209C510.431 405.517 508.569 407.389 506.273 407.389Z" fill="white" fill-opacity="0.3"/>
<path d="M508.3 340.284C507.795 340.284 507.386 339.872 507.386 339.365C507.386 338.857 507.795 338.445 508.3 338.445C508.805 338.445 509.215 338.857 509.215 339.365C509.215 339.872 508.805 340.284 508.3 340.284Z" fill="white" fill-opacity="0.3"/>
<path d="M501.44 403.275C501.436 404.241 501.717 405.187 502.248 405.992C502.778 406.798 503.535 407.427 504.422 407.8C505.309 408.173 506.286 408.272 507.229 408.086C508.172 407.901 509.039 407.437 509.72 406.756C510.401 406.074 510.866 405.204 511.055 404.257C511.244 403.31 511.149 402.327 510.782 401.434C510.416 400.541 509.793 399.777 508.995 399.24C508.196 398.703 507.256 398.416 506.295 398.416C505.011 398.416 503.78 398.927 502.87 399.838C501.96 400.748 501.446 401.984 501.44 403.275Z" fill="white" fill-opacity="0.3"/>
<path d="M481.39 370.685C476.796 370.685 473.073 366.941 473.073 362.324C473.073 357.706 476.796 353.963 481.39 353.963C485.983 353.963 489.706 357.706 489.706 362.324C489.706 366.941 485.983 370.685 481.39 370.685Z" fill="white" fill-opacity="0.3"/>
<path d="M477.884 362.324C477.953 363.213 478.354 364.044 479.006 364.649C479.658 365.255 480.512 365.591 481.4 365.591C482.287 365.591 483.142 365.255 483.794 364.649C484.446 364.044 484.846 363.213 484.916 362.324C484.954 361.836 484.892 361.346 484.732 360.884C484.573 360.422 484.32 359.998 483.99 359.639C483.66 359.28 483.259 358.993 482.813 358.797C482.368 358.601 481.886 358.5 481.4 358.5C480.913 358.5 480.432 358.601 479.986 358.797C479.541 358.993 479.14 359.28 478.81 359.639C478.48 359.998 478.227 360.422 478.068 360.884C477.908 361.346 477.846 361.836 477.884 362.324Z" fill="white" fill-opacity="0.3"/>
<path d="M304.826 368.255C304.826 369.121 305.082 369.967 305.56 370.687C306.038 371.407 306.719 371.968 307.514 372.299C308.31 372.631 309.185 372.717 310.03 372.549C310.875 372.38 311.65 371.963 312.259 371.351C312.868 370.738 313.283 369.958 313.451 369.109C313.619 368.26 313.533 367.38 313.203 366.58C312.874 365.78 312.316 365.097 311.6 364.616C310.883 364.135 310.042 363.878 309.18 363.878C308.026 363.878 306.918 364.339 306.102 365.16C305.285 365.981 304.826 367.094 304.826 368.255Z" fill="white" fill-opacity="0.3"/>
<path d="M188.373 334.528C188.373 335.748 188.733 336.942 189.408 337.957C190.083 338.972 191.042 339.763 192.163 340.23C193.285 340.697 194.52 340.819 195.711 340.581C196.902 340.343 197.996 339.755 198.854 338.892C199.713 338.029 200.297 336.929 200.534 335.732C200.771 334.534 200.65 333.293 200.185 332.166C199.72 331.038 198.933 330.074 197.924 329.396C196.914 328.717 195.727 328.355 194.513 328.355C192.885 328.355 191.323 329.006 190.172 330.163C189.02 331.321 188.373 332.891 188.373 334.528Z" fill="white" fill-opacity="0.5"/>
<path d="M178.881 389.945C176.08 389.945 173.809 387.662 173.809 384.846C173.809 382.029 176.08 379.746 178.881 379.746C181.683 379.746 183.954 382.029 183.954 384.846C183.954 387.662 181.683 389.945 178.881 389.945Z" fill="white" fill-opacity="0.3"/>
<path d="M307.288 368.256C307.283 368.639 307.392 369.014 307.601 369.334C307.81 369.654 308.109 369.904 308.46 370.053C308.811 370.201 309.198 370.241 309.572 370.168C309.945 370.094 310.289 369.91 310.558 369.64C310.827 369.369 311.01 369.024 311.083 368.648C311.157 368.272 311.117 367.883 310.969 367.53C310.821 367.178 310.573 366.877 310.254 366.667C309.936 366.457 309.562 366.347 309.182 366.352C308.679 366.352 308.198 366.552 307.842 366.909C307.487 367.266 307.288 367.751 307.288 368.256Z" fill="white" fill-opacity="0.3"/>
<path d="M191.791 334.528C191.791 335.069 191.95 335.598 192.249 336.048C192.548 336.498 192.973 336.848 193.471 337.055C193.968 337.263 194.515 337.317 195.043 337.211C195.571 337.106 196.056 336.845 196.436 336.462C196.817 336.08 197.076 335.592 197.181 335.062C197.286 334.531 197.232 333.981 197.026 333.481C196.82 332.981 196.471 332.554 196.024 332.253C195.576 331.952 195.05 331.792 194.512 331.792C193.79 331.792 193.098 332.08 192.588 332.593C192.077 333.106 191.791 333.802 191.791 334.528Z" fill="white" fill-opacity="0.3"/>
<path d="M190.658 334.527C190.658 335.294 190.884 336.043 191.307 336.68C191.731 337.317 192.332 337.813 193.037 338.106C193.741 338.4 194.516 338.476 195.263 338.327C196.011 338.177 196.697 337.808 197.236 337.267C197.775 336.725 198.142 336.035 198.291 335.283C198.439 334.532 198.363 333.753 198.071 333.045C197.78 332.337 197.286 331.732 196.652 331.306C196.018 330.881 195.273 330.653 194.511 330.653C194.004 330.65 193.502 330.749 193.033 330.942C192.564 331.136 192.138 331.421 191.78 331.782C191.422 332.142 191.138 332.57 190.945 333.041C190.753 333.513 190.655 334.018 190.658 334.527Z" fill="white" fill-opacity="0.3"/>
<path d="M305.522 368.255C305.522 368.982 305.737 369.693 306.139 370.298C306.541 370.903 307.112 371.374 307.78 371.652C308.449 371.931 309.184 372.003 309.893 371.861C310.603 371.72 311.255 371.369 311.766 370.855C312.278 370.341 312.626 369.686 312.767 368.972C312.908 368.259 312.836 367.52 312.559 366.848C312.282 366.176 311.813 365.602 311.212 365.198C310.61 364.794 309.903 364.578 309.18 364.578C308.7 364.578 308.224 364.673 307.78 364.858C307.336 365.043 306.933 365.314 306.594 365.655C306.254 365.997 305.985 366.402 305.801 366.848C305.617 367.294 305.522 367.772 305.522 368.255Z" fill="white" fill-opacity="0.3"/>
<path d="M194.489 336.979C193.142 336.979 192.05 335.881 192.05 334.528C192.05 333.174 193.142 332.076 194.489 332.076C195.835 332.076 196.927 333.174 196.927 334.528C196.927 335.881 195.835 336.979 194.489 336.979Z" fill="white" fill-opacity="0.3"/>
<path d="M148.617 358.21C148.613 358.505 148.696 358.795 148.856 359.042C149.016 359.29 149.246 359.484 149.516 359.6C149.786 359.716 150.084 359.749 150.373 359.694C150.662 359.639 150.927 359.499 151.137 359.292C151.346 359.085 151.489 358.819 151.548 358.53C151.607 358.241 151.579 357.94 151.468 357.667C151.356 357.394 151.166 357.16 150.923 356.996C150.679 356.831 150.392 356.743 150.098 356.743C149.904 356.74 149.712 356.776 149.533 356.849C149.353 356.921 149.19 357.029 149.052 357.165C148.915 357.301 148.805 357.464 148.73 357.643C148.656 357.823 148.617 358.015 148.617 358.21Z" fill="white" fill-opacity="0.3"/>
<path d="M89.9015 410.497C89.0237 410.497 88.3122 409.782 88.3122 408.899C88.3122 408.017 89.0237 407.302 89.9015 407.302C90.7792 407.302 91.4907 408.017 91.4907 408.899C91.4907 409.782 90.7792 410.497 89.9015 410.497Z" fill="white" fill-opacity="0.3"/>
<path d="M178.88 386.181C178.147 386.181 177.552 385.583 177.552 384.846C177.552 384.109 178.147 383.511 178.88 383.511C179.613 383.511 180.208 384.109 180.208 384.846C180.208 385.583 179.613 386.181 178.88 386.181Z" fill="white" fill-opacity="0.3"/>
<path d="M148.316 358.209C148.289 358.46 148.314 358.714 148.391 358.954C148.467 359.195 148.593 359.416 148.761 359.604C148.928 359.792 149.133 359.943 149.362 360.046C149.591 360.149 149.84 360.202 150.091 360.202C150.342 360.202 150.59 360.149 150.819 360.046C151.048 359.943 151.253 359.792 151.421 359.604C151.588 359.416 151.714 359.195 151.791 358.954C151.867 358.714 151.893 358.46 151.865 358.209C151.817 357.77 151.609 357.364 151.281 357.07C150.954 356.775 150.53 356.612 150.091 356.612C149.651 356.612 149.227 356.775 148.9 357.07C148.573 357.364 148.365 357.77 148.316 358.209Z" fill="white" fill-opacity="0.3"/>
<path d="M147.618 358.21C147.613 358.704 147.755 359.189 148.025 359.602C148.296 360.015 148.682 360.338 149.135 360.53C149.588 360.723 150.088 360.775 150.57 360.681C151.053 360.588 151.498 360.352 151.847 360.004C152.196 359.656 152.435 359.211 152.532 358.726C152.63 358.242 152.582 357.739 152.395 357.282C152.208 356.825 151.889 356.434 151.481 356.158C151.072 355.883 150.592 355.736 150.1 355.736C149.775 355.734 149.453 355.795 149.152 355.918C148.851 356.041 148.577 356.223 148.346 356.453C148.115 356.683 147.932 356.957 147.807 357.258C147.682 357.56 147.618 357.883 147.618 358.21Z" fill="white" fill-opacity="0.3"/>
<path d="M191.377 334.528C191.377 335.147 191.56 335.752 191.902 336.267C192.244 336.782 192.73 337.183 193.299 337.42C193.868 337.657 194.494 337.719 195.098 337.598C195.702 337.477 196.256 337.179 196.692 336.741C197.127 336.304 197.424 335.746 197.544 335.139C197.664 334.532 197.602 333.902 197.367 333.331C197.131 332.759 196.732 332.27 196.22 331.926C195.708 331.582 195.106 331.398 194.49 331.398C193.665 331.398 192.873 331.728 192.289 332.315C191.705 332.902 191.377 333.698 191.377 334.528Z" fill="white" fill-opacity="0.3"/>
<path d="M170.152 384.846C170.152 386.577 170.662 388.27 171.619 389.709C172.576 391.149 173.936 392.271 175.527 392.934C177.119 393.597 178.87 393.77 180.559 393.432C182.248 393.094 183.8 392.261 185.018 391.036C186.236 389.812 187.065 388.252 187.401 386.554C187.737 384.855 187.565 383.095 186.906 381.495C186.246 379.896 185.13 378.528 183.698 377.566C182.266 376.604 180.582 376.091 178.86 376.091C176.55 376.091 174.335 377.013 172.702 378.655C171.069 380.297 170.152 382.524 170.152 384.846Z" fill="white" fill-opacity="0.3"/>
<path d="M150.076 361.733C148.14 361.733 146.571 360.155 146.571 358.209C146.571 356.263 148.14 354.686 150.076 354.686C152.012 354.686 153.581 356.263 153.581 358.209C153.581 360.155 152.012 361.733 150.076 361.733Z" fill="white" fill-opacity="0.3"/>
<path d="M95.9557 301.391C95.9557 302.257 96.211 303.103 96.6894 303.823C97.1679 304.543 97.8479 305.104 98.6436 305.435C99.4392 305.767 100.315 305.853 101.159 305.684C102.004 305.515 102.78 305.099 103.389 304.486C103.998 303.874 104.412 303.094 104.58 302.245C104.748 301.396 104.662 300.516 104.333 299.716C104.003 298.916 103.445 298.232 102.729 297.751C102.013 297.27 101.171 297.014 100.31 297.014C99.1551 297.014 98.0476 297.475 97.231 298.296C96.4144 299.117 95.9557 300.23 95.9557 301.391Z" fill="white" fill-opacity="0.3"/>
<path d="M28.006 362.565C25.9018 362.565 24.196 360.85 24.196 358.735C24.196 356.619 25.9018 354.904 28.006 354.904C30.1101 354.904 31.8159 356.619 31.8159 358.735C31.8159 360.85 30.1101 362.565 28.006 362.565Z" fill="white" fill-opacity="0.3"/>
<path d="M89.9007 410.52C89.0109 410.52 88.2896 409.794 88.2896 408.9C88.2896 408.005 89.0109 407.28 89.9007 407.28C90.7904 407.28 91.5117 408.005 91.5117 408.9C91.5117 409.794 90.7904 410.52 89.9007 410.52Z" fill="white" fill-opacity="0.3"/>
<path d="M100.222 303.864C98.8638 303.864 97.7623 302.757 97.7623 301.391C97.7623 300.025 98.8638 298.918 100.222 298.918C101.581 298.918 102.683 300.025 102.683 301.391C102.683 302.757 101.581 303.864 100.222 303.864Z" fill="white" fill-opacity="0.3"/>
<path d="M92.6216 301.391C92.6173 302.907 93.0605 304.391 93.8952 305.653C94.7298 306.916 95.9184 307.901 97.3104 308.484C98.7024 309.067 100.235 309.222 101.715 308.929C103.194 308.636 104.554 307.908 105.622 306.838C106.69 305.767 107.418 304.402 107.713 302.916C108.009 301.429 107.859 299.888 107.283 298.487C106.707 297.086 105.731 295.888 104.477 295.045C103.224 294.203 101.75 293.753 100.242 293.753C98.2244 293.753 96.2895 294.557 94.8611 295.989C93.4327 297.421 92.6274 299.364 92.6216 301.391Z" fill="white" fill-opacity="0.5"/>
<path d="M146.985 358.209C146.976 358.834 147.154 359.447 147.495 359.969C147.835 360.491 148.324 360.899 148.897 361.14C149.47 361.38 150.102 361.443 150.711 361.32C151.32 361.197 151.879 360.894 152.315 360.449C152.751 360.004 153.045 359.439 153.158 358.825C153.272 358.211 153.2 357.576 152.953 357.004C152.705 356.431 152.292 355.946 151.768 355.611C151.244 355.276 150.632 355.106 150.011 355.123C149.208 355.146 148.445 355.48 147.881 356.055C147.317 356.63 146.996 357.402 146.985 358.209Z" fill="white" fill-opacity="0.3"/>
<path d="M86.7228 408.899C86.7228 409.536 86.9111 410.159 87.2637 410.689C87.6163 411.218 88.1175 411.631 88.7035 411.874C89.2896 412.116 89.9342 412.179 90.5556 412.053C91.177 411.927 91.7472 411.618 92.1939 411.166C92.6406 410.714 92.9436 410.139 93.0647 409.513C93.1857 408.888 93.1192 408.24 92.8736 407.653C92.6281 407.065 92.2145 406.564 91.6853 406.213C91.1562 405.862 90.5353 405.677 89.9015 405.682C89.4822 405.682 89.067 405.765 88.68 405.927C88.2929 406.089 87.9415 406.326 87.6461 406.625C87.3506 406.924 87.1169 407.279 86.9585 407.669C86.8 408.06 86.72 408.478 86.7228 408.899Z" fill="white" fill-opacity="0.3"/>
<path d="M98.5907 301.391C98.5907 301.72 98.6877 302.042 98.8695 302.315C99.0513 302.589 99.3097 302.802 99.6121 302.928C99.9144 303.054 100.247 303.087 100.568 303.022C100.889 302.958 101.184 302.8 101.415 302.567C101.647 302.334 101.804 302.038 101.868 301.715C101.932 301.393 101.899 301.058 101.774 300.754C101.649 300.45 101.437 300.191 101.165 300.008C100.892 299.825 100.573 299.728 100.245 299.728C100.028 299.728 99.8128 299.771 99.6121 299.854C99.4113 299.938 99.2289 300.06 99.0753 300.215C98.9217 300.369 98.7998 300.553 98.7167 300.754C98.6335 300.956 98.5907 301.172 98.5907 301.391Z" fill="white" fill-opacity="0.3"/>
<path d="M26.0465 358.735C26.0465 359.13 26.1632 359.516 26.3819 359.844C26.6006 360.172 26.9113 360.427 27.2746 360.577C27.6379 360.727 28.0373 360.765 28.4222 360.687C28.8071 360.608 29.16 360.416 29.4362 360.135C29.7124 359.855 29.8994 359.498 29.9733 359.11C30.0473 358.722 30.005 358.321 29.8517 357.957C29.6984 357.594 29.4411 357.284 29.1124 357.068C28.7837 356.852 28.3986 356.739 28.0058 356.743C27.7467 356.743 27.4901 356.795 27.2509 356.895C27.0118 356.996 26.7948 357.143 26.6126 357.328C26.4304 357.513 26.2865 357.733 26.1893 357.974C26.0921 358.216 26.0436 358.474 26.0465 358.735Z" fill="white" fill-opacity="0.3"/>
<path d="M97.4781 301.391C97.4441 301.775 97.49 302.162 97.613 302.528C97.7359 302.893 97.9332 303.229 98.1923 303.513C98.4513 303.798 98.7664 304.025 99.1176 304.181C99.4688 304.336 99.8484 304.417 100.232 304.417C100.616 304.417 100.995 304.336 101.347 304.181C101.698 304.025 102.013 303.798 102.272 303.513C102.531 303.229 102.728 302.893 102.851 302.528C102.974 302.162 103.02 301.775 102.986 301.391C102.925 300.699 102.608 300.055 102.099 299.586C101.589 299.117 100.923 298.857 100.232 298.857C99.5413 298.857 98.8755 299.117 98.3657 299.586C97.856 300.055 97.5393 300.699 97.4781 301.391Z" fill="white" fill-opacity="0.3"/>
<path d="M23.7406 358.735C23.7363 359.568 23.9783 360.384 24.4359 361.078C24.8936 361.772 25.5462 362.314 26.3109 362.635C27.0756 362.956 27.9179 363.041 28.7307 362.88C29.5436 362.718 30.2904 362.317 30.8763 361.728C31.4622 361.139 31.8607 360.389 32.0213 359.571C32.1819 358.754 32.0973 357.908 31.7782 357.139C31.4591 356.37 30.92 355.714 30.2293 355.254C29.5386 354.794 28.7274 354.55 27.8988 354.555C26.796 354.555 25.7383 354.995 24.9585 355.779C24.1786 356.563 23.7406 357.626 23.7406 358.735Z" fill="white" fill-opacity="0.3"/>
<path d="M976.224 360.201C976.224 361.573 976.764 362.889 977.727 363.861C978.69 364.833 979.997 365.382 981.361 365.388C982.038 365.388 982.708 365.254 983.333 364.993C983.958 364.732 984.525 364.349 985.002 363.867C985.48 363.385 985.858 362.813 986.115 362.184C986.372 361.555 986.502 360.881 986.499 360.201C986.477 358.846 985.925 357.555 984.964 356.605C984.003 355.655 982.709 355.123 981.361 355.123C980.014 355.123 978.72 355.655 977.759 356.605C976.798 357.555 976.246 358.846 976.224 360.201Z" fill="white" fill-opacity="0.3"/>
<path d="M618.81 413.78C618.805 414.596 619.042 415.395 619.49 416.075C619.939 416.755 620.578 417.285 621.326 417.6C622.075 417.914 622.9 417.997 623.696 417.839C624.492 417.681 625.223 417.289 625.797 416.712C626.371 416.135 626.761 415.4 626.918 414.6C627.075 413.799 626.992 412.97 626.68 412.218C626.367 411.465 625.839 410.822 625.163 410.372C624.487 409.921 623.692 409.683 622.881 409.688C621.801 409.688 620.766 410.119 620.002 410.886C619.239 411.654 618.81 412.695 618.81 413.78Z" fill="white" fill-opacity="0.3"/>
<path d="M620.139 413.78C620.139 414.33 620.302 414.869 620.607 415.326C620.911 415.784 621.345 416.14 621.851 416.35C622.358 416.56 622.915 416.613 623.452 416.504C623.988 416.395 624.481 416.128 624.867 415.737C625.253 415.346 625.514 414.849 625.618 414.308C625.723 413.768 625.665 413.208 625.452 412.701C625.24 412.193 624.882 411.761 624.424 411.458C623.967 411.155 623.43 410.996 622.882 411C622.52 411 622.162 411.072 621.827 411.212C621.493 411.352 621.19 411.557 620.935 411.816C620.68 412.074 620.478 412.381 620.342 412.718C620.205 413.055 620.136 413.416 620.139 413.78Z" fill="white" fill-opacity="0.5"/>
<path d="M622.88 415.399C621.99 415.399 621.269 414.674 621.269 413.78C621.269 412.885 621.99 412.16 622.88 412.16C623.77 412.16 624.491 412.885 624.491 413.78C624.491 414.674 623.77 415.399 622.88 415.399Z" fill="white" fill-opacity="0.3"/>
<path d="M622.879 416.735C621.256 416.735 619.94 415.412 619.94 413.78C619.94 412.148 621.256 410.825 622.879 410.825C624.502 410.825 625.818 412.148 625.818 413.78C625.818 415.412 624.502 416.735 622.879 416.735Z" fill="white" fill-opacity="0.5"/>
<path d="M503.947 403.275C503.943 403.743 504.077 404.202 504.333 404.594C504.588 404.985 504.954 405.292 505.383 405.474C505.812 405.656 506.286 405.706 506.743 405.617C507.201 405.529 507.622 405.305 507.953 404.976C508.284 404.646 508.51 404.225 508.603 403.766C508.695 403.307 508.65 402.83 508.473 402.397C508.295 401.964 507.994 401.593 507.607 401.333C507.22 401.072 506.764 400.933 506.298 400.933C505.678 400.933 505.084 401.179 504.643 401.617C504.203 402.056 503.953 402.651 503.947 403.275Z" fill="white" fill-opacity="0.3"/>
<path d="M500.529 403.274C500.529 404.426 500.868 405.551 501.505 406.509C502.141 407.466 503.045 408.212 504.104 408.653C505.162 409.093 506.326 409.209 507.45 408.984C508.573 408.759 509.605 408.205 510.415 407.391C511.225 406.577 511.776 405.539 512 404.41C512.223 403.281 512.108 402.11 511.67 401.046C511.232 399.982 510.489 399.073 509.537 398.433C508.585 397.794 507.465 397.452 506.32 397.452C504.784 397.452 503.311 398.066 502.225 399.157C501.139 400.249 500.529 401.73 500.529 403.274Z" fill="white" fill-opacity="0.3"/>
<path d="M503.403 403.275C503.399 403.852 503.565 404.416 503.88 404.898C504.196 405.38 504.646 405.756 505.175 405.98C505.704 406.204 506.287 406.264 506.85 406.154C507.413 406.045 507.931 405.769 508.338 405.363C508.745 404.957 509.023 404.438 509.137 403.873C509.25 403.308 509.194 402.721 508.976 402.188C508.757 401.655 508.386 401.199 507.909 400.878C507.433 400.557 506.872 400.386 506.298 400.386C505.919 400.383 505.543 400.456 505.192 400.599C504.841 400.743 504.521 400.956 504.252 401.224C503.983 401.493 503.769 401.812 503.624 402.164C503.478 402.516 503.403 402.894 503.403 403.275Z" fill="white" fill-opacity="0.3"/>
<path d="M620.617 413.78C620.617 414.213 620.745 414.637 620.984 414.996C621.224 415.356 621.564 415.637 621.961 415.803C622.359 415.968 622.797 416.012 623.219 415.927C623.642 415.843 624.03 415.634 624.334 415.328C624.638 415.022 624.846 414.632 624.93 414.207C625.014 413.783 624.971 413.343 624.806 412.943C624.641 412.543 624.362 412.201 624.004 411.961C623.646 411.72 623.225 411.592 622.795 411.592C622.217 411.592 621.663 411.822 621.255 412.233C620.847 412.643 620.617 413.2 620.617 413.78Z" fill="white" fill-opacity="0.3"/>
<path d="M504.882 403.275C504.877 403.566 504.959 403.851 505.117 404.095C505.274 404.339 505.501 404.531 505.767 404.645C506.033 404.759 506.327 404.791 506.611 404.737C506.896 404.683 507.158 404.545 507.364 404.341C507.57 404.137 507.711 403.876 507.769 403.591C507.827 403.306 507.8 403.01 507.69 402.741C507.58 402.471 507.393 402.241 507.153 402.079C506.913 401.917 506.63 401.83 506.34 401.83C505.957 401.83 505.589 401.982 505.317 402.252C505.044 402.522 504.887 402.89 504.882 403.275Z" fill="white" fill-opacity="0.3"/>
<path d="M481.389 362.849C481.101 362.849 480.867 362.614 480.867 362.324C480.867 362.034 481.101 361.799 481.389 361.799C481.678 361.799 481.912 362.034 481.912 362.324C481.912 362.614 481.678 362.849 481.389 362.849Z" fill="white" fill-opacity="0.3"/>
<path d="M479.713 362.324C479.76 362.741 479.958 363.125 480.269 363.405C480.58 363.684 480.983 363.838 481.4 363.838C481.817 363.838 482.22 363.684 482.531 363.405C482.842 363.125 483.04 362.741 483.087 362.324C483.114 362.085 483.091 361.843 483.018 361.614C482.946 361.385 482.826 361.174 482.667 360.994C482.508 360.815 482.312 360.671 482.094 360.573C481.876 360.475 481.639 360.424 481.4 360.424C481.161 360.424 480.924 360.475 480.706 360.573C480.488 360.671 480.292 360.815 480.133 360.994C479.974 361.174 479.854 361.385 479.782 361.614C479.709 361.843 479.686 362.085 479.713 362.324Z" fill="white" fill-opacity="0.3"/>
<path d="M478.17 362.324C478.17 363.195 478.514 364.03 479.126 364.646C479.739 365.261 480.569 365.607 481.436 365.607C482.302 365.607 483.132 365.261 483.745 364.646C484.357 364.03 484.701 363.195 484.701 362.324C484.701 361.453 484.357 360.618 483.745 360.003C483.132 359.387 482.302 359.041 481.436 359.041C480.569 359.041 479.739 359.387 479.126 360.003C478.514 360.618 478.17 361.453 478.17 362.324Z" fill="white" fill-opacity="0.3"/>
<path d="M503.465 403.275C503.465 403.838 503.631 404.388 503.942 404.856C504.253 405.324 504.695 405.688 505.212 405.904C505.729 406.119 506.298 406.175 506.847 406.066C507.396 405.956 507.901 405.685 508.297 405.287C508.692 404.889 508.962 404.382 509.071 403.83C509.18 403.278 509.124 402.706 508.91 402.186C508.696 401.666 508.333 401.222 507.868 400.909C507.402 400.597 506.855 400.43 506.295 400.43C505.546 400.435 504.83 400.737 504.3 401.269C503.771 401.802 503.471 402.522 503.465 403.275Z" fill="white" fill-opacity="0.3"/>
<path d="M481.389 364.491C480.199 364.491 479.234 363.521 479.234 362.324C479.234 361.127 480.199 360.157 481.389 360.157C482.579 360.157 483.544 361.127 483.544 362.324C483.544 363.521 482.579 364.491 481.389 364.491Z" fill="white" fill-opacity="0.5"/>
<path d="M481.391 365.52C479.635 365.52 478.212 364.089 478.212 362.324C478.212 360.56 479.635 359.129 481.391 359.129C483.146 359.129 484.569 360.56 484.569 362.324C484.569 364.089 483.146 365.52 481.391 365.52Z" fill="white" fill-opacity="0.3"/>
<path d="M306.261 368.255C306.257 368.841 306.426 369.416 306.748 369.905C307.069 370.394 307.528 370.776 308.066 371.003C308.604 371.229 309.196 371.289 309.769 371.176C310.341 371.063 310.866 370.781 311.279 370.366C311.691 369.952 311.972 369.423 312.084 368.848C312.197 368.273 312.137 367.677 311.912 367.136C311.687 366.595 311.307 366.134 310.82 365.811C310.333 365.488 309.762 365.318 309.179 365.322C308.407 365.328 307.668 365.639 307.122 366.188C306.576 366.736 306.267 367.479 306.261 368.255Z" fill="white" fill-opacity="0.5"/>
<path d="M309.18 371.735C307.268 371.735 305.718 370.177 305.718 368.255C305.718 366.333 307.268 364.775 309.18 364.775C311.092 364.775 312.642 366.333 312.642 368.255C312.642 370.177 311.092 371.735 309.18 371.735Z" fill="white" fill-opacity="0.3"/>
<path d="M303.04 368.256C303.04 369.482 303.402 370.68 304.08 371.699C304.758 372.718 305.722 373.512 306.849 373.98C307.976 374.448 309.216 374.57 310.412 374.329C311.607 374.088 312.705 373.496 313.566 372.628C314.427 371.759 315.012 370.653 315.247 369.45C315.482 368.248 315.357 367.001 314.887 365.87C314.418 364.739 313.625 363.773 312.609 363.095C311.593 362.417 310.399 362.057 309.18 362.062C307.549 362.067 305.988 362.722 304.837 363.883C303.686 365.044 303.04 366.617 303.04 368.256Z" fill="white" fill-opacity="0.3"/>
<path d="M304.37 368.255C304.365 369.218 304.646 370.16 305.175 370.963C305.705 371.765 306.459 372.391 307.343 372.762C308.227 373.132 309.201 373.23 310.141 373.043C311.08 372.857 311.943 372.393 312.621 371.713C313.298 371.032 313.759 370.164 313.944 369.219C314.13 368.275 314.033 367.296 313.664 366.407C313.296 365.519 312.673 364.76 311.875 364.228C311.076 363.696 310.139 363.414 309.181 363.418C307.905 363.418 306.681 363.928 305.779 364.835C304.877 365.742 304.37 366.972 304.37 368.255Z" fill="white" fill-opacity="0.5"/>
<path d="M174.896 384.846C174.896 385.643 175.132 386.423 175.573 387.085C176.014 387.748 176.641 388.264 177.374 388.568C178.108 388.872 178.914 388.951 179.692 388.794C180.47 388.637 181.183 388.251 181.743 387.685C182.302 387.12 182.682 386.4 182.834 385.618C182.986 384.835 182.903 384.025 182.597 383.289C182.29 382.554 181.774 381.926 181.112 381.486C180.45 381.047 179.674 380.814 178.881 380.818C178.356 380.818 177.836 380.923 177.351 381.125C176.866 381.328 176.426 381.625 176.056 381.999C175.685 382.374 175.392 382.818 175.193 383.306C174.994 383.795 174.894 384.318 174.896 384.846Z" fill="white" fill-opacity="0.3"/>
<path d="M178.879 390.23C175.921 390.23 173.524 387.82 173.524 384.846C173.524 381.872 175.921 379.462 178.879 379.462C181.837 379.462 184.235 381.872 184.235 384.846C184.235 387.82 181.837 390.23 178.879 390.23Z" fill="white" fill-opacity="0.3"/>
<path d="M175.42 384.846C175.42 385.535 175.623 386.207 176.003 386.78C176.383 387.352 176.924 387.798 177.556 388.061C178.189 388.325 178.885 388.394 179.556 388.259C180.228 388.125 180.845 387.794 181.329 387.307C181.813 386.82 182.143 386.2 182.276 385.525C182.41 384.85 182.341 384.15 182.079 383.514C181.817 382.879 181.374 382.335 180.804 381.953C180.235 381.57 179.566 381.366 178.881 381.366C177.963 381.366 177.083 381.733 176.433 382.385C175.784 383.038 175.42 383.923 175.42 384.846Z" fill="white" fill-opacity="0.3"/>
<path d="M309.181 371.32C307.498 371.32 306.133 369.948 306.133 368.256C306.133 366.563 307.498 365.191 309.181 365.191C310.864 365.191 312.229 366.563 312.229 368.256C312.229 369.948 310.864 371.32 309.181 371.32Z" fill="white" fill-opacity="0.5"/>
<path d="M176.139 384.845C176.139 385.387 176.299 385.917 176.599 386.368C176.899 386.818 177.325 387.169 177.824 387.375C178.322 387.581 178.871 387.634 179.399 387.527C179.928 387.42 180.412 387.157 180.792 386.772C181.172 386.387 181.429 385.898 181.532 385.366C181.634 384.833 181.577 384.283 181.368 383.783C181.159 383.284 180.807 382.858 180.356 382.56C179.906 382.262 179.377 382.105 178.838 382.109C178.482 382.109 178.129 382.18 177.8 382.318C177.471 382.456 177.173 382.658 176.922 382.912C176.671 383.166 176.472 383.468 176.338 383.8C176.204 384.132 176.136 384.487 176.139 384.845Z" fill="white" fill-opacity="0.3"/>
<path d="M89.904 410.563C88.9902 410.563 88.2494 409.818 88.2494 408.9C88.2494 407.981 88.9902 407.236 89.904 407.236C90.8178 407.236 91.5586 407.981 91.5586 408.9C91.5586 409.818 90.8178 410.563 89.904 410.563Z" fill="white" fill-opacity="0.3"/>
<path d="M89.9019 409.753C89.433 409.753 89.0528 409.371 89.0528 408.899C89.0528 408.428 89.433 408.046 89.9019 408.046C90.3709 408.046 90.751 408.428 90.751 408.899C90.751 409.371 90.3709 409.753 89.9019 409.753Z" fill="white" fill-opacity="0.3"/>
<path d="M89.9008 414.349C86.9069 414.349 84.4798 411.909 84.4798 408.899C84.4798 405.889 86.9069 403.449 89.9008 403.449C92.8947 403.449 95.3218 405.889 95.3218 408.899C95.3218 411.909 92.8947 414.349 89.9008 414.349Z" fill="white" fill-opacity="0.3"/>
<path d="M175.374 384.846C175.37 385.549 175.573 386.238 175.959 386.824C176.345 387.411 176.896 387.868 177.541 388.14C178.186 388.411 178.897 388.483 179.584 388.347C180.27 388.21 180.9 387.872 181.395 387.375C181.889 386.878 182.226 386.244 182.361 385.554C182.496 384.864 182.425 384.15 182.155 383.501C181.885 382.852 181.43 382.299 180.847 381.911C180.263 381.523 179.579 381.318 178.879 381.322C177.951 381.328 177.063 381.701 176.407 382.361C175.751 383.02 175.38 383.913 175.374 384.846Z" fill="white" fill-opacity="0.3"/>
<path d="M84.2872 408.899C84.2786 410.022 84.6019 411.123 85.2162 412.061C85.8306 412.999 86.7082 413.732 87.7378 414.168C88.7673 414.603 89.9024 414.722 90.9991 414.508C92.0957 414.294 93.1045 413.758 93.8974 412.967C94.6904 412.176 95.2317 411.166 95.4529 410.065C95.674 408.964 95.5649 407.822 95.1395 406.784C94.714 405.746 93.9913 404.858 93.0631 404.233C92.1349 403.608 91.043 403.274 89.9259 403.274C89.1883 403.272 88.4574 403.415 87.7748 403.696C87.0922 403.977 86.4713 404.391 85.9477 404.913C85.4241 405.435 85.008 406.056 84.7231 406.74C84.4382 407.424 84.2901 408.158 84.2872 408.899Z" fill="white" fill-opacity="0.3"/>
<path d="M24.1322 358.734C24.1322 359.51 24.3614 360.268 24.7906 360.913C25.2198 361.558 25.8296 362.06 26.543 362.356C27.2564 362.652 28.041 362.728 28.7976 362.575C29.5541 362.422 30.2484 362.047 30.7926 361.497C31.3367 360.947 31.7061 360.246 31.854 359.485C32.0019 358.724 31.9216 357.935 31.6233 357.22C31.325 356.504 30.8222 355.894 30.1785 355.466C29.5347 355.038 28.7791 354.812 28.0075 354.816C26.9777 354.822 25.9921 355.238 25.266 355.972C24.5398 356.706 24.1322 357.699 24.1322 358.734Z" fill="white" fill-opacity="0.5"/>
<path d="M28.0064 363.09C25.6136 363.09 23.674 361.14 23.674 358.734C23.674 356.329 25.6136 354.379 28.0064 354.379C30.3991 354.379 32.3389 356.329 32.3389 358.734C32.3389 361.14 30.3991 363.09 28.0064 363.09Z" fill="white" fill-opacity="0.5"/>
<path d="M22.2807 358.734C22.2851 359.873 22.6243 360.986 23.2556 361.932C23.8869 362.877 24.7822 363.615 25.829 364.05C26.8758 364.486 28.0275 364.601 29.1392 364.381C30.2508 364.161 31.2729 363.616 32.0771 362.813C32.8813 362.011 33.4317 360.987 33.659 359.871C33.8863 358.755 33.7805 357.597 33.3548 356.541C32.9292 355.486 32.2026 354.58 31.2666 353.938C30.3305 353.297 29.2266 352.947 28.0937 352.934C27.3308 352.923 26.5732 353.064 25.8656 353.351C25.1579 353.638 24.5144 354.064 23.9729 354.604C23.4314 355.145 23.0027 355.788 22.7121 356.498C22.4216 357.207 22.2748 357.967 22.2807 358.734Z" fill="white" fill-opacity="0.3"/>
<path d="M89.0554 408.899C89.0511 409.078 89.1003 409.255 89.1967 409.406C89.2931 409.557 89.4322 409.675 89.5962 409.746C89.7602 409.816 89.9415 409.836 90.1166 409.802C90.2918 409.768 90.4528 409.682 90.5789 409.555C90.705 409.429 90.7905 409.267 90.8242 409.091C90.858 408.914 90.8384 408.732 90.7682 408.567C90.698 408.403 90.5802 408.263 90.4302 408.166C90.2801 408.069 90.1045 408.019 89.9262 408.024C89.6952 408.024 89.4738 408.116 89.3104 408.28C89.1471 408.444 89.0554 408.667 89.0554 408.899Z" fill="white" fill-opacity="0.5"/>
<path d="M27.1594 358.735C27.192 358.941 27.2966 359.128 27.4542 359.263C27.6118 359.398 27.8121 359.473 28.0193 359.473C28.2265 359.473 28.4269 359.398 28.5845 359.263C28.7421 359.128 28.8466 358.941 28.8792 358.735C28.8991 358.61 28.8917 358.482 28.8577 358.36C28.8236 358.238 28.7636 358.125 28.6819 358.029C28.6001 357.933 28.4985 357.855 28.3841 357.802C28.2698 357.749 28.1453 357.722 28.0193 357.722C27.8933 357.722 27.7689 357.749 27.6545 357.802C27.5401 357.855 27.4385 357.933 27.3568 358.029C27.275 358.125 27.2151 358.238 27.181 358.36C27.1469 358.482 27.1395 358.61 27.1594 358.735Z" fill="white" fill-opacity="0.3"/>
<path d="M26.0685 358.735C26.0685 359.125 26.184 359.507 26.4003 359.831C26.6166 360.156 26.9239 360.408 27.2832 360.556C27.6425 360.705 28.0376 360.743 28.4182 360.665C28.7989 360.587 29.148 360.397 29.4212 360.12C29.6943 359.842 29.8791 359.489 29.9523 359.105C30.0254 358.722 29.9835 358.325 29.8318 357.965C29.6802 357.606 29.4257 357.3 29.1006 357.086C28.7755 356.872 28.3945 356.76 28.0061 356.765C27.7498 356.765 27.4961 356.816 27.2596 356.915C27.0231 357.014 26.8085 357.16 26.6283 357.343C26.4481 357.526 26.3058 357.744 26.2097 357.982C26.1136 358.221 26.0656 358.477 26.0685 358.735Z" fill="white" fill-opacity="0.3"/>
</g>
</svg>
