<svg width="877" height="588" viewBox="0 0 877 588" fill="none" xmlns="http://www.w3.org/2000/svg">
<mask id="mask0_405_12075" style="mask-type:luminance" maskUnits="userSpaceOnUse" x="0" y="0" width="877" height="537">
<path d="M712.889 536.411C706.412 536.411 699.751 536.211 692.938 535.999C631.945 534.072 572.626 518.901 512.44 508.655C442.205 496.701 371.053 479.908 299.897 478.13C295.283 478.012 290.763 477.934 286.315 477.934C254.724 477.934 227.029 481.813 198.915 503.229C174.6 521.746 123.759 527.595 91.6959 527.595C89.0245 527.595 86.4837 527.556 84.0991 527.478C35.3893 525.899 -9.95699 475.414 1.91142 417.357C11.8006 368.984 51.0499 339.884 70.9803 297.986C89.6793 258.677 74.4642 219.05 86.3728 178.907C101.064 129.39 140.077 84.8184 184.261 72.9467C192.822 70.6468 201.813 69.44 211.261 69.44C214.823 69.44 218.449 69.6124 222.142 69.9611C265.93 74.0946 307.029 96.1103 351.267 97.9909C353.625 98.0928 355.964 98.1398 358.288 98.1398C435.897 98.1398 493.007 43.3065 563.943 15.5509C589.563 5.5246 616.716 6.10352e-05 643.574 6.10352e-05C693.341 6.10352e-05 742.094 18.9714 778.167 63.4336C801.147 91.7534 786.787 109.733 787.622 142.912C788.899 193.968 838.216 212.222 861.481 246.291C910.285 317.75 828.957 426.039 799.987 487.024C779.433 530.287 748.982 536.411 712.889 536.411Z" fill="white"/>
</mask>
<g mask="url(#mask0_405_12075)">
<path d="M712.89 536.411C706.409 536.411 699.752 536.211 692.936 536C631.944 534.072 572.623 518.901 512.439 508.656C442.204 496.702 371.052 479.909 299.896 478.13C295.282 478.012 290.762 477.934 286.314 477.934C254.724 477.934 227.028 481.813 198.914 503.229C174.6 521.746 123.759 527.596 91.6956 527.596C89.0243 527.596 86.4836 527.556 84.0992 527.478C35.3893 525.899 -9.95697 475.415 1.91141 417.357C11.8004 368.984 51.0496 339.885 70.9801 297.987C89.6792 258.678 74.4642 219.051 86.3729 178.909C101.064 129.39 140.077 84.8177 184.261 72.9482C192.821 70.649 201.812 69.4431 211.261 69.4431C214.822 69.4431 218.449 69.6141 222.141 69.9634C265.93 74.0945 307.029 96.1107 351.266 97.9919C353.625 98.0924 355.964 98.1413 358.287 98.1413C435.896 98.1401 493.006 43.309 563.944 15.5509C589.56 5.52576 616.716 0.00482178 643.571 0.00482178C693.339 0.00482178 742.09 18.9703 778.164 63.4332C801.145 91.7536 786.786 109.735 787.621 142.912C788.899 193.97 838.213 212.224 861.478 246.292C910.28 317.751 828.954 426.039 799.987 487.024C779.431 530.287 748.98 536.411 712.89 536.411Z" fill="#F8FCF3" fill-opacity="0.22"/>
</g>
<path d="M231.633 552.788C232.813 552.788 233.711 551.734 233.515 550.571C231.561 539.009 220.105 486.126 173.971 485.703C133.099 485.331 108.297 505.748 99.6521 514.38C98.1076 515.923 98.7932 518.564 100.898 519.144C106.479 520.676 115.767 524.41 121.728 533.065C130.716 546.112 154.015 544.063 168.532 526.13C182.913 508.361 218.739 497.72 229.764 551.253C229.948 552.142 230.725 552.788 231.633 552.788Z" fill="#97B9C9"/>
<path d="M138.783 291.616C137.902 289.681 135.064 289.925 134.512 291.978C129.504 310.602 119.166 366.191 164.863 392.5C220.236 424.378 221.573 409.959 228.478 466.086C234.421 514.395 236.448 543.773 236.898 551.021C236.96 552.017 237.784 552.788 238.781 552.788C239.849 552.788 240.704 551.911 240.668 550.841C240.145 535.631 236.341 435.117 225.469 385.953C206.134 298.509 160.858 340.145 138.783 291.616Z" fill="#83AEC1"/>
<path d="M173.346 153.271C172.998 151.304 170.154 151.351 169.86 153.326C168.389 163.25 165.582 175.917 160.327 184.188C150.574 199.536 132.858 255.421 181.5 283.282C230.142 311.144 242.103 325.892 241.742 379.394C241.412 428.296 244.355 532.65 244.864 550.246C244.905 551.664 246.068 552.788 247.488 552.788C248.935 552.788 250.11 551.621 250.113 550.175C250.178 527.29 250.501 360.936 246.329 320.625C239.718 256.753 185.857 224.032 173.346 153.271Z" fill="#83AEC1"/>
<path d="M196.198 22.6231C196.298 20.3467 199.312 19.6415 200.431 21.624C205.832 31.188 217.988 47.5028 242.312 59.3119C278.8 77.0255 344.281 113.659 305.233 193.698C264.638 276.902 279.049 335.022 276.251 364.118C273.661 391.066 270.933 529.903 270.544 550.289C270.517 551.68 269.382 552.788 267.989 552.788C266.553 552.788 265.399 551.605 265.435 550.171C266.001 527.685 270.017 367.382 270.091 341.717C270.17 314.105 276.999 219.621 252.32 185.164C228.446 151.829 192.4 109.06 196.198 22.6231Z" fill="#97B9C9"/>
<path d="M174.171 195.551C173.673 197.11 173.295 198.854 173.039 200.55C172.883 201.4 172.805 202.262 172.72 203.124C172.607 203.982 172.602 204.848 172.563 205.71C172.498 209.162 172.665 212.622 173.375 215.997C174.705 222.757 177.679 229.106 181.666 234.716C182.172 235.414 182.633 236.144 183.175 236.817L184.86 238.789L186.543 240.762L188.351 242.659C190.801 245.157 193.394 247.537 196.051 249.87C201.365 254.535 206.942 259.023 212.198 263.955C217.471 268.857 222.403 274.238 226.552 280.203C228.603 283.2 230.476 286.314 232.169 289.522L233.371 291.961L233.968 293.182L234.513 294.426L235.597 296.915L236.572 299.448C237.256 301.124 237.769 302.858 238.36 304.564C238.901 306.286 239.385 308.025 239.875 309.76C240.293 311.512 240.754 313.256 241.111 315.02C241.442 316.788 241.859 318.542 242.119 320.32C243.323 327.409 244 334.561 244.275 341.715C244.295 342.239 243.887 342.679 243.364 342.699C242.853 342.719 242.42 342.324 242.382 341.818C241.328 327.699 239.033 313.574 233.853 300.499L232.87 298.059L231.783 295.666L231.239 294.471L230.643 293.301L229.446 290.965C227.764 287.896 225.915 284.926 223.897 282.073C221.839 279.247 219.646 276.522 217.306 273.916C214.969 271.307 212.457 268.848 209.876 266.451C204.711 261.657 199.152 257.231 193.731 252.529C191.021 250.176 188.347 247.75 185.793 245.175L183.904 243.213L182.128 241.114L180.355 239.012C179.785 238.295 179.291 237.514 178.756 236.768C174.543 230.768 171.458 223.838 170.32 216.544L169.947 213.807C169.846 212.892 169.829 211.971 169.767 211.051C169.689 210.134 169.712 209.217 169.733 208.296C169.745 207.379 169.775 206.459 169.884 205.546C169.977 204.633 170.038 203.72 170.207 202.815C170.348 201.906 170.485 201.001 170.7 200.108C171.072 198.301 171.58 196.573 172.307 194.795C172.516 194.281 173.103 194.035 173.616 194.242C174.105 194.442 174.351 194.979 174.195 195.476L174.171 195.551Z" fill="#BDD0FB"/>
<path d="M139.881 301.799C140.419 304.93 141.515 308.055 142.92 310.943C144.367 313.828 146.047 316.583 148.017 319.126C151.949 324.22 156.866 328.486 162.232 332.042C164.888 333.892 167.754 335.342 170.626 336.918L175.056 339.282C176.518 340.097 177.95 340.973 179.398 341.815C185.123 345.303 190.641 349.182 195.713 353.617C200.732 358.108 205.331 363.076 209.34 368.49L212.199 372.655C212.698 373.333 213.088 374.081 213.52 374.802L214.791 376.981L216.061 379.163L217.171 381.424C217.896 382.94 218.67 384.429 219.352 385.961C220.56 389.092 221.961 392.148 222.876 395.376C223.376 396.975 223.909 398.562 224.344 400.176L225.496 405.054L226.07 407.491L226.488 409.959L227.312 414.888C227.613 416.526 227.692 418.195 227.877 419.848L228.357 424.813C228.392 425.169 228.131 425.487 227.774 425.522C227.431 425.553 227.125 425.314 227.072 424.977L227.065 424.934C226.553 421.678 226.136 418.407 225.556 415.174L224.556 410.347L224.053 407.938L223.395 405.567L222.083 400.83C221.598 399.267 221.002 397.739 220.489 396.187C219.526 393.057 218.086 390.11 216.845 387.097C216.149 385.62 215.362 384.194 214.626 382.74L213.5 380.57L212.221 378.489L210.943 376.413C210.509 375.723 210.118 375.006 209.619 374.364L206.766 370.41C202.783 365.274 198.339 360.505 193.433 356.231C188.47 352.027 183.15 348.242 177.557 344.876C176.142 344.059 174.747 343.211 173.318 342.419L168.983 340.123C166.062 338.502 163.036 336.911 160.271 334.947C154.686 331.114 149.618 326.392 145.742 320.78C144.821 319.343 143.874 317.93 143.11 316.405C142.702 315.659 142.297 314.913 141.97 314.124C141.646 313.337 141.256 312.583 140.989 311.773C140.392 310.183 139.875 308.566 139.489 306.914C139.072 305.264 138.84 303.599 138.777 301.853C138.765 301.549 139.003 301.293 139.308 301.282C139.587 301.272 139.826 301.471 139.871 301.74L139.881 301.799Z" fill="#BDD0FB"/>
<mask id="mask1_405_12075" style="mask-type:luminance" maskUnits="userSpaceOnUse" x="118" y="489" width="93" height="21">
<path d="M118.689 508.401C121.832 505.705 125.243 503.425 128.788 501.336C130.564 500.298 132.373 499.315 134.223 498.409C136.064 497.485 137.943 496.635 139.857 495.863C143.668 494.276 147.615 493.01 151.63 491.988C155.655 491.004 159.767 490.354 163.908 490.005C168.047 489.653 172.231 489.7 176.367 490.162C180.501 490.616 184.607 491.439 188.549 492.756L190.033 493.226L191.481 493.802C192.442 494.19 193.416 494.546 194.362 494.969C196.225 495.878 198.12 496.713 199.869 497.818C203.477 499.832 206.767 502.339 209.897 504.968C210.138 505.172 210.169 505.532 209.966 505.771C209.778 505.999 209.453 506.042 209.214 505.881L209.186 505.866C205.834 503.624 202.502 501.375 198.866 499.702C197.101 498.766 195.219 498.088 193.398 497.297C192.47 496.94 191.517 496.654 190.581 496.325L189.172 495.851L187.733 495.471C183.93 494.346 179.993 493.763 176.06 493.418C175.072 493.359 174.091 493.23 173.101 493.23L170.134 493.183C168.156 493.253 166.179 493.304 164.207 493.508C156.309 494.201 148.559 496.251 141.068 498.978C133.583 501.728 126.289 505.199 119.378 509.31L119.354 509.325C119.082 509.486 118.731 509.396 118.57 509.125C118.425 508.882 118.482 508.577 118.689 508.401Z" fill="white"/>
</mask>
<g mask="url(#mask1_405_12075)">
<path d="M118.689 508.401C121.832 505.705 125.243 503.425 128.788 501.336C130.564 500.298 132.373 499.315 134.223 498.409C136.064 497.485 137.943 496.635 139.857 495.863C143.668 494.276 147.615 493.01 151.63 491.988C155.655 491.004 159.767 490.354 163.908 490.005C168.047 489.653 172.231 489.7 176.367 490.162C180.501 490.616 184.607 491.439 188.549 492.756L190.033 493.226L191.481 493.802C192.442 494.19 193.416 494.546 194.362 494.969C196.225 495.878 198.12 496.713 199.869 497.818C203.477 499.832 206.767 502.339 209.897 504.968C210.138 505.172 210.169 505.532 209.966 505.771C209.778 505.999 209.453 506.042 209.214 505.881L209.186 505.866C205.834 503.624 202.502 501.375 198.866 499.702C197.101 498.766 195.219 498.088 193.398 497.297C192.47 496.94 191.517 496.654 190.581 496.325L189.172 495.851L187.733 495.471C183.93 494.346 179.993 493.763 176.06 493.418C175.072 493.359 174.091 493.23 173.101 493.23L170.134 493.183C168.156 493.253 166.179 493.304 164.207 493.508C156.309 494.201 148.559 496.251 141.068 498.978C133.583 501.728 126.289 505.199 119.378 509.31L119.354 509.325C119.082 509.486 118.731 509.396 118.57 509.125C118.425 508.882 118.482 508.577 118.689 508.401Z" fill="url(#paint0_linear_405_12075)"/>
</g>
<mask id="mask2_405_12075" style="mask-type:luminance" maskUnits="userSpaceOnUse" x="210" y="46" width="87" height="174">
<path d="M210.869 46.5935C213.797 49.7711 216.871 52.8311 219.942 55.8676C223.037 58.8845 226.158 61.8661 229.375 64.7459C232.542 67.6727 235.82 70.478 239.114 73.252C240.739 74.6665 242.439 75.9908 244.097 77.366C245.763 78.7295 247.496 80.0068 249.175 81.3507C250.87 82.675 252.611 83.9405 254.325 85.2374C256.054 86.5147 257.83 87.7293 259.579 88.9753C263.145 91.4671 266.731 94.1079 270.087 96.9838C276.819 102.716 282.889 109.459 287.305 117.256C289.515 121.143 291.365 125.237 292.76 129.476C294.154 133.712 295.163 138.061 295.811 142.445C297.088 151.233 296.99 160.108 296.093 168.825C295.194 177.559 293.448 186.147 291.228 194.575C289.008 203.007 286.357 211.305 283.32 219.452C283.233 219.685 282.974 219.803 282.741 219.716C282.517 219.633 282.399 219.388 282.467 219.162C287.52 202.599 291.709 185.697 293.055 168.551C293.181 166.412 293.353 164.273 293.377 162.133C293.396 161.06 293.456 159.99 293.442 158.924L293.394 155.72C293.234 151.457 292.945 147.194 292.194 143.013C291.472 138.833 290.489 134.707 289.108 130.718C287.736 126.73 285.943 122.902 283.817 119.274C279.555 112.013 273.872 105.643 267.372 100.177C264.129 97.4148 260.696 94.9346 257.155 92.4506C255.385 91.1615 253.588 89.9077 251.841 88.5913C250.108 87.2552 248.35 85.9505 246.639 84.587C243.23 81.8444 239.899 79.0077 236.644 76.0926C235.023 74.6273 233.414 73.1463 231.851 71.6221L229.492 69.3457L227.18 67.0262C224.133 63.8996 221.139 60.722 218.305 57.4034C215.448 54.1044 212.704 50.7192 210.163 47.1538C210.018 46.9501 210.066 46.668 210.268 46.523C210.456 46.3898 210.71 46.4211 210.861 46.5857L210.869 46.5935Z" fill="white"/>
</mask>
<g mask="url(#mask2_405_12075)">
<path d="M210.869 46.5935C213.797 49.7711 216.871 52.8311 219.942 55.8676C223.037 58.8845 226.158 61.8661 229.375 64.7459C232.542 67.6727 235.82 70.478 239.114 73.252C240.739 74.6665 242.439 75.9908 244.097 77.366C245.763 78.7295 247.496 80.0068 249.175 81.3507C250.87 82.675 252.611 83.9405 254.325 85.2374C256.054 86.5147 257.83 87.7293 259.579 88.9753C263.145 91.4671 266.731 94.1079 270.087 96.9838C276.819 102.716 282.889 109.459 287.305 117.256C289.515 121.143 291.365 125.237 292.76 129.476C294.154 133.712 295.163 138.061 295.811 142.445C297.088 151.233 296.99 160.108 296.093 168.825C295.194 177.559 293.448 186.147 291.228 194.575C289.008 203.007 286.357 211.305 283.32 219.452C283.233 219.685 282.974 219.803 282.741 219.716C282.517 219.633 282.399 219.388 282.467 219.162C287.52 202.599 291.709 185.697 293.055 168.551C293.181 166.412 293.353 164.273 293.377 162.133C293.396 161.06 293.456 159.99 293.442 158.924L293.394 155.72C293.234 151.457 292.945 147.194 292.194 143.013C291.472 138.833 290.489 134.707 289.108 130.718C287.736 126.73 285.943 122.902 283.817 119.274C279.555 112.013 273.872 105.643 267.372 100.177C264.129 97.4148 260.696 94.9346 257.155 92.4506C255.385 91.1615 253.588 89.9077 251.841 88.5913C250.108 87.2552 248.35 85.9505 246.639 84.587C243.23 81.8444 239.899 79.0077 236.644 76.0926C235.023 74.6273 233.414 73.1463 231.851 71.6221L229.492 69.3457L227.18 67.0262C224.133 63.8996 221.139 60.722 218.305 57.4034C215.448 54.1044 212.704 50.7192 210.163 47.1538C210.018 46.9501 210.066 46.668 210.268 46.523C210.456 46.3898 210.71 46.4211 210.861 46.5857L210.869 46.5935Z" fill="url(#paint1_linear_405_12075)"/>
</g>
<path d="M645.102 552.789C643.924 552.789 643.025 551.735 643.223 550.571C645.178 539.009 656.634 486.127 702.763 485.703C743.637 485.331 768.438 505.748 777.086 514.38C778.63 515.924 777.944 518.564 775.842 519.144C770.256 520.676 760.973 524.41 755.007 533.065C746.018 546.112 722.725 544.063 708.207 526.13C693.826 508.362 657.995 497.72 646.97 551.252C646.793 552.142 646.011 552.789 645.102 552.789Z" fill="#97B9C9"/>
<path d="M737.959 291.616C738.84 289.68 741.675 289.924 742.23 291.978C747.238 310.601 757.576 366.19 711.878 392.5C656.505 424.377 655.168 409.959 648.265 466.085C642.321 514.395 640.292 543.773 639.847 551.021C639.782 552.017 638.961 552.788 637.961 552.788C636.897 552.788 636.036 551.911 636.076 550.841C636.6 535.631 640.401 435.117 651.274 385.953C670.609 298.508 715.882 340.144 737.959 291.616Z" fill="#83AEC1"/>
<path d="M703.391 153.274C703.741 151.306 706.587 151.351 706.879 153.328C708.348 163.253 711.16 175.92 716.414 184.19C726.163 199.535 743.881 255.421 695.237 283.282C646.598 311.145 634.635 325.893 634.995 379.395C635.326 428.296 632.383 532.65 631.877 550.246C631.833 551.664 630.67 552.788 629.25 552.788C627.805 552.788 626.627 551.621 626.627 550.175C626.559 527.289 626.238 360.937 630.412 320.626C637.019 256.753 690.883 224.033 703.391 153.274Z" fill="#97B9C9"/>
<path d="M680.541 22.6215C680.442 20.3492 677.428 19.6428 676.307 21.6226C670.908 31.1888 658.75 47.5044 634.425 59.3115C597.937 77.0265 532.459 113.662 571.507 193.696C612.102 276.902 597.69 335.022 600.489 364.118C603.08 391.066 605.807 529.903 606.199 550.288C606.221 551.68 607.355 552.788 608.75 552.788C610.185 552.788 611.342 551.605 611.306 550.171C610.739 527.685 606.721 367.381 606.649 341.717C606.568 314.105 599.742 219.62 624.422 185.164C648.293 151.828 684.339 109.059 680.541 22.6215Z" fill="#83AEC1"/>
<mask id="mask3_405_12075" style="mask-type:luminance" maskUnits="userSpaceOnUse" x="632" y="194" width="76" height="149">
<path d="M704.432 194.795C705.161 196.574 705.667 198.301 706.039 200.108C706.254 201.001 706.391 201.906 706.532 202.815C706.701 203.72 706.764 204.633 706.858 205.546C706.967 206.459 706.995 207.38 707.007 208.296C707.03 209.217 707.05 210.134 706.975 211.051C706.912 211.971 706.893 212.892 706.795 213.807L706.419 216.544C705.283 223.839 702.199 230.768 697.983 236.768C697.45 237.515 696.957 238.295 696.385 239.012L694.614 241.114L692.839 243.213L690.946 245.175C688.392 247.751 685.72 250.176 683.008 252.529C677.59 257.231 672.03 261.657 666.866 266.451C664.284 268.848 661.772 271.307 659.433 273.916C657.094 276.522 654.9 279.247 652.843 282.073C650.825 284.926 648.976 287.897 647.295 290.965L646.096 293.301L645.501 294.471L644.956 295.667L643.871 298.059L642.887 300.499C637.708 313.574 635.412 327.699 634.358 341.818C634.322 342.34 633.868 342.735 633.347 342.698C632.838 342.662 632.45 342.223 632.465 341.715C632.74 334.562 633.417 327.409 634.62 320.32C634.883 318.542 635.298 316.788 635.631 315.02C635.988 313.256 636.446 311.512 636.865 309.76C637.355 308.025 637.841 306.286 638.382 304.564C638.973 302.858 639.486 301.124 640.168 299.448L641.144 296.916L642.229 294.426L642.774 293.182L643.369 291.961L644.572 289.522C646.265 286.314 648.138 283.2 650.187 280.203C654.336 274.238 659.269 268.857 664.542 263.955C669.801 259.023 675.376 254.535 680.689 249.871C683.345 247.537 685.939 245.157 688.388 242.659L690.198 240.762L691.879 238.789L693.568 236.817C694.108 236.144 694.567 235.414 695.076 234.716C699.061 229.106 702.034 222.757 703.367 215.997C704.076 212.622 704.244 209.162 704.178 205.71C704.138 204.848 704.135 203.983 704.021 203.125C703.935 202.263 703.856 201.401 703.704 200.55C703.445 198.854 703.069 197.11 702.567 195.551L702.548 195.476C702.379 194.947 702.669 194.383 703.198 194.215C703.7 194.054 704.236 194.313 704.432 194.795Z" fill="white"/>
</mask>
<g mask="url(#mask3_405_12075)">
<path d="M704.434 194.792C705.162 196.574 705.668 198.299 706.039 200.108C706.257 201.002 706.392 201.907 706.535 202.813C706.702 203.718 706.763 204.633 706.86 205.546C706.967 206.46 706.995 207.377 707.008 208.296C707.032 209.215 707.05 210.135 706.976 211.052C706.911 211.969 706.893 212.892 706.795 213.806L706.419 216.543C705.283 223.838 702.198 230.768 697.986 236.767C697.452 237.514 696.956 238.295 696.385 239.012L694.613 241.114L692.841 243.213L690.948 245.174C688.392 247.75 685.72 250.175 683.011 252.528C677.588 257.231 672.031 261.656 666.868 266.451C664.284 268.847 661.774 271.306 659.436 273.915C657.093 276.521 654.899 279.247 652.844 282.072C650.826 284.926 648.975 287.896 647.296 290.964L646.099 293.3L645.501 294.47L644.958 295.666L643.872 298.059L642.889 300.499C637.707 313.574 635.411 327.699 634.358 341.818C634.321 342.34 633.866 342.734 633.347 342.697C632.836 342.662 632.451 342.222 632.465 341.715C632.739 334.561 633.416 327.408 634.622 320.319C634.882 318.541 635.3 316.788 635.634 315.019C635.986 313.256 636.445 311.511 636.868 309.759C637.355 308.024 637.842 306.285 638.384 304.563C638.974 302.857 639.489 301.123 640.17 299.447L641.145 296.915L642.23 294.425L642.773 293.181L643.371 291.961L644.573 289.521C646.266 286.314 648.14 283.199 650.186 280.202C654.338 274.237 659.269 268.856 664.544 263.954C669.799 259.022 675.375 254.534 680.692 249.87C683.345 247.537 685.938 245.156 688.388 242.658L690.197 240.761L691.881 238.788L693.569 236.816C694.108 236.143 694.567 235.413 695.077 234.715C699.062 229.105 702.036 222.756 703.367 215.996C704.077 212.622 704.244 209.16 704.179 205.711C704.137 204.848 704.137 203.981 704.021 203.123C703.938 202.263 703.859 201.399 703.706 200.55C703.446 198.854 703.07 197.111 702.569 195.549L702.55 195.477C702.379 194.949 702.671 194.383 703.2 194.215C703.701 194.055 704.239 194.313 704.434 194.792Z" fill="url(#paint2_linear_405_12075)"/>
</g>
<path d="M737.965 301.854C737.903 303.599 737.671 305.264 737.251 306.914C736.865 308.566 736.348 310.183 735.749 311.773C735.484 312.583 735.097 313.337 734.769 314.124C734.445 314.913 734.04 315.659 733.629 316.406C732.866 317.931 731.92 319.344 731.003 320.78C727.12 326.392 722.055 331.114 716.468 334.947C713.701 336.911 710.679 338.502 707.757 340.123L703.421 342.419C701.992 343.211 700.596 344.059 699.182 344.876C693.59 348.242 688.269 352.027 683.305 356.231C678.399 360.506 673.957 365.274 669.973 370.41L667.119 374.364C666.622 375.006 666.231 375.723 665.796 376.413L664.521 378.49L663.242 380.57L662.112 382.741C661.378 384.194 660.591 385.62 659.896 387.098C658.655 390.11 657.216 393.057 656.25 396.188C655.738 397.739 655.144 399.267 654.657 400.83L653.343 405.567L652.686 407.938L652.184 410.347L651.185 415.174C650.6 418.407 650.185 421.678 649.678 424.934L649.669 424.977C649.615 425.33 649.282 425.573 648.93 425.518C648.587 425.463 648.35 425.154 648.384 424.813L648.862 419.849C649.046 418.195 649.128 416.526 649.427 414.888L650.253 409.959L650.668 407.491L651.243 405.054L652.397 400.176C652.831 398.562 653.362 396.975 653.865 395.376C654.777 392.148 656.182 389.092 657.39 385.961C658.07 384.429 658.848 382.94 659.572 381.424L660.678 379.163L661.948 376.981L663.223 374.802C663.652 374.082 664.043 373.334 664.541 372.656L667.399 368.49C671.412 363.076 676.009 358.108 681.026 353.618C686.101 349.182 691.615 345.303 697.342 341.815C698.791 340.973 700.22 340.097 701.688 339.282L706.116 336.919C708.984 335.342 711.852 333.893 714.508 332.043C719.872 328.486 724.793 324.22 728.723 319.126C730.694 316.583 732.374 313.828 733.822 310.943C735.223 308.055 736.324 304.93 736.86 301.799L736.869 301.74C736.922 301.44 737.207 301.239 737.507 301.29C737.782 301.337 737.975 301.582 737.965 301.854Z" fill="#BDD0FB"/>
<mask id="mask4_405_12075" style="mask-type:luminance" maskUnits="userSpaceOnUse" x="666" y="489" width="93" height="21">
<path d="M757.359 509.31C750.452 505.2 743.156 501.728 735.673 498.978C728.182 496.251 720.432 494.202 712.533 493.508C710.562 493.304 708.583 493.253 706.605 493.183L703.639 493.23C702.648 493.23 701.668 493.359 700.681 493.418C696.747 493.763 692.809 494.347 689.009 495.471L687.567 495.851L686.16 496.325C685.22 496.654 684.268 496.94 683.343 497.297C681.521 498.088 679.637 498.766 677.874 499.703C674.238 501.376 670.903 503.625 667.553 505.866L667.526 505.881C667.264 506.058 666.911 505.987 666.735 505.725C666.574 505.478 666.625 505.153 666.844 504.968C669.971 502.339 673.262 499.832 676.871 497.818C678.618 496.713 680.514 495.879 682.379 494.97C683.324 494.546 684.299 494.19 685.259 493.802L686.705 493.226L688.19 492.756C692.131 491.439 696.238 490.617 700.371 490.162C704.509 489.7 708.693 489.653 712.831 490.005C716.972 490.354 721.082 491.004 725.11 491.988C729.126 493.011 733.071 494.276 736.884 495.863C738.796 496.635 740.676 497.485 742.518 498.41C744.367 499.315 746.177 500.298 747.952 501.336C751.494 503.425 754.907 505.705 758.049 508.401C758.292 508.604 758.319 508.965 758.112 509.204C757.928 509.419 757.622 509.466 757.387 509.325L757.359 509.31Z" fill="white"/>
</mask>
<g mask="url(#mask4_405_12075)">
<path d="M757.353 509.31C750.449 505.2 743.153 501.728 735.668 498.978C728.174 496.251 720.428 494.202 712.528 493.508C710.556 493.305 708.58 493.254 706.599 493.183L703.632 493.23C702.641 493.23 701.66 493.359 700.675 493.418C696.742 493.763 692.804 494.347 689.005 495.471L687.559 495.851L686.152 496.326C685.216 496.654 684.26 496.941 683.339 497.297C681.516 498.088 679.629 498.766 677.866 499.703C674.23 501.376 670.897 503.624 667.548 505.866L667.519 505.882C667.256 506.058 666.905 505.987 666.731 505.725C666.568 505.478 666.617 505.152 666.84 504.969C669.966 502.34 673.254 499.832 676.865 497.818C678.614 496.713 680.511 495.879 682.373 494.97C683.319 494.546 684.295 494.19 685.256 493.802L686.697 493.226L688.183 492.756C692.126 491.439 696.232 490.617 700.368 490.162C704.504 489.7 708.689 489.653 712.825 490.005C716.966 490.354 721.077 491.004 725.104 491.988C729.12 493.01 733.063 494.276 736.877 495.863C738.789 496.635 740.671 497.485 742.514 498.41C744.361 499.315 746.169 500.298 747.947 501.337C751.489 503.425 754.901 505.705 758.042 508.401C758.284 508.605 758.314 508.965 758.106 509.204C757.923 509.42 757.616 509.467 757.383 509.325L757.353 509.31Z" fill="url(#paint3_linear_405_12075)"/>
</g>
<path d="M666.58 47.1543C664.038 50.7202 661.293 54.1059 658.439 57.4039C655.602 60.7238 652.607 63.8989 649.563 67.03L647.249 69.3486L644.887 71.6234C643.323 73.1472 641.72 74.6272 640.095 76.0939C636.841 79.0099 633.508 81.8423 630.101 84.587C628.388 85.9527 626.636 87.257 624.897 88.592C623.153 89.9094 621.357 91.161 619.587 92.4477C616.044 94.9376 612.609 97.4188 609.369 100.181C602.865 105.644 597.187 112.016 592.923 119.275C590.797 122.902 589.005 126.732 587.635 130.719C586.252 134.707 585.268 138.835 584.548 143.015C583.793 147.191 583.507 151.456 583.349 155.72L583.301 158.925C583.283 159.993 583.345 161.064 583.362 162.131C583.384 164.274 583.56 166.412 583.683 168.554C585.031 185.697 589.221 202.599 594.275 219.162C594.345 219.4 594.214 219.653 593.976 219.726C593.744 219.797 593.502 219.673 593.419 219.452C590.384 211.307 587.732 203.009 585.514 194.577C583.292 186.147 581.549 177.558 580.648 168.828C579.748 160.107 579.652 151.232 580.93 142.449C581.575 138.062 582.585 133.714 583.982 129.476C585.378 125.239 587.227 121.141 589.436 117.259C593.854 109.46 599.923 102.719 606.655 96.984C610.01 94.1076 613.593 91.4684 617.159 88.9784C618.911 87.7313 620.685 86.5192 622.416 85.2369C624.128 83.9414 625.872 82.6767 627.567 81.3505C629.244 80.0067 630.979 78.7288 632.643 77.3675C634.303 75.9929 636.003 74.6711 637.627 73.257C640.921 70.4816 644.197 67.6755 647.363 64.7464C650.582 61.87 653.705 58.8838 656.801 55.8669C659.87 52.8324 662.944 49.7716 665.869 46.5966L665.878 46.5878C666.049 46.4034 666.33 46.3946 666.514 46.5615C666.686 46.7152 666.708 46.9743 666.58 47.1543Z" fill="#BDD0FB"/>
<mask id="mask5_405_12075" style="mask-type:luminance" maskUnits="userSpaceOnUse" x="357" y="173" width="168" height="413">
<path d="M524.465 566.906C524.465 577.139 516.938 585.435 507.618 585.435H373.883C364.556 585.435 357 577.139 357 566.906V191.879C357 181.645 364.556 173.346 373.883 173.346H507.618C516.938 173.346 524.465 181.645 524.465 191.879V566.906Z" fill="white"/>
</mask>
<g mask="url(#mask5_405_12075)">
<path d="M524.465 566.906C524.465 577.139 516.938 585.435 507.618 585.435H373.883C364.556 585.435 357 577.139 357 566.906V191.879C357 181.645 364.556 173.346 373.883 173.346H507.618C516.938 173.346 524.465 181.645 524.465 191.879V566.906Z" fill="#D6F3F2"/>
</g>
<mask id="mask6_405_12075" style="mask-type:luminance" maskUnits="userSpaceOnUse" x="393" y="152" width="93" height="22">
<path d="M479.522 152H401.057C397.093 152 393.115 155.871 393.115 160.727V173.346H485.057V160.727C485.057 155.871 483.486 152 479.522 152Z" fill="white"/>
</mask>
<g mask="url(#mask6_405_12075)">
<path d="M479.522 152H401.057C397.093 152 393.115 155.871 393.115 160.727V173.346H485.057V160.727C485.057 155.871 483.486 152 479.522 152Z" fill="#3F648A"/>
</g>
<mask id="mask7_405_12075" style="mask-type:luminance" maskUnits="userSpaceOnUse" x="357" y="337" width="168" height="251">
<path d="M524.465 337.239V569.524C524.465 579.077 516.473 587.077 507.153 587.077H373.883C364.563 587.077 357 579.077 357 569.524V337.239H524.465Z" fill="white"/>
</mask>
<g mask="url(#mask7_405_12075)">
<path d="M524.465 337.239V569.524C524.465 579.077 516.473 587.077 507.153 587.077H373.883C364.563 587.077 357 579.077 357 569.524V337.239H524.465Z" fill="url(#paint4_linear_405_12075)"/>
</g>
<rect x="377.897" y="198.71" width="125.77" height="366.373" rx="8" fill="white" fill-opacity="0.13"/>
<rect x="478" y="438" width="15" height="114" rx="7.5" fill="white" fill-opacity="0.29"/>
<rect x="478.148" y="386.453" width="14.582" height="27.3413" rx="7.29101" fill="white" fill-opacity="0.29"/>
<path d="M478.156 296.546C478.034 296.295 477.798 295.572 477.541 295.572H449.375C449.16 295.572 448.96 296.03 448.825 295.844C448.696 295.658 448.653 295.701 448.703 295.473L460.487 245.15C460.566 244.798 460.416 244.502 460.116 244.345C459.816 244.188 459.459 244.321 459.259 244.612L409.024 318.58C408.867 318.811 408.839 318.5 408.96 318.757C409.074 319.014 409.317 318.557 409.581 318.557H435.42C435.627 318.557 435.82 319.287 435.955 319.464C436.084 319.641 436.141 320.187 436.098 320.411L425.372 379.03C425.307 379.384 425.479 379.819 425.779 379.959C426.086 380.101 426.436 380.028 426.621 379.731L478.106 297.596C478.256 297.363 478.27 296.797 478.156 296.546Z" fill="#7EB929"/>
<defs>
<linearGradient id="paint0_linear_405_12075" x1="118.489" y1="499.589" x2="210.1" y2="499.589" gradientUnits="userSpaceOnUse">
<stop stop-color="#DAE3FE"/>
<stop offset="1" stop-color="#E9EFFD"/>
</linearGradient>
<linearGradient id="paint1_linear_405_12075" x1="210.079" y1="133.093" x2="296.768" y2="133.093" gradientUnits="userSpaceOnUse">
<stop stop-color="#DAE3FE"/>
<stop offset="1" stop-color="#E9EFFD"/>
</linearGradient>
<linearGradient id="paint2_linear_405_12075" x1="757.865" y1="206.468" x2="846.147" y2="206.468" gradientUnits="userSpaceOnUse">
<stop stop-color="#DAE3FE"/>
<stop offset="1" stop-color="#E9EFFD"/>
</linearGradient>
<linearGradient id="paint3_linear_405_12075" x1="855.712" y1="471.683" x2="971.523" y2="471.683" gradientUnits="userSpaceOnUse">
<stop stop-color="#DAE3FE"/>
<stop offset="1" stop-color="#E9EFFD"/>
</linearGradient>
<linearGradient id="paint4_linear_405_12075" x1="439.871" y1="327.214" x2="452.63" y2="586.956" gradientUnits="userSpaceOnUse">
<stop stop-color="#3F648A"/>
<stop offset="1" stop-color="#325172"/>
</linearGradient>
</defs>
</svg>
