<svg width="98" height="86" viewBox="0 0 98 86" fill="none" xmlns="http://www.w3.org/2000/svg">
<circle cx="65.835" cy="50.0562" r="13.8457" fill="#A4B8C1"/>
<mask id="path-2-inside-1_359_12127" fill="white">
<path fill-rule="evenodd" clip-rule="evenodd" d="M64.0007 86H1.48468C0.663945 86 0 85.3351 0 84.5151V8.31618C0 7.49618 0.664119 6.83133 1.48485 6.83133L5.53404 6.82988V2.20995C5.53404 1.38994 6.19816 0.725098 7.0189 0.725098H53.1421C53.1603 0.725098 53.1775 0.73007 53.1947 0.735031C53.2096 0.73935 53.2245 0.743661 53.24 0.744673C53.3705 0.753375 53.4952 0.778025 53.6185 0.820076C53.631 0.824326 53.6435 0.828319 53.6559 0.832287L53.6559 0.832296C53.6899 0.843219 53.7234 0.85396 53.757 0.869379C53.915 0.941153 54.0658 1.03251 54.1934 1.16011L65.1188 12.0862L70.5804 17.5471L70.5809 17.5477L70.5812 17.5482L70.5819 17.5493L70.5848 17.5522C70.7131 17.6805 70.8045 17.8321 70.877 17.9908C70.888 18.0157 70.8961 18.0405 70.9043 18.0655C70.9086 18.0785 70.9129 18.0916 70.9176 18.1047C70.9676 18.2439 70.9959 18.386 71.0031 18.5339C71.0035 18.5444 71.0064 18.5546 71.0093 18.5648C71.0124 18.5757 71.0155 18.5865 71.0155 18.5977V32.6973C73.8547 33.5498 76.4561 35.095 78.6108 37.2497C82.0416 40.6791 83.9296 45.2395 83.9296 50.0899C83.9296 54.4415 82.3998 58.5525 79.61 61.8303L80.9186 63.139L83.2662 60.7914C83.8229 60.2346 84.809 60.2346 85.3658 60.7914L96.1584 71.5835C97.346 72.7712 98 74.3509 98 76.0308C98 77.7107 97.3446 79.2898 96.157 80.4774C94.9708 81.665 93.3918 82.3197 91.7111 82.3197C90.0305 82.3197 88.4514 81.6657 87.2638 80.4774L76.4725 69.686C75.8924 69.1061 75.8924 68.1665 76.4725 67.5865L78.8195 65.2395L77.5108 63.9308C75.5909 65.5643 73.3905 66.7708 71.016 67.4835V78.4103C71.016 79.2303 70.3519 79.8952 69.5312 79.8952H65.4855V84.5151C65.4855 85.3351 64.8214 86 64.0007 86ZM94.0582 73.6827L84.3153 63.9406L79.6215 68.6359L89.3629 78.3773C90.6187 79.6309 92.8039 79.6323 94.0567 78.3773C94.6846 77.7502 95.0297 76.9165 95.0297 76.0297C95.0297 75.143 94.6846 74.3099 94.0582 73.6827ZM80.9599 50.0901C80.9599 46.0329 79.3808 42.2185 76.5111 39.3496C73.6414 36.4806 69.8278 34.9001 65.7706 34.9001C61.7134 34.9001 57.8983 36.4807 55.0301 39.3496C52.1604 42.2185 50.5813 46.0329 50.5813 50.0901C50.5813 54.1473 52.1605 57.9624 55.0301 60.8313C57.8983 63.7003 61.7134 65.2802 65.7706 65.2802C69.8278 65.2802 73.6414 63.7003 76.5111 60.8313C79.3808 57.9624 80.9599 54.1473 80.9599 50.0901ZM62.5897 13.7584L54.6281 5.79752V17.1195H65.9501L62.5897 13.7584ZM8.50302 3.69627V8.31621L8.50283 76.9252H68.0454V68.093C67.295 68.1865 66.538 68.2503 65.7702 68.2503C60.9198 68.2503 56.3594 66.3616 52.93 62.9315C49.4992 59.5014 47.6112 54.941 47.6112 50.0905C47.6112 45.2401 49.4992 40.6797 52.93 37.2503C56.3594 33.8203 60.9198 31.9308 65.7702 31.9308C66.5381 31.9308 67.295 31.9946 68.0454 32.0881V20.0883H53.1432C52.3225 20.0883 51.6584 19.4235 51.6584 18.6034V3.69627H8.50302ZM5.53331 9.80106H2.96823V83.0304H62.5145V79.8954H7.01817C6.19743 79.8954 5.53331 79.2305 5.53331 78.4105V9.80106ZM36.8641 11.8928H12.7853C11.9646 11.8928 11.3005 11.228 11.3005 10.408C11.3005 9.58798 11.9646 8.92314 12.7853 8.92314H36.8641C37.6848 8.92314 38.3489 9.58798 38.3489 10.408C38.3489 11.228 37.6848 11.8928 36.8641 11.8928ZM12.7853 18.79H36.8641C37.6848 18.79 38.3489 18.1252 38.3489 17.3051C38.3489 16.4851 37.6848 15.8203 36.8641 15.8203H12.7853C11.9646 15.8203 11.3005 16.4851 11.3005 17.3051C11.3005 18.1252 11.9646 18.79 12.7853 18.79ZM48.3958 35.9159H12.7853C11.9646 35.9159 11.3005 35.2511 11.3005 34.4311C11.3005 33.6111 11.9646 32.9462 12.7853 32.9462H48.3958C49.2166 32.9462 49.8807 33.6111 49.8807 34.4311C49.8807 35.2511 49.2166 35.9159 48.3958 35.9159ZM12.7853 44.2255H43.648C44.4687 44.2255 45.1329 43.5607 45.1329 42.7407C45.1329 41.9207 44.4687 41.2558 43.648 41.2558H12.7853C11.9646 41.2558 11.3005 41.9207 11.3005 42.7407C11.3005 43.5607 11.9646 44.2255 12.7853 44.2255ZM43.648 52.5351H12.7853C11.9646 52.5351 11.3005 51.8703 11.3005 51.0503C11.3005 50.2303 11.9646 49.5654 12.7853 49.5654H43.648C44.4687 49.5654 45.1329 50.2303 45.1329 51.0503C45.1329 51.8703 44.4687 52.5351 43.648 52.5351ZM12.7853 60.8429H43.648C44.4687 60.8429 45.1329 60.1781 45.1329 59.3581C45.1329 58.5381 44.4687 57.8732 43.648 57.8732H12.7853C11.9646 57.8732 11.3005 58.5381 11.3005 59.3581C11.3005 60.1781 11.9646 60.8429 12.7853 60.8429ZM12.7853 66.1828H48.3958C49.2166 66.1828 49.8807 66.8477 49.8807 67.6677C49.8807 68.4877 49.2166 69.1525 48.3958 69.1525H12.7853C11.9646 69.1525 11.3005 68.4877 11.3005 67.6677C11.3005 66.8477 11.9646 66.1828 12.7853 66.1828Z"/>
</mask>
<path fill-rule="evenodd" clip-rule="evenodd" d="M64.0007 86H1.48468C0.663945 86 0 85.3351 0 84.5151V8.31618C0 7.49618 0.664119 6.83133 1.48485 6.83133L5.53404 6.82988V2.20995C5.53404 1.38994 6.19816 0.725098 7.0189 0.725098H53.1421C53.1603 0.725098 53.1775 0.73007 53.1947 0.735031C53.2096 0.73935 53.2245 0.743661 53.24 0.744673C53.3705 0.753375 53.4952 0.778025 53.6185 0.820076C53.631 0.824326 53.6435 0.828319 53.6559 0.832287L53.6559 0.832296C53.6899 0.843219 53.7234 0.85396 53.757 0.869379C53.915 0.941153 54.0658 1.03251 54.1934 1.16011L65.1188 12.0862L70.5804 17.5471L70.5809 17.5477L70.5812 17.5482L70.5819 17.5493L70.5848 17.5522C70.7131 17.6805 70.8045 17.8321 70.877 17.9908C70.888 18.0157 70.8961 18.0405 70.9043 18.0655C70.9086 18.0785 70.9129 18.0916 70.9176 18.1047C70.9676 18.2439 70.9959 18.386 71.0031 18.5339C71.0035 18.5444 71.0064 18.5546 71.0093 18.5648C71.0124 18.5757 71.0155 18.5865 71.0155 18.5977V32.6973C73.8547 33.5498 76.4561 35.095 78.6108 37.2497C82.0416 40.6791 83.9296 45.2395 83.9296 50.0899C83.9296 54.4415 82.3998 58.5525 79.61 61.8303L80.9186 63.139L83.2662 60.7914C83.8229 60.2346 84.809 60.2346 85.3658 60.7914L96.1584 71.5835C97.346 72.7712 98 74.3509 98 76.0308C98 77.7107 97.3446 79.2898 96.157 80.4774C94.9708 81.665 93.3918 82.3197 91.7111 82.3197C90.0305 82.3197 88.4514 81.6657 87.2638 80.4774L76.4725 69.686C75.8924 69.1061 75.8924 68.1665 76.4725 67.5865L78.8195 65.2395L77.5108 63.9308C75.5909 65.5643 73.3905 66.7708 71.016 67.4835V78.4103C71.016 79.2303 70.3519 79.8952 69.5312 79.8952H65.4855V84.5151C65.4855 85.3351 64.8214 86 64.0007 86ZM94.0582 73.6827L84.3153 63.9406L79.6215 68.6359L89.3629 78.3773C90.6187 79.6309 92.8039 79.6323 94.0567 78.3773C94.6846 77.7502 95.0297 76.9165 95.0297 76.0297C95.0297 75.143 94.6846 74.3099 94.0582 73.6827ZM80.9599 50.0901C80.9599 46.0329 79.3808 42.2185 76.5111 39.3496C73.6414 36.4806 69.8278 34.9001 65.7706 34.9001C61.7134 34.9001 57.8983 36.4807 55.0301 39.3496C52.1604 42.2185 50.5813 46.0329 50.5813 50.0901C50.5813 54.1473 52.1605 57.9624 55.0301 60.8313C57.8983 63.7003 61.7134 65.2802 65.7706 65.2802C69.8278 65.2802 73.6414 63.7003 76.5111 60.8313C79.3808 57.9624 80.9599 54.1473 80.9599 50.0901ZM62.5897 13.7584L54.6281 5.79752V17.1195H65.9501L62.5897 13.7584ZM8.50302 3.69627V8.31621L8.50283 76.9252H68.0454V68.093C67.295 68.1865 66.538 68.2503 65.7702 68.2503C60.9198 68.2503 56.3594 66.3616 52.93 62.9315C49.4992 59.5014 47.6112 54.941 47.6112 50.0905C47.6112 45.2401 49.4992 40.6797 52.93 37.2503C56.3594 33.8203 60.9198 31.9308 65.7702 31.9308C66.5381 31.9308 67.295 31.9946 68.0454 32.0881V20.0883H53.1432C52.3225 20.0883 51.6584 19.4235 51.6584 18.6034V3.69627H8.50302ZM5.53331 9.80106H2.96823V83.0304H62.5145V79.8954H7.01817C6.19743 79.8954 5.53331 79.2305 5.53331 78.4105V9.80106ZM36.8641 11.8928H12.7853C11.9646 11.8928 11.3005 11.228 11.3005 10.408C11.3005 9.58798 11.9646 8.92314 12.7853 8.92314H36.8641C37.6848 8.92314 38.3489 9.58798 38.3489 10.408C38.3489 11.228 37.6848 11.8928 36.8641 11.8928ZM12.7853 18.79H36.8641C37.6848 18.79 38.3489 18.1252 38.3489 17.3051C38.3489 16.4851 37.6848 15.8203 36.8641 15.8203H12.7853C11.9646 15.8203 11.3005 16.4851 11.3005 17.3051C11.3005 18.1252 11.9646 18.79 12.7853 18.79ZM48.3958 35.9159H12.7853C11.9646 35.9159 11.3005 35.2511 11.3005 34.4311C11.3005 33.6111 11.9646 32.9462 12.7853 32.9462H48.3958C49.2166 32.9462 49.8807 33.6111 49.8807 34.4311C49.8807 35.2511 49.2166 35.9159 48.3958 35.9159ZM12.7853 44.2255H43.648C44.4687 44.2255 45.1329 43.5607 45.1329 42.7407C45.1329 41.9207 44.4687 41.2558 43.648 41.2558H12.7853C11.9646 41.2558 11.3005 41.9207 11.3005 42.7407C11.3005 43.5607 11.9646 44.2255 12.7853 44.2255ZM43.648 52.5351H12.7853C11.9646 52.5351 11.3005 51.8703 11.3005 51.0503C11.3005 50.2303 11.9646 49.5654 12.7853 49.5654H43.648C44.4687 49.5654 45.1329 50.2303 45.1329 51.0503C45.1329 51.8703 44.4687 52.5351 43.648 52.5351ZM12.7853 60.8429H43.648C44.4687 60.8429 45.1329 60.1781 45.1329 59.3581C45.1329 58.5381 44.4687 57.8732 43.648 57.8732H12.7853C11.9646 57.8732 11.3005 58.5381 11.3005 59.3581C11.3005 60.1781 11.9646 60.8429 12.7853 60.8429ZM12.7853 66.1828H48.3958C49.2166 66.1828 49.8807 66.8477 49.8807 67.6677C49.8807 68.4877 49.2166 69.1525 48.3958 69.1525H12.7853C11.9646 69.1525 11.3005 68.4877 11.3005 67.6677C11.3005 66.8477 11.9646 66.1828 12.7853 66.1828Z" fill="#1B1B1B"/>
<path d="M1.48485 6.83133L1.48485 7.23133L1.485 7.23133L1.48485 6.83133ZM5.53404 6.82988L5.53419 7.22988L5.93404 7.22974V6.82988H5.53404ZM53.1947 0.735031L53.0834 1.11926L53.0835 1.11927L53.1947 0.735031ZM53.24 0.744673L53.2666 0.345559L53.266 0.345521L53.24 0.744673ZM53.6185 0.820076L53.4893 1.19865L53.4902 1.19897L53.6185 0.820076ZM53.6559 0.832287L53.7944 0.457038L53.7862 0.454033L53.778 0.451384L53.6559 0.832287ZM53.6559 0.832296L53.5174 1.20755L53.5255 1.21055L53.5338 1.2132L53.6559 0.832296ZM53.757 0.869379L53.5897 1.23274L53.5916 1.23359L53.757 0.869379ZM54.1934 1.16011L54.4763 0.87728L54.4763 0.877269L54.1934 1.16011ZM65.1188 12.0862L64.8359 12.369L64.836 12.3691L65.1188 12.0862ZM70.5804 17.5471L70.8932 17.2977L70.8792 17.2802L70.8633 17.2643L70.5804 17.5471ZM70.5809 17.5477L70.9346 17.3609L70.9171 17.3277L70.8937 17.2983L70.5809 17.5477ZM70.5812 17.5482L70.2275 17.7351L70.2366 17.7523L70.2473 17.7685L70.5812 17.5482ZM70.5819 17.5493L70.248 17.7696L70.2703 17.8034L70.2991 17.8321L70.5819 17.5493ZM70.5848 17.5522L70.8676 17.2694L70.8676 17.2694L70.5848 17.5522ZM70.877 17.9908L71.2428 17.8291L71.2408 17.8247L70.877 17.9908ZM70.9043 18.0655L70.5243 18.1903L70.5243 18.1904L70.9043 18.0655ZM70.9176 18.1047L70.541 18.2396L70.5411 18.24L70.9176 18.1047ZM71.0031 18.5339L71.403 18.5206L71.4026 18.5143L71.0031 18.5339ZM71.0093 18.5648L70.6246 18.6743L70.6246 18.6745L71.0093 18.5648ZM71.0155 32.6973H70.6155V32.9948L70.9004 33.0804L71.0155 32.6973ZM78.6108 37.2497L78.328 37.5325L78.3281 37.5326L78.6108 37.2497ZM79.61 61.8303L79.3054 61.571L79.0661 61.8521L79.3271 62.1131L79.61 61.8303ZM80.9186 63.139L80.6358 63.4218L80.9186 63.7046L81.2015 63.4218L80.9186 63.139ZM83.2662 60.7914L83.549 61.0742L83.5491 61.0742L83.2662 60.7914ZM85.3658 60.7914L85.0829 61.0742L85.0829 61.0743L85.3658 60.7914ZM96.1584 71.5835L96.4413 71.3007L96.4413 71.3006L96.1584 71.5835ZM96.157 80.4774L95.8741 80.1946L95.874 80.1947L96.157 80.4774ZM87.2638 80.4774L87.5468 80.1946L87.5467 80.1946L87.2638 80.4774ZM76.4725 69.686L76.7553 69.4032L76.7553 69.4032L76.4725 69.686ZM76.4725 67.5865L76.7553 67.8693L76.7553 67.8693L76.4725 67.5865ZM78.8195 65.2395L79.1023 65.5223L79.3852 65.2395L79.1023 64.9566L78.8195 65.2395ZM77.5108 63.9308L77.7936 63.6479L77.5327 63.387L77.2516 63.6261L77.5108 63.9308ZM71.016 67.4835L70.9011 67.1004L70.616 67.1859V67.4835H71.016ZM65.4855 79.8952V79.4952H65.0855V79.8952H65.4855ZM84.3153 63.9406L84.5981 63.6578L84.3153 63.3749L84.0324 63.6578L84.3153 63.9406ZM94.0582 73.6827L94.3412 73.4001L94.341 73.3999L94.0582 73.6827ZM79.6215 68.6359L79.3387 68.3531L79.0559 68.636L79.3387 68.9188L79.6215 68.6359ZM89.3629 78.3773L89.0801 78.6601L89.0803 78.6604L89.3629 78.3773ZM94.0567 78.3773L93.7741 78.0943L93.7736 78.0947L94.0567 78.3773ZM76.5111 39.3496L76.2283 39.6325L76.2283 39.6325L76.5111 39.3496ZM55.0301 39.3496L55.3129 39.6325L55.313 39.6324L55.0301 39.3496ZM55.0301 60.8313L55.313 60.5485L55.3129 60.5485L55.0301 60.8313ZM76.5111 60.8313L76.2283 60.5485L76.2283 60.5485L76.5111 60.8313ZM54.6281 5.79752L54.9109 5.51467L54.2281 4.8319V5.79752H54.6281ZM62.5897 13.7584L62.8726 13.4756L62.8725 13.4755L62.5897 13.7584ZM54.6281 17.1195H54.2281V17.5195H54.6281V17.1195ZM65.9501 17.1195V17.5195H66.9156L66.233 16.8367L65.9501 17.1195ZM8.50302 8.31621L8.90302 8.31621V8.31621H8.50302ZM8.50302 3.69627V3.29627H8.10302V3.69627H8.50302ZM8.50283 76.9252L8.10283 76.9252L8.10283 77.3252H8.50283V76.9252ZM68.0454 76.9252V77.3252H68.4454V76.9252H68.0454ZM68.0454 68.093H68.4454V67.64L67.9959 67.696L68.0454 68.093ZM52.93 62.9315L53.2129 62.6487L53.2128 62.6487L52.93 62.9315ZM52.93 37.2503L53.2128 37.5332L53.2129 37.5331L52.93 37.2503ZM68.0454 32.0881L67.9959 32.4851L68.4454 32.5411V32.0881H68.0454ZM68.0454 20.0883H68.4454V19.6883H68.0454V20.0883ZM51.6584 3.69627H52.0584V3.29627H51.6584V3.69627ZM2.96823 9.80106V9.40106H2.56823V9.80106H2.96823ZM5.53331 9.80106H5.93331V9.40106H5.53331V9.80106ZM2.96823 83.0304H2.56823V83.4304H2.96823V83.0304ZM62.5145 83.0304V83.4304H62.9145V83.0304H62.5145ZM62.5145 79.8954H62.9145V79.4954H62.5145V79.8954ZM1.48468 86.4H64.0007V85.6H1.48468V86.4ZM-0.4 84.5151C-0.4 85.5558 0.442837 86.4 1.48468 86.4V85.6C0.885052 85.6 0.4 85.1144 0.4 84.5151H-0.4ZM-0.4 8.31618V84.5151H0.4V8.31618H-0.4ZM1.48485 6.43133C0.443078 6.43133 -0.4 7.27539 -0.4 8.31618H0.4C0.4 7.71696 0.88516 7.23133 1.48485 7.23133V6.43133ZM5.5339 6.42988L1.48471 6.43133L1.485 7.23133L5.53419 7.22988L5.5339 6.42988ZM5.13404 2.20995V6.82988H5.93404V2.20995H5.13404ZM7.0189 0.325098C5.97712 0.325098 5.13404 1.16915 5.13404 2.20995H5.93404C5.93404 1.61073 6.4192 1.1251 7.0189 1.1251V0.325098ZM53.1421 0.325098H7.0189V1.1251H53.1421V0.325098ZM53.3059 0.350801C53.2975 0.348385 53.2263 0.325098 53.1421 0.325098V1.1251C53.115 1.1251 53.0946 1.12138 53.0852 1.11936C53.0804 1.11835 53.0775 1.11755 53.0774 1.11753C53.0773 1.11751 53.0777 1.1176 53.0787 1.1179C53.0799 1.11823 53.0812 1.1186 53.0834 1.11926L53.3059 0.350801ZM53.266 0.345521C53.2864 0.346851 53.3013 0.35 53.3074 0.351409C53.3105 0.352135 53.3123 0.352635 53.3119 0.352519C53.3112 0.352325 53.31 0.352001 53.3058 0.350795L53.0835 1.11927C53.0913 1.12152 53.1478 1.13951 53.214 1.14383L53.266 0.345521ZM53.7476 0.441503C53.5905 0.387905 53.4313 0.356539 53.2666 0.345559L53.2134 1.14379C53.3097 1.15021 53.3999 1.16814 53.4893 1.19865L53.7476 0.441503ZM53.778 0.451384C53.7651 0.447272 53.7557 0.44424 53.7467 0.441187L53.4902 1.19897C53.5063 1.20441 53.5218 1.20937 53.5337 1.21319L53.778 0.451384ZM53.7944 0.457046L53.7944 0.457038L53.5173 1.20754L53.5174 1.20755L53.7944 0.457046ZM53.9242 0.50602C53.8652 0.478879 53.8089 0.461303 53.778 0.451394L53.5338 1.2132C53.571 1.22514 53.5817 1.22904 53.5897 1.23274L53.9242 0.50602ZM54.4763 0.877269C54.3045 0.705479 54.1086 0.589772 53.9223 0.50517L53.5916 1.23359C53.7214 1.29253 53.8272 1.35954 53.9106 1.44296L54.4763 0.877269ZM65.4016 11.8034L54.4763 0.87728L53.9106 1.44295L64.8359 12.369L65.4016 11.8034ZM70.8633 17.2643L65.4016 11.8034L64.836 12.3691L70.2976 17.83L70.8633 17.2643ZM70.8937 17.2983L70.8932 17.2977L70.2677 17.7965L70.2682 17.7971L70.8937 17.2983ZM70.9349 17.3614L70.9346 17.3609L70.2272 17.7346L70.2275 17.7351L70.9349 17.3614ZM70.9158 17.329L70.9151 17.328L70.2473 17.7685L70.248 17.7696L70.9158 17.329ZM70.8676 17.2694L70.8647 17.2665L70.2991 17.8321L70.302 17.835L70.8676 17.2694ZM71.2408 17.8247C71.156 17.6389 71.0404 17.4422 70.8676 17.2694L70.3019 17.835C70.3858 17.9189 70.453 18.0253 70.5131 18.157L71.2408 17.8247ZM71.2844 17.9408C71.277 17.9183 71.2631 17.8749 71.2428 17.8291L70.5111 18.1526C70.5115 18.1535 70.5127 18.1563 70.5149 18.1625C70.5174 18.1694 70.5199 18.177 70.5243 18.1903L71.2844 17.9408ZM71.2941 17.9698C71.2915 17.9625 71.2889 17.9545 71.2843 17.9407L70.5243 18.1904C70.5283 18.2025 70.5342 18.2206 70.541 18.2396L71.2941 17.9698ZM71.4026 18.5143C71.3935 18.3271 71.3575 18.146 71.294 17.9694L70.5411 18.24C70.5777 18.3418 70.5983 18.4449 70.6036 18.5535L71.4026 18.5143ZM71.394 18.4553C71.392 18.4481 71.394 18.4547 71.3959 18.4634C71.3981 18.4735 71.402 18.4938 71.4029 18.5206L70.6033 18.5472C70.6056 18.6151 70.6241 18.6727 70.6246 18.6743L71.394 18.4553ZM71.4155 18.5977C71.4155 18.5212 71.3943 18.4565 71.394 18.4552L70.6246 18.6745C70.6268 18.6821 70.6244 18.6743 70.6222 18.664C70.6197 18.652 70.6155 18.6284 70.6155 18.5977H71.4155ZM71.4155 32.6973V18.5977H70.6155V32.6973H71.4155ZM78.8937 36.9668C76.6923 34.7655 74.0333 33.1858 71.1305 32.3142L70.9004 33.0804C73.6761 33.9138 76.2199 35.4244 78.328 37.5325L78.8937 36.9668ZM84.3296 50.0899C84.3296 45.1334 82.3995 40.4713 78.8936 36.9668L78.3281 37.5326C81.6837 40.8869 83.5296 45.3455 83.5296 50.0899H84.3296ZM79.9146 62.0895C82.7657 58.7398 84.3296 54.537 84.3296 50.0899H83.5296C83.5296 54.3459 82.034 58.3652 79.3054 61.571L79.9146 62.0895ZM81.2015 62.8561L79.8928 61.5474L79.3271 62.1131L80.6358 63.4218L81.2015 62.8561ZM82.9834 60.5086L80.6358 62.8561L81.2015 63.4218L83.549 61.0742L82.9834 60.5086ZM85.6486 60.5086C84.9356 59.7955 83.6963 59.7955 82.9833 60.5086L83.5491 61.0742C83.9496 60.6737 84.6823 60.6736 85.0829 61.0742L85.6486 60.5086ZM96.4413 71.3006L85.6486 60.5086L85.0829 61.0743L95.8756 71.8663L96.4413 71.3006ZM98.4 76.0308C98.4 74.2449 97.7039 72.5634 96.4413 71.3007L95.8756 71.8663C96.9881 72.979 97.6 74.4569 97.6 76.0308H98.4ZM96.4398 80.7602C97.7023 79.4978 98.4 77.817 98.4 76.0308H97.6C97.6 77.6044 96.9869 79.0818 95.8741 80.1946L96.4398 80.7602ZM91.7111 82.7197C93.4979 82.7197 95.1787 82.0228 96.44 80.7601L95.874 80.1947C94.7628 81.3072 93.2856 81.9197 91.7111 81.9197V82.7197ZM86.9809 80.7602C88.2436 82.0236 89.9244 82.7197 91.7111 82.7197V81.9197C90.1365 81.9197 88.6593 81.3078 87.5468 80.1946L86.9809 80.7602ZM76.1896 69.9689L86.981 80.7602L87.5467 80.1946L76.7553 69.4032L76.1896 69.9689ZM76.1896 67.3036C75.4534 68.0398 75.4534 69.2327 76.1897 69.9689L76.7553 69.4032C76.3315 68.9795 76.3315 68.2931 76.7553 67.8693L76.1896 67.3036ZM78.5366 64.9566L76.1896 67.3036L76.7553 67.8693L79.1023 65.5223L78.5366 64.9566ZM77.228 64.2136L78.5366 65.5223L79.1023 64.9566L77.7936 63.6479L77.228 64.2136ZM71.131 67.8666C73.5598 67.1376 75.809 65.9039 77.77 64.2354L77.2516 63.6261C75.3728 65.2247 73.2212 66.404 70.9011 67.1004L71.131 67.8666ZM71.416 78.4103V67.4835H70.616V78.4103H71.416ZM69.5312 80.2952C70.573 80.2952 71.416 79.4511 71.416 78.4103H70.616C70.616 79.0096 70.1309 79.4952 69.5312 79.4952V80.2952ZM65.4855 80.2952H69.5312V79.4952H65.4855V80.2952ZM65.8855 84.5151V79.8952H65.0855V84.5151H65.8855ZM64.0007 86.4C65.0425 86.4 65.8855 85.5559 65.8855 84.5151H65.0855C65.0855 85.1143 64.6004 85.6 64.0007 85.6V86.4ZM84.0325 64.2235L93.7753 73.9656L94.341 73.3999L84.5981 63.6578L84.0325 64.2235ZM79.9044 68.9187L84.5982 64.2234L84.0324 63.6578L79.3387 68.3531L79.9044 68.9187ZM89.6458 78.0944L79.9044 68.3531L79.3387 68.9188L89.0801 78.6601L89.6458 78.0944ZM93.7736 78.0947C92.6775 79.1928 90.7456 79.1923 89.6455 78.0942L89.0803 78.6604C90.4919 80.0694 92.9303 80.0718 94.3398 78.6599L93.7736 78.0947ZM94.6297 76.0297C94.6297 76.8105 94.3267 77.5423 93.7741 78.0943L94.3394 78.6603C95.0425 77.9581 95.4297 77.0226 95.4297 76.0297H94.6297ZM93.7752 73.9654C94.3267 74.5176 94.6297 75.249 94.6297 76.0297H95.4297C95.4297 75.0369 95.0425 74.1022 94.3412 73.4001L93.7752 73.9654ZM76.2283 39.6325C79.0229 42.4264 80.5599 46.139 80.5599 50.0901H81.3599C81.3599 45.9269 79.7387 42.0107 76.7939 39.0667L76.2283 39.6325ZM65.7706 35.3001C69.7216 35.3001 73.4336 36.8384 76.2283 39.6325L76.7939 39.0667C73.8493 36.1228 69.9339 34.5001 65.7706 34.5001V35.3001ZM55.313 39.6324C58.1062 36.8385 61.8195 35.3001 65.7706 35.3001V34.5001C61.6073 34.5001 57.6904 36.1229 54.7472 39.0668L55.313 39.6324ZM50.9813 50.0901C50.9813 46.139 52.5183 42.4264 55.3129 39.6325L54.7473 39.0667C51.8025 42.0107 50.1813 45.9269 50.1813 50.0901H50.9813ZM55.3129 60.5485C52.5184 57.7546 50.9813 54.0413 50.9813 50.0901H50.1813C50.1813 54.2533 51.8026 58.1702 54.7473 61.1142L55.3129 60.5485ZM65.7706 64.8802C61.8195 64.8802 58.1061 63.3424 55.313 60.5485L54.7472 61.1142C57.6905 64.0582 61.6074 65.6802 65.7706 65.6802V64.8802ZM76.2283 60.5485C73.4336 63.3424 69.7217 64.8802 65.7706 64.8802V65.6802C69.9339 65.6802 73.8493 64.0581 76.7939 61.1142L76.2283 60.5485ZM80.5599 50.0901C80.5599 54.0413 79.0229 57.7546 76.2283 60.5485L76.7939 61.1142C79.7387 58.1702 81.3599 54.2533 81.3599 50.0901H80.5599ZM54.3453 6.08038L62.3069 14.0412L62.8725 13.4755L54.9109 5.51467L54.3453 6.08038ZM55.0281 17.1195V5.79752H54.2281V17.1195H55.0281ZM65.9501 16.7195H54.6281V17.5195H65.9501V16.7195ZM62.3068 14.0412L65.6672 17.4023L66.233 16.8367L62.8726 13.4756L62.3068 14.0412ZM8.90302 8.31621V3.69627H8.10302V8.31621H8.90302ZM8.90283 76.9252L8.90302 8.31621L8.10302 8.3162L8.10283 76.9252L8.90283 76.9252ZM68.0454 76.5252H8.50283V77.3252H68.0454V76.5252ZM67.6454 68.093V76.9252H68.4454V68.093H67.6454ZM65.7702 68.6503C66.5599 68.6503 67.3343 68.5847 68.0949 68.4899L67.9959 67.696C67.2557 67.7883 66.5162 67.8503 65.7702 67.8503V68.6503ZM52.6471 63.2144C56.1516 66.7194 60.8137 68.6503 65.7702 68.6503V67.8503C61.0259 67.8503 56.5673 66.0037 53.2129 62.6487L52.6471 63.2144ZM47.2112 50.0905C47.2112 55.047 49.1413 59.7092 52.6472 63.2144L53.2128 62.6487C49.8571 59.2935 48.0112 54.835 48.0112 50.0905H47.2112ZM52.6472 36.9674C49.1413 40.4719 47.2112 45.1341 47.2112 50.0905H48.0112C48.0112 45.3461 49.8571 40.8876 53.2128 37.5332L52.6472 36.9674ZM65.7702 31.5308C60.8137 31.5308 56.1516 33.4624 52.6471 36.9675L53.2129 37.5331C56.5673 34.1781 61.0259 32.3308 65.7702 32.3308V31.5308ZM68.0949 31.6912C67.3343 31.5964 66.5599 31.5308 65.7702 31.5308V32.3308C66.5163 32.3308 67.2557 32.3928 67.9959 32.4851L68.0949 31.6912ZM67.6454 20.0883V32.0881H68.4454V20.0883H67.6454ZM53.1432 20.4883H68.0454V19.6883H53.1432V20.4883ZM51.2584 18.6034C51.2584 19.6442 52.1015 20.4883 53.1432 20.4883V19.6883C52.5436 19.6883 52.0584 19.2027 52.0584 18.6034H51.2584ZM51.2584 3.69627V18.6034H52.0584V3.69627H51.2584ZM8.50302 4.09627H51.6584V3.29627H8.50302V4.09627ZM2.96823 10.2011H5.53331V9.40106H2.96823V10.2011ZM3.36823 83.0304V9.80106H2.56823V83.0304H3.36823ZM62.5145 82.6304H2.96823V83.4304H62.5145V82.6304ZM62.1145 79.8954V83.0304H62.9145V79.8954H62.1145ZM7.01817 80.2954H62.5145V79.4954H7.01817V80.2954ZM5.13331 78.4105C5.13331 79.4513 5.97639 80.2954 7.01817 80.2954V79.4954C6.41847 79.4954 5.93331 79.0097 5.93331 78.4105H5.13331ZM5.13331 9.80106V78.4105H5.93331V9.80106H5.13331ZM12.7853 12.2928H36.8641V11.4928H12.7853V12.2928ZM10.9005 10.408C10.9005 11.4488 11.7436 12.2928 12.7853 12.2928V11.4928C12.1857 11.4928 11.7005 11.0072 11.7005 10.408H10.9005ZM12.7853 8.52314C11.7436 8.52314 10.9005 9.3672 10.9005 10.408H11.7005C11.7005 9.80877 12.1857 9.32314 12.7853 9.32314V8.52314ZM36.8641 8.52314H12.7853V9.32314H36.8641V8.52314ZM38.7489 10.408C38.7489 9.3672 37.9059 8.52314 36.8641 8.52314V9.32314C37.4638 9.32314 37.9489 9.80877 37.9489 10.408H38.7489ZM36.8641 12.2928C37.9059 12.2928 38.7489 11.4488 38.7489 10.408H37.9489C37.9489 11.0072 37.4638 11.4928 36.8641 11.4928V12.2928ZM36.8641 18.39H12.7853V19.19H36.8641V18.39ZM37.9489 17.3051C37.9489 17.9044 37.4638 18.39 36.8641 18.39V19.19C37.9059 19.19 38.7489 18.3459 38.7489 17.3051H37.9489ZM36.8641 16.2203C37.4638 16.2203 37.9489 16.7059 37.9489 17.3051H38.7489C38.7489 16.2643 37.9059 15.4203 36.8641 15.4203V16.2203ZM12.7853 16.2203H36.8641V15.4203H12.7853V16.2203ZM11.7005 17.3051C11.7005 16.7059 12.1857 16.2203 12.7853 16.2203V15.4203C11.7436 15.4203 10.9005 16.2643 10.9005 17.3051H11.7005ZM12.7853 18.39C12.1857 18.39 11.7005 17.9044 11.7005 17.3051H10.9005C10.9005 18.3459 11.7436 19.19 12.7853 19.19V18.39ZM12.7853 36.3159H48.3958V35.5159H12.7853V36.3159ZM10.9005 34.4311C10.9005 35.4719 11.7436 36.3159 12.7853 36.3159V35.5159C12.1857 35.5159 11.7005 35.0303 11.7005 34.4311H10.9005ZM12.7853 32.5462C11.7436 32.5462 10.9005 33.3903 10.9005 34.4311H11.7005C11.7005 33.8318 12.1857 33.3462 12.7853 33.3462V32.5462ZM48.3958 32.5462H12.7853V33.3462H48.3958V32.5462ZM50.2807 34.4311C50.2807 33.3903 49.4376 32.5462 48.3958 32.5462V33.3462C48.9955 33.3462 49.4807 33.8318 49.4807 34.4311H50.2807ZM48.3958 36.3159C49.4376 36.3159 50.2807 35.4719 50.2807 34.4311H49.4807C49.4807 35.0303 48.9955 35.5159 48.3958 35.5159V36.3159ZM43.648 43.8255H12.7853V44.6255H43.648V43.8255ZM44.7329 42.7407C44.7329 43.3399 44.2477 43.8255 43.648 43.8255V44.6255C44.6898 44.6255 45.5329 43.7815 45.5329 42.7407H44.7329ZM43.648 41.6558C44.2477 41.6558 44.7329 42.1414 44.7329 42.7407H45.5329C45.5329 41.6999 44.6898 40.8558 43.648 40.8558V41.6558ZM12.7853 41.6558H43.648V40.8558H12.7853V41.6558ZM11.7005 42.7407C11.7005 42.1414 12.1857 41.6558 12.7853 41.6558V40.8558C11.7436 40.8558 10.9005 41.6999 10.9005 42.7407H11.7005ZM12.7853 43.8255C12.1857 43.8255 11.7005 43.3399 11.7005 42.7407H10.9005C10.9005 43.7815 11.7436 44.6255 12.7853 44.6255V43.8255ZM12.7853 52.9351H43.648V52.1351H12.7853V52.9351ZM10.9005 51.0503C10.9005 52.0911 11.7436 52.9351 12.7853 52.9351V52.1351C12.1857 52.1351 11.7005 51.6495 11.7005 51.0503H10.9005ZM12.7853 49.1654C11.7436 49.1654 10.9005 50.0095 10.9005 51.0503H11.7005C11.7005 50.451 12.1857 49.9654 12.7853 49.9654V49.1654ZM43.648 49.1654H12.7853V49.9654H43.648V49.1654ZM45.5329 51.0503C45.5329 50.0095 44.6898 49.1654 43.648 49.1654V49.9654C44.2477 49.9654 44.7329 50.451 44.7329 51.0503H45.5329ZM43.648 52.9351C44.6898 52.9351 45.5329 52.0911 45.5329 51.0503H44.7329C44.7329 51.6495 44.2477 52.1351 43.648 52.1351V52.9351ZM43.648 60.4429H12.7853V61.2429H43.648V60.4429ZM44.7329 59.3581C44.7329 59.9573 44.2477 60.4429 43.648 60.4429V61.2429C44.6898 61.2429 45.5329 60.3989 45.5329 59.3581H44.7329ZM43.648 58.2732C44.2477 58.2732 44.7329 58.7589 44.7329 59.3581H45.5329C45.5329 58.3173 44.6898 57.4732 43.648 57.4732V58.2732ZM12.7853 58.2732H43.648V57.4732H12.7853V58.2732ZM11.7005 59.3581C11.7005 58.7589 12.1857 58.2732 12.7853 58.2732V57.4732C11.7436 57.4732 10.9005 58.3173 10.9005 59.3581H11.7005ZM12.7853 60.4429C12.1857 60.4429 11.7005 59.9573 11.7005 59.3581H10.9005C10.9005 60.3989 11.7436 61.2429 12.7853 61.2429V60.4429ZM48.3958 65.7828H12.7853V66.5828H48.3958V65.7828ZM50.2807 67.6677C50.2807 66.6269 49.4376 65.7828 48.3958 65.7828V66.5828C48.9955 66.5828 49.4807 67.0685 49.4807 67.6677H50.2807ZM48.3958 69.5525C49.4376 69.5525 50.2807 68.7085 50.2807 67.6677H49.4807C49.4807 68.2669 48.9955 68.7525 48.3958 68.7525V69.5525ZM12.7853 69.5525H48.3958V68.7525H12.7853V69.5525ZM10.9005 67.6677C10.9005 68.7085 11.7436 69.5525 12.7853 69.5525V68.7525C12.1857 68.7525 11.7005 68.2669 11.7005 67.6677H10.9005ZM12.7853 65.7828C11.7436 65.7828 10.9005 66.6269 10.9005 67.6677H11.7005C11.7005 67.0685 12.1857 66.5828 12.7853 66.5828V65.7828Z" fill="white" mask="url(#path-2-inside-1_359_12127)"/>
</svg>
