<svg width="72" height="93" viewBox="0 0 72 93" fill="none" xmlns="http://www.w3.org/2000/svg">
<circle cx="35.6992" cy="52.7" r="14.5" fill="#A4B8C1"/>
<mask id="path-2-inside-1_359_12123" fill="white">
<path fill-rule="evenodd" clip-rule="evenodd" d="M6.20117 20.15C6.20117 19.294 6.89522 18.6 7.75117 18.6H12.508V8.4862C12.508 7.63025 13.202 6.9362 14.058 6.9362H25.7832C27.2349 2.85164 31.1756 0 35.589 0C40.0023 0 43.943 2.85147 45.3947 6.9362H57.12C57.9759 6.9362 58.67 7.63025 58.67 8.4862V18.6H63.4271C64.2831 18.6 64.9771 19.294 64.9771 20.15V85.25C64.9771 86.1059 64.2831 86.7999 63.4271 86.7999H7.75117C6.89522 86.7999 6.20117 86.1059 6.20117 85.25V20.15ZM9.30117 83.7H61.8771V21.7H9.30117V83.7ZM26.9481 10.0369H15.6074L15.6082 18.6007H55.5698V10.0369H44.2291C43.5019 10.0369 42.8729 9.53108 42.7158 8.82112C41.9831 5.5059 38.9853 3.09994 35.5886 3.09994C32.1919 3.09994 29.1942 5.5059 28.4615 8.82112C28.3044 9.53108 27.6754 10.0369 26.9481 10.0369ZM63.3188 12.4H66.526C69.0905 12.4 71.176 14.4855 71.176 17.05V88.35C71.176 90.9145 69.0905 93 66.526 93H4.65C2.0855 93 0 90.9145 0 88.35V17.05C0 14.4855 2.0855 12.4 4.65 12.4H7.85717C8.71312 12.4 9.40716 13.0941 9.40716 13.95C9.40716 14.806 8.71312 15.5 7.85717 15.5H4.65C3.79542 15.5 3.1 16.1954 3.1 17.05V88.35C3.1 89.2045 3.79542 89.9 4.65 89.9H66.526C67.3805 89.9 68.076 89.2045 68.076 88.35V17.05C68.076 16.1954 67.3805 15.5 66.526 15.5H63.3188C62.4628 15.5 61.7688 14.806 61.7688 13.95C61.7688 13.0941 62.4628 12.4 63.3188 12.4ZM52.3491 49.2102C51.4994 49.3077 50.8884 50.0765 50.9859 50.9276C51.0524 51.5075 51.0863 52.104 51.0863 52.6991C51.0863 61.2462 44.1334 68.199 35.5863 68.199C27.0391 68.199 20.0863 61.2462 20.0863 52.6991C20.0863 44.1519 27.0391 37.1991 35.5863 37.1991C39.1755 37.1991 42.5432 38.3892 45.327 40.6409C45.9913 41.18 46.9683 41.0762 47.5068 40.4105C48.0458 39.7455 47.942 38.7692 47.2763 38.2308C43.9825 35.566 39.8308 34.0984 35.5863 34.0984C25.3306 34.0984 16.9863 42.4427 16.9863 52.6984C16.9863 62.9541 25.3306 71.2984 35.5863 71.2984C45.842 71.2984 54.1863 62.9541 54.1863 52.6984C54.1863 51.9857 54.1455 51.2702 54.0659 50.5727C53.9683 49.7229 53.2113 49.1175 52.3485 49.2095L52.3491 49.2102ZM36.8046 55.5116L51.917 40.3992H51.9186C52.5233 39.7937 53.5045 39.7937 54.11 40.3992C54.7155 41.0039 54.7155 41.9851 54.11 42.5906L37.9014 58.7992C37.5984 59.1016 37.2019 59.2531 36.8054 59.2531C36.4089 59.2531 36.0117 59.1016 35.7093 58.7992L28.1357 51.2263C27.5303 50.6216 27.5303 49.6404 28.1357 49.0349C28.7405 48.4294 29.7217 48.4294 30.3272 49.0349L36.8046 55.5116Z"/>
</mask>
<path fill-rule="evenodd" clip-rule="evenodd" d="M6.20117 20.15C6.20117 19.294 6.89522 18.6 7.75117 18.6H12.508V8.4862C12.508 7.63025 13.202 6.9362 14.058 6.9362H25.7832C27.2349 2.85164 31.1756 0 35.589 0C40.0023 0 43.943 2.85147 45.3947 6.9362H57.12C57.9759 6.9362 58.67 7.63025 58.67 8.4862V18.6H63.4271C64.2831 18.6 64.9771 19.294 64.9771 20.15V85.25C64.9771 86.1059 64.2831 86.7999 63.4271 86.7999H7.75117C6.89522 86.7999 6.20117 86.1059 6.20117 85.25V20.15ZM9.30117 83.7H61.8771V21.7H9.30117V83.7ZM26.9481 10.0369H15.6074L15.6082 18.6007H55.5698V10.0369H44.2291C43.5019 10.0369 42.8729 9.53108 42.7158 8.82112C41.9831 5.5059 38.9853 3.09994 35.5886 3.09994C32.1919 3.09994 29.1942 5.5059 28.4615 8.82112C28.3044 9.53108 27.6754 10.0369 26.9481 10.0369ZM63.3188 12.4H66.526C69.0905 12.4 71.176 14.4855 71.176 17.05V88.35C71.176 90.9145 69.0905 93 66.526 93H4.65C2.0855 93 0 90.9145 0 88.35V17.05C0 14.4855 2.0855 12.4 4.65 12.4H7.85717C8.71312 12.4 9.40716 13.0941 9.40716 13.95C9.40716 14.806 8.71312 15.5 7.85717 15.5H4.65C3.79542 15.5 3.1 16.1954 3.1 17.05V88.35C3.1 89.2045 3.79542 89.9 4.65 89.9H66.526C67.3805 89.9 68.076 89.2045 68.076 88.35V17.05C68.076 16.1954 67.3805 15.5 66.526 15.5H63.3188C62.4628 15.5 61.7688 14.806 61.7688 13.95C61.7688 13.0941 62.4628 12.4 63.3188 12.4ZM52.3491 49.2102C51.4994 49.3077 50.8884 50.0765 50.9859 50.9276C51.0524 51.5075 51.0863 52.104 51.0863 52.6991C51.0863 61.2462 44.1334 68.199 35.5863 68.199C27.0391 68.199 20.0863 61.2462 20.0863 52.6991C20.0863 44.1519 27.0391 37.1991 35.5863 37.1991C39.1755 37.1991 42.5432 38.3892 45.327 40.6409C45.9913 41.18 46.9683 41.0762 47.5068 40.4105C48.0458 39.7455 47.942 38.7692 47.2763 38.2308C43.9825 35.566 39.8308 34.0984 35.5863 34.0984C25.3306 34.0984 16.9863 42.4427 16.9863 52.6984C16.9863 62.9541 25.3306 71.2984 35.5863 71.2984C45.842 71.2984 54.1863 62.9541 54.1863 52.6984C54.1863 51.9857 54.1455 51.2702 54.0659 50.5727C53.9683 49.7229 53.2113 49.1175 52.3485 49.2095L52.3491 49.2102ZM36.8046 55.5116L51.917 40.3992H51.9186C52.5233 39.7937 53.5045 39.7937 54.11 40.3992C54.7155 41.0039 54.7155 41.9851 54.11 42.5906L37.9014 58.7992C37.5984 59.1016 37.2019 59.2531 36.8054 59.2531C36.4089 59.2531 36.0117 59.1016 35.7093 58.7992L28.1357 51.2263C27.5303 50.6216 27.5303 49.6404 28.1357 49.0349C28.7405 48.4294 29.7217 48.4294 30.3272 49.0349L36.8046 55.5116Z" fill="#1B1B1B"/>
<path d="M12.508 18.6V19H12.908V18.6H12.508ZM25.7832 6.9362V7.3362H26.0656L26.1601 7.07016L25.7832 6.9362ZM45.3947 6.9362L45.0178 7.07016L45.1124 7.3362H45.3947V6.9362ZM58.67 18.6H58.27V19H58.67V18.6ZM61.8771 83.7V84.1H62.2771V83.7H61.8771ZM9.30117 83.7H8.90117V84.1H9.30117V83.7ZM61.8771 21.7H62.2771V21.3H61.8771V21.7ZM9.30117 21.7V21.3H8.90117V21.7H9.30117ZM15.6074 10.0369V9.63691H15.2074L15.2074 10.0369L15.6074 10.0369ZM15.6082 18.6007L15.2082 18.6007L15.2082 19.0007H15.6082V18.6007ZM55.5698 18.6007V19.0007H55.9698V18.6007H55.5698ZM55.5698 10.0369H55.9698V9.63691H55.5698V10.0369ZM42.7158 8.82112L42.3252 8.90744L42.3252 8.90753L42.7158 8.82112ZM28.4615 8.82112L28.852 8.90754L28.852 8.90745L28.4615 8.82112ZM50.9859 50.9276L51.3833 50.8821L51.3833 50.8821L50.9859 50.9276ZM52.3491 49.2102L52.3947 49.6076L53.1998 49.5151L52.6368 48.9323L52.3491 49.2102ZM45.327 40.6409L45.579 40.3303L45.5786 40.3299L45.327 40.6409ZM47.5068 40.4105L47.196 40.1586L47.1957 40.159L47.5068 40.4105ZM47.2763 38.2308L47.0247 38.5417L47.0248 38.5418L47.2763 38.2308ZM54.0659 50.5727L54.4633 50.5273L54.4633 50.527L54.0659 50.5727ZM52.3485 49.2095L52.306 48.8118L51.492 48.8986L52.0607 49.4874L52.3485 49.2095ZM51.917 40.3992V39.9992H51.7513L51.6341 40.1163L51.917 40.3992ZM36.8046 55.5116L36.5218 55.7944L36.8046 56.0772L37.0874 55.7944L36.8046 55.5116ZM51.9186 40.3992V40.7992H52.0844L52.2016 40.6819L51.9186 40.3992ZM54.11 40.3992L53.8272 40.682L53.8273 40.6822L54.11 40.3992ZM37.9014 58.7992L38.184 59.0823L38.1843 59.082L37.9014 58.7992ZM35.7093 58.7992L35.9921 58.5163L35.9921 58.5163L35.7093 58.7992ZM28.1357 51.2263L28.4186 50.9435L28.4184 50.9433L28.1357 51.2263ZM28.1357 49.0349L28.4186 49.3177L28.4188 49.3176L28.1357 49.0349ZM30.3272 49.0349L30.0443 49.3177L30.0444 49.3177L30.3272 49.0349ZM7.75117 18.2C6.6743 18.2 5.80117 19.0731 5.80117 20.15H6.60117C6.60117 19.5149 7.11613 19 7.75117 19V18.2ZM12.508 18.2H7.75117V19H12.508V18.2ZM12.108 8.4862V18.6H12.908V8.4862H12.108ZM14.058 6.5362C12.9811 6.5362 12.108 7.40933 12.108 8.4862H12.908C12.908 7.85116 13.4229 7.3362 14.058 7.3362V6.5362ZM25.7832 6.5362H14.058V7.3362H25.7832V6.5362ZM35.589 -0.4C31.0037 -0.4 26.9138 2.56072 25.4063 6.80225L26.1601 7.07016C27.556 3.14257 31.3476 0.4 35.589 0.4V-0.4ZM45.7716 6.80225C44.2641 2.56054 40.1742 -0.4 35.589 -0.4V0.4C39.8304 0.4 43.6219 3.1424 45.0178 7.07016L45.7716 6.80225ZM57.12 6.5362H45.3947V7.3362H57.12V6.5362ZM59.07 8.4862C59.07 7.40933 58.1968 6.5362 57.12 6.5362V7.3362C57.755 7.3362 58.27 7.85116 58.27 8.4862H59.07ZM59.07 18.6V8.4862H58.27V18.6H59.07ZM63.4271 18.2H58.67V19H63.4271V18.2ZM65.3771 20.15C65.3771 19.0731 64.504 18.2 63.4271 18.2V19C64.0622 19 64.5771 19.515 64.5771 20.15H65.3771ZM65.3771 85.25V20.15H64.5771V85.25H65.3771ZM63.4271 87.1999C64.504 87.1999 65.3771 86.3268 65.3771 85.25H64.5771C64.5771 85.885 64.0622 86.3999 63.4271 86.3999V87.1999ZM7.75117 87.1999H63.4271V86.3999H7.75117V87.1999ZM5.80117 85.25C5.80117 86.3268 6.6743 87.1999 7.75117 87.1999V86.3999C7.11613 86.3999 6.60117 85.885 6.60117 85.25H5.80117ZM5.80117 20.15V85.25H6.60117V20.15H5.80117ZM61.8771 83.3H9.30117V84.1H61.8771V83.3ZM61.4771 21.7V83.7H62.2771V21.7H61.4771ZM9.30117 22.1H61.8771V21.3H9.30117V22.1ZM9.70117 83.7V21.7H8.90117V83.7H9.70117ZM15.6074 10.4369H26.9481V9.63691H15.6074V10.4369ZM16.0082 18.6007L16.0074 10.0369L15.2074 10.0369L15.2082 18.6007L16.0082 18.6007ZM55.5698 18.2007H15.6082V19.0007H55.5698V18.2007ZM55.1698 10.0369V18.6007H55.9698V10.0369H55.1698ZM44.2291 10.4369H55.5698V9.63691H44.2291V10.4369ZM42.3252 8.90753C42.5228 9.8004 43.3139 10.4369 44.2291 10.4369V9.63691C43.6898 9.63691 43.2229 9.26176 43.1063 8.73471L42.3252 8.90753ZM35.5886 3.49994C38.7979 3.49994 41.6331 5.77563 42.3252 8.90744L43.1064 8.73481C42.3332 5.23617 39.1728 2.69994 35.5886 2.69994V3.49994ZM28.852 8.90745C29.5443 5.77562 32.3794 3.49994 35.5886 3.49994V2.69994C32.0044 2.69994 28.8442 5.23618 28.0709 8.73479L28.852 8.90745ZM26.9481 10.4369C27.8633 10.4369 28.6545 9.80039 28.852 8.90754L28.0709 8.73471C27.9543 9.26176 27.4875 9.63691 26.9481 9.63691V10.4369ZM66.526 12H63.3188V12.8H66.526V12ZM71.576 17.05C71.576 14.2646 69.3114 12 66.526 12V12.8C68.8695 12.8 70.776 14.7064 70.776 17.05H71.576ZM71.576 88.35V17.05H70.776V88.35H71.576ZM66.526 93.4C69.3114 93.4 71.576 91.1354 71.576 88.35H70.776C70.776 90.6936 68.8695 92.6 66.526 92.6V93.4ZM4.65 93.4H66.526V92.6H4.65V93.4ZM-0.4 88.35C-0.4 91.1354 1.86459 93.4 4.65 93.4V92.6C2.30642 92.6 0.4 90.6936 0.4 88.35H-0.4ZM-0.4 17.05V88.35H0.4V17.05H-0.4ZM4.65 12C1.86459 12 -0.4 14.2646 -0.4 17.05H0.4C0.4 14.7064 2.30642 12.8 4.65 12.8V12ZM7.85717 12H4.65V12.8H7.85717V12ZM9.80716 13.95C9.80716 12.8732 8.93403 12 7.85717 12V12.8C8.49221 12.8 9.00716 13.315 9.00716 13.95H9.80716ZM7.85717 15.9C8.93403 15.9 9.80716 15.0269 9.80716 13.95H9.00716C9.00716 14.5851 8.49221 15.1 7.85717 15.1V15.9ZM4.65 15.9H7.85717V15.1H4.65V15.9ZM3.5 17.05C3.5 16.4164 4.01634 15.9 4.65 15.9V15.1C3.57451 15.1 2.7 15.9745 2.7 17.05H3.5ZM3.5 88.35V17.05H2.7V88.35H3.5ZM4.65 89.5C4.01634 89.5 3.5 88.9836 3.5 88.35H2.7C2.7 89.4255 3.57451 90.3 4.65 90.3V89.5ZM66.526 89.5H4.65V90.3H66.526V89.5ZM67.676 88.35C67.676 88.9836 67.1596 89.5 66.526 89.5V90.3C67.6014 90.3 68.476 89.4255 68.476 88.35H67.676ZM67.676 17.05V88.35H68.476V17.05H67.676ZM66.526 15.9C67.1596 15.9 67.676 16.4164 67.676 17.05H68.476C68.476 15.9745 67.6014 15.1 66.526 15.1V15.9ZM63.3188 15.9H66.526V15.1H63.3188V15.9ZM61.3688 13.95C61.3688 15.0269 62.2419 15.9 63.3188 15.9V15.1C62.6837 15.1 62.1688 14.5851 62.1688 13.95H61.3688ZM63.3188 12C62.2419 12 61.3688 12.8732 61.3688 13.95H62.1688C62.1688 13.315 62.6837 12.8 63.3188 12.8V12ZM51.3833 50.8821C51.3109 50.2503 51.7645 49.6799 52.3947 49.6076L52.3035 48.8128C51.2342 48.9355 50.4658 49.9027 50.5885 50.9732L51.3833 50.8821ZM51.4863 52.6991C51.4863 52.089 51.4515 51.4773 51.3833 50.8821L50.5885 50.9731C50.6532 51.5377 50.6863 52.119 50.6863 52.6991H51.4863ZM35.5863 68.599C44.3543 68.599 51.4863 61.4671 51.4863 52.6991H50.6863C50.6863 61.0253 43.9125 67.799 35.5863 67.799V68.599ZM19.6863 52.6991C19.6863 61.4671 26.8182 68.599 35.5863 68.599V67.799C27.2601 67.799 20.4863 61.0253 20.4863 52.6991H19.6863ZM35.5863 36.7991C26.8182 36.7991 19.6863 43.931 19.6863 52.6991H20.4863C20.4863 44.3728 27.2601 37.5991 35.5863 37.5991V36.7991ZM45.5786 40.3299C42.7234 38.0205 39.2669 36.7991 35.5863 36.7991V37.5991C39.0842 37.5991 42.363 38.758 45.0754 40.9519L45.5786 40.3299ZM47.1957 40.159C46.796 40.6533 46.071 40.7296 45.579 40.3303L45.075 40.9515C45.9116 41.6304 47.1407 41.4991 47.8178 40.6621L47.1957 40.159ZM47.0248 38.5418C47.519 38.9415 47.5955 39.6658 47.196 40.1586L47.8175 40.6624C48.4961 39.8252 48.365 38.5969 47.5279 37.9198L47.0248 38.5418ZM35.5863 34.4984C39.7394 34.4984 43.8023 35.9347 47.0247 38.5417L47.5279 37.9198C44.1628 35.1973 39.9222 33.6984 35.5863 33.6984V34.4984ZM17.3863 52.6984C17.3863 42.6636 25.5516 34.4984 35.5863 34.4984V33.6984C25.1097 33.6984 16.5863 42.2218 16.5863 52.6984H17.3863ZM35.5863 70.8984C25.5516 70.8984 17.3863 62.7331 17.3863 52.6984H16.5863C16.5863 63.175 25.1097 71.6984 35.5863 71.6984V70.8984ZM53.7863 52.6984C53.7863 62.7331 45.6211 70.8984 35.5863 70.8984V71.6984C46.0629 71.6984 54.5863 63.175 54.5863 52.6984H53.7863ZM53.6685 50.618C53.7463 51.3004 53.7863 52.0007 53.7863 52.6984H54.5863C54.5863 51.9706 54.5446 51.2399 54.4633 50.5273L53.6685 50.618ZM52.3909 49.6072C53.0376 49.5383 53.5963 49.9891 53.6685 50.6183L54.4633 50.527C54.3404 49.4568 53.385 48.6967 52.306 48.8118L52.3909 49.6072ZM52.6368 48.9323L52.6362 48.9316L52.0607 49.4874L52.0614 49.4881L52.6368 48.9323ZM51.6341 40.1163L36.5217 55.2287L37.0874 55.7944L52.1998 40.682L51.6341 40.1163ZM51.9186 39.9992H51.917V40.7992H51.9186V39.9992ZM54.3929 40.1163C53.6313 39.3547 52.3967 39.3545 51.6356 40.1165L52.2016 40.6819C52.65 40.2329 53.3778 40.2327 53.8272 40.682L54.3929 40.1163ZM54.3929 42.8734C55.1544 42.1119 55.1547 40.8773 54.3927 40.1162L53.8273 40.6822C54.2763 41.1306 54.2765 41.8584 53.8272 42.3078L54.3929 42.8734ZM38.1843 59.082L54.3929 42.8734L53.8272 42.3078L37.6186 58.5163L38.1843 59.082ZM36.8054 59.6531C37.3039 59.6531 37.8032 59.4623 38.184 59.0823L37.6189 58.516C37.3936 58.7408 37.0999 58.8531 36.8054 58.8531V59.6531ZM35.4265 59.082C35.8069 59.4624 36.3072 59.6531 36.8054 59.6531V58.8531C36.5106 58.8531 36.2165 58.7407 35.9921 58.5163L35.4265 59.082ZM27.8529 51.5092L35.4265 59.082L35.9921 58.5163L28.4186 50.9435L27.8529 51.5092ZM27.8529 48.752C27.0913 49.5136 27.0911 50.7482 27.8531 51.5093L28.4184 50.9433C27.9695 50.4949 27.9692 49.7671 28.4186 49.3177L27.8529 48.752ZM30.61 48.752C29.8484 47.9904 28.6138 47.9902 27.8527 48.7522L28.4188 49.3176C28.8672 48.8686 29.595 48.8684 30.0443 49.3177L30.61 48.752ZM37.0874 55.2287L30.61 48.752L30.0444 49.3177L36.5218 55.7944L37.0874 55.2287Z" fill="white" mask="url(#path-2-inside-1_359_12123)"/>
</svg>
