<svg width="98" height="93" viewBox="0 0 98 93" fill="none" xmlns="http://www.w3.org/2000/svg">
<circle cx="65.835" cy="57.0562" r="13.8457" fill="#A4B8C1"/>
<mask id="path-2-inside-1_359_12127" fill="white">
<path fill-rule="evenodd" clip-rule="evenodd" d="M64.0007 93H1.48468C0.663945 93 0 92.3351 0 91.5151V15.3162C0 14.4962 0.664119 13.8313 1.48485 13.8313L5.53404 13.8299V9.20995C5.53404 8.38994 6.19816 7.7251 7.0189 7.7251H53.1421C53.1603 7.7251 53.1775 7.73007 53.1947 7.73503C53.2096 7.73935 53.2245 7.74366 53.24 7.74467C53.3705 7.75337 53.4952 7.77802 53.6185 7.82008C53.631 7.82433 53.6435 7.82832 53.6559 7.83229L53.6559 7.8323C53.6899 7.84322 53.7234 7.85396 53.757 7.86938C53.915 7.94115 54.0658 8.03251 54.1934 8.16011L65.1188 19.0862L70.5804 24.5471L70.5809 24.5477L70.5812 24.5482L70.5819 24.5493L70.5848 24.5522C70.7131 24.6805 70.8045 24.8321 70.877 24.9908C70.888 25.0157 70.8961 25.0405 70.9043 25.0655C70.9086 25.0785 70.9129 25.0916 70.9176 25.1047C70.9676 25.2439 70.9959 25.386 71.0031 25.5339C71.0035 25.5444 71.0064 25.5546 71.0093 25.5648C71.0124 25.5757 71.0155 25.5865 71.0155 25.5977V39.6973C73.8547 40.5498 76.4561 42.095 78.6108 44.2497C82.0416 47.6791 83.9296 52.2395 83.9296 57.0899C83.9296 61.4415 82.3998 65.5525 79.61 68.8303L80.9186 70.139L83.2662 67.7914C83.8229 67.2346 84.809 67.2346 85.3658 67.7914L96.1584 78.5835C97.346 79.7712 98 81.3509 98 83.0308C98 84.7107 97.3446 86.2898 96.157 87.4774C94.9708 88.665 93.3918 89.3197 91.7111 89.3197C90.0305 89.3197 88.4514 88.6657 87.2638 87.4774L76.4725 76.686C75.8924 76.1061 75.8924 75.1665 76.4725 74.5865L78.8195 72.2395L77.5108 70.9308C75.5909 72.5643 73.3905 73.7708 71.016 74.4835V85.4103C71.016 86.2303 70.3519 86.8952 69.5312 86.8952H65.4855V91.5151C65.4855 92.3351 64.8214 93 64.0007 93ZM94.0582 80.6827L84.3153 70.9406L79.6215 75.6359L89.3629 85.3773C90.6187 86.6309 92.8039 86.6323 94.0567 85.3773C94.6846 84.7502 95.0297 83.9165 95.0297 83.0297C95.0297 82.143 94.6846 81.3099 94.0582 80.6827ZM80.9599 57.0901C80.9599 53.0329 79.3808 49.2185 76.5111 46.3496C73.6414 43.4806 69.8278 41.9001 65.7706 41.9001C61.7134 41.9001 57.8983 43.4807 55.0301 46.3496C52.1604 49.2185 50.5813 53.0329 50.5813 57.0901C50.5813 61.1473 52.1605 64.9624 55.0301 67.8313C57.8983 70.7003 61.7134 72.2802 65.7706 72.2802C69.8278 72.2802 73.6414 70.7003 76.5111 67.8313C79.3808 64.9624 80.9599 61.1473 80.9599 57.0901ZM62.5897 20.7584L54.6281 12.7975V24.1195H65.9501L62.5897 20.7584ZM8.50302 10.6963V15.3162L8.50283 83.9252H68.0454V75.093C67.295 75.1865 66.538 75.2503 65.7702 75.2503C60.9198 75.2503 56.3594 73.3616 52.93 69.9315C49.4992 66.5014 47.6112 61.941 47.6112 57.0905C47.6112 52.2401 49.4992 47.6797 52.93 44.2503C56.3594 40.8203 60.9198 38.9308 65.7702 38.9308C66.5381 38.9308 67.295 38.9946 68.0454 39.0881V27.0883H53.1432C52.3225 27.0883 51.6584 26.4235 51.6584 25.6034V10.6963H8.50302ZM5.53331 16.8011H2.96823V90.0304H62.5145V86.8954H7.01817C6.19743 86.8954 5.53331 86.2305 5.53331 85.4105V16.8011ZM36.8641 18.8928H12.7853C11.9646 18.8928 11.3005 18.228 11.3005 17.408C11.3005 16.588 11.9646 15.9231 12.7853 15.9231H36.8641C37.6848 15.9231 38.3489 16.588 38.3489 17.408C38.3489 18.228 37.6848 18.8928 36.8641 18.8928ZM12.7853 25.79H36.8641C37.6848 25.79 38.3489 25.1252 38.3489 24.3051C38.3489 23.4851 37.6848 22.8203 36.8641 22.8203H12.7853C11.9646 22.8203 11.3005 23.4851 11.3005 24.3051C11.3005 25.1252 11.9646 25.79 12.7853 25.79ZM48.3958 42.9159H12.7853C11.9646 42.9159 11.3005 42.2511 11.3005 41.4311C11.3005 40.6111 11.9646 39.9462 12.7853 39.9462H48.3958C49.2166 39.9462 49.8807 40.6111 49.8807 41.4311C49.8807 42.2511 49.2166 42.9159 48.3958 42.9159ZM12.7853 51.2255H43.648C44.4687 51.2255 45.1329 50.5607 45.1329 49.7407C45.1329 48.9207 44.4687 48.2558 43.648 48.2558H12.7853C11.9646 48.2558 11.3005 48.9207 11.3005 49.7407C11.3005 50.5607 11.9646 51.2255 12.7853 51.2255ZM43.648 59.5351H12.7853C11.9646 59.5351 11.3005 58.8703 11.3005 58.0503C11.3005 57.2303 11.9646 56.5654 12.7853 56.5654H43.648C44.4687 56.5654 45.1329 57.2303 45.1329 58.0503C45.1329 58.8703 44.4687 59.5351 43.648 59.5351ZM12.7853 67.8429H43.648C44.4687 67.8429 45.1329 67.1781 45.1329 66.3581C45.1329 65.5381 44.4687 64.8732 43.648 64.8732H12.7853C11.9646 64.8732 11.3005 65.5381 11.3005 66.3581C11.3005 67.1781 11.9646 67.8429 12.7853 67.8429ZM12.7853 73.1828H48.3958C49.2166 73.1828 49.8807 73.8477 49.8807 74.6677C49.8807 75.4877 49.2166 76.1525 48.3958 76.1525H12.7853C11.9646 76.1525 11.3005 75.4877 11.3005 74.6677C11.3005 73.8477 11.9646 73.1828 12.7853 73.1828Z"/>
</mask>
<path fill-rule="evenodd" clip-rule="evenodd" d="M64.0007 93H1.48468C0.663945 93 0 92.3351 0 91.5151V15.3162C0 14.4962 0.664119 13.8313 1.48485 13.8313L5.53404 13.8299V9.20995C5.53404 8.38994 6.19816 7.7251 7.0189 7.7251H53.1421C53.1603 7.7251 53.1775 7.73007 53.1947 7.73503C53.2096 7.73935 53.2245 7.74366 53.24 7.74467C53.3705 7.75337 53.4952 7.77802 53.6185 7.82008C53.631 7.82433 53.6435 7.82832 53.6559 7.83229L53.6559 7.8323C53.6899 7.84322 53.7234 7.85396 53.757 7.86938C53.915 7.94115 54.0658 8.03251 54.1934 8.16011L65.1188 19.0862L70.5804 24.5471L70.5809 24.5477L70.5812 24.5482L70.5819 24.5493L70.5848 24.5522C70.7131 24.6805 70.8045 24.8321 70.877 24.9908C70.888 25.0157 70.8961 25.0405 70.9043 25.0655C70.9086 25.0785 70.9129 25.0916 70.9176 25.1047C70.9676 25.2439 70.9959 25.386 71.0031 25.5339C71.0035 25.5444 71.0064 25.5546 71.0093 25.5648C71.0124 25.5757 71.0155 25.5865 71.0155 25.5977V39.6973C73.8547 40.5498 76.4561 42.095 78.6108 44.2497C82.0416 47.6791 83.9296 52.2395 83.9296 57.0899C83.9296 61.4415 82.3998 65.5525 79.61 68.8303L80.9186 70.139L83.2662 67.7914C83.8229 67.2346 84.809 67.2346 85.3658 67.7914L96.1584 78.5835C97.346 79.7712 98 81.3509 98 83.0308C98 84.7107 97.3446 86.2898 96.157 87.4774C94.9708 88.665 93.3918 89.3197 91.7111 89.3197C90.0305 89.3197 88.4514 88.6657 87.2638 87.4774L76.4725 76.686C75.8924 76.1061 75.8924 75.1665 76.4725 74.5865L78.8195 72.2395L77.5108 70.9308C75.5909 72.5643 73.3905 73.7708 71.016 74.4835V85.4103C71.016 86.2303 70.3519 86.8952 69.5312 86.8952H65.4855V91.5151C65.4855 92.3351 64.8214 93 64.0007 93ZM94.0582 80.6827L84.3153 70.9406L79.6215 75.6359L89.3629 85.3773C90.6187 86.6309 92.8039 86.6323 94.0567 85.3773C94.6846 84.7502 95.0297 83.9165 95.0297 83.0297C95.0297 82.143 94.6846 81.3099 94.0582 80.6827ZM80.9599 57.0901C80.9599 53.0329 79.3808 49.2185 76.5111 46.3496C73.6414 43.4806 69.8278 41.9001 65.7706 41.9001C61.7134 41.9001 57.8983 43.4807 55.0301 46.3496C52.1604 49.2185 50.5813 53.0329 50.5813 57.0901C50.5813 61.1473 52.1605 64.9624 55.0301 67.8313C57.8983 70.7003 61.7134 72.2802 65.7706 72.2802C69.8278 72.2802 73.6414 70.7003 76.5111 67.8313C79.3808 64.9624 80.9599 61.1473 80.9599 57.0901ZM62.5897 20.7584L54.6281 12.7975V24.1195H65.9501L62.5897 20.7584ZM8.50302 10.6963V15.3162L8.50283 83.9252H68.0454V75.093C67.295 75.1865 66.538 75.2503 65.7702 75.2503C60.9198 75.2503 56.3594 73.3616 52.93 69.9315C49.4992 66.5014 47.6112 61.941 47.6112 57.0905C47.6112 52.2401 49.4992 47.6797 52.93 44.2503C56.3594 40.8203 60.9198 38.9308 65.7702 38.9308C66.5381 38.9308 67.295 38.9946 68.0454 39.0881V27.0883H53.1432C52.3225 27.0883 51.6584 26.4235 51.6584 25.6034V10.6963H8.50302ZM5.53331 16.8011H2.96823V90.0304H62.5145V86.8954H7.01817C6.19743 86.8954 5.53331 86.2305 5.53331 85.4105V16.8011ZM36.8641 18.8928H12.7853C11.9646 18.8928 11.3005 18.228 11.3005 17.408C11.3005 16.588 11.9646 15.9231 12.7853 15.9231H36.8641C37.6848 15.9231 38.3489 16.588 38.3489 17.408C38.3489 18.228 37.6848 18.8928 36.8641 18.8928ZM12.7853 25.79H36.8641C37.6848 25.79 38.3489 25.1252 38.3489 24.3051C38.3489 23.4851 37.6848 22.8203 36.8641 22.8203H12.7853C11.9646 22.8203 11.3005 23.4851 11.3005 24.3051C11.3005 25.1252 11.9646 25.79 12.7853 25.79ZM48.3958 42.9159H12.7853C11.9646 42.9159 11.3005 42.2511 11.3005 41.4311C11.3005 40.6111 11.9646 39.9462 12.7853 39.9462H48.3958C49.2166 39.9462 49.8807 40.6111 49.8807 41.4311C49.8807 42.2511 49.2166 42.9159 48.3958 42.9159ZM12.7853 51.2255H43.648C44.4687 51.2255 45.1329 50.5607 45.1329 49.7407C45.1329 48.9207 44.4687 48.2558 43.648 48.2558H12.7853C11.9646 48.2558 11.3005 48.9207 11.3005 49.7407C11.3005 50.5607 11.9646 51.2255 12.7853 51.2255ZM43.648 59.5351H12.7853C11.9646 59.5351 11.3005 58.8703 11.3005 58.0503C11.3005 57.2303 11.9646 56.5654 12.7853 56.5654H43.648C44.4687 56.5654 45.1329 57.2303 45.1329 58.0503C45.1329 58.8703 44.4687 59.5351 43.648 59.5351ZM12.7853 67.8429H43.648C44.4687 67.8429 45.1329 67.1781 45.1329 66.3581C45.1329 65.5381 44.4687 64.8732 43.648 64.8732H12.7853C11.9646 64.8732 11.3005 65.5381 11.3005 66.3581C11.3005 67.1781 11.9646 67.8429 12.7853 67.8429ZM12.7853 73.1828H48.3958C49.2166 73.1828 49.8807 73.8477 49.8807 74.6677C49.8807 75.4877 49.2166 76.1525 48.3958 76.1525H12.7853C11.9646 76.1525 11.3005 75.4877 11.3005 74.6677C11.3005 73.8477 11.9646 73.1828 12.7853 73.1828Z" fill="#1B1B1B"/>
<path d="M1.48485 13.8313V14.2313H1.485L1.48485 13.8313ZM5.53404 13.8299L5.53419 14.2299L5.93404 14.2297V13.8299H5.53404ZM53.1947 7.73503L53.0834 8.11926L53.0835 8.11927L53.1947 7.73503ZM53.24 7.74467L53.2666 7.34556L53.266 7.34552L53.24 7.74467ZM53.6185 7.82008L53.4893 8.19865L53.4902 8.19897L53.6185 7.82008ZM53.6559 7.83229L53.7944 7.45704L53.7862 7.45403L53.778 7.45138L53.6559 7.83229ZM53.6559 7.8323L53.5174 8.20755L53.5255 8.21055L53.5338 8.2132L53.6559 7.8323ZM53.757 7.86938L53.5897 8.23274L53.5916 8.23359L53.757 7.86938ZM54.1934 8.16011L54.4763 7.87728L54.4763 7.87727L54.1934 8.16011ZM65.1188 19.0862L64.8359 19.369L64.836 19.3691L65.1188 19.0862ZM70.5804 24.5471L70.8932 24.2978L70.8792 24.2802L70.8633 24.2643L70.5804 24.5471ZM70.5809 24.5477L70.9346 24.3609L70.9171 24.3277L70.8937 24.2983L70.5809 24.5477ZM70.5812 24.5482L70.2275 24.7351L70.2366 24.7523L70.2473 24.7685L70.5812 24.5482ZM70.5819 24.5493L70.248 24.7696L70.2703 24.8034L70.299 24.8321L70.5819 24.5493ZM70.5848 24.5522L70.8676 24.2694V24.2694L70.5848 24.5522ZM70.877 24.9908L71.2428 24.8291L71.2408 24.8247L70.877 24.9908ZM70.9043 25.0655L70.5243 25.1903L70.5243 25.1904L70.9043 25.0655ZM70.9176 25.1047L70.541 25.2396L70.5411 25.24L70.9176 25.1047ZM71.0031 25.5339L71.403 25.5206L71.4026 25.5143L71.0031 25.5339ZM71.0093 25.5648L70.6246 25.6743L70.6246 25.6745L71.0093 25.5648ZM71.0155 39.6973H70.6155V39.9948L70.9004 40.0804L71.0155 39.6973ZM78.6108 44.2497L78.328 44.5325L78.3281 44.5326L78.6108 44.2497ZM79.61 68.8303L79.3054 68.571L79.0661 68.8521L79.3271 69.1131L79.61 68.8303ZM80.9186 70.139L80.6358 70.4218L80.9186 70.7046L81.2015 70.4218L80.9186 70.139ZM83.2662 67.7914L83.549 68.0742L83.5491 68.0742L83.2662 67.7914ZM85.3658 67.7914L85.0829 68.0742L85.0829 68.0742L85.3658 67.7914ZM96.1584 78.5835L96.4413 78.3007L96.4413 78.3006L96.1584 78.5835ZM96.157 87.4774L95.8741 87.1945L95.874 87.1947L96.157 87.4774ZM87.2638 87.4774L87.5468 87.1946L87.5467 87.1945L87.2638 87.4774ZM76.4725 76.686L76.7553 76.4032L76.7553 76.4032L76.4725 76.686ZM76.4725 74.5865L76.7553 74.8693L76.4725 74.5865ZM78.8195 72.2395L79.1023 72.5223L79.3851 72.2395L79.1023 71.9566L78.8195 72.2395ZM77.5108 70.9308L77.7936 70.6479L77.5327 70.387L77.2516 70.6261L77.5108 70.9308ZM71.016 74.4835L70.9011 74.1004L70.616 74.1859V74.4835H71.016ZM65.4855 86.8952V86.4952H65.0855V86.8952H65.4855ZM84.3153 70.9406L84.5981 70.6578L84.3153 70.3749L84.0324 70.6578L84.3153 70.9406ZM94.0582 80.6827L94.3412 80.4001L94.341 80.3999L94.0582 80.6827ZM79.6215 75.6359L79.3387 75.3531L79.0559 75.636L79.3387 75.9188L79.6215 75.6359ZM89.3629 85.3773L89.0801 85.6601L89.0803 85.6604L89.3629 85.3773ZM94.0567 85.3773L93.7741 85.0943L93.7736 85.0947L94.0567 85.3773ZM76.5111 46.3496L76.2283 46.6325V46.6325L76.5111 46.3496ZM55.0301 46.3496L55.3129 46.6325L55.313 46.6324L55.0301 46.3496ZM55.0301 67.8313L55.313 67.5485L55.3129 67.5485L55.0301 67.8313ZM76.5111 67.8313L76.2283 67.5485V67.5485L76.5111 67.8313ZM54.6281 12.7975L54.9109 12.5147L54.2281 11.8319V12.7975H54.6281ZM62.5897 20.7584L62.8726 20.4756L62.8725 20.4755L62.5897 20.7584ZM54.6281 24.1195H54.2281V24.5195H54.6281V24.1195ZM65.9501 24.1195V24.5195H66.9156L66.233 23.8367L65.9501 24.1195ZM8.50302 15.3162L8.90302 15.3162V15.3162H8.50302ZM8.50302 10.6963V10.2963H8.10302V10.6963H8.50302ZM8.50283 83.9252H8.10283L8.10283 84.3252H8.50283V83.9252ZM68.0454 83.9252V84.3252H68.4454V83.9252H68.0454ZM68.0454 75.093H68.4454V74.64L67.9959 74.696L68.0454 75.093ZM52.93 69.9315L53.2129 69.6487L53.2128 69.6487L52.93 69.9315ZM52.93 44.2503L53.2128 44.5332L53.2129 44.5331L52.93 44.2503ZM68.0454 39.0881L67.9959 39.4851L68.4454 39.5411V39.0881H68.0454ZM68.0454 27.0883H68.4454V26.6883H68.0454V27.0883ZM51.6584 10.6963H52.0584V10.2963H51.6584V10.6963ZM2.96823 16.8011V16.4011H2.56823V16.8011H2.96823ZM5.53331 16.8011H5.93331V16.4011H5.53331V16.8011ZM2.96823 90.0304H2.56823V90.4304H2.96823V90.0304ZM62.5145 90.0304V90.4304H62.9145V90.0304H62.5145ZM62.5145 86.8954H62.9145V86.4954H62.5145V86.8954ZM1.48468 93.4H64.0007V92.6H1.48468V93.4ZM-0.4 91.5151C-0.4 92.5558 0.442837 93.4 1.48468 93.4V92.6C0.885052 92.6 0.4 92.1144 0.4 91.5151H-0.4ZM-0.4 15.3162V91.5151H0.4V15.3162H-0.4ZM1.48485 13.4313C0.443078 13.4313 -0.4 14.2754 -0.4 15.3162H0.4C0.4 14.717 0.88516 14.2313 1.48485 14.2313V13.4313ZM5.5339 13.4299L1.48471 13.4313L1.485 14.2313L5.53419 14.2299L5.5339 13.4299ZM5.13404 9.20995V13.8299H5.93404V9.20995H5.13404ZM7.0189 7.3251C5.97712 7.3251 5.13404 8.16915 5.13404 9.20995H5.93404C5.93404 8.61073 6.4192 8.1251 7.0189 8.1251V7.3251ZM53.1421 7.3251H7.0189V8.1251H53.1421V7.3251ZM53.3059 7.3508C53.2975 7.34838 53.2263 7.3251 53.1421 7.3251V8.1251C53.115 8.1251 53.0946 8.12138 53.0852 8.11936C53.0804 8.11835 53.0775 8.11755 53.0774 8.11753C53.0773 8.11751 53.0777 8.1176 53.0787 8.1179C53.0799 8.11823 53.0812 8.1186 53.0834 8.11926L53.3059 7.3508ZM53.266 7.34552C53.2864 7.34685 53.3013 7.35 53.3074 7.35141C53.3105 7.35214 53.3123 7.35264 53.3119 7.35252C53.3112 7.35233 53.31 7.352 53.3058 7.3508L53.0835 8.11927C53.0913 8.12152 53.1478 8.13951 53.214 8.14383L53.266 7.34552ZM53.7476 7.4415C53.5905 7.38791 53.4313 7.35654 53.2666 7.34556L53.2134 8.14379C53.3097 8.15021 53.3999 8.16814 53.4893 8.19865L53.7476 7.4415ZM53.778 7.45138C53.7651 7.44727 53.7557 7.44424 53.7467 7.44119L53.4902 8.19897C53.5063 8.20441 53.5218 8.20937 53.5337 8.21319L53.778 7.45138ZM53.7944 7.45705L53.7944 7.45704L53.5173 8.20754L53.5174 8.20755L53.7944 7.45705ZM53.9242 7.50602C53.8652 7.47888 53.8089 7.4613 53.778 7.45139L53.5338 8.2132C53.571 8.22514 53.5817 8.22904 53.5897 8.23274L53.9242 7.50602ZM54.4763 7.87727C54.3045 7.70548 54.1086 7.58977 53.9223 7.50517L53.5916 8.23359C53.7214 8.29253 53.8272 8.35954 53.9106 8.44296L54.4763 7.87727ZM65.4016 18.8034L54.4763 7.87728L53.9106 8.44295L64.8359 19.369L65.4016 18.8034ZM70.8633 24.2643L65.4016 18.8034L64.836 19.3691L70.2976 24.83L70.8633 24.2643ZM70.8937 24.2983L70.8932 24.2978L70.2677 24.7965L70.2682 24.7971L70.8937 24.2983ZM70.9349 24.3614L70.9346 24.3609L70.2272 24.7346L70.2275 24.7351L70.9349 24.3614ZM70.9158 24.3291L70.9151 24.328L70.2473 24.7685L70.248 24.7696L70.9158 24.3291ZM70.8676 24.2694L70.8647 24.2665L70.299 24.8321L70.3019 24.835L70.8676 24.2694ZM71.2408 24.8247C71.156 24.6389 71.0405 24.4422 70.8676 24.2694L70.3019 24.835C70.3858 24.9189 70.453 25.0253 70.5131 25.157L71.2408 24.8247ZM71.2844 24.9408C71.277 24.9183 71.2631 24.8749 71.2428 24.8291L70.5111 25.1526C70.5116 25.1535 70.5127 25.1563 70.5149 25.1625C70.5174 25.1694 70.5199 25.177 70.5243 25.1903L71.2844 24.9408ZM71.2941 24.9698C71.2915 24.9625 71.2889 24.9545 71.2843 24.9407L70.5243 25.1904C70.5283 25.2025 70.5342 25.2206 70.541 25.2396L71.2941 24.9698ZM71.4026 25.5143C71.3935 25.3271 71.3575 25.146 71.294 24.9694L70.5411 25.24C70.5777 25.3418 70.5983 25.4449 70.6036 25.5535L71.4026 25.5143ZM71.394 25.4553C71.392 25.4481 71.394 25.4547 71.3959 25.4634C71.3981 25.4735 71.402 25.4938 71.4029 25.5206L70.6033 25.5472C70.6056 25.6151 70.6241 25.6727 70.6246 25.6743L71.394 25.4553ZM71.4155 25.5977C71.4155 25.5212 71.3943 25.4565 71.394 25.4552L70.6246 25.6745C70.6268 25.6821 70.6244 25.6743 70.6222 25.664C70.6197 25.652 70.6155 25.6284 70.6155 25.5977H71.4155ZM71.4155 39.6973V25.5977H70.6155V39.6973H71.4155ZM78.8937 43.9668C76.6923 41.7655 74.0333 40.1858 71.1305 39.3142L70.9004 40.0804C73.6761 40.9138 76.2199 42.4244 78.328 44.5325L78.8937 43.9668ZM84.3296 57.0899C84.3296 52.1334 82.3995 47.4713 78.8936 43.9668L78.3281 44.5326C81.6837 47.8869 83.5296 52.3455 83.5296 57.0899H84.3296ZM79.9146 69.0895C82.7657 65.7398 84.3296 61.537 84.3296 57.0899H83.5296C83.5296 61.3459 82.034 65.3652 79.3054 68.571L79.9146 69.0895ZM81.2015 69.8561L79.8928 68.5474L79.3271 69.1131L80.6358 70.4218L81.2015 69.8561ZM82.9834 67.5086L80.6358 69.8561L81.2015 70.4218L83.549 68.0742L82.9834 67.5086ZM85.6486 67.5086C84.9356 66.7955 83.6963 66.7955 82.9833 67.5086L83.5491 68.0742C83.9496 67.6737 84.6823 67.6736 85.0829 68.0742L85.6486 67.5086ZM96.4413 78.3006L85.6486 67.5086L85.0829 68.0742L95.8756 78.8663L96.4413 78.3006ZM98.4 83.0308C98.4 81.2449 97.7039 79.5634 96.4413 78.3007L95.8756 78.8663C96.9881 79.979 97.6 81.4569 97.6 83.0308H98.4ZM96.4398 87.7602C97.7023 86.4978 98.4 84.817 98.4 83.0308H97.6C97.6 84.6044 96.9869 86.0818 95.8741 87.1945L96.4398 87.7602ZM91.7111 89.7197C93.4979 89.7197 95.1787 89.0228 96.44 87.7601L95.874 87.1947C94.7628 88.3072 93.2856 88.9197 91.7111 88.9197V89.7197ZM86.9809 87.7601C88.2436 89.0236 89.9244 89.7197 91.7111 89.7197V88.9197C90.1365 88.9197 88.6593 88.3078 87.5468 87.1946L86.9809 87.7601ZM76.1896 76.9689L86.981 87.7602L87.5467 87.1945L76.7553 76.4032L76.1896 76.9689ZM76.1896 74.3036C75.4534 75.0398 75.4534 76.2327 76.1897 76.9689L76.7553 76.4032C76.3315 75.9795 76.3315 75.2931 76.7553 74.8693L76.1896 74.3036ZM78.5366 71.9566L76.1896 74.3036L76.7553 74.8693L79.1023 72.5223L78.5366 71.9566ZM77.228 71.2136L78.5366 72.5223L79.1023 71.9566L77.7936 70.6479L77.228 71.2136ZM71.131 74.8666C73.5598 74.1376 75.809 72.9039 77.77 71.2354L77.2516 70.6261C75.3728 72.2247 73.2212 73.404 70.9011 74.1004L71.131 74.8666ZM71.416 85.4103V74.4835H70.616V85.4103H71.416ZM69.5312 87.2952C70.573 87.2952 71.416 86.4511 71.416 85.4103H70.616C70.616 86.0096 70.1309 86.4952 69.5312 86.4952V87.2952ZM65.4855 87.2952H69.5312V86.4952H65.4855V87.2952ZM65.8855 91.5151V86.8952H65.0855V91.5151H65.8855ZM64.0007 93.4C65.0424 93.4 65.8855 92.5559 65.8855 91.5151H65.0855C65.0855 92.1143 64.6004 92.6 64.0007 92.6V93.4ZM84.0325 71.2235L93.7753 80.9656L94.341 80.3999L84.5981 70.6578L84.0325 71.2235ZM79.9044 75.9187L84.5982 71.2234L84.0324 70.6578L79.3387 75.3531L79.9044 75.9187ZM89.6458 85.0944L79.9044 75.3531L79.3387 75.9188L89.0801 85.6601L89.6458 85.0944ZM93.7736 85.0947C92.6775 86.1928 90.7456 86.1923 89.6455 85.0942L89.0803 85.6604C90.4919 87.0694 92.9303 87.0718 94.3398 85.6599L93.7736 85.0947ZM94.6297 83.0297C94.6297 83.8105 94.3267 84.5423 93.7741 85.0943L94.3394 85.6603C95.0425 84.9581 95.4297 84.0226 95.4297 83.0297H94.6297ZM93.7752 80.9654C94.3267 81.5176 94.6297 82.249 94.6297 83.0297H95.4297C95.4297 82.0369 95.0425 81.1022 94.3412 80.4001L93.7752 80.9654ZM76.2283 46.6325C79.0229 49.4264 80.5599 53.139 80.5599 57.0901H81.3599C81.3599 52.9269 79.7387 49.0107 76.7939 46.0667L76.2283 46.6325ZM65.7706 42.3001C69.7216 42.3001 73.4336 43.8384 76.2283 46.6325L76.7939 46.0667C73.8493 43.1228 69.9339 41.5001 65.7706 41.5001V42.3001ZM55.313 46.6324C58.1062 43.8385 61.8195 42.3001 65.7706 42.3001V41.5001C61.6073 41.5001 57.6904 43.1229 54.7472 46.0668L55.313 46.6324ZM50.9813 57.0901C50.9813 53.139 52.5183 49.4264 55.3129 46.6325L54.7473 46.0667C51.8025 49.0107 50.1813 52.9269 50.1813 57.0901H50.9813ZM55.3129 67.5485C52.5184 64.7546 50.9813 61.0413 50.9813 57.0901H50.1813C50.1813 61.2533 51.8026 65.1702 54.7473 68.1142L55.3129 67.5485ZM65.7706 71.8801C61.8195 71.8801 58.1061 70.3424 55.313 67.5485L54.7472 68.1142C57.6905 71.0582 61.6074 72.6802 65.7706 72.6802V71.8801ZM76.2283 67.5485C73.4336 70.3424 69.7217 71.8801 65.7706 71.8801V72.6802C69.9339 72.6802 73.8493 71.0581 76.7939 68.1142L76.2283 67.5485ZM80.5599 57.0901C80.5599 61.0413 79.0229 64.7546 76.2283 67.5485L76.7939 68.1142C79.7387 65.1702 81.3599 61.2533 81.3599 57.0901H80.5599ZM54.3453 13.0804L62.3069 21.0412L62.8725 20.4755L54.9109 12.5147L54.3453 13.0804ZM55.0281 24.1195V12.7975H54.2281V24.1195H55.0281ZM65.9501 23.7195H54.6281V24.5195H65.9501V23.7195ZM62.3068 21.0412L65.6672 24.4023L66.233 23.8367L62.8726 20.4756L62.3068 21.0412ZM8.90302 15.3162V10.6963H8.10302V15.3162H8.90302ZM8.90283 83.9252L8.90302 15.3162L8.10302 15.3162L8.10283 83.9252H8.90283ZM68.0454 83.5252H8.50283V84.3252H68.0454V83.5252ZM67.6454 75.093V83.9252H68.4454V75.093H67.6454ZM65.7702 75.6503C66.5599 75.6503 67.3343 75.5847 68.0949 75.4899L67.9959 74.696C67.2557 74.7883 66.5162 74.8503 65.7702 74.8503V75.6503ZM52.6471 70.2144C56.1516 73.7194 60.8137 75.6503 65.7702 75.6503V74.8503C61.0259 74.8503 56.5673 73.0037 53.2129 69.6487L52.6471 70.2144ZM47.2112 57.0905C47.2112 62.047 49.1413 66.7092 52.6472 70.2144L53.2128 69.6487C49.8571 66.2935 48.0112 61.835 48.0112 57.0905H47.2112ZM52.6472 43.9674C49.1413 47.4719 47.2112 52.1341 47.2112 57.0905H48.0112C48.0112 52.3461 49.8571 47.8876 53.2128 44.5332L52.6472 43.9674ZM65.7702 38.5308C60.8137 38.5308 56.1516 40.4624 52.6471 43.9675L53.2129 44.5331C56.5673 41.1781 61.0259 39.3308 65.7702 39.3308V38.5308ZM68.0949 38.6912C67.3343 38.5964 66.5599 38.5308 65.7702 38.5308V39.3308C66.5163 39.3308 67.2557 39.3928 67.9959 39.4851L68.0949 38.6912ZM67.6454 27.0883V39.0881H68.4454V27.0883H67.6454ZM53.1432 27.4883H68.0454V26.6883H53.1432V27.4883ZM51.2584 25.6034C51.2584 26.6442 52.1015 27.4883 53.1432 27.4883V26.6883C52.5436 26.6883 52.0584 26.2027 52.0584 25.6034H51.2584ZM51.2584 10.6963V25.6034H52.0584V10.6963H51.2584ZM8.50302 11.0963H51.6584V10.2963H8.50302V11.0963ZM2.96823 17.2011H5.53331V16.4011H2.96823V17.2011ZM3.36823 90.0304V16.8011H2.56823V90.0304H3.36823ZM62.5145 89.6304H2.96823V90.4304H62.5145V89.6304ZM62.1145 86.8954V90.0304H62.9145V86.8954H62.1145ZM7.01817 87.2954H62.5145V86.4954H7.01817V87.2954ZM5.13331 85.4105C5.13331 86.4513 5.97639 87.2954 7.01817 87.2954V86.4954C6.41847 86.4954 5.93331 86.0097 5.93331 85.4105H5.13331ZM5.13331 16.8011V85.4105H5.93331V16.8011H5.13331ZM12.7853 19.2928H36.8641V18.4928H12.7853V19.2928ZM10.9005 17.408C10.9005 18.4488 11.7436 19.2928 12.7853 19.2928V18.4928C12.1857 18.4928 11.7005 18.0072 11.7005 17.408H10.9005ZM12.7853 15.5231C11.7436 15.5231 10.9005 16.3672 10.9005 17.408H11.7005C11.7005 16.8088 12.1857 16.3231 12.7853 16.3231V15.5231ZM36.8641 15.5231H12.7853V16.3231H36.8641V15.5231ZM38.7489 17.408C38.7489 16.3672 37.9059 15.5231 36.8641 15.5231V16.3231C37.4638 16.3231 37.9489 16.8088 37.9489 17.408H38.7489ZM36.8641 19.2928C37.9059 19.2928 38.7489 18.4488 38.7489 17.408H37.9489C37.9489 18.0072 37.4638 18.4928 36.8641 18.4928V19.2928ZM36.8641 25.39H12.7853V26.19H36.8641V25.39ZM37.9489 24.3051C37.9489 24.9044 37.4638 25.39 36.8641 25.39V26.19C37.9059 26.19 38.7489 25.3459 38.7489 24.3051H37.9489ZM36.8641 23.2203C37.4638 23.2203 37.9489 23.7059 37.9489 24.3051H38.7489C38.7489 23.2643 37.9059 22.4203 36.8641 22.4203V23.2203ZM12.7853 23.2203H36.8641V22.4203H12.7853V23.2203ZM11.7005 24.3051C11.7005 23.7059 12.1857 23.2203 12.7853 23.2203V22.4203C11.7436 22.4203 10.9005 23.2643 10.9005 24.3051H11.7005ZM12.7853 25.39C12.1857 25.39 11.7005 24.9044 11.7005 24.3051H10.9005C10.9005 25.3459 11.7436 26.19 12.7853 26.19V25.39ZM12.7853 43.3159H48.3958V42.5159H12.7853V43.3159ZM10.9005 41.4311C10.9005 42.4719 11.7436 43.3159 12.7853 43.3159V42.5159C12.1857 42.5159 11.7005 42.0303 11.7005 41.4311H10.9005ZM12.7853 39.5462C11.7436 39.5462 10.9005 40.3903 10.9005 41.4311H11.7005C11.7005 40.8318 12.1857 40.3462 12.7853 40.3462V39.5462ZM48.3958 39.5462H12.7853V40.3462H48.3958V39.5462ZM50.2807 41.4311C50.2807 40.3903 49.4376 39.5462 48.3958 39.5462V40.3462C48.9955 40.3462 49.4807 40.8318 49.4807 41.4311H50.2807ZM48.3958 43.3159C49.4376 43.3159 50.2807 42.4719 50.2807 41.4311H49.4807C49.4807 42.0303 48.9955 42.5159 48.3958 42.5159V43.3159ZM43.648 50.8255H12.7853V51.6255H43.648V50.8255ZM44.7329 49.7407C44.7329 50.3399 44.2477 50.8255 43.648 50.8255V51.6255C44.6898 51.6255 45.5329 50.7815 45.5329 49.7407H44.7329ZM43.648 48.6558C44.2477 48.6558 44.7329 49.1414 44.7329 49.7407H45.5329C45.5329 48.6999 44.6898 47.8558 43.648 47.8558V48.6558ZM12.7853 48.6558H43.648V47.8558H12.7853V48.6558ZM11.7005 49.7407C11.7005 49.1414 12.1857 48.6558 12.7853 48.6558V47.8558C11.7436 47.8558 10.9005 48.6999 10.9005 49.7407H11.7005ZM12.7853 50.8255C12.1857 50.8255 11.7005 50.3399 11.7005 49.7407H10.9005C10.9005 50.7815 11.7436 51.6255 12.7853 51.6255V50.8255ZM12.7853 59.9351H43.648V59.1351H12.7853V59.9351ZM10.9005 58.0503C10.9005 59.0911 11.7436 59.9351 12.7853 59.9351V59.1351C12.1857 59.1351 11.7005 58.6495 11.7005 58.0503H10.9005ZM12.7853 56.1654C11.7436 56.1654 10.9005 57.0095 10.9005 58.0503H11.7005C11.7005 57.451 12.1857 56.9654 12.7853 56.9654V56.1654ZM43.648 56.1654H12.7853V56.9654H43.648V56.1654ZM45.5329 58.0503C45.5329 57.0095 44.6898 56.1654 43.648 56.1654V56.9654C44.2477 56.9654 44.7329 57.451 44.7329 58.0503H45.5329ZM43.648 59.9351C44.6898 59.9351 45.5329 59.0911 45.5329 58.0503H44.7329C44.7329 58.6495 44.2477 59.1351 43.648 59.1351V59.9351ZM43.648 67.4429H12.7853V68.2429H43.648V67.4429ZM44.7329 66.3581C44.7329 66.9573 44.2477 67.4429 43.648 67.4429V68.2429C44.6898 68.2429 45.5329 67.3989 45.5329 66.3581H44.7329ZM43.648 65.2732C44.2477 65.2732 44.7329 65.7589 44.7329 66.3581H45.5329C45.5329 65.3173 44.6898 64.4732 43.648 64.4732V65.2732ZM12.7853 65.2732H43.648V64.4732H12.7853V65.2732ZM11.7005 66.3581C11.7005 65.7589 12.1857 65.2732 12.7853 65.2732V64.4732C11.7436 64.4732 10.9005 65.3173 10.9005 66.3581H11.7005ZM12.7853 67.4429C12.1857 67.4429 11.7005 66.9573 11.7005 66.3581H10.9005C10.9005 67.3989 11.7436 68.2429 12.7853 68.2429V67.4429ZM48.3958 72.7828H12.7853V73.5828H48.3958V72.7828ZM50.2807 74.6677C50.2807 73.6269 49.4376 72.7828 48.3958 72.7828V73.5828C48.9955 73.5828 49.4807 74.0685 49.4807 74.6677H50.2807ZM48.3958 76.5525C49.4376 76.5525 50.2807 75.7085 50.2807 74.6677H49.4807C49.4807 75.2669 48.9955 75.7525 48.3958 75.7525V76.5525ZM12.7853 76.5525H48.3958V75.7525H12.7853V76.5525ZM10.9005 74.6677C10.9005 75.7085 11.7436 76.5525 12.7853 76.5525V75.7525C12.1857 75.7525 11.7005 75.2669 11.7005 74.6677H10.9005ZM12.7853 72.7828C11.7436 72.7828 10.9005 73.6269 10.9005 74.6677H11.7005C11.7005 74.0685 12.1857 73.5828 12.7853 73.5828V72.7828Z" fill="white" mask="url(#path-2-inside-1_359_12127)"/>
</svg>
