<svg width="93" height="93" viewBox="0 0 93 93" fill="none" xmlns="http://www.w3.org/2000/svg">
<path d="M30 11.5003L11.4999 29.5002C11.4999 29.5002 9 26.0002 3.5918 20.5002C8.2313 13.0913 14.7585 6.98509 22.4995 2.85559C22.0941 2.85721 30 11.5003 30 11.5003Z" fill="#A4B8C1"/>
<path d="M27.4082 81L8.90815 63C8.90815 63 6.4082 66.5 1 72C5.63951 79.4089 12.1667 85.5152 19.9078 89.6447C19.5023 89.643 27.4082 81 27.4082 81Z" fill="#A4B8C1"/>
<path d="M83.443 29.8487L64.4407 12.3798C64.4407 12.3798 67.796 9.68878 72.9863 3.98267C80.6421 8.20235 87.1023 14.3793 91.6565 21.8784C91.6323 21.4736 83.443 29.8487 83.443 29.8487Z" fill="#A4B8C1"/>
<path d="M81.443 66.0024L62.4407 83.4713C62.4407 83.4713 65.796 86.1623 70.9863 91.8684C78.6421 87.6487 85.1023 81.4717 89.6565 73.9727C89.6323 74.3774 81.443 66.0024 81.443 66.0024Z" fill="#A4B8C1"/>
<mask id="path-5-inside-1_359_12128" fill="white">
<path d="M3.93999 71.3639L9.78479 65.5193C9.92986 65.3742 10.0947 65.3445 10.2076 65.3445C10.3205 65.3445 10.4862 65.375 10.6305 65.5193L11.1811 66.0698L11.1836 66.0723L24.8244 79.7127L24.8269 79.7152L25.0585 79.9468C25.2036 80.0918 25.2332 80.2567 25.2332 80.3696C25.2332 80.4825 25.2027 80.6474 25.0577 80.7924L19.2129 86.637C18.312 87.5379 18.312 88.9992 19.2129 89.9011C19.6637 90.3519 20.2539 90.5769 20.8449 90.5769C21.4359 90.5769 22.0261 90.3519 22.477 89.9011L28.3218 84.0564C29.3068 83.0715 29.8491 81.7626 29.8491 80.3696C29.8491 79.6665 29.7098 78.9849 29.4461 78.3551L32.2147 75.5866C34.7749 75.6632 37.302 75.2874 39.69 74.5011C41.8744 76.6622 43.5566 77.9423 45.4772 78.3964C47.6781 78.9165 49.6521 78.2274 52.387 77.2746C53.5921 76.8542 55.0377 76.3507 56.8199 75.8289L61.3385 80.3473C60.2934 82.3181 60.5983 84.8221 62.2559 86.4795L68.1007 92.3241C68.5516 92.775 69.1418 93 69.7328 93C70.3238 93 70.914 92.775 71.3648 92.3241C72.2657 91.4233 72.2657 89.962 71.3648 89.0601L65.52 83.2155C65.2868 82.9823 65.2868 82.6031 65.52 82.3699L79.7131 68.1773L79.7155 68.1748L79.9472 67.9432C80.0922 67.7981 80.2571 67.7685 80.37 67.7685C80.4829 67.7685 80.6486 67.799 80.7929 67.944L86.6377 73.7886C87.5394 74.6895 88.9999 74.6895 89.9018 73.7886C90.8027 72.8878 90.8027 71.4265 89.9018 70.5246L84.0562 64.68C83.0712 63.695 81.7623 63.1527 80.3692 63.1527C79.6661 63.1527 78.9844 63.292 78.3546 63.5558L75.586 60.7872C75.6626 58.2245 75.2876 55.6976 74.5012 53.3105C76.6616 51.1261 77.9418 49.4449 78.3959 47.5243C78.916 45.3244 78.2269 43.3496 77.2741 40.6148C76.8537 39.4098 76.3501 37.9648 75.8283 36.182L80.3452 31.6653C81.0895 32.0617 81.9253 32.2727 82.7925 32.2727C84.1855 32.2727 85.4945 31.7304 86.4795 30.7454L92.3243 24.9008C93.2252 23.9999 93.2252 22.5386 92.3243 21.6368C91.4226 20.7359 89.962 20.7359 89.0602 21.6368L83.2171 27.4805C83.072 27.6256 82.9071 27.6561 82.7934 27.6561C82.6805 27.6561 82.5156 27.6256 82.3706 27.4805L68.1775 13.288L68.175 13.2863L67.9434 13.0547C67.7983 12.9097 67.7687 12.7448 67.7687 12.6319C67.7687 12.519 67.7992 12.3541 67.9442 12.2091L73.789 6.36446C74.6899 5.46357 74.6899 4.00226 73.789 3.10043C72.8873 2.19955 71.4268 2.19955 70.5249 3.10043L64.6801 8.94503C63.6951 9.93 63.1527 11.2389 63.1527 12.6319C63.1527 13.335 63.292 14.0166 63.5558 14.6463L60.7871 17.4141C58.2244 17.3383 55.6982 17.7141 53.311 18.4996C51.1266 16.3393 49.4453 15.0583 47.5238 14.6042C45.3246 14.085 43.3481 14.7732 40.614 15.726C39.409 16.1464 37.9633 16.65 36.1811 17.1717L31.6625 12.6525C32.7077 10.6817 32.4027 8.1777 30.7451 6.52026L24.9003 0.675661C23.9985 -0.22522 22.538 -0.22522 21.6361 0.675661C20.7352 1.57654 20.7352 3.03785 21.6361 3.93968L27.4809 9.78428C27.7142 10.0175 27.7142 10.3967 27.4809 10.6299L26.9295 11.1814L26.9287 11.1822L13.2879 24.8225L13.2854 24.825L13.0538 25.0566C12.9087 25.2017 12.7438 25.2314 12.6309 25.2314C12.518 25.2314 12.3523 25.2009 12.2081 25.0558L6.36326 19.212C5.46153 18.3112 4.00099 18.3112 3.09913 19.212C2.19822 20.1129 2.19822 21.5742 3.09913 22.4761L8.94478 28.3207C9.92978 29.3056 11.2387 29.848 12.6318 29.848C13.3349 29.848 14.0165 29.7087 14.6463 29.4449L17.4158 32.2143C17.3424 34.7399 17.7134 37.2858 18.5022 39.6868C16.8998 41.3073 15.8966 42.5379 15.2545 43.7643C13.7346 46.6704 14.5704 49.0674 15.7276 52.3857C16.148 53.5907 16.6516 55.0357 17.1734 56.8185L12.6565 61.3352C11.9122 60.9388 11.0764 60.7278 10.2092 60.7278C8.81617 60.7278 7.50718 61.2701 6.52218 62.2551L0.675685 68.0997C-0.225228 69.0006 -0.225228 70.4619 0.675685 71.3637C1.57742 72.2654 3.03812 72.2656 3.93999 71.3639ZM56.8933 71.0119C54.3481 71.701 52.4184 72.3735 50.8679 72.9142C48.545 73.7236 47.3904 74.1036 46.5396 73.9025C45.9585 73.7648 45.2282 73.3049 44.2111 72.4115C45.6791 71.5172 47.0515 70.4448 48.2929 69.2036L62.8601 54.6369C64.0115 53.4854 64.6462 51.954 64.6462 50.3261C64.6462 48.6974 64.0115 47.1667 62.8601 46.0153C62.499 45.6543 62.1034 45.3485 61.6838 45.0971L62.3754 44.4055L65.9419 47.9719C69.5109 51.5408 71.3284 56.4739 70.9262 61.5059C70.8726 62.1802 71.1166 62.8437 71.5947 63.3217L74.8175 66.5444L64.4408 76.9207L59.1275 71.6077C58.5439 71.0225 57.6912 70.7959 56.8933 71.0119ZM61.5066 22.0759C62.1817 22.1303 62.8444 21.8855 63.3225 21.4074L66.5453 18.1839L69.7005 21.3382L76.9228 28.5602L71.6095 33.8733C71.0251 34.4577 70.7976 35.3108 71.0136 36.1087C71.7027 38.6538 72.3753 40.5834 72.916 42.1339C73.7254 44.4558 74.1054 45.6098 73.9043 46.462C73.7666 47.0431 73.3067 47.7725 72.4132 48.7896C71.5189 47.3216 70.4457 45.9501 69.2052 44.7088L64.192 39.6957C64.1087 38.255 63.5194 36.8381 62.4206 35.7394C61.969 35.2877 61.4579 34.9168 60.9073 34.6316C61.9483 32.3773 61.5411 29.6138 59.6857 27.7584C57.8295 25.903 55.065 25.4958 52.8106 26.5377C52.5295 25.9921 52.161 25.4802 51.7044 25.0236C51.5346 24.8538 51.3557 24.6964 51.1703 24.5496C51.9261 24.0872 52.7133 23.6842 53.5269 23.3454C53.5475 23.338 53.5672 23.3298 53.5878 23.3215C56.0624 22.3003 58.7685 21.8566 61.5066 22.0759ZM36.1093 21.9885C38.6545 21.2994 40.5842 20.6269 42.1347 20.0862C44.4575 19.2768 45.6116 18.8968 46.463 19.0979C47.0441 19.2355 47.7736 19.6955 48.7907 20.5889C47.3227 21.4832 45.9511 22.5556 44.7097 23.7968L44.5869 23.9196C44.0387 24.2048 43.531 24.5741 43.0818 25.0233L35.731 32.3738C35.2463 31.59 34.5745 30.8828 33.6382 30.4443C31.0351 29.2245 28.2409 30.9397 27.3218 31.5026C27.194 31.5809 27.0745 31.6716 26.9649 31.773C26.1983 32.4793 25.4771 33.142 24.7986 33.7651C23.8977 34.5927 23.0743 35.3485 22.3218 36.045C22.0407 34.5474 21.955 33.0118 22.0753 31.496C22.1289 30.8218 21.8849 30.1583 21.4068 29.6802L18.184 26.4575L28.5607 16.0812L33.874 21.3943C34.4592 21.977 35.3114 22.2044 36.1093 21.9885ZM21.3929 59.1273C21.9773 58.5429 22.2049 57.6898 21.9889 56.8919C21.2998 54.3468 20.6272 52.4172 20.0865 50.8667C18.9704 47.6662 18.7998 46.9484 19.3455 45.9039C20.2151 44.2406 22.9525 41.7266 27.922 37.162C28.551 36.5842 29.2161 35.9735 29.9209 35.3248C31.0633 34.6522 31.5628 34.6234 31.6799 34.6299C31.7474 34.7008 31.9923 35.0066 32.2173 35.8861L25.7162 42.3869C24.8153 43.2878 24.8153 44.7491 25.7162 45.6509C26.618 46.5518 28.0785 46.5518 28.9804 45.6509L36.3468 38.2848C36.3492 38.2823 36.3517 38.2798 36.355 38.2765L45.6197 29.0122C45.6197 29.0122 46.2869 28.4348 46.37 28.36C46.4531 28.2852 47.1619 27.8715 47.1619 27.8715C47.2377 27.8599 47.3152 27.8517 47.3935 27.8517C47.7892 27.8517 48.1609 28.0058 48.4411 28.2852C49.0181 28.8622 49.0181 29.8002 48.4428 30.3771L37.2098 41.6106C36.3089 42.5115 36.3089 43.9728 37.2098 44.8746C38.1115 45.7755 39.5721 45.7755 40.4739 44.8746L45.7203 39.6284L51.7061 33.6437C51.7077 33.642 51.7085 33.6412 51.7102 33.6396L54.3288 31.0202C54.9066 30.4424 55.8463 30.4432 56.4233 31.0202C57.0011 31.598 57.0011 32.5376 56.4233 33.1146L43.2243 46.3131C42.3234 47.2139 42.3234 48.6752 43.2243 49.5771C43.6752 50.0279 44.2654 50.2529 44.8564 50.2529C45.4465 50.2529 46.0375 50.0279 46.4884 49.5771L57.0653 39.0005C57.3448 38.7211 57.7165 38.5678 58.1113 38.5678C58.507 38.5678 58.8787 38.7219 59.1581 39.0013C59.736 39.5791 59.736 40.5187 59.1581 41.0957L54.243 46.0106L54.2398 46.0139L44.5168 55.7366C43.6159 56.6374 43.6159 58.0988 44.5168 59.0006C45.4185 59.9015 46.879 59.9015 47.7809 59.0006L57.5047 49.2771C58.0825 48.701 59.0214 48.701 59.5984 49.2779C59.8778 49.5573 60.0319 49.9299 60.0319 50.3247C60.0319 50.7203 59.8778 51.0921 59.5975 51.3715L45.0304 65.9381C41.4605 69.5096 36.5247 71.3261 31.4959 70.9248C30.8192 70.8704 30.1581 71.1152 29.68 71.5932L26.4573 74.8168L16.0806 64.4404L21.3929 59.1273Z"/>
</mask>
<path d="M3.93999 71.3639L9.78479 65.5193C9.92986 65.3742 10.0947 65.3445 10.2076 65.3445C10.3205 65.3445 10.4862 65.375 10.6305 65.5193L11.1811 66.0698L11.1836 66.0723L24.8244 79.7127L24.8269 79.7152L25.0585 79.9468C25.2036 80.0918 25.2332 80.2567 25.2332 80.3696C25.2332 80.4825 25.2027 80.6474 25.0577 80.7924L19.2129 86.637C18.312 87.5379 18.312 88.9992 19.2129 89.9011C19.6637 90.3519 20.2539 90.5769 20.8449 90.5769C21.4359 90.5769 22.0261 90.3519 22.477 89.9011L28.3218 84.0564C29.3068 83.0715 29.8491 81.7626 29.8491 80.3696C29.8491 79.6665 29.7098 78.9849 29.4461 78.3551L32.2147 75.5866C34.7749 75.6632 37.302 75.2874 39.69 74.5011C41.8744 76.6622 43.5566 77.9423 45.4772 78.3964C47.6781 78.9165 49.6521 78.2274 52.387 77.2746C53.5921 76.8542 55.0377 76.3507 56.8199 75.8289L61.3385 80.3473C60.2934 82.3181 60.5983 84.8221 62.2559 86.4795L68.1007 92.3241C68.5516 92.775 69.1418 93 69.7328 93C70.3238 93 70.914 92.775 71.3648 92.3241C72.2657 91.4233 72.2657 89.962 71.3648 89.0601L65.52 83.2155C65.2868 82.9823 65.2868 82.6031 65.52 82.3699L79.7131 68.1773L79.7155 68.1748L79.9472 67.9432C80.0922 67.7981 80.2571 67.7685 80.37 67.7685C80.4829 67.7685 80.6486 67.799 80.7929 67.944L86.6377 73.7886C87.5394 74.6895 88.9999 74.6895 89.9018 73.7886C90.8027 72.8878 90.8027 71.4265 89.9018 70.5246L84.0562 64.68C83.0712 63.695 81.7623 63.1527 80.3692 63.1527C79.6661 63.1527 78.9844 63.292 78.3546 63.5558L75.586 60.7872C75.6626 58.2245 75.2876 55.6976 74.5012 53.3105C76.6616 51.1261 77.9418 49.4449 78.3959 47.5243C78.916 45.3244 78.2269 43.3496 77.2741 40.6148C76.8537 39.4098 76.3501 37.9648 75.8283 36.182L80.3452 31.6653C81.0895 32.0617 81.9253 32.2727 82.7925 32.2727C84.1855 32.2727 85.4945 31.7304 86.4795 30.7454L92.3243 24.9008C93.2252 23.9999 93.2252 22.5386 92.3243 21.6368C91.4226 20.7359 89.962 20.7359 89.0602 21.6368L83.2171 27.4805C83.072 27.6256 82.9071 27.6561 82.7934 27.6561C82.6805 27.6561 82.5156 27.6256 82.3706 27.4805L68.1775 13.288L68.175 13.2863L67.9434 13.0547C67.7983 12.9097 67.7687 12.7448 67.7687 12.6319C67.7687 12.519 67.7992 12.3541 67.9442 12.2091L73.789 6.36446C74.6899 5.46357 74.6899 4.00226 73.789 3.10043C72.8873 2.19955 71.4268 2.19955 70.5249 3.10043L64.6801 8.94503C63.6951 9.93 63.1527 11.2389 63.1527 12.6319C63.1527 13.335 63.292 14.0166 63.5558 14.6463L60.7871 17.4141C58.2244 17.3383 55.6982 17.7141 53.311 18.4996C51.1266 16.3393 49.4453 15.0583 47.5238 14.6042C45.3246 14.085 43.3481 14.7732 40.614 15.726C39.409 16.1464 37.9633 16.65 36.1811 17.1717L31.6625 12.6525C32.7077 10.6817 32.4027 8.1777 30.7451 6.52026L24.9003 0.675661C23.9985 -0.22522 22.538 -0.22522 21.6361 0.675661C20.7352 1.57654 20.7352 3.03785 21.6361 3.93968L27.4809 9.78428C27.7142 10.0175 27.7142 10.3967 27.4809 10.6299L26.9295 11.1814L26.9287 11.1822L13.2879 24.8225L13.2854 24.825L13.0538 25.0566C12.9087 25.2017 12.7438 25.2314 12.6309 25.2314C12.518 25.2314 12.3523 25.2009 12.2081 25.0558L6.36326 19.212C5.46153 18.3112 4.00099 18.3112 3.09913 19.212C2.19822 20.1129 2.19822 21.5742 3.09913 22.4761L8.94478 28.3207C9.92978 29.3056 11.2387 29.848 12.6318 29.848C13.3349 29.848 14.0165 29.7087 14.6463 29.4449L17.4158 32.2143C17.3424 34.7399 17.7134 37.2858 18.5022 39.6868C16.8998 41.3073 15.8966 42.5379 15.2545 43.7643C13.7346 46.6704 14.5704 49.0674 15.7276 52.3857C16.148 53.5907 16.6516 55.0357 17.1734 56.8185L12.6565 61.3352C11.9122 60.9388 11.0764 60.7278 10.2092 60.7278C8.81617 60.7278 7.50718 61.2701 6.52218 62.2551L0.675685 68.0997C-0.225228 69.0006 -0.225228 70.4619 0.675685 71.3637C1.57742 72.2654 3.03812 72.2656 3.93999 71.3639ZM56.8933 71.0119C54.3481 71.701 52.4184 72.3735 50.8679 72.9142C48.545 73.7236 47.3904 74.1036 46.5396 73.9025C45.9585 73.7648 45.2282 73.3049 44.2111 72.4115C45.6791 71.5172 47.0515 70.4448 48.2929 69.2036L62.8601 54.6369C64.0115 53.4854 64.6462 51.954 64.6462 50.3261C64.6462 48.6974 64.0115 47.1667 62.8601 46.0153C62.499 45.6543 62.1034 45.3485 61.6838 45.0971L62.3754 44.4055L65.9419 47.9719C69.5109 51.5408 71.3284 56.4739 70.9262 61.5059C70.8726 62.1802 71.1166 62.8437 71.5947 63.3217L74.8175 66.5444L64.4408 76.9207L59.1275 71.6077C58.5439 71.0225 57.6912 70.7959 56.8933 71.0119ZM61.5066 22.0759C62.1817 22.1303 62.8444 21.8855 63.3225 21.4074L66.5453 18.1839L69.7005 21.3382L76.9228 28.5602L71.6095 33.8733C71.0251 34.4577 70.7976 35.3108 71.0136 36.1087C71.7027 38.6538 72.3753 40.5834 72.916 42.1339C73.7254 44.4558 74.1054 45.6098 73.9043 46.462C73.7666 47.0431 73.3067 47.7725 72.4132 48.7896C71.5189 47.3216 70.4457 45.9501 69.2052 44.7088L64.192 39.6957C64.1087 38.255 63.5194 36.8381 62.4206 35.7394C61.969 35.2877 61.4579 34.9168 60.9073 34.6316C61.9483 32.3773 61.5411 29.6138 59.6857 27.7584C57.8295 25.903 55.065 25.4958 52.8106 26.5377C52.5295 25.9921 52.161 25.4802 51.7044 25.0236C51.5346 24.8538 51.3557 24.6964 51.1703 24.5496C51.9261 24.0872 52.7133 23.6842 53.5269 23.3454C53.5475 23.338 53.5672 23.3298 53.5878 23.3215C56.0624 22.3003 58.7685 21.8566 61.5066 22.0759ZM36.1093 21.9885C38.6545 21.2994 40.5842 20.6269 42.1347 20.0862C44.4575 19.2768 45.6116 18.8968 46.463 19.0979C47.0441 19.2355 47.7736 19.6955 48.7907 20.5889C47.3227 21.4832 45.9511 22.5556 44.7097 23.7968L44.5869 23.9196C44.0387 24.2048 43.531 24.5741 43.0818 25.0233L35.731 32.3738C35.2463 31.59 34.5745 30.8828 33.6382 30.4443C31.0351 29.2245 28.2409 30.9397 27.3218 31.5026C27.194 31.5809 27.0745 31.6716 26.9649 31.773C26.1983 32.4793 25.4771 33.142 24.7986 33.7651C23.8977 34.5927 23.0743 35.3485 22.3218 36.045C22.0407 34.5474 21.955 33.0118 22.0753 31.496C22.1289 30.8218 21.8849 30.1583 21.4068 29.6802L18.184 26.4575L28.5607 16.0812L33.874 21.3943C34.4592 21.977 35.3114 22.2044 36.1093 21.9885ZM21.3929 59.1273C21.9773 58.5429 22.2049 57.6898 21.9889 56.8919C21.2998 54.3468 20.6272 52.4172 20.0865 50.8667C18.9704 47.6662 18.7998 46.9484 19.3455 45.9039C20.2151 44.2406 22.9525 41.7266 27.922 37.162C28.551 36.5842 29.2161 35.9735 29.9209 35.3248C31.0633 34.6522 31.5628 34.6234 31.6799 34.6299C31.7474 34.7008 31.9923 35.0066 32.2173 35.8861L25.7162 42.3869C24.8153 43.2878 24.8153 44.7491 25.7162 45.6509C26.618 46.5518 28.0785 46.5518 28.9804 45.6509L36.3468 38.2848C36.3492 38.2823 36.3517 38.2798 36.355 38.2765L45.6197 29.0122C45.6197 29.0122 46.2869 28.4348 46.37 28.36C46.4531 28.2852 47.1619 27.8715 47.1619 27.8715C47.2377 27.8599 47.3152 27.8517 47.3935 27.8517C47.7892 27.8517 48.1609 28.0058 48.4411 28.2852C49.0181 28.8622 49.0181 29.8002 48.4428 30.3771L37.2098 41.6106C36.3089 42.5115 36.3089 43.9728 37.2098 44.8746C38.1115 45.7755 39.5721 45.7755 40.4739 44.8746L45.7203 39.6284L51.7061 33.6437C51.7077 33.642 51.7085 33.6412 51.7102 33.6396L54.3288 31.0202C54.9066 30.4424 55.8463 30.4432 56.4233 31.0202C57.0011 31.598 57.0011 32.5376 56.4233 33.1146L43.2243 46.3131C42.3234 47.2139 42.3234 48.6752 43.2243 49.5771C43.6752 50.0279 44.2654 50.2529 44.8564 50.2529C45.4465 50.2529 46.0375 50.0279 46.4884 49.5771L57.0653 39.0005C57.3448 38.7211 57.7165 38.5678 58.1113 38.5678C58.507 38.5678 58.8787 38.7219 59.1581 39.0013C59.736 39.5791 59.736 40.5187 59.1581 41.0957L54.243 46.0106L54.2398 46.0139L44.5168 55.7366C43.6159 56.6374 43.6159 58.0988 44.5168 59.0006C45.4185 59.9015 46.879 59.9015 47.7809 59.0006L57.5047 49.2771C58.0825 48.701 59.0214 48.701 59.5984 49.2779C59.8778 49.5573 60.0319 49.9299 60.0319 50.3247C60.0319 50.7203 59.8778 51.0921 59.5975 51.3715L45.0304 65.9381C41.4605 69.5096 36.5247 71.3261 31.4959 70.9248C30.8192 70.8704 30.1581 71.1152 29.68 71.5932L26.4573 74.8168L16.0806 64.4404L21.3929 59.1273Z" fill="#1B1B1B" stroke="white" stroke-width="2.6" mask="url(#path-5-inside-1_359_12128)"/>
</svg>
