<svg width="22" height="31" viewBox="0 0 22 31" fill="none" xmlns="http://www.w3.org/2000/svg">
<path d="M11.039 1C5.49662 1 1 5.2798 1 10.551C1 16.6162 7.69264 26.2278 10.1501 29.5476C10.2521 29.6877 10.3858 29.8018 10.5403 29.8804C10.6947 29.959 10.8656 30 11.039 30C11.2123 30 11.3832 29.959 11.5376 29.8804C11.6921 29.8018 11.8258 29.6877 11.9278 29.5476C14.3853 26.2292 21.0779 16.621 21.0779 10.551C21.0779 5.2798 16.5813 1 11.039 1Z" stroke="white" stroke-width="1.4" stroke-linecap="round" stroke-linejoin="round"/>
<path d="M11.0392 14.3855C12.8873 14.3855 14.3855 12.8873 14.3855 11.0392C14.3855 9.19107 12.8873 7.69287 11.0392 7.69287C9.19107 7.69287 7.69287 9.19107 7.69287 11.0392C7.69287 12.8873 9.19107 14.3855 11.0392 14.3855Z" stroke="white" stroke-width="1.4" stroke-linecap="round" stroke-linejoin="round"/>
</svg>
