<svg width="216" height="50" viewBox="0 0 216 50" fill="none" xmlns="http://www.w3.org/2000/svg">
<path d="M64.3915 29.6024L59.6785 21.3269H57.6696V29.6024H53.3984V8.35785H61.3869C62.8373 8.31542 64.2776 8.61146 65.5933 9.22244C66.6757 9.73378 67.5834 10.552 68.2031 11.5751C68.8262 12.6685 69.124 13.9167 69.0614 15.1732C68.9988 16.4296 68.5784 17.6422 67.8496 18.6684C66.9569 19.8567 65.671 20.6903 64.2206 21.0211L69.3165 29.6318L64.3915 29.6024ZM57.6872 18.1273H61.2514C61.7174 18.1661 62.1864 18.1123 62.6313 17.969C63.0763 17.8256 63.4883 17.5955 63.8436 17.2921C64.1413 16.9803 64.371 16.6102 64.518 16.2053C64.6651 15.8003 64.7263 15.3692 64.6978 14.9394C64.7234 14.5223 64.6605 14.1045 64.5133 13.7132C64.3661 13.322 64.1379 12.9662 63.8436 12.6691C63.1153 12.078 62.1871 11.7894 61.2514 11.8633H57.6872V18.1273Z" fill="#011601"/>
<path d="M77.2283 11.7986V17.1215H84.392V20.5035H77.2283V26.1322H85.311V29.6024H72.9395V8.32843H85.311V11.7986H77.2283Z" fill="#011601"/>
<path d="M126.054 8.35785L118.855 22.2092V29.6024H114.572V22.2092L107.344 8.35785H112.163L116.734 18.0685L121.276 8.35785H126.054Z" fill="#011601"/>
<path d="M154.144 26.2263H161.161V29.6024H149.879V8.35785H154.144V26.2263Z" fill="#011601"/>
<path d="M168.141 8.35785V29.6024H163.87V8.35785H168.141Z" fill="#011601"/>
<path d="M190.569 29.6024H186.298L176.619 14.9982V29.5789H172.348V8.32843H176.619L186.28 22.9385V8.32843H190.569V29.6024Z" fill="#011601"/>
<path d="M209.574 14.7512C209.121 13.8877 208.422 13.1776 207.565 12.7103C206.644 12.2288 205.617 11.988 204.578 12.0103C203.402 11.9874 202.242 12.2821 201.22 12.8632C200.239 13.4375 199.445 14.2832 198.934 15.2982C198.386 16.4483 198.101 17.7062 198.101 18.9801C198.101 20.254 198.386 21.5119 198.934 22.662C199.464 23.6868 200.283 24.5335 201.291 25.097C202.353 25.684 203.553 25.9784 204.767 25.9499C206.21 26.0111 207.628 25.5518 208.761 24.6559C209.837 23.7253 210.557 22.4513 210.799 21.0505H203.476V17.792H215.005V21.5092C214.716 23.0029 214.09 24.411 213.173 25.6264C212.22 26.901 210.984 27.9378 209.562 28.6554C208.031 29.4435 206.33 29.8473 204.607 29.8318C202.662 29.8599 200.744 29.3815 199.04 28.4437C197.408 27.545 196.058 26.2112 195.14 24.5912C194.209 22.8683 193.721 20.941 193.721 18.9831C193.721 17.0251 194.209 15.0978 195.14 13.3749C196.056 11.7501 197.406 10.412 199.04 9.51064C200.866 8.54172 202.913 8.06568 204.98 8.12964C207.047 8.1936 209.061 8.79535 210.823 9.8753C212.584 11.0327 213.88 12.7742 214.481 14.7924L209.574 14.7512Z" fill="#011601"/>
<path fill-rule="evenodd" clip-rule="evenodd" d="M104.981 11.4281C105.529 11.1222 106.048 10.7928 106.613 10.5046C105.888 12.1927 105.117 13.8395 104.357 15.4982C102.466 15.3747 100.692 15.1335 98.7954 15.0159C99.2683 14.6741 99.7643 14.3655 100.28 14.0925C98.7601 11.8692 98.171 8.7225 94.7246 8.43429C94.8982 8.3551 95.0876 8.31686 95.2784 8.32254C96.9751 8.22255 99.7793 8.23432 101.611 8.32254C102.234 8.31444 102.847 8.48159 103.379 8.80484C104.251 9.50476 104.327 10.5458 104.981 11.4281Z" fill="url(#paint0_radial_437_1298)"/>
<path fill-rule="evenodd" clip-rule="evenodd" d="M94.7247 16.8274C93.1223 15.9981 91.6259 15.0629 90.0117 14.2395C90.7658 12.9573 91.2665 12.028 92.1267 10.7105C92.7158 9.84002 93.0752 9.00481 94.5715 9.12245C95.2201 9.18788 95.844 9.40591 96.3918 9.75864C96.9397 10.1114 97.396 10.5888 97.7233 11.1516C97.892 11.3717 98.027 11.6155 98.1239 11.8751C98.1239 12.1692 97.4347 12.9573 97.2756 13.1867C96.3094 14.5747 95.6732 15.4982 94.7247 16.8274Z" fill="url(#paint1_radial_437_1298)"/>
<path fill-rule="evenodd" clip-rule="evenodd" d="M92.2393 16.7921C92.9992 18.4037 93.8829 19.8918 94.6488 21.4975C94.1539 21.2034 93.6355 20.9387 93.1642 20.6152C92.4867 21.0916 91.2436 22.2033 92.4572 22.8679C89.5116 23.2267 87.0255 22.2797 87.4556 19.5742C87.5248 19.108 87.7297 18.6723 88.0447 18.3214C88.1095 18.2273 88.4159 17.9214 88.4159 17.9155C88.4159 17.7861 87.7796 17.4803 87.6382 17.3921C87.2906 17.1921 87.0491 17.0509 86.8193 16.951C88.3157 16.798 90.5013 16.8216 92.2393 16.7921Z" fill="url(#paint2_radial_437_1298)"/>
<path fill-rule="evenodd" clip-rule="evenodd" d="M109.912 22.0092C109.411 23.2561 108.651 24.5559 107.95 26.0381C107.638 26.7154 107.277 27.3699 106.872 27.9967C106.525 28.5261 105.941 29.3083 105.352 29.4789C104.427 29.7494 103.449 29.4142 102.318 29.5142C102.23 30.0435 102.318 30.7317 102.277 31.3257C102.165 31.3728 102.018 31.061 101.912 30.8846C101.117 29.6083 100.256 28.1673 99.4258 26.891C100.368 25.3676 101.305 23.8325 102.318 22.3797C102.283 22.9679 102.271 23.5561 102.277 24.1442C103.832 24.0678 105.293 24.2501 106.69 24.1442C107.357 24.0652 107.996 23.8308 108.556 23.4599C109.115 23.0891 109.58 22.5921 109.912 22.0092Z" fill="url(#paint3_radial_437_1298)"/>
<path fill-rule="evenodd" clip-rule="evenodd" d="M87.5381 22.5268C89.1405 24.4736 94.6075 23.3855 97.9832 23.6737V29.5142H93.2702C92.7661 29.5656 92.2574 29.5537 91.7562 29.4789C91.2142 29.3142 90.7842 28.5202 90.4601 27.9614C89.4174 26.1734 88.6515 24.1854 87.5381 22.5268Z" fill="url(#paint4_radial_437_1298)"/>
<path fill-rule="evenodd" clip-rule="evenodd" d="M143.127 11.4281C143.675 11.1222 144.193 10.7928 144.759 10.5046C144.034 12.1927 143.262 13.8395 142.502 15.4982C140.611 15.3747 138.838 15.1335 136.941 15.0159C137.414 14.6741 137.91 14.3655 138.426 14.0925C136.906 11.8692 136.316 8.7225 132.87 8.43429C133.044 8.3551 133.233 8.31686 133.424 8.32254C135.121 8.22255 137.925 8.23432 139.757 8.32254C140.38 8.31444 140.992 8.48159 141.524 8.80484C142.396 9.50476 142.473 10.5458 143.127 11.4281Z" fill="url(#paint5_radial_437_1298)"/>
<path fill-rule="evenodd" clip-rule="evenodd" d="M132.87 16.8274C131.268 15.9981 129.771 15.0629 128.157 14.2395C128.911 12.9573 129.412 12.028 130.272 10.7105C130.861 9.84002 131.221 9.00481 132.717 9.12245C133.366 9.18788 133.989 9.40591 134.537 9.75864C135.085 10.1114 135.542 10.5888 135.869 11.1516C136.037 11.3717 136.172 11.6155 136.269 11.8751C136.269 12.1692 135.58 12.9573 135.421 13.1867C134.479 14.5747 133.819 15.4982 132.87 16.8274Z" fill="url(#paint6_radial_437_1298)"/>
<path fill-rule="evenodd" clip-rule="evenodd" d="M130.385 16.7921C131.139 18.4037 132.023 19.8918 132.794 21.4975C132.299 21.2034 131.781 20.9387 131.31 20.6152C130.632 21.0916 129.389 22.2033 130.603 22.8679C127.657 23.2267 125.171 22.2797 125.601 19.5742C125.67 19.108 125.875 18.6723 126.19 18.3214C126.255 18.2273 126.561 17.9214 126.561 17.9155C126.561 17.7861 125.925 17.4803 125.778 17.3921C125.436 17.1921 125.189 17.0509 124.965 16.951C126.461 16.798 128.647 16.8216 130.385 16.7921Z" fill="url(#paint7_radial_437_1298)"/>
<path fill-rule="evenodd" clip-rule="evenodd" d="M148.058 22.0092C147.557 23.2561 146.797 24.5559 146.096 26.0381C145.783 26.7154 145.423 27.3699 145.018 27.9967C144.664 28.5261 144.087 29.3083 143.498 29.4789C142.573 29.7494 141.595 29.4142 140.464 29.5142C140.376 30.0435 140.464 30.7317 140.423 31.3257C140.311 31.3728 140.163 31.061 140.057 30.8846C139.262 29.6083 138.402 28.1673 137.571 26.891C138.514 25.3676 139.451 23.8325 140.464 22.3797C140.429 22.9679 140.417 23.5561 140.423 24.1442C141.978 24.0678 143.433 24.2501 144.835 24.1442C145.502 24.0652 146.141 23.8308 146.701 23.4599C147.261 23.0891 147.726 22.5921 148.058 22.0092Z" fill="url(#paint8_radial_437_1298)"/>
<path fill-rule="evenodd" clip-rule="evenodd" d="M125.684 22.5268C127.286 24.4736 132.753 23.3855 136.129 23.6737V29.5142H131.416C130.912 29.5656 130.403 29.5537 129.902 29.4789C129.36 29.3142 128.93 28.5202 128.6 27.9614C127.563 26.1734 126.785 24.1854 125.684 22.5268Z" fill="url(#paint9_radial_437_1298)"/>
<path d="M0 19.1154L3.26374 21.6563L1.13701 25.1853C-0.400603 27.8908 2.23867 30.5199 3.91177 31.4434C5.58488 32.3668 8.12988 32.4491 10.5276 32.4197L13.4732 27.4674L16.7311 29.2319L11.2228 18.886L0.0294579 19.1213L0 19.1154Z" fill="url(#paint10_radial_437_1298)"/>
<path d="M1.13086 30.9728L8.12373 43.8772C9.53173 45.6711 12.1828 46.0946 14.934 46.0299H22.3098V33.8195L8.31814 33.7196C6.9891 33.8462 5.64872 33.6642 4.40186 33.1877C3.155 32.7112 2.03547 31.9531 1.13086 30.9728Z" fill="url(#paint11_radial_437_1298)"/>
<path d="M40.143 8.69309L37.7099 4.22302C37.258 3.30244 36.5635 2.52208 35.7011 1.96564C34.8386 1.40921 33.8407 1.09771 32.8143 1.06458L23.9068 1.12927L23.082 2.05858L29.4799 14.1513L29.6861 14.5218L30.7583 16.551L37.7276 16.6098L43.6542 6.85213L40.143 8.69309Z" fill="url(#paint12_radial_437_1298)"/>
<path d="M31.5062 30.0847L26.0156 39.9718L31.5062 49.9706L31.6417 45.9652H36.6552C37.6803 45.9967 38.6948 45.7497 39.5903 45.2504C40.4858 44.751 41.2285 44.0182 41.7393 43.1302L48.1784 31.1022C46.0576 33.2432 43.324 33.796 40.1781 33.796H31.683L31.4827 30.0612L31.5062 30.0847Z" fill="url(#paint13_radial_437_1298)"/>
<path d="M44.172 10.4811C43.483 11.0571 42.9395 11.7869 42.5854 12.6115C42.2313 13.4361 42.0765 14.3323 42.1336 15.2276C43.0061 15.4397 43.9162 15.444 44.7906 15.2401C45.665 15.0362 46.4791 14.63 47.1672 14.054C47.8552 13.4781 48.398 12.7487 48.7517 11.9248C49.1054 11.1008 49.26 10.2053 49.2031 9.31066C48.3312 9.10044 47.4221 9.09679 46.5485 9.30003C45.6749 9.50326 44.8611 9.90775 44.172 10.4811Z" fill="url(#paint14_radial_437_1298)"/>
<path style="mix-blend-mode:multiply" opacity="0.5" d="M14.9338 46.0299H22.3096V40.2894H16.3772C8.17069 39.5365 4.20591 35.884 2.42676 33.3902L8.12356 43.8948C9.53157 45.6711 12.1826 46.0946 14.9338 46.0299Z" fill="url(#paint15_radial_437_1298)"/>
<path d="M34.0508 22.7385L44.4665 16.3804L49.1794 25.5852C50.3105 30.6082 44.1189 32.455 39.1644 32.155L34.0508 22.7385Z" fill="url(#paint16_radial_437_1298)"/>
<path style="mix-blend-mode:multiply" opacity="0.28" d="M49.1803 25.5852L49.1509 25.5323C40.9031 26.7086 34.0693 22.7503 34.0693 22.7503L39.1476 32.1609C44.1021 32.4432 50.2938 30.5964 49.1803 25.5852Z" fill="url(#paint17_radial_437_1298)"/>
<path style="mix-blend-mode:multiply" opacity="0.5" d="M42.1104 15.2276C42.9828 15.4397 43.8929 15.444 44.7673 15.2401C45.6417 15.0362 46.4558 14.63 47.1439 14.054C47.8319 13.4781 48.3747 12.7487 48.7284 11.9248C49.0821 11.1008 49.2367 10.2053 49.1798 9.31067C47.1206 11.6122 44.7396 13.605 42.1104 15.2276Z" fill="url(#paint18_radial_437_1298)"/>
<path d="M45.2563 5.11705C45.0158 5.63143 44.9006 6.19529 44.9201 6.76261C44.9395 7.32993 45.0931 7.88461 45.3682 8.38137C45.9266 8.26992 46.4508 8.02863 46.8983 7.67709C47.3459 7.32554 47.7041 6.87363 47.9439 6.35802C48.1838 5.84241 48.2986 5.27761 48.2789 4.70944C48.2592 4.14127 48.1057 3.58573 47.8308 3.08788C47.272 3.20011 46.7477 3.44235 46.3004 3.79494C45.853 4.14752 45.4953 4.60049 45.2563 5.11705Z" fill="url(#paint19_radial_437_1298)"/>
<path style="mix-blend-mode:multiply" opacity="0.5" d="M45.3682 8.38137C45.9265 8.26992 46.4508 8.02863 46.8983 7.67709C47.3458 7.32554 47.704 6.87363 47.9439 6.35802C48.1837 5.84241 48.2985 5.27761 48.2788 4.70944C48.2592 4.14127 48.1056 3.58573 47.8307 3.08788C47.2693 4.96151 46.4399 6.74441 45.3682 8.38137Z" fill="url(#paint20_radial_437_1298)"/>
<path d="M5.93843 13.9042C6.3845 14.2568 6.74081 14.7097 6.97832 15.2259C7.21584 15.742 7.32784 16.3069 7.30519 16.8745C6.7555 17.0239 6.17827 17.0417 5.62036 16.9266C5.06246 16.8115 4.5396 16.5667 4.09424 16.212C3.64888 15.8574 3.29358 15.4028 3.05716 14.8853C2.82075 14.3679 2.7099 13.802 2.73361 13.2337C3.2831 13.0874 3.85931 13.0718 4.41593 13.1883C4.97254 13.3048 5.49401 13.55 5.93843 13.9042Z" fill="url(#paint21_radial_437_1298)"/>
<path style="mix-blend-mode:multiply" opacity="0.5" d="M7.30519 16.8745C6.7555 17.0239 6.17827 17.0417 5.62036 16.9266C5.06246 16.8115 4.5396 16.5667 4.09424 16.212C3.64888 15.8574 3.29358 15.4028 3.05716 14.8853C2.82075 14.3679 2.7099 13.802 2.73361 13.2337C4.0736 14.6611 5.61342 15.8874 7.30519 16.8745Z" fill="url(#paint22_radial_437_1298)"/>
<path d="M7.3877 12.228L20.2482 30.3905C20.2482 30.3905 22.7814 32.9608 28.8317 29.073C28.8317 29.073 33.7273 25.8793 32.3665 22.4503L22.3514 3.87013C22.3514 3.87013 21.7623 7.16974 16.1892 10.4458C14.2569 11.5927 9.98572 12.9161 7.3877 12.228Z" fill="#011601"/>
<path d="M9.42006 4.60534L9.21387 4.79944L10.3921 6.56393C10.3921 6.56393 11.482 7.20503 13.6323 5.92871C13.6323 5.92871 15.4821 4.84649 15.5823 3.45842C15.579 3.43697 15.579 3.41516 15.5823 3.39372L14.4217 1.47041L9.42006 4.60534Z" fill="#011601"/>
<path d="M17.0431 3.51723L15.7588 0.729326L21.2671 0L17.0431 3.51723Z" fill="#011601"/>
<path d="M21.0966 1.42923C20.8215 0.991752 20.4063 0.660082 19.9184 0.488174C19.4412 0.894009 17.9095 2.20562 17.7386 2.30561L17.3498 2.54676C17.4857 2.6342 17.6004 2.75072 17.6856 2.88789C18.3395 3.976 16.8903 6.04634 14.4454 7.51676C13.5463 8.07313 12.5638 8.48218 11.5352 8.72838L12.4247 11.034C13.5874 10.6336 14.7034 10.1091 15.7533 9.46947C19.8771 6.98153 22.2748 3.38195 21.0966 1.42923Z" fill="#011601"/>
<path d="M14.1746 1.541L13.3793 1.39984C12.7268 1.69723 12.0915 2.03105 11.4765 2.39972C7.35261 4.89355 4.94311 8.49312 6.12135 10.4458C6.31813 10.7637 6.5942 11.0252 6.92255 11.2046L7.06395 10.8281C7.06395 10.7752 8.7724 9.25774 9.42043 8.6931C9.17771 8.60496 8.97072 8.43963 8.83131 8.22256C8.17739 7.13446 9.62663 5.06412 12.0715 3.58782C12.7144 3.20443 13.3955 2.88904 14.1039 2.64675L14.1746 1.541Z" fill="#011601"/>
<path d="M9.59714 8.06375L10.7577 11.1457L5.53809 11.4869L9.59714 8.06375Z" fill="#011601"/>
<path d="M17.7095 18.8919C19.138 18.4908 20.4983 17.8782 21.7449 17.0745C22.3219 16.7069 22.8453 16.2616 23.3002 15.7511C24.3187 14.6549 25.0388 13.3164 25.3916 11.8633C25.3916 11.7986 23.2177 7.74614 23.2177 7.74614C21.9554 9.95411 20.1473 11.8022 17.966 13.114C15.7846 14.4258 13.303 15.1576 10.7578 15.2394L11.6886 16.5628L13.291 18.8095L13.3558 18.8448L13.5267 18.9213C13.9814 19.0754 14.4552 19.1664 14.9347 19.1919C15.8698 19.2453 16.8074 19.1439 17.7095 18.8919ZM21.5211 24.5089C22.8281 24.108 24.0673 23.5132 25.1972 22.7444C25.4482 22.5802 25.6865 22.3973 25.91 22.1974C26.1861 21.9579 26.444 21.6984 26.6818 21.421C27.2234 20.8123 27.6576 20.1162 27.9661 19.3624C28.1757 18.8459 28.3048 18.3005 28.349 17.745C28.361 17.5491 28.361 17.3527 28.349 17.1568L26.2046 13.2337C26.0461 13.8935 25.7984 14.5287 25.4682 15.1217C25.0033 15.9446 24.4062 16.6858 23.7008 17.3156C23.3193 17.6695 22.9051 17.9866 22.4637 18.2626C21.097 19.1428 19.6056 19.8129 18.0394 20.2505C16.9968 20.5375 15.9143 20.6527 14.8345 20.5917H14.5282L17.2264 24.3795L17.3795 24.4442L17.5386 24.5148C17.995 24.6978 18.4789 24.8032 18.9702 24.8265C19.8324 24.8667 20.6952 24.7593 21.5211 24.5089ZM31.5361 23.0679L29.4919 19.2918C29.4755 19.3341 29.4617 19.3773 29.4506 19.4212C29.301 19.9023 29.1036 20.3673 28.8615 20.8093C28.4078 21.6186 27.836 22.3561 27.1649 22.9973C26.8033 23.3498 26.4087 23.6669 25.9866 23.9442C24.7373 24.7877 23.3666 25.4362 21.9217 25.8675C20.9485 26.1498 19.9353 26.2691 18.923 26.2204L18.546 26.1734L21.1087 29.7612C21.1087 29.7612 23.6596 31.0905 28.3784 27.9261C28.3902 27.9379 31.8189 25.7205 31.542 23.0679H31.5361Z" fill="#8BC53F"/>
<path d="M14.4749 1.51747C14.8991 2.22327 14.0567 3.51135 12.5839 4.3936C11.1111 5.27585 9.57935 5.42289 9.15518 4.72297C8.73101 4.02305 9.57935 2.72909 11.0463 1.84684C12.5132 0.96459 14.0508 0.81755 14.4749 1.51747Z" fill="#8BC53F"/>
<path d="M13.7152 1.97623C14.0216 2.47618 13.4148 3.3996 12.3661 4.02894C11.3175 4.65827 10.2217 4.76414 9.9154 4.2642C9.60906 3.76426 10.2159 2.84083 11.2645 2.2115C12.3131 1.58216 13.4148 1.47041 13.7152 1.97623Z" fill="#B0E55C"/>
<path d="M10.2334 5.46407L10.7518 6.30515C11.3547 6.37849 11.9661 6.28489 12.5192 6.03459L11.9713 5.06412C11.4282 5.3224 10.835 5.45891 10.2334 5.46407Z" fill="white"/>
<path d="M17.5916 18.9213L14.7049 14.5453C13.4233 14.9379 12.0971 15.1672 10.7578 15.2276L11.6886 16.551L13.291 18.7978L13.3558 18.8331L13.5267 18.9095C13.9814 19.0636 14.4552 19.1546 14.9347 19.1801C15.8284 19.2321 16.7248 19.1448 17.5916 18.9213ZM21.3149 24.5618L18.4105 20.1623L18.0688 20.2564C17.0262 20.5434 15.9437 20.6586 14.864 20.5976H14.5577L17.2558 24.3854L17.409 24.4501L17.5681 24.5206C18.0244 24.7037 18.5083 24.8091 18.9996 24.8324C19.7809 24.8662 20.5625 24.7748 21.3149 24.5618ZM22.1338 25.797L21.904 25.8675C20.9309 26.1499 19.9176 26.2691 18.9054 26.2204L18.546 26.1734L21.1087 29.7612C21.1087 29.7612 22.3517 30.4141 24.7141 29.72L22.1338 25.797Z" fill="url(#paint23_radial_437_1298)"/>
<path d="M26.2045 13.2337C26.0461 13.8935 25.7983 14.5287 25.4681 15.1218C25.368 15.2982 25.2678 15.4629 25.1618 15.6276L27.6596 20.0212C27.7706 19.8107 27.8708 19.5947 27.9601 19.3742C28.1697 18.8577 28.2988 18.3122 28.343 17.7567C28.3551 17.5609 28.3551 17.3644 28.343 17.1686L26.2045 13.2337ZM31.5066 23.062L29.4624 19.286C29.446 19.3282 29.4322 19.3714 29.4211 19.4154C29.2715 19.8965 29.0741 20.3614 28.832 20.8034C28.7142 21.0211 28.5846 21.2269 28.455 21.4269L30.8114 25.544C31.3329 24.8271 31.5909 23.9526 31.542 23.0679L31.5066 23.062ZM21.792 9.76356L24.3665 14.2807C24.8216 13.5297 25.1556 12.712 25.3562 11.8574C25.3562 11.7927 23.1823 7.74026 23.1823 7.74026C22.8036 8.46247 22.3494 9.14265 21.8273 9.76944L21.792 9.76356Z" fill="#B0E55C"/>
<path d="M26.3105 23.7031C26.2008 23.7893 26.0867 23.8698 25.9688 23.9443C25.6683 24.1442 25.3796 24.3207 25.0851 24.4912L27.6772 28.3908C27.907 28.2555 28.1426 28.1026 28.39 27.9379C28.39 27.9379 28.5255 27.8497 28.7376 27.6909L26.3105 23.7031ZM22.8582 18.0273C22.7345 18.1155 22.6108 18.192 22.4929 18.2684C22.1159 18.5037 21.7506 18.7213 21.3913 18.9095L24.3015 23.309C24.5902 23.1443 24.8907 22.962 25.197 22.762C25.3276 22.6788 25.4534 22.5885 25.574 22.4915L22.8582 18.0273ZM22.1218 16.8157L19.3058 12.1927C18.7785 12.5883 18.2276 12.9517 17.6562 13.2808L20.6019 17.7273C20.9671 17.5391 21.3442 17.3156 21.7389 17.0745L22.1218 16.8157Z" fill="white"/>
<path d="M20.0895 26.2028C19.6972 26.2285 19.3036 26.2285 18.9113 26.2028L18.546 26.1734L21.1087 29.7612C21.6229 29.9743 22.1787 30.0688 22.7347 30.0376L20.0895 26.2028ZM15.2469 19.2036L12.3838 15.0865C11.8654 15.161 11.3234 15.2139 10.7578 15.2453L11.6886 16.5686L13.291 18.8154L13.3558 18.8507L13.5267 18.9272C13.9814 19.0812 14.4552 19.1723 14.9347 19.1977L15.2469 19.2036ZM19.1292 24.8147L16.1836 20.5858C15.7385 20.6208 15.2914 20.6208 14.8463 20.5858H14.54L17.2382 24.3736L17.3913 24.4383L17.5504 24.5089C18.0068 24.6919 18.4907 24.7973 18.982 24.8206L19.1292 24.8147Z" fill="url(#paint24_radial_437_1298)"/>
<path d="M14.7041 2.64674L15.2284 3.52899C15.2067 3.78289 15.1057 4.02357 14.9397 4.21715L14.3506 3.2702C14.5099 3.0887 14.6302 2.87651 14.7041 2.64674Z" fill="#8BC53F"/>
<path d="M55.9075 35.0959L55.5717 36.9839H58.0165L57.8162 38.1132H55.3596L55.0179 40.0835H57.7868L57.5747 41.2598H53.333L54.6291 33.9666H58.8649L58.6646 35.1135L55.9075 35.0959Z" fill="#1D871D"/>
<path d="M64.0496 33.5196L62.6769 41.2422H61.2041L62.5709 33.5196H64.0496Z" fill="#1D871D"/>
<path d="M71.7252 35.9781C71.9432 36.1904 72.1136 36.4465 72.2253 36.7293C72.337 37.0121 72.3874 37.3154 72.3733 37.6191C72.3745 37.8164 72.3568 38.0134 72.3202 38.2073C72.2842 38.3898 72.2389 38.5704 72.1847 38.7484H67.9548C67.9507 38.8169 67.9507 38.8857 67.9548 38.9542C67.9457 39.1106 67.9693 39.2672 68.0241 39.4141C68.0788 39.5609 68.1636 39.6947 68.273 39.8071C68.5025 40.0159 68.8052 40.1258 69.1154 40.1129C69.3818 40.1195 69.6449 40.0523 69.8754 39.9188C70.0847 39.794 70.2605 39.6205 70.3879 39.413H71.9668C71.6989 39.9881 71.271 40.4741 70.7341 40.813C70.1971 41.152 69.5739 41.3295 68.9387 41.3245C68.29 41.352 67.6561 41.1263 67.1713 40.6952C66.9465 40.4748 66.771 40.2094 66.6562 39.9164C66.5415 39.6235 66.4902 39.3096 66.5056 38.9954C66.5058 38.7765 66.5255 38.558 66.5645 38.3425C66.6564 37.7754 66.876 37.2365 67.2067 36.7663C67.5194 36.3257 67.9336 35.9667 68.4144 35.7193C68.9045 35.4753 69.4455 35.3503 69.9932 35.3547C70.6296 35.3311 71.2504 35.5545 71.7252 35.9781ZM70.8887 37.6309C70.8965 37.4846 70.8715 37.3385 70.8154 37.2031C70.7593 37.0677 70.6737 36.9466 70.5647 36.8486C70.3291 36.6526 70.0285 36.5518 69.7222 36.5663C69.3592 36.5638 69.0068 36.6887 68.7266 36.9192C68.4262 37.1649 68.21 37.4979 68.108 37.872H70.871C70.8828 37.7603 70.8887 37.6838 70.8887 37.6309Z" fill="#1D871D"/>
<path d="M75.9259 36.7604C76.2344 36.3185 76.6462 35.9585 77.1256 35.7115C77.6051 35.4645 78.1376 35.338 78.6771 35.3429C79.2857 35.3069 79.886 35.4976 80.3619 35.8781C80.5721 36.071 80.7411 36.3044 80.8585 36.5641C80.9759 36.8239 81.0395 37.1048 81.0453 37.3897H79.4665C79.4385 37.1593 79.3224 36.9485 79.1425 36.8016C78.9435 36.6498 78.6974 36.5727 78.4473 36.5839C78.2464 36.5813 78.0472 36.6208 77.8625 36.6998C77.6778 36.7789 77.5118 36.8957 77.3751 37.0427C77.0509 37.4015 76.8452 37.8512 76.786 38.3308C76.7535 38.4955 76.7358 38.6628 76.733 38.8307C76.7103 39.1601 76.8134 39.4859 77.0216 39.7424C77.1275 39.8507 77.2553 39.935 77.3966 39.9898C77.5378 40.0446 77.6892 40.0685 77.8405 40.06C78.1107 40.0691 78.3777 39.9987 78.6081 39.8575C78.8386 39.7163 79.0223 39.5106 79.1366 39.266H80.7095C80.4566 39.8697 80.0354 40.3882 79.4959 40.7599C78.9456 41.1325 78.2932 41.3256 77.6284 41.3128C77.3071 41.3314 76.9853 41.2858 76.6819 41.1787C76.3784 41.0717 76.0994 40.9053 75.8611 40.6893C75.6391 40.471 75.4661 40.2082 75.3534 39.9183C75.2407 39.6283 75.1908 39.3178 75.2071 39.0072C75.2091 38.7803 75.2308 38.5539 75.2719 38.3308C75.3688 37.7649 75.5924 37.2281 75.9259 36.7604Z" fill="#1D871D"/>
<path d="M85.758 39.4601C85.754 39.5149 85.754 39.5699 85.758 39.6247C85.7521 39.6811 85.7603 39.738 85.7819 39.7904C85.8035 39.8427 85.8378 39.8889 85.8817 39.9247C86.0031 39.9944 86.1429 40.0252 86.2823 40.0129H86.9716L86.7536 41.2422H85.8228C84.7801 41.2422 84.2557 40.807 84.2557 39.9365C84.2546 39.7728 84.2684 39.6094 84.297 39.4483L84.786 36.6604H84.0967L84.3088 35.4841H85.0098L85.2573 34.0548H86.7301L86.4826 35.4841H87.7669L87.5548 36.6604H86.2588L85.758 39.4601Z" fill="#1D871D"/>
<path d="M93.2693 35.6723C93.5998 35.4788 93.9761 35.3773 94.3592 35.3782L94.0882 36.9133H93.6994C93.3325 36.8953 92.9694 36.9941 92.6625 37.1956C92.3576 37.4345 92.1486 37.7747 92.0734 38.1543L91.5314 41.2422H90.0586L91.0778 35.4605H92.5565L92.3738 36.4839C92.6129 36.1545 92.9178 35.8781 93.2693 35.6723Z" fill="#1D871D"/>
<path d="M99.0906 35.4605L98.0773 41.2422H96.6045L97.6296 35.4605H99.0906ZM97.9123 34.5783C97.8449 34.5127 97.7918 34.4339 97.7563 34.3469C97.7209 34.2598 97.7038 34.1664 97.7061 34.0725C97.7052 33.938 97.7331 33.805 97.788 33.6822C97.8428 33.5594 97.9234 33.4498 98.0243 33.3608C98.123 33.264 98.2399 33.1876 98.3683 33.1361C98.4968 33.0847 98.6341 33.0591 98.7725 33.0608C98.9723 33.0543 99.1669 33.126 99.3145 33.2608C99.3823 33.3248 99.4357 33.4025 99.4713 33.4887C99.5068 33.5749 99.5237 33.6676 99.5206 33.7607C99.5232 33.8957 99.4966 34.0296 99.4428 34.1534C99.3889 34.2773 99.309 34.388 99.2084 34.4783C99.0095 34.6702 98.7427 34.7759 98.4661 34.7724C98.2693 34.7772 98.078 34.7079 97.93 34.5783H97.9123Z" fill="#1D871D"/>
<path d="M102.584 36.7604C102.892 36.3194 103.303 35.9598 103.781 35.7129C104.26 35.4659 104.791 35.3389 105.329 35.3429C105.94 35.3071 106.542 35.4977 107.02 35.8781C107.229 36.0718 107.397 36.3054 107.515 36.565C107.632 36.8246 107.696 37.105 107.704 37.3897H106.125C106.094 37.1602 105.978 36.9505 105.801 36.8016C105.599 36.6498 105.352 36.5728 105.1 36.5839C104.899 36.5817 104.7 36.6214 104.515 36.7004C104.33 36.7794 104.164 36.8959 104.027 37.0427C103.705 37.4029 103.5 37.8519 103.438 38.3308C103.406 38.4955 103.388 38.6628 103.385 38.8307C103.364 39.1609 103.47 39.4867 103.68 39.7424C103.785 39.8505 103.911 39.9349 104.052 39.9897C104.192 40.0445 104.342 40.0685 104.493 40.06C104.763 40.0707 105.031 40.0009 105.262 39.8595C105.492 39.7182 105.676 39.5116 105.789 39.266H107.368C107.115 39.8713 106.691 40.3903 106.148 40.7599C105.6 41.1324 104.95 41.3256 104.287 41.3128C103.965 41.3314 103.644 41.2858 103.34 41.1787C103.037 41.0717 102.758 40.9053 102.519 40.6893C102.297 40.471 102.124 40.2082 102.012 39.9183C101.899 39.6283 101.849 39.3178 101.865 39.0072C101.865 38.7804 101.885 38.5541 101.924 38.3308C102.021 37.7637 102.246 37.2263 102.584 36.7604Z" fill="#1D871D"/>
<path d="M121.288 36.8957C121.008 37.1744 120.662 37.3769 120.281 37.4838C120.604 37.5454 120.893 37.7233 121.094 37.9838C121.301 38.2532 121.409 38.5854 121.4 38.9248C121.408 39.0325 121.408 39.1406 121.4 39.2483C121.353 39.5418 121.245 39.8224 121.084 40.0724C120.923 40.3223 120.712 40.5364 120.464 40.7011C119.915 41.0761 119.26 41.2657 118.596 41.2422H115.456L116.746 33.9607H119.757C120.299 33.9268 120.838 34.0737 121.288 34.3783C121.462 34.5075 121.601 34.6766 121.694 34.8712C121.787 35.0658 121.832 35.2802 121.824 35.4958C121.826 35.6102 121.816 35.7245 121.795 35.8369C121.741 36.234 121.564 36.6043 121.288 36.8957ZM119.939 38.8837C119.945 38.7711 119.923 38.6588 119.876 38.5564C119.829 38.454 119.758 38.3645 119.668 38.2955C119.455 38.1424 119.194 38.0676 118.932 38.0837H117.518L117.17 40.0835H118.643C118.956 40.095 119.264 40.0042 119.521 39.8247C119.636 39.7369 119.732 39.6272 119.804 39.502C119.875 39.3768 119.921 39.2386 119.939 39.0954C119.927 38.9954 119.939 38.9248 119.939 38.8837ZM120.293 35.8664C120.299 35.7609 120.28 35.6556 120.238 35.5586C120.196 35.4616 120.132 35.3757 120.051 35.3076C119.849 35.1603 119.6 35.0895 119.35 35.1076H118.025L117.689 36.9839H119.026C119.325 36.9999 119.622 36.9217 119.874 36.7604C119.985 36.679 120.078 36.5761 120.148 36.4578C120.218 36.3395 120.263 36.2084 120.281 36.0722C120.29 36.004 120.294 35.9352 120.293 35.8664Z" fill="#1D871D"/>
<path d="M125.253 36.7604C125.541 36.3259 125.929 35.9668 126.384 35.7134C126.816 35.4763 127.3 35.3509 127.792 35.3488C128.175 35.3361 128.554 35.4276 128.888 35.6135C129.162 35.7664 129.389 35.9924 129.542 36.2663L129.689 35.4429H131.162L130.137 41.2246H128.664L128.817 40.3776C128.572 40.663 128.269 40.8935 127.928 41.054C127.56 41.2294 127.157 41.3198 126.749 41.3187C126.353 41.3277 125.962 41.228 125.618 41.0305C125.29 40.8397 125.024 40.5577 124.853 40.2188C124.667 39.836 124.574 39.4149 124.581 38.9895C124.591 38.1957 124.831 37.4215 125.271 36.7604H125.253ZM129.218 37.9367C129.228 37.7608 129.201 37.5848 129.139 37.4198C129.077 37.2548 128.981 37.1044 128.859 36.978C128.737 36.8642 128.595 36.7754 128.439 36.7169C128.283 36.6583 128.118 36.6311 127.951 36.6369C127.676 36.6377 127.406 36.7042 127.162 36.831C126.899 36.9736 126.674 37.1749 126.502 37.4191C126.306 37.6847 126.177 37.9933 126.125 38.319C126.102 38.4432 126.091 38.5692 126.09 38.6954C126.079 38.8759 126.106 39.0565 126.168 39.2263C126.23 39.3962 126.325 39.5517 126.449 39.6836C126.566 39.801 126.706 39.8935 126.86 39.9551C127.014 40.0168 127.179 40.0465 127.344 40.0423C127.622 40.0396 127.896 39.9689 128.14 39.8365C128.405 39.6953 128.633 39.4938 128.806 39.2483C128.994 38.9769 129.12 38.6678 129.177 38.3425C129.197 38.2081 129.211 38.0726 129.218 37.9367Z" fill="#1D871D"/>
<path d="M135.881 39.4601C135.877 39.5149 135.877 39.5699 135.881 39.6247C135.875 39.6811 135.883 39.738 135.905 39.7904C135.927 39.8427 135.961 39.8889 136.005 39.9247C136.126 39.9944 136.266 40.0252 136.405 40.0129H137.095L136.877 41.2422H135.946C134.903 41.2422 134.379 40.807 134.379 39.9365C134.378 39.7728 134.391 39.6094 134.42 39.4483L134.909 36.6604H134.22L134.432 35.4841H135.133L135.38 34.0548H136.853L136.606 35.4841H137.89L137.684 36.6604H136.37L135.881 39.4601Z" fill="#1D871D"/>
<path d="M142.261 39.4601C142.254 39.5147 142.254 39.5701 142.261 39.6247C142.256 39.6805 142.264 39.7366 142.285 39.7887C142.305 39.8408 142.337 39.8873 142.379 39.9247C142.501 39.9937 142.64 40.0244 142.78 40.0129H143.44L143.216 41.2422H142.261C141.219 41.2422 140.694 40.807 140.694 39.9365C140.696 39.773 140.71 39.6098 140.735 39.4483L141.23 36.6604H140.541L140.747 35.4841H141.448L141.702 34.0548H143.174L142.921 35.4841H144.205L143.999 36.6604H142.703L142.261 39.4601Z" fill="#1D871D"/>
<path d="M151.887 35.9781C152.107 36.1895 152.278 36.4454 152.39 36.7285C152.501 37.0115 152.551 37.3152 152.536 37.6191C152.536 37.8161 152.52 38.0128 152.488 38.2073C152.451 38.3899 152.403 38.5705 152.347 38.7484H148.117C148.113 38.8169 148.113 38.8857 148.117 38.9542C148.108 39.1106 148.132 39.2672 148.186 39.4141C148.241 39.5609 148.326 39.6947 148.435 39.8071C148.665 40.0159 148.967 40.1258 149.278 40.1129C149.544 40.1201 149.807 40.0529 150.038 39.9188C150.247 39.7926 150.425 39.6195 150.556 39.413H152.129C151.861 39.9881 151.433 40.4741 150.896 40.813C150.359 41.152 149.736 41.3295 149.101 41.3245C148.452 41.3539 147.817 41.128 147.334 40.6952C147.107 40.476 146.93 40.211 146.814 39.9178C146.698 39.6246 146.646 39.3102 146.662 38.9954C146.677 38.1998 146.922 37.4255 147.369 36.7663C147.68 36.3245 148.095 35.9651 148.577 35.7193C149.064 35.4747 149.604 35.3497 150.15 35.3547C150.788 35.3283 151.412 35.552 151.887 35.9781ZM151.051 37.6309C151.058 37.4852 151.034 37.3397 150.979 37.2046C150.924 37.0694 150.84 36.9479 150.733 36.8486C150.495 36.6532 150.192 36.5526 149.884 36.5663C149.521 36.5638 149.169 36.6887 148.889 36.9192C148.599 37.1685 148.393 37.5013 148.3 37.872H151.057C151.045 37.7603 151.051 37.6838 151.051 37.6309Z" fill="#1D871D"/>
<path d="M158.491 35.6723C158.821 35.4788 159.198 35.3773 159.581 35.3782L159.31 36.9133H158.921C158.554 36.8953 158.191 36.9941 157.884 37.1956C157.579 37.4345 157.37 37.7747 157.295 38.1543L156.753 41.2422H155.28L156.299 35.4605H157.778L157.596 36.4839C157.835 36.1545 158.139 35.8781 158.491 35.6723Z" fill="#1D871D"/>
<path d="M164.312 35.4605L163.287 41.2422H161.814L162.84 35.4605H164.312ZM163.134 34.5783C163.067 34.5127 163.014 34.4339 162.978 34.3469C162.943 34.2598 162.926 34.1664 162.928 34.0725C162.927 33.938 162.955 33.805 163.01 33.6822C163.065 33.5594 163.145 33.4498 163.246 33.3608C163.345 33.264 163.462 33.1876 163.59 33.1361C163.718 33.0847 163.856 33.0591 163.994 33.0608C164.194 33.0543 164.389 33.126 164.536 33.2608C164.604 33.3248 164.657 33.4025 164.693 33.4887C164.729 33.5749 164.745 33.6676 164.742 33.7607C164.745 33.8957 164.718 34.0296 164.665 34.1534C164.611 34.2773 164.531 34.388 164.43 34.4783C164.231 34.6702 163.964 34.7759 163.688 34.7724C163.491 34.7772 163.3 34.7079 163.152 34.5783H163.134Z" fill="#1D871D"/>
<path d="M172.347 35.9781C172.565 36.1904 172.736 36.4465 172.847 36.7293C172.959 37.0121 173.01 37.3154 172.995 37.6191C172.997 37.8164 172.979 38.0134 172.942 38.2073C172.906 38.3898 172.861 38.5704 172.807 38.7484H168.577C168.573 38.8169 168.573 38.8857 168.577 38.9542C168.568 39.1107 168.591 39.2673 168.646 39.4141C168.701 39.5609 168.786 39.6947 168.895 39.8071C169.125 40.0159 169.427 40.1258 169.738 40.1129C170.004 40.1195 170.267 40.0523 170.497 39.9188C170.707 39.7941 170.883 39.6205 171.01 39.413H172.589C172.321 39.9881 171.893 40.4741 171.356 40.813C170.819 41.152 170.196 41.3295 169.561 41.3245C168.912 41.3521 168.278 41.1263 167.793 40.6952C167.569 40.4748 167.393 40.2094 167.278 39.9165C167.164 39.6235 167.112 39.3096 167.128 38.9954C167.128 38.7765 167.148 38.558 167.187 38.3426C167.281 37.775 167.502 37.2361 167.835 36.7663C168.139 36.3288 168.542 35.97 169.013 35.7193C169.503 35.4753 170.044 35.3503 170.592 35.3547C171.236 35.3249 171.867 35.5488 172.347 35.9781ZM171.511 37.6309C171.519 37.4846 171.494 37.3385 171.437 37.2031C171.381 37.0678 171.296 36.9466 171.187 36.8486C170.951 36.6526 170.651 36.5518 170.344 36.5663C169.981 36.5638 169.629 36.6887 169.349 36.9192C169.048 37.1649 168.832 37.4979 168.73 37.872H171.493C171.505 37.7603 171.511 37.6838 171.511 37.6309Z" fill="#1D871D"/>
<path d="M176.878 41.1246C176.559 41.0042 176.279 40.8012 176.065 40.5364C175.866 40.29 175.76 39.9821 175.764 39.6659C175.758 39.5876 175.758 39.509 175.764 39.4306H177.184C177.17 39.539 177.182 39.6492 177.22 39.7517C177.258 39.8543 177.32 39.9459 177.402 40.0188C177.604 40.1787 177.858 40.2583 178.115 40.2423C178.356 40.2493 178.595 40.1968 178.81 40.0894C178.894 40.05 178.964 39.9875 179.013 39.9093C179.062 39.8311 179.088 39.7405 179.087 39.6483C179.086 39.5617 179.061 39.4771 179.015 39.4035C178.97 39.33 178.905 39.2702 178.828 39.2307C178.571 39.0869 178.301 38.9687 178.021 38.8778C177.707 38.7669 177.4 38.6373 177.102 38.4896C176.855 38.3642 176.64 38.1853 176.471 37.9661C176.293 37.7224 176.202 37.4264 176.212 37.125C176.208 36.7972 176.312 36.4772 176.507 36.2134C176.725 35.9454 177.012 35.742 177.337 35.6252C177.727 35.4713 178.143 35.3953 178.563 35.4017C178.967 35.3925 179.368 35.4687 179.741 35.6252C180.05 35.7446 180.32 35.9484 180.519 36.2134C180.702 36.4754 180.799 36.7879 180.795 37.1074C180.8 37.1701 180.8 37.2329 180.795 37.2956H179.44C179.455 37.1878 179.443 37.078 179.407 36.9756C179.37 36.8732 179.308 36.7812 179.228 36.7074C179.032 36.5468 178.781 36.4669 178.527 36.4839C178.319 36.4816 178.115 36.5387 177.938 36.6486C177.863 36.6924 177.802 36.7552 177.759 36.8307C177.717 36.9061 177.695 36.9915 177.697 37.078C177.697 37.1699 177.723 37.26 177.771 37.3386C177.818 37.4173 177.886 37.4817 177.968 37.525C178.234 37.6773 178.514 37.8053 178.804 37.9073C179.114 38.0192 179.415 38.1528 179.706 38.3073C179.934 38.4326 180.134 38.6026 180.295 38.8072C180.466 39.0378 180.553 39.3201 180.542 39.6071C180.549 39.9456 180.434 40.2752 180.218 40.5364C179.979 40.8078 179.672 41.0108 179.328 41.1246C178.921 41.2715 178.489 41.3432 178.056 41.3363C177.653 41.3452 177.252 41.2732 176.878 41.1246Z" fill="#1D871D"/>
<path d="M191.606 33.9607L190.321 41.2422H188.849L190.145 33.9607H191.606Z" fill="#1D871D"/>
<path d="M199.7 35.8664C199.879 36.0475 200.018 36.2642 200.107 36.5024C200.196 36.7405 200.234 36.9947 200.219 37.2486C200.217 37.4457 200.2 37.6424 200.166 37.8367L199.577 41.2304H198.122L198.711 38.0367C198.732 37.9163 198.742 37.7942 198.74 37.672C198.751 37.5278 198.732 37.3828 198.684 37.2462C198.637 37.1096 198.562 36.9843 198.463 36.878C198.246 36.6874 197.962 36.5901 197.674 36.6075C197.31 36.5992 196.955 36.7248 196.678 36.9603C196.383 37.2213 196.19 37.5772 196.13 37.9661L195.541 41.2304H194.068L195.093 35.4488H196.566L196.443 36.1604C196.685 35.9121 196.973 35.7125 197.291 35.5723C197.612 35.4319 197.959 35.3597 198.31 35.3605C198.821 35.3452 199.319 35.5262 199.7 35.8664Z" fill="#1D871D"/>
<path d="M204.03 36.7604C204.338 36.3194 204.749 35.9598 205.227 35.7129C205.706 35.4659 206.237 35.3389 206.776 35.3429C207.386 35.3071 207.988 35.4977 208.466 35.8781C208.677 36.071 208.845 36.3044 208.963 36.5641C209.08 36.8239 209.144 37.1048 209.15 37.3897H207.571C207.543 37.1593 207.427 36.9485 207.247 36.8016C207.046 36.6498 206.798 36.5728 206.546 36.5839C206.345 36.5817 206.146 36.6214 205.961 36.7004C205.777 36.7794 205.61 36.8959 205.474 37.0427C205.152 37.4029 204.946 37.8519 204.884 38.3308C204.852 38.4955 204.834 38.6628 204.831 38.8307C204.81 39.1609 204.916 39.4867 205.126 39.7424C205.231 39.8505 205.358 39.9349 205.498 39.9897C205.638 40.0445 205.789 40.0685 205.939 40.06C206.21 40.0707 206.477 40.0009 206.708 39.8595C206.939 39.7182 207.122 39.5116 207.235 39.266H208.832C208.579 39.8713 208.155 40.3903 207.612 40.7599C207.064 41.1324 206.413 41.3256 205.75 41.3128C205.429 41.3314 205.107 41.2858 204.804 41.1787C204.5 41.0717 204.221 40.9053 203.983 40.6893C203.761 40.471 203.588 40.2082 203.475 39.9183C203.363 39.6283 203.313 39.3178 203.329 39.0072C203.328 38.7801 203.35 38.5535 203.394 38.3308C203.48 37.7649 203.698 37.227 204.03 36.7604Z" fill="#1D871D"/>
<path d="M211.907 41.1187C211.838 41.054 211.784 40.9754 211.749 40.8881C211.713 40.8009 211.697 40.707 211.701 40.6129C211.7 40.4784 211.728 40.3454 211.783 40.2226C211.837 40.0998 211.918 39.9902 212.019 39.9012C212.217 39.7071 212.484 39.5992 212.761 39.6012C212.862 39.5956 212.962 39.6099 213.057 39.6432C213.152 39.6765 213.24 39.7282 213.315 39.7953C213.382 39.861 213.434 39.9399 213.469 40.027C213.503 40.1142 213.519 40.2075 213.515 40.3011C213.516 40.4359 213.489 40.5693 213.435 40.6929C213.381 40.8165 213.302 40.9275 213.203 41.0187C213.105 41.1151 212.989 41.1908 212.862 41.2413C212.734 41.2919 212.598 41.3162 212.461 41.3128C212.258 41.3222 212.059 41.2526 211.907 41.1187Z" fill="#1D871D"/>
<defs>
<radialGradient id="paint0_radial_437_1298" cx="0" cy="0" r="1" gradientUnits="userSpaceOnUse" gradientTransform="translate(99.2373 3.97599) scale(26.9288 26.8851)">
<stop offset="0.23" stop-color="#33C53F"/>
<stop offset="0.71" stop-color="#005E1C"/>
</radialGradient>
<radialGradient id="paint1_radial_437_1298" cx="0" cy="0" r="1" gradientUnits="userSpaceOnUse" gradientTransform="translate(99.2374 3.97599) scale(26.9288 26.8851)">
<stop offset="0.23" stop-color="#33C53F"/>
<stop offset="0.71" stop-color="#005E1C"/>
</radialGradient>
<radialGradient id="paint2_radial_437_1298" cx="0" cy="0" r="1" gradientUnits="userSpaceOnUse" gradientTransform="translate(99.238 3.97601) scale(26.9287 26.8851)">
<stop offset="0.23" stop-color="#33C53F"/>
<stop offset="0.71" stop-color="#005E1C"/>
</radialGradient>
<radialGradient id="paint3_radial_437_1298" cx="0" cy="0" r="1" gradientUnits="userSpaceOnUse" gradientTransform="translate(99.2373 3.976) scale(26.9288 26.8851)">
<stop offset="0.23" stop-color="#33C53F"/>
<stop offset="0.71" stop-color="#005E1C"/>
</radialGradient>
<radialGradient id="paint4_radial_437_1298" cx="0" cy="0" r="1" gradientUnits="userSpaceOnUse" gradientTransform="translate(99.238 3.97602) scale(26.9287 26.8851)">
<stop offset="0.23" stop-color="#33C53F"/>
<stop offset="0.71" stop-color="#005E1C"/>
</radialGradient>
<radialGradient id="paint5_radial_437_1298" cx="0" cy="0" r="1" gradientUnits="userSpaceOnUse" gradientTransform="translate(137.383 3.97599) scale(26.9287 26.8851)">
<stop offset="0.23" stop-color="#33C53F"/>
<stop offset="0.71" stop-color="#005E1C"/>
</radialGradient>
<radialGradient id="paint6_radial_437_1298" cx="0" cy="0" r="1" gradientUnits="userSpaceOnUse" gradientTransform="translate(137.383 3.97599) scale(26.9287 26.8851)">
<stop offset="0.23" stop-color="#33C53F"/>
<stop offset="0.71" stop-color="#005E1C"/>
</radialGradient>
<radialGradient id="paint7_radial_437_1298" cx="0" cy="0" r="1" gradientUnits="userSpaceOnUse" gradientTransform="translate(137.384 3.97601) scale(26.9287 26.8851)">
<stop offset="0.23" stop-color="#33C53F"/>
<stop offset="0.71" stop-color="#005E1C"/>
</radialGradient>
<radialGradient id="paint8_radial_437_1298" cx="0" cy="0" r="1" gradientUnits="userSpaceOnUse" gradientTransform="translate(137.383 3.976) scale(26.9287 26.8851)">
<stop offset="0.23" stop-color="#33C53F"/>
<stop offset="0.71" stop-color="#005E1C"/>
</radialGradient>
<radialGradient id="paint9_radial_437_1298" cx="0" cy="0" r="1" gradientUnits="userSpaceOnUse" gradientTransform="translate(137.384 3.97602) scale(26.9288 26.8851)">
<stop offset="0.23" stop-color="#33C53F"/>
<stop offset="0.71" stop-color="#005E1C"/>
</radialGradient>
<radialGradient id="paint10_radial_437_1298" cx="0" cy="0" r="1" gradientUnits="userSpaceOnUse" gradientTransform="translate(12.6897 19.086) scale(25.1202 25.0794)">
<stop offset="0.23" stop-color="#8BC53F"/>
<stop offset="0.71" stop-color="#007A45"/>
</radialGradient>
<radialGradient id="paint11_radial_437_1298" cx="0" cy="0" r="1" gradientUnits="userSpaceOnUse" gradientTransform="translate(19.8826 29.4671) scale(21.4912 21.4563)">
<stop offset="0.23" stop-color="#33C53F"/>
<stop offset="0.71" stop-color="#005E1C"/>
</radialGradient>
<radialGradient id="paint12_radial_437_1298" cx="0" cy="0" r="1" gradientUnits="userSpaceOnUse" gradientTransform="translate(37.7629 0.12939) scale(33.091 33.0373)">
<stop offset="0.23" stop-color="#8BC53F"/>
<stop offset="0.71" stop-color="#007A45"/>
</radialGradient>
<radialGradient id="paint13_radial_437_1298" cx="0" cy="0" r="1" gradientUnits="userSpaceOnUse" gradientTransform="translate(28.0717 33.1196) scale(26.9052 26.8615)">
<stop offset="0.23" stop-color="#8BC53F"/>
<stop offset="0.71" stop-color="#007A45"/>
</radialGradient>
<radialGradient id="paint14_radial_437_1298" cx="0" cy="0" r="1" gradientUnits="userSpaceOnUse" gradientTransform="translate(41.1027 4.24655) scale(16.1243 16.0981)">
<stop offset="0.23" stop-color="#8BC53F"/>
<stop offset="0.71" stop-color="#007A45"/>
</radialGradient>
<radialGradient id="paint15_radial_437_1298" cx="0" cy="0" r="1" gradientUnits="userSpaceOnUse" gradientTransform="translate(2.65062 26.3557) scale(62.4881 62.3867)">
<stop offset="0.23" stop-color="#33C53F"/>
<stop offset="0.71" stop-color="#005E1C"/>
</radialGradient>
<radialGradient id="paint16_radial_437_1298" cx="0" cy="0" r="1" gradientUnits="userSpaceOnUse" gradientTransform="translate(45.1793 13.9984) scale(17.4734 17.445)">
<stop offset="0.23" stop-color="#33C53F"/>
<stop offset="0.71" stop-color="#005E1C"/>
</radialGradient>
<radialGradient id="paint17_radial_437_1298" cx="0" cy="0" r="1" gradientUnits="userSpaceOnUse" gradientTransform="translate(45.1802 21.3151) scale(10.887 10.8693)">
<stop offset="0.23" stop-color="#33C53F"/>
<stop offset="0.71" stop-color="#005E1C"/>
</radialGradient>
<radialGradient id="paint18_radial_437_1298" cx="0" cy="0" r="1" gradientUnits="userSpaceOnUse" gradientTransform="translate(41.1147 4.54064) scale(15.8415 15.8158)">
<stop offset="0.23" stop-color="#8BC53F"/>
<stop offset="0.71" stop-color="#007A45"/>
</radialGradient>
<radialGradient id="paint19_radial_437_1298" cx="0" cy="0" r="1" gradientUnits="userSpaceOnUse" gradientTransform="translate(44.3865 5.57305) rotate(-24.7398) scale(7.40798 7.40018)">
<stop offset="0.23" stop-color="#8BC53F"/>
<stop offset="0.71" stop-color="#007A45"/>
</radialGradient>
<radialGradient id="paint20_radial_437_1298" cx="0" cy="0" r="1" gradientUnits="userSpaceOnUse" gradientTransform="translate(42.0825 3.13528) rotate(-24.7398) scale(10.0347 10.0241)">
<stop offset="0.23" stop-color="#8BC53F"/>
<stop offset="0.71" stop-color="#007A45"/>
</radialGradient>
<radialGradient id="paint21_radial_437_1298" cx="0" cy="0" r="1" gradientUnits="userSpaceOnUse" gradientTransform="translate(7.02282 14.0156) rotate(178.284) scale(7.39679 7.38482)">
<stop offset="0.23" stop-color="#8BC53F"/>
<stop offset="0.71" stop-color="#007A45"/>
</radialGradient>
<radialGradient id="paint22_radial_437_1298" cx="0" cy="0" r="1" gradientUnits="userSpaceOnUse" gradientTransform="translate(7.99405 10.8194) rotate(178.284) scale(10.0196 10.0033)">
<stop offset="0.23" stop-color="#8BC53F"/>
<stop offset="0.71" stop-color="#007A45"/>
</radialGradient>
<radialGradient id="paint23_radial_437_1298" cx="0" cy="0" r="1" gradientUnits="userSpaceOnUse" gradientTransform="translate(23.9266 13.7682) rotate(0.339448) scale(28.6961 28.6496)">
<stop offset="0.23" stop-color="#8BC53F"/>
<stop offset="0.71" stop-color="#007A45"/>
</radialGradient>
<radialGradient id="paint24_radial_437_1298" cx="0" cy="0" r="1" gradientUnits="userSpaceOnUse" gradientTransform="translate(27.8892 10.1803) rotate(0.339449) scale(18.3806 18.3508)">
<stop offset="0.23" stop-color="#8BC53F"/>
<stop offset="0.71" stop-color="#007A45"/>
</radialGradient>
</defs>
</svg>
