<svg width="24" height="27" viewBox="0 0 24 27" fill="none" xmlns="http://www.w3.org/2000/svg">
<path d="M22.3133 20.5898C21.4735 19.6283 19.4395 18.2251 18.4527 17.6596C17.1675 16.9241 17.0618 16.864 16.0516 17.7167C15.3779 18.2858 14.9299 18.7942 14.1414 18.6031C13.3529 18.412 11.6394 17.3345 10.139 15.6351C8.63861 13.9356 7.63537 11.9321 7.46666 11.0391C7.29796 10.1461 7.75277 9.64316 8.24884 8.87576C8.948 7.79408 8.89511 7.6138 8.2975 6.15352C7.83157 5.01775 6.56073 2.72819 5.71138 1.77871C4.8028 0.758923 4.8028 0.939203 4.21735 1.21563C3.74073 1.4435 3.28347 1.72049 2.85131 2.04312C2.00514 2.68192 1.53551 3.21254 1.20709 4.00998C0.878665 4.80743 0.731114 6.67694 2.42716 10.178C4.12322 13.679 5.31315 15.4692 7.77604 18.26C10.2389 21.0507 12.1328 22.5513 14.9014 24.3156C18.3263 26.4952 19.6399 26.0703 20.3439 25.6978C21.0478 25.3252 21.5169 24.7964 22.0801 23.8349C22.3648 23.3446 22.6091 22.8256 22.8099 22.2844C23.0537 21.6216 23.2124 21.6216 22.3133 20.5898Z" stroke="white" stroke-width="1.4" stroke-miterlimit="10"/>
</svg>
