<svg width="60" height="60" viewBox="0 0 60 60" fill="none" xmlns="http://www.w3.org/2000/svg">
<ellipse cx="39" cy="15.5" rx="14" ry="14.5" fill="#A4B8C1"/>
<ellipse cx="39.5" cy="15" rx="9.5" ry="10" fill="white"/>
<path d="M8 41.5L13.5 56L17.5 53L10.5 40.5L8 41.5Z" fill="#A4B8C1"/>
<path d="M59.4772 37.274C59.0364 36.4478 58.2969 35.8209 57.4097 35.5212C56.5225 35.2214 55.5543 35.2715 54.7027 35.661L38.5081 43.1299C37.7785 43.2142 37.0395 43.1652 36.3273 42.9854C36.0196 42.906 35.5821 42.7802 35.0756 42.635C34.495 42.4673 33.7956 42.2666 33.051 42.0685L38.4952 41.0601C39.6707 40.8239 40.7202 40.1686 41.4485 39.2162C42.1768 38.2638 42.5342 37.0792 42.4542 35.883C42.428 35.5138 42.3282 35.1535 42.1606 34.8235C41.9931 34.4935 41.7612 34.2003 41.4786 33.9612C41.196 33.7222 40.8685 33.5421 40.5152 33.4315C40.162 33.321 39.7902 33.2823 39.4217 33.3177C37.6739 33.3667 36.166 33.4415 34.7072 33.5112C31.0729 33.7445 27.4282 33.7697 23.791 33.5867C23.7539 33.5841 23.7166 33.5841 23.6794 33.5867C17.5442 34.11 15.8467 35.7443 13.8814 37.6373C13.1379 38.3817 12.3418 39.0717 11.4993 39.7019L11.3554 39.4406C11.3042 39.3464 11.2349 39.2631 11.1515 39.1956C11.0681 39.1281 10.9723 39.0777 10.8694 39.0473C10.7665 39.0168 10.6587 39.007 10.552 39.0182C10.4453 39.0295 10.3419 39.0616 10.2476 39.1129L7.82614 40.4278L7.81969 40.4117C7.77725 40.304 7.71244 40.2066 7.62953 40.1258C7.54663 40.0451 7.44753 39.9829 7.33878 39.9433C7.23003 39.9037 7.11411 39.8876 6.9987 39.8962C6.88329 39.9048 6.77101 39.9377 6.6693 39.9929L0.426955 43.3828C0.236525 43.4864 0.0950187 43.6613 0.0335541 43.8692C-0.0279105 44.077 -0.00430061 44.3008 0.0991918 44.4913L8.25327 59.4981C8.30497 59.5932 8.37506 59.6771 8.45945 59.7449C8.54385 59.8127 8.64087 59.8631 8.74489 59.8931C8.84892 59.9231 8.95787 59.9322 9.06542 59.9197C9.17297 59.9073 9.27698 59.8736 9.37141 59.8207L13.7427 57.3689C13.9119 57.2738 14.0418 57.1214 14.1088 56.9392C14.1759 56.757 14.1757 56.5568 14.1085 56.3746L18.3668 54.0596C18.557 53.9558 18.6983 53.7809 18.7597 53.5731C18.8212 53.3654 18.7977 53.1417 18.6946 52.9512L18.5481 52.6815L18.8107 52.6725C19.0165 52.6667 19.2295 52.6608 19.4559 52.6396C21.6341 52.437 23.6097 53.0654 25.7021 53.7319C27.8724 54.5363 30.1578 54.9868 32.471 55.0662C34.1368 55.0585 35.79 54.7764 37.3642 54.2313L37.4235 54.2087C40.3808 52.9835 43.211 51.4719 45.8738 49.6955C46.2527 49.4516 46.631 49.2073 47.0087 48.9625C48.1739 48.2083 49.3785 47.4289 50.5741 46.6811C52.9052 45.2236 55.4131 43.7287 58.2443 42.1105C58.6414 41.8924 58.9912 41.5976 59.2735 41.2431C59.5557 40.8887 59.7646 40.4817 59.8882 40.0458C60.0066 39.5796 60.0313 39.0945 59.9607 38.6187C59.8902 38.1429 59.7258 37.6858 59.4772 37.274ZM9.29076 57.9896L1.92512 44.4313L6.63833 41.8698L12.3232 56.2908L9.29076 57.9896ZM13.5033 54.8403L8.43005 41.9634L10.3089 40.942L16.87 53.0118L13.5033 54.8403ZM58.3081 39.6135C58.2413 39.8424 58.1292 40.0554 57.9785 40.2401C57.8277 40.4247 57.6415 40.5772 57.4307 40.6885C54.5821 42.3169 52.0548 43.8229 49.705 45.2926C48.4985 46.0469 47.2887 46.8295 46.1183 47.587L44.9853 48.3193C42.4098 50.0375 39.6728 51.5004 36.8132 52.6873C32.4368 54.1545 29.2643 53.1454 26.1989 52.1711C24.0433 51.4846 21.8116 50.7749 19.3056 51.0098C19.1295 51.0259 18.9514 51.0311 18.7623 51.0362C18.4081 51.0383 18.0546 51.0698 17.7055 51.1304L12.2858 41.153C13.2552 40.446 14.1677 39.6642 15.015 38.8148C16.8932 37.0082 18.252 35.6985 23.7627 35.2204C27.4362 35.4037 31.1173 35.3776 34.7879 35.1423C36.2377 35.0707 37.7371 34.9971 39.4676 34.9487C39.6313 34.9183 39.7997 34.924 39.9611 34.9653C40.1224 35.0066 40.2729 35.0826 40.4018 35.188C40.5308 35.2934 40.6353 35.4257 40.7079 35.5756C40.7806 35.7254 40.8197 35.8894 40.8225 36.0559C40.8507 36.8398 40.6034 37.6088 40.1236 38.2292C39.6437 38.8497 38.9616 39.2825 38.1959 39.4522L28.9591 41.1653C28.8989 41.1768 28.8401 41.1948 28.7836 41.2188L28.6314 41.2833C28.2622 41.375 27.9109 41.5277 27.5919 41.735L26.508 42.2034C26.351 42.2713 26.2192 42.3869 26.1313 42.5337C26.0434 42.6805 26.0038 42.8512 26.018 43.0217C26.0323 43.1922 26.0997 43.354 26.2107 43.4842C26.3218 43.6144 26.4709 43.7064 26.637 43.7474C26.919 43.7809 27.2049 43.756 27.4767 43.674C27.7486 43.5921 28.0007 43.455 28.2171 43.2712L28.3462 43.1886L29.0701 42.8763H29.0785C30.9525 43.2018 32.8039 43.6461 34.6214 44.2067C35.1376 44.3558 35.5892 44.4848 35.9196 44.5694C36.87 44.8102 37.8575 44.8678 38.8294 44.739C38.9132 44.7287 38.9948 44.7054 39.0714 44.67L55.3847 37.1456C55.8665 36.9267 56.4144 36.903 56.9133 37.0795C57.4123 37.256 57.8234 37.619 58.0604 38.0922C58.2004 38.3173 58.2946 38.5679 58.3376 38.8295C58.3805 39.0911 58.3714 39.3587 58.3107 39.6168L58.3081 39.6135ZM39.2927 30.2949C42.2887 30.2954 45.2175 29.4074 47.7089 27.7433C50.2002 26.0792 52.1421 23.7137 53.2889 20.9459C54.4358 18.1781 54.7362 15.1324 54.152 12.1939C53.5678 9.25542 52.1254 6.55616 50.007 4.4375C47.8887 2.31884 45.1897 0.875926 42.2513 0.291249C39.313 -0.293427 36.2672 0.00639212 33.4992 1.15279C30.7312 2.29919 28.3654 4.24067 26.7008 6.73171C25.0363 9.22275 24.1478 12.1515 24.1478 15.1474C24.1518 19.1631 25.7486 23.0133 28.5879 25.853C31.4271 28.6928 35.277 30.2903 39.2927 30.2949ZM39.2927 1.63431C41.9655 1.6338 44.5783 2.42589 46.8009 3.91043C49.0235 5.39496 50.7559 7.50524 51.7791 9.9744C52.8022 12.4436 53.0702 15.1607 52.5491 17.7821C52.028 20.4036 50.7412 22.8117 48.8514 24.7018C46.9617 26.5919 44.5539 27.8791 41.9325 28.4007C39.3111 28.9224 36.594 28.6549 34.1246 27.6322C31.6553 26.6095 29.5447 24.8775 28.0597 22.6552C26.5747 20.4329 25.7821 17.8202 25.7821 15.1474C25.7862 11.5652 27.2109 8.13089 29.7437 5.59765C32.2764 3.06441 35.7105 1.63909 39.2927 1.63431ZM39.2927 25.6926C41.3785 25.6932 43.4175 25.0751 45.152 23.9167C46.8865 22.7583 48.2385 21.1115 49.037 19.1847C49.8356 17.2579 50.0448 15.1375 49.6382 13.0918C49.2316 11.046 48.2274 9.1668 46.7528 7.69177C45.2781 6.21674 43.3991 5.21215 41.3535 4.80505C39.3079 4.39795 37.1874 4.60664 35.2604 5.4047C33.3334 6.20277 31.6863 7.55437 30.5274 9.28857C29.3686 11.0228 28.7501 13.0617 28.7501 15.1474C28.7533 17.9428 29.865 20.6227 31.8414 22.5995C33.8177 24.5764 36.4974 25.6887 39.2927 25.6926ZM39.2927 6.23654C41.0552 6.23603 42.7783 6.75821 44.244 7.73704C45.7098 8.71588 46.8523 10.1074 47.5271 11.7356C48.202 13.3638 48.3788 15.1556 48.0353 16.8843C47.6917 18.613 46.8433 20.201 45.5972 21.4475C44.351 22.694 42.7633 23.5429 41.0347 23.8869C39.306 24.231 37.5142 24.0547 35.8858 23.3803C34.2574 22.7059 32.8656 21.5638 31.8863 20.0983C30.9071 18.6329 30.3844 16.91 30.3844 15.1474C30.3871 12.7854 31.3265 10.5209 32.9964 8.85041C34.6664 7.17996 36.9307 6.23996 39.2927 6.23654ZM36.3506 17.9037V16.8372C36.3566 16.6245 36.4453 16.4225 36.5979 16.2741C36.7505 16.1257 36.9549 16.0427 37.1677 16.0427C37.3806 16.0427 37.585 16.1257 37.7376 16.2741C37.8902 16.4225 37.9789 16.6245 37.9849 16.8372V17.9037C37.9844 18.139 38.0772 18.3648 38.2431 18.5316C38.4089 18.6985 38.6342 18.7926 38.8694 18.7935H39.7205C39.9558 18.7926 40.1811 18.6985 40.3471 18.5317C40.513 18.3649 40.606 18.139 40.6057 17.9037V16.8372C40.6057 16.1656 40.4496 16.063 39.2153 15.9436C38.2139 15.8456 36.3506 15.6623 36.3506 13.4273V12.3569C36.3509 11.756 36.5655 11.175 36.9557 10.718C37.346 10.2611 37.8863 9.95827 38.4797 9.86387V8.88252C38.4767 8.77328 38.4955 8.66453 38.5352 8.5627C38.5749 8.46088 38.6346 8.36805 38.7108 8.28969C38.787 8.21134 38.8781 8.14906 38.9788 8.10653C39.0794 8.064 39.1876 8.04208 39.2969 8.04208C39.4062 8.04208 39.5144 8.064 39.615 8.10653C39.7157 8.14906 39.8068 8.21134 39.883 8.28969C39.9592 8.36805 40.0189 8.46088 40.0586 8.5627C40.0983 8.66453 40.1171 8.77328 40.114 8.88252V9.86387C40.7074 9.95839 41.2477 10.2613 41.6379 10.7182C42.0281 11.1751 42.2427 11.7561 42.2432 12.3569V13.4241C42.2372 13.6369 42.1485 13.8389 41.9959 13.9872C41.8433 14.1356 41.6389 14.2186 41.4261 14.2186C41.2132 14.2186 41.0088 14.1356 40.8562 13.9872C40.7036 13.8389 40.6149 13.6369 40.6089 13.4241V12.3569C40.6091 12.1218 40.516 11.8961 40.3501 11.7294C40.1841 11.5628 39.9589 11.4687 39.7237 11.4678H38.8694C38.6343 11.4687 38.4091 11.5628 38.2433 11.7295C38.0775 11.8962 37.9845 12.1218 37.9849 12.3569V13.4241C37.9849 14.0958 38.1404 14.1983 39.3753 14.3171C40.376 14.4158 42.24 14.599 42.24 16.8372V17.9037C42.2398 18.5113 42.0205 19.0984 41.6224 19.5574C41.2244 20.0164 40.6742 20.3165 40.0728 20.4026V21.4124C40.0758 21.5216 40.057 21.6304 40.0173 21.7322C39.9776 21.834 39.9179 21.9268 39.8417 22.0052C39.7655 22.0835 39.6744 22.1458 39.5737 22.1884C39.4731 22.2309 39.3649 22.2528 39.2556 22.2528C39.1463 22.2528 39.0381 22.2309 38.9375 22.1884C38.8368 22.1458 38.7457 22.0835 38.6695 22.0052C38.5933 21.9268 38.5336 21.834 38.4939 21.7322C38.4542 21.6304 38.4354 21.5216 38.4384 21.4124V20.3904C37.8537 20.2874 37.3239 19.9817 36.9421 19.527C36.5602 19.0722 36.3508 18.4975 36.3506 17.9037Z" fill="#1B1B1B"/>
</svg>
