<svg width="80" height="57" viewBox="0 0 80 57" fill="none" xmlns="http://www.w3.org/2000/svg">
<rect x="13" y="36" width="3" height="8.7" fill="#A4B8C1"/>
<rect x="22" y="36" width="3" height="8.7" fill="#A4B8C1"/>
<rect x="31" y="36" width="3" height="8.7" fill="#A4B8C1"/>
<path d="M47.5 36.5V40H66.5V37L65 35.5H49L47.5 36.5Z" fill="#A4B8C1"/>
<path d="M24.5 22.5V27.5L44.5 17V12.5L24.5 22.5Z" fill="#A4B8C1"/>
<path d="M2.5 25V30L25 17.5V13L2.5 25Z" fill="#A4B8C1"/>
<path d="M30.3279 35.0148H34.8062C34.9894 35.0148 35.1396 35.165 35.1396 35.3482V45.4327C35.1396 45.6158 34.9894 45.766 34.8062 45.766H30.3279C30.1447 45.766 29.9945 45.6158 29.9945 45.4327V35.3482C29.9945 35.165 30.1447 35.0148 30.3279 35.0148Z" stroke="#1B1B1B" stroke-width="1.2"/>
<path d="M12.3338 35.0148H16.8121C16.9953 35.0148 17.1455 35.165 17.1455 35.3482V45.4327C17.1455 45.6158 16.9953 45.766 16.8121 45.766H12.3338C12.1506 45.766 12.0004 45.6158 12.0004 45.4327V35.3482C12.0004 35.165 12.1506 35.0148 12.3338 35.0148Z" stroke="#1B1B1B" stroke-width="1.2"/>
<path d="M21.3298 35.0148H25.8082C25.9914 35.0148 26.1416 35.165 26.1416 35.3482V45.4327C26.1416 45.6158 25.9914 45.766 25.8082 45.766H21.3298C21.1467 45.766 20.9965 45.6158 20.9965 45.4327V35.3482C20.9965 35.165 21.1467 35.0148 21.3298 35.0148Z" stroke="#1B1B1B" stroke-width="1.2"/>
<path d="M52.5 7.5L52 12H62.5L62 7.5H52.5Z" fill="#A4B8C1"/>
<mask id="path-11-inside-1_190_38981" fill="white">
<path d="M78.7256 53.8927H75.5246V31.9557C75.5246 31.4861 75.2674 31.0553 74.8545 30.8339L66.0504 26.0983L62.4635 2.10007C62.29 0.903448 61.246 0 60.0344 0H54.1201C52.9115 0 51.8675 0.903448 51.694 2.09408L48.1071 26.0953L44.2211 28.1864V18.8438L45.1335 18.3442C45.7886 17.9852 46.1955 17.3001 46.1955 16.5552V13.115C46.1955 12.388 45.8216 11.7329 45.1963 11.3619C44.5711 10.991 43.8172 10.979 43.177 11.326L25.6256 20.9259V18.8886L26.0564 18.6553C26.7085 18.2993 27.1154 17.6172 27.1154 16.8753V13.4081C27.1154 12.6842 26.7444 12.035 26.1222 11.664C25.5 11.2961 24.7521 11.2811 24.1179 11.6252L1.80091 23.7738C1.14875 24.1298 0.741904 24.8119 0.741904 25.5538V29.021C0.741904 29.745 1.11286 30.3941 1.7351 30.7651C2.05819 30.9565 2.41418 31.0523 2.77017 31.0523C3.10224 31.0523 3.4343 30.9685 3.73944 30.804L4.47536 30.4031V53.8927H1.2744C0.571386 53.8927 0 54.4641 0 55.1672C0 55.8702 0.571386 56.4416 1.2744 56.4416H78.7256C79.4286 56.4416 80 55.8702 80 55.1672C80 54.4641 79.4286 53.8927 78.7256 53.8927ZM65.3564 38.929H48.8011V37.7504C48.8011 37.0563 49.3665 36.4939 50.0606 36.4939H64.0999C64.794 36.4939 65.3594 37.0593 65.3594 37.7504V38.929H65.3564ZM48.8011 53.8927V41.4808H65.3564V53.8927H48.8011ZM67.9082 40.2064V37.7504C67.9082 35.6503 66.2 33.9421 64.0999 33.9421H50.0606C47.9605 33.9421 46.2523 35.6503 46.2523 37.7504V53.8927H41.1876V32.7186L41.6753 32.4553L42.9497 31.7702L44.2241 31.0852L48.0622 29.021L49.4772 28.2582L51.8495 26.9838L57.0817 24.1687L62.314 26.9838L64.6863 28.2582L66.1013 29.021L72.9788 32.7186V53.8927H67.9141V40.2064H67.9082ZM3.29669 25.8649L24.5636 14.2846V16.5612L24.1238 16.8005L5.86044 26.7444L3.29669 28.1415V25.8649ZM43.6437 16.2531L42.5817 16.8334L25.6256 26.1043V23.8307L43.6437 13.9765V16.2501V16.2531ZM7.02715 29.012L7.11689 28.9642L23.0738 20.2767V28.2582C23.0738 28.315 23.0768 28.3689 23.0858 28.4257C23.0858 28.4317 23.0858 28.4377 23.0888 28.4436C23.0948 28.4915 23.1037 28.5424 23.1187 28.5872C23.1187 28.5872 23.1187 28.5872 23.1187 28.5902C23.1336 28.6411 23.1486 28.6919 23.1695 28.7428C23.1695 28.7458 23.1725 28.7518 23.1755 28.7548C23.1965 28.7996 23.2174 28.8475 23.2413 28.8894C23.2473 28.8984 23.2533 28.9043 23.2563 28.9133C23.2802 28.9522 23.3042 28.9911 23.3311 29.027C23.352 29.0539 23.373 29.0779 23.3969 29.1018C23.4119 29.1167 23.4238 29.1347 23.4388 29.1497C23.5166 29.2274 23.6033 29.2962 23.699 29.3561C23.7499 29.386 23.8008 29.4099 23.8516 29.4338C23.8606 29.4368 23.8726 29.4398 23.8845 29.4458C23.9264 29.4608 23.9683 29.4787 24.0102 29.4907C24.0281 29.4967 24.0491 29.4997 24.067 29.5027C24.1029 29.5116 24.1388 29.5206 24.1747 29.5236C24.1956 29.5266 24.2196 29.5266 24.2405 29.5296C24.2734 29.5296 24.3063 29.5356 24.3422 29.5356C24.3452 29.5356 24.3482 29.5356 24.3512 29.5356C24.3781 29.5356 24.4021 29.5326 24.429 29.5296C24.4529 29.5296 24.4769 29.5296 24.5008 29.5236C24.5307 29.5206 24.5606 29.5146 24.5905 29.5086C24.6145 29.5056 24.6354 29.5027 24.6593 29.4967C24.6922 29.4877 24.7281 29.4757 24.761 29.4638C24.779 29.4578 24.7969 29.4548 24.8149 29.4458C24.8658 29.4249 24.9136 29.4039 24.9645 29.377L41.6723 20.2408V29.5595L39.306 30.8339C38.8931 31.0553 38.6358 31.489 38.6358 31.9557V53.8927H7.02715V29.015V29.012ZM59.9506 2.55179L60.4173 5.67796H53.7372L54.2039 2.55179H59.9506ZM53.3573 8.22975H60.8002L61.1802 10.7696H52.9803L53.3573 8.22975ZM52.5974 13.3184H61.5601L63.2443 24.5905L57.683 21.599C57.3061 21.3956 56.8514 21.3956 56.4745 21.599L50.9132 24.5905L52.5974 13.3184Z"/>
</mask>
<path d="M78.7256 53.8927H75.5246V31.9557C75.5246 31.4861 75.2674 31.0553 74.8545 30.8339L66.0504 26.0983L62.4635 2.10007C62.29 0.903448 61.246 0 60.0344 0H54.1201C52.9115 0 51.8675 0.903448 51.694 2.09408L48.1071 26.0953L44.2211 28.1864V18.8438L45.1335 18.3442C45.7886 17.9852 46.1955 17.3001 46.1955 16.5552V13.115C46.1955 12.388 45.8216 11.7329 45.1963 11.3619C44.5711 10.991 43.8172 10.979 43.177 11.326L25.6256 20.9259V18.8886L26.0564 18.6553C26.7085 18.2993 27.1154 17.6172 27.1154 16.8753V13.4081C27.1154 12.6842 26.7444 12.035 26.1222 11.664C25.5 11.2961 24.7521 11.2811 24.1179 11.6252L1.80091 23.7738C1.14875 24.1298 0.741904 24.8119 0.741904 25.5538V29.021C0.741904 29.745 1.11286 30.3941 1.7351 30.7651C2.05819 30.9565 2.41418 31.0523 2.77017 31.0523C3.10224 31.0523 3.4343 30.9685 3.73944 30.804L4.47536 30.4031V53.8927H1.2744C0.571386 53.8927 0 54.4641 0 55.1672C0 55.8702 0.571386 56.4416 1.2744 56.4416H78.7256C79.4286 56.4416 80 55.8702 80 55.1672C80 54.4641 79.4286 53.8927 78.7256 53.8927ZM65.3564 38.929H48.8011V37.7504C48.8011 37.0563 49.3665 36.4939 50.0606 36.4939H64.0999C64.794 36.4939 65.3594 37.0593 65.3594 37.7504V38.929H65.3564ZM48.8011 53.8927V41.4808H65.3564V53.8927H48.8011ZM67.9082 40.2064V37.7504C67.9082 35.6503 66.2 33.9421 64.0999 33.9421H50.0606C47.9605 33.9421 46.2523 35.6503 46.2523 37.7504V53.8927H41.1876V32.7186L41.6753 32.4553L42.9497 31.7702L44.2241 31.0852L48.0622 29.021L49.4772 28.2582L51.8495 26.9838L57.0817 24.1687L62.314 26.9838L64.6863 28.2582L66.1013 29.021L72.9788 32.7186V53.8927H67.9141V40.2064H67.9082ZM3.29669 25.8649L24.5636 14.2846V16.5612L24.1238 16.8005L5.86044 26.7444L3.29669 28.1415V25.8649ZM43.6437 16.2531L42.5817 16.8334L25.6256 26.1043V23.8307L43.6437 13.9765V16.2501V16.2531ZM7.02715 29.012L7.11689 28.9642L23.0738 20.2767V28.2582C23.0738 28.315 23.0768 28.3689 23.0858 28.4257C23.0858 28.4317 23.0858 28.4377 23.0888 28.4436C23.0948 28.4915 23.1037 28.5424 23.1187 28.5872C23.1187 28.5872 23.1187 28.5872 23.1187 28.5902C23.1336 28.6411 23.1486 28.6919 23.1695 28.7428C23.1695 28.7458 23.1725 28.7518 23.1755 28.7548C23.1965 28.7996 23.2174 28.8475 23.2413 28.8894C23.2473 28.8984 23.2533 28.9043 23.2563 28.9133C23.2802 28.9522 23.3042 28.9911 23.3311 29.027C23.352 29.0539 23.373 29.0779 23.3969 29.1018C23.4119 29.1167 23.4238 29.1347 23.4388 29.1497C23.5166 29.2274 23.6033 29.2962 23.699 29.3561C23.7499 29.386 23.8008 29.4099 23.8516 29.4338C23.8606 29.4368 23.8726 29.4398 23.8845 29.4458C23.9264 29.4608 23.9683 29.4787 24.0102 29.4907C24.0281 29.4967 24.0491 29.4997 24.067 29.5027C24.1029 29.5116 24.1388 29.5206 24.1747 29.5236C24.1956 29.5266 24.2196 29.5266 24.2405 29.5296C24.2734 29.5296 24.3063 29.5356 24.3422 29.5356C24.3452 29.5356 24.3482 29.5356 24.3512 29.5356C24.3781 29.5356 24.4021 29.5326 24.429 29.5296C24.4529 29.5296 24.4769 29.5296 24.5008 29.5236C24.5307 29.5206 24.5606 29.5146 24.5905 29.5086C24.6145 29.5056 24.6354 29.5027 24.6593 29.4967C24.6922 29.4877 24.7281 29.4757 24.761 29.4638C24.779 29.4578 24.7969 29.4548 24.8149 29.4458C24.8658 29.4249 24.9136 29.4039 24.9645 29.377L41.6723 20.2408V29.5595L39.306 30.8339C38.8931 31.0553 38.6358 31.489 38.6358 31.9557V53.8927H7.02715V29.015V29.012ZM59.9506 2.55179L60.4173 5.67796H53.7372L54.2039 2.55179H59.9506ZM53.3573 8.22975H60.8002L61.1802 10.7696H52.9803L53.3573 8.22975ZM52.5974 13.3184H61.5601L63.2443 24.5905L57.683 21.599C57.3061 21.3956 56.8514 21.3956 56.4745 21.599L50.9132 24.5905L52.5974 13.3184Z" fill="#1B1B1B" stroke="white" mask="url(#path-11-inside-1_190_38981)"/>
</svg>
