<svg width="80" height="62" viewBox="0 0 80 62" fill="none" xmlns="http://www.w3.org/2000/svg">
<rect x="13.125" y="23.625" width="5.25" height="11.375" fill="#A4B8C1"/>
<rect x="51.625" y="23.625" width="5.25" height="11.375" fill="#A4B8C1"/>
<rect x="23.625" y="1.75" width="23.625" height="11.375" fill="#A4B8C1"/>
<path d="M47.775 11.6667V12.0167H48.125H65.625C67.9109 12.0167 69.65 13.7558 69.65 16.0417V29.1667V56.875C69.65 59.1609 67.9109 60.9 65.625 60.9H4.375C2.08913 60.9 0.35 59.1609 0.35 56.875V16.0417C0.35 13.7558 2.08913 12.0167 4.375 12.0167H21.875H22.225V11.6667V4.375C22.225 2.08913 23.9641 0.35 26.25 0.35H43.75C46.0359 0.35 47.775 2.08913 47.775 4.375V11.6667ZM52.9375 24.4417H52.5875V24.7917V28.8167V29.1667V33.5417V33.8917H52.9375H55.8542H56.2042V33.5417V24.7917V24.4417H55.8542H52.9375ZM45.2083 12.0167H45.5583V11.6667V4.375C45.5583 3.85796 45.3845 3.3999 45.0548 3.07022C44.7251 2.74054 44.267 2.56667 43.75 2.56667H26.25C25.733 2.56667 25.2749 2.74054 24.9452 3.07022C24.6155 3.3999 24.4417 3.85796 24.4417 4.375V11.6667V12.0167H24.7917H45.2083ZM17.0625 14.2333H16.7125V14.5833V21.875V22.225H17.0625H18.5208C18.8788 22.225 19.1499 22.3428 19.3306 22.5235C19.5114 22.7043 19.6292 22.9754 19.6292 23.3333V27.7083V28.0583H19.9792H50.1667H50.5167V27.7083V23.3333C50.5167 22.9754 50.6345 22.7043 50.8152 22.5235C50.9959 22.3428 51.267 22.225 51.625 22.225H53.0833H53.4333V21.875V14.5833V14.2333H53.0833H17.0625ZM17.0625 33.8917H17.4125V33.5417V29.1667V24.7917V24.4417H17.0625H14.1458H13.7958V24.7917V33.5417V33.8917H14.1458H17.0625ZM14.4958 14.5833V14.2333H14.1458H4.375C3.85796 14.2333 3.3999 14.4072 3.07022 14.7369C2.74054 15.0666 2.56667 15.5246 2.56667 16.0417V27.7083V28.0583H2.91667H11.2292H11.5792V27.7083V23.3333C11.5792 22.9754 11.697 22.7043 11.8777 22.5235C12.0584 22.3428 12.3295 22.225 12.6875 22.225H14.1458H14.4958V21.875V14.5833ZM2.91667 30.275H2.56667V30.625V56.875C2.56667 57.392 2.74054 57.8501 3.07022 58.1798C3.3999 58.5095 3.85796 58.6833 4.375 58.6833H65.625C66.142 58.6833 66.6001 58.5095 66.9298 58.1798C67.2595 57.8501 67.4333 57.392 67.4333 56.875V30.625V30.275H67.0833H58.9167H58.5667V30.625V35C58.5667 35.358 58.4489 35.6291 58.2681 35.8098C58.0874 35.9905 57.8163 36.1083 57.4583 36.1083H51.625C51.267 36.1083 50.9959 35.9905 50.8152 35.8098C50.6345 35.6291 50.5167 35.358 50.5167 35V30.625V30.275H50.1667H19.9792H19.6292V30.625V35C19.6292 35.358 19.5114 35.6291 19.3306 35.8098C19.1499 35.9905 18.8788 36.1083 18.5208 36.1083H12.6875C12.3295 36.1083 12.0584 35.9905 11.8777 35.8098C11.697 35.6291 11.5792 35.358 11.5792 35V30.625V30.275H11.2292H2.91667ZM67.0833 28.0583H67.4333V27.7083V16.0417C67.4333 15.5246 67.2595 15.0666 66.9298 14.7369C66.6001 14.4072 66.142 14.2333 65.625 14.2333H55.8542H55.5042V14.5833V21.875V22.225H55.8542H57.3125C57.6705 22.225 57.9416 22.3428 58.1223 22.5235C58.303 22.7043 58.4208 22.9754 58.4208 23.3333V27.7083V28.0583H58.7708H67.0833Z" fill="#1B1B1B" stroke="white" stroke-width="0.7"/>
</svg>
