<svg width="67" height="59" viewBox="0 0 67 59" fill="none" xmlns="http://www.w3.org/2000/svg">
<path d="M66.2782 50.9725L52.2187 26.8203L38.1591 2.69131C37.1968 1.04404 35.4129 0 33.4883 0C31.5636 0 29.7797 1.02084 28.8174 2.66811L0.721755 50.9261C-0.240585 52.5733 -0.240585 54.6382 0.721755 56.2855C1.6841 57.956 3.44447 59 5.39263 59H61.6074C63.532 59 65.3159 57.956 66.2782 56.3087C67.2406 54.6614 67.2406 52.6197 66.2782 50.9725ZM30.6717 18.2127C30.6717 16.7279 31.8687 15.5446 33.3709 15.5446C34.8731 15.5446 36.0702 16.7279 36.0702 18.2127V36.5415C36.0702 38.0263 34.8731 39.2096 33.3709 39.2096C31.8687 39.2096 30.6717 38.0263 30.6717 36.5415V18.2127ZM33.4883 50.23C31.5401 50.23 29.9675 48.6756 29.9675 46.7499C29.9675 44.8242 31.5401 43.2698 33.4883 43.2698C35.4364 43.2698 37.009 44.8242 37.009 46.7499C37.009 48.6756 35.4364 50.23 33.4883 50.23Z" fill="#A4B8C1"/>
</svg>
