<svg width="60" height="72" viewBox="0 0 60 72" fill="none" xmlns="http://www.w3.org/2000/svg">
<circle cx="18" cy="54" r="16" fill="#A4B8C1"/>
<circle cx="18" cy="54" r="12" fill="white"/>
<path d="M59.6479 31.4942C59.4659 31.1495 59.2175 30.8445 58.9172 30.5969C58.6168 30.3492 58.2704 30.1638 57.898 30.0515L29.7261 21.4748C28.9751 21.2477 28.165 21.3285 27.4733 21.6994C26.7815 22.0702 26.2646 22.701 26.0357 23.4534L24.9501 27.0397C24.7239 27.7929 24.8046 28.6054 25.1745 29.2991C25.5444 29.9928 26.1734 30.5113 26.9237 30.7408L37.6721 34.0171H14.7914C14.0064 34.0179 13.2537 34.331 12.6987 34.8877C12.1436 35.4444 11.8314 36.1992 11.8306 36.9865V37.3073C9.34916 38.1756 7.09253 39.5889 5.22555 41.444C3.35858 43.299 1.92843 45.549 1.0396 48.0294C0.150779 50.5098 -0.174267 53.1581 0.0882165 55.7806C0.3507 58.4032 1.19408 60.9338 2.55674 63.1876C3.91939 65.4414 5.7669 67.3614 7.96425 68.8073C10.1616 70.2532 12.6533 71.1885 15.2573 71.5448C17.8613 71.9012 20.5117 71.6696 23.015 70.867C25.5183 70.0644 27.8112 68.711 29.7261 66.9058H48.6781C49.4631 66.905 50.2157 66.5918 50.7708 66.0351C51.3258 65.4784 51.638 64.7236 51.6389 63.9364V60.1882C51.6395 59.4508 51.3652 58.7399 50.87 58.1949C51.3654 57.6504 51.6396 56.9396 51.6389 56.2025V52.4543C51.6382 52.1074 51.5766 51.7634 51.4566 51.438H53.7216C54.5069 51.4374 55.2598 51.1244 55.8151 50.5677C56.3705 50.011 56.683 49.2561 56.684 48.4686V44.7196C56.683 43.9324 56.3707 43.1777 55.8157 42.6211C55.2606 42.0644 54.5081 41.7512 53.7232 41.7502H47.0112C47.1314 41.4249 47.1933 41.0809 47.1942 40.7339V36.9865C47.1942 36.9626 47.1942 36.9387 47.1942 36.9148L55.0925 39.3221C55.4644 39.4361 55.8551 39.475 56.242 39.4365C56.629 39.3979 57.0045 39.2828 57.3467 39.0977C57.6904 38.9151 57.9946 38.666 58.2416 38.3648C58.4886 38.0636 58.6737 37.7162 58.786 37.3428L59.8716 33.7565C59.9853 33.3833 60.024 32.9912 59.9856 32.6029C59.9472 32.2145 59.8324 31.8377 59.6479 31.4942ZM17.6553 69.7541C14.5506 69.7541 11.5157 68.8308 8.93428 67.1009C6.35285 65.3711 4.34087 62.9123 3.15277 60.0357C1.96467 57.159 1.65381 53.9936 2.2595 50.9398C2.86519 47.8859 4.36022 45.0808 6.55555 42.8791C8.75087 40.6774 11.5479 39.178 14.5929 38.5705C17.6379 37.9631 20.7941 38.2749 23.6625 39.4664C26.5308 40.658 28.9824 42.6758 30.7072 45.2647C32.4321 47.8537 33.3527 50.8974 33.3527 54.0111C33.3481 58.185 31.6927 62.1865 28.7499 65.1379C25.8071 68.0893 21.8171 69.7494 17.6553 69.7541ZM49.6914 63.9364C49.6912 64.2058 49.5843 64.4642 49.3944 64.6547C49.2044 64.8453 48.9467 64.9524 48.6781 64.9526H31.5137C32.8701 63.2299 33.8945 61.2687 34.5344 59.1696H48.6811C48.9498 59.1698 49.2074 59.2769 49.3974 59.4675C49.5874 59.658 49.6943 59.9164 49.6945 60.1858L49.6914 63.9364ZM49.6914 52.4543V56.2025C49.6912 56.4719 49.5843 56.7303 49.3944 56.9209C49.2044 57.1114 48.9467 57.2185 48.6781 57.2188H35.0088C35.3586 55.3098 35.394 53.3562 35.1134 51.4357H48.6781C48.8113 51.4358 48.9432 51.4622 49.0662 51.5135C49.1893 51.5647 49.3011 51.6398 49.3952 51.7344C49.4893 51.829 49.5639 51.9413 49.6147 52.0648C49.6655 52.1883 49.6916 52.3207 49.6914 52.4543ZM54.735 44.7196V48.4678C54.7348 48.7373 54.6279 48.9957 54.438 49.1862C54.248 49.3768 53.9903 49.4839 53.7216 49.4841H34.7144C34.1655 47.406 33.2423 45.4461 31.9904 43.701H53.7216C53.8549 43.7011 53.9868 43.7276 54.1098 43.7788C54.2329 43.8301 54.3447 43.9052 54.4388 43.9997C54.5329 44.0943 54.6075 44.2066 54.6583 44.3301C54.7091 44.4537 54.7352 44.586 54.735 44.7196ZM45.2467 36.9865V40.7347C45.2463 41.0043 45.1393 41.2626 44.9492 41.4532C44.7591 41.6437 44.5014 41.7508 44.2326 41.751H30.3673C28.2695 39.559 25.6438 37.9463 22.7435 37.0684C19.8432 36.1905 16.7663 36.077 13.8096 36.739C13.8643 36.5192 13.9906 36.3241 14.1685 36.1844C14.3463 36.0447 14.5655 35.9686 14.7914 35.9679H44.0842L44.8823 36.2108C44.9958 36.3056 45.0872 36.4242 45.1502 36.5582C45.2132 36.6922 45.2461 36.8384 45.2467 36.9865ZM58.0095 33.1882L56.9223 36.7776C56.8439 37.0352 56.6668 37.2511 56.4298 37.378C56.1929 37.5049 55.9155 37.5324 55.6584 37.4546L27.4857 28.8748C27.2287 28.7963 27.0133 28.6187 26.8867 28.381C26.7602 28.1434 26.7328 27.865 26.8107 27.6072L27.8963 24.0209C27.9597 23.8124 28.0882 23.6297 28.2629 23.5C28.4375 23.3702 28.6492 23.3001 28.8666 23.3C28.9661 23.2999 29.0651 23.3147 29.1602 23.3439L57.3329 31.9198C57.5892 31.9995 57.8039 32.1774 57.9303 32.4149C58.0566 32.6524 58.0845 32.9302 58.0079 33.1882H58.0095ZM2.2239 20.1478C2.55726 20.8609 3.1594 21.4121 3.89789 21.68C4.63638 21.948 5.45075 21.9108 6.1619 21.5766L32.8222 9.04972C33.5321 8.71428 34.0806 8.11046 34.3476 7.37041C34.6146 6.63037 34.5784 5.81438 34.2469 5.10104L32.6616 1.70832C32.3277 0.995811 31.7257 0.445223 30.9875 0.177359C30.2494 -0.0905055 29.4355 -0.0537666 28.7243 0.279514L2.06398 12.8049C1.35323 13.1396 0.803772 13.7432 0.536008 14.4835C0.268244 15.2238 0.304011 16.0404 0.63547 16.7543L2.2239 20.1478ZM2.36921 15.1489C2.41367 15.0233 2.48258 14.9077 2.57193 14.809C2.66128 14.7102 2.7693 14.6302 2.88971 14.5737L29.5508 2.04605C29.7943 1.93207 30.073 1.91961 30.3256 2.0114C30.5783 2.10319 30.7844 2.29174 30.8986 2.53568L32.4839 5.92841C32.5976 6.17263 32.61 6.45209 32.5185 6.70548C32.427 6.95888 32.239 7.16553 31.9957 7.2801L5.3354 19.8085C5.09173 19.9214 4.81348 19.9334 4.56111 19.8417C4.30873 19.75 4.10264 19.5621 3.98762 19.3189L2.40227 15.9262C2.34568 15.8053 2.31362 15.6743 2.30794 15.5409C2.30227 15.4074 2.32309 15.2742 2.36921 15.1489ZM17.6553 40.8805C15.0658 40.8805 12.5345 41.6506 10.3814 43.0934C8.22838 44.5362 6.55027 46.5869 5.55932 48.9862C4.56838 51.3855 4.3091 54.0257 4.81428 56.5727C5.31946 59.1198 6.56641 61.4595 8.39744 63.2958C10.2285 65.1322 12.5614 66.3828 15.1011 66.8894C17.6408 67.3961 20.2733 67.136 22.6656 66.1422C25.058 65.1484 27.1028 63.4654 28.5414 61.3061C29.98 59.1467 30.7479 56.6081 30.7479 54.0111C30.744 50.5298 29.3634 47.1922 26.9089 44.7306C24.4544 42.269 21.1265 40.8843 17.6553 40.8805ZM17.6553 65.1886C15.4504 65.1886 13.295 64.5329 11.4617 63.3043C9.62839 62.0758 8.1995 60.3296 7.35572 58.2866C6.51193 56.2436 6.29116 53.9956 6.72132 51.8268C7.15148 49.658 8.21324 47.6658 9.77234 46.1021C11.3314 44.5385 13.3179 43.4737 15.4804 43.0422C17.6429 42.6108 19.8845 42.8323 21.9215 43.6785C23.9586 44.5247 25.6997 45.9578 26.9247 47.7964C28.1497 49.635 28.8035 51.7967 28.8035 54.008C28.8009 56.9725 27.6255 59.8147 25.5353 61.9109C23.4452 64.0071 20.6112 65.1859 17.6553 65.1886ZM21.0751 50.7942V52.024C21.0788 52.1546 21.0563 52.2845 21.009 52.4062C20.9617 52.5279 20.8906 52.6389 20.7998 52.7325C20.709 52.8261 20.6004 52.9006 20.4805 52.9514C20.3605 53.0022 20.2316 53.0284 20.1014 53.0284C19.9711 53.0284 19.8422 53.0022 19.7223 52.9514C19.6023 52.9006 19.4937 52.8261 19.403 52.7325C19.3122 52.6389 19.241 52.5279 19.1937 52.4062C19.1465 52.2845 19.124 52.1546 19.1276 52.024V50.7942C19.128 50.532 19.0247 50.2805 18.8404 50.0947C18.656 49.9089 18.4056 49.8041 18.1443 49.8033H17.1656C16.9042 49.8041 16.6539 49.9089 16.4695 50.0947C16.2851 50.2805 16.1818 50.532 16.1822 50.7942V52.024C16.1822 52.7488 16.2891 52.8761 17.7499 53.0195C18.9116 53.1344 21.0743 53.3472 21.0743 55.9596V57.1894C21.0736 57.8925 20.822 58.572 20.3652 59.1052C19.9083 59.6384 19.2762 59.99 18.5833 60.0964V61.2337C18.587 61.3643 18.5645 61.4943 18.5172 61.6159C18.4699 61.7376 18.3988 61.8486 18.308 61.9422C18.2172 62.0359 18.1086 62.1103 17.9887 62.1611C17.8687 62.2119 17.7398 62.2381 17.6096 62.2381C17.4793 62.2381 17.3504 62.2119 17.2305 62.1611C17.1105 62.1103 17.0019 62.0359 16.9111 61.9422C16.8204 61.8486 16.7492 61.7376 16.7019 61.6159C16.6546 61.4943 16.6322 61.3643 16.6358 61.2337V60.0825C15.9619 59.9571 15.3529 59.5992 14.9144 59.0708C14.4759 58.5425 14.2354 57.8769 14.2347 57.1894V55.9596C14.2311 55.829 14.2536 55.6991 14.3008 55.5774C14.3481 55.4557 14.4193 55.3447 14.5101 55.2511C14.6008 55.1575 14.7094 55.083 14.8294 55.0322C14.9493 54.9814 15.0782 54.9552 15.2085 54.9552C15.3387 54.9552 15.4676 54.9814 15.5876 55.0322C15.7075 55.083 15.8161 55.1575 15.9069 55.2511C15.9977 55.3447 16.0688 55.4557 16.1161 55.5774C16.1634 55.6991 16.1859 55.829 16.1822 55.9596V57.1894C16.182 57.4515 16.2854 57.7029 16.4697 57.8887C16.654 58.0744 16.9043 58.1793 17.1656 58.1803H18.1435C18.4048 58.1793 18.655 58.0744 18.8394 57.8887C19.0237 57.7029 19.1271 57.4515 19.1269 57.1894V55.9596C19.1269 55.234 19.02 55.1076 17.5592 54.9634C16.3975 54.8492 14.2347 54.6357 14.2347 52.024V50.7942C14.2355 50.0989 14.4816 49.4264 14.9294 48.8956C15.3771 48.3649 15.9977 48.0101 16.6812 47.8941V46.7884C16.6775 46.6579 16.7 46.5279 16.7473 46.4062C16.7946 46.2845 16.8657 46.1736 16.9565 46.0799C17.0473 45.9863 17.1559 45.9119 17.2758 45.861C17.3958 45.8102 17.5247 45.784 17.6549 45.784C17.7851 45.784 17.9141 45.8102 18.034 45.861C18.154 45.9119 18.2626 45.9863 18.3533 46.0799C18.4441 46.1736 18.5153 46.2845 18.5625 46.4062C18.6098 46.5279 18.6323 46.6579 18.6287 46.7884V47.8941C19.3122 48.01 19.9329 48.3647 20.3807 48.8955C20.8284 49.4263 21.0744 50.0989 21.0751 50.7942Z" fill="#1B1B1B"/>
</svg>
