<svg width="50" height="93" viewBox="0 0 50 93" fill="none" xmlns="http://www.w3.org/2000/svg">
<mask id="path-1-inside-1_190_37787" fill="white">
<path fill-rule="evenodd" clip-rule="evenodd" d="M0.171772 91.6822C0.0621481 91.4204 0.00124599 91.1202 0.00124599 90.8373L0 13.3487C0 13.0658 0.0609021 12.7656 0.170526 12.5039C0.279389 12.2421 0.446093 11.9939 0.64784 11.794C0.850346 11.5941 1.10004 11.4297 1.36421 11.3211C1.62836 11.2132 1.8971 11.186 2.18257 11.186H12.1417V2.16266C12.1417 1.8798 12.2026 1.61352 12.3122 1.35176C12.4211 1.09 12.5878 0.841838 12.7895 0.641932C12.992 0.442045 13.2417 0.277593 13.5059 0.16897C13.77 0.0603464 14.0388 0 14.3242 0H34.8224C35.1079 0 35.3766 0.0603464 35.6408 0.16897C35.9049 0.27684 36.1554 0.442026 36.3571 0.641932C36.5589 0.842591 36.7248 1.09002 36.8345 1.35176C36.9441 1.6135 37.005 1.8798 37.005 2.16266V11.186H46.9298C47.2153 11.186 47.5182 11.2124 47.7824 11.3211C48.0466 11.4289 48.297 11.5941 48.4988 11.794C48.7005 11.9939 48.8322 12.2421 48.9418 12.5039C49.0515 12.7656 49.1124 13.0658 49.1124 13.3487V90.8373C49.1124 91.1202 49.0515 91.4204 48.9418 91.6822C48.833 91.9439 48.7005 92.1921 48.4988 92.392C48.2963 92.5919 48.0466 92.7224 47.7824 92.831C47.5182 92.9397 47.2153 93 46.9298 93H2.18382C1.89835 93 1.62962 92.9397 1.36545 92.831C1.10128 92.7232 0.850835 92.5919 0.649089 92.392C0.447362 92.1921 0.281395 91.9439 0.171772 91.6822ZM4.36631 88.6647C4.36631 88.6702 4.37079 88.6747 4.37632 88.6747L44.5468 88.6728C44.6573 88.6728 44.7468 88.5832 44.7468 88.4728V65.1522V15.5198C44.7468 15.5143 44.7423 15.5098 44.7368 15.5098H4.37632C4.37079 15.5098 4.36631 15.5143 4.36631 15.5198V88.6647ZM16.502 4.5C16.5009 4.5 16.5 4.5009 16.5 4.502V10.498C16.5 10.4991 16.5009 10.5 16.502 10.5H32.498C32.4991 10.5 32.5 10.4991 32.5 10.498V4.502C32.5 4.5009 32.4991 4.5 32.498 4.5H16.502Z"/>
</mask>
<path fill-rule="evenodd" clip-rule="evenodd" d="M0.171772 91.6822C0.0621481 91.4204 0.00124599 91.1202 0.00124599 90.8373L0 13.3487C0 13.0658 0.0609021 12.7656 0.170526 12.5039C0.279389 12.2421 0.446093 11.9939 0.64784 11.794C0.850346 11.5941 1.10004 11.4297 1.36421 11.3211C1.62836 11.2132 1.8971 11.186 2.18257 11.186H12.1417V2.16266C12.1417 1.8798 12.2026 1.61352 12.3122 1.35176C12.4211 1.09 12.5878 0.841838 12.7895 0.641932C12.992 0.442045 13.2417 0.277593 13.5059 0.16897C13.77 0.0603464 14.0388 0 14.3242 0H34.8224C35.1079 0 35.3766 0.0603464 35.6408 0.16897C35.9049 0.27684 36.1554 0.442026 36.3571 0.641932C36.5589 0.842591 36.7248 1.09002 36.8345 1.35176C36.9441 1.6135 37.005 1.8798 37.005 2.16266V11.186H46.9298C47.2153 11.186 47.5182 11.2124 47.7824 11.3211C48.0466 11.4289 48.297 11.5941 48.4988 11.794C48.7005 11.9939 48.8322 12.2421 48.9418 12.5039C49.0515 12.7656 49.1124 13.0658 49.1124 13.3487V90.8373C49.1124 91.1202 49.0515 91.4204 48.9418 91.6822C48.833 91.9439 48.7005 92.1921 48.4988 92.392C48.2963 92.5919 48.0466 92.7224 47.7824 92.831C47.5182 92.9397 47.2153 93 46.9298 93H2.18382C1.89835 93 1.62962 92.9397 1.36545 92.831C1.10128 92.7232 0.850835 92.5919 0.649089 92.392C0.447362 92.1921 0.281395 91.9439 0.171772 91.6822ZM4.36631 88.6647C4.36631 88.6702 4.37079 88.6747 4.37632 88.6747L44.5468 88.6728C44.6573 88.6728 44.7468 88.5832 44.7468 88.4728V65.1522V15.5198C44.7468 15.5143 44.7423 15.5098 44.7368 15.5098H4.37632C4.37079 15.5098 4.36631 15.5143 4.36631 15.5198V88.6647ZM16.502 4.5C16.5009 4.5 16.5 4.5009 16.5 4.502V10.498C16.5 10.4991 16.5009 10.5 16.502 10.5H32.498C32.4991 10.5 32.5 10.4991 32.5 10.498V4.502C32.5 4.5009 32.4991 4.5 32.498 4.5H16.502Z" fill="#1B1B1B"/>
<path d="M0.00124599 90.8373L1.20125 90.8373L1.20125 90.8373L0.00124599 90.8373ZM0.171772 91.6822L1.27862 91.2186L1.27862 91.2186L0.171772 91.6822ZM0 13.3487L-1.2 13.3487L-1.2 13.3487L0 13.3487ZM0.170526 12.5039L1.27738 12.9674L1.27852 12.9647L0.170526 12.5039ZM0.64784 11.794L-0.195147 10.94L-0.196792 10.9416L0.64784 11.794ZM1.36421 11.3211L0.910534 10.2101L0.907852 10.2112L1.36421 11.3211ZM12.1417 11.186V12.386H13.3417V11.186H12.1417ZM12.3122 1.35176L13.419 1.81531L13.4202 1.81257L12.3122 1.35176ZM12.7895 0.641932L11.9465 -0.212106L11.9449 -0.210477L12.7895 0.641932ZM13.5059 0.16897L13.0495 -0.940857L13.0495 -0.940857L13.5059 0.16897ZM35.6408 0.16897L35.1844 1.27881L35.1871 1.27992L35.6408 0.16897ZM36.3571 0.641932L37.2034 -0.208851L37.2018 -0.210479L36.3571 0.641932ZM37.005 11.186H35.805V12.386H37.005V11.186ZM47.7824 11.3211L47.3261 12.4309L47.3288 12.432L47.7824 11.3211ZM48.4988 11.794L49.3434 10.9417L49.3434 10.9416L48.4988 11.794ZM48.9418 91.6822L47.835 91.2186L47.8338 91.2214L48.9418 91.6822ZM48.4988 92.392L49.3418 93.2461L49.3434 93.2444L48.4988 92.392ZM1.36545 92.831L1.82182 91.7212L1.8191 91.7201L1.36545 92.831ZM0.649089 92.392L-0.195582 93.2444L-0.195541 93.2444L0.649089 92.392ZM4.37632 88.6747L4.37632 89.8747L4.37638 89.8747L4.37632 88.6747ZM44.5468 88.6728L44.5468 87.4728L44.5468 87.4728L44.5468 88.6728ZM-1.19875 90.8373C-1.19875 91.2812 -1.10548 91.7389 -0.935081 92.1457L1.27862 91.2186C1.22978 91.102 1.20125 90.9592 1.20125 90.8373H-1.19875ZM-1.2 13.3487L-1.19875 90.8374L1.20125 90.8373L1.2 13.3487L-1.2 13.3487ZM-0.936328 12.0403C-1.10673 12.4472 -1.2 12.9049 -1.2 13.3487H1.2C1.2 13.2268 1.22853 13.084 1.27738 12.9674L-0.936328 12.0403ZM-0.196792 10.9416C-0.511605 11.2536 -0.767725 11.6349 -0.937471 12.043L1.27852 12.9647C1.3265 12.8493 1.40379 12.7343 1.49247 12.6464L-0.196792 10.9416ZM0.907852 10.2112C0.501315 10.3784 0.119847 10.6291 -0.195145 10.94L1.49082 12.6481C1.58085 12.5592 1.69876 12.481 1.82056 12.4309L0.907852 10.2112ZM2.18257 9.98604C1.82481 9.98604 1.37971 10.0185 0.910535 10.2101L1.81788 12.432C1.87701 12.4079 1.96939 12.386 2.18257 12.386V9.98604ZM12.1417 9.98604H2.18257V12.386H12.1417V9.98604ZM10.9417 2.16266V11.186H13.3417V2.16266H10.9417ZM11.2053 0.888212C11.0429 1.27606 10.9417 1.69961 10.9417 2.16266H13.3417C13.3417 2.05999 13.3622 1.95098 13.419 1.81531L11.2053 0.888212ZM11.9449 -0.210477C11.6301 0.101465 11.3739 0.482804 11.2042 0.89095L13.4202 1.81257C13.4682 1.6972 13.5455 1.58221 13.6341 1.49434L11.9449 -0.210477ZM13.0495 -0.940857C12.643 -0.773705 12.2615 -0.523036 11.9465 -0.212104L13.6325 1.49597C13.7225 1.40713 13.8404 1.32889 13.9623 1.2788L13.0495 -0.940857ZM14.3242 -1.2C13.862 -1.2 13.4385 -1.10081 13.0495 -0.940857L13.9623 1.2788C14.1016 1.2215 14.2156 1.2 14.3242 1.2V-1.2ZM34.8224 -1.2H14.3242V1.2H34.8224V-1.2ZM36.0971 -0.940868C35.7082 -1.1008 35.2847 -1.2 34.8224 -1.2V1.2C34.9311 1.2 35.045 1.2215 35.1844 1.27881L36.0971 -0.940868ZM37.2018 -0.210479C36.887 -0.522385 36.5034 -0.774984 36.0944 -0.941978L35.1871 1.27992C35.3065 1.32866 35.4238 1.40644 35.5125 1.49434L37.2018 -0.210479ZM37.9413 0.888186C37.7714 0.482558 37.5173 0.103336 37.2034 -0.208849L35.5109 1.49271C35.6005 1.58185 35.6783 1.69748 35.7276 1.81533L37.9413 0.888186ZM38.205 2.16266C38.205 1.69962 38.1037 1.27604 37.9413 0.888186L35.7276 1.81533C35.7844 1.95095 35.805 2.05997 35.805 2.16266H38.205ZM38.205 11.186V2.16266H35.805V11.186H38.205ZM46.9298 9.98604H37.005V12.386H46.9298V9.98604ZM48.2388 10.2112C47.7571 10.0132 47.267 9.98604 46.9298 9.98604V12.386C47.1635 12.386 47.2794 12.4117 47.3261 12.4309L48.2388 10.2112ZM49.3434 10.9416C49.0286 10.6297 48.645 10.3771 48.2361 10.2101L47.3288 12.432C47.4481 12.4808 47.5654 12.5585 47.6541 12.6464L49.3434 10.9416ZM50.0487 12.0403C49.9158 11.723 49.7104 11.3053 49.3434 10.9417L47.6541 12.6464C47.6906 12.6826 47.7486 12.7611 47.835 12.9674L50.0487 12.0403ZM50.3124 13.3487C50.3124 12.9049 50.2191 12.4472 50.0487 12.0403L47.835 12.9674C47.8838 13.084 47.9124 13.2268 47.9124 13.3487H50.3124ZM50.3124 90.8373V13.3487H47.9124V90.8373H50.3124ZM50.0487 92.1457C50.2191 91.7389 50.3124 91.2812 50.3124 90.8373H47.9124C47.9124 90.9592 47.8838 91.102 47.835 91.2186L50.0487 92.1457ZM49.3434 93.2444C49.7097 92.8815 49.9161 92.4646 50.0498 92.143L47.8338 91.2214C47.7499 91.4232 47.6914 91.5027 47.6541 91.5396L49.3434 93.2444ZM48.2388 93.9409C48.5588 93.8093 48.976 93.6071 49.3418 93.246L47.6558 91.538C47.6165 91.5767 47.5344 91.6355 47.326 91.7212L48.2388 93.9409ZM46.9298 94.2C47.3732 94.2 47.8311 94.1085 48.2388 93.9409L47.326 91.7212C47.2054 91.7708 47.0573 91.8 46.9298 91.8V94.2ZM2.18382 94.2H46.9298V91.8H2.18382V94.2ZM0.909084 93.9409C1.29804 94.1008 1.72154 94.2 2.18382 94.2V91.8C2.07516 91.8 1.9612 91.7785 1.82182 91.7212L0.909084 93.9409ZM-0.195541 93.2444C0.170089 93.6067 0.589116 93.8102 0.911803 93.942L1.8191 91.7201C1.61345 91.6361 1.53158 91.5771 1.49372 91.5396L-0.195541 93.2444ZM-0.935081 92.1457C-0.765718 92.5501 -0.511669 92.9312 -0.195582 93.2444L1.49376 91.5397C1.40639 91.4531 1.32851 91.3377 1.27862 91.2186L-0.935081 92.1457ZM4.37632 87.4747C5.03335 87.4747 5.56631 88.0073 5.56631 88.6647H3.16631C3.16631 89.3332 3.70824 89.8747 4.37632 89.8747V87.4747ZM44.5468 87.4728L4.37626 87.4747L4.37638 89.8747L44.5469 89.8728L44.5468 87.4728ZM43.5468 88.4728C43.5468 87.9206 43.9945 87.4728 44.5468 87.4728V89.8728C45.3201 89.8728 45.9468 89.2459 45.9468 88.4728H43.5468ZM43.5468 65.1522V88.4728H45.9468V65.1522H43.5468ZM43.5468 15.5198V65.1522H45.9468V15.5198H43.5468ZM44.7368 16.7098C44.0792 16.7098 43.5468 16.1766 43.5468 15.5198H45.9468C45.9468 14.8519 45.4055 14.3098 44.7368 14.3098V16.7098ZM4.37632 16.7098H44.7368V14.3098H4.37632V16.7098ZM5.56631 15.5198C5.56631 16.1764 5.03417 16.7098 4.37632 16.7098V14.3098C3.70742 14.3098 3.16631 14.8522 3.16631 15.5198H5.56631ZM5.56631 88.6647V15.5198H3.16631V88.6647H5.56631ZM17.7 4.502C17.7 5.16364 17.1636 5.7 16.502 5.7V3.3C15.8382 3.3 15.3 3.83815 15.3 4.502H17.7ZM17.7 10.498V4.502H15.3V10.498H17.7ZM16.502 9.3C17.1636 9.3 17.7 9.83636 17.7 10.498H15.3C15.3 11.1618 15.8382 11.7 16.502 11.7V9.3ZM32.498 9.3H16.502V11.7H32.498V9.3ZM31.3 10.498C31.3 9.83636 31.8364 9.3 32.498 9.3V11.7C33.1618 11.7 33.7 11.1618 33.7 10.498H31.3ZM31.3 4.502V10.498H33.7V4.502H31.3ZM32.498 5.7C31.8364 5.7 31.3 5.16364 31.3 4.502H33.7C33.7 3.83815 33.1618 3.3 32.498 3.3V5.7ZM16.502 5.7H32.498V3.3H16.502V5.7Z" fill="white" mask="url(#path-1-inside-1_190_37787)"/>
<path d="M44.8375 87.9912V36.1148C44.8375 35.3202 43.9556 34.843 43.2905 35.2777L5.15158 60.2006C4.87107 60.3839 4.70102 60.6956 4.69864 61.0306L4.50715 87.9841C4.50321 88.5392 4.95207 88.9912 5.50713 88.9912H43.8375C44.3898 88.9912 44.8375 88.5435 44.8375 87.9912Z" fill="#A4B8C1"/>
</svg>
