<svg width="90" height="93" viewBox="0 0 90 93" fill="none" xmlns="http://www.w3.org/2000/svg">
<path d="M26 34.5C26 39.7 38.3333 50.6666 44.5 55.5L62.5 35.5C63.6667 33.5 64.9 28.4 60.5 24C56.1 19.6 50 22.1667 47.5 24C46.5 25.8333 44.2 28.8 43 26C41.5 22.5 36 20.5 31 23C26 25.5 26 28 26 34.5Z" fill="#A4B8C1"/>
<path d="M44.9989 54C44.7751 54 44.5508 53.9212 44.3726 53.7635C35.8311 46.2207 26.5 38.9305 26.5 30.9778C26.5 26.3079 30.7492 22.5092 35.9715 22.5092C40.2527 22.5092 43.0567 24.7909 44.9995 27.768C46.9417 24.7909 49.2469 22.509 53.528 22.509C58.7504 22.509 62.9995 26.3077 62.9995 30.9776C62.9995 38.9297 54.1674 46.2204 45.6265 53.7635C45.4465 53.9212 45.2227 54 44.9989 54ZM35.9709 24.3832C31.788 24.3832 28.3853 27.3414 28.3853 30.978C28.3853 37 36.7698 45.1035 44.7995 52.2C52.8296 45.1041 61.1123 37.9095 61.1123 30.9778C61.1123 27.3414 57.7097 24.383 53.5267 24.383C49.9536 24.383 48 27.5 45.6429 30.5C45.4759 30.7952 45.1616 30.9776 44.8212 30.9776C44.4808 30.9776 44.1665 30.7952 43.9995 30.5C41 27.5 39.544 24.3832 35.9709 24.3832Z" fill="white"/>
<path fill-rule="evenodd" clip-rule="evenodd" d="M43.6875 7.69773C43.6875 8.27893 44.1584 8.74985 44.7396 8.74985C45.3202 8.74985 45.7917 8.27893 45.7917 7.69773V1.05212C45.7917 0.470916 45.3208 0 44.7396 0C44.1584 0 43.6875 0.470916 43.6875 1.05212V7.69773ZM57.4726 10.4261C57.3821 10.4261 57.291 10.4142 57.1998 10.3898C56.6384 10.2392 56.3055 9.66264 56.4561 9.10125L58.176 2.68221C58.3266 2.12082 58.9032 1.78728 59.4646 1.93854C60.0259 2.08912 60.3588 2.66571 60.2082 3.2271L58.4884 9.64614C58.3622 10.1164 57.9369 10.4261 57.4726 10.4261ZM69.3345 15.3407C69.1562 15.3407 68.9752 15.2951 68.8094 15.1994C68.3062 14.9087 68.1338 14.2655 68.4244 13.7622L71.7471 8.00695C72.037 7.50367 72.681 7.3313 73.1843 7.62191C73.6876 7.91252 73.8599 8.55579 73.5693 9.05907L70.2466 14.8143C70.0518 15.1518 69.6984 15.3407 69.3345 15.3407ZM32.0081 10.4261C31.5438 10.4261 31.1185 10.1164 30.9923 9.64611L29.2725 3.22706C29.1219 2.66568 29.4554 2.08909 30.0162 1.93851C30.5775 1.78792 31.1541 2.12145 31.3047 2.68218L33.0246 9.10122C33.1752 9.66261 32.8416 10.2392 32.2809 10.3898C32.1898 10.4142 32.098 10.4261 32.0081 10.4261ZM19.2315 14.8143C19.4263 15.1518 19.7797 15.3407 20.1436 15.3407C20.3219 15.3407 20.5022 15.2951 20.6686 15.1994C21.1719 14.9087 21.3443 14.2655 21.0537 13.7622L17.731 8.00695C17.4404 7.50368 16.7977 7.33129 16.2938 7.6219C15.7905 7.91252 15.6182 8.55579 15.9088 9.05907L19.2315 14.8143ZM41.1294 81.2069V86.578V91.9479C41.1294 92.5291 40.6585 93 40.0773 93H9.67712C9.09592 93 8.625 92.5291 8.625 91.9479V86.578V81.2069C8.625 80.6257 9.09592 80.1548 9.67712 80.1548H13.5174C13.5424 70.4202 6.36715 65.4162 6.29239 65.3652C6.26531 65.3467 6.23889 65.3269 6.2138 65.3064C-0.409322 59.8273 -0.0387026 52.8924 0.0247016 52.1229L0.025362 26.3047C0.025362 23.2574 2.50404 20.7786 5.5515 20.7786C8.59879 20.7786 11.0776 23.2572 11.0776 26.3047V45.9042C13.2058 45.3554 15.5625 45.9126 17.2253 47.5758C19.0417 49.3922 20.8796 51.0665 22.6573 52.6859L22.6687 52.6964L22.6692 52.6968C30.7591 60.066 37.7775 66.4593 36.1181 80.1548H40.0773C40.6585 80.1548 41.1294 80.6257 41.1294 81.2069ZM10.7305 90.8965V87.6301H39.0257V90.8965H10.7305ZM10.7305 85.5259H39.0257V82.259H14.5682C14.5594 82.2592 14.5506 82.2594 14.5418 82.2594L14.5417 82.259H10.7305V85.5259ZM48.3477 81.2069V86.578V91.9479C48.3477 92.5291 48.8186 93 49.3998 93H79.8C80.3805 93 80.8521 92.5291 80.8521 91.9479V86.578V81.2069C80.8521 80.6257 80.3812 80.1548 79.8 80.1548H75.9597C75.9249 70.4696 82.8819 65.5739 83.186 65.3649C83.2131 65.3465 83.2395 65.3273 83.2646 65.3062C89.8878 59.8262 89.5172 52.8914 89.4532 52.1227V26.3045C89.4532 23.257 86.9738 20.7783 83.927 20.7783C80.8796 20.7783 78.4009 23.2572 78.4009 26.3045L78.4003 45.9039C76.2719 45.3545 73.9145 45.9117 72.251 47.5752C70.4371 49.389 68.6014 51.0614 66.8259 52.679L66.8075 52.6957C58.7172 60.0649 51.6992 66.4585 53.3583 80.1548H49.3998C48.8186 80.1548 48.3477 80.6257 48.3477 81.2069ZM78.7466 82.259V85.5259H50.4514V82.259H78.7466ZM78.7466 87.6301H50.4514V90.8965H78.7466V87.6301ZM30.4996 76.8057C29.9184 76.8057 29.4475 76.3348 29.4475 75.7536C29.4475 70.7512 24.3772 64.6003 24.3256 64.539C23.9538 64.0925 24.0145 63.4294 24.461 63.0576C24.9075 62.6857 25.5706 62.7458 25.9424 63.1923C26.1716 63.467 31.5517 69.9872 31.5517 75.7543C31.5517 76.3348 31.0801 76.8057 30.4996 76.8057ZM58.0625 75.7536C58.0625 76.3348 58.5334 76.8057 59.1146 76.8057C59.6958 76.8057 60.1668 76.3347 60.1668 75.7529C60.1668 70.7505 65.2378 64.5997 65.2886 64.5383C65.6598 64.0918 65.5997 63.4294 65.1539 63.0569C64.7068 62.685 64.0443 62.7458 63.6718 63.1916C63.4426 63.4663 58.0625 69.9865 58.0625 75.7536ZM73.8556 80.1548C73.8179 69.6241 81.2366 64.1618 81.9567 63.6568C87.9358 58.6849 87.3606 52.3411 87.354 52.277C87.3501 52.2413 87.3487 52.2057 87.3487 52.17V26.3045C87.3487 24.4176 85.8138 22.8827 83.9269 22.8827C82.0401 22.8827 80.5045 24.4176 80.5045 26.3045V46.8825C80.7868 47.0834 81.0563 47.3099 81.3098 47.562L81.3168 47.5686L81.3237 47.5752C83.8249 50.0763 83.8242 54.146 81.3231 56.6465L70.8686 67.101C70.4578 67.5118 69.7914 67.5118 69.3813 67.101C68.9705 66.6901 68.9705 66.0244 69.3813 65.6136L79.8357 55.1592C81.5126 53.4816 81.5166 50.7552 79.8469 49.0737L79.8357 49.0625C79.5724 48.7992 79.2833 48.5772 78.9764 48.3964C78.9451 48.3805 78.9146 48.3631 78.8852 48.3442C77.2449 47.4316 75.1307 47.6714 73.7389 49.0625C71.8836 50.9178 70.0238 52.6124 68.2248 54.2505C60.2063 61.5547 53.8353 67.3589 55.4795 80.1548H73.8556ZM7.52117 63.657C8.242 64.162 15.66 69.6238 15.6223 80.1548H33.9982C35.6421 67.3585 29.2712 61.5551 21.2522 54.251C19.453 52.6124 17.5931 50.9177 15.738 49.063C14.3473 47.6718 12.234 47.4321 10.5934 48.344C10.5634 48.3632 10.5323 48.381 10.5003 48.3972C10.1936 48.578 9.90449 48.7999 9.64124 49.063C7.96037 50.7439 7.96037 53.4789 9.64124 55.1598L20.0957 65.6143C20.5065 66.0251 20.5065 66.6908 20.0957 67.1016C19.6849 67.5124 19.0191 67.5124 18.6076 67.1016L8.15322 56.6472C5.65205 54.146 5.65205 50.0763 8.15322 47.5758C8.4111 47.318 8.68564 47.0868 8.9734 46.8821V26.3047C8.9734 24.4178 7.4385 22.8829 5.55161 22.8829C3.6647 22.8829 2.12981 24.4178 2.12981 26.3047L2.12915 52.1702C2.12915 52.2059 2.12717 52.2422 2.12386 52.2772C2.09877 52.5355 1.58031 58.7174 7.52117 63.657ZM44.0393 56.4487C44.2381 56.6257 44.4884 56.7142 44.7381 56.7142C44.9878 56.7142 45.2375 56.6258 45.4383 56.4487L45.4408 56.4466C54.969 47.9764 64.8214 39.2183 64.8214 30.289C64.8214 25.0449 60.0806 20.7791 54.254 20.7791C49.4776 20.7791 46.9057 22.7902 44.7388 26.1334C42.5712 22.7902 40.0001 20.7791 35.2236 20.7791C29.397 20.7791 24.6562 25.0449 24.6562 30.289C24.6562 39.2197 34.5096 47.9783 44.0393 56.4487ZM26.7597 30.2892C26.7597 26.2055 30.556 22.8834 35.2229 22.8834H35.2221C39.2086 22.8834 41.3782 24.349 43.8212 28.6903C44.0075 29.0218 44.3582 29.2266 44.738 29.2266C45.1177 29.2266 45.4684 29.0218 45.6547 28.6903C48.0965 24.349 50.2661 22.8834 54.2526 22.8834C58.9195 22.8834 62.7158 26.2057 62.7158 30.2892C62.7158 38.0734 53.6969 46.2875 44.7378 54.256C35.779 46.2869 26.7597 38.0727 26.7597 30.2892Z" fill="#1B1B1B"/>
</svg>
