<svg width="93" height="93" viewBox="0 0 93 93" fill="none" xmlns="http://www.w3.org/2000/svg">
<circle cx="46.5" cy="46.5" r="7.5" fill="#A4B8C1"/>
<mask id="path-2-inside-1_359_12124" fill="white">
<path d="M92.9998 46.5C92.9998 37.6866 85.8288 30.5156 77.0154 30.5156C68.6917 30.5156 61.8419 36.912 61.1049 45.0469H56.6716V45.0456C56.6716 44.4948 56.3609 43.9921 55.8679 43.7449L54.634 43.1286L55.0699 41.8221C55.2444 41.3006 55.1076 40.7251 54.7196 40.334L52.6651 38.2775C52.2759 37.8883 51.7005 37.7527 51.177 37.9259L49.8692 38.3618L49.2529 37.1293C49.0064 36.6389 48.5036 36.3281 47.9529 36.3281V31.8948C50.8897 31.6289 53.5922 30.5591 55.8582 28.9158C55.8686 28.91 55.877 28.8996 55.8887 28.8938C59.8771 25.9831 62.4842 21.2882 62.4842 15.9844C62.4842 7.17097 55.3133 0 46.4999 0C37.6864 0 30.5155 7.17097 30.5155 15.9844C30.5155 21.2884 33.1226 25.9831 37.113 28.8938C37.1234 28.8996 37.1318 28.91 37.1435 28.9158C39.4089 30.559 42.11 31.6288 45.0488 31.8948L45.0482 36.3281C44.4974 36.3281 43.9946 36.6389 43.7475 37.1319L43.1312 38.3657L41.8221 37.9298C41.3018 37.7553 40.7251 37.8922 40.3353 38.2814L38.2808 40.3359C37.8915 40.7251 37.756 41.3005 37.9292 41.824L38.3651 43.1305L37.1313 43.7468C36.6389 43.992 36.3282 44.4948 36.3282 45.0455V45.0468H31.8949C31.1579 36.912 24.3081 30.5156 15.9844 30.5156C7.17097 30.5156 0 37.6866 0 46.5C0 51.804 2.60716 56.4986 6.59753 59.4094C6.6079 59.4152 6.61634 59.4256 6.62801 59.4314C9.26108 61.3419 12.4885 62.4843 15.9845 62.4843C19.4805 62.4843 22.7077 61.3419 25.343 59.4314C25.3533 59.4256 25.3618 59.4152 25.3734 59.4094C28.9933 56.7692 31.4694 52.6582 31.8962 47.9531H36.3284C36.3284 48.5039 36.6391 49.0066 37.1321 49.2525L38.3647 49.8687L37.9274 51.1766C37.7529 51.6981 37.8898 52.2748 38.279 52.6634L40.3355 54.7199C40.7234 55.1111 41.2976 55.2447 41.8237 55.0715L43.1328 54.6355L43.749 55.8707C43.9936 56.3611 44.4964 56.6719 45.0471 56.6719V61.1051C36.9123 61.8421 30.5159 68.692 30.5159 77.0156C30.5159 82.3196 33.123 87.0143 37.1134 89.925C37.1238 89.9309 37.1322 89.9413 37.1439 89.9471C39.7769 91.8576 43.0044 93 46.5003 93C49.9963 93 53.2236 91.8576 55.8588 89.9471C55.8692 89.9413 55.8776 89.9309 55.8893 89.925C59.8777 87.0143 62.4848 82.3195 62.4848 77.0156C62.4848 68.692 56.0884 61.8422 47.9536 61.1051V56.6719C48.5043 56.6719 49.0071 56.3611 49.2542 55.8681L49.8705 54.6343L51.1783 55.0702C51.6999 55.2447 52.2766 55.1091 52.6652 54.7186L54.7216 52.6621C55.1109 52.2729 55.2465 51.6975 55.0733 51.1753L54.6373 49.8675L55.8712 49.2512C56.3616 49.0066 56.6723 48.5039 56.6723 47.9531H61.1056C61.5312 52.6569 64.0092 56.7678 67.6284 59.4094C67.6388 59.4152 67.6472 59.4256 67.6589 59.4314C70.2926 61.3419 73.5201 62.4843 77.016 62.4843C80.512 62.4843 83.7393 61.3419 86.3745 59.4314C86.3849 59.4256 86.3933 59.4152 86.405 59.4094C90.3934 56.4986 93.0005 51.8038 93.0005 46.5L92.9998 46.5ZM39.5546 27.0464C40.4395 23.9643 43.218 21.7977 46.5004 21.7977C49.7828 21.7977 52.5613 23.9644 53.4462 27.0464C51.4306 28.3166 49.0537 29.0633 46.5004 29.0633C43.947 29.0633 41.5701 28.3167 39.5546 27.0464ZM42.141 14.5321C42.141 12.1285 44.0968 10.1727 46.5004 10.1727C48.9039 10.1727 50.8598 12.1285 50.8598 14.5321C50.8598 16.9356 48.9039 18.8915 46.5004 18.8915C44.0968 18.8915 42.141 16.9356 42.141 14.5321ZM33.4223 15.9852C33.4223 8.77471 39.2899 2.90707 46.5004 2.90707C53.7109 2.90707 59.5785 8.77471 59.5785 15.9852C59.5785 19.5292 58.1559 22.7448 55.8569 25.1022C54.9311 22.892 53.2705 21.112 51.1894 20.035C52.7515 18.7013 53.7662 16.7422 53.7662 14.5319C53.7662 10.5254 50.507 7.26628 46.5006 7.26628C42.4941 7.26628 39.2349 10.5254 39.2349 14.5319C39.2349 16.7422 40.2495 18.7011 41.8117 20.035C39.7306 21.1132 38.0686 22.892 37.1442 25.1022C34.8452 22.7448 33.4226 19.529 33.4226 15.9852H33.4223ZM39.5546 88.0785C40.4395 84.9964 43.218 82.8298 46.5004 82.8298C49.7828 82.8298 52.5613 84.9966 53.4462 88.0785C51.4306 89.3487 49.0537 90.0955 46.5004 90.0955C43.947 90.0955 41.5701 89.3488 39.5546 88.0785ZM42.141 75.5642C42.141 73.1606 44.0968 71.2048 46.5004 71.2048C48.9039 71.2048 50.8598 73.1606 50.8598 75.5642C50.8598 77.9678 48.9039 79.9236 46.5004 79.9236C44.0968 79.9236 42.141 77.9678 42.141 75.5642ZM59.5785 77.0173C59.5785 80.5613 58.1559 83.7769 55.8569 86.1343C54.9311 83.9241 53.2705 82.1441 51.1894 81.0671C52.7515 79.7334 53.7662 77.7743 53.7662 75.564C53.7662 71.5576 50.507 68.2984 46.5006 68.2984C42.4941 68.2984 39.2349 71.5576 39.2349 75.564C39.2349 77.7743 40.2495 79.7333 41.8117 81.0671C39.7306 82.1453 38.0686 83.9241 37.1442 86.1343C34.8452 83.7769 33.4226 80.5611 33.4226 77.0173C33.4226 69.8068 39.2902 63.9392 46.5007 63.9392C53.7112 63.9392 59.5789 69.8068 59.5789 77.0173H59.5785ZM9.03963 57.5637C9.92447 54.4816 12.703 52.315 15.9854 52.315C19.2678 52.315 22.0464 54.4818 22.9312 57.5637C20.9156 58.8339 18.5388 59.5806 15.9854 59.5806C13.4321 59.5806 11.0551 58.834 9.03963 57.5637ZM11.626 45.0494C11.626 42.6458 13.5819 40.69 15.9854 40.69C18.389 40.69 20.3448 42.6458 20.3448 45.0494C20.3448 47.4529 18.389 49.4088 15.9854 49.4088C13.5819 49.4088 11.626 47.4529 11.626 45.0494ZM25.3439 55.6195C24.4182 53.4093 22.7575 51.6293 20.6764 50.5523C22.2366 49.2186 23.2512 47.2595 23.2512 45.0492C23.2512 41.0427 19.992 37.7836 15.9856 37.7836C11.9791 37.7836 8.71994 41.0427 8.71994 45.0492C8.71994 47.2595 9.73454 49.2184 11.2967 50.5523C9.21566 51.6305 7.55362 53.4093 6.62927 55.6195C4.33017 53.2621 2.9076 50.0463 2.9076 46.5025C2.9076 39.292 8.77524 33.4244 15.9857 33.4244C23.1962 33.4244 29.0639 39.292 29.0639 46.5025C29.0639 50.0465 27.6412 53.2621 25.3442 55.6195H25.3439ZM53.767 47.0577L52.6785 47.6013C52.3411 47.77 52.081 48.0651 51.9564 48.4206C51.8864 48.6224 51.8098 48.8189 51.7164 49.009C51.5523 49.3503 51.5276 49.7414 51.6464 50.1002L52.0285 51.2464L51.2422 52.0327L50.0972 51.6506C49.7365 51.5312 49.3473 51.5559 49.0061 51.7207C48.816 51.8121 48.6168 51.8893 48.4144 51.9607C48.0583 52.0859 47.7664 52.3441 47.5977 52.6814L47.0567 53.768H45.9467L45.4031 52.6795C45.2344 52.3421 44.9412 52.0839 44.5864 51.9587C44.3827 51.8874 44.1855 51.8108 43.9921 51.7174C43.6522 51.5546 43.263 51.5299 42.9023 51.6493L41.756 52.0314L40.9698 51.2452L41.3532 50.0969C41.4738 49.7382 41.4479 49.3457 41.2831 49.0045C41.1903 48.8144 41.1144 48.6179 41.0431 48.4161C40.9179 48.06 40.6597 47.768 40.3211 47.5993L39.2357 47.0557V45.9458L40.3243 45.4009C40.6616 45.2322 40.9218 44.937 41.0463 44.5815C41.1164 44.3811 41.1929 44.1845 41.2844 43.9957C41.4485 43.6545 41.4745 43.2633 41.3545 42.9033L40.9724 41.757L41.7573 40.9708L42.9056 41.3529C43.263 41.4723 43.6522 41.4457 43.9928 41.2848C44.1848 41.1933 44.382 41.1161 44.5844 41.0447C44.9406 40.9195 45.2358 40.6614 45.4038 40.3227L45.9461 39.2368H47.056L47.5997 40.3253C47.7683 40.6639 48.0635 40.9228 48.419 41.0473C48.6207 41.1187 48.8173 41.1952 49.0087 41.2874C49.3473 41.4515 49.7378 41.4748 50.0985 41.3555L51.2468 40.9721L52.0317 41.7583L51.6496 42.9033C51.5303 43.2621 51.5549 43.6532 51.7197 43.9944C51.8111 44.1865 51.8896 44.3824 51.961 44.5861C52.0862 44.9422 52.3444 45.2341 52.6817 45.4028L53.767 45.9458L53.767 47.0577ZM63.9389 46.5024C63.9389 39.2919 69.8065 33.4242 77.017 33.4242C84.2275 33.4242 90.0952 39.2919 90.0952 46.5024C90.0952 50.0463 88.6725 53.262 86.3735 55.6194C85.4478 53.4091 83.7871 51.6292 81.7061 50.5522C83.2682 49.2184 84.2828 47.2593 84.2828 45.0491C84.2828 41.0426 81.0237 37.7835 77.0172 37.7835C73.0107 37.7835 69.7516 41.0426 69.7516 45.0491C69.7516 47.2593 70.7662 49.2183 72.3283 50.5522C70.2473 51.6304 68.5853 53.4091 67.6609 55.6194C65.3618 53.262 63.9392 50.0462 63.9392 46.5024H63.9389ZM72.6577 45.0492C72.6577 42.6457 74.6135 40.6899 77.017 40.6899C79.4206 40.6899 81.3764 42.6457 81.3764 45.0492C81.3764 47.4528 79.4206 49.4086 77.017 49.4086C74.6135 49.4086 72.6577 47.4528 72.6577 45.0492ZM70.0713 57.5636C70.9561 54.4814 73.7346 52.3149 77.017 52.3149C80.2994 52.3149 83.078 54.4816 83.9628 57.5636C81.9472 58.8338 79.5704 59.5805 77.017 59.5805C74.4637 59.5805 72.0867 58.8338 70.0713 57.5636Z"/>
</mask>
<path d="M92.9998 46.5C92.9998 37.6866 85.8288 30.5156 77.0154 30.5156C68.6917 30.5156 61.8419 36.912 61.1049 45.0469H56.6716V45.0456C56.6716 44.4948 56.3609 43.9921 55.8679 43.7449L54.634 43.1286L55.0699 41.8221C55.2444 41.3006 55.1076 40.7251 54.7196 40.334L52.6651 38.2775C52.2759 37.8883 51.7005 37.7527 51.177 37.9259L49.8692 38.3618L49.2529 37.1293C49.0064 36.6389 48.5036 36.3281 47.9529 36.3281V31.8948C50.8897 31.6289 53.5922 30.5591 55.8582 28.9158C55.8686 28.91 55.877 28.8996 55.8887 28.8938C59.8771 25.9831 62.4842 21.2882 62.4842 15.9844C62.4842 7.17097 55.3133 0 46.4999 0C37.6864 0 30.5155 7.17097 30.5155 15.9844C30.5155 21.2884 33.1226 25.9831 37.113 28.8938C37.1234 28.8996 37.1318 28.91 37.1435 28.9158C39.4089 30.559 42.11 31.6288 45.0488 31.8948L45.0482 36.3281C44.4974 36.3281 43.9946 36.6389 43.7475 37.1319L43.1312 38.3657L41.8221 37.9298C41.3018 37.7553 40.7251 37.8922 40.3353 38.2814L38.2808 40.3359C37.8915 40.7251 37.756 41.3005 37.9292 41.824L38.3651 43.1305L37.1313 43.7468C36.6389 43.992 36.3282 44.4948 36.3282 45.0455V45.0468H31.8949C31.1579 36.912 24.3081 30.5156 15.9844 30.5156C7.17097 30.5156 0 37.6866 0 46.5C0 51.804 2.60716 56.4986 6.59753 59.4094C6.6079 59.4152 6.61634 59.4256 6.62801 59.4314C9.26108 61.3419 12.4885 62.4843 15.9845 62.4843C19.4805 62.4843 22.7077 61.3419 25.343 59.4314C25.3533 59.4256 25.3618 59.4152 25.3734 59.4094C28.9933 56.7692 31.4694 52.6582 31.8962 47.9531H36.3284C36.3284 48.5039 36.6391 49.0066 37.1321 49.2525L38.3647 49.8687L37.9274 51.1766C37.7529 51.6981 37.8898 52.2748 38.279 52.6634L40.3355 54.7199C40.7234 55.1111 41.2976 55.2447 41.8237 55.0715L43.1328 54.6355L43.749 55.8707C43.9936 56.3611 44.4964 56.6719 45.0471 56.6719V61.1051C36.9123 61.8421 30.5159 68.692 30.5159 77.0156C30.5159 82.3196 33.123 87.0143 37.1134 89.925C37.1238 89.9309 37.1322 89.9413 37.1439 89.9471C39.7769 91.8576 43.0044 93 46.5003 93C49.9963 93 53.2236 91.8576 55.8588 89.9471C55.8692 89.9413 55.8776 89.9309 55.8893 89.925C59.8777 87.0143 62.4848 82.3195 62.4848 77.0156C62.4848 68.692 56.0884 61.8422 47.9536 61.1051V56.6719C48.5043 56.6719 49.0071 56.3611 49.2542 55.8681L49.8705 54.6343L51.1783 55.0702C51.6999 55.2447 52.2766 55.1091 52.6652 54.7186L54.7216 52.6621C55.1109 52.2729 55.2465 51.6975 55.0733 51.1753L54.6373 49.8675L55.8712 49.2512C56.3616 49.0066 56.6723 48.5039 56.6723 47.9531H61.1056C61.5312 52.6569 64.0092 56.7678 67.6284 59.4094C67.6388 59.4152 67.6472 59.4256 67.6589 59.4314C70.2926 61.3419 73.5201 62.4843 77.016 62.4843C80.512 62.4843 83.7393 61.3419 86.3745 59.4314C86.3849 59.4256 86.3933 59.4152 86.405 59.4094C90.3934 56.4986 93.0005 51.8038 93.0005 46.5L92.9998 46.5ZM39.5546 27.0464C40.4395 23.9643 43.218 21.7977 46.5004 21.7977C49.7828 21.7977 52.5613 23.9644 53.4462 27.0464C51.4306 28.3166 49.0537 29.0633 46.5004 29.0633C43.947 29.0633 41.5701 28.3167 39.5546 27.0464ZM42.141 14.5321C42.141 12.1285 44.0968 10.1727 46.5004 10.1727C48.9039 10.1727 50.8598 12.1285 50.8598 14.5321C50.8598 16.9356 48.9039 18.8915 46.5004 18.8915C44.0968 18.8915 42.141 16.9356 42.141 14.5321ZM33.4223 15.9852C33.4223 8.77471 39.2899 2.90707 46.5004 2.90707C53.7109 2.90707 59.5785 8.77471 59.5785 15.9852C59.5785 19.5292 58.1559 22.7448 55.8569 25.1022C54.9311 22.892 53.2705 21.112 51.1894 20.035C52.7515 18.7013 53.7662 16.7422 53.7662 14.5319C53.7662 10.5254 50.507 7.26628 46.5006 7.26628C42.4941 7.26628 39.2349 10.5254 39.2349 14.5319C39.2349 16.7422 40.2495 18.7011 41.8117 20.035C39.7306 21.1132 38.0686 22.892 37.1442 25.1022C34.8452 22.7448 33.4226 19.529 33.4226 15.9852H33.4223ZM39.5546 88.0785C40.4395 84.9964 43.218 82.8298 46.5004 82.8298C49.7828 82.8298 52.5613 84.9966 53.4462 88.0785C51.4306 89.3487 49.0537 90.0955 46.5004 90.0955C43.947 90.0955 41.5701 89.3488 39.5546 88.0785ZM42.141 75.5642C42.141 73.1606 44.0968 71.2048 46.5004 71.2048C48.9039 71.2048 50.8598 73.1606 50.8598 75.5642C50.8598 77.9678 48.9039 79.9236 46.5004 79.9236C44.0968 79.9236 42.141 77.9678 42.141 75.5642ZM59.5785 77.0173C59.5785 80.5613 58.1559 83.7769 55.8569 86.1343C54.9311 83.9241 53.2705 82.1441 51.1894 81.0671C52.7515 79.7334 53.7662 77.7743 53.7662 75.564C53.7662 71.5576 50.507 68.2984 46.5006 68.2984C42.4941 68.2984 39.2349 71.5576 39.2349 75.564C39.2349 77.7743 40.2495 79.7333 41.8117 81.0671C39.7306 82.1453 38.0686 83.9241 37.1442 86.1343C34.8452 83.7769 33.4226 80.5611 33.4226 77.0173C33.4226 69.8068 39.2902 63.9392 46.5007 63.9392C53.7112 63.9392 59.5789 69.8068 59.5789 77.0173H59.5785ZM9.03963 57.5637C9.92447 54.4816 12.703 52.315 15.9854 52.315C19.2678 52.315 22.0464 54.4818 22.9312 57.5637C20.9156 58.8339 18.5388 59.5806 15.9854 59.5806C13.4321 59.5806 11.0551 58.834 9.03963 57.5637ZM11.626 45.0494C11.626 42.6458 13.5819 40.69 15.9854 40.69C18.389 40.69 20.3448 42.6458 20.3448 45.0494C20.3448 47.4529 18.389 49.4088 15.9854 49.4088C13.5819 49.4088 11.626 47.4529 11.626 45.0494ZM25.3439 55.6195C24.4182 53.4093 22.7575 51.6293 20.6764 50.5523C22.2366 49.2186 23.2512 47.2595 23.2512 45.0492C23.2512 41.0427 19.992 37.7836 15.9856 37.7836C11.9791 37.7836 8.71994 41.0427 8.71994 45.0492C8.71994 47.2595 9.73454 49.2184 11.2967 50.5523C9.21566 51.6305 7.55362 53.4093 6.62927 55.6195C4.33017 53.2621 2.9076 50.0463 2.9076 46.5025C2.9076 39.292 8.77524 33.4244 15.9857 33.4244C23.1962 33.4244 29.0639 39.292 29.0639 46.5025C29.0639 50.0465 27.6412 53.2621 25.3442 55.6195H25.3439ZM53.767 47.0577L52.6785 47.6013C52.3411 47.77 52.081 48.0651 51.9564 48.4206C51.8864 48.6224 51.8098 48.8189 51.7164 49.009C51.5523 49.3503 51.5276 49.7414 51.6464 50.1002L52.0285 51.2464L51.2422 52.0327L50.0972 51.6506C49.7365 51.5312 49.3473 51.5559 49.0061 51.7207C48.816 51.8121 48.6168 51.8893 48.4144 51.9607C48.0583 52.0859 47.7664 52.3441 47.5977 52.6814L47.0567 53.768H45.9467L45.4031 52.6795C45.2344 52.3421 44.9412 52.0839 44.5864 51.9587C44.3827 51.8874 44.1855 51.8108 43.9921 51.7174C43.6522 51.5546 43.263 51.5299 42.9023 51.6493L41.756 52.0314L40.9698 51.2452L41.3532 50.0969C41.4738 49.7382 41.4479 49.3457 41.2831 49.0045C41.1903 48.8144 41.1144 48.6179 41.0431 48.4161C40.9179 48.06 40.6597 47.768 40.3211 47.5993L39.2357 47.0557V45.9458L40.3243 45.4009C40.6616 45.2322 40.9218 44.937 41.0463 44.5815C41.1164 44.3811 41.1929 44.1845 41.2844 43.9957C41.4485 43.6545 41.4745 43.2633 41.3545 42.9033L40.9724 41.757L41.7573 40.9708L42.9056 41.3529C43.263 41.4723 43.6522 41.4457 43.9928 41.2848C44.1848 41.1933 44.382 41.1161 44.5844 41.0447C44.9406 40.9195 45.2358 40.6614 45.4038 40.3227L45.9461 39.2368H47.056L47.5997 40.3253C47.7683 40.6639 48.0635 40.9228 48.419 41.0473C48.6207 41.1187 48.8173 41.1952 49.0087 41.2874C49.3473 41.4515 49.7378 41.4748 50.0985 41.3555L51.2468 40.9721L52.0317 41.7583L51.6496 42.9033C51.5303 43.2621 51.5549 43.6532 51.7197 43.9944C51.8111 44.1865 51.8896 44.3824 51.961 44.5861C52.0862 44.9422 52.3444 45.2341 52.6817 45.4028L53.767 45.9458L53.767 47.0577ZM63.9389 46.5024C63.9389 39.2919 69.8065 33.4242 77.017 33.4242C84.2275 33.4242 90.0952 39.2919 90.0952 46.5024C90.0952 50.0463 88.6725 53.262 86.3735 55.6194C85.4478 53.4091 83.7871 51.6292 81.7061 50.5522C83.2682 49.2184 84.2828 47.2593 84.2828 45.0491C84.2828 41.0426 81.0237 37.7835 77.0172 37.7835C73.0107 37.7835 69.7516 41.0426 69.7516 45.0491C69.7516 47.2593 70.7662 49.2183 72.3283 50.5522C70.2473 51.6304 68.5853 53.4091 67.6609 55.6194C65.3618 53.262 63.9392 50.0462 63.9392 46.5024H63.9389ZM72.6577 45.0492C72.6577 42.6457 74.6135 40.6899 77.017 40.6899C79.4206 40.6899 81.3764 42.6457 81.3764 45.0492C81.3764 47.4528 79.4206 49.4086 77.017 49.4086C74.6135 49.4086 72.6577 47.4528 72.6577 45.0492ZM70.0713 57.5636C70.9561 54.4814 73.7346 52.3149 77.017 52.3149C80.2994 52.3149 83.078 54.4816 83.9628 57.5636C81.9472 58.8338 79.5704 59.5805 77.017 59.5805C74.4637 59.5805 72.0867 58.8338 70.0713 57.5636Z" fill="#1B1B1B" stroke="white" mask="url(#path-2-inside-1_359_12124)"/>
</svg>
