<svg width="215" height="51" viewBox="0 0 215 51" fill="none" xmlns="http://www.w3.org/2000/svg">
<g clip-path="url(#clip0_437_1025)">
<path d="M64.3915 30.1267L59.6785 21.8072H57.6696V30.1267H53.3984V8.76915H61.3869C62.8373 8.7265 64.2776 9.02412 65.5933 9.63835C66.6757 10.1524 67.5834 10.975 68.2031 12.0035C68.8262 13.1027 69.124 14.3576 69.0614 15.6207C68.9988 16.8839 68.5784 18.1029 67.8496 19.1345C66.9569 20.3291 65.671 21.1672 64.2206 21.4997L69.3165 30.1563L64.3915 30.1267ZM57.6872 18.5906H61.2514C61.7174 18.6296 62.1864 18.5755 62.6313 18.4314C63.0763 18.2873 63.4883 18.056 63.8436 17.7509C64.1413 17.4375 64.371 17.0655 64.518 16.6583C64.6651 16.2512 64.7263 15.8178 64.6978 15.3857C64.7234 14.9664 64.6605 14.5463 64.5133 14.153C64.3661 13.7597 64.1379 13.402 63.8436 13.1033C63.1153 12.5091 62.1871 12.219 61.2514 12.2933H57.6872V18.5906Z" fill="#DEDEDE"/>
<path d="M77.2283 12.2284V17.5796H84.392V20.9795H77.2283V26.6382H85.311V30.1269H72.9395V8.73975H85.311V12.2284H77.2283Z" fill="#DEDEDE"/>
<path d="M126.054 8.76929L118.855 22.6943V30.1268H114.572V22.6943L107.344 8.76929H112.163L116.734 18.5316L121.276 8.76929H126.054Z" fill="#DEDEDE"/>
<path d="M154.144 26.7328H161.161V30.1268H149.879V8.76929H154.144V26.7328Z" fill="#DEDEDE"/>
<path d="M168.141 8.76929V30.1268H163.87V8.76929H168.141Z" fill="#DEDEDE"/>
<path d="M190.569 30.1269H186.298L176.619 15.445V30.1032H172.348V8.73975H176.619L186.28 23.4275V8.73975H190.569V30.1269Z" fill="#DEDEDE"/>
<path d="M209.574 15.1967C209.121 14.3286 208.422 13.6147 207.565 13.1449C206.644 12.6609 205.617 12.4188 204.578 12.4412C203.402 12.4182 202.242 12.7144 201.22 13.2986C200.239 13.876 199.445 14.7262 198.934 15.7466C198.386 16.9029 198.101 18.1674 198.101 19.4481C198.101 20.7288 198.386 21.9933 198.934 23.1496C199.464 24.1798 200.283 25.031 201.291 25.5976C202.353 26.1877 203.553 26.4836 204.767 26.4549C206.21 26.5165 207.628 26.0548 208.761 25.1541C209.837 24.2185 210.557 22.9377 210.799 21.5294H203.476V18.2537H215.005V21.9907C214.716 23.4923 214.09 24.9079 213.173 26.1297C212.22 27.4111 210.984 28.4534 209.562 29.1749C208.031 29.9672 206.33 30.3731 204.607 30.3575C202.662 30.3858 200.744 29.9048 199.04 28.962C197.408 28.0585 196.058 26.7177 195.14 25.089C194.209 23.357 193.721 21.4195 193.721 19.451C193.721 17.4826 194.209 15.5451 195.14 13.8131C196.056 12.1797 197.406 10.8345 199.04 9.92825C200.866 8.95418 202.913 8.4756 204.98 8.5399C207.047 8.6042 209.061 9.20915 210.823 10.2948C212.584 11.4584 213.88 13.2091 214.481 15.2381L209.574 15.1967Z" fill="#DEDEDE"/>
<path fill-rule="evenodd" clip-rule="evenodd" d="M104.981 11.8559C105.529 11.5484 106.048 11.2173 106.613 10.9276C105.888 12.6246 105.117 14.2802 104.357 15.9477C102.466 15.8235 100.692 15.5811 98.7954 15.4628C99.2683 15.1192 99.7643 14.809 100.28 14.5345C98.7601 12.2994 98.171 9.13595 94.7246 8.84621C94.8982 8.7666 95.0876 8.72816 95.2784 8.73387C96.9751 8.63335 99.7793 8.64517 101.611 8.73387C102.234 8.72572 102.847 8.89376 103.379 9.21873C104.251 9.92237 104.327 10.969 104.981 11.8559Z" fill="url(#paint0_radial_437_1025)"/>
<path fill-rule="evenodd" clip-rule="evenodd" d="M94.7247 17.2838C93.1223 16.45 91.6259 15.5099 90.0117 14.6821C90.7658 13.393 91.2665 12.4588 92.1267 11.1343C92.7158 10.2592 93.0752 9.41953 94.5715 9.53779C95.2201 9.60357 95.844 9.82276 96.3918 10.1774C96.9397 10.532 97.396 11.0119 97.7233 11.5778C97.892 11.799 98.027 12.0441 98.1239 12.3051C98.1239 12.6007 97.4347 13.393 97.2756 13.6236C96.3094 15.0191 95.6732 15.9474 94.7247 17.2838Z" fill="url(#paint1_radial_437_1025)"/>
<path fill-rule="evenodd" clip-rule="evenodd" d="M92.2383 17.2483C92.9982 18.8684 93.8819 20.3644 94.6478 21.9786C94.1529 21.683 93.6345 21.4169 93.1632 21.0917C92.4857 21.5707 91.2427 22.6882 92.4563 23.3564C89.5107 23.7171 87.0246 22.7651 87.4546 20.0451C87.5238 19.5764 87.7287 19.1385 88.0437 18.7857C88.1085 18.691 88.4149 18.3836 88.4149 18.3777C88.4149 18.2476 87.7786 17.9401 87.6372 17.8514C87.2897 17.6504 87.0481 17.5085 86.8184 17.4079C88.3147 17.2542 90.5004 17.2779 92.2383 17.2483Z" fill="url(#paint2_radial_437_1025)"/>
<path fill-rule="evenodd" clip-rule="evenodd" d="M109.912 22.4934C109.411 23.747 108.651 25.0537 107.95 26.5438C107.638 27.2247 107.277 27.8827 106.872 28.5128C106.525 29.045 105.941 29.8314 105.352 30.0028C104.427 30.2748 103.449 29.9378 102.318 30.0383C102.23 30.5705 102.318 31.2623 102.277 31.8595C102.165 31.9068 102.018 31.5934 101.912 31.416C101.117 30.1329 100.256 28.6843 99.4258 27.4012C100.368 25.8697 101.305 24.3264 102.318 22.8659C102.283 23.4572 102.271 24.0485 102.277 24.6398C103.832 24.5629 105.293 24.7462 106.69 24.6398C107.357 24.5603 107.996 24.3247 108.556 23.9519C109.115 23.5791 109.58 23.0795 109.912 22.4934Z" fill="url(#paint3_radial_437_1025)"/>
<path fill-rule="evenodd" clip-rule="evenodd" d="M87.5371 23.0134C89.1395 24.9706 94.6066 23.8767 97.9822 24.1665V30.038H93.2693C92.7651 30.0897 92.2564 30.0778 91.7552 30.0025C91.2132 29.837 90.7832 29.0387 90.4592 28.477C89.4164 26.6794 88.6505 24.6809 87.5371 23.0134Z" fill="url(#paint4_radial_437_1025)"/>
<path fill-rule="evenodd" clip-rule="evenodd" d="M143.123 11.8598C143.671 11.5523 144.189 11.2212 144.755 10.9315C144.03 12.6285 143.258 14.2841 142.498 15.9516C140.607 15.8274 138.834 15.585 136.937 15.4667C137.41 15.1231 137.906 14.8129 138.422 14.5384C136.902 12.3033 136.313 9.13985 132.866 8.85012C133.04 8.77051 133.229 8.73206 133.42 8.73777C135.117 8.63725 137.921 8.64908 139.753 8.73777C140.376 8.72963 140.988 8.89767 141.52 9.22264C142.392 9.92628 142.469 10.9729 143.123 11.8598Z" fill="url(#paint5_radial_437_1025)"/>
<path fill-rule="evenodd" clip-rule="evenodd" d="M132.865 17.2877C131.263 16.4539 129.767 15.5138 128.152 14.686C128.906 13.3969 129.407 12.4627 130.267 11.1382C130.856 10.2631 131.216 9.42344 132.712 9.54169C133.361 9.60748 133.985 9.82666 134.532 10.1813C135.08 10.5359 135.537 11.0158 135.864 11.5817C136.033 11.8029 136.168 12.048 136.265 12.309C136.265 12.6046 135.575 13.3969 135.416 13.6275C134.45 15.023 133.814 15.9513 132.865 17.2877Z" fill="url(#paint6_radial_437_1025)"/>
<path fill-rule="evenodd" clip-rule="evenodd" d="M130.38 17.2522C131.14 18.8723 132.024 20.3683 132.789 21.9826C132.295 21.6869 131.776 21.4208 131.305 21.0956C130.627 21.5746 129.384 22.6921 130.598 23.3603C127.652 23.721 125.166 22.769 125.596 20.049C125.665 19.5803 125.87 19.1424 126.185 18.7896C126.25 18.695 126.556 18.3875 126.556 18.3816C126.556 18.2515 125.92 17.944 125.779 17.8553C125.431 17.6543 125.19 17.5124 124.96 17.4118C126.456 17.2581 128.642 17.2818 130.38 17.2522Z" fill="url(#paint7_radial_437_1025)"/>
<path fill-rule="evenodd" clip-rule="evenodd" d="M148.054 22.4973C147.553 23.7509 146.793 25.0576 146.092 26.5477C145.779 27.2286 145.419 27.8866 145.014 28.5167C144.666 29.0489 144.083 29.8353 143.494 30.0068C142.569 30.2787 141.591 29.9417 140.46 30.0422C140.372 30.5744 140.46 31.2662 140.419 31.8634C140.307 31.9107 140.16 31.5973 140.053 31.4199C139.258 30.1368 138.398 28.6882 137.567 27.4051C138.51 25.8736 139.447 24.3303 140.46 22.8698C140.425 23.4611 140.413 24.0524 140.419 24.6437C141.974 24.5668 143.435 24.7501 144.831 24.6437C145.498 24.5643 146.138 24.3286 146.697 23.9558C147.257 23.583 147.722 23.0834 148.054 22.4973Z" fill="url(#paint8_radial_437_1025)"/>
<path fill-rule="evenodd" clip-rule="evenodd" d="M125.679 23.0173C127.281 24.9745 132.748 23.8806 136.124 24.1704V30.0419H131.411C130.907 30.0936 130.398 30.0817 129.897 30.0064C129.355 29.8409 128.925 29.0426 128.601 28.4809C127.558 26.6834 126.792 24.6848 125.679 23.0173Z" fill="url(#paint9_radial_437_1025)"/>
<path d="M0 19.5841L3.26374 22.1385L1.13701 25.6863C-0.400603 28.4062 2.23867 31.0493 3.91177 31.9777C5.58488 32.906 8.12988 32.9888 10.5276 32.9592L13.4732 27.9805L16.7311 29.7544L11.2228 19.3535L0.0294579 19.59L0 19.5841Z" fill="url(#paint10_radial_437_1025)"/>
<path d="M1.13086 31.5046L8.12373 44.4776C9.53173 46.2811 12.1828 46.7068 14.934 46.6418H22.3098V34.3665L8.31814 34.266C6.9891 34.3933 5.64872 34.2103 4.40186 33.7313C3.155 33.2523 2.03547 32.4902 1.13086 31.5046Z" fill="url(#paint11_radial_437_1025)"/>
<path d="M40.143 9.10635L37.7099 4.61251C37.258 3.68702 36.5635 2.90251 35.7011 2.34312C34.8386 1.78373 33.8407 1.47057 32.8143 1.43726L23.9068 1.5023L23.082 2.43655L29.4799 14.5936L29.6861 14.9661L30.7583 17.006L37.7276 17.0652L43.6542 7.25559L40.143 9.10635Z" fill="url(#paint12_radial_437_1025)"/>
<path d="M31.5062 30.6115L26.0156 40.5512L31.5062 50.6032L31.6417 46.5765H36.6552C37.6803 46.6082 38.6948 46.3598 39.5903 45.8579C40.4858 45.3559 41.2285 44.6192 41.7393 43.7265L48.1784 31.6345C46.0576 33.7868 43.324 34.3426 40.1781 34.3426H31.683L31.4827 30.5879L31.5062 30.6115Z" fill="url(#paint13_radial_437_1025)"/>
<path d="M44.172 10.9039C43.483 11.4829 42.9395 12.2166 42.5854 13.0456C42.2313 13.8745 42.0765 14.7755 42.1336 15.6756C43.0061 15.8888 43.9162 15.8931 44.7906 15.6882C45.665 15.4832 46.4791 15.0748 47.1672 14.4958C47.8552 13.9168 48.398 13.1835 48.7517 12.3552C49.1054 11.5268 49.26 10.6266 49.2031 9.72718C48.3312 9.51584 47.4221 9.51217 46.5485 9.71649C45.6749 9.92081 44.8611 10.3274 44.172 10.9039Z" fill="url(#paint14_radial_437_1025)"/>
<path style="mix-blend-mode:multiply" opacity="0.5" d="M14.9338 46.6417H22.3096V40.8707H16.3772C8.17069 40.1138 4.20591 36.4419 2.42676 33.9348L8.12356 44.4953C9.53157 46.281 12.1826 46.7068 14.9338 46.6417Z" fill="url(#paint15_radial_437_1025)"/>
<path d="M34.0508 23.2264L44.4665 16.8345L49.1794 26.0882C50.3105 31.1379 44.1189 32.9946 39.1644 32.693L34.0508 23.2264Z" fill="url(#paint16_radial_437_1025)"/>
<path style="mix-blend-mode:multiply" opacity="0.28" d="M49.1803 26.0883L49.1509 26.0351C40.9031 27.2177 34.0693 23.2383 34.0693 23.2383L39.1476 32.699C44.1021 32.9828 50.2938 31.1262 49.1803 26.0883Z" fill="url(#paint17_radial_437_1025)"/>
<path style="mix-blend-mode:multiply" opacity="0.5" d="M42.1104 15.6755C42.9828 15.8887 43.8929 15.893 44.7673 15.688C45.6417 15.4831 46.4558 15.0746 47.1439 14.4957C47.8319 13.9167 48.3747 13.1834 48.7284 12.355C49.0821 11.5267 49.2367 10.6265 49.1798 9.72705C47.1206 12.0408 44.7396 14.0442 42.1104 15.6755Z" fill="url(#paint18_radial_437_1025)"/>
<path d="M45.2563 5.51116C45.0158 6.02827 44.9006 6.59514 44.9201 7.16547C44.9395 7.73581 45.0931 8.29344 45.3682 8.79284C45.9266 8.6808 46.4508 8.43823 46.8983 8.08482C47.3459 7.7314 47.7041 7.27709 47.9439 6.75873C48.1838 6.24038 48.2986 5.67258 48.2789 5.10138C48.2592 4.53019 48.1057 3.97169 47.8308 3.47119C47.272 3.58402 46.7477 3.82756 46.3004 4.18202C45.853 4.53647 45.4953 4.99186 45.2563 5.51116Z" fill="url(#paint19_radial_437_1025)"/>
<path style="mix-blend-mode:multiply" opacity="0.5" d="M45.3682 8.79284C45.9265 8.6808 46.4508 8.43823 46.8983 8.08482C47.3458 7.7314 47.704 7.27709 47.9439 6.75873C48.1837 6.24038 48.2985 5.67258 48.2788 5.10138C48.2592 4.53019 48.1056 3.97169 47.8307 3.47119C47.2693 5.35479 46.4399 7.14717 45.3682 8.79284Z" fill="url(#paint20_radial_437_1025)"/>
<path d="M5.93843 14.3452C6.3845 14.6996 6.74081 15.1549 6.97832 15.6738C7.21584 16.1927 7.32784 16.7606 7.30519 17.3312C6.7555 17.4814 6.17827 17.4994 5.62036 17.3836C5.06246 17.2679 4.5396 17.0218 4.09424 16.6652C3.64888 16.3087 3.29358 15.8517 3.05716 15.3315C2.82075 14.8112 2.7099 14.2424 2.73361 13.6711C3.2831 13.524 3.85931 13.5083 4.41593 13.6254C4.97254 13.7425 5.49401 13.989 5.93843 14.3452Z" fill="url(#paint21_radial_437_1025)"/>
<path style="mix-blend-mode:multiply" opacity="0.5" d="M7.30519 17.3313C6.7555 17.4814 6.17827 17.4994 5.62036 17.3837C5.06246 17.268 4.5396 17.0218 4.09424 16.6653C3.64888 16.3087 3.29358 15.8518 3.05716 15.3315C2.82075 14.8113 2.7099 14.2424 2.73361 13.6711C4.0736 15.1061 5.61342 16.3389 7.30519 17.3313Z" fill="url(#paint22_radial_437_1025)"/>
<path d="M7.3877 12.6599L20.2482 30.919C20.2482 30.919 22.7814 33.503 28.8317 29.5945C28.8317 29.5945 33.7273 26.3838 32.3665 22.9366L22.3514 4.25757C22.3514 4.25757 21.7623 7.57473 16.1892 10.8682C14.2569 12.0213 9.98572 13.3517 7.3877 12.6599Z" fill="#DEDEDE"/>
<path d="M9.42006 4.99682L9.21387 5.19195L10.3921 6.96583C10.3921 6.96583 11.482 7.61034 13.6323 6.32723C13.6323 6.32723 15.4821 5.23925 15.5823 3.84379C15.579 3.82223 15.579 3.80031 15.5823 3.77875L14.4217 1.84521L9.42006 4.99682Z" fill="#DEDEDE"/>
<path d="M17.0431 3.90289L15.7588 1.10015L21.2671 0.366943L17.0431 3.90289Z" fill="#DEDEDE"/>
<path d="M21.0966 1.80373C20.8215 1.36392 20.4063 1.03049 19.9184 0.857666C19.4412 1.26566 17.9095 2.58424 17.7386 2.68476L17.3498 2.9272C17.4857 3.0151 17.6004 3.13225 17.6856 3.27015C18.3395 4.36404 16.8903 6.4454 14.4454 7.92364C13.5463 8.48296 12.5638 8.89419 11.5352 9.1417L12.4247 11.4596C13.5874 11.0571 14.7034 10.5297 15.7533 9.88674C19.8771 7.38556 22.2748 3.76683 21.0966 1.80373Z" fill="#DEDEDE"/>
<path d="M14.1746 1.91607L13.3793 1.77417C12.7268 2.07314 12.0915 2.40873 11.4765 2.77937C7.35261 5.28646 4.94311 8.90518 6.12135 10.8683C6.31813 11.1879 6.5942 11.4507 6.92255 11.6311L7.06395 11.2526C7.06395 11.1994 8.7724 9.67386 9.42043 9.10622C9.17771 9.01761 8.97072 8.85141 8.83131 8.63318C8.17739 7.53929 9.62663 5.45794 12.0715 3.97379C12.7144 3.58836 13.3955 3.27129 14.1039 3.02771L14.1746 1.91607Z" fill="#DEDEDE"/>
<path d="M9.59714 8.47363L10.7577 11.572L5.53809 11.915L9.59714 8.47363Z" fill="#DEDEDE"/>
<path d="M17.7095 19.3593C19.138 18.9562 20.4983 18.3403 21.7449 17.5322C22.3219 17.1627 22.8453 16.715 23.3002 16.2018C24.3187 15.0998 25.0388 13.7542 25.3916 12.2934C25.3916 12.2283 23.2177 8.1543 23.2177 8.1543C21.9554 10.374 20.1473 12.2319 17.966 13.5507C15.7846 14.8695 13.303 15.6051 10.7578 15.6874L11.6886 17.0178L13.291 19.2765L13.3558 19.312L13.5267 19.3889C13.9814 19.5438 14.4552 19.6353 14.9347 19.6609C15.8698 19.7146 16.8074 19.6127 17.7095 19.3593ZM21.5211 25.0062C22.8281 24.6032 24.0673 24.0052 25.1972 23.2323C25.4482 23.0672 25.6865 22.8834 25.91 22.6824C26.1861 22.4417 26.444 22.1808 26.6818 21.9019C27.2234 21.2899 27.6576 20.5901 27.9661 19.8324C28.1757 19.3131 28.3048 18.7648 28.349 18.2063C28.361 18.0094 28.361 17.8119 28.349 17.615L26.2046 13.6711C26.0461 14.3344 25.7984 14.973 25.4682 15.5691C25.0033 16.3964 24.4062 17.1415 23.7008 17.7747C23.3193 18.1305 22.9051 18.4492 22.4637 18.7266C21.097 19.6116 19.6056 20.2853 18.0394 20.7252C16.9968 21.0137 15.9143 21.1295 14.8345 21.0682H14.5282L17.2264 24.8761L17.3795 24.9412L17.5386 25.0121C17.995 25.1961 18.4789 25.3021 18.9702 25.3255C19.8324 25.3659 20.6952 25.2579 21.5211 25.0062ZM31.5361 23.5575L29.4919 19.7614C29.4755 19.8039 29.4617 19.8473 29.4506 19.8915C29.301 20.3752 29.1036 20.8426 28.8615 21.287C28.4078 22.1006 27.836 22.8419 27.1649 23.4866C26.8033 23.8409 26.4087 24.1597 25.9866 24.4386C24.7373 25.2865 23.3666 25.9385 21.9217 26.3721C20.9485 26.6559 19.9353 26.7758 18.923 26.7269L18.546 26.6796L21.1087 30.2865C21.1087 30.2865 23.6596 31.6228 28.3784 28.4416C28.3902 28.4534 31.8189 26.2243 31.542 23.5575H31.5361Z" fill="#8BC53F"/>
<path d="M14.4749 1.89238C14.8991 2.60193 14.0567 3.89687 12.5839 4.78381C11.1111 5.67075 9.57935 5.81857 9.15518 5.11493C8.73101 4.41129 9.57935 3.11044 11.0463 2.2235C12.5132 1.33656 14.0508 1.18874 14.4749 1.89238Z" fill="#8BC53F"/>
<path d="M13.7152 2.35358C14.0216 2.85618 13.4148 3.78452 12.3661 4.4172C11.3175 5.04989 10.2217 5.15632 9.9154 4.65372C9.60906 4.15112 10.2159 3.22278 11.2645 2.5901C12.3131 1.95741 13.4148 1.84507 13.7152 2.35358Z" fill="#B0E55C"/>
<path d="M10.2334 5.86008L10.7518 6.70564C11.3547 6.77938 11.9661 6.68527 12.5192 6.43364L11.9713 5.45801C11.4282 5.71767 10.835 5.8549 10.2334 5.86008Z" fill="white"/>
<path d="M17.5916 19.389L14.7049 14.9897C13.4233 15.3844 12.0971 15.6149 10.7578 15.6757L11.6886 17.0061L13.291 19.2648L13.3558 19.3003L13.5267 19.3772C13.9814 19.532 14.4552 19.6236 14.9347 19.6492C15.8284 19.7015 16.7248 19.6137 17.5916 19.389ZM21.3149 25.0595L18.4105 20.6366L18.0688 20.7312C17.0262 21.0197 15.9437 21.1355 14.864 21.0742H14.5577L17.2558 24.8821L17.409 24.9472L17.5681 25.0181C18.0244 25.2021 18.5083 25.3081 18.9996 25.3315C19.7809 25.3655 20.5625 25.2737 21.3149 25.0595ZM22.1338 26.3012L21.904 26.3722C20.9309 26.656 19.9176 26.7759 18.9054 26.7269L18.546 26.6796L21.1087 30.2865C21.1087 30.2865 22.3517 30.9429 24.7141 30.2451L22.1338 26.3012Z" fill="url(#paint23_radial_437_1025)"/>
<path d="M26.2045 13.6711C26.0461 14.3344 25.7983 14.973 25.4681 15.5692C25.368 15.7466 25.2678 15.9121 25.1618 16.0777L27.6596 20.4947C27.7706 20.283 27.8708 20.066 27.9601 19.8442C28.1697 19.325 28.2988 18.7766 28.343 18.2182C28.3551 18.0213 28.3551 17.8238 28.343 17.6269L26.2045 13.6711ZM31.5066 23.5517L29.4624 19.7555C29.446 19.798 29.4322 19.8415 29.4211 19.8856C29.2715 20.3693 29.0741 20.8368 28.832 21.2811C28.7142 21.4999 28.5846 21.7068 28.455 21.9079L30.8114 26.0469C31.3329 25.3261 31.5909 24.447 31.542 23.5576L31.5066 23.5517ZM21.792 10.1825L24.3665 14.7236C24.8216 13.9687 25.1556 13.1466 25.3562 12.2875C25.3562 12.2225 23.1823 8.14844 23.1823 8.14844C22.8036 8.87449 22.3494 9.55828 21.8273 10.1884L21.792 10.1825Z" fill="#B0E55C"/>
<path d="M26.3105 24.1962C26.2008 24.2828 26.0867 24.3637 25.9688 24.4386C25.6683 24.6396 25.3796 24.817 25.0851 24.9885L27.6772 28.9088C27.907 28.7728 28.1426 28.619 28.39 28.4535C28.39 28.4535 28.5255 28.3648 28.7376 28.2051L26.3105 24.1962ZM22.8582 18.4902C22.7345 18.5788 22.6108 18.6557 22.4929 18.7326C22.1159 18.9691 21.7506 19.1879 21.3913 19.3771L24.3015 23.8C24.5902 23.6344 24.8907 23.4511 25.197 23.2501C25.3276 23.1664 25.4534 23.0756 25.574 22.9781L22.8582 18.4902ZM22.1218 17.2721L19.3058 12.6245C18.7785 13.0222 18.2276 13.3875 17.6562 13.7184L20.6019 18.1886C20.9671 17.9994 21.3442 17.7747 21.7389 17.5323L22.1218 17.2721Z" fill="white"/>
<path d="M20.0895 26.7092C19.6972 26.735 19.3036 26.735 18.9113 26.7092L18.546 26.6796L21.1087 30.2865C21.6229 30.5008 22.1787 30.5958 22.7347 30.5644L20.0895 26.7092ZM15.2469 19.6728L12.3838 15.5337C11.8654 15.6086 11.3234 15.6618 10.7578 15.6933L11.6886 17.0238L13.291 19.2825L13.3558 19.318L13.5267 19.3948C13.9814 19.5497 14.4552 19.6412 14.9347 19.6668L15.2469 19.6728ZM19.1292 25.3137L16.1836 21.0623C15.7385 21.0974 15.2914 21.0974 14.8463 21.0623H14.54L17.2382 24.8702L17.3913 24.9353L17.5504 25.0062C18.0068 25.1903 18.4907 25.2962 18.982 25.3196L19.1292 25.3137Z" fill="url(#paint24_radial_437_1025)"/>
<path d="M14.7041 3.02783L15.2284 3.91477C15.2067 4.17002 15.1057 4.41198 14.9397 4.60659L14.3506 3.6546C14.5099 3.47214 14.6302 3.25882 14.7041 3.02783Z" fill="#8BC53F"/>
<path d="M55.9075 35.6494L55.5717 37.5475H58.0165L57.8162 38.6828H55.3596L55.0179 40.6636H57.7868L57.5747 41.8462H53.333L54.6291 34.5142H58.8649L58.6646 35.6672L55.9075 35.6494Z" fill="#DEDEDE"/>
<path d="M64.0496 34.0649L62.6769 41.8286H61.2041L62.5709 34.0649H64.0496Z" fill="#DEDEDE"/>
<path d="M71.7252 36.5364C71.9432 36.7499 72.1136 37.0073 72.2253 37.2916C72.337 37.576 72.3874 37.8808 72.3733 38.1861C72.3745 38.3845 72.3568 38.5825 72.3202 38.7774C72.2842 38.9609 72.2389 39.1425 72.1847 39.3214H67.9548C67.9507 39.3904 67.9507 39.4595 67.9548 39.5284C67.9457 39.6856 67.9693 39.8431 68.0241 39.9907C68.0788 40.1383 68.1636 40.2728 68.273 40.3858C68.5025 40.5957 68.8052 40.7061 69.1154 40.6932C69.3818 40.6999 69.6449 40.6323 69.8754 40.4981C70.0847 40.3727 70.2605 40.1982 70.3879 39.9896H71.9668C71.6989 40.5677 71.271 41.0563 70.7341 41.397C70.1971 41.7378 69.5739 41.9163 68.9387 41.9113C68.29 41.9389 67.6561 41.712 67.1713 41.2786C66.9465 41.057 66.771 40.7902 66.6562 40.4957C66.5415 40.2012 66.4902 39.8856 66.5056 39.5698C66.5058 39.3497 66.5255 39.13 66.5645 38.9134C66.6564 38.3433 66.876 37.8015 67.2067 37.3288C67.5194 36.8859 67.9336 36.5249 68.4144 36.2763C68.9045 36.0309 69.4455 35.9053 69.9932 35.9097C70.6296 35.886 71.2504 36.1106 71.7252 36.5364ZM70.8887 38.198C70.8965 38.0509 70.8715 37.904 70.8154 37.7679C70.7593 37.6319 70.6737 37.5101 70.5647 37.4115C70.3291 37.2145 70.0285 37.1132 69.7222 37.1277C69.3592 37.1253 69.0068 37.2508 68.7266 37.4825C68.4262 37.7295 68.21 38.0643 68.108 38.4404H70.871C70.8828 38.3281 70.8887 38.2512 70.8887 38.198Z" fill="#DEDEDE"/>
<path d="M75.9259 37.3229C76.2344 36.8787 76.6462 36.5168 77.1256 36.2684C77.6051 36.0201 78.1376 35.8929 78.6771 35.8979C79.2857 35.8617 79.886 36.0534 80.3619 36.436C80.5721 36.6299 80.7411 36.8645 80.8585 37.1256C80.9759 37.3868 81.0395 37.6691 81.0453 37.9556H79.4665C79.4385 37.7239 79.3224 37.5121 79.1425 37.3643C78.9435 37.2117 78.6974 37.1343 78.4473 37.1455C78.2464 37.1429 78.0472 37.1826 77.8625 37.262C77.6778 37.3415 77.5118 37.4589 77.3751 37.6067C77.0509 37.9674 76.8452 38.4195 76.786 38.9017C76.7535 39.0673 76.7358 39.2355 76.733 39.4043C76.7103 39.7354 76.8134 40.0629 77.0216 40.3208C77.1275 40.4296 77.2553 40.5144 77.3966 40.5695C77.5378 40.6246 77.6892 40.6487 77.8405 40.6401C78.1107 40.6492 78.3777 40.5785 78.6081 40.4365C78.8386 40.2946 79.0223 40.0878 79.1366 39.8418H80.7095C80.4566 40.4487 80.0354 40.97 79.4959 41.3437C78.9456 41.7183 78.2932 41.9124 77.6284 41.8995C77.3071 41.9182 76.9853 41.8724 76.6819 41.7648C76.3784 41.6571 76.0994 41.4899 75.8611 41.2727C75.6391 41.0533 75.4661 40.7891 75.3534 40.4976C75.2407 40.2061 75.1908 39.8939 75.2071 39.5817C75.2091 39.3535 75.2308 39.126 75.2719 38.9017C75.3688 38.3327 75.5924 37.7931 75.9259 37.3229Z" fill="#DEDEDE"/>
<path d="M85.758 40.0368C85.754 40.0919 85.754 40.1472 85.758 40.2023C85.7521 40.259 85.7603 40.3162 85.7819 40.3688C85.8035 40.4215 85.8378 40.4679 85.8817 40.5039C86.0031 40.574 86.1429 40.6049 86.2823 40.5926H86.9716L86.7536 41.8284H85.8228C84.7801 41.8284 84.2557 41.3908 84.2557 40.5157C84.2546 40.3512 84.2684 40.187 84.297 40.025L84.786 37.2222H84.0967L84.3088 36.0396H85.0098L85.2573 34.6028H86.7301L86.4826 36.0396H87.7669L87.5548 37.2222H86.2588L85.758 40.0368Z" fill="#DEDEDE"/>
<path d="M93.2693 36.229C93.5998 36.0345 93.9761 35.9324 94.3592 35.9334L94.0882 37.4766H93.6994C93.3325 37.4585 92.9694 37.5579 92.6625 37.7605C92.3576 38.0007 92.1486 38.3426 92.0734 38.7243L91.5314 41.8286H90.0586L91.0778 36.0161H92.5565L92.3738 37.045C92.6129 36.7138 92.9178 36.4359 93.2693 36.229Z" fill="#DEDEDE"/>
<path d="M99.0906 36.0162L98.0773 41.8286H96.6045L97.6296 36.0162H99.0906ZM97.9123 35.1292C97.8449 35.0633 97.7918 34.9841 97.7563 34.8966C97.7209 34.8091 97.7038 34.7151 97.7061 34.6207C97.7052 34.4856 97.7331 34.3518 97.788 34.2284C97.8428 34.105 97.9234 33.9948 98.0243 33.9052C98.123 33.8079 98.2399 33.7312 98.3683 33.6794C98.4968 33.6276 98.6341 33.6019 98.7725 33.6037C98.9723 33.5971 99.1669 33.6693 99.3145 33.8047C99.3823 33.8691 99.4357 33.9472 99.4713 34.0338C99.5068 34.1205 99.5237 34.2137 99.5206 34.3073C99.5232 34.443 99.4966 34.5777 99.4428 34.7021C99.3889 34.8266 99.309 34.938 99.2084 35.0287C99.0095 35.2217 98.7427 35.3279 98.4661 35.3243C98.2693 35.3292 98.078 35.2595 97.93 35.1292H97.9123Z" fill="#DEDEDE"/>
<path d="M102.584 37.3229C102.892 36.8795 103.303 36.5181 103.781 36.2698C104.26 36.0215 104.791 35.8938 105.329 35.8978C105.94 35.8619 106.542 36.0535 107.02 36.4359C107.229 36.6307 107.397 36.8654 107.515 37.1264C107.632 37.3874 107.696 37.6693 107.704 37.9555H106.125C106.094 37.7248 105.978 37.5139 105.801 37.3643C105.599 37.2117 105.352 37.1343 105.1 37.1455C104.899 37.1432 104.7 37.1831 104.515 37.2625C104.33 37.3419 104.164 37.4591 104.027 37.6067C103.705 37.9688 103.5 38.4202 103.438 38.9016C103.406 39.0672 103.388 39.2354 103.385 39.4042C103.364 39.7361 103.47 40.0637 103.68 40.3207C103.785 40.4294 103.911 40.5142 104.052 40.5693C104.192 40.6244 104.342 40.6485 104.493 40.64C104.763 40.6508 105.031 40.5806 105.262 40.4385C105.492 40.2964 105.676 40.0887 105.789 39.8418H107.368C107.115 40.4503 106.691 40.9721 106.148 41.3437C105.6 41.7181 104.95 41.9123 104.287 41.8995C103.965 41.9181 103.644 41.8723 103.34 41.7647C103.037 41.6571 102.758 41.4898 102.519 41.2727C102.297 41.0532 102.124 40.7891 102.012 40.4975C101.899 40.206 101.849 39.8939 101.865 39.5816C101.865 39.3537 101.885 39.1261 101.924 38.9016C102.021 38.3315 102.246 37.7913 102.584 37.3229Z" fill="#DEDEDE"/>
<path d="M121.288 37.4588C121.008 37.739 120.662 37.9426 120.281 38.0501C120.604 38.112 120.893 38.2909 121.094 38.5527C121.301 38.8235 121.409 39.1575 121.4 39.4988C121.408 39.607 121.408 39.7157 121.4 39.824C121.353 40.119 121.245 40.4011 121.084 40.6524C120.923 40.9037 120.712 41.1189 120.464 41.2845C119.915 41.6615 119.26 41.8521 118.596 41.8285H115.456L116.746 34.5082H119.757C120.299 34.4741 120.838 34.6218 121.288 34.928C121.462 35.0579 121.601 35.2279 121.694 35.4236C121.787 35.6192 121.832 35.8347 121.824 36.0515C121.826 36.1665 121.816 36.2814 121.795 36.3945C121.741 36.7937 121.564 37.1659 121.288 37.4588ZM119.939 39.4574C119.945 39.3442 119.923 39.2313 119.876 39.1284C119.829 39.0254 119.758 38.9354 119.668 38.8661C119.455 38.7122 119.194 38.637 118.932 38.6532H117.518L117.17 40.6636H118.643C118.956 40.6752 119.264 40.5838 119.521 40.4034C119.636 40.3152 119.732 40.2049 119.804 40.079C119.875 39.9531 119.921 39.8142 119.939 39.6702C119.927 39.5697 119.939 39.4988 119.939 39.4574ZM120.293 36.424C120.299 36.318 120.28 36.2121 120.238 36.1146C120.196 36.0172 120.132 35.9308 120.051 35.8623C119.849 35.7142 119.6 35.643 119.35 35.6613H118.025L117.689 37.5475H119.026C119.325 37.5636 119.622 37.485 119.874 37.3228C119.985 37.241 120.078 37.1375 120.148 37.0186C120.218 36.8997 120.263 36.7679 120.281 36.631C120.29 36.5624 120.294 36.4932 120.293 36.424Z" fill="#DEDEDE"/>
<path d="M125.253 37.3229C125.541 36.8861 125.929 36.5251 126.384 36.2704C126.816 36.0319 127.3 35.9059 127.792 35.9038C128.175 35.891 128.554 35.983 128.888 36.1698C129.162 36.3236 129.389 36.5508 129.542 36.8262L129.689 35.9984H131.162L130.137 41.8108H128.664L128.817 40.9593C128.572 41.2462 128.269 41.4779 127.928 41.6393C127.56 41.8156 127.157 41.9066 126.749 41.9054C126.353 41.9144 125.962 41.8142 125.618 41.6157C125.29 41.4239 125.024 41.1404 124.853 40.7997C124.667 40.4148 124.574 39.9914 124.581 39.5639C124.591 38.7658 124.831 37.9875 125.271 37.3229H125.253ZM129.218 38.5054C129.228 38.3286 129.201 38.1517 129.139 37.9858C129.077 37.8199 128.981 37.6687 128.859 37.5416C128.737 37.4272 128.595 37.338 128.439 37.2791C128.283 37.2203 128.118 37.1929 127.951 37.1987C127.676 37.1995 127.406 37.2664 127.162 37.3938C126.899 37.5372 126.674 37.7396 126.502 37.9851C126.306 38.2521 126.177 38.5623 126.125 38.8898C126.102 39.0147 126.091 39.1413 126.09 39.2682C126.079 39.4496 126.106 39.6311 126.168 39.8019C126.23 39.9727 126.325 40.129 126.449 40.2616C126.566 40.3797 126.706 40.4726 126.86 40.5346C127.014 40.5966 127.179 40.6265 127.344 40.6223C127.622 40.6195 127.896 40.5484 128.14 40.4153C128.405 40.2734 128.633 40.0708 128.806 39.824C128.994 39.5512 129.12 39.2404 129.177 38.9134C129.197 38.7782 129.211 38.6421 129.218 38.5054Z" fill="#DEDEDE"/>
<path d="M135.881 40.0368C135.877 40.0919 135.877 40.1472 135.881 40.2023C135.875 40.259 135.883 40.3162 135.905 40.3688C135.927 40.4215 135.961 40.4679 136.005 40.5039C136.126 40.574 136.266 40.6049 136.405 40.5926H137.095L136.877 41.8284H135.946C134.903 41.8284 134.379 41.3908 134.379 40.5157C134.378 40.3512 134.391 40.187 134.42 40.025L134.909 37.2222H134.22L134.432 36.0396H135.133L135.38 34.6028H136.853L136.606 36.0396H137.89L137.684 37.2222H136.37L135.881 40.0368Z" fill="#DEDEDE"/>
<path d="M142.261 40.0368C142.254 40.0917 142.254 40.1474 142.261 40.2023C142.256 40.2583 142.264 40.3148 142.285 40.3671C142.305 40.4195 142.337 40.4663 142.379 40.5039C142.501 40.5732 142.64 40.6042 142.78 40.5926H143.44L143.216 41.8284H142.261C141.219 41.8284 140.694 41.3908 140.694 40.5157C140.696 40.3513 140.71 40.1873 140.735 40.025L141.23 37.2222H140.541L140.747 36.0396H141.448L141.702 34.6028H143.174L142.921 36.0396H144.205L143.999 37.2222H142.703L142.261 40.0368Z" fill="#DEDEDE"/>
<path d="M151.887 36.5363C152.107 36.7489 152.278 37.0061 152.39 37.2907C152.501 37.5753 152.551 37.8806 152.536 38.1861C152.536 38.3841 152.52 38.5819 152.488 38.7774C152.451 38.961 152.403 39.1426 152.347 39.3213H148.117C148.113 39.3903 148.113 39.4594 148.117 39.5283C148.108 39.6855 148.132 39.843 148.186 39.9906C148.241 40.1382 148.326 40.2727 148.435 40.3857C148.665 40.5956 148.967 40.7061 149.278 40.6931C149.544 40.7004 149.807 40.6328 150.038 40.498C150.247 40.3712 150.425 40.1971 150.556 39.9895H152.129C151.861 40.5676 151.433 41.0562 150.896 41.397C150.359 41.7377 149.736 41.9162 149.101 41.9112C148.452 41.9408 147.817 41.7136 147.334 41.2785C147.107 41.0582 146.93 40.7917 146.814 40.497C146.698 40.2023 146.646 39.8861 146.662 39.5697C146.677 38.7698 146.922 37.9914 147.369 37.3287C147.68 36.8845 148.095 36.5233 148.577 36.2762C149.064 36.0302 149.604 35.9046 150.15 35.9096C150.788 35.8831 151.412 36.108 151.887 36.5363ZM151.051 38.1979C151.058 38.0514 151.034 37.9052 150.979 37.7693C150.924 37.6335 150.84 37.5113 150.733 37.4115C150.495 37.215 150.192 37.1139 149.884 37.1276C149.521 37.1252 149.169 37.2507 148.889 37.4824C148.599 37.7331 148.393 38.0677 148.3 38.4403H151.057C151.045 38.328 151.051 38.2511 151.051 38.1979Z" fill="#DEDEDE"/>
<path d="M158.491 36.229C158.821 36.0345 159.198 35.9324 159.581 35.9334L159.31 37.4766H158.921C158.554 37.4585 158.191 37.5579 157.884 37.7605C157.579 38.0007 157.37 38.3426 157.295 38.7243L156.753 41.8286H155.28L156.299 36.0161H157.778L157.596 37.045C157.835 36.7138 158.139 36.4359 158.491 36.229Z" fill="#DEDEDE"/>
<path d="M164.312 36.0162L163.287 41.8286H161.814L162.84 36.0162H164.312ZM163.134 35.1292C163.067 35.0633 163.014 34.9841 162.978 34.8966C162.943 34.8091 162.926 34.7151 162.928 34.6207C162.927 34.4856 162.955 34.3518 163.01 34.2284C163.065 34.105 163.145 33.9948 163.246 33.9052C163.345 33.8079 163.462 33.7312 163.59 33.6794C163.718 33.6276 163.856 33.6019 163.994 33.6037C164.194 33.5971 164.389 33.6693 164.536 33.8047C164.604 33.8691 164.657 33.9472 164.693 34.0338C164.729 34.1205 164.745 34.2137 164.742 34.3073C164.745 34.443 164.718 34.5777 164.665 34.7021C164.611 34.8266 164.531 34.938 164.43 35.0287C164.231 35.2217 163.964 35.3279 163.688 35.3243C163.491 35.3292 163.3 35.2595 163.152 35.1292H163.134Z" fill="#DEDEDE"/>
<path d="M172.347 36.5364C172.565 36.7499 172.736 37.0072 172.847 37.2916C172.959 37.5759 173.01 37.8808 172.995 38.1861C172.997 38.3845 172.979 38.5825 172.942 38.7774C172.906 38.9609 172.861 39.1425 172.807 39.3214H168.577C168.573 39.3903 168.573 39.4594 168.577 39.5283C168.568 39.6856 168.591 39.843 168.646 39.9906C168.701 40.1382 168.786 40.2728 168.895 40.3857C169.125 40.5956 169.427 40.7061 169.738 40.6932C170.004 40.6998 170.267 40.6323 170.497 40.4981C170.707 40.3726 170.883 40.1981 171.01 39.9896H172.589C172.321 40.5677 171.893 41.0563 171.356 41.397C170.819 41.7378 170.196 41.9163 169.561 41.9113C168.912 41.9389 168.278 41.712 167.793 41.2786C167.569 41.057 167.393 40.7902 167.278 40.4957C167.164 40.2012 167.112 39.8856 167.128 39.5697C167.128 39.3496 167.148 39.13 167.187 38.9134C167.281 38.3429 167.502 37.8011 167.835 37.3287C168.139 36.889 168.542 36.5282 169.013 36.2762C169.503 36.0309 170.044 35.9053 170.592 35.9096C171.236 35.8797 171.867 36.1047 172.347 36.5364ZM171.511 38.1979C171.519 38.0509 171.494 37.904 171.437 37.7679C171.381 37.6318 171.296 37.5101 171.187 37.4115C170.951 37.2144 170.651 37.1132 170.344 37.1277C169.981 37.1252 169.629 37.2508 169.349 37.4825C169.048 37.7295 168.832 38.0643 168.73 38.4404H171.493C171.505 38.328 171.511 38.2512 171.511 38.1979Z" fill="#DEDEDE"/>
<path d="M176.878 41.7103C176.559 41.5893 176.279 41.3852 176.065 41.119C175.866 40.8713 175.76 40.5618 175.764 40.2439C175.758 40.1652 175.758 40.0861 175.764 40.0074H177.184C177.17 40.1163 177.182 40.2272 177.22 40.3302C177.258 40.4333 177.32 40.5254 177.402 40.5987C177.604 40.7594 177.858 40.8394 178.115 40.8234C178.356 40.8305 178.595 40.7777 178.81 40.6697C178.894 40.6301 178.964 40.5672 179.013 40.4886C179.062 40.41 179.088 40.319 179.087 40.2262C179.086 40.1392 179.061 40.0541 179.015 39.9802C178.97 39.9062 178.905 39.8461 178.828 39.8064C178.571 39.6618 178.301 39.543 178.021 39.4516C177.707 39.3401 177.4 39.2098 177.102 39.0613C176.855 38.9353 176.64 38.7555 176.471 38.5351C176.293 38.2901 176.202 37.9925 176.212 37.6895C176.208 37.36 176.312 37.0382 176.507 36.773C176.725 36.5036 177.012 36.2992 177.337 36.1817C177.727 36.027 178.143 35.9506 178.563 35.957C178.967 35.9478 179.368 36.0244 179.741 36.1817C180.05 36.3017 180.32 36.5066 180.519 36.773C180.702 37.0364 180.799 37.3506 180.795 37.6718C180.8 37.7348 180.8 37.798 180.795 37.861H179.44C179.455 37.7526 179.443 37.6422 179.407 37.5393C179.37 37.4364 179.308 37.3439 179.228 37.2697C179.032 37.1082 178.781 37.0279 178.527 37.045C178.319 37.0426 178.115 37.1001 177.938 37.2106C177.863 37.2546 177.802 37.3178 177.759 37.3936C177.717 37.4695 177.695 37.5553 177.697 37.6422C177.697 37.7347 177.723 37.8252 177.771 37.9043C177.818 37.9833 177.886 38.0481 177.968 38.0916C178.234 38.2448 178.514 38.3734 178.804 38.476C179.114 38.5884 179.415 38.7228 179.706 38.878C179.934 39.004 180.134 39.175 180.295 39.3806C180.466 39.6125 180.553 39.8963 180.542 40.1848C180.549 40.5251 180.434 40.8565 180.218 41.119C179.979 41.3919 179.672 41.596 179.328 41.7103C178.921 41.858 178.489 41.9301 178.056 41.9232C177.653 41.9321 177.252 41.8598 176.878 41.7103Z" fill="#DEDEDE"/>
<path d="M191.606 34.5083L190.321 41.8285H188.849L190.145 34.5083H191.606Z" fill="#DEDEDE"/>
<path d="M199.7 36.424C199.879 36.6061 200.018 36.8239 200.107 37.0633C200.196 37.3028 200.234 37.5584 200.219 37.8135C200.217 38.0117 200.2 38.2095 200.166 38.4048L199.577 41.8166H198.122L198.711 38.6059C198.732 38.4848 198.742 38.3621 198.74 38.2393C198.751 38.0942 198.732 37.9485 198.684 37.8112C198.637 37.6738 198.562 37.5478 198.463 37.441C198.246 37.2494 197.962 37.1516 197.674 37.169C197.31 37.1607 196.955 37.287 196.678 37.5238C196.383 37.7862 196.19 38.1439 196.13 38.5349L195.541 41.8166H194.068L195.093 36.0042H196.566L196.443 36.7196C196.685 36.47 196.973 36.2693 197.291 36.1283C197.612 35.9872 197.959 35.9147 198.31 35.9155C198.821 35.9 199.319 36.082 199.7 36.424Z" fill="#DEDEDE"/>
<path d="M204.03 37.3229C204.338 36.8795 204.749 36.5181 205.227 36.2698C205.706 36.0215 206.237 35.8938 206.776 35.8978C207.386 35.8619 207.988 36.0535 208.466 36.4359C208.677 36.6298 208.845 36.8644 208.963 37.1256C209.08 37.3867 209.144 37.6691 209.15 37.9555H207.571C207.543 37.7239 207.427 37.512 207.247 37.3643C207.046 37.2117 206.798 37.1343 206.546 37.1455C206.345 37.1432 206.146 37.1831 205.961 37.2625C205.777 37.3419 205.61 37.4591 205.474 37.6067C205.152 37.9688 204.946 38.4202 204.884 38.9016C204.852 39.0672 204.834 39.2354 204.831 39.4042C204.81 39.7361 204.916 40.0637 205.126 40.3207C205.231 40.4294 205.358 40.5142 205.498 40.5693C205.638 40.6244 205.789 40.6485 205.939 40.64C206.21 40.6508 206.477 40.5806 206.708 40.4385C206.939 40.2964 207.122 40.0887 207.235 39.8418H208.832C208.579 40.4503 208.155 40.9721 207.612 41.3437C207.064 41.7181 206.413 41.9123 205.75 41.8995C205.429 41.9181 205.107 41.8723 204.804 41.7647C204.5 41.6571 204.221 41.4898 203.983 41.2727C203.761 41.0532 203.588 40.7891 203.475 40.4975C203.363 40.206 203.313 39.8939 203.329 39.5816C203.328 39.3533 203.35 39.1256 203.394 38.9016C203.48 38.3327 203.698 37.792 204.03 37.3229Z" fill="#DEDEDE"/>
<path d="M211.907 41.7045C211.838 41.6394 211.784 41.5604 211.749 41.4727C211.713 41.3849 211.697 41.2906 211.701 41.1959C211.7 41.0608 211.728 40.927 211.783 40.8036C211.837 40.6802 211.918 40.57 212.019 40.4805C212.217 40.2854 212.484 40.1769 212.761 40.1789C212.862 40.1733 212.962 40.1876 213.057 40.2211C213.152 40.2546 213.24 40.3066 213.315 40.3741C213.382 40.4401 213.434 40.5194 213.469 40.607C213.503 40.6946 213.519 40.7885 213.515 40.8826C213.516 41.018 213.489 41.1522 213.435 41.2764C213.381 41.4007 213.302 41.5123 213.203 41.6039C213.105 41.7008 212.989 41.777 212.862 41.8278C212.734 41.8786 212.598 41.903 212.461 41.8996C212.258 41.909 212.059 41.8391 211.907 41.7045Z" fill="#1D871D"/>
</g>
<defs>
<radialGradient id="paint0_radial_437_1025" cx="0" cy="0" r="1" gradientUnits="userSpaceOnUse" gradientTransform="translate(108.245 3.81453) scale(39.4642 25.3824)">
<stop offset="0.23" stop-color="#33C53F"/>
<stop offset="0.71" stop-color="#005E1C"/>
</radialGradient>
<radialGradient id="paint1_radial_437_1025" cx="0" cy="0" r="1" gradientUnits="userSpaceOnUse" gradientTransform="translate(99.2374 4.36396) scale(26.9288 27.0281)">
<stop offset="0.23" stop-color="#33C53F"/>
<stop offset="0.71" stop-color="#005E1C"/>
</radialGradient>
<radialGradient id="paint2_radial_437_1025" cx="0" cy="0" r="1" gradientUnits="userSpaceOnUse" gradientTransform="translate(95.7224 13.1344) scale(25.99 21.5373)">
<stop offset="0.23" stop-color="#33C53F"/>
<stop offset="0.71" stop-color="#005E1C"/>
</radialGradient>
<radialGradient id="paint3_radial_437_1025" cx="0" cy="0" r="1" gradientUnits="userSpaceOnUse" gradientTransform="translate(111.351 16.2567) scale(34.8099 32.6509)">
<stop offset="0.23" stop-color="#33C53F"/>
<stop offset="0.71" stop-color="#005E1C"/>
</radialGradient>
<radialGradient id="paint4_radial_437_1025" cx="0" cy="0" r="1" gradientUnits="userSpaceOnUse" gradientTransform="translate(99.4159 18.3173) scale(34.673 24.5854)">
<stop offset="0.23" stop-color="#33C53F"/>
<stop offset="0.71" stop-color="#005E1C"/>
</radialGradient>
<radialGradient id="paint5_radial_437_1025" cx="0" cy="0" r="1" gradientUnits="userSpaceOnUse" gradientTransform="translate(146.386 3.81844) scale(39.4642 25.3824)">
<stop offset="0.23" stop-color="#33C53F"/>
<stop offset="0.71" stop-color="#005E1C"/>
</radialGradient>
<radialGradient id="paint6_radial_437_1025" cx="0" cy="0" r="1" gradientUnits="userSpaceOnUse" gradientTransform="translate(137.378 4.36786) scale(26.9288 27.0281)">
<stop offset="0.23" stop-color="#33C53F"/>
<stop offset="0.71" stop-color="#005E1C"/>
</radialGradient>
<radialGradient id="paint7_radial_437_1025" cx="0" cy="0" r="1" gradientUnits="userSpaceOnUse" gradientTransform="translate(133.864 13.1383) scale(25.99 21.5373)">
<stop offset="0.23" stop-color="#33C53F"/>
<stop offset="0.71" stop-color="#005E1C"/>
</radialGradient>
<radialGradient id="paint8_radial_437_1025" cx="0" cy="0" r="1" gradientUnits="userSpaceOnUse" gradientTransform="translate(149.493 16.2606) scale(34.8099 32.6509)">
<stop offset="0.23" stop-color="#33C53F"/>
<stop offset="0.71" stop-color="#005E1C"/>
</radialGradient>
<radialGradient id="paint9_radial_437_1025" cx="0" cy="0" r="1" gradientUnits="userSpaceOnUse" gradientTransform="translate(137.557 18.3213) scale(34.673 24.5854)">
<stop offset="0.23" stop-color="#33C53F"/>
<stop offset="0.71" stop-color="#005E1C"/>
</radialGradient>
<radialGradient id="paint10_radial_437_1025" cx="0" cy="0" r="1" gradientUnits="userSpaceOnUse" gradientTransform="translate(12.6897 19.5546) scale(25.1202 25.2128)">
<stop offset="0.23" stop-color="#8BC53F"/>
<stop offset="0.71" stop-color="#007A45"/>
</radialGradient>
<radialGradient id="paint11_radial_437_1025" cx="0" cy="0" r="1" gradientUnits="userSpaceOnUse" gradientTransform="translate(19.8826 29.9909) scale(21.4912 21.5704)">
<stop offset="0.23" stop-color="#33C53F"/>
<stop offset="0.71" stop-color="#005E1C"/>
</radialGradient>
<radialGradient id="paint12_radial_437_1025" cx="0" cy="0" r="1" gradientUnits="userSpaceOnUse" gradientTransform="translate(37.7629 0.497096) scale(33.091 33.213)">
<stop offset="0.23" stop-color="#8BC53F"/>
<stop offset="0.71" stop-color="#007A45"/>
</radialGradient>
<radialGradient id="paint13_radial_437_1025" cx="0" cy="0" r="1" gradientUnits="userSpaceOnUse" gradientTransform="translate(28.0717 33.6626) scale(26.9052 27.0044)">
<stop offset="0.23" stop-color="#8BC53F"/>
<stop offset="0.71" stop-color="#007A45"/>
</radialGradient>
<radialGradient id="paint14_radial_437_1025" cx="0" cy="0" r="1" gradientUnits="userSpaceOnUse" gradientTransform="translate(41.1027 4.63613) scale(16.1243 16.1837)">
<stop offset="0.23" stop-color="#8BC53F"/>
<stop offset="0.71" stop-color="#007A45"/>
</radialGradient>
<radialGradient id="paint15_radial_437_1025" cx="0" cy="0" r="1" gradientUnits="userSpaceOnUse" gradientTransform="translate(2.65062 26.8629) scale(62.4881 62.7186)">
<stop offset="0.23" stop-color="#33C53F"/>
<stop offset="0.71" stop-color="#005E1C"/>
</radialGradient>
<radialGradient id="paint16_radial_437_1025" cx="0" cy="0" r="1" gradientUnits="userSpaceOnUse" gradientTransform="translate(45.1793 14.4397) scale(17.4734 17.5378)">
<stop offset="0.23" stop-color="#33C53F"/>
<stop offset="0.71" stop-color="#005E1C"/>
</radialGradient>
<radialGradient id="paint17_radial_437_1025" cx="0" cy="0" r="1" gradientUnits="userSpaceOnUse" gradientTransform="translate(45.1802 21.7955) scale(10.887 10.9271)">
<stop offset="0.23" stop-color="#33C53F"/>
<stop offset="0.71" stop-color="#005E1C"/>
</radialGradient>
<radialGradient id="paint18_radial_437_1025" cx="0" cy="0" r="1" gradientUnits="userSpaceOnUse" gradientTransform="translate(41.1147 4.93165) scale(15.8415 15.8999)">
<stop offset="0.23" stop-color="#8BC53F"/>
<stop offset="0.71" stop-color="#007A45"/>
</radialGradient>
<radialGradient id="paint19_radial_437_1025" cx="0" cy="0" r="1" gradientUnits="userSpaceOnUse" gradientTransform="translate(44.3865 5.96959) rotate(-24.8555) scale(7.4149 7.4326)">
<stop offset="0.23" stop-color="#8BC53F"/>
<stop offset="0.71" stop-color="#007A45"/>
</radialGradient>
<radialGradient id="paint20_radial_437_1025" cx="0" cy="0" r="1" gradientUnits="userSpaceOnUse" gradientTransform="translate(42.0825 3.51885) rotate(-24.8555) scale(10.0441 10.0681)">
<stop offset="0.23" stop-color="#8BC53F"/>
<stop offset="0.71" stop-color="#007A45"/>
</radialGradient>
<radialGradient id="paint21_radial_437_1025" cx="0" cy="0" r="1" gradientUnits="userSpaceOnUse" gradientTransform="translate(7.02282 14.4572) rotate(178.275) scale(7.39682 7.42407)">
<stop offset="0.23" stop-color="#8BC53F"/>
<stop offset="0.71" stop-color="#007A45"/>
</radialGradient>
<radialGradient id="paint22_radial_437_1025" cx="0" cy="0" r="1" gradientUnits="userSpaceOnUse" gradientTransform="translate(7.99405 11.2439) rotate(178.275) scale(10.0196 10.0565)">
<stop offset="0.23" stop-color="#8BC53F"/>
<stop offset="0.71" stop-color="#007A45"/>
</radialGradient>
<radialGradient id="paint23_radial_437_1025" cx="0" cy="0" r="1" gradientUnits="userSpaceOnUse" gradientTransform="translate(23.9266 14.2085) rotate(0.341254) scale(28.6961 28.802)">
<stop offset="0.23" stop-color="#8BC53F"/>
<stop offset="0.71" stop-color="#007A45"/>
</radialGradient>
<radialGradient id="paint24_radial_437_1025" cx="0" cy="0" r="1" gradientUnits="userSpaceOnUse" gradientTransform="translate(27.8892 10.6014) rotate(0.341254) scale(18.3806 18.4484)">
<stop offset="0.23" stop-color="#8BC53F"/>
<stop offset="0.71" stop-color="#007A45"/>
</radialGradient>
<clipPath id="clip0_437_1025">
<rect width="215" height="50.266" fill="white" transform="translate(0 0.366943)"/>
</clipPath>
</defs>
</svg>
