<svg width="72" height="65" viewBox="0 0 72 65" fill="none" xmlns="http://www.w3.org/2000/svg">
<path d="M28.5 34.0002C18.9869 34.0005 15.5 38.5002 14 39.5002C15 39.5002 17.1091 40.0952 21 42.3C24 44 25.8487 46.4156 30 46.0002C35 45.5 39 44.5 40.5 47.3L46.5 45C45 41.3333 38 34 28.5 34.0002Z" fill="#A4B8C1"/>
<path d="M60.7405 44.6688C59.7296 42.7652 57.3969 41.9276 55.3753 42.6129L49.4657 44.6688C45.8111 36.8257 37.9577 31.7239 29.1712 31.3432V26.2414C40.8347 25.1753 52.6538 15.4285 52.6538 1.34143V0.503813L51.7984 0.35152C43.3229 -1.01912 37.6467 1.87445 34.3031 4.61573C30.4153 7.81389 28.0826 12.2304 27.305 15.657C26.4497 14.4386 25.2833 13.2203 23.8059 12.2304C19.0628 8.87994 12.8422 8.11848 6.69941 10.0983L5.9996 10.3267V11.0882C5.9996 17.9414 15.7192 26.3937 26.994 26.3937C26.994 26.3937 26.994 26.3937 27.0717 26.3937V31.4193C20.3846 31.7239 14.2418 34.6936 9.9652 39.7193C9.80969 39.8716 9.73193 40.1001 9.73193 40.3285C8.64333 40.4808 7.55474 40.7854 6.46614 41.2422L0.634371 43.8312C0.0900723 44.0597 -0.143198 44.6688 0.0900724 45.2019C0.323343 45.7349 0.945398 45.9633 1.4897 45.7349L7.32147 43.2221C11.2093 41.623 15.797 42.156 19.2183 44.5927L24.428 47.7909C25.6721 48.5523 27.2272 48.9331 28.7046 48.7808L36.4803 48.0193C37.4134 47.9432 38.3465 48.5523 38.5798 49.4661C38.813 50.3798 38.191 51.3698 37.2579 51.6743L31.2706 53.5019C29.2489 54.111 26.994 54.2633 24.8945 53.8064L19.8403 52.8165C19.296 52.7404 18.7517 53.045 18.5962 53.6542C18.4407 54.2633 18.8295 54.7202 19.4515 54.8725L24.5058 55.8624C25.5166 56.0908 26.4497 56.167 27.4605 56.167C28.9379 56.167 30.493 55.9386 31.8927 55.4817L37.8799 53.6542C39.5128 53.1973 40.6014 51.7505 40.6792 50.1514L56.1528 44.6688C57.2414 44.2881 58.4078 44.745 58.9521 45.7349C59.2631 46.2679 59.2631 46.8771 59.1076 47.4863C58.9521 48.0954 58.4855 48.5523 57.9412 48.7808L30.2598 62.4872C29.1712 63.0202 27.9271 63.1725 26.7607 62.7917L8.79885 57.5376C7.55474 57.1569 6.23287 57.1569 4.98876 57.3853L2.34502 57.9184C1.80072 58.0707 1.41194 58.6037 1.56745 59.1367C1.72297 59.6697 2.26727 60.0505 2.81156 59.8982L5.37754 59.3652C6.31063 59.1367 7.24371 59.2129 8.17679 59.4413L26.1386 64.6954C26.7607 64.8477 27.4605 65 28.0826 65C29.1712 65 30.182 64.7716 31.1928 64.2385L58.7966 50.456C59.8852 49.923 60.6627 49.0092 60.9738 47.9432C61.4403 46.801 61.2848 45.6588 60.7405 44.6688ZM29.2489 20.9873V17.7891C29.2489 15.3524 31.0373 10.0983 35.7028 6.21481C38.502 3.85426 43.4007 1.34143 50.5543 2.25518C50.0878 14.6671 39.6684 23.1955 29.2489 24.1854V20.9873ZM27.0717 24.2616C17.5076 24.2616 8.95436 17.4845 8.25455 11.7735C13.4643 10.3267 18.674 11.012 22.6396 13.9056C25.3611 15.8093 27.0717 18.5506 27.0717 20.9873V24.2616C27.1495 24.2616 27.1495 24.2616 27.0717 24.2616ZM36.247 45.8872L28.4714 46.6487C27.4605 46.7248 26.4497 46.4964 25.5943 45.9633L20.4624 42.7652C18.1297 41.09 15.2527 40.1762 12.3757 40.1001C16.419 35.8358 22.0953 33.323 28.0826 33.323C36.4026 33.323 43.945 38.0441 47.444 45.3542L40.2127 48.0193C39.5128 46.5725 37.9577 45.7349 36.247 45.8872Z" fill="#1B1B1B"/>
</svg>
