<svg width="72" height="67" viewBox="0 0 72 67" fill="none" xmlns="http://www.w3.org/2000/svg">
<circle cx="26.1155" cy="25.5357" r="16.8304" fill="#A4B8C1"/>
<path d="M25.1691 14.4058C25.4757 13.4999 26.757 13.4999 27.0636 14.4058L29.1439 20.5522C29.2813 20.9583 29.6623 21.2316 30.0911 21.2316H36.7334C37.712 21.2316 38.1081 22.492 37.3055 23.0518L32.0029 26.7502C31.638 27.0047 31.4851 27.4697 31.6278 27.891L33.6696 33.9237C33.979 34.8379 32.9419 35.6167 32.1503 35.0645L26.6884 31.255C26.3447 31.0153 25.888 31.0153 25.5443 31.255L20.0824 35.0645C19.2908 35.6167 18.2537 34.8379 18.5631 33.9237L20.6049 27.891C20.7476 27.4697 20.5947 27.0047 20.2298 26.7502L14.9272 23.0518C14.1246 22.492 14.5207 21.2316 15.4993 21.2316H22.1416C22.5704 21.2316 22.9514 20.9583 23.0888 20.5522L25.1691 14.4058Z" fill="white"/>
<path fill-rule="evenodd" clip-rule="evenodd" d="M26.1161 4.52299e-08C31.0988 6.25101e-05 35.9725 1.46008 40.1356 4.19987C44.2987 6.93966 47.5691 10.8393 49.5431 15.4175C51.517 19.9957 52.1082 25.0521 51.2437 29.9627C50.3791 34.8732 48.0967 39.423 44.6781 43.0505L52.152 59.0909C52.2261 59.251 52.2496 59.43 52.2192 59.6038C52.1889 59.7777 52.1061 59.938 51.982 60.0634C51.858 60.1889 51.6986 60.2733 51.5252 60.3055C51.3518 60.3377 51.1727 60.316 51.012 60.2434L44.4689 57.7604L42.146 64.4224C42.0893 64.584 41.9857 64.7251 41.8485 64.8277C41.7113 64.9302 41.5468 64.9896 41.3757 64.9983C41.2047 65.0069 41.035 64.9644 40.8882 64.8762C40.7414 64.788 40.6241 64.6581 40.5514 64.503L33.7465 49.9062C28.7774 51.4559 23.4547 51.4559 18.4856 49.9062L11.6834 64.5036C11.6106 64.6587 11.4934 64.7887 11.3465 64.8769C11.1997 64.9651 11.03 65.0075 10.859 64.9989C10.688 64.9903 10.5234 64.9309 10.3862 64.8283C10.249 64.7258 10.1455 64.5847 10.0887 64.423L7.76325 57.7604L1.22017 60.2434C1.05944 60.316 0.880365 60.3377 0.706975 60.3055C0.533586 60.2733 0.374172 60.1889 0.250117 60.0634C0.126061 59.938 0.0432954 59.7777 0.0129218 59.6038C-0.0174518 59.43 0.00601915 59.251 0.0801862 59.0909L7.55409 43.0525C4.13479 39.4251 1.85179 34.8751 0.986884 29.9642C0.121979 25.0533 0.713032 19.9965 2.68709 15.4179C4.66114 10.8393 7.93178 6.93937 12.0953 4.19948C16.2588 1.4596 21.133 -0.000296702 26.1161 4.52299e-08ZM16.8468 49.3303C13.8974 48.1779 11.1881 46.4864 8.85712 44.3421L2.54204 57.8949L7.9789 55.8318C8.08895 55.7907 8.2062 55.7725 8.3235 55.7783C8.4408 55.784 8.5557 55.8136 8.6612 55.8653C8.7667 55.9169 8.8606 55.9895 8.93716 56.0786C9.01372 56.1677 9.07136 56.2715 9.10655 56.3836L11.0111 61.8476L16.8442 49.3303H16.8468ZM43.3724 44.3421C41.0415 46.4864 38.3322 48.1779 35.3828 49.3303L41.2159 61.8476L43.121 56.3836C43.1562 56.2715 43.2137 56.1678 43.2902 56.0786C43.3667 55.9895 43.4606 55.9169 43.566 55.8653C43.6715 55.8137 43.7863 55.7841 43.9036 55.7783C44.0208 55.7725 44.138 55.7907 44.248 55.8318L49.6849 57.8949L43.3698 44.3421H43.3724ZM26.8955 12.4998C26.8258 12.3519 26.7155 12.227 26.5775 12.1395C26.4395 12.0519 26.2795 12.0055 26.1161 12.0055C25.9527 12.0055 25.7927 12.0519 25.6547 12.1395C25.5166 12.227 25.4063 12.3519 25.3366 12.4998L21.9212 19.7741L13.9484 20.7771C13.7859 20.7974 13.6326 20.8635 13.5062 20.9677C13.3799 21.0718 13.2858 21.2099 13.2348 21.3656C13.1839 21.5213 13.1783 21.6883 13.2186 21.847C13.2589 22.0058 13.3435 22.1499 13.4625 22.2624L19.3242 27.7641L17.8133 35.6618C17.7829 35.8227 17.7987 35.9889 17.8589 36.1411C17.9192 36.2934 18.0214 36.4253 18.1537 36.5217C18.286 36.6181 18.4429 36.6748 18.6062 36.6854C18.7695 36.696 18.9325 36.66 19.0761 36.5816L26.1161 32.7042L33.1561 36.5829C33.2996 36.6612 33.4625 36.6972 33.6257 36.6867C33.7889 36.6761 33.9458 36.6194 34.078 36.5231C34.2103 36.4268 34.3125 36.295 34.3729 36.1428C34.4332 35.9907 34.4491 35.8246 34.4188 35.6637L32.9079 27.7654L38.7293 22.3014C38.8597 22.1938 38.9557 22.0504 39.0054 21.8887C39.0551 21.7271 39.0563 21.5545 39.0088 21.3922C38.9614 21.2299 38.8674 21.0851 38.7385 20.9758C38.6096 20.8664 38.4515 20.7973 38.2837 20.7771L30.311 19.7741L26.8955 12.4998ZM28.9547 20.9376L26.1161 14.8912L23.308 20.8713C23.2529 21.0203 23.1578 21.1512 23.0333 21.2497C22.9087 21.3482 22.7595 21.4105 22.6019 21.4297L15.9829 22.2637L20.826 26.8092C20.9406 26.9085 21.027 27.0362 21.0765 27.1795C21.126 27.3229 21.1369 27.4768 21.1079 27.6256L19.8536 34.183L25.6926 30.9661C25.8204 30.8939 25.9645 30.8556 26.1113 30.8548C26.258 30.854 26.4026 30.8907 26.5311 30.9615L32.3772 34.183L31.1242 27.6256C31.097 27.4829 31.1063 27.3357 31.1511 27.1975C31.196 27.0593 31.275 26.9347 31.3808 26.8352L36.2493 22.2637L29.6302 21.431C29.4852 21.4133 29.347 21.359 29.2287 21.2731C29.1104 21.1873 29.0159 21.0727 28.954 20.9402L28.9547 20.9376ZM26.1161 6.05684C22.2663 6.05684 18.5029 7.19923 15.302 9.33954C12.101 11.4798 9.60612 14.5219 8.13287 18.0812C6.65962 21.6404 6.27415 25.5568 7.0252 29.3352C7.77626 33.1137 9.63011 36.5844 12.3523 39.3085C15.0745 42.0326 18.5428 43.8877 22.3187 44.6393C26.0945 45.3909 30.0082 45.0051 33.565 43.5308C37.1217 42.0566 40.1617 39.56 42.3005 36.3568C44.4394 33.1536 45.581 29.3877 45.581 25.5352C45.581 20.3692 43.5302 15.4148 39.8798 11.7619C36.2294 8.10902 31.2785 6.05684 26.1161 6.05684ZM38.6572 12.9854C36.177 10.5042 33.0172 8.81462 29.5775 8.13035C26.1378 7.44609 22.5725 7.79783 19.3325 9.1411C16.0925 10.4844 13.3233 12.7588 11.375 15.6769C9.4267 18.595 8.38681 22.0257 8.38681 25.5352C8.38681 29.0447 9.4267 32.4754 11.375 35.3935C13.3233 38.3116 16.0925 40.586 19.3325 41.9293C22.5725 43.2726 26.1378 43.6243 29.5775 42.94C33.0172 42.2558 36.177 40.5662 38.6572 38.085C40.3045 36.4372 41.6112 34.4807 42.5027 32.3273C43.3942 30.174 43.8531 27.866 43.8531 25.5352C43.8531 23.2044 43.3942 20.8964 42.5027 18.7431C41.6112 16.5897 40.3045 14.6332 38.6572 12.9854ZM42.9353 8.7037C39.6087 5.3748 35.3703 3.10778 30.7562 2.18934C26.1421 1.27089 21.3594 1.74226 17.013 3.54385C12.6666 5.34543 8.95168 8.39631 6.33799 12.3107C3.7243 16.225 2.32925 20.8271 2.32925 25.5349C2.32925 30.2426 3.7243 34.8447 6.33799 38.7591C8.95168 42.6734 12.6666 45.7243 17.013 47.5259C21.3594 49.3275 26.1421 49.7989 30.7562 48.8804C35.3703 47.962 39.6087 45.695 42.9353 42.366C47.3961 37.9021 49.9021 31.8478 49.9021 25.5349C49.9021 19.222 47.3961 13.1676 42.9353 8.7037Z" fill="#1B1B1B"/>
</svg>
