<svg width="72" height="65" viewBox="0 0 72 65" fill="none" xmlns="http://www.w3.org/2000/svg">
<mask id="path-1-inside-1_310_13292" fill="white">
<path fill-rule="evenodd" clip-rule="evenodd" d="M19.7684 27.6772C22.6631 25.5189 26.2433 24.0461 29.6839 23.6272C31.0678 23.4494 34.5084 23.551 35.9303 23.8049C44.4239 25.3157 51.2289 32.1969 52.7016 40.7413C52.9936 42.4298 53.0444 45.553 52.8159 47.1019C52.0922 51.9137 49.845 56.1922 46.341 59.4551C41.9482 63.5305 35.8922 65.5364 30.0267 64.8762C20.5174 63.7844 13.1157 56.6112 11.6811 47.1019C11.4526 45.5276 11.5033 42.4298 11.808 40.7032C12.6841 35.5867 15.6168 30.8004 19.7684 27.6772ZM50.7211 41.1983C49.3753 33.4665 43.6367 27.5121 35.9684 25.8871C34.7496 25.6331 31.3344 25.4554 30.2171 25.595C21.7617 26.6615 15.2359 32.8571 13.7759 41.1983C13.5093 42.7345 13.5093 45.6927 13.7759 47.3051C14.2964 50.4537 15.858 53.8435 17.8767 56.2176L18.448 56.9032L18.9051 56.0145C20.5936 52.8024 23.8946 50.0474 27.4621 48.8794L28.3127 48.5874L27.716 48.1811C26.2433 47.1908 24.8848 45.2483 24.4405 43.4836C24.1866 42.4933 24.1993 40.6651 24.4532 39.624C25.9386 33.5935 33.48 31.486 37.8982 35.866C40.412 38.3671 40.996 42.341 39.282 45.4134C38.7488 46.3783 37.6316 47.6098 36.7809 48.1811L36.1461 48.6128L36.7048 48.7524C40.1073 49.6665 43.8653 52.7516 45.5919 56.0145L46.049 56.9032L46.6203 56.2176C48.6389 53.8435 50.2005 50.4537 50.7211 47.3051C50.9877 45.6927 50.9877 42.7345 50.7211 41.1983ZM38.2156 41.5157C38.2156 38.7607 36.4128 36.4501 33.7085 35.7264C32.9341 35.5106 31.4867 35.5233 30.725 35.7264C28.0842 36.4628 26.2814 38.7988 26.2814 41.503C26.2814 45.9339 30.7758 48.8286 34.7623 46.975C36.9206 45.972 38.2156 43.928 38.2156 41.5157ZM42.3544 54.8718C40.5516 52.7389 38.0505 51.19 35.359 50.5171C34.0005 50.1744 31.1693 50.0855 29.8109 50.3521C27.7541 50.733 25.6212 51.7233 23.92 53.0817C22.4726 54.2371 20.8095 56.3827 20.2254 57.8808L20.0096 58.414L20.3905 58.7314C22.5361 60.5215 25.6085 61.9689 28.6048 62.6164C30.3441 62.9845 33.899 63.0226 35.6129 62.6798C38.7234 62.045 41.8847 60.585 44.1065 58.7314C44.462 58.4394 44.4747 58.4013 44.3096 57.995C44.0049 57.2333 43.04 55.6844 42.3544 54.8718ZM6.65266 11.0076C6.75423 7.75745 6.79232 7.49083 7.30016 7.24961C8.04922 6.88143 8.25235 7.05917 10.1187 9.82688C10.4085 10.252 10.6854 10.6594 10.9318 11.022C11.4949 11.8506 11.8988 12.445 11.9342 12.4803C11.985 12.5311 13.4069 12.1756 15.1082 11.6678C17.9774 10.8172 18.2187 10.7664 18.5234 10.9314C18.9169 11.16 19.2216 11.7186 19.1074 12.0614C19.0693 12.1883 18.1806 13.4071 17.1395 14.7529C16.0857 16.0987 15.2605 17.254 15.2859 17.3302C15.3113 17.3937 16.1111 18.5998 17.0633 19.9836C18.8408 22.5863 18.9804 22.9037 18.5995 23.4496C18.2187 23.9955 17.8632 23.9448 14.8542 22.8656C13.3053 22.2943 11.9596 21.8245 11.8707 21.8118C11.7818 21.7864 10.9058 22.8275 9.91552 24.1225C8.92524 25.4175 7.99843 26.5728 7.84608 26.6871C7.4779 27.0172 6.90658 26.9791 6.52571 26.5982L6.20831 26.2808L6.29718 23.0687C6.38605 19.9836 6.37335 19.844 6.14483 19.7551C6.01787 19.7043 4.71019 19.2346 3.23746 18.714C0.469749 17.7364 0 17.4698 0 16.8477C0 16.3145 0.355486 16.0225 1.37116 15.7051C1.90439 15.5274 3.30094 15.1211 4.45627 14.791L6.56379 14.1816L6.65266 11.0076ZM11.1089 14.6513C11.0074 14.6006 10.4234 13.8642 9.82665 13.0009C9.22994 12.1375 8.7221 11.4266 8.69671 11.4266C8.67132 11.4266 8.63323 12.3153 8.60784 13.3944C8.56975 15.1592 8.54436 15.375 8.31583 15.6035C8.16348 15.7559 7.31285 16.0733 6.29718 16.378C5.31959 16.6573 4.50705 16.9112 4.48166 16.9366C4.45627 16.962 4.96411 17.1651 5.6116 17.3937C8.03652 18.257 8.12539 18.2951 8.30313 18.6379C8.43009 18.8918 8.45549 19.4504 8.4047 20.885L8.35392 22.7894L8.93793 22.0277C10.6773 19.7932 10.9058 19.552 11.2994 19.552C11.5025 19.552 12.4547 19.8313 13.3942 20.1741C14.3337 20.5042 15.1082 20.7708 15.1082 20.7454C15.1082 20.7327 14.6257 20.009 14.029 19.1457C13.2545 18.0285 12.9498 17.4825 12.9498 17.2032C12.9498 16.9112 13.2545 16.4415 14.1433 15.2988C14.7908 14.4609 15.324 13.7626 15.3113 13.7499C15.2986 13.7372 14.5495 13.9531 13.6481 14.2197C12.0103 14.7148 11.5152 14.8037 11.1089 14.6513ZM30.4962 3.13596C31.1437 1.13 31.4611 0.330154 31.6515 0.190506C31.8039 0.0889359 32.0705 6.10352e-05 32.2482 6.10352e-05C32.9338 6.10352e-05 33.0734 0.253983 34.0002 3.13596C34.3356 4.16768 34.6418 5.12955 34.8203 5.69033L34.8211 5.69283L34.8212 5.69331C34.9058 5.95893 34.9615 6.13398 34.9778 6.18298L35.054 6.47498H38.2915H41.5289L41.8336 6.79238C42.1383 7.08439 42.2272 7.51605 42.0749 7.92232C42.0368 8.03658 40.8687 8.938 39.4976 9.92828C38.1264 10.9059 36.9711 11.7565 36.9203 11.7946C36.8695 11.8454 37.2504 13.1657 37.7709 14.7273C38.2915 16.3016 38.7231 17.749 38.7231 17.9521C38.7231 18.4726 38.2788 18.917 37.7582 18.917C37.4408 18.917 36.8441 18.5488 34.8382 17.0761C33.4416 16.0604 32.2482 15.2606 32.172 15.286C32.0959 15.3113 30.9278 16.1493 29.5948 17.1269C27.6904 18.5107 27.0556 18.917 26.7509 18.917C26.2303 18.917 25.7733 18.4726 25.7733 17.9775C25.7733 17.7617 26.2049 16.3016 26.7255 14.7273C27.246 13.1657 27.6269 11.8454 27.5761 11.7946C27.5253 11.7565 26.4335 10.9566 25.1385 10.0298C23.8435 9.11574 22.6882 8.23972 22.5739 8.10006C22.2438 7.73188 22.2819 7.16056 22.6628 6.79238L22.9675 6.47498H26.2049H29.4424L29.5186 6.18298C29.5349 6.13397 29.5907 5.95885 29.6753 5.69312L29.6753 5.69293L29.6756 5.69192C29.8541 5.13137 30.1605 4.16867 30.4962 3.13596ZM33.759 8.26511C33.5432 8.10006 33.2893 7.54144 32.883 6.29724C32.5783 5.34505 32.2863 4.57059 32.2482 4.57059C32.2101 4.57059 31.9181 5.34505 31.6134 6.29724C31.2071 7.54144 30.9532 8.10006 30.7374 8.26511C30.4708 8.48094 30.2042 8.50633 28.4775 8.50633H26.5096L28.0205 9.59818C28.8457 10.1949 29.5948 10.7789 29.6836 10.8932C29.9249 11.2106 29.8614 11.6295 29.2774 13.4958L28.7187 15.2479L29.3662 14.7654C29.5743 14.6219 29.8919 14.3933 30.2227 14.1551C30.4772 13.9718 30.7396 13.7829 30.9659 13.6228C31.5499 13.1911 32.0197 12.9499 32.2482 12.9499C32.4767 12.9499 32.9465 13.1911 33.5305 13.6228C33.7568 13.7828 34.019 13.9717 34.2735 14.1549L34.2738 14.1551C34.6046 14.3933 34.9221 14.6219 35.1302 14.7654L35.7777 15.2479L35.2191 13.4958C34.635 11.6422 34.5589 11.2106 34.8255 10.8932C34.9017 10.7789 35.6507 10.1949 36.4886 9.59818L37.9868 8.50633H36.0316C34.2923 8.50633 34.0256 8.48094 33.759 8.26511ZM56.2699 7.19883C56.1938 7.22422 55.3304 8.40495 54.3782 9.81419L54.054 10.2942C53.2481 11.4873 52.6076 12.4354 52.5627 12.4803C52.5119 12.5311 51.09 12.1756 49.3887 11.6678C46.5195 10.8172 46.2782 10.7664 45.9735 10.9314C45.58 11.16 45.2753 11.7186 45.3895 12.0614C45.4276 12.1883 46.3163 13.4071 47.3574 14.7529C48.4111 16.0987 49.2364 17.254 49.211 17.3302C49.1856 17.3937 48.3858 18.5998 47.4336 19.9836C45.6561 22.5863 45.5165 22.9037 45.8974 23.4496C46.2782 23.9955 46.6337 23.9448 49.6553 22.8656C51.2169 22.307 52.5627 21.8372 52.6389 21.8118C52.7151 21.7864 53.5911 22.8275 54.5814 24.1225C55.5717 25.4175 56.4985 26.5728 56.6508 26.6871C57.019 27.0172 57.5903 26.9791 57.9712 26.5982L58.2886 26.2808L58.1997 23.0687C58.1108 19.9836 58.1235 19.844 58.3521 19.7551C58.4617 19.7112 59.4618 19.3548 60.6732 18.923L61.2594 18.714C64.0271 17.7365 64.4969 17.4698 64.4969 16.8477C64.4969 16.3145 64.1414 16.0225 63.1257 15.7051C62.5925 15.5274 61.1959 15.1211 60.0406 14.791L57.9331 14.1816L57.8442 11.0076C57.7807 9.06513 57.6919 7.74476 57.603 7.6051C57.3618 7.21152 56.7143 7.02109 56.2699 7.19883ZM56.1811 15.6035C56.3334 15.7559 57.184 16.0733 58.1997 16.378C59.1773 16.6573 59.9898 16.9112 60.0152 16.9366C60.0406 16.962 59.5328 17.1651 58.8853 17.3937C56.4604 18.257 56.3715 18.2951 56.1938 18.6379C56.0668 18.8918 56.0414 19.4504 56.0922 20.885L56.143 22.7894L55.559 22.0277C53.7815 19.7424 53.6038 19.552 53.1594 19.552C52.9436 19.5647 52.0168 19.844 51.1027 20.1741C50.2013 20.5042 49.4395 20.7708 49.4141 20.7581C49.3887 20.7454 49.8712 20.0217 50.4679 19.1584C51.2423 18.0285 51.547 17.4825 51.547 17.2032C51.547 16.9112 51.2423 16.4415 50.3536 15.2988C49.6934 14.4609 49.1729 13.7626 49.1856 13.7499C49.1983 13.7372 49.9474 13.9404 50.8615 14.2197C52.4865 14.7148 52.9817 14.8037 53.388 14.6513C53.4895 14.6006 54.0862 13.8515 54.6956 12.9628L55.8002 11.3631L55.8637 13.3564C55.9144 15.1338 55.9525 15.3877 56.1811 15.6035Z"/>
</mask>
<path fill-rule="evenodd" clip-rule="evenodd" d="M19.7684 27.6772C22.6631 25.5189 26.2433 24.0461 29.6839 23.6272C31.0678 23.4494 34.5084 23.551 35.9303 23.8049C44.4239 25.3157 51.2289 32.1969 52.7016 40.7413C52.9936 42.4298 53.0444 45.553 52.8159 47.1019C52.0922 51.9137 49.845 56.1922 46.341 59.4551C41.9482 63.5305 35.8922 65.5364 30.0267 64.8762C20.5174 63.7844 13.1157 56.6112 11.6811 47.1019C11.4526 45.5276 11.5033 42.4298 11.808 40.7032C12.6841 35.5867 15.6168 30.8004 19.7684 27.6772ZM50.7211 41.1983C49.3753 33.4665 43.6367 27.5121 35.9684 25.8871C34.7496 25.6331 31.3344 25.4554 30.2171 25.595C21.7617 26.6615 15.2359 32.8571 13.7759 41.1983C13.5093 42.7345 13.5093 45.6927 13.7759 47.3051C14.2964 50.4537 15.858 53.8435 17.8767 56.2176L18.448 56.9032L18.9051 56.0145C20.5936 52.8024 23.8946 50.0474 27.4621 48.8794L28.3127 48.5874L27.716 48.1811C26.2433 47.1908 24.8848 45.2483 24.4405 43.4836C24.1866 42.4933 24.1993 40.6651 24.4532 39.624C25.9386 33.5935 33.48 31.486 37.8982 35.866C40.412 38.3671 40.996 42.341 39.282 45.4134C38.7488 46.3783 37.6316 47.6098 36.7809 48.1811L36.1461 48.6128L36.7048 48.7524C40.1073 49.6665 43.8653 52.7516 45.5919 56.0145L46.049 56.9032L46.6203 56.2176C48.6389 53.8435 50.2005 50.4537 50.7211 47.3051C50.9877 45.6927 50.9877 42.7345 50.7211 41.1983ZM38.2156 41.5157C38.2156 38.7607 36.4128 36.4501 33.7085 35.7264C32.9341 35.5106 31.4867 35.5233 30.725 35.7264C28.0842 36.4628 26.2814 38.7988 26.2814 41.503C26.2814 45.9339 30.7758 48.8286 34.7623 46.975C36.9206 45.972 38.2156 43.928 38.2156 41.5157ZM42.3544 54.8718C40.5516 52.7389 38.0505 51.19 35.359 50.5171C34.0005 50.1744 31.1693 50.0855 29.8109 50.3521C27.7541 50.733 25.6212 51.7233 23.92 53.0817C22.4726 54.2371 20.8095 56.3827 20.2254 57.8808L20.0096 58.414L20.3905 58.7314C22.5361 60.5215 25.6085 61.9689 28.6048 62.6164C30.3441 62.9845 33.899 63.0226 35.6129 62.6798C38.7234 62.045 41.8847 60.585 44.1065 58.7314C44.462 58.4394 44.4747 58.4013 44.3096 57.995C44.0049 57.2333 43.04 55.6844 42.3544 54.8718ZM6.65266 11.0076C6.75423 7.75745 6.79232 7.49083 7.30016 7.24961C8.04922 6.88143 8.25235 7.05917 10.1187 9.82688C10.4085 10.252 10.6854 10.6594 10.9318 11.022C11.4949 11.8506 11.8988 12.445 11.9342 12.4803C11.985 12.5311 13.4069 12.1756 15.1082 11.6678C17.9774 10.8172 18.2187 10.7664 18.5234 10.9314C18.9169 11.16 19.2216 11.7186 19.1074 12.0614C19.0693 12.1883 18.1806 13.4071 17.1395 14.7529C16.0857 16.0987 15.2605 17.254 15.2859 17.3302C15.3113 17.3937 16.1111 18.5998 17.0633 19.9836C18.8408 22.5863 18.9804 22.9037 18.5995 23.4496C18.2187 23.9955 17.8632 23.9448 14.8542 22.8656C13.3053 22.2943 11.9596 21.8245 11.8707 21.8118C11.7818 21.7864 10.9058 22.8275 9.91552 24.1225C8.92524 25.4175 7.99843 26.5728 7.84608 26.6871C7.4779 27.0172 6.90658 26.9791 6.52571 26.5982L6.20831 26.2808L6.29718 23.0687C6.38605 19.9836 6.37335 19.844 6.14483 19.7551C6.01787 19.7043 4.71019 19.2346 3.23746 18.714C0.469749 17.7364 0 17.4698 0 16.8477C0 16.3145 0.355486 16.0225 1.37116 15.7051C1.90439 15.5274 3.30094 15.1211 4.45627 14.791L6.56379 14.1816L6.65266 11.0076ZM11.1089 14.6513C11.0074 14.6006 10.4234 13.8642 9.82665 13.0009C9.22994 12.1375 8.7221 11.4266 8.69671 11.4266C8.67132 11.4266 8.63323 12.3153 8.60784 13.3944C8.56975 15.1592 8.54436 15.375 8.31583 15.6035C8.16348 15.7559 7.31285 16.0733 6.29718 16.378C5.31959 16.6573 4.50705 16.9112 4.48166 16.9366C4.45627 16.962 4.96411 17.1651 5.6116 17.3937C8.03652 18.257 8.12539 18.2951 8.30313 18.6379C8.43009 18.8918 8.45549 19.4504 8.4047 20.885L8.35392 22.7894L8.93793 22.0277C10.6773 19.7932 10.9058 19.552 11.2994 19.552C11.5025 19.552 12.4547 19.8313 13.3942 20.1741C14.3337 20.5042 15.1082 20.7708 15.1082 20.7454C15.1082 20.7327 14.6257 20.009 14.029 19.1457C13.2545 18.0285 12.9498 17.4825 12.9498 17.2032C12.9498 16.9112 13.2545 16.4415 14.1433 15.2988C14.7908 14.4609 15.324 13.7626 15.3113 13.7499C15.2986 13.7372 14.5495 13.9531 13.6481 14.2197C12.0103 14.7148 11.5152 14.8037 11.1089 14.6513ZM30.4962 3.13596C31.1437 1.13 31.4611 0.330154 31.6515 0.190506C31.8039 0.0889359 32.0705 6.10352e-05 32.2482 6.10352e-05C32.9338 6.10352e-05 33.0734 0.253983 34.0002 3.13596C34.3356 4.16768 34.6418 5.12955 34.8203 5.69033L34.8211 5.69283L34.8212 5.69331C34.9058 5.95893 34.9615 6.13398 34.9778 6.18298L35.054 6.47498H38.2915H41.5289L41.8336 6.79238C42.1383 7.08439 42.2272 7.51605 42.0749 7.92232C42.0368 8.03658 40.8687 8.938 39.4976 9.92828C38.1264 10.9059 36.9711 11.7565 36.9203 11.7946C36.8695 11.8454 37.2504 13.1657 37.7709 14.7273C38.2915 16.3016 38.7231 17.749 38.7231 17.9521C38.7231 18.4726 38.2788 18.917 37.7582 18.917C37.4408 18.917 36.8441 18.5488 34.8382 17.0761C33.4416 16.0604 32.2482 15.2606 32.172 15.286C32.0959 15.3113 30.9278 16.1493 29.5948 17.1269C27.6904 18.5107 27.0556 18.917 26.7509 18.917C26.2303 18.917 25.7733 18.4726 25.7733 17.9775C25.7733 17.7617 26.2049 16.3016 26.7255 14.7273C27.246 13.1657 27.6269 11.8454 27.5761 11.7946C27.5253 11.7565 26.4335 10.9566 25.1385 10.0298C23.8435 9.11574 22.6882 8.23972 22.5739 8.10006C22.2438 7.73188 22.2819 7.16056 22.6628 6.79238L22.9675 6.47498H26.2049H29.4424L29.5186 6.18298C29.5349 6.13397 29.5907 5.95885 29.6753 5.69312L29.6753 5.69293L29.6756 5.69192C29.8541 5.13137 30.1605 4.16867 30.4962 3.13596ZM33.759 8.26511C33.5432 8.10006 33.2893 7.54144 32.883 6.29724C32.5783 5.34505 32.2863 4.57059 32.2482 4.57059C32.2101 4.57059 31.9181 5.34505 31.6134 6.29724C31.2071 7.54144 30.9532 8.10006 30.7374 8.26511C30.4708 8.48094 30.2042 8.50633 28.4775 8.50633H26.5096L28.0205 9.59818C28.8457 10.1949 29.5948 10.7789 29.6836 10.8932C29.9249 11.2106 29.8614 11.6295 29.2774 13.4958L28.7187 15.2479L29.3662 14.7654C29.5743 14.6219 29.8919 14.3933 30.2227 14.1551C30.4772 13.9718 30.7396 13.7829 30.9659 13.6228C31.5499 13.1911 32.0197 12.9499 32.2482 12.9499C32.4767 12.9499 32.9465 13.1911 33.5305 13.6228C33.7568 13.7828 34.019 13.9717 34.2735 14.1549L34.2738 14.1551C34.6046 14.3933 34.9221 14.6219 35.1302 14.7654L35.7777 15.2479L35.2191 13.4958C34.635 11.6422 34.5589 11.2106 34.8255 10.8932C34.9017 10.7789 35.6507 10.1949 36.4886 9.59818L37.9868 8.50633H36.0316C34.2923 8.50633 34.0256 8.48094 33.759 8.26511ZM56.2699 7.19883C56.1938 7.22422 55.3304 8.40495 54.3782 9.81419L54.054 10.2942C53.2481 11.4873 52.6076 12.4354 52.5627 12.4803C52.5119 12.5311 51.09 12.1756 49.3887 11.6678C46.5195 10.8172 46.2782 10.7664 45.9735 10.9314C45.58 11.16 45.2753 11.7186 45.3895 12.0614C45.4276 12.1883 46.3163 13.4071 47.3574 14.7529C48.4111 16.0987 49.2364 17.254 49.211 17.3302C49.1856 17.3937 48.3858 18.5998 47.4336 19.9836C45.6561 22.5863 45.5165 22.9037 45.8974 23.4496C46.2782 23.9955 46.6337 23.9448 49.6553 22.8656C51.2169 22.307 52.5627 21.8372 52.6389 21.8118C52.7151 21.7864 53.5911 22.8275 54.5814 24.1225C55.5717 25.4175 56.4985 26.5728 56.6508 26.6871C57.019 27.0172 57.5903 26.9791 57.9712 26.5982L58.2886 26.2808L58.1997 23.0687C58.1108 19.9836 58.1235 19.844 58.3521 19.7551C58.4617 19.7112 59.4618 19.3548 60.6732 18.923L61.2594 18.714C64.0271 17.7365 64.4969 17.4698 64.4969 16.8477C64.4969 16.3145 64.1414 16.0225 63.1257 15.7051C62.5925 15.5274 61.1959 15.1211 60.0406 14.791L57.9331 14.1816L57.8442 11.0076C57.7807 9.06513 57.6919 7.74476 57.603 7.6051C57.3618 7.21152 56.7143 7.02109 56.2699 7.19883ZM56.1811 15.6035C56.3334 15.7559 57.184 16.0733 58.1997 16.378C59.1773 16.6573 59.9898 16.9112 60.0152 16.9366C60.0406 16.962 59.5328 17.1651 58.8853 17.3937C56.4604 18.257 56.3715 18.2951 56.1938 18.6379C56.0668 18.8918 56.0414 19.4504 56.0922 20.885L56.143 22.7894L55.559 22.0277C53.7815 19.7424 53.6038 19.552 53.1594 19.552C52.9436 19.5647 52.0168 19.844 51.1027 20.1741C50.2013 20.5042 49.4395 20.7708 49.4141 20.7581C49.3887 20.7454 49.8712 20.0217 50.4679 19.1584C51.2423 18.0285 51.547 17.4825 51.547 17.2032C51.547 16.9112 51.2423 16.4415 50.3536 15.2988C49.6934 14.4609 49.1729 13.7626 49.1856 13.7499C49.1983 13.7372 49.9474 13.9404 50.8615 14.2197C52.4865 14.7148 52.9817 14.8037 53.388 14.6513C53.4895 14.6006 54.0862 13.8515 54.6956 12.9628L55.8002 11.3631L55.8637 13.3564C55.9144 15.1338 55.9525 15.3877 56.1811 15.6035Z" fill="#1B1B1B"/>
<path d="M29.6839 23.6272L29.6966 23.7264L29.696 23.7264L29.6839 23.6272ZM19.7684 27.6772L19.7083 27.5973L19.7086 27.597L19.7684 27.6772ZM35.9303 23.8049L35.9128 23.9034L35.9127 23.9034L35.9303 23.8049ZM52.7016 40.7413L52.6031 40.7583L52.6031 40.7583L52.7016 40.7413ZM52.8159 47.1019L52.9148 47.1165L52.9148 47.1168L52.8159 47.1019ZM46.341 59.4551L46.4091 59.5283L46.409 59.5284L46.341 59.4551ZM30.0267 64.8762L30.0155 64.9756L30.0153 64.9756L30.0267 64.8762ZM11.6811 47.1019L11.5822 47.1169L11.5821 47.1163L11.6811 47.1019ZM11.808 40.7032L11.9066 40.7201L11.9065 40.7206L11.808 40.7032ZM35.9684 25.8871L35.9888 25.7892L35.9891 25.7892L35.9684 25.8871ZM50.7211 41.1983L50.8196 41.1812L50.8196 41.1812L50.7211 41.1983ZM30.2171 25.595L30.2046 25.4958L30.2047 25.4958L30.2171 25.595ZM13.7759 41.1983L13.6774 41.1812L13.6774 41.1811L13.7759 41.1983ZM13.7759 47.3051L13.8746 47.2888L13.8746 47.2888L13.7759 47.3051ZM17.8767 56.2176L17.9529 56.1528L17.9535 56.1536L17.8767 56.2176ZM18.448 56.9032L18.5369 56.9489L18.4679 57.0832L18.3712 56.9672L18.448 56.9032ZM18.9051 56.0145L18.8161 55.9687L18.8166 55.968L18.9051 56.0145ZM27.4621 48.8794L27.4946 48.974L27.4932 48.9744L27.4621 48.8794ZM28.3127 48.5874L28.369 48.5047L28.5341 48.6171L28.3452 48.6819L28.3127 48.5874ZM27.716 48.1811L27.7718 48.0981L27.7723 48.0984L27.716 48.1811ZM24.4405 43.4836L24.5374 43.4588L24.5375 43.4592L24.4405 43.4836ZM24.4532 39.624L24.356 39.6003L24.3561 39.6001L24.4532 39.624ZM37.8982 35.866L37.9686 35.795L37.9687 35.7952L37.8982 35.866ZM39.282 45.4134L39.1945 45.365L39.1947 45.3647L39.282 45.4134ZM36.7809 48.1811L36.7247 48.0984L36.7252 48.0981L36.7809 48.1811ZM36.1461 48.6128L36.1219 48.7098L35.9053 48.6556L36.0899 48.5301L36.1461 48.6128ZM36.7048 48.7524L36.729 48.6554L36.7307 48.6558L36.7048 48.7524ZM45.5919 56.0145L45.6803 55.9677L45.6808 55.9687L45.5919 56.0145ZM46.049 56.9032L46.1258 56.9672L46.0291 57.0832L45.96 56.9489L46.049 56.9032ZM46.6203 56.2176L46.5434 56.1536L46.5441 56.1528L46.6203 56.2176ZM50.7211 47.3051L50.6224 47.2888L50.6224 47.2888L50.7211 47.3051ZM33.7085 35.7264L33.6827 35.823L33.6817 35.8227L33.7085 35.7264ZM30.725 35.7264L30.6981 35.6301L30.6992 35.6298L30.725 35.7264ZM34.7623 46.975L34.7201 46.8843L34.7201 46.8843L34.7623 46.975ZM35.359 50.5171L35.3347 50.6142L35.3345 50.6141L35.359 50.5171ZM42.3544 54.8718L42.4308 54.8073L42.4309 54.8074L42.3544 54.8718ZM29.8109 50.3521L29.8301 50.4502L29.8291 50.4504L29.8109 50.3521ZM23.92 53.0817L23.9824 53.1599L23.9823 53.1599L23.92 53.0817ZM20.2254 57.8808L20.3186 57.9171L20.3181 57.9183L20.2254 57.8808ZM20.0096 58.414L19.9456 58.4908L19.8895 58.4441L19.9169 58.3765L20.0096 58.414ZM20.3905 58.7314L20.4545 58.6546L20.4546 58.6546L20.3905 58.7314ZM28.6048 62.6164L28.584 62.7142L28.5836 62.7141L28.6048 62.6164ZM35.6129 62.6798L35.6329 62.7778L35.6325 62.7779L35.6129 62.6798ZM44.1065 58.7314L44.0424 58.6546L44.043 58.6541L44.1065 58.7314ZM44.3096 57.995L44.217 58.0327L44.2168 58.0322L44.3096 57.995ZM7.30016 7.24961L7.34427 7.33936L7.34306 7.33994L7.30016 7.24961ZM6.65266 11.0076L6.5527 11.0048L6.55271 11.0045L6.65266 11.0076ZM10.1187 9.82688L10.036 9.88322L10.0357 9.88279L10.1187 9.82688ZM10.9318 11.022L10.8491 11.0782L10.8491 11.0782L10.9318 11.022ZM11.9342 12.4803L12.0049 12.4096L12.0049 12.4096L11.9342 12.4803ZM15.1082 11.6678L15.0795 11.572L15.0797 11.5719L15.1082 11.6678ZM18.5234 10.9314L18.571 10.8435L18.5736 10.8449L18.5234 10.9314ZM19.1074 12.0614L19.0115 12.0326L19.0125 12.0297L19.1074 12.0614ZM17.1395 14.7529L17.2186 14.8141L17.2182 14.8146L17.1395 14.7529ZM15.2859 17.3302L15.1929 17.3674L15.191 17.3618L15.2859 17.3302ZM17.0633 19.9836L17.1457 19.9269L17.1459 19.9272L17.0633 19.9836ZM14.8542 22.8656L14.8205 22.9597L14.8196 22.9594L14.8542 22.8656ZM11.8707 21.8118L11.8564 21.9118L11.8432 21.908L11.8707 21.8118ZM7.84608 26.6871L7.77907 26.6123L7.78608 26.6071L7.84608 26.6871ZM6.52571 26.5982L6.59642 26.5275L6.59642 26.5275L6.52571 26.5982ZM6.20831 26.2808L6.1376 26.3515L6.10715 26.3211L6.10835 26.278L6.20831 26.2808ZM6.29718 23.0687L6.19722 23.066L6.19722 23.0659L6.29718 23.0687ZM6.14483 19.7551L6.10858 19.8483L6.10769 19.8479L6.14483 19.7551ZM3.23746 18.714L3.27077 18.6197L3.27079 18.6197L3.23746 18.714ZM1.37116 15.7051L1.40279 15.8L1.40099 15.8005L1.37116 15.7051ZM4.45627 14.791L4.48405 14.8871L4.48374 14.8871L4.45627 14.791ZM6.56379 14.1816L6.66375 14.1844L6.66171 14.2574L6.59157 14.2777L6.56379 14.1816ZM11.1089 14.6513L11.0736 14.7455L11.0642 14.7408L11.1089 14.6513ZM8.60784 13.3944L8.50786 13.3923L8.50787 13.3921L8.60784 13.3944ZM6.29718 16.378L6.32592 16.4738L6.32465 16.4741L6.29718 16.378ZM4.48166 16.9366L4.55238 17.0073L4.55237 17.0073L4.48166 16.9366ZM5.6116 17.3937L5.64488 17.2994L5.64514 17.2994L5.6116 17.3937ZM8.30313 18.6379L8.39192 18.5918L8.39258 18.5931L8.30313 18.6379ZM8.4047 20.885L8.30473 20.8824L8.30476 20.8815L8.4047 20.885ZM8.35392 22.7894L8.43328 22.8503L8.24574 23.0949L8.25395 22.7868L8.35392 22.7894ZM8.93793 22.0277L8.85857 21.9668L8.85902 21.9662L8.93793 22.0277ZM13.3942 20.1741L13.3611 20.2684L13.3599 20.268L13.3942 20.1741ZM14.029 19.1457L14.1112 19.0887L14.1113 19.0888L14.029 19.1457ZM14.1433 15.2988L14.2224 15.36L14.2222 15.3602L14.1433 15.2988ZM13.6481 14.2197L13.6192 14.124L13.6198 14.1238L13.6481 14.2197ZM31.6515 0.190506L31.5923 0.109783L31.596 0.107302L31.6515 0.190506ZM30.4962 3.13596L30.5913 3.16667L30.5913 3.16686L30.4962 3.13596ZM34.0002 3.13596L33.9051 3.16686L33.905 3.16657L34.0002 3.13596ZM34.8203 5.69033L34.725 5.72073L34.725 5.72066L34.8203 5.69033ZM34.8211 5.69283L34.9163 5.66243L34.9166 5.66326L34.8211 5.69283ZM34.8212 5.69331L34.7259 5.72364L34.7257 5.72287L34.8212 5.69331ZM34.9778 6.18298L35.0729 6.15129L35.0746 6.15774L34.9778 6.18298ZM35.054 6.47498V6.57498H34.9767L34.9572 6.50023L35.054 6.47498ZM41.5289 6.47498V6.37498H41.5716L41.6011 6.40573L41.5289 6.47498ZM41.8336 6.79238L41.7644 6.86464L41.7615 6.86163L41.8336 6.79238ZM42.0749 7.92232L41.9799 7.89068L41.9812 7.88721L42.0749 7.92232ZM39.4976 9.92828L39.5561 10.0093L39.5556 10.0097L39.4976 9.92828ZM36.9203 11.7946L36.8496 11.7239L36.8546 11.7188L36.8603 11.7146L36.9203 11.7946ZM37.7709 14.7273L37.8658 14.6957L37.8659 14.6959L37.7709 14.7273ZM34.8382 17.0761L34.897 16.9952L34.8974 16.9955L34.8382 17.0761ZM29.5948 17.1269L29.6539 17.2075L29.6535 17.2078L29.5948 17.1269ZM26.7255 14.7273L26.6305 14.6959L26.6306 14.6957L26.7255 14.7273ZM27.5761 11.7946L27.6361 11.7146L27.6418 11.7188L27.6468 11.7239L27.5761 11.7946ZM25.1385 10.0298L25.1962 9.94815L25.1967 9.94853L25.1385 10.0298ZM22.5739 8.10006L22.6484 8.03324L22.6513 8.03674L22.5739 8.10006ZM22.6628 6.79238L22.735 6.86168L22.7323 6.86428L22.6628 6.79238ZM22.9675 6.47498L22.8953 6.40573L22.9249 6.37498H22.9675V6.47498ZM29.4424 6.47498L29.5392 6.50023L29.5197 6.57498H29.4424V6.47498ZM29.5186 6.18298L29.4216 6.15768L29.4237 6.15136L29.5186 6.18298ZM29.6753 5.69312L29.58 5.66279L29.5801 5.66234L29.6753 5.69312ZM29.6753 5.69293L29.7706 5.72325L29.7705 5.72371L29.6753 5.69293ZM29.6756 5.69192L29.5803 5.6616L29.5803 5.66159L29.6756 5.69192ZM32.883 6.29724L32.7879 6.32828L32.7878 6.32772L32.883 6.29724ZM33.759 8.26511L33.8198 8.18564L33.8219 8.18739L33.759 8.26511ZM31.6134 6.29724L31.7087 6.32772L31.7085 6.32828L31.6134 6.29724ZM30.7374 8.26511L30.6744 8.18736L30.6766 8.18567L30.7374 8.26511ZM26.5096 8.50633L26.4511 8.58738L26.2006 8.40633H26.5096V8.50633ZM28.0205 9.59818L28.079 9.51713L28.0791 9.51715L28.0205 9.59818ZM29.6836 10.8932L29.7626 10.8318L29.7632 10.8327L29.6836 10.8932ZM29.2774 13.4958L29.3728 13.5257L29.3726 13.5262L29.2774 13.4958ZM28.7187 15.2479L28.7785 15.3281L28.5289 15.514L28.6235 15.2175L28.7187 15.2479ZM29.3662 14.7654L29.3064 14.6852L29.3095 14.6831L29.3662 14.7654ZM30.2227 14.1551L30.1642 14.0739L30.1642 14.0739L30.2227 14.1551ZM30.9659 13.6228L31.0254 13.7032L31.0237 13.7044L30.9659 13.6228ZM33.5305 13.6228L33.4727 13.7045L33.4711 13.7032L33.5305 13.6228ZM34.2735 14.1549L34.2153 14.2363L34.215 14.236L34.2735 14.1549ZM34.2738 14.1551L34.3319 14.0737L34.3322 14.074L34.2738 14.1551ZM35.1302 14.7654L35.187 14.6831L35.1899 14.6852L35.1302 14.7654ZM35.7777 15.2479L35.873 15.2175L35.9675 15.514L35.7179 15.3281L35.7777 15.2479ZM35.2191 13.4958L35.1238 13.5262L35.1237 13.5259L35.2191 13.4958ZM34.8255 10.8932L34.9092 10.949L34.9021 10.9575L34.8255 10.8932ZM36.4886 9.59818L36.5475 9.679L36.5467 9.67964L36.4886 9.59818ZM37.9868 8.50633V8.40633H38.2938L38.0457 8.58715L37.9868 8.50633ZM54.3782 9.81419L54.2954 9.75822L54.2954 9.75821L54.3782 9.81419ZM56.2699 7.19883L56.3071 7.29184L56.3016 7.2937L56.2699 7.19883ZM54.054 10.2942L53.9711 10.2382L53.9711 10.2382L54.054 10.2942ZM52.5627 12.4803L52.6334 12.551L52.6334 12.551L52.5627 12.4803ZM49.3887 11.6678L49.4172 11.5719L49.4173 11.572L49.3887 11.6678ZM45.9735 10.9314L45.9233 10.8449L45.9259 10.8435L45.9735 10.9314ZM45.3895 12.0614L45.4844 12.0297L45.4853 12.0326L45.3895 12.0614ZM47.3574 14.7529L47.2787 14.8146L47.2783 14.8141L47.3574 14.7529ZM49.211 17.3302L49.306 17.3619L49.3038 17.3673L49.211 17.3302ZM47.4336 19.9836L47.351 19.9272L47.3512 19.9269L47.4336 19.9836ZM45.8974 23.4496L45.9794 23.3924L45.9794 23.3924L45.8974 23.4496ZM49.6553 22.8656L49.689 22.9598L49.689 22.9598L49.6553 22.8656ZM54.5814 24.1225L54.5019 24.1832L54.5019 24.1832L54.5814 24.1225ZM56.6508 26.6871L56.711 26.6068L56.7176 26.6126L56.6508 26.6871ZM58.2886 26.2808L58.3885 26.278L58.3897 26.3211L58.3593 26.3515L58.2886 26.2808ZM58.1997 23.0687L58.2997 23.0659L58.2997 23.066L58.1997 23.0687ZM58.3521 19.7551L58.3892 19.848L58.3883 19.8483L58.3521 19.7551ZM60.6732 18.923L60.7068 19.0172L60.7068 19.0172L60.6732 18.923ZM61.2594 18.714L61.2258 18.6198L61.2261 18.6197L61.2594 18.714ZM63.1257 15.7051L63.0959 15.8006L63.0941 15.8L63.1257 15.7051ZM60.0406 14.791L60.0131 14.8871L60.0128 14.8871L60.0406 14.791ZM57.9331 14.1816L57.9053 14.2777L57.8352 14.2574L57.8331 14.1844L57.9331 14.1816ZM57.8442 11.0076L57.9442 11.0043L57.9442 11.0048L57.8442 11.0076ZM57.603 7.6051L57.5186 7.6588L57.5177 7.65736L57.603 7.6051ZM58.1997 16.378L58.1722 16.4741L58.171 16.4738L58.1997 16.378ZM56.1811 15.6035L56.2497 15.5308L56.2518 15.5328L56.1811 15.6035ZM60.0152 16.9366L59.9445 17.0073L59.9445 17.0073L60.0152 16.9366ZM58.8853 17.3937L58.8517 17.2994L58.852 17.2994L58.8853 17.3937ZM56.1938 18.6379L56.1043 18.5931L56.105 18.5918L56.1938 18.6379ZM56.0922 20.885L56.1921 20.8815L56.1922 20.8824L56.0922 20.885ZM56.143 22.7894L56.2429 22.7868L56.2511 23.0949L56.0636 22.8503L56.143 22.7894ZM55.559 22.0277L55.6379 21.9663L55.6383 21.9668L55.559 22.0277ZM53.1594 19.552L53.1535 19.452H53.1594V19.552ZM51.1027 20.1741L51.0683 20.0802L51.0687 20.08L51.1027 20.1741ZM49.4141 20.7581L49.3694 20.8475L49.3694 20.8475L49.4141 20.7581ZM50.4679 19.1584L50.5504 19.2149L50.5502 19.2153L50.4679 19.1584ZM50.3536 15.2988L50.4322 15.2369L50.4326 15.2374L50.3536 15.2988ZM49.1856 13.7499L49.2563 13.8206L49.2563 13.8206L49.1856 13.7499ZM50.8615 14.2197L50.8323 14.3153L50.8322 14.3153L50.8615 14.2197ZM53.388 14.6513L53.4329 14.7413L53.4231 14.745L53.388 14.6513ZM54.6956 12.9628L54.6132 12.9062L54.6133 12.906L54.6956 12.9628ZM55.8002 11.3631L55.7179 11.3063L55.8905 11.0563L55.9001 11.3599L55.8002 11.3631ZM55.8637 13.3564L55.9636 13.3532L55.9636 13.3535L55.8637 13.3564ZM29.696 23.7264C26.2737 24.1432 22.7097 25.6088 19.8282 27.7573L19.7086 27.597C22.6164 25.4289 26.2129 23.9491 29.6718 23.5279L29.696 23.7264ZM35.9127 23.9034C35.2093 23.7778 33.9998 23.689 32.7899 23.6541C31.5799 23.6192 30.3803 23.6385 29.6966 23.7264L29.6712 23.528C30.3713 23.4381 31.584 23.4193 32.7957 23.4542C34.0076 23.4892 35.2293 23.5782 35.9479 23.7065L35.9127 23.9034ZM52.6031 40.7583C51.1374 32.255 44.3645 25.4067 35.9128 23.9034L35.9478 23.7065C44.4833 25.2247 51.3204 32.1388 52.8002 40.7243L52.6031 40.7583ZM52.717 47.0873C52.9438 45.5496 52.8934 42.4371 52.6031 40.7583L52.8002 40.7242C53.0939 42.4226 53.145 45.5565 52.9148 47.1165L52.717 47.0873ZM46.2728 59.3819C49.7601 56.1347 51.9966 51.8768 52.717 47.0871L52.9148 47.1168C52.1878 51.9506 49.9299 56.2498 46.4091 59.5283L46.2728 59.3819ZM30.0379 64.7769C35.8741 65.4338 41.9012 63.4376 46.2729 59.3818L46.409 59.5284C41.9951 63.6233 35.9103 65.6391 30.0155 64.9756L30.0379 64.7769ZM11.78 47.087C13.2079 56.5519 20.5741 63.6902 30.0381 64.7769L30.0153 64.9756C20.4608 63.8785 13.0235 56.6705 11.5822 47.1169L11.78 47.087ZM11.9065 40.7206C11.6036 42.4372 11.5531 45.5243 11.78 47.0876L11.5821 47.1163C11.352 45.531 11.4031 42.4225 11.7096 40.6858L11.9065 40.7206ZM19.8285 27.7571C15.6972 30.8651 12.7783 35.6289 11.9066 40.7201L11.7095 40.6863C12.5898 35.5446 15.5364 30.7357 19.7083 27.5973L19.8285 27.7571ZM35.9891 25.7892C43.6975 27.4228 49.4668 33.4092 50.8196 41.1812L50.6225 41.2155C49.2838 33.5239 43.576 27.6015 35.9477 25.9849L35.9891 25.7892ZM30.2047 25.4958C30.7732 25.4248 31.9144 25.4349 33.0598 25.4936C34.2059 25.5523 35.3712 25.6605 35.9888 25.7892L35.948 25.9849C35.3468 25.8597 34.195 25.752 33.0496 25.6933C31.9033 25.6346 30.7784 25.6257 30.2295 25.6943L30.2047 25.4958ZM13.6774 41.1811C15.1451 32.7963 21.7059 26.5677 30.2046 25.4958L30.2296 25.6943C21.8174 26.7553 15.3268 32.9179 13.8744 41.2156L13.6774 41.1811ZM13.6773 47.3214C13.4089 45.6985 13.4088 42.729 13.6774 41.1812L13.8744 41.2154C13.6098 42.7401 13.6097 45.6869 13.8746 47.2888L13.6773 47.3214ZM17.8005 56.2824C15.7699 53.8941 14.2007 50.4875 13.6773 47.3214L13.8746 47.2888C14.3922 50.4199 15.9462 53.7928 17.9529 56.1528L17.8005 56.2824ZM18.3712 56.9672L17.7999 56.2816L17.9535 56.1536L18.5248 56.8392L18.3712 56.9672ZM18.994 56.0602L18.5369 56.9489L18.3591 56.8575L18.8161 55.9687L18.994 56.0602ZM27.4932 48.9744C23.9495 50.1346 20.6696 52.8728 18.9936 56.061L18.8166 55.968C20.5176 52.7321 23.8396 49.9602 27.431 48.7843L27.4932 48.9744ZM28.3452 48.6819L27.4946 48.974L27.4297 48.7848L28.2803 48.4928L28.3452 48.6819ZM27.7723 48.0984L28.369 48.5047L28.2565 48.67L27.6598 48.2638L27.7723 48.0984ZM24.5375 43.4592C24.9759 45.2005 26.32 47.1219 27.7718 48.0981L27.6602 48.2641C26.1666 47.2598 24.7938 45.2962 24.3435 43.508L24.5375 43.4592ZM24.5503 39.6477C24.4259 40.1579 24.3596 40.8667 24.3564 41.5733C24.3532 42.2803 24.4134 42.9753 24.5374 43.4588L24.3436 43.5084C24.2137 43.0016 24.1532 42.2874 24.1564 41.5724C24.1596 40.8571 24.2265 40.1312 24.356 39.6003L24.5503 39.6477ZM37.8278 35.9371C33.4645 31.6114 26.017 33.6932 24.5503 39.648L24.3561 39.6001C25.8602 33.4937 33.4955 31.3605 37.9686 35.795L37.8278 35.9371ZM39.1947 45.3647C40.8864 42.3321 40.3103 38.407 37.8276 35.9369L37.9687 35.7952C40.5137 38.3273 41.1055 42.3498 39.3694 45.4621L39.1947 45.3647ZM36.7252 48.0981C37.5619 47.5361 38.6685 46.3168 39.1945 45.365L39.3696 45.4618C38.8291 46.4397 37.7013 47.6834 36.8367 48.2641L36.7252 48.0981ZM36.0899 48.5301L36.7247 48.0984L36.8372 48.2638L36.2024 48.6954L36.0899 48.5301ZM36.6805 48.8494L36.1219 48.7098L36.1704 48.5157L36.729 48.6554L36.6805 48.8494ZM45.5035 56.0613C43.789 52.8213 40.0528 49.7554 36.6788 48.849L36.7307 48.6558C40.1618 49.5776 43.9415 52.6819 45.6803 55.9677L45.5035 56.0613ZM45.96 56.9489L45.503 56.0602L45.6808 55.9687L46.1379 56.8575L45.96 56.9489ZM46.6971 56.2816L46.1258 56.9672L45.9721 56.8392L46.5435 56.1536L46.6971 56.2816ZM50.8197 47.3214C50.2963 50.4875 48.7271 53.8941 46.6965 56.2824L46.5441 56.1528C48.5507 53.7928 50.1048 50.4199 50.6224 47.2888L50.8197 47.3214ZM50.8196 41.1812C51.0882 42.729 51.0881 45.6985 50.8197 47.3214L50.6224 47.2888C50.8873 45.6869 50.8871 42.7401 50.6225 41.2154L50.8196 41.1812ZM33.7344 35.6298C36.4812 36.3649 38.3156 38.7143 38.3156 41.5157H38.1156C38.1156 38.8072 36.3443 36.5353 33.6827 35.823L33.7344 35.6298ZM30.6992 35.6298C31.0917 35.5251 31.6535 35.4709 32.2117 35.4693C32.7697 35.4677 33.3355 35.5186 33.7354 35.6301L33.6817 35.8227C33.3071 35.7183 32.762 35.6677 32.2123 35.6693C31.6627 35.6709 31.12 35.7245 30.7507 35.823L30.6992 35.6298ZM26.1814 41.503C26.1814 38.7528 28.0152 36.3782 30.6981 35.6301L30.7518 35.8227C28.1532 36.5473 26.3814 38.8448 26.3814 41.503H26.1814ZM34.8044 47.0657C30.7505 48.9506 26.1814 46.0058 26.1814 41.503H26.3814C26.3814 45.862 30.801 48.7066 34.7201 46.8843L34.8044 47.0657ZM38.3156 41.5157C38.3156 43.9663 36.9985 46.046 34.8044 47.0657L34.7201 46.8843C36.8426 45.898 38.1156 43.8896 38.1156 41.5157H38.3156ZM35.3832 50.4201C38.095 51.0981 40.6144 52.6583 42.4308 54.8073L42.2781 54.9364C40.4889 52.8196 38.006 51.282 35.3347 50.6142L35.3832 50.4201ZM29.7916 50.254C30.4818 50.1185 31.538 50.0743 32.588 50.1061C33.6381 50.138 34.6939 50.2462 35.3835 50.4202L35.3345 50.6141C34.6656 50.4453 33.6266 50.3377 32.5819 50.306C31.5371 50.2744 30.4984 50.3191 29.8301 50.4502L29.7916 50.254ZM23.8576 53.0036C25.571 51.6353 27.719 50.6378 29.7927 50.2538L29.8291 50.4504C27.7893 50.8282 25.6714 51.8112 23.9824 53.1599L23.8576 53.0036ZM20.1323 57.8445C20.4291 57.0831 20.997 56.1636 21.6698 55.2916C22.343 54.419 23.1261 53.5875 23.8576 53.0036L23.9823 53.1599C23.2665 53.7313 22.4944 54.5502 21.8281 55.4138C21.1614 56.2779 20.6058 57.1804 20.3186 57.9171L20.1323 57.8445ZM19.9169 58.3765L20.1327 57.8433L20.3181 57.9183L20.1023 58.4515L19.9169 58.3765ZM20.3265 58.8082L19.9456 58.4908L20.0736 58.3372L20.4545 58.6546L20.3265 58.8082ZM28.5836 62.7141C25.5733 62.0636 22.4858 60.6098 20.3264 58.8082L20.4546 58.6546C22.5864 60.4333 25.6437 61.8742 28.6259 62.5186L28.5836 62.7141ZM35.6325 62.7779C34.7655 62.9513 33.4402 63.0274 32.1174 63.0147C30.7944 63.002 29.4632 62.9003 28.584 62.7142L28.6255 62.5185C29.4856 62.7006 30.8015 62.8021 32.1193 62.8147C33.4373 62.8274 34.7464 62.7512 35.5933 62.5818L35.6325 62.7779ZM44.1705 58.8082C41.9346 60.6736 38.7577 62.1401 35.6329 62.7778L35.5929 62.5819C38.6891 61.95 41.8348 60.4964 44.0424 58.6546L44.1705 58.8082ZM44.4023 57.9574C44.4432 58.0582 44.476 58.143 44.4945 58.216C44.5133 58.2905 44.5195 58.3616 44.4996 58.4329C44.4799 58.5036 44.4379 58.5625 44.3838 58.6193C44.3303 58.6754 44.2581 58.7363 44.17 58.8087L44.043 58.6541C44.1326 58.5806 44.1953 58.5272 44.239 58.4813C44.2821 58.4361 44.2996 58.4054 44.3069 58.3792C44.314 58.3538 44.3146 58.3209 44.3005 58.2649C44.286 58.2074 44.2585 58.135 44.217 58.0327L44.4023 57.9574ZM42.4309 54.8074C43.1217 55.6261 44.0929 57.1841 44.4025 57.9579L44.2168 58.0322C43.9169 57.2825 42.9583 55.7426 42.278 54.9363L42.4309 54.8074ZM7.34306 7.33994C7.22232 7.39729 7.14302 7.44993 7.08103 7.53875C7.01699 7.63049 6.96459 7.7708 6.92264 8.01705C6.83841 8.51153 6.80352 9.38182 6.75262 11.0107L6.55271 11.0045C6.60338 9.38323 6.63832 8.49513 6.72548 7.98346C6.76923 7.72664 6.82792 7.55193 6.91703 7.42427C7.00818 7.29369 7.12407 7.22254 7.25725 7.15928L7.34306 7.33994ZM10.0357 9.88279C9.56909 9.19075 9.20748 8.66222 8.91559 8.26389C8.62296 7.86454 8.40409 7.60123 8.22306 7.43618C8.04301 7.27202 7.91015 7.21406 7.78882 7.20763C7.66322 7.20098 7.53049 7.24782 7.34427 7.33936L7.25605 7.15987C7.44436 7.06731 7.61791 6.9983 7.7994 7.00791C7.98515 7.01775 8.16017 7.10818 8.35781 7.28839C8.5545 7.46772 8.78315 7.74478 9.07692 8.14567C9.37142 8.54758 9.73507 9.07916 10.2016 9.77097L10.0357 9.88279ZM10.8491 11.0782C10.6027 10.7156 10.3258 10.3082 10.036 9.88322L10.2013 9.77055C10.4911 10.1957 10.7681 10.6032 11.0145 10.9658L10.8491 11.0782ZM11.8635 12.551C11.8522 12.5398 11.8368 12.519 11.8233 12.5005C11.8072 12.4785 11.7859 12.4485 11.76 12.4115C11.708 12.3374 11.6363 12.2335 11.5484 12.1052C11.3725 11.8484 11.1306 11.4924 10.8491 11.0782L11.0145 10.9658C11.2961 11.3802 11.5377 11.7357 11.7134 11.9921C11.8012 12.1204 11.8724 12.2235 11.9237 12.2967C11.9494 12.3333 11.9698 12.362 11.9848 12.3825C12.0023 12.4065 12.0073 12.412 12.0049 12.4096L11.8635 12.551ZM15.1368 11.7636C14.2851 12.0178 13.5029 12.2341 12.9269 12.3805C12.639 12.4536 12.4016 12.5096 12.2323 12.5442C12.148 12.5614 12.0786 12.5737 12.0277 12.5801C12.0026 12.5832 11.979 12.5852 11.959 12.5852C11.9493 12.5851 11.937 12.5846 11.9243 12.5822C11.9159 12.5806 11.8874 12.575 11.8635 12.551L12.0049 12.4096C11.9932 12.398 11.9815 12.3924 11.9754 12.3898C11.9688 12.3872 11.9637 12.3861 11.9615 12.3857C11.9573 12.3849 11.9561 12.3851 11.9599 12.3852C11.9672 12.3852 11.981 12.3843 12.003 12.3816C12.0462 12.3762 12.1096 12.3651 12.1923 12.3482C12.357 12.3146 12.591 12.2595 12.8776 12.1866C13.4505 12.041 14.23 11.8256 15.0795 11.572L15.1368 11.7636ZM18.4757 11.0194C18.4093 10.9834 18.3518 10.9614 18.26 10.9571C18.163 10.9526 18.0248 10.9678 17.7985 11.0165C17.3462 11.1139 16.5731 11.3378 15.1366 11.7637L15.0797 11.5719C16.5125 11.1472 17.2947 10.9204 17.7564 10.821C17.9872 10.7713 18.1458 10.7516 18.2693 10.7573C18.3982 10.7634 18.4851 10.797 18.571 10.8435L18.4757 11.0194ZM19.0125 12.0297C19.0571 11.8959 19.0229 11.7007 18.9173 11.5001C18.8133 11.3026 18.6509 11.1211 18.4731 11.0179L18.5736 10.8449C18.7894 10.9703 18.9761 11.1824 19.0943 11.407C19.2109 11.6285 19.2719 11.8841 19.2022 12.093L19.0125 12.0297ZM17.0604 14.6917C17.5805 14.0194 18.0624 13.379 18.4188 12.8911C18.5971 12.6471 18.7436 12.4417 18.8477 12.2897C18.8999 12.2136 18.9408 12.1517 18.9697 12.1054C18.9842 12.0822 18.9951 12.0637 19.0026 12.0498C19.0113 12.034 19.0125 12.0297 19.0116 12.0326L19.2032 12.0901C19.1975 12.1089 19.1873 12.129 19.1782 12.1456C19.1681 12.1642 19.155 12.1863 19.1394 12.2112C19.1084 12.261 19.0655 12.3257 19.0127 12.4028C18.907 12.5571 18.7591 12.7643 18.5803 13.0091C18.2226 13.4987 17.7396 14.1406 17.2186 14.8141L17.0604 14.6917ZM15.191 17.3618C15.182 17.3347 15.186 17.3106 15.1877 17.3012C15.1901 17.2889 15.1939 17.2774 15.1974 17.2681C15.2046 17.2492 15.2149 17.2279 15.2268 17.2056C15.251 17.1605 15.2869 17.1012 15.3326 17.0304C15.4242 16.8883 15.559 16.6931 15.7268 16.4593C16.0626 15.9914 16.5332 15.365 17.0608 14.6913L17.2182 14.8146C16.692 15.4866 16.2231 16.1107 15.8893 16.5759C15.7222 16.8087 15.5896 17.0008 15.5007 17.1388C15.456 17.208 15.4235 17.262 15.4032 17.2999C15.3929 17.3192 15.3872 17.3318 15.3845 17.3388C15.3831 17.3425 15.3836 17.342 15.3842 17.3386C15.3843 17.3381 15.3882 17.3209 15.3808 17.2986L15.191 17.3618ZM16.9809 20.0403C16.5046 19.348 16.0663 18.7001 15.7439 18.2173C15.5827 17.9759 15.4503 17.7756 15.3566 17.6315C15.3098 17.5595 15.2724 17.5012 15.2458 17.4587C15.2325 17.4376 15.2216 17.4199 15.2135 17.4061C15.2071 17.3954 15.1981 17.3799 15.193 17.3673L15.3787 17.293C15.3769 17.2884 15.3771 17.2898 15.3857 17.3043C15.3925 17.3159 15.4024 17.332 15.4152 17.3526C15.441 17.3936 15.4777 17.4508 15.5243 17.5224C15.6174 17.6656 15.7493 17.8652 15.9102 18.1062C16.2321 18.5883 16.6699 19.2354 17.1457 19.9269L16.9809 20.0403ZM18.5175 23.3924C18.6088 23.2616 18.66 23.1567 18.6705 23.0351C18.6811 22.912 18.651 22.7578 18.5494 22.5284C18.3445 22.0659 17.8718 21.3448 16.9807 20.04L17.1459 19.9272C18.0322 21.2251 18.5181 21.9641 18.7322 22.4474C18.8401 22.6909 18.8845 22.8811 18.8698 23.0523C18.8549 23.2252 18.7807 23.3647 18.6815 23.5068L18.5175 23.3924ZM14.888 22.7715C16.3966 23.3125 17.2269 23.5907 17.7277 23.6682C17.9763 23.7067 18.1293 23.693 18.2387 23.648C18.3463 23.6036 18.4264 23.523 18.5175 23.3924L18.6815 23.5068C18.5822 23.6492 18.475 23.7669 18.3149 23.8329C18.1565 23.8981 17.9611 23.9067 17.6971 23.8658C17.1727 23.7847 16.3208 23.4978 14.8205 22.9597L14.888 22.7715ZM11.8848 21.7128C11.906 21.7159 11.9462 21.7279 11.9908 21.7419C12.0401 21.7574 12.1067 21.7793 12.1884 21.8067C12.3519 21.8617 12.5773 21.9396 12.8481 22.0349C13.3898 22.2255 14.114 22.486 14.8888 22.7718L14.8196 22.9594C14.0456 22.6739 13.3224 22.4138 12.7818 22.2236C12.5114 22.1284 12.2869 22.0508 12.1247 21.9963C12.0435 21.969 11.9783 21.9476 11.9309 21.9327C11.9072 21.9253 11.8884 21.9196 11.8746 21.9157C11.8586 21.9112 11.8544 21.9105 11.8565 21.9108L11.8848 21.7128ZM9.83608 24.0618C10.3319 23.4134 10.7995 22.8281 11.1547 22.4075C11.3322 22.1974 11.4826 22.0273 11.5949 21.9107C11.6508 21.8527 11.6992 21.8059 11.7379 21.7738C11.7569 21.758 11.7766 21.7432 11.7956 21.7324C11.8051 21.727 11.8175 21.7208 11.8318 21.7166C11.8448 21.7128 11.8696 21.7075 11.8982 21.7157L11.8432 21.908C11.8663 21.9146 11.8839 21.9098 11.8883 21.9085C11.894 21.9068 11.8964 21.9052 11.8943 21.9064C11.8903 21.9086 11.8811 21.9149 11.8657 21.9276C11.8356 21.9527 11.7932 21.9932 11.739 22.0494C11.6311 22.1614 11.484 22.3276 11.3075 22.5366C10.955 22.9539 10.4894 23.5366 9.99495 24.1832L9.83608 24.0618ZM7.78608 26.6071C7.79696 26.5989 7.82244 26.5748 7.86486 26.5291C7.90542 26.4855 7.957 26.4271 8.01848 26.3552C8.14133 26.2117 8.30171 26.017 8.4887 25.7848C8.86256 25.3207 9.3413 24.7088 9.83608 24.0618L9.99495 24.1832C9.49945 24.8312 9.01965 25.4445 8.64445 25.9103C8.45691 26.1431 8.29513 26.3396 8.17042 26.4853C8.1081 26.5581 8.05455 26.6188 8.01139 26.6652C7.9701 26.7097 7.93329 26.7467 7.90608 26.7671L7.78608 26.6071ZM6.59642 26.5275C6.94501 26.8761 7.45601 26.9025 7.77933 26.6126L7.91284 26.7615C7.49979 27.1319 6.86816 27.0821 6.455 26.6689L6.59642 26.5275ZM6.27902 26.2101L6.59642 26.5275L6.455 26.6689L6.1376 26.3515L6.27902 26.2101ZM6.39714 23.0715L6.30827 26.2836L6.10835 26.278L6.19722 23.066L6.39714 23.0715ZM6.18107 19.6619C6.2129 19.6743 6.25007 19.6909 6.28461 19.7196C6.32038 19.7494 6.34805 19.7876 6.36931 19.8368C6.40923 19.929 6.4296 20.0678 6.43991 20.2836C6.46078 20.7201 6.44151 21.5313 6.39714 23.0716L6.19722 23.0659C6.24172 21.521 6.26054 20.7199 6.24014 20.2931C6.22982 20.0772 6.20973 19.9716 6.18577 19.9162C6.17509 19.8916 6.16497 19.8802 6.15665 19.8733C6.1471 19.8654 6.13389 19.8581 6.10858 19.8483L6.18107 19.6619ZM3.27079 18.6197C4.742 19.1397 6.05254 19.6105 6.18197 19.6622L6.10769 19.8479C5.98319 19.7981 4.67837 19.3294 3.20414 18.8083L3.27079 18.6197ZM0.1 16.8477C0.1 16.9891 0.12624 17.1011 0.199212 17.2079C0.27432 17.3178 0.404842 17.4309 0.630708 17.5609C1.08449 17.822 1.88412 18.13 3.27077 18.6197L3.20416 18.8083C1.82309 18.3205 1.00399 18.0064 0.530969 17.7343C0.293434 17.5976 0.133536 17.4663 0.0340754 17.3207C-0.0675211 17.172 -0.1 17.0174 -0.1 16.8477H0.1ZM1.40099 15.8005C0.894898 15.9587 0.568369 16.1064 0.368609 16.2724C0.176646 16.4319 0.1 16.6095 0.1 16.8477H-0.1C-0.1 16.5527 0.0010969 16.3177 0.240795 16.1186C0.472696 15.9259 0.831748 15.7689 1.34133 15.6096L1.40099 15.8005ZM4.48374 14.8871C3.32753 15.2175 1.93346 15.6231 1.40278 15.8L1.33954 15.6102C1.87532 15.4316 3.27435 15.0247 4.4288 14.6948L4.48374 14.8871ZM6.59157 14.2777L4.48405 14.8871L4.42849 14.6949L6.53602 14.0855L6.59157 14.2777ZM6.75263 11.0104L6.66375 14.1844L6.46383 14.1788L6.5527 11.0048L6.75263 11.0104ZM9.90891 12.944C10.2063 13.3742 10.5003 13.7725 10.7322 14.0692C10.8483 14.2176 10.9482 14.3399 11.0249 14.4276C11.0634 14.4716 11.0951 14.506 11.1196 14.5303C11.1478 14.5583 11.1574 14.5638 11.1537 14.5619L11.0642 14.7408C11.035 14.7262 11.0042 14.6975 10.9787 14.6722C10.9495 14.6432 10.9143 14.6049 10.8743 14.5592C10.7943 14.4677 10.6919 14.3423 10.5747 14.1924C10.3401 13.8924 10.0437 13.4908 9.74438 13.0577L9.90891 12.944ZM8.69671 11.3266C8.72262 11.3266 8.74117 11.3366 8.74624 11.3394C8.75381 11.3435 8.75954 11.3478 8.76275 11.3504C8.76938 11.3557 8.77499 11.3612 8.77878 11.3651C8.78682 11.3734 8.79586 11.3839 8.80512 11.3951C8.82405 11.4179 8.84937 11.4505 8.87987 11.4909C8.94113 11.572 9.0262 11.6887 9.12872 11.8317C9.33388 12.118 9.61036 12.5121 9.90891 12.944L9.74438 13.0577C9.44622 12.6263 9.17043 12.2333 8.96615 11.9482C8.86394 11.8056 8.78 11.6905 8.72025 11.6114C8.69025 11.5717 8.66707 11.5419 8.65103 11.5226C8.64281 11.5126 8.63775 11.507 8.63528 11.5044C8.6338 11.5029 8.63505 11.5044 8.63823 11.5069C8.63972 11.5081 8.64395 11.5114 8.65026 11.5148C8.65407 11.5169 8.67159 11.5266 8.69671 11.5266V11.3266ZM8.50787 13.3921C8.52057 12.8521 8.53646 12.3594 8.55237 12.0014C8.56032 11.8225 8.56831 11.6765 8.57596 11.5748C8.57977 11.5242 8.58361 11.483 8.58752 11.4536C8.5894 11.4395 8.5917 11.425 8.59475 11.4127C8.59608 11.4074 8.59882 11.397 8.60403 11.3861C8.60647 11.381 8.61208 11.37 8.62243 11.359C8.63236 11.3483 8.65734 11.3266 8.69671 11.3266V11.5266C8.73529 11.5266 8.75947 11.5052 8.76859 11.4955C8.77813 11.4853 8.78293 11.4756 8.78456 11.4722C8.78663 11.4678 8.78776 11.4645 8.78818 11.4632C8.78844 11.4624 8.78861 11.4618 8.78871 11.4615C8.78881 11.4611 8.78886 11.4609 8.78886 11.4609C8.78886 11.4609 8.78875 11.4613 8.78855 11.4623C8.78836 11.4633 8.78811 11.4646 8.78781 11.4663C8.78722 11.4698 8.78653 11.4743 8.78576 11.4801C8.78263 11.5036 8.77913 11.5402 8.7754 11.5898C8.76798 11.6884 8.7601 11.832 8.75217 12.0103C8.73635 12.3664 8.7205 12.8576 8.70781 13.3968L8.50787 13.3921ZM8.24512 15.5328C8.29633 15.4816 8.33224 15.4353 8.36095 15.3699C8.39064 15.3023 8.41483 15.2093 8.43409 15.0621C8.47289 14.7657 8.48877 14.2771 8.50786 13.3923L8.70781 13.3966C8.68882 14.2766 8.67295 14.7782 8.6324 15.088C8.612 15.244 8.5846 15.358 8.54407 15.4503C8.50256 15.5448 8.44959 15.6112 8.38654 15.6742L8.24512 15.5328ZM6.26844 16.2822C6.77478 16.1303 7.23894 15.9755 7.59469 15.8402C7.77269 15.7724 7.92224 15.71 8.03585 15.6557C8.15397 15.5993 8.2207 15.5572 8.24512 15.5328L8.38654 15.6742C8.33478 15.726 8.23806 15.7808 8.1221 15.8362C8.00162 15.8938 7.84647 15.9583 7.66582 16.0271C7.30424 16.1647 6.83526 16.321 6.32591 16.4738L6.26844 16.2822ZM4.41095 16.8659C4.42328 16.8536 4.43684 16.8466 4.43925 16.8453C4.44476 16.8424 4.45042 16.8398 4.45537 16.8376C4.46544 16.8332 4.47793 16.8283 4.49188 16.8231C4.52007 16.8126 4.559 16.799 4.60689 16.783C4.70294 16.751 4.83824 16.7079 5.00281 16.657C5.3321 16.5552 5.78033 16.4217 6.26971 16.2818L6.32465 16.4741C5.83645 16.6136 5.38961 16.7467 5.06189 16.848C4.89794 16.8987 4.76425 16.9413 4.67026 16.9727C4.62313 16.9885 4.58678 17.0011 4.56185 17.0104C4.54924 17.0152 4.54072 17.0186 4.53562 17.0208C4.53298 17.022 4.53252 17.0223 4.53341 17.0218C4.53386 17.0215 4.5356 17.0206 4.53803 17.019C4.53977 17.0179 4.54571 17.014 4.55238 17.0073L4.41095 16.8659ZM5.57832 17.488C5.25377 17.3734 4.96346 17.265 4.75691 17.1817C4.65399 17.1402 4.57016 17.1043 4.51292 17.0766C4.48506 17.0632 4.45973 17.0498 4.44112 17.0375C4.43322 17.0323 4.41877 17.0223 4.40667 17.008C4.40109 17.0013 4.38811 16.9848 4.38292 16.9598C4.37621 16.9275 4.38504 16.8918 4.41095 16.8659L4.55237 17.0073C4.5767 16.983 4.58498 16.9492 4.57874 16.9192C4.57403 16.8965 4.56254 16.8825 4.55944 16.8789C4.5523 16.8704 4.54679 16.8676 4.55161 16.8708C4.55844 16.8753 4.57368 16.8838 4.59998 16.8966C4.65104 16.9213 4.72988 16.9552 4.83169 16.9962C5.03458 17.078 5.32194 17.1854 5.64488 17.2994L5.57832 17.488ZM8.21436 18.6839C8.17126 18.6008 8.1389 18.547 8.08104 18.494C8.02117 18.4391 7.92863 18.3804 7.75818 18.3018C7.41588 18.1439 6.79326 17.9205 5.57806 17.4879L5.64514 17.2994C6.85486 17.7301 7.48914 17.9574 7.84194 18.1201C8.01904 18.2018 8.1336 18.2709 8.21616 18.3465C8.30074 18.424 8.34614 18.5036 8.39191 18.5918L8.21436 18.6839ZM8.30476 20.8815C8.33015 20.1644 8.33635 19.6696 8.32067 19.3232C8.30485 18.9735 8.26695 18.7891 8.21369 18.6826L8.39258 18.5931C8.46628 18.7405 8.50455 18.9624 8.52047 19.3142C8.53654 19.6692 8.53004 20.1711 8.50464 20.8886L8.30476 20.8815ZM8.25395 22.7868L8.30474 20.8824L8.50467 20.8877L8.45388 22.7921L8.25395 22.7868ZM9.01729 22.0885L8.43328 22.8503L8.27456 22.7286L8.85857 21.9668L9.01729 22.0885ZM11.2994 19.652C11.2143 19.652 11.1436 19.6643 11.0574 19.7121C10.9668 19.7622 10.8553 19.8535 10.6957 20.0209C10.3763 20.356 9.88791 20.9701 9.01684 22.0891L8.85902 21.9662C9.7273 20.8508 10.2229 20.227 10.5509 19.8829C10.7151 19.7107 10.8432 19.602 10.9605 19.5371C11.0822 19.4698 11.1877 19.452 11.2994 19.452V19.652ZM13.3599 20.268C12.892 20.0973 12.421 19.9424 12.0423 19.8304C11.8528 19.7743 11.6873 19.7292 11.5571 19.6982C11.4229 19.6663 11.3366 19.652 11.2994 19.652V19.452C11.3637 19.452 11.4726 19.4725 11.6034 19.5037C11.7383 19.5358 11.9076 19.5819 12.099 19.6386C12.482 19.7519 12.9569 19.9081 13.4285 20.0801L13.3599 20.268ZM15.2082 20.7454C15.2082 20.7844 15.1867 20.8135 15.1637 20.8291C15.1455 20.8415 15.1279 20.8447 15.1211 20.8457C15.1062 20.848 15.0933 20.8467 15.0885 20.8462C15.076 20.8448 15.0621 20.8419 15.0498 20.8389C15.0237 20.8327 14.9874 20.8223 14.9433 20.8089C14.8546 20.7819 14.7273 20.7402 14.5716 20.6878C14.2599 20.5828 13.8308 20.4335 13.3611 20.2684L13.4273 20.0797C13.8971 20.2448 14.325 20.3937 14.6354 20.4983C14.7907 20.5506 14.9158 20.5914 15.0016 20.6176C15.0449 20.6308 15.0764 20.6396 15.0963 20.6444C15.107 20.647 15.1107 20.6474 15.11 20.6474C15.1095 20.6473 15.1078 20.6471 15.1052 20.6471C15.103 20.647 15.0977 20.647 15.0907 20.6481C15.0854 20.6489 15.069 20.6517 15.0514 20.6636C15.0292 20.6787 15.0082 20.7072 15.0082 20.7454H15.2082ZM14.1113 19.0888C14.4099 19.5209 14.6799 19.918 14.8753 20.2087C14.973 20.3541 15.0522 20.4731 15.107 20.5566C15.1344 20.5983 15.156 20.6315 15.1708 20.6549C15.1781 20.6665 15.1842 20.6763 15.1886 20.6838C15.1907 20.6874 15.1931 20.6915 15.1952 20.6955C15.1962 20.6974 15.1979 20.7007 15.1996 20.7047C15.2005 20.7066 15.202 20.7102 15.2034 20.7148C15.2042 20.7172 15.2082 20.7294 15.2082 20.7454H15.0082C15.0082 20.7612 15.0121 20.7731 15.0127 20.7751C15.014 20.7793 15.0154 20.7824 15.016 20.7838C15.0172 20.7868 15.0182 20.7887 15.0183 20.7887C15.0185 20.7892 15.0181 20.7884 15.0166 20.7858C15.0136 20.7809 15.0088 20.773 15.0018 20.7619C14.9878 20.7399 14.967 20.7078 14.9398 20.6663C14.8856 20.5837 14.8068 20.4654 14.7093 20.3203C14.5144 20.0303 14.2448 19.6339 13.9467 19.2026L14.1113 19.0888ZM13.0498 17.2032C13.0498 17.3142 13.1131 17.5 13.2864 17.8116C13.4569 18.1182 13.7243 18.5306 14.1112 19.0887L13.9468 19.2027C13.5592 18.6435 13.2871 18.2244 13.1116 17.9088C12.9389 17.5984 12.8498 17.3715 12.8498 17.2032H13.0498ZM14.2222 15.3602C13.7778 15.9316 13.4822 16.3312 13.2979 16.6234C13.111 16.9194 13.0498 17.0884 13.0498 17.2032H12.8498C12.8498 17.026 12.941 16.8141 13.1287 16.5166C13.3189 16.2152 13.62 15.8087 14.0643 15.2374L14.2222 15.3602ZM15.382 13.6792C15.4175 13.7147 15.4114 13.7582 15.4107 13.7635C15.4092 13.7757 15.4057 13.785 15.4043 13.7888C15.401 13.7974 15.397 13.8048 15.3946 13.809C15.3893 13.8185 15.3822 13.8297 15.3745 13.8412C15.3587 13.8649 15.3355 13.8978 15.3061 13.9382C15.2472 14.0194 15.161 14.1347 15.0546 14.2753C14.8416 14.5566 14.5462 14.941 14.2224 15.36L14.0641 15.2377C14.3878 14.8188 14.6828 14.435 14.8951 14.1546C15.0014 14.0142 15.0866 13.9002 15.1443 13.8207C15.1732 13.7808 15.1946 13.7505 15.2081 13.7303C15.2151 13.7198 15.2187 13.7139 15.2201 13.7114C15.2211 13.7096 15.2194 13.7122 15.2175 13.7174C15.2167 13.7195 15.2137 13.7274 15.2123 13.7386C15.2117 13.7427 15.2055 13.7855 15.2406 13.8206L15.382 13.6792ZM13.6198 14.1238C14.0706 13.9904 14.4836 13.8697 14.7856 13.7839C14.9366 13.741 15.0603 13.7066 15.1474 13.6838C15.1908 13.6724 15.2261 13.6635 15.2515 13.6579C15.2639 13.6552 15.2758 13.6527 15.2858 13.6513C15.2904 13.6506 15.2976 13.6496 15.3055 13.6494C15.3092 13.6493 15.3167 13.6493 15.3257 13.6507C15.3295 13.6513 15.3578 13.6551 15.382 13.6792L15.2406 13.8206C15.2643 13.8444 15.2919 13.8479 15.2946 13.8483C15.3025 13.8495 15.3085 13.8494 15.3104 13.8494C15.3147 13.8493 15.3169 13.8488 15.3151 13.8491C15.3123 13.8495 15.3059 13.8507 15.2948 13.8532C15.2733 13.8579 15.241 13.866 15.1982 13.8772C15.1131 13.8995 14.9909 13.9334 14.8403 13.9762C14.5393 14.0618 14.1271 14.1823 13.6765 14.3156L13.6198 14.1238ZM11.144 14.5577C11.3244 14.6253 11.5301 14.6432 11.8998 14.5798C12.2721 14.5159 12.7996 14.3717 13.6192 14.124L13.6771 14.3154C12.8588 14.5628 12.3199 14.7106 11.9336 14.7769C11.5448 14.8436 11.2997 14.8297 11.0738 14.745L11.144 14.5577ZM31.7106 0.271148C31.6831 0.291343 31.6364 0.348934 31.5701 0.474329C31.506 0.595476 31.4298 0.76727 31.3383 0.999961C31.1554 1.46501 30.915 2.16393 30.5913 3.16667L30.401 3.10524C30.7248 2.10203 30.9669 1.39804 31.1522 0.926772C31.2448 0.6913 31.3241 0.511576 31.3933 0.38079C31.4603 0.254251 31.5247 0.159493 31.5924 0.109864L31.7106 0.271148ZM32.2482 0.100061C32.1735 0.100061 32.0734 0.11924 31.9711 0.152339C31.8693 0.185295 31.7735 0.229379 31.707 0.27371L31.596 0.107302C31.6819 0.0500633 31.7956 -0.00107576 31.9095 -0.0379494C32.0231 -0.0746808 32.1451 -0.099939 32.2482 -0.099939V0.100061ZM33.905 3.16657C33.4401 1.72083 33.1768 0.948844 32.9464 0.535999C32.8326 0.332009 32.7333 0.228255 32.6323 0.172196C32.5312 0.116064 32.4151 0.100061 32.2482 0.100061V-0.099939C32.4241 -0.099939 32.5825 -0.0842015 32.7294 -0.00266173C32.8764 0.0789515 32.9985 0.218801 33.1211 0.438538C33.3636 0.873147 33.6336 1.66911 34.0954 3.10534L33.905 3.16657ZM34.725 5.72066C34.5465 5.15988 34.2403 4.19827 33.9051 3.16686L34.0953 3.10505C34.4308 4.13709 34.737 5.09921 34.9156 5.65999L34.725 5.72066ZM34.7258 5.72322L34.725 5.72073L34.9155 5.65993L34.9163 5.66243L34.7258 5.72322ZM34.7257 5.72287L34.7255 5.72239L34.9166 5.66326L34.9167 5.66374L34.7257 5.72287ZM34.883 6.2146C34.8663 6.16476 34.8103 5.98865 34.7259 5.72364L34.9165 5.66297C35.0013 5.92922 35.0566 6.10321 35.0727 6.15136L34.883 6.2146ZM34.9572 6.50023L34.8811 6.20822L35.0746 6.15774L35.1508 6.44974L34.9572 6.50023ZM38.2915 6.57498H35.054V6.37498H38.2915V6.57498ZM41.5289 6.57498H38.2915V6.37498H41.5289V6.57498ZM41.7615 6.86163L41.4568 6.54424L41.6011 6.40573L41.9058 6.72313L41.7615 6.86163ZM41.9812 7.88721C42.1204 7.51601 42.0385 7.12721 41.7644 6.86458L41.9028 6.72018C42.2382 7.04156 42.334 7.51609 42.1685 7.95743L41.9812 7.88721ZM39.439 9.84721C40.124 9.35251 40.7578 8.8803 41.2248 8.5178C41.4584 8.33644 41.6495 8.18317 41.7841 8.06856C41.8515 8.01112 41.9036 7.96441 41.9394 7.9293C41.9574 7.91165 41.97 7.89819 41.978 7.88862C41.9888 7.87568 41.9842 7.87815 41.98 7.8907L42.1697 7.95394C42.1608 7.98077 42.1425 8.00368 42.1314 8.01698C42.1174 8.03365 42.0997 8.05224 42.0794 8.0721C42.0387 8.11203 41.9826 8.16222 41.9137 8.22083C41.7758 8.33832 41.582 8.49372 41.3474 8.67578C40.8781 9.04012 40.2423 9.51376 39.5561 10.0093L39.439 9.84721ZM36.8603 11.7146C36.912 11.6758 38.068 10.8247 39.4395 9.84685L39.5556 10.0097C38.1849 10.987 37.0302 11.8371 36.9803 11.8746L36.8603 11.7146ZM37.6761 14.759C37.4155 13.9772 37.1897 13.2554 37.0353 12.7222C36.9582 12.4558 36.8985 12.2354 36.8613 12.0776C36.8427 11.9991 36.8292 11.9341 36.822 11.8859C36.8185 11.8622 36.816 11.8394 36.8158 11.8197C36.8157 11.8101 36.8161 11.7977 36.8185 11.7847C36.8202 11.7753 36.826 11.7475 36.8496 11.7239L36.991 11.8653C37.0114 11.8449 37.0149 11.8227 37.0151 11.8214C37.016 11.8165 37.0157 11.8145 37.0158 11.8177C37.0158 11.8238 37.0168 11.836 37.0198 11.8564C37.0258 11.8962 37.0378 11.9548 37.0559 12.0317C37.092 12.1846 37.1506 12.4014 37.2274 12.6666C37.3809 13.1966 37.6058 13.9158 37.8658 14.6957L37.6761 14.759ZM38.6231 17.9521C38.6231 17.9383 38.6186 17.9028 38.6056 17.84C38.5933 17.7801 38.5748 17.7025 38.5507 17.6088C38.5025 17.4217 38.4327 17.1738 38.3463 16.8823C38.1737 16.2995 37.936 15.5452 37.676 14.7587L37.8659 14.6959C38.1264 15.4838 38.3648 16.2403 38.5381 16.8255C38.6248 17.118 38.6954 17.3685 38.7444 17.559C38.7689 17.6542 38.7882 17.7353 38.8015 17.7996C38.8142 17.861 38.8231 17.9152 38.8231 17.9521H38.6231ZM37.7582 18.817C38.2235 18.817 38.6231 18.4174 38.6231 17.9521H38.8231C38.8231 18.5279 38.334 19.017 37.7582 19.017V18.817ZM34.8974 16.9955C35.9006 17.732 36.5485 18.1902 36.9846 18.4641C37.2027 18.6011 37.3649 18.6902 37.4901 18.7448C37.6156 18.7995 37.6981 18.817 37.7582 18.817V19.017C37.6597 19.017 37.5485 18.9884 37.4102 18.9281C37.2716 18.8677 37.0997 18.7726 36.8782 18.6335C36.4351 18.3552 35.7817 17.8929 34.779 17.1567L34.8974 16.9955ZM32.1404 15.1911C32.167 15.1822 32.1907 15.1859 32.1998 15.1875C32.2119 15.1896 32.2233 15.1932 32.2327 15.1965C32.2516 15.2032 32.2733 15.2131 32.2961 15.2246C32.3422 15.2477 32.4031 15.2825 32.4761 15.3265C32.6225 15.415 32.824 15.5454 33.0657 15.7076C33.5494 16.0322 34.198 16.4868 34.897 16.9952L34.7794 17.157C34.0818 16.6496 33.4354 16.1965 32.9542 15.8737C32.7135 15.7121 32.5151 15.5838 32.3726 15.4977C32.3012 15.4545 32.2455 15.423 32.2063 15.4033C32.1864 15.3933 32.1733 15.3876 32.1657 15.385C32.1618 15.3836 32.162 15.3839 32.1651 15.3845C32.1651 15.3845 32.1819 15.3881 32.2037 15.3808L32.1404 15.1911ZM29.5356 17.0462C30.2024 16.5573 30.828 16.1032 31.2966 15.768C31.5308 15.6005 31.7261 15.4624 31.8678 15.3646C31.9386 15.3157 31.9966 15.2764 32.0395 15.2485C32.0609 15.2345 32.0793 15.2229 32.0941 15.2141C32.1053 15.2074 32.1236 15.1967 32.1404 15.1911L32.2037 15.3808C32.2109 15.3784 32.2112 15.3772 32.1963 15.386C32.1849 15.3928 32.1691 15.4027 32.1487 15.416C32.108 15.4426 32.0517 15.4806 31.9815 15.5291C31.8411 15.6261 31.6468 15.7634 31.4129 15.9307C30.9452 16.2652 30.3202 16.7189 29.6539 17.2075L29.5356 17.0462ZM26.7509 18.817C26.8062 18.817 26.8877 18.7982 27.0148 18.7408C27.1407 18.6838 27.3036 18.5926 27.5195 18.4563C27.9512 18.1838 28.5835 17.7381 29.536 17.046L29.6535 17.2078C28.7016 17.8995 28.0643 18.3489 27.6263 18.6254C27.4074 18.7637 27.2355 18.8605 27.0972 18.923C26.96 18.985 26.8479 19.017 26.7509 19.017V18.817ZM25.8733 17.9775C25.8733 18.414 26.2821 18.817 26.7509 18.817V19.017C26.1785 19.017 25.6733 18.5312 25.6733 17.9775H25.8733ZM26.8204 14.7587C26.5604 15.5451 26.3227 16.3026 26.1501 16.89C26.0638 17.1839 25.994 17.4344 25.9458 17.6245C25.9217 17.7197 25.9032 17.7988 25.8909 17.8602C25.878 17.9242 25.8733 17.9617 25.8733 17.9775H25.6733C25.6733 17.9394 25.6821 17.884 25.6948 17.8207C25.7081 17.7548 25.7274 17.6721 25.7519 17.5754C25.801 17.3819 25.8716 17.1286 25.9582 16.8337C26.1316 16.2436 26.37 15.4839 26.6305 14.6959L26.8204 14.7587ZM27.6468 11.7239C27.6704 11.7475 27.6762 11.7753 27.6779 11.7847C27.6803 11.7977 27.6807 11.8101 27.6806 11.8197C27.6804 11.8394 27.6779 11.8622 27.6744 11.8859C27.6672 11.9341 27.6537 11.9991 27.6351 12.0776C27.5979 12.2354 27.5382 12.4558 27.4611 12.7222C27.3067 13.2554 27.0809 13.9772 26.8203 14.759L26.6306 14.6957C26.8906 13.9158 27.1155 13.1966 27.269 12.6666C27.3458 12.4014 27.4044 12.1846 27.4405 12.0317C27.4586 11.9548 27.4706 11.8962 27.4766 11.8564C27.4796 11.836 27.4806 11.8238 27.4806 11.8177C27.4807 11.8145 27.4804 11.8165 27.4813 11.8214C27.4815 11.8227 27.485 11.8449 27.5054 11.8653L27.6468 11.7239ZM25.1967 9.94853C26.4918 10.8754 27.5844 11.6758 27.6361 11.7146L27.5161 11.8746C27.4663 11.8372 26.3752 11.0379 25.0803 10.1112L25.1967 9.94853ZM22.6513 8.03674C22.6594 8.04664 22.6836 8.07037 22.7293 8.11007C22.773 8.14799 22.8315 8.19634 22.9033 8.25397C23.0468 8.36915 23.2416 8.51964 23.4736 8.6947C23.9377 9.04472 24.5494 9.49163 25.1962 9.94815L25.0808 10.1115C24.4326 9.65395 23.8191 9.2058 23.3532 8.85437C23.1203 8.6787 22.9238 8.52688 22.7781 8.40996C22.7053 8.35154 22.6447 8.3014 22.5983 8.26111C22.5539 8.2226 22.517 8.1884 22.4965 8.16339L22.6513 8.03674ZM22.7323 6.86428C22.3858 7.19924 22.358 7.70946 22.6484 8.03331L22.4995 8.16682C22.1296 7.7543 22.178 7.12188 22.5933 6.72048L22.7323 6.86428ZM23.0396 6.54424L22.7349 6.86163L22.5906 6.72313L22.8953 6.40573L23.0396 6.54424ZM26.2049 6.57498H22.9675V6.37498H26.2049V6.57498ZM29.4424 6.57498H26.2049V6.37498H29.4424V6.57498ZM29.6153 6.20822L29.5392 6.50023L29.3456 6.44974L29.4218 6.15774L29.6153 6.20822ZM29.7705 5.72346C29.6861 5.98857 29.6301 6.16475 29.6135 6.2146L29.4237 6.15136C29.4398 6.1032 29.4952 5.92914 29.58 5.66279L29.7705 5.72346ZM29.7705 5.72371L29.7704 5.7239L29.5801 5.66234L29.5802 5.66215L29.7705 5.72371ZM29.7709 5.72224L29.7706 5.72325L29.58 5.66261L29.5803 5.6616L29.7709 5.72224ZM30.5913 3.16686C30.2557 4.19926 29.9494 5.16171 29.7709 5.72225L29.5803 5.66159C29.7588 5.10104 30.0653 4.13808 30.4011 3.10505L30.5913 3.16686ZM32.9781 6.2662C33.1809 6.88742 33.3447 7.33412 33.4837 7.64503C33.625 7.96103 33.734 8.12009 33.8198 8.18567L33.6983 8.34455C33.5682 8.24509 33.4423 8.04231 33.3011 7.72669C33.1577 7.40598 32.9914 6.95127 32.7879 6.32828L32.9781 6.2662ZM32.2482 4.47059C32.2882 4.47059 32.3136 4.49332 32.319 4.49815C32.3283 4.50642 32.335 4.51507 32.3391 4.52061C32.3476 4.53225 32.3554 4.54594 32.3623 4.55886C32.3764 4.58559 32.3935 4.62258 32.4125 4.66709C32.451 4.75681 32.5012 4.88515 32.5594 5.0421C32.6759 5.35638 32.8255 5.78949 32.9782 6.26676L32.7878 6.32772C32.6358 5.8528 32.4871 5.42259 32.3719 5.11159C32.3142 4.9559 32.2652 4.83112 32.2287 4.74587C32.2103 4.7029 32.1958 4.67194 32.1856 4.65261C32.1831 4.64793 32.1811 4.64438 32.1796 4.64179C32.1779 4.63908 32.1773 4.63815 32.1775 4.63844C32.1776 4.63863 32.1783 4.63952 32.1794 4.64087C32.1805 4.64214 32.1827 4.64459 32.186 4.64754C32.1881 4.64938 32.2106 4.67059 32.2482 4.67059V4.47059ZM31.5182 6.26676C31.6709 5.78949 31.8206 5.35638 31.937 5.0421C31.9952 4.88515 32.0454 4.75681 32.0839 4.66709C32.103 4.62258 32.12 4.58559 32.1342 4.55886C32.141 4.54594 32.1489 4.53225 32.1573 4.52061C32.1614 4.51507 32.1681 4.50642 32.1774 4.49815C32.1828 4.49332 32.2083 4.47059 32.2482 4.47059V4.67059C32.2858 4.67059 32.3083 4.64938 32.3104 4.64754C32.3137 4.64459 32.3159 4.64214 32.317 4.64087C32.3182 4.63952 32.3188 4.63863 32.319 4.63844C32.3192 4.63815 32.3185 4.63908 32.3169 4.64179C32.3153 4.64438 32.3133 4.64793 32.3108 4.65261C32.3006 4.67194 32.2861 4.7029 32.2677 4.74587C32.2312 4.83112 32.1823 4.9559 32.1246 5.11159C32.0093 5.42259 31.8606 5.8528 31.7087 6.32772L31.5182 6.26676ZM30.6766 8.18567C30.7624 8.12009 30.8714 7.96103 31.0127 7.64503C31.1518 7.33412 31.3155 6.88742 31.5184 6.2662L31.7085 6.32828C31.505 6.95127 31.3387 7.40598 31.1953 7.72669C31.0541 8.04231 30.9282 8.24509 30.7981 8.34455L30.6766 8.18567ZM28.4775 8.40633C29.3428 8.40633 29.8351 8.39986 30.1445 8.36721C30.2982 8.35099 30.4015 8.32875 30.4803 8.29994C30.5573 8.27177 30.6144 8.23598 30.6745 8.18739L30.8003 8.34283C30.727 8.40216 30.6509 8.45048 30.549 8.48777C30.4488 8.52442 30.3275 8.549 30.1655 8.56611C29.8432 8.60011 29.3389 8.60633 28.4775 8.60633V8.40633ZM26.5096 8.40633H28.4775V8.60633H26.5096V8.40633ZM27.9619 9.67923L26.4511 8.58738L26.5682 8.42528L28.079 9.51713L27.9619 9.67923ZM29.6047 10.9546C29.5904 10.9362 29.5364 10.8856 29.4381 10.8032C29.3437 10.7241 29.217 10.6225 29.0667 10.5055C28.7663 10.2715 28.3737 9.97699 27.9619 9.67922L28.0791 9.51715C28.4925 9.81608 28.887 10.112 29.1896 10.3477C29.3409 10.4655 29.4697 10.5687 29.5666 10.6499C29.6595 10.7278 29.7324 10.793 29.7626 10.8318L29.6047 10.9546ZM29.1819 13.466C29.4744 12.5312 29.6338 11.9673 29.6911 11.5983C29.7197 11.4147 29.7218 11.286 29.7054 11.1877C29.6895 11.0921 29.6554 11.0213 29.604 10.9537L29.7632 10.8327C29.8325 10.9237 29.8809 11.0243 29.9027 11.1548C29.924 11.2827 29.9189 11.4349 29.8888 11.629C29.8287 12.0155 29.6643 12.5942 29.3728 13.5257L29.1819 13.466ZM28.6235 15.2175L29.1821 13.4655L29.3726 13.5262L28.814 15.2782L28.6235 15.2175ZM29.426 14.8456L28.7785 15.3281L28.659 15.1677L29.3065 14.6852L29.426 14.8456ZM30.2811 14.2362C29.9507 14.4741 29.6321 14.7035 29.423 14.8477L29.3095 14.6831C29.5165 14.5403 29.833 14.3124 30.1642 14.0739L30.2811 14.2362ZM31.0237 13.7044C30.7977 13.8642 30.5357 14.0529 30.2811 14.2362L30.1642 14.0739C30.4187 13.8907 30.6814 13.7015 30.9082 13.5411L31.0237 13.7044ZM32.2482 13.0499C32.1602 13.0499 32.0045 13.0995 31.7866 13.2131C31.5736 13.3243 31.3146 13.4894 31.0254 13.7032L30.9065 13.5424C31.2012 13.3245 31.4692 13.1532 31.6941 13.0358C31.9143 12.9209 32.1077 12.8499 32.2482 12.8499V13.0499ZM33.4711 13.7032C33.1818 13.4894 32.9229 13.3243 32.7098 13.2131C32.4919 13.0995 32.3362 13.0499 32.2482 13.0499V12.8499C32.3887 12.8499 32.5821 12.9209 32.8023 13.0358C33.0272 13.1532 33.2952 13.3245 33.5899 13.5424L33.4711 13.7032ZM34.215 14.236C33.9605 14.0528 33.6986 13.8642 33.4727 13.7044L33.5882 13.5411C33.8149 13.7015 34.0775 13.8906 34.3319 14.0737L34.215 14.236ZM34.2157 14.2365L34.2153 14.2363L34.3316 14.0735L34.3319 14.0737L34.2157 14.2365ZM35.0734 14.8477C34.8643 14.7035 34.5457 14.4742 34.2154 14.2363L34.3322 14.074C34.6634 14.3124 34.9799 14.5403 35.187 14.6831L35.0734 14.8477ZM35.7179 15.3281L35.0704 14.8456L35.1899 14.6852L35.8374 15.1677L35.7179 15.3281ZM35.3143 13.4655L35.873 15.2175L35.6824 15.2782L35.1238 13.5262L35.3143 13.4655ZM34.9021 10.9575C34.8454 11.0249 34.8085 11.0958 34.7907 11.1914C34.7724 11.2898 34.7736 11.4189 34.8021 11.6031C34.8594 11.9734 35.0218 12.537 35.3144 13.4658L35.1237 13.5259C34.8323 12.601 34.6646 12.022 34.6045 11.6337C34.5743 11.4387 34.5699 11.2845 34.5941 11.1548C34.6187 11.0222 34.6722 10.9201 34.7489 10.8288L34.9021 10.9575ZM36.5467 9.67964C36.1286 9.97731 35.7331 10.2716 35.4329 10.5055C35.2827 10.6225 35.157 10.7238 35.0645 10.8026C35.0182 10.8421 34.981 10.8753 34.9535 10.9015C34.9397 10.9147 34.929 10.9255 34.921 10.9342C34.917 10.9385 34.914 10.9419 34.9118 10.9446C34.9108 10.9459 34.91 10.9469 34.9094 10.9476C34.9089 10.9484 34.9086 10.9487 34.9087 10.9486L34.7423 10.8377C34.7586 10.8132 34.7862 10.7847 34.8154 10.7569C34.8467 10.727 34.887 10.6911 34.9348 10.6504C35.0304 10.5689 35.1586 10.4656 35.31 10.3477C35.6128 10.1118 36.0107 9.81576 36.4306 9.51673L36.5467 9.67964ZM38.0457 8.58715L36.5475 9.679L36.4297 9.51737L37.9279 8.42552L38.0457 8.58715ZM36.0316 8.40633H37.9868V8.60633H36.0316V8.40633ZM33.8219 8.18739C33.882 8.23597 33.9391 8.27174 34.0163 8.29992C34.0952 8.32874 34.1989 8.35098 34.3535 8.3672C34.6645 8.39986 35.16 8.40633 36.0316 8.40633V8.60633C35.1639 8.60633 34.6564 8.60011 34.3326 8.56611C34.1697 8.54901 34.0481 8.52444 33.9477 8.48779C33.8456 8.4505 33.7694 8.40217 33.6961 8.34283L33.8219 8.18739ZM54.2954 9.75821C54.772 9.0528 55.2265 8.40438 55.5717 7.92883C55.7441 7.69116 55.8897 7.49607 55.9973 7.35843C56.051 7.28977 56.096 7.23439 56.1305 7.19488C56.1477 7.17527 56.1634 7.15822 56.1771 7.14502C56.1838 7.13848 56.1914 7.13163 56.1992 7.12554C56.205 7.12104 56.2192 7.11034 56.2383 7.10396L56.3016 7.2937C56.31 7.29088 56.3157 7.28756 56.3178 7.28627C56.3203 7.28474 56.3217 7.28365 56.3218 7.28359C56.3218 7.28354 56.3201 7.28495 56.3161 7.28879C56.3083 7.29636 56.2967 7.30866 56.2811 7.32652C56.2501 7.36194 56.2078 7.41398 56.1549 7.4816C56.0494 7.61654 55.9054 7.80946 55.7335 8.0463C55.3899 8.51978 54.9367 9.16634 54.4611 9.87018L54.2954 9.75821ZM53.9711 10.2382L54.2954 9.75822L54.4611 9.87017L54.1368 10.3502L53.9711 10.2382ZM52.492 12.4096C52.4891 12.4125 52.4901 12.4119 52.4983 12.4011C52.5049 12.3924 52.5139 12.3801 52.5254 12.3641C52.5483 12.3322 52.5798 12.2874 52.6192 12.2306C52.6978 12.1171 52.8071 11.9574 52.9403 11.7616C53.2066 11.37 53.5681 10.8348 53.9711 10.2382L54.1369 10.3501C53.7339 10.9467 53.3722 11.4821 53.1057 11.8741C52.9724 12.07 52.8627 12.2303 52.7835 12.3446C52.7439 12.4016 52.7117 12.4476 52.6878 12.4808C52.6759 12.4974 52.6658 12.5112 52.6577 12.5219C52.6512 12.5305 52.6419 12.5425 52.6334 12.551L52.492 12.4096ZM49.4173 11.572C50.2669 11.8256 51.0464 12.041 51.6193 12.1866C51.9059 12.2595 52.1398 12.3146 52.3046 12.3482C52.3873 12.3651 52.4507 12.3762 52.4939 12.3816C52.5159 12.3843 52.5297 12.3852 52.5369 12.3852C52.5408 12.3851 52.5396 12.3849 52.5354 12.3857C52.5332 12.3861 52.5281 12.3872 52.5215 12.3898C52.5154 12.3924 52.5036 12.398 52.492 12.4096L52.6334 12.551C52.6095 12.575 52.5809 12.5806 52.5726 12.5822C52.5599 12.5846 52.5476 12.5851 52.5378 12.5852C52.5179 12.5852 52.4943 12.5832 52.4692 12.5801C52.4183 12.5737 52.3489 12.5614 52.2646 12.5442C52.0953 12.5096 51.8579 12.4536 51.57 12.3805C50.9939 12.2341 50.2118 12.0178 49.3601 11.7636L49.4173 11.572ZM45.9259 10.8435C46.0118 10.797 46.0987 10.7634 46.2275 10.7574C46.3511 10.7516 46.5097 10.7713 46.7405 10.821C47.2022 10.9204 47.9844 11.1472 49.4172 11.5719L49.3603 11.7637C47.9238 11.3378 47.1507 11.1139 46.6984 11.0165C46.4721 10.9678 46.3339 10.9526 46.2369 10.9571C46.1451 10.9614 46.0876 10.9834 46.0212 11.0194L45.9259 10.8435ZM45.2947 12.093C45.225 11.8841 45.286 11.6285 45.4026 11.407C45.5208 11.1824 45.7075 10.9703 45.9233 10.845L46.0237 11.0179C45.846 11.1211 45.6835 11.3026 45.5796 11.5001C45.474 11.7007 45.4398 11.8959 45.4844 12.0297L45.2947 12.093ZM47.2783 14.8141C46.7573 14.1406 46.2743 13.4987 45.9166 13.0091C45.7378 12.7643 45.5899 12.5571 45.4842 12.4028C45.4314 12.3257 45.3885 12.2611 45.3574 12.2112C45.3419 12.1863 45.3288 12.1642 45.3187 12.1456C45.3096 12.129 45.2994 12.1089 45.2937 12.0901L45.4853 12.0326C45.4844 12.0297 45.4856 12.034 45.4942 12.0498C45.5018 12.0637 45.5127 12.0822 45.5272 12.1054C45.5561 12.1517 45.597 12.2136 45.6492 12.2897C45.7533 12.4417 45.8998 12.6471 46.0781 12.8911C46.4345 13.379 46.9164 14.0194 47.4365 14.6917L47.2783 14.8141ZM49.1161 17.2986C49.1087 17.3209 49.1126 17.3381 49.1127 17.3386C49.1133 17.342 49.1138 17.3425 49.1124 17.3388C49.1097 17.3318 49.104 17.3192 49.0937 17.2999C49.0734 17.262 49.0408 17.208 48.9962 17.1388C48.9073 17.0008 48.7747 16.8087 48.6076 16.5759C48.2738 16.1108 47.8049 15.4866 47.2787 14.8146L47.4361 14.6913C47.9636 15.365 48.4343 15.9914 48.7701 16.4593C48.9379 16.6931 49.0727 16.8883 49.1643 17.0304C49.2099 17.1012 49.2459 17.1605 49.27 17.2056C49.2819 17.2279 49.2923 17.2492 49.2995 17.2681C49.303 17.2774 49.3068 17.2889 49.3091 17.3012C49.3109 17.3106 49.3149 17.3347 49.3059 17.3618L49.1161 17.2986ZM47.3512 19.9269C47.827 19.2354 48.2648 18.5883 48.5867 18.1062C48.7476 17.8652 48.8795 17.6656 48.9726 17.5224C49.0192 17.4508 49.0559 17.3936 49.0816 17.3526C49.0945 17.332 49.1044 17.3159 49.1112 17.3043C49.1198 17.2898 49.12 17.2884 49.1181 17.293L49.3038 17.3673C49.2988 17.3799 49.2898 17.3954 49.2834 17.4061C49.2753 17.4199 49.2644 17.4376 49.2511 17.4587C49.2245 17.5012 49.1871 17.5595 49.1403 17.6315C49.0465 17.7756 48.9142 17.9759 48.753 18.2173C48.4306 18.7001 47.9923 19.348 47.5159 20.0403L47.3512 19.9269ZM45.8153 23.5068C45.7162 23.3647 45.642 23.2252 45.6271 23.0523C45.6124 22.8811 45.6568 22.6909 45.7647 22.4474C45.9788 21.9641 46.4646 21.2251 47.351 19.9272L47.5161 20.04C46.625 21.3448 46.1524 22.0659 45.9475 22.5284C45.8459 22.7578 45.8158 22.912 45.8264 23.0351C45.8369 23.1567 45.8881 23.2616 45.9794 23.3924L45.8153 23.5068ZM49.689 22.9598C48.1823 23.4979 47.3272 23.7847 46.8013 23.8658C46.5366 23.9067 46.3408 23.8981 46.1823 23.8329C46.0219 23.767 45.9147 23.6492 45.8153 23.5068L45.9794 23.3924C46.0705 23.523 46.1505 23.6036 46.2583 23.6479C46.368 23.693 46.5214 23.7067 46.7708 23.6682C47.2733 23.5906 48.1068 23.3125 49.6217 22.7714L49.689 22.9598ZM52.6705 21.9067C52.5956 21.9317 51.2509 22.4011 49.689 22.9598L49.6217 22.7714C51.183 22.2129 52.5299 21.7428 52.6073 21.717L52.6705 21.9067ZM54.5019 24.1832C54.0075 23.5366 53.5419 22.9539 53.1908 22.5364C53.0151 22.3274 52.869 22.161 52.7627 22.0489C52.7093 21.9925 52.6677 21.9517 52.6384 21.9265C52.6233 21.9136 52.6145 21.9073 52.6107 21.905C52.6087 21.9038 52.6114 21.9057 52.6177 21.9077C52.6218 21.9091 52.6432 21.9158 52.6705 21.9067L52.6073 21.717C52.6393 21.7063 52.6671 21.7135 52.679 21.7174C52.6932 21.7219 52.7053 21.7284 52.7141 21.7338C52.732 21.7446 52.7507 21.7593 52.7689 21.7749C52.8059 21.8068 52.853 21.8534 52.9079 21.9113C53.0182 22.0277 53.1673 22.1976 53.3439 22.4077C53.6974 22.8281 54.165 23.4134 54.6608 24.0618L54.5019 24.1832ZM56.5908 26.7671C56.5636 26.7467 56.5268 26.7097 56.4855 26.6652C56.4423 26.6188 56.3888 26.5581 56.3265 26.4853C56.2018 26.3396 56.04 26.1431 55.8524 25.9103C55.4772 25.4445 54.9974 24.8312 54.5019 24.1832L54.6608 24.0618C55.1556 24.7088 55.6343 25.3207 56.0082 25.7848C56.1952 26.017 56.3556 26.2117 56.4784 26.3552C56.5399 26.4271 56.5915 26.4855 56.632 26.5291C56.6744 26.5748 56.6999 26.5989 56.7108 26.6071L56.5908 26.7671ZM58.0419 26.6689C57.6287 27.0821 56.9971 27.1319 56.584 26.7615L56.7176 26.6126C57.0409 26.9025 57.5519 26.8761 57.9005 26.5275L58.0419 26.6689ZM58.3593 26.3515L58.0419 26.6689L57.9005 26.5275L58.2179 26.2101L58.3593 26.3515ZM58.2997 23.066L58.3885 26.278L58.1886 26.2836L58.0997 23.0715L58.2997 23.066ZM58.3883 19.8483C58.363 19.8581 58.3498 19.8654 58.3402 19.8733C58.3319 19.8802 58.3218 19.8916 58.3111 19.9162C58.2872 19.9716 58.2671 20.0772 58.2567 20.2931C58.2363 20.7199 58.2552 21.521 58.2997 23.0659L58.0997 23.0716C58.0554 21.5313 58.0361 20.7201 58.057 20.2836C58.0673 20.0678 58.0877 19.929 58.1276 19.8368C58.1488 19.7877 58.1765 19.7494 58.2123 19.7196C58.2468 19.6909 58.284 19.6743 58.3158 19.6619L58.3883 19.8483ZM60.7068 19.0172C59.4933 19.4497 58.4965 19.805 58.3892 19.8479L58.3149 19.6623C58.4269 19.6174 59.4303 19.2598 60.6396 18.8288L60.7068 19.0172ZM61.293 18.8082L60.7068 19.0172L60.6396 18.8288L61.2258 18.6198L61.293 18.8082ZM64.5969 16.8477C64.5969 17.0174 64.5644 17.172 64.4628 17.3207C64.3634 17.4663 64.2035 17.5976 63.9659 17.7343C63.4929 18.0064 62.6738 18.3205 61.2927 18.8083L61.2261 18.6197C62.6128 18.13 63.4124 17.822 63.8662 17.5609C64.092 17.4309 64.2226 17.3178 64.2977 17.2079C64.3706 17.1011 64.3969 16.9891 64.3969 16.8477H64.5969ZM63.1556 15.6097C63.6651 15.7689 64.0242 15.9259 64.2561 16.1186C64.4958 16.3177 64.5969 16.5527 64.5969 16.8477H64.3969C64.3969 16.6095 64.3202 16.4319 64.1283 16.2724C63.9285 16.1064 63.602 15.9587 63.0959 15.8005L63.1556 15.6097ZM60.0681 14.6948C61.2225 15.0247 62.6216 15.4316 63.1573 15.6102L63.0941 15.8C62.5634 15.6231 61.1694 15.2175 60.0131 14.8871L60.0681 14.6948ZM57.9609 14.0855L60.0684 14.6949L60.0128 14.8871L57.9053 14.2777L57.9609 14.0855ZM57.9442 11.0048L58.0331 14.1788L57.8331 14.1844L57.7443 11.0104L57.9442 11.0048ZM57.6874 7.55141C57.7001 7.57138 57.7087 7.59473 57.7151 7.61525C57.722 7.63724 57.7283 7.66293 57.7342 7.6914C57.746 7.74839 57.7574 7.82196 57.7685 7.91004C57.7906 8.0865 57.8122 8.32744 57.8329 8.62333C57.8743 9.21545 57.9124 10.0325 57.9442 11.0043L57.7443 11.0109C57.7126 10.0402 57.6745 9.22587 57.6334 8.63727C57.6128 8.34279 57.5915 8.10606 57.57 7.93496C57.5593 7.84926 57.5487 7.7816 57.5384 7.73206C57.5332 7.70726 57.5284 7.68837 57.5242 7.67472C57.5195 7.65961 57.517 7.65629 57.5186 7.65879L57.6874 7.55141ZM56.2328 7.10598C56.4805 7.0069 56.7774 7.0124 57.0415 7.09197C57.3052 7.17143 57.5513 7.32939 57.6883 7.55285L57.5177 7.65736C57.4135 7.48724 57.2152 7.35319 56.9838 7.28347C56.7528 7.21387 56.5037 7.21302 56.3071 7.29168L56.2328 7.10598ZM58.171 16.4738C57.6616 16.321 57.1926 16.1647 56.8311 16.0271C56.6504 15.9583 56.4953 15.8938 56.3748 15.8362C56.2588 15.7808 56.1621 15.726 56.1103 15.6742L56.2518 15.5328C56.2762 15.5572 56.3429 15.5993 56.461 15.6557C56.5746 15.71 56.7242 15.7724 56.9022 15.8402C57.2579 15.9755 57.7221 16.1303 58.2284 16.2822L58.171 16.4738ZM59.9445 17.0073C59.9512 17.014 59.9571 17.0179 59.9589 17.019C59.9613 17.0206 59.963 17.0215 59.9635 17.0218C59.9644 17.0223 59.9639 17.022 59.9613 17.0208C59.9562 17.0186 59.9476 17.0152 59.935 17.0104C59.9101 17.0011 59.8738 16.9885 59.8266 16.9727C59.7326 16.9413 59.5989 16.8987 59.435 16.8481C59.1073 16.7467 58.6604 16.6136 58.1722 16.4741L58.2272 16.2818C58.7166 16.4217 59.1648 16.5552 59.4941 16.657C59.6586 16.7079 59.7939 16.751 59.89 16.783C59.9379 16.799 59.9768 16.8126 60.005 16.8231C60.019 16.8283 60.0314 16.8332 60.0415 16.8376C60.0465 16.8398 60.0521 16.8424 60.0576 16.8453C60.0601 16.8466 60.0736 16.8536 60.0859 16.8659L59.9445 17.0073ZM58.852 17.2994C59.175 17.1854 59.4623 17.078 59.6652 16.9962C59.767 16.9552 59.8458 16.9213 59.8969 16.8966C59.9232 16.8839 59.9384 16.8753 59.9453 16.8708C59.9501 16.8676 59.9446 16.8704 59.9374 16.8789C59.9343 16.8825 59.9229 16.8965 59.9181 16.9192C59.9119 16.9492 59.9202 16.983 59.9445 17.0073L60.0859 16.8659C60.1118 16.8918 60.1207 16.9275 60.114 16.9598C60.1088 16.9848 60.0958 17.0013 60.0902 17.008C60.0781 17.0223 60.0637 17.0323 60.0558 17.0375C60.0372 17.0499 60.0118 17.0632 59.984 17.0766C59.9267 17.1043 59.8429 17.1402 59.74 17.1817C59.5334 17.265 59.2431 17.3734 58.9186 17.488L58.852 17.2994ZM56.105 18.5918C56.1507 18.5036 56.1961 18.424 56.2807 18.3465C56.3633 18.2709 56.4778 18.2018 56.6549 18.1202C57.0077 17.9574 57.642 17.7301 58.8517 17.2995L58.9188 17.4879C57.7036 17.9205 57.081 18.1439 56.7387 18.3018C56.5683 18.3804 56.4757 18.4391 56.4158 18.494C56.358 18.547 56.3256 18.6008 56.2825 18.6839L56.105 18.5918ZM55.9922 20.8886C55.9668 20.1711 55.9603 19.6692 55.9764 19.3142C55.9923 18.9624 56.0306 18.7405 56.1043 18.5931L56.2832 18.6826C56.2299 18.7891 56.192 18.9735 56.1762 19.3232C56.1605 19.6696 56.1667 20.1644 56.1921 20.8815L55.9922 20.8886ZM56.043 22.7921L55.9922 20.8877L56.1922 20.8824L56.2429 22.7868L56.043 22.7921ZM55.6383 21.9668L56.2223 22.7286L56.0636 22.8503L55.4796 22.0885L55.6383 21.9668ZM53.1594 19.452C53.2794 19.452 53.3909 19.465 53.5167 19.528C53.6386 19.5891 53.7673 19.6939 53.9312 19.8633C54.2581 20.2015 54.7509 20.8259 55.6379 21.9663L55.48 22.0891C54.5896 20.9442 54.1048 20.3307 53.7874 20.0023C53.6291 19.8386 53.519 19.7529 53.4271 19.7068C53.339 19.6627 53.2616 19.652 53.1594 19.652V19.452ZM51.0687 20.08C51.5273 19.9144 51.9892 19.7615 52.364 19.6483C52.5513 19.5917 52.7176 19.5448 52.8511 19.5111C52.9818 19.4782 53.0889 19.4559 53.1536 19.4521L53.1653 19.6518C53.1221 19.6543 53.0324 19.6717 52.9 19.7051C52.7705 19.7377 52.6074 19.7836 52.4218 19.8397C52.0507 19.9518 51.5922 20.1036 51.1366 20.2681L51.0687 20.08ZM49.4588 20.6686C49.4425 20.6605 49.4283 20.6592 49.4242 20.6588C49.4183 20.6583 49.414 20.6586 49.4122 20.6587C49.4087 20.6589 49.4072 20.6593 49.4091 20.6589C49.4124 20.6583 49.4194 20.6567 49.4311 20.6536C49.4538 20.6475 49.4875 20.6374 49.5316 20.6233C49.6194 20.5953 49.7442 20.5532 49.8971 20.5001C50.2027 20.3941 50.6179 20.2451 51.0683 20.0802L51.1371 20.268C50.6861 20.4331 50.2697 20.5825 49.9627 20.6891C49.8093 20.7423 49.6826 20.7851 49.5923 20.8139C49.5473 20.8282 49.5102 20.8394 49.4829 20.8467C49.4696 20.8503 49.4567 20.8535 49.4456 20.8556C49.4403 20.8565 49.433 20.8577 49.4251 20.8583C49.4211 20.8585 49.4149 20.8587 49.4076 20.8581C49.4019 20.8577 49.3865 20.8561 49.3694 20.8475L49.4588 20.6686ZM50.5502 19.2153C50.252 19.6466 49.9826 20.0428 49.7911 20.3324C49.6953 20.4773 49.6195 20.5948 49.5694 20.6765C49.5442 20.7176 49.5265 20.748 49.5162 20.7676C49.5107 20.7781 49.509 20.7822 49.5091 20.782C49.5092 20.7817 49.5097 20.7803 49.5103 20.778C49.5109 20.7761 49.512 20.7715 49.5127 20.7653C49.5132 20.7602 49.5143 20.7468 49.5097 20.7303C49.5045 20.7117 49.4905 20.6844 49.4588 20.6686L49.3694 20.8475C49.337 20.8313 49.3224 20.8034 49.3169 20.7836C49.3121 20.766 49.313 20.7512 49.3138 20.7443C49.3153 20.73 49.3194 20.7183 49.3214 20.713C49.326 20.7004 49.3327 20.6868 49.3391 20.6746C49.3526 20.6489 49.3732 20.6139 49.3989 20.5719C49.4508 20.4873 49.5281 20.3675 49.6243 20.2221C49.8169 19.9308 50.0871 19.5335 50.3856 19.1015L50.5502 19.2153ZM51.647 17.2032C51.647 17.3715 51.558 17.5983 51.3854 17.9102C51.21 18.2273 50.9379 18.6495 50.5504 19.2149L50.3854 19.1019C50.7723 18.5373 51.0398 18.1216 51.2104 17.8134C51.3838 17.5 51.447 17.3143 51.447 17.2032H51.647ZM50.4326 15.2374C50.8768 15.8087 51.178 16.2152 51.3682 16.5166C51.5559 16.8141 51.647 17.026 51.647 17.2032H51.447C51.447 17.0884 51.3859 16.9194 51.199 16.6234C51.0147 16.3312 50.7191 15.9316 50.2747 15.3602L50.4326 15.2374ZM49.2563 13.8206C49.2909 13.7861 49.2852 13.744 49.2848 13.7397C49.2835 13.7286 49.2806 13.7207 49.2798 13.7186C49.2779 13.7133 49.2762 13.7106 49.2772 13.7124C49.2785 13.7148 49.282 13.7207 49.2888 13.7311C49.302 13.7513 49.3229 13.7815 49.3513 13.8214C49.4079 13.9007 49.4919 14.0147 49.5972 14.1548C49.8078 14.435 50.1025 14.8185 50.4322 15.2369L50.2751 15.3607C49.9446 14.9412 49.6489 14.5566 49.4373 14.275C49.3316 14.1343 49.2465 14.0189 49.1885 13.9376C49.1596 13.8971 49.1368 13.8641 49.1213 13.8404C49.1138 13.8288 49.1068 13.8176 49.1016 13.808C49.0992 13.8038 49.0953 13.7963 49.0921 13.7877C49.0907 13.7839 49.0874 13.7745 49.086 13.7623C49.0854 13.757 49.0799 13.7142 49.1149 13.6792L49.2563 13.8206ZM50.8322 14.3153C50.3759 14.1759 49.961 14.0555 49.6588 13.9717C49.5076 13.9297 49.3851 13.897 49.3 13.8757C49.2572 13.865 49.2249 13.8574 49.2034 13.8529C49.1923 13.8506 49.186 13.8495 49.1832 13.8492C49.1814 13.8489 49.1836 13.8493 49.1878 13.8494C49.1897 13.8494 49.1956 13.8494 49.2033 13.8481C49.206 13.8477 49.233 13.844 49.2563 13.8206L49.1149 13.6792C49.1386 13.6555 49.1664 13.6515 49.1701 13.6509C49.179 13.6494 49.1864 13.6493 49.1901 13.6494C49.1979 13.6495 49.2051 13.6503 49.2098 13.6509C49.2198 13.6523 49.2317 13.6545 49.2441 13.6571C49.2696 13.6624 49.305 13.6708 49.3486 13.6817C49.436 13.7036 49.5603 13.7368 49.7122 13.7789C50.0163 13.8633 50.4329 13.9842 50.8907 14.124L50.8322 14.3153ZM53.4231 14.745C53.1972 14.8297 52.9521 14.8436 52.5648 14.7769C52.18 14.7106 51.6442 14.5627 50.8323 14.3153L50.8906 14.124C51.7038 14.3718 52.2281 14.5159 52.5987 14.5798C52.9668 14.6432 53.1725 14.6253 53.3528 14.5577L53.4231 14.745ZM54.7781 13.0193C54.4723 13.4653 54.1696 13.8764 53.9302 14.1828C53.8105 14.336 53.7061 14.4637 53.6247 14.5569C53.5841 14.6033 53.5484 14.6422 53.5188 14.6716C53.493 14.6972 53.4619 14.7262 53.4327 14.7408L53.3432 14.5619C53.3394 14.5638 53.3491 14.5583 53.3778 14.5298C53.4027 14.505 53.435 14.47 53.4741 14.4252C53.5522 14.3359 53.6541 14.2113 53.7725 14.0597C54.0092 13.7568 54.3095 13.349 54.6132 12.9062L54.7781 13.0193ZM55.8825 11.4199L54.7779 13.0196L54.6133 12.906L55.7179 11.3063L55.8825 11.4199ZM55.7637 13.3595L55.7002 11.3663L55.9001 11.3599L55.9636 13.3532L55.7637 13.3595ZM56.1124 15.6762C56.0478 15.6153 55.9938 15.5485 55.9508 15.452C55.909 15.358 55.8795 15.2402 55.8567 15.0796C55.8113 14.7602 55.789 14.2459 55.7637 13.3592L55.9636 13.3535C55.9891 14.2442 56.0112 14.7457 56.0547 15.0515C56.0763 15.2036 56.1024 15.3008 56.1335 15.3706C56.1636 15.438 56.2 15.4839 56.2497 15.5308L56.1124 15.6762Z" fill="white" mask="url(#path-1-inside-1_310_13292)"/>
<circle cx="32.3008" cy="41.5" r="5.5" fill="#A4B8C1"/>
</svg>
