<svg width="72" height="58" viewBox="0 0 72 58" fill="none" xmlns="http://www.w3.org/2000/svg">
<rect x="2.99219" y="14.0029" width="65.8272" height="5.98429" fill="#A4B8C1"/>
<path d="M33.512 28.1262L28.7246 40.0948L34.7089 41.8901V49.6697L43.0869 35.9058H38.2995L40.6932 28.1262H33.512Z" fill="#A4B8C1"/>
<mask id="path-3-inside-1_310_13314" fill="white">
<path fill-rule="evenodd" clip-rule="evenodd" d="M56.993 5.57034V2.76923H53.2823V5.57034H56.993ZM50.5157 7.04103C50.5139 7.0125 50.513 6.98384 50.513 6.95509V1.38462C50.513 1.01739 50.6589 0.665209 50.9186 0.405543C51.1783 0.145878 51.5304 0 51.8977 0H58.3777C58.7449 0 59.0971 0.145878 59.3567 0.405543C59.6164 0.665209 59.7623 1.01739 59.7623 1.38462V6.95509C59.7623 6.98241 59.7615 7.00965 59.7599 7.03677L61.6429 10.8028H70.6154C70.9826 10.8028 71.3348 10.9487 71.5945 11.2083C71.8541 11.468 72 11.8202 72 12.1874V21.6201C72 21.9873 71.8541 22.3395 71.5945 22.5991C71.3348 22.8588 70.9826 23.0047 70.6154 23.0047H66.7715V56.0644C66.7715 56.4316 66.6256 56.7838 66.3659 57.0435C66.1062 57.3032 65.7541 57.449 65.3868 57.449H6.6151C6.24788 57.449 5.8957 57.3032 5.63603 57.0435C5.37637 56.7838 5.23049 56.4316 5.23049 56.0644V23.0047H1.38462C1.01739 23.0047 0.66521 22.8588 0.405545 22.5991C0.145879 22.3395 0 21.9873 0 21.6201V12.1874C0 11.8202 0.145879 11.468 0.405545 11.2083C0.66521 10.9487 1.01739 10.8028 1.38462 10.8028H10.3566L12.2366 7.04277C12.2347 7.01367 12.2338 6.98443 12.2338 6.95509V1.38462C12.2338 1.01739 12.3797 0.665209 12.6394 0.405543C12.899 0.145878 13.2512 0 13.6184 0H20.0984C20.4657 0 20.8178 0.145878 21.0775 0.405543C21.3372 0.665209 21.483 1.01739 21.483 1.38462V6.95509C21.483 6.98182 21.4823 7.00847 21.4807 7.03501L23.3652 10.8028H48.6342L50.5157 7.04103ZM15.003 2.76923V5.57034H18.7138V2.76923H15.003ZM13.4535 10.7999L14.684 8.33971H19.0371L20.2676 10.7999H13.4535ZM52.9624 8.33971L51.7319 10.7999H58.5459L57.3154 8.33971H52.9624ZM2.76923 20.2355H69.2308V13.572H2.76923V20.2355ZM64.0022 54.6798H7.99972V23.0067H64.0022V54.6798ZM54.0586 43.8567C54.3183 44.1164 54.6705 44.2623 55.0377 44.2623C55.4049 44.2623 55.7571 44.1164 56.0168 43.8567C56.2764 43.5971 56.4223 43.2449 56.4223 42.8777V40.2263H59.0723C59.4395 40.2263 59.7917 40.0805 60.0514 39.8208C60.3111 39.5611 60.4569 39.209 60.4569 38.8417C60.4569 38.4745 60.3111 38.1223 60.0514 37.8627C59.7917 37.603 59.4395 37.4571 59.0723 37.4571H56.4223V34.8062C56.4223 34.439 56.2764 34.0868 56.0168 33.8272C55.7571 33.5675 55.4049 33.4216 55.0377 33.4216C54.6705 33.4216 54.3183 33.5675 54.0586 33.8272C53.7989 34.0868 53.6531 34.439 53.6531 34.8062V37.4571H51.0017C50.6345 37.4571 50.2823 37.603 50.0227 37.8627C49.763 38.1223 49.6171 38.4745 49.6171 38.8417C49.6171 39.209 49.763 39.5611 50.0227 39.8208C50.2823 40.0805 50.6345 40.2263 51.0017 40.2263H53.6531V42.8777C53.6531 43.2449 53.7989 43.5971 54.0586 43.8567ZM20.9985 40.2263H12.9279C12.5607 40.2263 12.2085 40.0805 11.9489 39.8208C11.6892 39.5611 11.5433 39.209 11.5433 38.8417C11.5433 38.4745 11.6892 38.1223 11.9489 37.8627C12.2085 37.603 12.5607 37.4571 12.9279 37.4571H20.9985C21.3657 37.4571 21.7179 37.603 21.9776 37.8627C22.2373 38.1223 22.3831 38.4745 22.3831 38.8417C22.3831 39.209 22.2373 39.5611 21.9776 39.8208C21.7179 40.0805 21.3657 40.2263 20.9985 40.2263ZM34.6398 50.7916C34.7586 50.8239 34.8811 50.8402 35.0041 50.8401C35.2062 50.84 35.4058 50.7958 35.5889 50.7104C35.772 50.6251 35.9343 50.5007 36.0642 50.3459C39.2064 46.6057 44.3936 37.4422 44.6125 37.0536C44.7315 36.843 44.7932 36.6048 44.7915 36.3629C44.7898 36.1209 44.7248 35.8837 44.6028 35.6747C44.4809 35.4657 44.3063 35.2924 44.0965 35.1719C43.8867 35.0514 43.649 34.988 43.407 34.988H40.1333L42.2102 28.8169C42.2796 28.6107 42.2994 28.391 42.268 28.1757C42.2367 27.9604 42.155 27.7555 42.0297 27.5777C41.9043 27.3998 41.7389 27.254 41.5466 27.1521C41.3544 27.0502 41.1409 26.9949 40.9234 26.9909L32.8528 26.8438C32.5604 26.8384 32.2739 26.9256 32.0342 27.093C31.7944 27.2605 31.6139 27.4995 31.5184 27.7758L27.278 40.0479C27.2134 40.2347 27.1895 40.4333 27.2081 40.6302C27.2267 40.827 27.2872 41.0177 27.3856 41.1892C27.4839 41.3607 27.6179 41.5092 27.7785 41.6246C27.9391 41.74 28.1225 41.8197 28.3164 41.8582L32.903 42.7747L32.8087 49.214C32.8042 49.5212 32.902 49.8212 33.0867 50.0667C33.2714 50.3122 33.5325 50.4893 33.8289 50.5701L34.6398 50.7916ZM34.5723 40.2867L30.4185 39.4551L33.8108 29.6312L38.9858 29.7255L36.8985 35.9312C36.8284 36.1394 36.809 36.3613 36.8416 36.5785C36.8743 36.7958 36.9582 37.0021 37.0864 37.1805C37.2146 37.3589 37.3833 37.5042 37.5788 37.6045C37.7742 37.7048 37.9907 37.7571 38.2104 37.7572H41.0047C39.6902 40.0011 37.5111 43.6262 35.6168 46.3375L35.6852 41.6644C35.6899 41.3409 35.5811 41.026 35.3778 40.7744C35.1745 40.5227 34.8895 40.3502 34.5723 40.2867Z"/>
</mask>
<path fill-rule="evenodd" clip-rule="evenodd" d="M56.993 5.57034V2.76923H53.2823V5.57034H56.993ZM50.5157 7.04103C50.5139 7.0125 50.513 6.98384 50.513 6.95509V1.38462C50.513 1.01739 50.6589 0.665209 50.9186 0.405543C51.1783 0.145878 51.5304 0 51.8977 0H58.3777C58.7449 0 59.0971 0.145878 59.3567 0.405543C59.6164 0.665209 59.7623 1.01739 59.7623 1.38462V6.95509C59.7623 6.98241 59.7615 7.00965 59.7599 7.03677L61.6429 10.8028H70.6154C70.9826 10.8028 71.3348 10.9487 71.5945 11.2083C71.8541 11.468 72 11.8202 72 12.1874V21.6201C72 21.9873 71.8541 22.3395 71.5945 22.5991C71.3348 22.8588 70.9826 23.0047 70.6154 23.0047H66.7715V56.0644C66.7715 56.4316 66.6256 56.7838 66.3659 57.0435C66.1062 57.3032 65.7541 57.449 65.3868 57.449H6.6151C6.24788 57.449 5.8957 57.3032 5.63603 57.0435C5.37637 56.7838 5.23049 56.4316 5.23049 56.0644V23.0047H1.38462C1.01739 23.0047 0.66521 22.8588 0.405545 22.5991C0.145879 22.3395 0 21.9873 0 21.6201V12.1874C0 11.8202 0.145879 11.468 0.405545 11.2083C0.66521 10.9487 1.01739 10.8028 1.38462 10.8028H10.3566L12.2366 7.04277C12.2347 7.01367 12.2338 6.98443 12.2338 6.95509V1.38462C12.2338 1.01739 12.3797 0.665209 12.6394 0.405543C12.899 0.145878 13.2512 0 13.6184 0H20.0984C20.4657 0 20.8178 0.145878 21.0775 0.405543C21.3372 0.665209 21.483 1.01739 21.483 1.38462V6.95509C21.483 6.98182 21.4823 7.00847 21.4807 7.03501L23.3652 10.8028H48.6342L50.5157 7.04103ZM15.003 2.76923V5.57034H18.7138V2.76923H15.003ZM13.4535 10.7999L14.684 8.33971H19.0371L20.2676 10.7999H13.4535ZM52.9624 8.33971L51.7319 10.7999H58.5459L57.3154 8.33971H52.9624ZM2.76923 20.2355H69.2308V13.572H2.76923V20.2355ZM64.0022 54.6798H7.99972V23.0067H64.0022V54.6798ZM54.0586 43.8567C54.3183 44.1164 54.6705 44.2623 55.0377 44.2623C55.4049 44.2623 55.7571 44.1164 56.0168 43.8567C56.2764 43.5971 56.4223 43.2449 56.4223 42.8777V40.2263H59.0723C59.4395 40.2263 59.7917 40.0805 60.0514 39.8208C60.3111 39.5611 60.4569 39.209 60.4569 38.8417C60.4569 38.4745 60.3111 38.1223 60.0514 37.8627C59.7917 37.603 59.4395 37.4571 59.0723 37.4571H56.4223V34.8062C56.4223 34.439 56.2764 34.0868 56.0168 33.8272C55.7571 33.5675 55.4049 33.4216 55.0377 33.4216C54.6705 33.4216 54.3183 33.5675 54.0586 33.8272C53.7989 34.0868 53.6531 34.439 53.6531 34.8062V37.4571H51.0017C50.6345 37.4571 50.2823 37.603 50.0227 37.8627C49.763 38.1223 49.6171 38.4745 49.6171 38.8417C49.6171 39.209 49.763 39.5611 50.0227 39.8208C50.2823 40.0805 50.6345 40.2263 51.0017 40.2263H53.6531V42.8777C53.6531 43.2449 53.7989 43.5971 54.0586 43.8567ZM20.9985 40.2263H12.9279C12.5607 40.2263 12.2085 40.0805 11.9489 39.8208C11.6892 39.5611 11.5433 39.209 11.5433 38.8417C11.5433 38.4745 11.6892 38.1223 11.9489 37.8627C12.2085 37.603 12.5607 37.4571 12.9279 37.4571H20.9985C21.3657 37.4571 21.7179 37.603 21.9776 37.8627C22.2373 38.1223 22.3831 38.4745 22.3831 38.8417C22.3831 39.209 22.2373 39.5611 21.9776 39.8208C21.7179 40.0805 21.3657 40.2263 20.9985 40.2263ZM34.6398 50.7916C34.7586 50.8239 34.8811 50.8402 35.0041 50.8401C35.2062 50.84 35.4058 50.7958 35.5889 50.7104C35.772 50.6251 35.9343 50.5007 36.0642 50.3459C39.2064 46.6057 44.3936 37.4422 44.6125 37.0536C44.7315 36.843 44.7932 36.6048 44.7915 36.3629C44.7898 36.1209 44.7248 35.8837 44.6028 35.6747C44.4809 35.4657 44.3063 35.2924 44.0965 35.1719C43.8867 35.0514 43.649 34.988 43.407 34.988H40.1333L42.2102 28.8169C42.2796 28.6107 42.2994 28.391 42.268 28.1757C42.2367 27.9604 42.155 27.7555 42.0297 27.5777C41.9043 27.3998 41.7389 27.254 41.5466 27.1521C41.3544 27.0502 41.1409 26.9949 40.9234 26.9909L32.8528 26.8438C32.5604 26.8384 32.2739 26.9256 32.0342 27.093C31.7944 27.2605 31.6139 27.4995 31.5184 27.7758L27.278 40.0479C27.2134 40.2347 27.1895 40.4333 27.2081 40.6302C27.2267 40.827 27.2872 41.0177 27.3856 41.1892C27.4839 41.3607 27.6179 41.5092 27.7785 41.6246C27.9391 41.74 28.1225 41.8197 28.3164 41.8582L32.903 42.7747L32.8087 49.214C32.8042 49.5212 32.902 49.8212 33.0867 50.0667C33.2714 50.3122 33.5325 50.4893 33.8289 50.5701L34.6398 50.7916ZM34.5723 40.2867L30.4185 39.4551L33.8108 29.6312L38.9858 29.7255L36.8985 35.9312C36.8284 36.1394 36.809 36.3613 36.8416 36.5785C36.8743 36.7958 36.9582 37.0021 37.0864 37.1805C37.2146 37.3589 37.3833 37.5042 37.5788 37.6045C37.7742 37.7048 37.9907 37.7571 38.2104 37.7572H41.0047C39.6902 40.0011 37.5111 43.6262 35.6168 46.3375L35.6852 41.6644C35.6899 41.3409 35.5811 41.026 35.3778 40.7744C35.1745 40.5227 34.8895 40.3502 34.5723 40.2867Z" fill="#1B1B1B"/>
<path d="M56.993 2.76923H57.493V2.26923H56.993V2.76923ZM56.993 5.57034V6.07034H57.493V5.57034H56.993ZM53.2823 2.76923V2.26923H52.7823V2.76923H53.2823ZM53.2823 5.57034H52.7823V6.07034H53.2823V5.57034ZM50.5157 7.04103L50.9629 7.26469L51.0231 7.14432L51.0147 7.01L50.5157 7.04103ZM50.9186 0.405543L50.565 0.0519894V0.0519895L50.9186 0.405543ZM59.3567 0.405543L59.7103 0.051992V0.0519894L59.3567 0.405543ZM59.7599 7.03677L59.2607 7.00728L59.2529 7.14077L59.3127 7.26038L59.7599 7.03677ZM61.6429 10.8028L61.1957 11.0264L61.3339 11.3028H61.6429V10.8028ZM71.5945 22.5991L71.2409 22.2456L71.5945 22.5991ZM66.7715 23.0047V22.5047H66.2715V23.0047H66.7715ZM5.23049 23.0047H5.73049V22.5047H5.23049V23.0047ZM0.405545 22.5991L0.759099 22.2456H0.759097L0.405545 22.5991ZM10.3566 10.8028V11.3028H10.6656L10.8038 11.0264L10.3566 10.8028ZM12.2366 7.04277L12.6838 7.26638L12.7441 7.14574L12.7356 7.01113L12.2366 7.04277ZM12.6394 0.405543L12.9929 0.759097L12.9929 0.759097L12.6394 0.405543ZM21.0775 0.405543L21.4311 0.0519895V0.0519894L21.0775 0.405543ZM21.4807 7.03501L20.9816 7.00617L20.9739 7.13936L21.0336 7.25868L21.4807 7.03501ZM23.3652 10.8028L22.9181 11.0264L23.0563 11.3028H23.3652V10.8028ZM48.6342 10.8028V11.3028H48.9432L49.0814 11.0264L48.6342 10.8028ZM15.003 5.57034H14.503V6.07034H15.003V5.57034ZM15.003 2.76923V2.26923H14.503V2.76923H15.003ZM18.7138 5.57034V6.07034H19.2138V5.57034H18.7138ZM18.7138 2.76923H19.2138V2.26923H18.7138V2.76923ZM14.684 8.33971V7.83971H14.3751L14.2369 8.11604L14.684 8.33971ZM13.4535 10.7999L13.0063 10.5762L12.6444 11.2999H13.4535V10.7999ZM19.0371 8.33971L19.4842 8.11604L19.346 7.83971H19.0371V8.33971ZM20.2676 10.7999V11.2999H21.0767L20.7148 10.5762L20.2676 10.7999ZM51.7319 10.7999L51.2847 10.5762L50.9228 11.2999H51.7319V10.7999ZM52.9624 8.33971V7.83971H52.6534L52.5152 8.11604L52.9624 8.33971ZM58.5459 10.7999V11.2999H59.3551L58.9931 10.5762L58.5459 10.7999ZM57.3154 8.33971L57.7626 8.11604L57.6244 7.83971H57.3154V8.33971ZM69.2308 20.2355V20.7355H69.7308V20.2355H69.2308ZM2.76923 20.2355H2.26923V20.7355H2.76923V20.2355ZM69.2308 13.572H69.7308V13.072H69.2308V13.572ZM2.76923 13.572V13.072H2.26923V13.572H2.76923ZM7.99972 54.6798H7.49972V55.1798H7.99972V54.6798ZM64.0022 54.6798V55.1798H64.5022V54.6798H64.0022ZM7.99972 23.0067V22.5067H7.49972V23.0067H7.99972ZM64.0022 23.0067H64.5022V22.5067H64.0022V23.0067ZM56.0168 43.8567L55.6632 43.5032L55.6632 43.5032L56.0168 43.8567ZM56.4223 40.2263V39.7263H55.9223V40.2263H56.4223ZM60.0514 39.8208L59.6978 39.4672L59.6978 39.4672L60.0514 39.8208ZM56.4223 37.4571H55.9223V37.9571H56.4223V37.4571ZM56.0168 33.8272L55.6632 34.1807L55.6632 34.1807L56.0168 33.8272ZM53.6531 37.4571V37.9571H54.1531V37.4571H53.6531ZM50.0227 39.8208L50.3762 39.4672L50.3762 39.4672L50.0227 39.8208ZM53.6531 40.2263H54.1531V39.7263H53.6531V40.2263ZM11.9489 39.8208L12.3024 39.4672H12.3024L11.9489 39.8208ZM11.9489 37.8627L11.5953 37.5091L11.9489 37.8627ZM21.9776 37.8627L22.3311 37.5091L21.9776 37.8627ZM21.9776 39.8208L21.624 39.4672H21.624L21.9776 39.8208ZM35.0041 50.8401L35.0041 50.3401H35.0037L35.0041 50.8401ZM34.6398 50.7916L34.508 51.2739L34.5087 51.2741L34.6398 50.7916ZM35.5889 50.7104L35.3777 50.2572L35.3777 50.2572L35.5889 50.7104ZM36.0642 50.3459L35.6814 50.0243L35.6814 50.0244L36.0642 50.3459ZM44.6125 37.0536L44.1772 36.8077L44.1769 36.8082L44.6125 37.0536ZM44.7915 36.3629L44.2915 36.3664V36.3664L44.7915 36.3629ZM44.6028 35.6747L45.0347 35.4227L45.0347 35.4227L44.6028 35.6747ZM44.0965 35.1719L44.3455 34.7383H44.3455L44.0965 35.1719ZM43.407 34.988L43.407 34.488H43.407V34.988ZM40.1333 34.988L39.6594 34.8285L39.4374 35.488H40.1333V34.988ZM42.2102 28.8169L42.6841 28.9764L42.6841 28.9764L42.2102 28.8169ZM42.268 28.1757L41.7732 28.2478V28.2478L42.268 28.1757ZM42.0297 27.5777L42.4384 27.2897V27.2897L42.0297 27.5777ZM41.5466 27.1521L41.7809 26.7104L41.7809 26.7104L41.5466 27.1521ZM40.9234 26.9909L40.9326 26.491H40.9325L40.9234 26.9909ZM32.8528 26.8438L32.8435 27.3437L32.8437 27.3437L32.8528 26.8438ZM31.5184 27.7758L31.0458 27.6125L31.0458 27.6125L31.5184 27.7758ZM27.278 40.0479L27.7505 40.2112L27.7506 40.2111L27.278 40.0479ZM27.2081 40.6302L27.7059 40.5833V40.5833L27.2081 40.6302ZM27.3856 41.1892L27.8193 40.9404L27.3856 41.1892ZM27.7785 41.6246L27.4867 42.0306L27.4867 42.0306L27.7785 41.6246ZM28.3164 41.8582L28.4144 41.3679L28.414 41.3679L28.3164 41.8582ZM32.903 42.7747L33.4029 42.782L33.409 42.3659L33.0009 42.2844L32.903 42.7747ZM32.8087 49.214L32.3087 49.2067V49.2067L32.8087 49.214ZM33.8289 50.5701L33.9607 50.0877L33.9604 50.0877L33.8289 50.5701ZM30.4185 39.4551L29.9458 39.2919L29.759 39.833L30.3203 39.9453L30.4185 39.4551ZM34.5723 40.2867L34.4741 40.777L34.4742 40.777L34.5723 40.2867ZM33.8108 29.6312L33.8199 29.1313L33.4567 29.1247L33.3382 29.468L33.8108 29.6312ZM38.9858 29.7255L39.4597 29.885L39.6773 29.2381L38.9949 29.2256L38.9858 29.7255ZM36.8985 35.9312L36.4245 35.7718L36.4245 35.7719L36.8985 35.9312ZM36.8416 36.5785L36.3472 36.6529V36.6529L36.8416 36.5785ZM38.2104 37.7572L38.2102 38.2572H38.2104V37.7572ZM41.0047 37.7572L41.4361 38.0099L41.8771 37.2572H41.0047V37.7572ZM35.6168 46.3375L35.1169 46.3302L35.093 47.9601L36.0267 46.6238L35.6168 46.3375ZM35.6852 41.6644L36.1851 41.6717V41.6716L35.6852 41.6644ZM35.3778 40.7744L34.9889 41.0885L34.9889 41.0885L35.3778 40.7744ZM56.493 2.76923V5.57034H57.493V2.76923H56.493ZM53.2823 3.26923H56.993V2.26923H53.2823V3.26923ZM53.7823 5.57034V2.76923H52.7823V5.57034H53.7823ZM56.993 5.07034H53.2823V6.07034H56.993V5.07034ZM50.013 6.95509C50.013 6.99419 50.0143 7.0332 50.0167 7.07206L51.0147 7.01C51.0136 6.9918 51.013 6.97349 51.013 6.95509H50.013ZM50.013 1.38462V6.95509H51.013V1.38462H50.013ZM50.565 0.0519895C50.2116 0.405424 50.013 0.884785 50.013 1.38462H51.013C51.013 1.15 51.1062 0.924994 51.2721 0.759097L50.565 0.0519895ZM51.8977 -0.5C51.3978 -0.5 50.9185 -0.301444 50.565 0.0519894L51.2721 0.759097C51.438 0.5932 51.663 0.5 51.8977 0.5V-0.5ZM58.3777 -0.5H51.8977V0.5H58.3777V-0.5ZM59.7103 0.0519894C59.3568 -0.301444 58.8775 -0.5 58.3777 -0.5V0.5C58.6123 0.5 58.8373 0.593199 59.0032 0.759097L59.7103 0.0519894ZM60.2623 1.38462C60.2623 0.884779 60.0637 0.405421 59.7103 0.051992L59.0032 0.759095C59.1691 0.924997 59.2623 1.15001 59.2623 1.38462H60.2623ZM60.2623 6.95509V1.38462H59.2623V6.95509H60.2623ZM60.259 7.06626C60.2612 7.0293 60.2623 6.99223 60.2623 6.95509H59.2623C59.2623 6.97259 59.2618 6.98999 59.2607 7.00728L60.259 7.06626ZM62.0901 10.5792L60.2071 6.81316L59.3127 7.26038L61.1957 11.0264L62.0901 10.5792ZM70.6154 10.3028H61.6429V11.3028H70.6154V10.3028ZM71.948 10.8548C71.5946 10.5013 71.1152 10.3028 70.6154 10.3028V11.3028C70.85 11.3028 71.075 11.396 71.2409 11.5619L71.948 10.8548ZM72.5 12.1874C72.5 11.6876 72.3015 11.2082 71.948 10.8548L71.2409 11.5619C71.4068 11.7278 71.5 11.9528 71.5 12.1874H72.5ZM72.5 21.6201V12.1874H71.5V21.6201H72.5ZM71.948 22.9527C72.3015 22.5993 72.5 22.1199 72.5 21.6201H71.5C71.5 21.8547 71.4068 22.0797 71.2409 22.2456L71.948 22.9527ZM70.6154 23.5047C71.1152 23.5047 71.5946 23.3061 71.948 22.9527L71.2409 22.2456C71.075 22.4115 70.85 22.5047 70.6154 22.5047V23.5047ZM66.7715 23.5047H70.6154V22.5047H66.7715V23.5047ZM67.2715 56.0644V23.0047H66.2715V56.0644H67.2715ZM66.7195 57.397C67.0729 57.0436 67.2715 56.5643 67.2715 56.0644H66.2715C66.2715 56.299 66.1783 56.524 66.0124 56.6899L66.7195 57.397ZM65.3868 57.949C65.8867 57.949 66.366 57.7505 66.7195 57.397L66.0124 56.6899C65.8465 56.8558 65.6215 56.949 65.3868 56.949V57.949ZM6.6151 57.949H65.3868V56.949H6.6151V57.949ZM5.28248 57.397C5.63591 57.7505 6.11527 57.949 6.6151 57.949V56.949C6.38049 56.949 6.15548 56.8558 5.98959 56.6899L5.28248 57.397ZM4.73049 56.0644C4.73049 56.5643 4.92904 57.0436 5.28248 57.397L5.98959 56.6899C5.82369 56.524 5.73049 56.299 5.73049 56.0644H4.73049ZM4.73049 23.0047V56.0644H5.73049V23.0047H4.73049ZM1.38462 23.5047H5.23049V22.5047H1.38462V23.5047ZM0.0519909 22.9527C0.405425 23.3061 0.884785 23.5047 1.38462 23.5047V22.5047C1.15 22.5047 0.924996 22.4115 0.759099 22.2456L0.0519909 22.9527ZM-0.5 21.6201C-0.5 22.1199 -0.301443 22.5993 0.0519922 22.9527L0.759097 22.2456C0.593201 22.0797 0.5 21.8547 0.5 21.6201H-0.5ZM-0.5 12.1874V21.6201H0.5V12.1874H-0.5ZM0.0519915 10.8548C-0.301442 11.2082 -0.5 11.6876 -0.5 12.1874H0.5C0.5 11.9528 0.5932 11.7278 0.759098 11.5619L0.0519915 10.8548ZM1.38462 10.3028C0.884782 10.3028 0.405424 10.5013 0.0519915 10.8548L0.759098 11.5619C0.924997 11.396 1.15 11.3028 1.38462 11.3028V10.3028ZM10.3566 10.3028H1.38462V11.3028H10.3566V10.3028ZM11.7894 6.81916L9.90938 10.5792L10.8038 11.0264L12.6838 7.26638L11.7894 6.81916ZM11.7338 6.95509C11.7338 6.99501 11.7351 7.0348 11.7376 7.07441L12.7356 7.01113C12.7344 6.99254 12.7338 6.97385 12.7338 6.95509H11.7338ZM11.7338 1.38462V6.95509H12.7338V1.38462H11.7338ZM12.2858 0.0519895C11.9324 0.405424 11.7338 0.884784 11.7338 1.38462H12.7338C12.7338 1.15 12.827 0.924994 12.9929 0.759097L12.2858 0.0519895ZM13.6184 -0.5C13.1186 -0.5 12.6392 -0.301445 12.2858 0.0519901L12.9929 0.759097C13.1588 0.5932 13.3838 0.5 13.6184 0.5V-0.5ZM20.0984 -0.5H13.6184V0.5H20.0984V-0.5ZM21.4311 0.0519894C21.0776 -0.301444 20.5983 -0.5 20.0984 -0.5V0.5C20.333 0.5 20.5581 0.593199 20.7239 0.759097L21.4311 0.0519894ZM21.983 1.38462C21.983 0.884784 21.7845 0.405423 21.4311 0.0519895L20.7239 0.759097C20.8898 0.924995 20.983 1.15 20.983 1.38462H21.983ZM21.983 6.95509V1.38462H20.983V6.95509H21.983ZM21.9799 7.06385C21.982 7.02772 21.983 6.99146 21.983 6.95509H20.983C20.983 6.97219 20.9826 6.98922 20.9816 7.00617L21.9799 7.06385ZM23.8124 10.5791L21.9279 6.81135L21.0336 7.25868L22.9181 11.0264L23.8124 10.5791ZM48.6342 10.3028H23.3652V11.3028H48.6342V10.3028ZM50.0685 6.81736L48.187 10.5791L49.0814 11.0264L50.9629 7.26469L50.0685 6.81736ZM15.503 5.57034V2.76923H14.503V5.57034H15.503ZM18.7138 5.07034H15.003V6.07034H18.7138V5.07034ZM18.2138 2.76923V5.57034H19.2138V2.76923H18.2138ZM15.003 3.26923H18.7138V2.26923H15.003V3.26923ZM14.2369 8.11604L13.0063 10.5762L13.9007 11.0235L15.1312 8.56338L14.2369 8.11604ZM19.0371 7.83971H14.684V8.83971H19.0371V7.83971ZM20.7148 10.5762L19.4842 8.11604L18.5899 8.56338L19.8204 11.0235L20.7148 10.5762ZM13.4535 11.2999H20.2676V10.2999H13.4535V11.2999ZM52.1791 11.0235L53.4096 8.56338L52.5152 8.11604L51.2847 10.5762L52.1791 11.0235ZM58.5459 10.2999H51.7319V11.2999H58.5459V10.2999ZM56.8682 8.56338L58.0988 11.0235L58.9931 10.5762L57.7626 8.11604L56.8682 8.56338ZM52.9624 8.83971H57.3154V7.83971H52.9624V8.83971ZM69.2308 19.7355H2.76923V20.7355H69.2308V19.7355ZM68.7308 13.572V20.2355H69.7308V13.572H68.7308ZM2.76923 14.072H69.2308V13.072H2.76923V14.072ZM3.26923 20.2355V13.572H2.26923V20.2355H3.26923ZM7.99972 55.1798H64.0022V54.1798H7.99972V55.1798ZM7.49972 23.0067V54.6798H8.49972V23.0067H7.49972ZM64.0022 22.5067H7.99972V23.5067H64.0022V22.5067ZM64.5022 54.6798V23.0067H63.5022V54.6798H64.5022ZM55.0377 43.7623C54.8031 43.7623 54.5781 43.6691 54.4122 43.5032L53.7051 44.2103C54.0585 44.5637 54.5378 44.7623 55.0377 44.7623V43.7623ZM55.6632 43.5032C55.4973 43.6691 55.2723 43.7623 55.0377 43.7623V44.7623C55.5375 44.7623 56.0169 44.5637 56.3703 44.2103L55.6632 43.5032ZM55.9223 42.8777C55.9223 43.1123 55.8291 43.3373 55.6632 43.5032L56.3703 44.2103C56.7237 43.8568 56.9223 43.3775 56.9223 42.8777H55.9223ZM55.9223 40.2263V42.8777H56.9223V40.2263H55.9223ZM59.0723 39.7263H56.4223V40.7263H59.0723V39.7263ZM59.6978 39.4672C59.5319 39.6331 59.3069 39.7263 59.0723 39.7263V40.7263C59.5722 40.7263 60.0515 40.5278 60.4049 40.1744L59.6978 39.4672ZM59.9569 38.8417C59.9569 39.0763 59.8637 39.3013 59.6978 39.4672L60.4049 40.1744C60.7584 39.8209 60.9569 39.3416 60.9569 38.8417H59.9569ZM59.6978 38.2162C59.8637 38.3821 59.9569 38.6071 59.9569 38.8417H60.9569C60.9569 38.3419 60.7584 37.8625 60.4049 37.5091L59.6978 38.2162ZM59.0723 37.9571C59.3069 37.9571 59.5319 38.0503 59.6978 38.2162L60.4049 37.5091C60.0515 37.1557 59.5722 36.9571 59.0723 36.9571V37.9571ZM56.4223 37.9571H59.0723V36.9571H56.4223V37.9571ZM55.9223 34.8062V37.4571H56.9223V34.8062H55.9223ZM55.6632 34.1807C55.8291 34.3466 55.9223 34.5716 55.9223 34.8062H56.9223C56.9223 34.3064 56.7237 33.827 56.3703 33.4736L55.6632 34.1807ZM55.0377 33.9216C55.2723 33.9216 55.4973 34.0148 55.6632 34.1807L56.3703 33.4736C56.0169 33.1202 55.5375 32.9216 55.0377 32.9216V33.9216ZM54.4122 34.1807C54.5781 34.0148 54.8031 33.9216 55.0377 33.9216V32.9216C54.5378 32.9216 54.0585 33.1202 53.7051 33.4736L54.4122 34.1807ZM54.1531 34.8062C54.1531 34.5716 54.2463 34.3466 54.4122 34.1807L53.7051 33.4736C53.3516 33.827 53.1531 34.3064 53.1531 34.8062H54.1531ZM54.1531 37.4571V34.8062H53.1531V37.4571H54.1531ZM51.0017 37.9571H53.6531V36.9571H51.0017V37.9571ZM50.3762 38.2162C50.5421 38.0503 50.7671 37.9571 51.0017 37.9571V36.9571C50.5019 36.9571 50.0226 37.1557 49.6691 37.5091L50.3762 38.2162ZM50.1171 38.8417C50.1171 38.6071 50.2103 38.3821 50.3762 38.2162L49.6691 37.5091C49.3157 37.8625 49.1171 38.3419 49.1171 38.8417H50.1171ZM50.3762 39.4672C50.2103 39.3013 50.1171 39.0763 50.1171 38.8417H49.1171C49.1171 39.3416 49.3157 39.8209 49.6691 40.1744L50.3762 39.4672ZM51.0017 39.7263C50.7671 39.7263 50.5421 39.6331 50.3762 39.4672L49.6691 40.1744C50.0226 40.5278 50.5019 40.7263 51.0017 40.7263V39.7263ZM53.6531 39.7263H51.0017V40.7263H53.6531V39.7263ZM54.1531 42.8777V40.2263H53.1531V42.8777H54.1531ZM54.4122 43.5032C54.2463 43.3373 54.1531 43.1123 54.1531 42.8777H53.1531C53.1531 43.3775 53.3516 43.8568 53.7051 44.2103L54.4122 43.5032ZM12.9279 40.7263H20.9985V39.7263H12.9279V40.7263ZM11.5953 40.1744C11.9487 40.5278 12.4281 40.7263 12.9279 40.7263V39.7263C12.6933 39.7263 12.4683 39.6331 12.3024 39.4672L11.5953 40.1744ZM11.0433 38.8417C11.0433 39.3416 11.2419 39.8209 11.5953 40.1744L12.3024 39.4672C12.1365 39.3013 12.0433 39.0763 12.0433 38.8417H11.0433ZM11.5953 37.5091C11.2419 37.8625 11.0433 38.3419 11.0433 38.8417H12.0433C12.0433 38.6071 12.1365 38.3821 12.3024 38.2162L11.5953 37.5091ZM12.9279 36.9571C12.4281 36.9571 11.9487 37.1557 11.5953 37.5091L12.3024 38.2162C12.4683 38.0503 12.6933 37.9571 12.9279 37.9571V36.9571ZM20.9985 36.9571H12.9279V37.9571H20.9985V36.9571ZM22.3311 37.5091C21.9777 37.1557 21.4984 36.9571 20.9985 36.9571V37.9571C21.2331 37.9571 21.4581 38.0503 21.624 38.2162L22.3311 37.5091ZM22.8831 38.8417C22.8831 38.3419 22.6846 37.8625 22.3311 37.5091L21.624 38.2162C21.7899 38.3821 21.8831 38.6071 21.8831 38.8417H22.8831ZM22.3311 40.1744C22.6846 39.8209 22.8831 39.3416 22.8831 38.8417H21.8831C21.8831 39.0763 21.7899 39.3013 21.624 39.4672L22.3311 40.1744ZM20.9985 40.7263C21.4983 40.7263 21.9777 40.5278 22.3311 40.1744L21.624 39.4672C21.4581 39.6331 21.2331 39.7263 20.9985 39.7263V40.7263ZM35.0037 50.3401C34.9251 50.3401 34.8468 50.3297 34.7709 50.3091L34.5087 51.2741C34.6703 51.318 34.8371 51.3402 35.0046 51.3401L35.0037 50.3401ZM35.3777 50.2572C35.2607 50.3118 35.1332 50.34 35.0041 50.3401L35.0042 51.3401C35.2792 51.34 35.5509 51.2798 35.8002 51.1636L35.3777 50.2572ZM35.6814 50.0244C35.5983 50.1232 35.4947 50.2027 35.3777 50.2572L35.8001 51.1636C36.0494 51.0474 36.2702 50.8781 36.4471 50.6675L35.6814 50.0244ZM44.1769 36.8082C43.9487 37.2132 38.7867 46.3281 35.6814 50.0243L36.4471 50.6676C39.6262 46.8834 44.8384 37.6712 45.0481 37.2991L44.1769 36.8082ZM44.2915 36.3664C44.2926 36.521 44.2532 36.6731 44.1772 36.8077L45.0478 37.2996C45.2098 37.0128 45.2938 36.6887 45.2915 36.3594L44.2915 36.3664ZM44.171 35.9267C44.2489 36.0602 44.2905 36.2118 44.2915 36.3664L45.2915 36.3594C45.2892 36.0301 45.2007 35.7071 45.0347 35.4227L44.171 35.9267ZM43.8475 35.6054C43.9815 35.6824 44.0931 35.7932 44.171 35.9267L45.0347 35.4227C44.8687 35.1382 44.6311 34.9023 44.3455 34.7383L43.8475 35.6054ZM43.407 35.488C43.5616 35.488 43.7135 35.5285 43.8475 35.6054L44.3455 34.7383C44.0599 34.5743 43.7364 34.488 43.407 34.488L43.407 35.488ZM40.1333 35.488H43.407V34.488H40.1333V35.488ZM41.7363 28.6574L39.6594 34.8285L40.6071 35.1474L42.6841 28.9764L41.7363 28.6574ZM41.7732 28.2478C41.7933 28.3854 41.7806 28.5257 41.7363 28.6574L42.6841 28.9764C42.7785 28.6957 42.8055 28.3967 42.7628 28.1036L41.7732 28.2478ZM41.621 27.8657C41.701 27.9793 41.7532 28.1102 41.7732 28.2478L42.7628 28.1037C42.7201 27.8106 42.609 27.5317 42.4384 27.2897L41.621 27.8657ZM41.3124 27.5938C41.4352 27.6589 41.5409 27.7521 41.621 27.8657L42.4384 27.2897C42.2678 27.0476 42.0425 26.8491 41.7809 26.7104L41.3124 27.5938ZM40.9142 27.4909C41.0531 27.4934 41.1896 27.5287 41.3124 27.5938L41.7809 26.7104C41.5193 26.5716 41.2287 26.4965 40.9326 26.491L40.9142 27.4909ZM32.8437 27.3437L40.9142 27.4909L40.9325 26.491L32.8619 26.3439L32.8437 27.3437ZM32.3205 27.503C32.4736 27.396 32.6567 27.3403 32.8435 27.3437L32.8621 26.3439C32.4642 26.3365 32.0741 26.4552 31.7479 26.6831L32.3205 27.503ZM31.9909 27.9392C32.052 27.7626 32.1673 27.6099 32.3205 27.503L31.7479 26.6831C31.4216 26.911 31.1758 27.2363 31.0458 27.6125L31.9909 27.9392ZM27.7506 40.2111L31.9909 27.9391L31.0458 27.6125L26.8054 39.8846L27.7506 40.2111ZM27.7059 40.5833C27.694 40.4575 27.7093 40.3306 27.7505 40.2112L26.8054 39.8845C26.7175 40.1389 26.685 40.4091 26.7103 40.6771L27.7059 40.5833ZM27.8193 40.9404C27.7564 40.8308 27.7177 40.709 27.7059 40.5833L26.7103 40.6771C26.7356 40.9451 26.8179 41.2045 26.9518 41.438L27.8193 40.9404ZM28.0703 41.2186C27.9677 41.1448 27.8821 41.05 27.8193 40.9404L26.9518 41.438C27.0858 41.6714 27.2681 41.8735 27.4867 42.0306L28.0703 41.2186ZM28.414 41.3679C28.2901 41.3432 28.1729 41.2923 28.0703 41.2186L27.4867 42.0306C27.7052 42.1877 27.9549 42.2961 28.2189 42.3486L28.414 41.3679ZM33.0009 42.2844L28.4144 41.3679L28.2185 42.3485L32.805 43.265L33.0009 42.2844ZM33.3086 49.2213L33.4029 42.782L32.403 42.7674L32.3087 49.2067L33.3086 49.2213ZM33.4862 49.7661C33.3682 49.6092 33.3057 49.4176 33.3086 49.2213L32.3087 49.2067C32.3026 49.6248 32.4357 50.0331 32.6872 50.3673L33.4862 49.7661ZM33.9604 50.0877C33.7711 50.036 33.6042 49.9229 33.4862 49.7661L32.6872 50.3673C32.9386 50.7014 33.294 50.9425 33.6974 51.0525L33.9604 50.0877ZM34.7716 50.3093L33.9607 50.0877L33.6972 51.0524L34.508 51.2739L34.7716 50.3093ZM30.3203 39.9453L34.4741 40.777L34.6705 39.7964L30.5166 38.9648L30.3203 39.9453ZM33.3382 29.468L29.9458 39.2919L30.8911 39.6183L34.2834 29.7944L33.3382 29.468ZM38.9949 29.2256L33.8199 29.1313L33.8017 30.1311L38.9767 30.2255L38.9949 29.2256ZM37.3724 36.0906L39.4597 29.885L38.5119 29.5661L36.4245 35.7718L37.3724 36.0906ZM37.3361 36.5042C37.3152 36.3654 37.3276 36.2236 37.3724 36.0906L36.4245 35.7719C36.3292 36.0552 36.3027 36.3572 36.3472 36.6529L37.3361 36.5042ZM37.4924 36.8887C37.4105 36.7748 37.357 36.6429 37.3361 36.5042L36.3472 36.6529C36.3917 36.9486 36.5059 37.2294 36.6803 37.4722L37.4924 36.8887ZM37.807 37.1596C37.6822 37.0956 37.5743 37.0027 37.4924 36.8887L36.6803 37.4722C36.8548 37.715 37.0845 37.9129 37.3505 38.0494L37.807 37.1596ZM38.2105 37.2572C38.0702 37.2571 37.9319 37.2237 37.807 37.1596L37.3505 38.0494C37.6165 38.1858 37.9112 38.2571 38.2102 38.2572L38.2105 37.2572ZM41.0047 37.2572H38.2104V38.2572H41.0047V37.2572ZM36.0267 46.6238C37.9333 43.895 40.1208 40.2552 41.4361 38.0099L40.5733 37.5045C39.2595 39.7471 37.089 43.3574 35.207 46.0511L36.0267 46.6238ZM35.1852 41.6571L35.1169 46.3302L36.1168 46.3448L36.1851 41.6717L35.1852 41.6571ZM34.9889 41.0885C35.1187 41.2493 35.1882 41.4505 35.1852 41.6572L36.1851 41.6716C36.1915 41.2313 36.0435 40.8027 35.7668 40.4602L34.9889 41.0885ZM34.4742 40.777C34.6769 40.8175 34.859 40.9278 34.9889 41.0885L35.7668 40.4602C35.4901 40.1176 35.1022 39.8828 34.6704 39.7964L34.4742 40.777Z" fill="white" mask="url(#path-3-inside-1_310_13314)"/>
</svg>
