<svg width="60" height="43" viewBox="0 0 60 43" fill="none" xmlns="http://www.w3.org/2000/svg">
<path d="M17.5 3.5L5.5 22L1 19.5L13 0.5L17.5 3.5Z" fill="#A4B8C1"/>
<path d="M42.5 3.5L46.5 0.5H47L59.5 19.5L54.5 22L42.5 3.5Z" fill="#A4B8C1"/>
<path d="M59.8614 19.3501C59.7486 19.1788 59.5724 19.0592 59.3715 19.0177C59.1706 18.9762 58.9614 19.0162 58.79 19.1288L55.1235 21.5364L43.4452 3.83152L47.1116 1.42524C47.1978 1.3699 47.2721 1.29801 47.3302 1.21375C47.3884 1.1295 47.4293 1.03453 47.4505 0.934369C47.4717 0.834204 47.4728 0.730827 47.4538 0.630224C47.4348 0.529621 47.396 0.433792 47.3397 0.348286C47.2834 0.262779 47.2106 0.189296 47.1257 0.13209C47.0408 0.0748837 46.9454 0.0350925 46.845 0.0150202C46.7446 -0.00505197 46.6412 -0.00500622 46.5408 0.0151549C46.4404 0.0353161 46.3451 0.0751918 46.2602 0.132473L41.9514 2.96515C41.7801 3.07795 41.6605 3.25416 41.619 3.45505C41.5775 3.65595 41.6175 3.86511 41.7301 4.03657L42.257 4.8364L36.9392 8.01264C36.0905 7.87685 35.2554 7.70982 34.446 7.54415C31.6378 6.9711 29.2152 6.47409 27.5205 7.83475C26.6148 8.5599 25.5691 9.80785 24.6906 10.9662L16.7832 6.24324L18.2376 4.03657C18.3502 3.86511 18.3901 3.65595 18.3486 3.45505C18.3071 3.25416 18.1876 3.07795 18.0162 2.96515L13.7075 0.132473C13.6226 0.0751918 13.5272 0.0353161 13.4268 0.0151549C13.3265 -0.00500622 13.2231 -0.00505197 13.1227 0.0150202C13.0223 0.0350925 12.9269 0.0748837 12.842 0.13209C12.757 0.189296 12.6843 0.262779 12.628 0.348286C12.5717 0.433792 12.5329 0.529621 12.5139 0.630224C12.4949 0.730827 12.496 0.834204 12.5172 0.934369C12.5384 1.03453 12.5793 1.1295 12.6374 1.21375C12.6956 1.29801 12.7699 1.3699 12.856 1.42524L16.5225 3.83152L4.84415 21.5364L1.17769 19.1288C1.00631 19.0241 0.800927 18.99 0.604924 19.0339C0.408921 19.0778 0.237651 19.1961 0.127297 19.364C0.0169421 19.5318 -0.0238549 19.7359 0.0135248 19.9333C0.0509045 20.1306 0.163534 20.3057 0.327618 20.4216L4.63774 23.2542C4.72248 23.3102 4.81742 23.3488 4.91712 23.3679C5.01682 23.387 5.11932 23.3863 5.21873 23.3657C5.31814 23.3452 5.41252 23.3052 5.49645 23.2481C5.58037 23.191 5.6522 23.1178 5.70781 23.0329L7.12279 20.8887L9.9093 22.5522C9.85226 23.701 9.75177 26.535 12.3862 28.7675C12.1275 29.3125 12.0058 29.9125 12.0318 30.5152C12.0428 30.9492 12.1496 31.3755 12.3444 31.7635C12.5393 32.1515 12.8174 32.4918 13.1589 32.7599C13.6657 33.1464 14.2868 33.3533 14.9242 33.3479C15.1131 33.3478 15.3016 33.3314 15.4877 33.299C15.4714 33.4678 15.4674 33.6375 15.4755 33.8069C15.4863 34.2406 15.5927 34.6667 15.7873 35.0545C15.982 35.4423 16.2599 35.7823 16.6013 36.0502C17.1074 36.4385 17.7287 36.6464 18.3666 36.6409C18.5994 36.6405 18.8316 36.6155 19.0591 36.5662C19.2372 36.5283 19.412 36.4765 19.582 36.4114C19.6312 36.8089 19.7586 37.1928 19.9566 37.541C20.1547 37.8891 20.4197 38.1947 20.7362 38.4402C21.2635 38.8469 21.9116 39.0658 22.5776 39.0621C22.7596 39.0621 22.9413 39.0466 23.1208 39.0159C23.4017 38.9682 23.6754 38.8851 23.9355 38.7688C24.1108 39.47 24.5142 40.0931 25.0823 40.54C25.6504 40.9869 26.351 41.2323 27.0738 41.2375C27.1742 41.2375 27.2747 41.2375 27.3752 41.224C27.7694 41.1909 28.1527 41.0775 28.5014 40.8907C28.8501 40.7038 29.1568 40.4475 29.4026 40.1376L32.3616 42.1351C33.1319 42.6422 34.0305 42.9201 34.9526 42.9363C35.0137 42.9363 35.0761 42.9363 35.1359 42.9363C36.1408 42.8888 36.9841 42.4448 37.4444 41.7142C37.9007 41.037 38.0836 40.2122 37.9563 39.4057C37.9351 39.2899 37.9065 39.1756 37.8708 39.0635C37.9794 39.0635 38.0881 39.0485 38.1953 39.035C38.6855 38.9853 39.158 38.8255 39.5778 38.5676C39.9975 38.3097 40.3535 37.9602 40.6192 37.5454C40.8849 37.1306 41.0535 36.6611 41.1123 36.1719C41.1711 35.6828 41.1186 35.1867 40.9588 34.7208C40.9438 34.6732 40.9275 34.6257 40.9112 34.585H40.9561C41.1378 34.5856 41.3193 34.5733 41.4992 34.5483C41.9891 34.4984 42.4613 34.3385 42.8808 34.0806C43.3002 33.8227 43.6559 33.4733 43.9215 33.0587C44.187 32.6441 44.3555 32.1748 44.4144 31.686C44.4732 31.1971 44.4209 30.7013 44.2613 30.2355C44.2246 30.1132 44.1812 29.9937 44.1336 29.8756C44.9617 29.8126 45.742 29.463 46.3403 28.887C46.6037 28.6203 46.8319 28.3209 47.0193 27.9962L47.0478 27.9378C47.6195 26.6803 47.2705 25.537 46.616 24.6298C47.3805 23.7417 48.8715 21.9425 49.4432 20.7773L51.8223 19.3556L54.2667 23.0519C54.3223 23.1368 54.3941 23.21 54.478 23.2671C54.5619 23.3242 54.6563 23.3642 54.7557 23.3848C54.8551 23.4053 54.9576 23.406 55.0573 23.3869C55.157 23.3678 55.252 23.3292 55.3367 23.2733L59.6468 20.4406C59.7339 20.3843 59.8088 20.311 59.867 20.2252C59.9251 20.1393 59.9654 20.0426 59.9855 19.9409C60.0055 19.8391 60.0048 19.7344 59.9835 19.6329C59.9622 19.5314 59.9207 19.4352 59.8614 19.3501ZM14.0986 31.5337C13.9363 31.401 13.8052 31.2343 13.7144 31.0454C13.6236 30.8566 13.5753 30.6501 13.573 30.4405C13.557 29.9069 13.7307 29.3848 14.0633 28.9671L15.2854 27.3702C15.481 27.1067 15.7334 26.8907 16.024 26.7384C16.3147 26.586 16.6359 26.5012 16.9638 26.4902C17.2607 26.4867 17.5503 26.5823 17.7867 26.7618C17.9481 26.8938 18.0787 27.0593 18.1695 27.247C18.2602 27.4346 18.309 27.6398 18.3123 27.8482C18.3285 28.3819 18.1548 28.904 17.8221 29.3216L16.5999 30.9185C15.9277 31.7767 14.7884 32.0578 14.0986 31.5337ZM18.7373 35.0535C18.5347 35.111 18.3213 35.1202 18.1144 35.0805C17.9076 35.0407 17.7129 34.953 17.546 34.8244C17.3791 34.6958 17.2447 34.5299 17.1535 34.34C17.0623 34.1501 17.0169 33.9414 17.0209 33.7308C17.0046 33.1975 17.1783 32.6758 17.5111 32.2588L18.74 30.6618C19.0589 30.2336 19.5194 29.9324 20.0396 29.8118C20.1592 29.7862 20.2812 29.773 20.4035 29.7724C20.7017 29.7685 20.9927 29.8641 21.2305 30.044C21.392 30.1757 21.5227 30.3412 21.6132 30.5289C21.7038 30.7167 21.7521 30.9219 21.7547 31.1303C21.7711 31.6035 21.6354 32.0694 21.3677 32.4598L20.2745 33.8802C20.2311 33.9359 20.1903 33.9929 20.1509 34.0513L20.0355 34.2007C19.7184 34.6289 19.2599 34.931 18.7414 35.0535H18.7373ZM22.8628 37.4896C22.6578 37.5294 22.4468 37.5258 22.2433 37.479C22.0398 37.4323 21.8483 37.3433 21.6813 37.218C21.0214 36.7101 20.9168 35.7243 21.4098 34.9611L22.4961 33.5597C22.5423 33.4986 22.5871 33.4375 22.6319 33.375C22.9166 32.9985 23.3334 32.7437 23.7984 32.6621C23.8908 32.6465 23.9844 32.6388 24.0781 32.639C24.404 32.6355 24.7217 32.7406 24.9812 32.9378C25.6764 33.4742 25.7565 34.5429 25.1577 35.321L24.0306 36.7848C23.7443 37.1588 23.3271 37.4106 22.8628 37.4896ZM27.2286 39.6827C26.8067 39.7202 26.3863 39.596 26.0526 39.3351C25.3559 38.7987 25.1835 37.8508 25.6683 37.2221L26.6446 35.9524C26.7772 35.7849 26.9466 35.6503 27.1398 35.5591C27.333 35.4679 27.5446 35.4227 27.7582 35.4269C28.131 35.4296 28.4925 35.5556 28.7861 35.7854C29.1241 36.0404 29.3519 36.4149 29.423 36.8324C29.4572 37.0175 29.4526 37.2078 29.4093 37.3911C29.3661 37.5744 29.2852 37.7467 29.1718 37.897L28.1941 39.1653C28.0775 39.3131 27.9315 39.4351 27.7653 39.5234C27.599 39.6118 27.4163 39.6647 27.2286 39.6786V39.6827ZM45.6559 27.2507C45.5483 27.4345 45.4193 27.605 45.2716 27.7586C44.5926 28.4144 43.5497 28.4973 42.6779 28.022C42.5978 27.9636 42.5177 27.9066 42.4335 27.8523C42.4035 27.8334 42.3722 27.8166 42.3398 27.802C42.2977 27.7708 42.2556 27.7395 42.2149 27.7042C42.1839 27.6771 42.1507 27.6526 42.1157 27.6309L39.1866 25.8276C39.0118 25.7195 38.8012 25.6854 38.6011 25.7326C38.4011 25.7798 38.228 25.9046 38.12 26.0795C38.0119 26.2543 37.9778 26.4649 38.025 26.665C38.0723 26.865 38.197 27.0381 38.3719 27.1461L41.2575 28.9142C41.4427 29.0662 41.6403 29.2025 41.8482 29.3216C42.2908 29.6621 42.6194 30.129 42.7906 30.6605C42.8849 30.912 42.9192 31.182 42.8908 31.4491C42.8624 31.7162 42.7721 31.973 42.6271 32.1991C42.4821 32.4251 42.2863 32.6143 42.0554 32.7515C41.8245 32.8887 41.5648 32.9701 41.2969 32.9894C40.6615 33.0678 40.0185 32.9239 39.4772 32.582C39.3656 32.4942 39.2496 32.4122 39.1296 32.3362C39.1017 32.3181 39.0727 32.3018 39.0427 32.2873L36.2562 30.3862C36.0865 30.2724 35.8788 30.2303 35.6782 30.2691C35.4776 30.3078 35.3005 30.4243 35.1854 30.5931C35.0704 30.7619 35.0267 30.9694 35.064 31.1702C35.1013 31.3711 35.2164 31.5491 35.3844 31.6654L38.581 33.8449C39.0052 34.182 39.3196 34.6377 39.484 35.1539C39.5798 35.4052 39.6154 35.6753 39.5883 35.9428C39.5611 36.2103 39.4718 36.4678 39.3275 36.6946C39.1832 36.9215 38.9879 37.1115 38.7571 37.2496C38.5264 37.3876 38.2666 37.4698 37.9984 37.4896C37.3485 37.5691 36.6915 37.4161 36.1435 37.0578L32.4309 34.5252C32.2612 34.4114 32.0534 34.3693 31.8528 34.4081C31.6523 34.4468 31.4752 34.5633 31.3601 34.7321C31.2451 34.9009 31.2014 35.1084 31.2387 35.3093C31.2759 35.5101 31.3911 35.6881 31.5591 35.8044L35.2825 38.3451C35.3341 38.3791 35.3885 38.4117 35.4414 38.4429C35.4678 38.4653 35.4954 38.4862 35.5243 38.5054C36.0511 38.8421 36.358 39.2332 36.4368 39.6691C36.4925 40.0919 36.3879 40.5201 36.1435 40.8695C35.8814 41.2769 35.3532 41.3625 35.0571 41.3761C34.3992 41.3848 33.7539 41.1956 33.2049 40.8329L30.3423 38.9005L30.3899 38.8381C30.6335 38.5202 30.8086 38.1553 30.904 37.7664C30.9993 37.3774 31.0129 36.9729 30.9439 36.5784C30.8703 36.1495 30.7113 35.7398 30.4761 35.3736C30.2409 35.0075 29.9345 34.6924 29.5751 34.4471C29.2156 34.2018 28.8105 34.0313 28.3838 33.9459C27.9571 33.8604 27.5176 33.8616 27.0914 33.9494C27.0716 33.5196 26.9599 33.0989 26.764 32.7158C26.568 32.3327 26.2923 31.996 25.9554 31.7282C25.6185 31.4605 25.2281 31.2681 24.8107 31.1638C24.3932 31.0595 23.9582 31.0458 23.5349 31.1236C23.4562 31.1371 23.3788 31.1534 23.3014 31.1724C23.3014 31.1344 23.3014 31.0964 23.3014 31.0584C23.2949 30.6345 23.1952 30.2172 23.0091 29.8363C22.823 29.4553 22.5553 29.1201 22.2249 28.8544C21.8945 28.5887 21.5097 28.3992 21.0977 28.2992C20.6857 28.1992 20.2567 28.1913 19.8413 28.2759C19.8576 28.1072 19.8617 27.9374 19.8535 27.7681C19.8425 27.334 19.7357 26.9078 19.5409 26.5197C19.3461 26.1317 19.068 25.7915 18.7264 25.5234C17.3549 24.4669 15.265 24.8716 14.066 26.4264L13.2512 27.4788C11.2917 25.7298 11.3962 23.6277 11.4479 22.5807C11.461 22.4 11.4637 22.2186 11.456 22.0375C11.4438 21.8908 11.3901 21.7505 11.3011 21.6331C11.2122 21.5158 11.0916 21.4262 10.9536 21.3748L7.96607 19.5919L15.9196 7.53193L23.7604 12.2168C23.2443 12.9461 22.8804 13.5028 22.7881 13.6441C21.9353 14.7494 20.8869 17.2331 22.9239 18.94C23.5933 19.4995 24.2981 19.782 25.0273 19.782C25.1976 19.7818 25.3675 19.7668 25.5352 19.7372C26.8823 19.4995 28.1846 18.3113 29.4081 16.2065L29.7136 15.776L43.7344 24.1505C44.1875 24.4027 44.6057 24.7132 44.9783 25.0739C45.0075 25.1113 45.0398 25.1463 45.0747 25.1785L45.0951 25.1948C45.6138 25.7406 45.994 26.4617 45.6559 27.2466V27.2507ZM48.4438 19.5579C48.2984 19.6451 48.1857 19.7778 48.1233 19.9354C47.7933 20.7583 46.4286 22.4531 45.5432 23.4946C45.2194 23.2308 44.8706 22.9993 44.5017 22.8034L29.9024 14.08H29.8942C29.882 14.0718 29.8684 14.0664 29.8562 14.0596L29.825 14.0433L29.7856 14.0283L29.753 14.0148L29.715 13.9971L29.6769 13.9876H29.6471L29.6009 13.9808H29.5778H29.5262H29.4434H29.385H29.3687L29.3076 13.9971H29.2899L29.237 14.0148L29.2166 14.0229L29.1691 14.0433L29.1473 14.0555L29.1039 14.0786L29.0808 14.0949L29.0414 14.1207L29.0183 14.1411C29.0061 14.1494 28.9947 14.159 28.9844 14.1696L28.9599 14.1927L28.9301 14.2239L28.9056 14.2524L28.8812 14.2836V14.2918L28.1411 15.3347C28.1275 15.3551 28.1139 15.3741 28.1017 15.3958C27.1416 17.0579 26.1408 18.056 25.2826 18.2068C24.8399 18.2869 24.3972 18.1361 23.9342 17.7478C22.5491 16.5867 23.8894 14.7725 24.0455 14.5715C24.0605 14.5525 24.074 14.5335 24.0876 14.5131C24.1012 14.4928 24.6308 13.6834 25.36 12.665C25.4631 12.6013 25.5492 12.5137 25.6112 12.4097C25.6494 12.3469 25.6778 12.2787 25.6954 12.2073C26.5591 11.0449 27.6224 9.73588 28.4928 9.03925C29.6253 8.13078 31.722 8.5599 34.1487 9.0569C35.0666 9.2443 36.0158 9.43849 37.0004 9.58107C37.1952 9.60834 37.393 9.55972 37.553 9.44528L43.1206 6.12102L50.9777 18.0357L48.4438 19.5579Z" fill="#1B1B1B"/>
</svg>
