<svg width="80" height="62" viewBox="0 0 80 62" fill="none" xmlns="http://www.w3.org/2000/svg">
<rect x="44.207" y="30.3379" width="9.53477" height="25.1371" fill="#A4B8C1"/>
<rect x="53.7412" y="6.06763" width="8.66797" height="19.0695" fill="#A4B8C1"/>
<rect x="2.60059" y="29.4712" width="9.53477" height="26.0039" fill="#A4B8C1"/>
<path d="M28.6043 20.8031C30.3379 23.2302 36.8389 22.3923 39.8727 21.6699V8.23457C38.2835 7.94564 34.2385 7.62781 30.7713 8.66797C27.3041 9.70812 26.1484 13.1464 26.0039 14.7355C26.1484 15.7468 26.8707 18.3761 28.6043 20.8031Z" fill="#A4B8C1"/>
<mask id="path-5-inside-1_190_39022" fill="white">
<path d="M60.7619 26.2381C61.4942 26.2372 62.1962 25.946 62.7139 25.4282C63.2317 24.9104 63.523 24.2084 63.5238 23.4762V6.90476C63.523 6.17252 63.2317 5.47051 62.7139 4.95274C62.1962 4.43497 61.4942 4.14371 60.7619 4.14286H55.2381C55.2369 3.04447 54.8 1.99142 54.0234 1.21474C53.2467 0.438062 52.1936 0.00119894 51.0952 0H4.14286C3.04447 0.00119894 1.99142 0.438062 1.21474 1.21474C0.438062 1.99142 0.00119894 3.04447 0 4.14286V26.2381C0.00316285 27.2607 0.387353 28.2454 1.07756 29C0.387353 29.7546 0.00316285 30.7393 0 31.7619V53.8571C0.00119894 54.9555 0.438062 56.0086 1.21474 56.7853C1.99142 57.5619 3.04447 57.9988 4.14286 58H51.0952C52.1936 57.9988 53.2467 57.5619 54.0234 56.7853C54.8 56.0086 55.2369 54.9555 55.2381 53.8571H60.7619C61.4942 53.8563 62.1962 53.565 62.7139 53.0473C63.2317 52.5295 63.523 51.8275 63.5238 51.0952V34.5238C63.523 33.7916 63.2317 33.0896 62.7139 32.5718C62.1962 32.054 61.4942 31.7628 60.7619 31.7619H55.2381C55.2349 30.7393 54.8507 29.7546 54.1605 29C54.8507 28.2454 55.2349 27.2607 55.2381 26.2381H60.7619ZM60.3619 6.90476C60.5828 6.90476 60.7619 7.08385 60.7619 7.30476V23.0762C60.7619 23.2971 60.5828 23.4762 60.3619 23.4762H55.2381V6.90476H60.3619ZM2.7619 4.14286C2.76225 3.77671 2.90785 3.42566 3.16676 3.16676C3.42566 2.90785 3.77671 2.76225 4.14286 2.7619H51.0952C51.4614 2.76225 51.8124 2.90785 52.0713 3.16676C52.3302 3.42566 52.4758 3.77671 52.4762 4.14286V26.2381C52.4758 26.6042 52.3302 26.9553 52.0713 27.2142C51.8124 27.4731 51.4614 27.6187 51.0952 27.619H4.14286C3.77671 27.6187 3.42566 27.4731 3.16676 27.2142C2.90785 26.9553 2.76225 26.6042 2.7619 26.2381V4.14286ZM41.4286 30.381V55.2381H13.8095V30.381H41.4286ZM2.7619 53.8571V31.7619C2.76225 31.3958 2.90785 31.0447 3.16676 30.7858C3.42566 30.5269 3.77671 30.3813 4.14286 30.381H11.0476V55.2381H4.14286C3.77671 55.2378 3.42566 55.0922 3.16676 54.8332C2.90785 54.5743 2.76225 54.2233 2.7619 53.8571ZM52.4762 53.8571C52.4758 54.2233 52.3302 54.5743 52.0713 54.8332C51.8124 55.0922 51.4614 55.2378 51.0952 55.2381H44.1905V30.381H51.0952C51.4614 30.3813 51.8124 30.5269 52.0713 30.7858C52.3302 31.0447 52.4758 31.3958 52.4762 31.7619V53.8571ZM60.3619 34.5238C60.5828 34.5238 60.7619 34.7029 60.7619 34.9238V50.6952C60.7619 50.9162 60.5828 51.0952 60.3619 51.0952H55.2381V34.5238H60.3619ZM8.28571 16.5714H24.9818C25.3091 18.5001 26.3077 20.2509 27.8012 21.5145C29.2946 22.778 31.1866 23.4728 33.1429 23.4762H40.0476C40.229 23.4762 40.4086 23.4405 40.5761 23.3711C40.7437 23.3018 40.896 23.2 41.0242 23.0718C41.1524 22.9436 41.2541 22.7913 41.3235 22.6238C41.3929 22.4562 41.4286 22.2766 41.4286 22.0952V20.7143H46.9524C47.3186 20.7143 47.6699 20.5688 47.9289 20.3098C48.1878 20.0508 48.3333 19.6996 48.3333 19.3333C48.3333 18.9671 48.1878 18.6158 47.9289 18.3569C47.6699 18.0979 47.3186 17.9524 46.9524 17.9524H41.4286V12.4286H46.9524C47.3186 12.4286 47.6699 12.2831 47.9289 12.0241C48.1878 11.7651 48.3333 11.4139 48.3333 11.0476C48.3333 10.6814 48.1878 10.3301 47.9289 10.0711C47.6699 9.81216 47.3186 9.66667 46.9524 9.66667H41.4286V8.28571C41.4286 8.10435 41.3929 7.92476 41.3235 7.7572C41.2541 7.58964 41.1524 7.43739 41.0242 7.30915C40.896 7.18091 40.7437 7.07919 40.5761 7.0098C40.4086 6.94042 40.229 6.90472 40.0476 6.90476H33.1429C31.1866 6.90811 29.2946 7.60297 27.8012 8.8665C26.3077 10.13 25.3091 11.8809 24.9818 13.8095H8.28571C7.91946 13.8095 7.56821 13.955 7.30923 14.214C7.05025 14.473 6.90476 14.8242 6.90476 15.1905C6.90476 15.5567 7.05025 15.908 7.30923 16.167C7.56821 16.4259 7.91946 16.5714 8.28571 16.5714ZM33.1429 9.66667H38.6667V20.7143H33.1429C31.6779 20.7143 30.2729 20.1323 29.2369 19.0964C28.201 18.0605 27.6191 16.6555 27.6191 15.1905C27.6191 13.7255 28.201 12.3205 29.2369 11.2846C30.2729 10.2486 31.6779 9.66667 33.1429 9.66667ZM23.5477 42.3726L26.3095 34.087C26.4305 33.7462 26.6803 33.4665 27.0053 33.308C27.3303 33.1494 27.7045 33.1247 28.0476 33.2392C28.3906 33.3536 28.675 33.5981 28.8398 33.92C29.0045 34.2419 29.0363 34.6156 28.9285 34.9607L26.7735 41.4286H30.381C30.5991 41.4306 30.8137 41.4838 31.0074 41.5842C31.2011 41.6845 31.3685 41.829 31.4959 42.006C31.6234 42.183 31.7075 42.3875 31.7413 42.603C31.775 42.8185 31.7576 43.0389 31.6904 43.2465L28.9286 51.532C28.8078 51.873 28.558 52.1529 28.2329 52.3116C27.9078 52.4703 27.5334 52.495 27.1903 52.3806C26.8471 52.2661 26.5626 52.0215 26.3979 51.6994C26.2333 51.3774 26.2015 51.0035 26.3096 50.6583L28.4646 44.1905H24.8571C24.6383 44.1906 24.4226 44.1386 24.2277 44.0389C24.0329 43.9392 23.8646 43.7946 23.7367 43.617C23.6088 43.4394 23.525 43.234 23.4921 43.0176C23.4592 42.8012 23.4783 42.5801 23.5477 42.3726Z"/>
</mask>
<path d="M60.7619 26.2381C61.4942 26.2372 62.1962 25.946 62.7139 25.4282C63.2317 24.9104 63.523 24.2084 63.5238 23.4762V6.90476C63.523 6.17252 63.2317 5.47051 62.7139 4.95274C62.1962 4.43497 61.4942 4.14371 60.7619 4.14286H55.2381C55.2369 3.04447 54.8 1.99142 54.0234 1.21474C53.2467 0.438062 52.1936 0.00119894 51.0952 0H4.14286C3.04447 0.00119894 1.99142 0.438062 1.21474 1.21474C0.438062 1.99142 0.00119894 3.04447 0 4.14286V26.2381C0.00316285 27.2607 0.387353 28.2454 1.07756 29C0.387353 29.7546 0.00316285 30.7393 0 31.7619V53.8571C0.00119894 54.9555 0.438062 56.0086 1.21474 56.7853C1.99142 57.5619 3.04447 57.9988 4.14286 58H51.0952C52.1936 57.9988 53.2467 57.5619 54.0234 56.7853C54.8 56.0086 55.2369 54.9555 55.2381 53.8571H60.7619C61.4942 53.8563 62.1962 53.565 62.7139 53.0473C63.2317 52.5295 63.523 51.8275 63.5238 51.0952V34.5238C63.523 33.7916 63.2317 33.0896 62.7139 32.5718C62.1962 32.054 61.4942 31.7628 60.7619 31.7619H55.2381C55.2349 30.7393 54.8507 29.7546 54.1605 29C54.8507 28.2454 55.2349 27.2607 55.2381 26.2381H60.7619ZM60.3619 6.90476C60.5828 6.90476 60.7619 7.08385 60.7619 7.30476V23.0762C60.7619 23.2971 60.5828 23.4762 60.3619 23.4762H55.2381V6.90476H60.3619ZM2.7619 4.14286C2.76225 3.77671 2.90785 3.42566 3.16676 3.16676C3.42566 2.90785 3.77671 2.76225 4.14286 2.7619H51.0952C51.4614 2.76225 51.8124 2.90785 52.0713 3.16676C52.3302 3.42566 52.4758 3.77671 52.4762 4.14286V26.2381C52.4758 26.6042 52.3302 26.9553 52.0713 27.2142C51.8124 27.4731 51.4614 27.6187 51.0952 27.619H4.14286C3.77671 27.6187 3.42566 27.4731 3.16676 27.2142C2.90785 26.9553 2.76225 26.6042 2.7619 26.2381V4.14286ZM41.4286 30.381V55.2381H13.8095V30.381H41.4286ZM2.7619 53.8571V31.7619C2.76225 31.3958 2.90785 31.0447 3.16676 30.7858C3.42566 30.5269 3.77671 30.3813 4.14286 30.381H11.0476V55.2381H4.14286C3.77671 55.2378 3.42566 55.0922 3.16676 54.8332C2.90785 54.5743 2.76225 54.2233 2.7619 53.8571ZM52.4762 53.8571C52.4758 54.2233 52.3302 54.5743 52.0713 54.8332C51.8124 55.0922 51.4614 55.2378 51.0952 55.2381H44.1905V30.381H51.0952C51.4614 30.3813 51.8124 30.5269 52.0713 30.7858C52.3302 31.0447 52.4758 31.3958 52.4762 31.7619V53.8571ZM60.3619 34.5238C60.5828 34.5238 60.7619 34.7029 60.7619 34.9238V50.6952C60.7619 50.9162 60.5828 51.0952 60.3619 51.0952H55.2381V34.5238H60.3619ZM8.28571 16.5714H24.9818C25.3091 18.5001 26.3077 20.2509 27.8012 21.5145C29.2946 22.778 31.1866 23.4728 33.1429 23.4762H40.0476C40.229 23.4762 40.4086 23.4405 40.5761 23.3711C40.7437 23.3018 40.896 23.2 41.0242 23.0718C41.1524 22.9436 41.2541 22.7913 41.3235 22.6238C41.3929 22.4562 41.4286 22.2766 41.4286 22.0952V20.7143H46.9524C47.3186 20.7143 47.6699 20.5688 47.9289 20.3098C48.1878 20.0508 48.3333 19.6996 48.3333 19.3333C48.3333 18.9671 48.1878 18.6158 47.9289 18.3569C47.6699 18.0979 47.3186 17.9524 46.9524 17.9524H41.4286V12.4286H46.9524C47.3186 12.4286 47.6699 12.2831 47.9289 12.0241C48.1878 11.7651 48.3333 11.4139 48.3333 11.0476C48.3333 10.6814 48.1878 10.3301 47.9289 10.0711C47.6699 9.81216 47.3186 9.66667 46.9524 9.66667H41.4286V8.28571C41.4286 8.10435 41.3929 7.92476 41.3235 7.7572C41.2541 7.58964 41.1524 7.43739 41.0242 7.30915C40.896 7.18091 40.7437 7.07919 40.5761 7.0098C40.4086 6.94042 40.229 6.90472 40.0476 6.90476H33.1429C31.1866 6.90811 29.2946 7.60297 27.8012 8.8665C26.3077 10.13 25.3091 11.8809 24.9818 13.8095H8.28571C7.91946 13.8095 7.56821 13.955 7.30923 14.214C7.05025 14.473 6.90476 14.8242 6.90476 15.1905C6.90476 15.5567 7.05025 15.908 7.30923 16.167C7.56821 16.4259 7.91946 16.5714 8.28571 16.5714ZM33.1429 9.66667H38.6667V20.7143H33.1429C31.6779 20.7143 30.2729 20.1323 29.2369 19.0964C28.201 18.0605 27.6191 16.6555 27.6191 15.1905C27.6191 13.7255 28.201 12.3205 29.2369 11.2846C30.2729 10.2486 31.6779 9.66667 33.1429 9.66667ZM23.5477 42.3726L26.3095 34.087C26.4305 33.7462 26.6803 33.4665 27.0053 33.308C27.3303 33.1494 27.7045 33.1247 28.0476 33.2392C28.3906 33.3536 28.675 33.5981 28.8398 33.92C29.0045 34.2419 29.0363 34.6156 28.9285 34.9607L26.7735 41.4286H30.381C30.5991 41.4306 30.8137 41.4838 31.0074 41.5842C31.2011 41.6845 31.3685 41.829 31.4959 42.006C31.6234 42.183 31.7075 42.3875 31.7413 42.603C31.775 42.8185 31.7576 43.0389 31.6904 43.2465L28.9286 51.532C28.8078 51.873 28.558 52.1529 28.2329 52.3116C27.9078 52.4703 27.5334 52.495 27.1903 52.3806C26.8471 52.2661 26.5626 52.0215 26.3979 51.6994C26.2333 51.3774 26.2015 51.0035 26.3096 50.6583L28.4646 44.1905H24.8571C24.6383 44.1906 24.4226 44.1386 24.2277 44.0389C24.0329 43.9392 23.8646 43.7946 23.7367 43.617C23.6088 43.4394 23.525 43.234 23.4921 43.0176C23.4592 42.8012 23.4783 42.5801 23.5477 42.3726Z" fill="#1B1B1B" stroke="white" stroke-width="1.2" mask="url(#path-5-inside-1_190_39022)"/>
</svg>
