<svg width="80" height="66" viewBox="0 0 80 66" fill="none" xmlns="http://www.w3.org/2000/svg">
<circle cx="17.3159" cy="23.6613" r="6.34515" fill="#A4B8C1"/>
<circle cx="16.863" cy="23.208" r="3.17258" fill="white"/>
<path d="M34.5385 1.90649H38.6175L41.7901 5.98552L44.0562 1.90649H59.4659L67.6239 4.17262L72.1562 11.4242V17.3162L67.6239 10.5178L61.2788 7.79842L59.4659 9.1581V17.3162H44.0562L41.7901 13.6904L38.6175 17.3162H34.0853L32.7256 15.9565V3.7194L34.5385 1.90649Z" fill="#A4B8C1"/>
<mask id="path-4-outside-1_190_38998" maskUnits="userSpaceOnUse" x="0" y="0" width="74" height="66" fill="black">
<rect fill="white" width="74" height="66"/>
<path d="M59.7331 1.00012H43.9295C43.7205 0.996709 43.5171 1.06756 43.3556 1.20007C43.194 1.33257 43.0846 1.51812 43.0471 1.72368C42.8578 2.99708 42.3678 4.20703 41.6176 5.25325C40.8562 4.21232 40.3623 3.00027 40.1793 1.72368C40.1417 1.51812 40.0324 1.33257 39.8708 1.20007C39.7092 1.06756 39.5058 0.996709 39.2969 1.00012H35.4585C34.4498 1.00012 33.4825 1.4008 32.7693 2.11402C32.0561 2.82724 31.6554 3.79458 31.6554 4.80323V14.8448C31.6554 15.8535 32.0561 16.8208 32.7693 17.534C33.4825 18.2473 34.4498 18.648 35.4585 18.648H39.3322C39.5411 18.6514 39.7445 18.5805 39.9061 18.448C40.0677 18.3155 40.177 18.13 40.2146 17.9244C40.3976 16.6478 40.8915 15.4358 41.6529 14.3948C42.4031 15.441 42.8931 16.651 43.0824 17.9244C43.1199 18.13 43.2293 18.3155 43.3909 18.448C43.5524 18.5805 43.7558 18.6514 43.9647 18.648H47.4943V61.8852C47.4943 62.7113 47.8225 63.5035 48.4066 64.0877C48.9908 64.6718 49.7831 65 50.6092 65H53.1063C53.9324 65 54.7247 64.6718 55.3089 64.0877C55.893 63.5035 56.2212 62.7113 56.2212 61.8852V18.648H59.7507C59.9848 18.648 60.2092 18.555 60.3747 18.3895C60.5402 18.224 60.6331 17.9996 60.6331 17.7656V9.90345C60.63 9.76866 60.6578 9.63495 60.7144 9.51258C60.771 9.39021 60.8549 9.28244 60.9596 9.19754C61.065 9.10947 61.1881 9.045 61.3205 9.00847C61.4529 8.97194 61.5916 8.9642 61.7273 8.98576C64.04 9.37116 66.1873 10.4309 67.9 12.0321C69.6126 13.6333 70.8143 15.7046 71.3542 17.9862C71.4008 18.1836 71.5139 18.3589 71.6747 18.4827C71.8354 18.6064 72.0338 18.671 72.2366 18.6656C72.4381 18.6715 72.6357 18.6081 72.7962 18.4861C72.9568 18.3641 73.0707 18.1908 73.119 17.995C73.3823 16.9326 73.5156 15.8423 73.5161 14.7478C73.5161 12.9394 73.1593 11.1489 72.4662 9.47861C71.7731 7.80837 70.7573 6.29127 69.477 5.01422C68.1967 3.73716 66.6769 2.72525 65.0049 2.03645C63.3329 1.34764 61.5414 0.995475 59.7331 1.00012ZM54.4387 61.8852C54.4297 62.2349 54.2862 62.5676 54.038 62.8142C53.7898 63.0607 53.4561 63.202 53.1063 63.2087H50.5827C50.2246 63.2087 49.8812 63.0665 49.6281 62.8133C49.3749 62.5601 49.2326 62.2167 49.2326 61.8587V18.6215H54.4299L54.4387 61.8852ZM62.0008 7.27392C61.6158 7.21165 61.2218 7.23326 60.8459 7.33728C60.47 7.4413 60.121 7.62527 59.8227 7.87662C59.5244 8.12797 59.2839 8.44077 59.1177 8.79362C58.9515 9.14648 58.8634 9.53107 58.8595 9.9211V16.9008H44.6354C44.2824 15.4625 43.4 12.5683 41.6352 12.5683C39.8704 12.5683 38.9881 15.4625 38.6175 16.8832H35.4585C34.9186 16.8808 34.4015 16.6654 34.0197 16.2836C33.638 15.9018 33.4225 15.3847 33.4202 14.8448V4.80323C33.4225 4.26334 33.638 3.74624 34.0197 3.36448C34.4015 2.98272 34.9186 2.76722 35.4585 2.7649H38.6175C38.9881 4.18555 39.8704 7.0798 41.6352 7.0798C43.4 7.0798 44.2824 4.18555 44.6354 2.7649H59.7331C62.7745 2.77937 65.6966 3.94983 67.907 6.03898C70.1174 8.12813 71.4507 10.9796 71.6366 14.0154C70.6375 12.2378 69.2523 10.707 67.5832 9.53572C65.914 8.36442 64.0034 7.58247 61.992 7.24745L62.0008 7.27392ZM23.6256 26.6865C24.111 25.6978 24.3645 24.6114 24.3668 23.5099C24.3632 22.2547 24.0381 21.0214 23.4227 19.9274V3.44434C23.4235 3.26863 23.3719 3.09666 23.2745 2.95046C23.177 2.80426 23.0381 2.69049 22.8756 2.62372C22.7141 2.55725 22.5364 2.54021 22.3652 2.57477C22.194 2.60933 22.0369 2.69392 21.9138 2.81785L19.3901 5.33266C19.2565 5.47687 19.1703 5.65856 19.1431 5.85327L17.8548 16.2214C17.3218 16.1508 16.7818 16.1508 16.2488 16.2214L14.9694 5.85327C14.9452 5.65586 14.855 5.4724 14.7135 5.33266L12.1986 2.81785C12.0752 2.6934 11.9175 2.60853 11.7457 2.57406C11.5738 2.53958 11.3956 2.55706 11.2338 2.62427C11.0719 2.69148 10.9337 2.80537 10.8368 2.95143C10.7399 3.09748 10.6887 3.26908 10.6897 3.44434V19.9274C10.0702 21.0197 9.74488 22.2542 9.74559 23.5099C9.74947 24.6102 9.99972 25.6956 10.478 26.6865C5.6453 31.1019 2.44131 37.0168 1.38307 43.4766C0.324834 49.9365 1.47409 56.5645 4.64536 62.2911C4.83444 62.6302 5.09773 62.9222 5.41556 63.1453C5.73338 63.3684 6.09751 63.5168 6.48074 63.5793C6.62458 63.5921 6.76927 63.5921 6.91311 63.5793C7.30489 63.58 7.69146 63.4895 8.04219 63.3149C8.39291 63.1403 8.69817 62.8864 8.93379 62.5734C9.22222 62.2027 9.4042 61.7603 9.46017 61.2939C9.51613 60.8275 9.44398 60.3547 9.25145 59.9262C7.09797 55.0535 6.41425 49.6579 7.28422 44.402C8.1542 39.1461 10.54 34.2586 14.1487 30.3396C14.1694 30.3153 14.1871 30.2887 14.2017 30.2602C15.1012 30.6445 16.0692 30.8426 17.0474 30.8426C18.0255 30.8426 18.9936 30.6445 19.8931 30.2602L19.9549 30.3396C23.5753 34.2607 25.9697 39.1552 26.843 44.4201C27.7163 49.685 27.0304 55.0904 24.8698 59.9704C24.6911 60.3667 24.6152 60.8016 24.6491 61.235C24.683 61.6684 24.8257 62.0862 25.0639 62.4499C25.2935 62.8077 25.6094 63.1019 25.9826 63.3054C26.3558 63.509 26.7742 63.6153 27.1993 63.6146C27.3461 63.6281 27.4937 63.6281 27.6405 63.6146C28.0225 63.5518 28.3856 63.4043 28.7032 63.1829C29.0208 62.9615 29.2848 62.6719 29.4759 62.3352C32.6483 56.6068 33.7974 49.9763 32.7375 43.5145C31.6776 37.0526 28.4706 31.1366 23.6344 26.7218L23.6256 26.6865ZM20.8549 6.39153L21.6579 5.59738V17.8626C21.0338 17.3539 20.3303 16.9515 19.5754 16.6714L20.8549 6.39153ZM12.4634 5.59738L13.2663 6.39153L14.5282 16.6979C13.7813 16.9716 13.0839 17.365 12.4634 17.8626V5.59738ZM5.52776 44.1226C4.59005 49.7308 5.32349 55.4909 7.63667 60.6851C7.70791 60.8257 7.73667 60.984 7.71944 61.1407C7.7022 61.2974 7.63972 61.4457 7.53961 61.5675C7.45174 61.6838 7.33386 61.774 7.19861 61.8284C7.06337 61.8828 6.91587 61.8994 6.77193 61.8763C6.65145 61.8576 6.53668 61.8122 6.43594 61.7435C6.3352 61.6748 6.25103 61.5845 6.18955 61.4793C3.23831 56.1404 2.15635 49.9683 3.11563 43.944C4.07492 37.9197 7.02041 32.3889 11.4839 28.2307C11.8397 28.6542 12.2423 29.0361 12.684 29.369C8.93162 33.4979 6.44729 38.6197 5.52776 44.1226ZM17.0518 29.0514C15.9558 29.0514 14.8844 28.7264 13.9731 28.1175C13.0619 27.5086 12.3516 26.6431 11.9322 25.6305C11.5128 24.618 11.403 23.5038 11.6169 22.4289C11.8307 21.3539 12.3584 20.3665 13.1334 19.5916C13.9084 18.8166 14.8958 18.2888 15.9707 18.075C17.0456 17.8612 18.1598 17.9709 19.1724 18.3903C20.185 18.8097 21.0504 19.52 21.6593 20.4313C22.2682 21.3426 22.5932 22.4139 22.5932 23.5099C22.5909 24.9789 22.0063 26.387 20.9676 27.4257C19.9289 28.4644 18.5208 29.049 17.0518 29.0514ZM27.914 61.444C27.8517 61.5503 27.7661 61.6412 27.6638 61.71C27.5614 61.7787 27.4449 61.8235 27.3228 61.841C27.1692 61.8664 27.0115 61.8465 26.8689 61.7839C26.7263 61.7212 26.6051 61.6184 26.5199 61.4881C26.448 61.368 26.4057 61.2326 26.3965 61.093C26.3873 60.9534 26.4114 60.8136 26.4669 60.6851C28.7527 55.5332 29.4941 49.8286 28.6013 44.2635C27.7085 38.6985 25.2199 33.5121 21.4373 29.3337C21.8798 28.9986 22.285 28.617 22.6462 28.1954C27.119 32.3475 30.0711 37.879 31.0309 43.9061C31.9906 49.9331 30.9025 56.108 27.9405 61.444H27.914ZM17.0518 19.2921C16.2151 19.2904 15.3967 19.537 14.7003 20.0007C14.0039 20.4645 13.4607 21.1245 13.1397 21.8972C12.8187 22.6699 12.7343 23.5205 12.8971 24.3412C13.0599 25.1619 13.4626 25.9158 14.0543 26.5074C14.6459 27.0991 15.3998 27.5018 16.2206 27.6646C17.0413 27.8274 17.8918 27.743 18.6645 27.422C19.4372 27.101 20.0972 26.5579 20.561 25.8615C21.0247 25.165 21.2714 24.3466 21.2696 23.5099C21.2673 22.392 20.8222 21.3205 20.0317 20.5301C19.2412 19.7396 18.1697 19.2944 17.0518 19.2921ZM17.0518 25.9718C16.5645 25.9736 16.0877 25.8307 15.6817 25.5612C15.2756 25.2918 14.9587 24.9079 14.771 24.4582C14.5834 24.0085 14.5333 23.5132 14.6273 23.0351C14.7213 22.5569 14.9551 22.1175 15.299 21.7723C15.643 21.4271 16.0816 21.1917 16.5594 21.096C17.0372 21.0003 17.5327 21.0486 17.983 21.2346C18.4334 21.4207 18.8184 21.7362 19.0893 22.1413C19.3602 22.5463 19.5048 23.0226 19.5048 23.5099C19.5048 24.1613 19.2467 24.7862 18.7869 25.2476C18.3271 25.7091 17.7032 25.9695 17.0518 25.9718Z"/>
</mask>
<path d="M59.7331 1.00012H43.9295C43.7205 0.996709 43.5171 1.06756 43.3556 1.20007C43.194 1.33257 43.0846 1.51812 43.0471 1.72368C42.8578 2.99708 42.3678 4.20703 41.6176 5.25325C40.8562 4.21232 40.3623 3.00027 40.1793 1.72368C40.1417 1.51812 40.0324 1.33257 39.8708 1.20007C39.7092 1.06756 39.5058 0.996709 39.2969 1.00012H35.4585C34.4498 1.00012 33.4825 1.4008 32.7693 2.11402C32.0561 2.82724 31.6554 3.79458 31.6554 4.80323V14.8448C31.6554 15.8535 32.0561 16.8208 32.7693 17.534C33.4825 18.2473 34.4498 18.648 35.4585 18.648H39.3322C39.5411 18.6514 39.7445 18.5805 39.9061 18.448C40.0677 18.3155 40.177 18.13 40.2146 17.9244C40.3976 16.6478 40.8915 15.4358 41.6529 14.3948C42.4031 15.441 42.8931 16.651 43.0824 17.9244C43.1199 18.13 43.2293 18.3155 43.3909 18.448C43.5524 18.5805 43.7558 18.6514 43.9647 18.648H47.4943V61.8852C47.4943 62.7113 47.8225 63.5035 48.4066 64.0877C48.9908 64.6718 49.7831 65 50.6092 65H53.1063C53.9324 65 54.7247 64.6718 55.3089 64.0877C55.893 63.5035 56.2212 62.7113 56.2212 61.8852V18.648H59.7507C59.9848 18.648 60.2092 18.555 60.3747 18.3895C60.5402 18.224 60.6331 17.9996 60.6331 17.7656V9.90345C60.63 9.76866 60.6578 9.63495 60.7144 9.51258C60.771 9.39021 60.8549 9.28244 60.9596 9.19754C61.065 9.10947 61.1881 9.045 61.3205 9.00847C61.4529 8.97194 61.5916 8.9642 61.7273 8.98576C64.04 9.37116 66.1873 10.4309 67.9 12.0321C69.6126 13.6333 70.8143 15.7046 71.3542 17.9862C71.4008 18.1836 71.5139 18.3589 71.6747 18.4827C71.8354 18.6064 72.0338 18.671 72.2366 18.6656C72.4381 18.6715 72.6357 18.6081 72.7962 18.4861C72.9568 18.3641 73.0707 18.1908 73.119 17.995C73.3823 16.9326 73.5156 15.8423 73.5161 14.7478C73.5161 12.9394 73.1593 11.1489 72.4662 9.47861C71.7731 7.80837 70.7573 6.29127 69.477 5.01422C68.1967 3.73716 66.6769 2.72525 65.0049 2.03645C63.3329 1.34764 61.5414 0.995475 59.7331 1.00012ZM54.4387 61.8852C54.4297 62.2349 54.2862 62.5676 54.038 62.8142C53.7898 63.0607 53.4561 63.202 53.1063 63.2087H50.5827C50.2246 63.2087 49.8812 63.0665 49.6281 62.8133C49.3749 62.5601 49.2326 62.2167 49.2326 61.8587V18.6215H54.4299L54.4387 61.8852ZM62.0008 7.27392C61.6158 7.21165 61.2218 7.23326 60.8459 7.33728C60.47 7.4413 60.121 7.62527 59.8227 7.87662C59.5244 8.12797 59.2839 8.44077 59.1177 8.79362C58.9515 9.14648 58.8634 9.53107 58.8595 9.9211V16.9008H44.6354C44.2824 15.4625 43.4 12.5683 41.6352 12.5683C39.8704 12.5683 38.9881 15.4625 38.6175 16.8832H35.4585C34.9186 16.8808 34.4015 16.6654 34.0197 16.2836C33.638 15.9018 33.4225 15.3847 33.4202 14.8448V4.80323C33.4225 4.26334 33.638 3.74624 34.0197 3.36448C34.4015 2.98272 34.9186 2.76722 35.4585 2.7649H38.6175C38.9881 4.18555 39.8704 7.0798 41.6352 7.0798C43.4 7.0798 44.2824 4.18555 44.6354 2.7649H59.7331C62.7745 2.77937 65.6966 3.94983 67.907 6.03898C70.1174 8.12813 71.4507 10.9796 71.6366 14.0154C70.6375 12.2378 69.2523 10.707 67.5832 9.53572C65.914 8.36442 64.0034 7.58247 61.992 7.24745L62.0008 7.27392ZM23.6256 26.6865C24.111 25.6978 24.3645 24.6114 24.3668 23.5099C24.3632 22.2547 24.0381 21.0214 23.4227 19.9274V3.44434C23.4235 3.26863 23.3719 3.09666 23.2745 2.95046C23.177 2.80426 23.0381 2.69049 22.8756 2.62372C22.7141 2.55725 22.5364 2.54021 22.3652 2.57477C22.194 2.60933 22.0369 2.69392 21.9138 2.81785L19.3901 5.33266C19.2565 5.47687 19.1703 5.65856 19.1431 5.85327L17.8548 16.2214C17.3218 16.1508 16.7818 16.1508 16.2488 16.2214L14.9694 5.85327C14.9452 5.65586 14.855 5.4724 14.7135 5.33266L12.1986 2.81785C12.0752 2.6934 11.9175 2.60853 11.7457 2.57406C11.5738 2.53958 11.3956 2.55706 11.2338 2.62427C11.0719 2.69148 10.9337 2.80537 10.8368 2.95143C10.7399 3.09748 10.6887 3.26908 10.6897 3.44434V19.9274C10.0702 21.0197 9.74488 22.2542 9.74559 23.5099C9.74947 24.6102 9.99972 25.6956 10.478 26.6865C5.6453 31.1019 2.44131 37.0168 1.38307 43.4766C0.324834 49.9365 1.47409 56.5645 4.64536 62.2911C4.83444 62.6302 5.09773 62.9222 5.41556 63.1453C5.73338 63.3684 6.09751 63.5168 6.48074 63.5793C6.62458 63.5921 6.76927 63.5921 6.91311 63.5793C7.30489 63.58 7.69146 63.4895 8.04219 63.3149C8.39291 63.1403 8.69817 62.8864 8.93379 62.5734C9.22222 62.2027 9.4042 61.7603 9.46017 61.2939C9.51613 60.8275 9.44398 60.3547 9.25145 59.9262C7.09797 55.0535 6.41425 49.6579 7.28422 44.402C8.1542 39.1461 10.54 34.2586 14.1487 30.3396C14.1694 30.3153 14.1871 30.2887 14.2017 30.2602C15.1012 30.6445 16.0692 30.8426 17.0474 30.8426C18.0255 30.8426 18.9936 30.6445 19.8931 30.2602L19.9549 30.3396C23.5753 34.2607 25.9697 39.1552 26.843 44.4201C27.7163 49.685 27.0304 55.0904 24.8698 59.9704C24.6911 60.3667 24.6152 60.8016 24.6491 61.235C24.683 61.6684 24.8257 62.0862 25.0639 62.4499C25.2935 62.8077 25.6094 63.1019 25.9826 63.3054C26.3558 63.509 26.7742 63.6153 27.1993 63.6146C27.3461 63.6281 27.4937 63.6281 27.6405 63.6146C28.0225 63.5518 28.3856 63.4043 28.7032 63.1829C29.0208 62.9615 29.2848 62.6719 29.4759 62.3352C32.6483 56.6068 33.7974 49.9763 32.7375 43.5145C31.6776 37.0526 28.4706 31.1366 23.6344 26.7218L23.6256 26.6865ZM20.8549 6.39153L21.6579 5.59738V17.8626C21.0338 17.3539 20.3303 16.9515 19.5754 16.6714L20.8549 6.39153ZM12.4634 5.59738L13.2663 6.39153L14.5282 16.6979C13.7813 16.9716 13.0839 17.365 12.4634 17.8626V5.59738ZM5.52776 44.1226C4.59005 49.7308 5.32349 55.4909 7.63667 60.6851C7.70791 60.8257 7.73667 60.984 7.71944 61.1407C7.7022 61.2974 7.63972 61.4457 7.53961 61.5675C7.45174 61.6838 7.33386 61.774 7.19861 61.8284C7.06337 61.8828 6.91587 61.8994 6.77193 61.8763C6.65145 61.8576 6.53668 61.8122 6.43594 61.7435C6.3352 61.6748 6.25103 61.5845 6.18955 61.4793C3.23831 56.1404 2.15635 49.9683 3.11563 43.944C4.07492 37.9197 7.02041 32.3889 11.4839 28.2307C11.8397 28.6542 12.2423 29.0361 12.684 29.369C8.93162 33.4979 6.44729 38.6197 5.52776 44.1226ZM17.0518 29.0514C15.9558 29.0514 14.8844 28.7264 13.9731 28.1175C13.0619 27.5086 12.3516 26.6431 11.9322 25.6305C11.5128 24.618 11.403 23.5038 11.6169 22.4289C11.8307 21.3539 12.3584 20.3665 13.1334 19.5916C13.9084 18.8166 14.8958 18.2888 15.9707 18.075C17.0456 17.8612 18.1598 17.9709 19.1724 18.3903C20.185 18.8097 21.0504 19.52 21.6593 20.4313C22.2682 21.3426 22.5932 22.4139 22.5932 23.5099C22.5909 24.9789 22.0063 26.387 20.9676 27.4257C19.9289 28.4644 18.5208 29.049 17.0518 29.0514ZM27.914 61.444C27.8517 61.5503 27.7661 61.6412 27.6638 61.71C27.5614 61.7787 27.4449 61.8235 27.3228 61.841C27.1692 61.8664 27.0115 61.8465 26.8689 61.7839C26.7263 61.7212 26.6051 61.6184 26.5199 61.4881C26.448 61.368 26.4057 61.2326 26.3965 61.093C26.3873 60.9534 26.4114 60.8136 26.4669 60.6851C28.7527 55.5332 29.4941 49.8286 28.6013 44.2635C27.7085 38.6985 25.2199 33.5121 21.4373 29.3337C21.8798 28.9986 22.285 28.617 22.6462 28.1954C27.119 32.3475 30.0711 37.879 31.0309 43.9061C31.9906 49.9331 30.9025 56.108 27.9405 61.444H27.914ZM17.0518 19.2921C16.2151 19.2904 15.3967 19.537 14.7003 20.0007C14.0039 20.4645 13.4607 21.1245 13.1397 21.8972C12.8187 22.6699 12.7343 23.5205 12.8971 24.3412C13.0599 25.1619 13.4626 25.9158 14.0543 26.5074C14.6459 27.0991 15.3998 27.5018 16.2206 27.6646C17.0413 27.8274 17.8918 27.743 18.6645 27.422C19.4372 27.101 20.0972 26.5579 20.561 25.8615C21.0247 25.165 21.2714 24.3466 21.2696 23.5099C21.2673 22.392 20.8222 21.3205 20.0317 20.5301C19.2412 19.7396 18.1697 19.2944 17.0518 19.2921ZM17.0518 25.9718C16.5645 25.9736 16.0877 25.8307 15.6817 25.5612C15.2756 25.2918 14.9587 24.9079 14.771 24.4582C14.5834 24.0085 14.5333 23.5132 14.6273 23.0351C14.7213 22.5569 14.9551 22.1175 15.299 21.7723C15.643 21.4271 16.0816 21.1917 16.5594 21.096C17.0372 21.0003 17.5327 21.0486 17.983 21.2346C18.4334 21.4207 18.8184 21.7362 19.0893 22.1413C19.3602 22.5463 19.5048 23.0226 19.5048 23.5099C19.5048 24.1613 19.2467 24.7862 18.7869 25.2476C18.3271 25.7091 17.7032 25.9695 17.0518 25.9718Z" fill="#1B1B1B"/>
<path d="M59.7331 1.00012H43.9295C43.7205 0.996709 43.5171 1.06756 43.3556 1.20007C43.194 1.33257 43.0846 1.51812 43.0471 1.72368C42.8578 2.99708 42.3678 4.20703 41.6176 5.25325C40.8562 4.21232 40.3623 3.00027 40.1793 1.72368C40.1417 1.51812 40.0324 1.33257 39.8708 1.20007C39.7092 1.06756 39.5058 0.996709 39.2969 1.00012H35.4585C34.4498 1.00012 33.4825 1.4008 32.7693 2.11402C32.0561 2.82724 31.6554 3.79458 31.6554 4.80323V14.8448C31.6554 15.8535 32.0561 16.8208 32.7693 17.534C33.4825 18.2473 34.4498 18.648 35.4585 18.648H39.3322C39.5411 18.6514 39.7445 18.5805 39.9061 18.448C40.0677 18.3155 40.177 18.13 40.2146 17.9244C40.3976 16.6478 40.8915 15.4358 41.6529 14.3948C42.4031 15.441 42.8931 16.651 43.0824 17.9244C43.1199 18.13 43.2293 18.3155 43.3909 18.448C43.5524 18.5805 43.7558 18.6514 43.9647 18.648H47.4943V61.8852C47.4943 62.7113 47.8225 63.5035 48.4066 64.0877C48.9908 64.6718 49.7831 65 50.6092 65H53.1063C53.9324 65 54.7247 64.6718 55.3089 64.0877C55.893 63.5035 56.2212 62.7113 56.2212 61.8852V18.648H59.7507C59.9848 18.648 60.2092 18.555 60.3747 18.3895C60.5402 18.224 60.6331 17.9996 60.6331 17.7656V9.90345C60.63 9.76866 60.6578 9.63495 60.7144 9.51258C60.771 9.39021 60.8549 9.28244 60.9596 9.19754C61.065 9.10947 61.1881 9.045 61.3205 9.00847C61.4529 8.97194 61.5916 8.9642 61.7273 8.98576C64.04 9.37116 66.1873 10.4309 67.9 12.0321C69.6126 13.6333 70.8143 15.7046 71.3542 17.9862C71.4008 18.1836 71.5139 18.3589 71.6747 18.4827C71.8354 18.6064 72.0338 18.671 72.2366 18.6656C72.4381 18.6715 72.6357 18.6081 72.7962 18.4861C72.9568 18.3641 73.0707 18.1908 73.119 17.995C73.3823 16.9326 73.5156 15.8423 73.5161 14.7478C73.5161 12.9394 73.1593 11.1489 72.4662 9.47861C71.7731 7.80837 70.7573 6.29127 69.477 5.01422C68.1967 3.73716 66.6769 2.72525 65.0049 2.03645C63.3329 1.34764 61.5414 0.995475 59.7331 1.00012ZM54.4387 61.8852C54.4297 62.2349 54.2862 62.5676 54.038 62.8142C53.7898 63.0607 53.4561 63.202 53.1063 63.2087H50.5827C50.2246 63.2087 49.8812 63.0665 49.6281 62.8133C49.3749 62.5601 49.2326 62.2167 49.2326 61.8587V18.6215H54.4299L54.4387 61.8852ZM62.0008 7.27392C61.6158 7.21165 61.2218 7.23326 60.8459 7.33728C60.47 7.4413 60.121 7.62527 59.8227 7.87662C59.5244 8.12797 59.2839 8.44077 59.1177 8.79362C58.9515 9.14648 58.8634 9.53107 58.8595 9.9211V16.9008H44.6354C44.2824 15.4625 43.4 12.5683 41.6352 12.5683C39.8704 12.5683 38.9881 15.4625 38.6175 16.8832H35.4585C34.9186 16.8808 34.4015 16.6654 34.0197 16.2836C33.638 15.9018 33.4225 15.3847 33.4202 14.8448V4.80323C33.4225 4.26334 33.638 3.74624 34.0197 3.36448C34.4015 2.98272 34.9186 2.76722 35.4585 2.7649H38.6175C38.9881 4.18555 39.8704 7.0798 41.6352 7.0798C43.4 7.0798 44.2824 4.18555 44.6354 2.7649H59.7331C62.7745 2.77937 65.6966 3.94983 67.907 6.03898C70.1174 8.12813 71.4507 10.9796 71.6366 14.0154C70.6375 12.2378 69.2523 10.707 67.5832 9.53572C65.914 8.36442 64.0034 7.58247 61.992 7.24745L62.0008 7.27392ZM23.6256 26.6865C24.111 25.6978 24.3645 24.6114 24.3668 23.5099C24.3632 22.2547 24.0381 21.0214 23.4227 19.9274V3.44434C23.4235 3.26863 23.3719 3.09666 23.2745 2.95046C23.177 2.80426 23.0381 2.69049 22.8756 2.62372C22.7141 2.55725 22.5364 2.54021 22.3652 2.57477C22.194 2.60933 22.0369 2.69392 21.9138 2.81785L19.3901 5.33266C19.2565 5.47687 19.1703 5.65856 19.1431 5.85327L17.8548 16.2214C17.3218 16.1508 16.7818 16.1508 16.2488 16.2214L14.9694 5.85327C14.9452 5.65586 14.855 5.4724 14.7135 5.33266L12.1986 2.81785C12.0752 2.6934 11.9175 2.60853 11.7457 2.57406C11.5738 2.53958 11.3956 2.55706 11.2338 2.62427C11.0719 2.69148 10.9337 2.80537 10.8368 2.95143C10.7399 3.09748 10.6887 3.26908 10.6897 3.44434V19.9274C10.0702 21.0197 9.74488 22.2542 9.74559 23.5099C9.74947 24.6102 9.99972 25.6956 10.478 26.6865C5.6453 31.1019 2.44131 37.0168 1.38307 43.4766C0.324834 49.9365 1.47409 56.5645 4.64536 62.2911C4.83444 62.6302 5.09773 62.9222 5.41556 63.1453C5.73338 63.3684 6.09751 63.5168 6.48074 63.5793C6.62458 63.5921 6.76927 63.5921 6.91311 63.5793C7.30489 63.58 7.69146 63.4895 8.04219 63.3149C8.39291 63.1403 8.69817 62.8864 8.93379 62.5734C9.22222 62.2027 9.4042 61.7603 9.46017 61.2939C9.51613 60.8275 9.44398 60.3547 9.25145 59.9262C7.09797 55.0535 6.41425 49.6579 7.28422 44.402C8.1542 39.1461 10.54 34.2586 14.1487 30.3396C14.1694 30.3153 14.1871 30.2887 14.2017 30.2602C15.1012 30.6445 16.0692 30.8426 17.0474 30.8426C18.0255 30.8426 18.9936 30.6445 19.8931 30.2602L19.9549 30.3396C23.5753 34.2607 25.9697 39.1552 26.843 44.4201C27.7163 49.685 27.0304 55.0904 24.8698 59.9704C24.6911 60.3667 24.6152 60.8016 24.6491 61.235C24.683 61.6684 24.8257 62.0862 25.0639 62.4499C25.2935 62.8077 25.6094 63.1019 25.9826 63.3054C26.3558 63.509 26.7742 63.6153 27.1993 63.6146C27.3461 63.6281 27.4937 63.6281 27.6405 63.6146C28.0225 63.5518 28.3856 63.4043 28.7032 63.1829C29.0208 62.9615 29.2848 62.6719 29.4759 62.3352C32.6483 56.6068 33.7974 49.9763 32.7375 43.5145C31.6776 37.0526 28.4706 31.1366 23.6344 26.7218L23.6256 26.6865ZM20.8549 6.39153L21.6579 5.59738V17.8626C21.0338 17.3539 20.3303 16.9515 19.5754 16.6714L20.8549 6.39153ZM12.4634 5.59738L13.2663 6.39153L14.5282 16.6979C13.7813 16.9716 13.0839 17.365 12.4634 17.8626V5.59738ZM5.52776 44.1226C4.59005 49.7308 5.32349 55.4909 7.63667 60.6851C7.70791 60.8257 7.73667 60.984 7.71944 61.1407C7.7022 61.2974 7.63972 61.4457 7.53961 61.5675C7.45174 61.6838 7.33386 61.774 7.19861 61.8284C7.06337 61.8828 6.91587 61.8994 6.77193 61.8763C6.65145 61.8576 6.53668 61.8122 6.43594 61.7435C6.3352 61.6748 6.25103 61.5845 6.18955 61.4793C3.23831 56.1404 2.15635 49.9683 3.11563 43.944C4.07492 37.9197 7.02041 32.3889 11.4839 28.2307C11.8397 28.6542 12.2423 29.0361 12.684 29.369C8.93162 33.4979 6.44729 38.6197 5.52776 44.1226ZM17.0518 29.0514C15.9558 29.0514 14.8844 28.7264 13.9731 28.1175C13.0619 27.5086 12.3516 26.6431 11.9322 25.6305C11.5128 24.618 11.403 23.5038 11.6169 22.4289C11.8307 21.3539 12.3584 20.3665 13.1334 19.5916C13.9084 18.8166 14.8958 18.2888 15.9707 18.075C17.0456 17.8612 18.1598 17.9709 19.1724 18.3903C20.185 18.8097 21.0504 19.52 21.6593 20.4313C22.2682 21.3426 22.5932 22.4139 22.5932 23.5099C22.5909 24.9789 22.0063 26.387 20.9676 27.4257C19.9289 28.4644 18.5208 29.049 17.0518 29.0514ZM27.914 61.444C27.8517 61.5503 27.7661 61.6412 27.6638 61.71C27.5614 61.7787 27.4449 61.8235 27.3228 61.841C27.1692 61.8664 27.0115 61.8465 26.8689 61.7839C26.7263 61.7212 26.6051 61.6184 26.5199 61.4881C26.448 61.368 26.4057 61.2326 26.3965 61.093C26.3873 60.9534 26.4114 60.8136 26.4669 60.6851C28.7527 55.5332 29.4941 49.8286 28.6013 44.2635C27.7085 38.6985 25.2199 33.5121 21.4373 29.3337C21.8798 28.9986 22.285 28.617 22.6462 28.1954C27.119 32.3475 30.0711 37.879 31.0309 43.9061C31.9906 49.9331 30.9025 56.108 27.9405 61.444H27.914ZM17.0518 19.2921C16.2151 19.2904 15.3967 19.537 14.7003 20.0007C14.0039 20.4645 13.4607 21.1245 13.1397 21.8972C12.8187 22.6699 12.7343 23.5205 12.8971 24.3412C13.0599 25.1619 13.4626 25.9158 14.0543 26.5074C14.6459 27.0991 15.3998 27.5018 16.2206 27.6646C17.0413 27.8274 17.8918 27.743 18.6645 27.422C19.4372 27.101 20.0972 26.5579 20.561 25.8615C21.0247 25.165 21.2714 24.3466 21.2696 23.5099C21.2673 22.392 20.8222 21.3205 20.0317 20.5301C19.2412 19.7396 18.1697 19.2944 17.0518 19.2921ZM17.0518 25.9718C16.5645 25.9736 16.0877 25.8307 15.6817 25.5612C15.2756 25.2918 14.9587 24.9079 14.771 24.4582C14.5834 24.0085 14.5333 23.5132 14.6273 23.0351C14.7213 22.5569 14.9551 22.1175 15.299 21.7723C15.643 21.4271 16.0816 21.1917 16.5594 21.096C17.0372 21.0003 17.5327 21.0486 17.983 21.2346C18.4334 21.4207 18.8184 21.7362 19.0893 22.1413C19.3602 22.5463 19.5048 23.0226 19.5048 23.5099C19.5048 24.1613 19.2467 24.7862 18.7869 25.2476C18.3271 25.7091 17.7032 25.9695 17.0518 25.9718Z" stroke="white" stroke-width="0.6" mask="url(#path-4-outside-1_190_38998)"/>
<mask id="path-5-inside-2_190_38998" fill="white">
<path d="M59.7331 1.00012H43.9295C43.7205 0.996709 43.5171 1.06756 43.3556 1.20007C43.194 1.33257 43.0846 1.51812 43.0471 1.72368C42.8578 2.99708 42.3678 4.20703 41.6176 5.25325C40.8562 4.21232 40.3623 3.00027 40.1793 1.72368C40.1417 1.51812 40.0324 1.33257 39.8708 1.20007C39.7092 1.06756 39.5058 0.996709 39.2969 1.00012H35.4585C34.4498 1.00012 33.4825 1.4008 32.7693 2.11402C32.0561 2.82724 31.6554 3.79458 31.6554 4.80323V14.8448C31.6554 15.8535 32.0561 16.8208 32.7693 17.534C33.4825 18.2473 34.4498 18.648 35.4585 18.648H39.3322C39.5411 18.6514 39.7445 18.5805 39.9061 18.448C40.0677 18.3155 40.177 18.13 40.2146 17.9244C40.3976 16.6478 40.8915 15.4358 41.6529 14.3948C42.4031 15.441 42.8931 16.651 43.0824 17.9244C43.1199 18.13 43.2293 18.3155 43.3909 18.448C43.5524 18.5805 43.7558 18.6514 43.9647 18.648H47.4943V61.8852C47.4943 62.7113 47.8225 63.5035 48.4066 64.0877C48.9908 64.6718 49.7831 65 50.6092 65H53.1063C53.9324 65 54.7247 64.6718 55.3089 64.0877C55.893 63.5035 56.2212 62.7113 56.2212 61.8852V18.648H59.7507C59.9848 18.648 60.2092 18.555 60.3747 18.3895C60.5402 18.224 60.6331 17.9996 60.6331 17.7656V9.90345C60.63 9.76866 60.6578 9.63495 60.7144 9.51258C60.771 9.39021 60.8549 9.28244 60.9596 9.19754C61.065 9.10947 61.1881 9.045 61.3205 9.00847C61.4529 8.97194 61.5916 8.9642 61.7273 8.98576C64.04 9.37116 66.1873 10.4309 67.9 12.0321C69.6126 13.6333 70.8143 15.7046 71.3542 17.9862C71.4008 18.1836 71.5139 18.3589 71.6747 18.4827C71.8354 18.6064 72.0338 18.671 72.2366 18.6656C72.4381 18.6715 72.6357 18.6081 72.7962 18.4861C72.9568 18.3641 73.0707 18.1908 73.119 17.995C73.3823 16.9326 73.5156 15.8423 73.5161 14.7478C73.5161 12.9394 73.1593 11.1489 72.4662 9.47861C71.7731 7.80837 70.7573 6.29127 69.477 5.01422C68.1967 3.73716 66.6769 2.72525 65.0049 2.03645C63.3329 1.34764 61.5414 0.995475 59.7331 1.00012ZM54.4387 61.8852C54.4297 62.2349 54.2862 62.5676 54.038 62.8142C53.7898 63.0607 53.4561 63.202 53.1063 63.2087H50.5827C50.2246 63.2087 49.8812 63.0665 49.6281 62.8133C49.3749 62.5601 49.2326 62.2167 49.2326 61.8587V18.6215H54.4299L54.4387 61.8852ZM62.0008 7.27392C61.6158 7.21165 61.2218 7.23326 60.8459 7.33728C60.47 7.4413 60.121 7.62527 59.8227 7.87662C59.5244 8.12797 59.2839 8.44077 59.1177 8.79362C58.9515 9.14648 58.8634 9.53107 58.8595 9.9211V16.9008H44.6354C44.2824 15.4625 43.4 12.5683 41.6352 12.5683C39.8704 12.5683 38.9881 15.4625 38.6175 16.8832H35.4585C34.9186 16.8808 34.4015 16.6654 34.0197 16.2836C33.638 15.9018 33.4225 15.3847 33.4202 14.8448V4.80323C33.4225 4.26334 33.638 3.74624 34.0197 3.36448C34.4015 2.98272 34.9186 2.76722 35.4585 2.7649H38.6175C38.9881 4.18555 39.8704 7.0798 41.6352 7.0798C43.4 7.0798 44.2824 4.18555 44.6354 2.7649H59.7331C62.7745 2.77937 65.6966 3.94983 67.907 6.03898C70.1174 8.12813 71.4507 10.9796 71.6366 14.0154C70.6375 12.2378 69.2523 10.707 67.5832 9.53572C65.914 8.36442 64.0034 7.58247 61.992 7.24745L62.0008 7.27392ZM23.6256 26.6865C24.111 25.6978 24.3645 24.6114 24.3668 23.5099C24.3632 22.2547 24.0381 21.0214 23.4227 19.9274V3.44434C23.4235 3.26863 23.3719 3.09666 23.2745 2.95046C23.177 2.80426 23.0381 2.69049 22.8756 2.62372C22.7141 2.55725 22.5364 2.54021 22.3652 2.57477C22.194 2.60933 22.0369 2.69392 21.9138 2.81785L19.3901 5.33266C19.2565 5.47687 19.1703 5.65856 19.1431 5.85327L17.8548 16.2214C17.3218 16.1508 16.7818 16.1508 16.2488 16.2214L14.9694 5.85327C14.9452 5.65586 14.855 5.4724 14.7135 5.33266L12.1986 2.81785C12.0752 2.6934 11.9175 2.60853 11.7457 2.57406C11.5738 2.53958 11.3956 2.55706 11.2338 2.62427C11.0719 2.69148 10.9337 2.80537 10.8368 2.95143C10.7399 3.09748 10.6887 3.26908 10.6897 3.44434V19.9274C10.0702 21.0197 9.74488 22.2542 9.74559 23.5099C9.74947 24.6102 9.99972 25.6956 10.478 26.6865C5.6453 31.1019 2.44131 37.0168 1.38307 43.4766C0.324834 49.9365 1.47409 56.5645 4.64536 62.2911C4.83444 62.6302 5.09773 62.9222 5.41556 63.1453C5.73338 63.3684 6.09751 63.5168 6.48074 63.5793C6.62458 63.5921 6.76927 63.5921 6.91311 63.5793C7.30489 63.58 7.69146 63.4895 8.04219 63.3149C8.39291 63.1403 8.69817 62.8864 8.93379 62.5734C9.22222 62.2027 9.4042 61.7603 9.46017 61.2939C9.51613 60.8275 9.44398 60.3547 9.25145 59.9262C7.09797 55.0535 6.41425 49.6579 7.28422 44.402C8.1542 39.1461 10.54 34.2586 14.1487 30.3396C14.1694 30.3153 14.1871 30.2887 14.2017 30.2602C15.1012 30.6445 16.0692 30.8426 17.0474 30.8426C18.0255 30.8426 18.9936 30.6445 19.8931 30.2602L19.9549 30.3396C23.5753 34.2607 25.9697 39.1552 26.843 44.4201C27.7163 49.685 27.0304 55.0904 24.8698 59.9704C24.6911 60.3667 24.6152 60.8016 24.6491 61.235C24.683 61.6684 24.8257 62.0862 25.0639 62.4499C25.2935 62.8077 25.6094 63.1019 25.9826 63.3054C26.3558 63.509 26.7742 63.6153 27.1993 63.6146C27.3461 63.6281 27.4937 63.6281 27.6405 63.6146C28.0225 63.5518 28.3856 63.4043 28.7032 63.1829C29.0208 62.9615 29.2848 62.6719 29.4759 62.3352C32.6483 56.6068 33.7974 49.9763 32.7375 43.5145C31.6776 37.0526 28.4706 31.1366 23.6344 26.7218L23.6256 26.6865ZM20.8549 6.39153L21.6579 5.59738V17.8626C21.0338 17.3539 20.3303 16.9515 19.5754 16.6714L20.8549 6.39153ZM12.4634 5.59738L13.2663 6.39153L14.5282 16.6979C13.7813 16.9716 13.0839 17.365 12.4634 17.8626V5.59738ZM5.52776 44.1226C4.59005 49.7308 5.32349 55.4909 7.63667 60.6851C7.70791 60.8257 7.73667 60.984 7.71944 61.1407C7.7022 61.2974 7.63972 61.4457 7.53961 61.5675C7.45174 61.6838 7.33386 61.774 7.19861 61.8284C7.06337 61.8828 6.91587 61.8994 6.77193 61.8763C6.65145 61.8576 6.53668 61.8122 6.43594 61.7435C6.3352 61.6748 6.25103 61.5845 6.18955 61.4793C3.23831 56.1404 2.15635 49.9683 3.11563 43.944C4.07492 37.9197 7.02041 32.3889 11.4839 28.2307C11.8397 28.6542 12.2423 29.0361 12.684 29.369C8.93162 33.4979 6.44729 38.6197 5.52776 44.1226ZM17.0518 29.0514C15.9558 29.0514 14.8844 28.7264 13.9731 28.1175C13.0619 27.5086 12.3516 26.6431 11.9322 25.6305C11.5128 24.618 11.403 23.5038 11.6169 22.4289C11.8307 21.3539 12.3584 20.3665 13.1334 19.5916C13.9084 18.8166 14.8958 18.2888 15.9707 18.075C17.0456 17.8612 18.1598 17.9709 19.1724 18.3903C20.185 18.8097 21.0504 19.52 21.6593 20.4313C22.2682 21.3426 22.5932 22.4139 22.5932 23.5099C22.5909 24.9789 22.0063 26.387 20.9676 27.4257C19.9289 28.4644 18.5208 29.049 17.0518 29.0514ZM27.914 61.444C27.8517 61.5503 27.7661 61.6412 27.6638 61.71C27.5614 61.7787 27.4449 61.8235 27.3228 61.841C27.1692 61.8664 27.0115 61.8465 26.8689 61.7839C26.7263 61.7212 26.6051 61.6184 26.5199 61.4881C26.448 61.368 26.4057 61.2326 26.3965 61.093C26.3873 60.9534 26.4114 60.8136 26.4669 60.6851C28.7527 55.5332 29.4941 49.8286 28.6013 44.2635C27.7085 38.6985 25.2199 33.5121 21.4373 29.3337C21.8798 28.9986 22.285 28.617 22.6462 28.1954C27.119 32.3475 30.0711 37.879 31.0309 43.9061C31.9906 49.9331 30.9025 56.108 27.9405 61.444H27.914ZM17.0518 19.2921C16.2151 19.2904 15.3967 19.537 14.7003 20.0007C14.0039 20.4645 13.4607 21.1245 13.1397 21.8972C12.8187 22.6699 12.7343 23.5205 12.8971 24.3412C13.0599 25.1619 13.4626 25.9158 14.0543 26.5074C14.6459 27.0991 15.3998 27.5018 16.2206 27.6646C17.0413 27.8274 17.8918 27.743 18.6645 27.422C19.4372 27.101 20.0972 26.5579 20.561 25.8615C21.0247 25.165 21.2714 24.3466 21.2696 23.5099C21.2673 22.392 20.8222 21.3205 20.0317 20.5301C19.2412 19.7396 18.1697 19.2944 17.0518 19.2921ZM17.0518 25.9718C16.5645 25.9736 16.0877 25.8307 15.6817 25.5612C15.2756 25.2918 14.9587 24.9079 14.771 24.4582C14.5834 24.0085 14.5333 23.5132 14.6273 23.0351C14.7213 22.5569 14.9551 22.1175 15.299 21.7723C15.643 21.4271 16.0816 21.1917 16.5594 21.096C17.0372 21.0003 17.5327 21.0486 17.983 21.2346C18.4334 21.4207 18.8184 21.7362 19.0893 22.1413C19.3602 22.5463 19.5048 23.0226 19.5048 23.5099C19.5048 24.1613 19.2467 24.7862 18.7869 25.2476C18.3271 25.7091 17.7032 25.9695 17.0518 25.9718Z"/>
</mask>
<path d="M59.7331 1.00012H43.9295C43.7205 0.996709 43.5171 1.06756 43.3556 1.20007C43.194 1.33257 43.0846 1.51812 43.0471 1.72368C42.8578 2.99708 42.3678 4.20703 41.6176 5.25325C40.8562 4.21232 40.3623 3.00027 40.1793 1.72368C40.1417 1.51812 40.0324 1.33257 39.8708 1.20007C39.7092 1.06756 39.5058 0.996709 39.2969 1.00012H35.4585C34.4498 1.00012 33.4825 1.4008 32.7693 2.11402C32.0561 2.82724 31.6554 3.79458 31.6554 4.80323V14.8448C31.6554 15.8535 32.0561 16.8208 32.7693 17.534C33.4825 18.2473 34.4498 18.648 35.4585 18.648H39.3322C39.5411 18.6514 39.7445 18.5805 39.9061 18.448C40.0677 18.3155 40.177 18.13 40.2146 17.9244C40.3976 16.6478 40.8915 15.4358 41.6529 14.3948C42.4031 15.441 42.8931 16.651 43.0824 17.9244C43.1199 18.13 43.2293 18.3155 43.3909 18.448C43.5524 18.5805 43.7558 18.6514 43.9647 18.648H47.4943V61.8852C47.4943 62.7113 47.8225 63.5035 48.4066 64.0877C48.9908 64.6718 49.7831 65 50.6092 65H53.1063C53.9324 65 54.7247 64.6718 55.3089 64.0877C55.893 63.5035 56.2212 62.7113 56.2212 61.8852V18.648H59.7507C59.9848 18.648 60.2092 18.555 60.3747 18.3895C60.5402 18.224 60.6331 17.9996 60.6331 17.7656V9.90345C60.63 9.76866 60.6578 9.63495 60.7144 9.51258C60.771 9.39021 60.8549 9.28244 60.9596 9.19754C61.065 9.10947 61.1881 9.045 61.3205 9.00847C61.4529 8.97194 61.5916 8.9642 61.7273 8.98576C64.04 9.37116 66.1873 10.4309 67.9 12.0321C69.6126 13.6333 70.8143 15.7046 71.3542 17.9862C71.4008 18.1836 71.5139 18.3589 71.6747 18.4827C71.8354 18.6064 72.0338 18.671 72.2366 18.6656C72.4381 18.6715 72.6357 18.6081 72.7962 18.4861C72.9568 18.3641 73.0707 18.1908 73.119 17.995C73.3823 16.9326 73.5156 15.8423 73.5161 14.7478C73.5161 12.9394 73.1593 11.1489 72.4662 9.47861C71.7731 7.80837 70.7573 6.29127 69.477 5.01422C68.1967 3.73716 66.6769 2.72525 65.0049 2.03645C63.3329 1.34764 61.5414 0.995475 59.7331 1.00012ZM54.4387 61.8852C54.4297 62.2349 54.2862 62.5676 54.038 62.8142C53.7898 63.0607 53.4561 63.202 53.1063 63.2087H50.5827C50.2246 63.2087 49.8812 63.0665 49.6281 62.8133C49.3749 62.5601 49.2326 62.2167 49.2326 61.8587V18.6215H54.4299L54.4387 61.8852ZM62.0008 7.27392C61.6158 7.21165 61.2218 7.23326 60.8459 7.33728C60.47 7.4413 60.121 7.62527 59.8227 7.87662C59.5244 8.12797 59.2839 8.44077 59.1177 8.79362C58.9515 9.14648 58.8634 9.53107 58.8595 9.9211V16.9008H44.6354C44.2824 15.4625 43.4 12.5683 41.6352 12.5683C39.8704 12.5683 38.9881 15.4625 38.6175 16.8832H35.4585C34.9186 16.8808 34.4015 16.6654 34.0197 16.2836C33.638 15.9018 33.4225 15.3847 33.4202 14.8448V4.80323C33.4225 4.26334 33.638 3.74624 34.0197 3.36448C34.4015 2.98272 34.9186 2.76722 35.4585 2.7649H38.6175C38.9881 4.18555 39.8704 7.0798 41.6352 7.0798C43.4 7.0798 44.2824 4.18555 44.6354 2.7649H59.7331C62.7745 2.77937 65.6966 3.94983 67.907 6.03898C70.1174 8.12813 71.4507 10.9796 71.6366 14.0154C70.6375 12.2378 69.2523 10.707 67.5832 9.53572C65.914 8.36442 64.0034 7.58247 61.992 7.24745L62.0008 7.27392ZM23.6256 26.6865C24.111 25.6978 24.3645 24.6114 24.3668 23.5099C24.3632 22.2547 24.0381 21.0214 23.4227 19.9274V3.44434C23.4235 3.26863 23.3719 3.09666 23.2745 2.95046C23.177 2.80426 23.0381 2.69049 22.8756 2.62372C22.7141 2.55725 22.5364 2.54021 22.3652 2.57477C22.194 2.60933 22.0369 2.69392 21.9138 2.81785L19.3901 5.33266C19.2565 5.47687 19.1703 5.65856 19.1431 5.85327L17.8548 16.2214C17.3218 16.1508 16.7818 16.1508 16.2488 16.2214L14.9694 5.85327C14.9452 5.65586 14.855 5.4724 14.7135 5.33266L12.1986 2.81785C12.0752 2.6934 11.9175 2.60853 11.7457 2.57406C11.5738 2.53958 11.3956 2.55706 11.2338 2.62427C11.0719 2.69148 10.9337 2.80537 10.8368 2.95143C10.7399 3.09748 10.6887 3.26908 10.6897 3.44434V19.9274C10.0702 21.0197 9.74488 22.2542 9.74559 23.5099C9.74947 24.6102 9.99972 25.6956 10.478 26.6865C5.6453 31.1019 2.44131 37.0168 1.38307 43.4766C0.324834 49.9365 1.47409 56.5645 4.64536 62.2911C4.83444 62.6302 5.09773 62.9222 5.41556 63.1453C5.73338 63.3684 6.09751 63.5168 6.48074 63.5793C6.62458 63.5921 6.76927 63.5921 6.91311 63.5793C7.30489 63.58 7.69146 63.4895 8.04219 63.3149C8.39291 63.1403 8.69817 62.8864 8.93379 62.5734C9.22222 62.2027 9.4042 61.7603 9.46017 61.2939C9.51613 60.8275 9.44398 60.3547 9.25145 59.9262C7.09797 55.0535 6.41425 49.6579 7.28422 44.402C8.1542 39.1461 10.54 34.2586 14.1487 30.3396C14.1694 30.3153 14.1871 30.2887 14.2017 30.2602C15.1012 30.6445 16.0692 30.8426 17.0474 30.8426C18.0255 30.8426 18.9936 30.6445 19.8931 30.2602L19.9549 30.3396C23.5753 34.2607 25.9697 39.1552 26.843 44.4201C27.7163 49.685 27.0304 55.0904 24.8698 59.9704C24.6911 60.3667 24.6152 60.8016 24.6491 61.235C24.683 61.6684 24.8257 62.0862 25.0639 62.4499C25.2935 62.8077 25.6094 63.1019 25.9826 63.3054C26.3558 63.509 26.7742 63.6153 27.1993 63.6146C27.3461 63.6281 27.4937 63.6281 27.6405 63.6146C28.0225 63.5518 28.3856 63.4043 28.7032 63.1829C29.0208 62.9615 29.2848 62.6719 29.4759 62.3352C32.6483 56.6068 33.7974 49.9763 32.7375 43.5145C31.6776 37.0526 28.4706 31.1366 23.6344 26.7218L23.6256 26.6865ZM20.8549 6.39153L21.6579 5.59738V17.8626C21.0338 17.3539 20.3303 16.9515 19.5754 16.6714L20.8549 6.39153ZM12.4634 5.59738L13.2663 6.39153L14.5282 16.6979C13.7813 16.9716 13.0839 17.365 12.4634 17.8626V5.59738ZM5.52776 44.1226C4.59005 49.7308 5.32349 55.4909 7.63667 60.6851C7.70791 60.8257 7.73667 60.984 7.71944 61.1407C7.7022 61.2974 7.63972 61.4457 7.53961 61.5675C7.45174 61.6838 7.33386 61.774 7.19861 61.8284C7.06337 61.8828 6.91587 61.8994 6.77193 61.8763C6.65145 61.8576 6.53668 61.8122 6.43594 61.7435C6.3352 61.6748 6.25103 61.5845 6.18955 61.4793C3.23831 56.1404 2.15635 49.9683 3.11563 43.944C4.07492 37.9197 7.02041 32.3889 11.4839 28.2307C11.8397 28.6542 12.2423 29.0361 12.684 29.369C8.93162 33.4979 6.44729 38.6197 5.52776 44.1226ZM17.0518 29.0514C15.9558 29.0514 14.8844 28.7264 13.9731 28.1175C13.0619 27.5086 12.3516 26.6431 11.9322 25.6305C11.5128 24.618 11.403 23.5038 11.6169 22.4289C11.8307 21.3539 12.3584 20.3665 13.1334 19.5916C13.9084 18.8166 14.8958 18.2888 15.9707 18.075C17.0456 17.8612 18.1598 17.9709 19.1724 18.3903C20.185 18.8097 21.0504 19.52 21.6593 20.4313C22.2682 21.3426 22.5932 22.4139 22.5932 23.5099C22.5909 24.9789 22.0063 26.387 20.9676 27.4257C19.9289 28.4644 18.5208 29.049 17.0518 29.0514ZM27.914 61.444C27.8517 61.5503 27.7661 61.6412 27.6638 61.71C27.5614 61.7787 27.4449 61.8235 27.3228 61.841C27.1692 61.8664 27.0115 61.8465 26.8689 61.7839C26.7263 61.7212 26.6051 61.6184 26.5199 61.4881C26.448 61.368 26.4057 61.2326 26.3965 61.093C26.3873 60.9534 26.4114 60.8136 26.4669 60.6851C28.7527 55.5332 29.4941 49.8286 28.6013 44.2635C27.7085 38.6985 25.2199 33.5121 21.4373 29.3337C21.8798 28.9986 22.285 28.617 22.6462 28.1954C27.119 32.3475 30.0711 37.879 31.0309 43.9061C31.9906 49.9331 30.9025 56.108 27.9405 61.444H27.914ZM17.0518 19.2921C16.2151 19.2904 15.3967 19.537 14.7003 20.0007C14.0039 20.4645 13.4607 21.1245 13.1397 21.8972C12.8187 22.6699 12.7343 23.5205 12.8971 24.3412C13.0599 25.1619 13.4626 25.9158 14.0543 26.5074C14.6459 27.0991 15.3998 27.5018 16.2206 27.6646C17.0413 27.8274 17.8918 27.743 18.6645 27.422C19.4372 27.101 20.0972 26.5579 20.561 25.8615C21.0247 25.165 21.2714 24.3466 21.2696 23.5099C21.2673 22.392 20.8222 21.3205 20.0317 20.5301C19.2412 19.7396 18.1697 19.2944 17.0518 19.2921ZM17.0518 25.9718C16.5645 25.9736 16.0877 25.8307 15.6817 25.5612C15.2756 25.2918 14.9587 24.9079 14.771 24.4582C14.5834 24.0085 14.5333 23.5132 14.6273 23.0351C14.7213 22.5569 14.9551 22.1175 15.299 21.7723C15.643 21.4271 16.0816 21.1917 16.5594 21.096C17.0372 21.0003 17.5327 21.0486 17.983 21.2346C18.4334 21.4207 18.8184 21.7362 19.0893 22.1413C19.3602 22.5463 19.5048 23.0226 19.5048 23.5099C19.5048 24.1613 19.2467 24.7862 18.7869 25.2476C18.3271 25.7091 17.7032 25.9695 17.0518 25.9718Z" fill="#1B1B1B" stroke="white" stroke-width="0.3" mask="url(#path-5-inside-2_190_38998)"/>
</svg>
